<svg xmlns="http://www.w3.org/2000/svg" xmlns:xlink="http://www.w3.org/1999/xlink" width="630.43" height="593.899" viewBox="0 0 630.43 593.899">
  <defs>
    <linearGradient id="linear-gradient" x1="-3.503" y1="0.355" x2="-3.964" y2="0.789" gradientUnits="objectBoundingBox">
      <stop offset="0" stop-color="#502e25"/>
      <stop offset="1" stop-color="#201310"/>
    </linearGradient>
    <linearGradient id="linear-gradient-2" x1="0.656" y1="0.355" x2="0.195" y2="0.789" xlink:href="#linear-gradient"/>
    <linearGradient id="linear-gradient-3" x1="-1.057" y1="2.779" x2="-2.039" y2="2.779" xlink:href="#linear-gradient"/>
    <clipPath id="clip-path">
      <path id="Caminho_1409" data-name="Caminho 1409" d="M68.219,102.153c.891,4.632,11.4,8.908,18.172,7.661s8.017-5.523,7.126-10.155-3.563-8.2-10.333-6.948S67.328,97.342,68.219,102.153Z" transform="translate(-68.158 -92.459)"/>
    </clipPath>
  </defs>
  <g id="Grupo_570" data-name="Grupo 570" transform="translate(-130.229 -70.034)">
    <path id="Caminho_482" data-name="Caminho 482" d="M516.152,310.247c0,142.782-207.048,159.582-349.83,159.582S-72.347,0,70.436,0,516.152,167.455,516.152,310.247Z" transform="translate(760.659 521.662) rotate(164)" fill="#eabf34" opacity="0.2"/>
    <g id="tela1-1" transform="translate(251.659 154.598)">
      <path id="Caminho_1393" data-name="Caminho 1393" d="M157.262,28.525c3.741.356,7.483,1.96,8.73,5.167,1.247,3.385-1.782,8.374-5.523,7.661,4.276-.713,8.73-.713,12.293,1.247a9.443,9.443,0,0,1,4.989,10.155c-.891,4.1-5.523,7.839-9.621,6.77,4.1,1.425,7.839,3.385,10.155,6.77s3.207,8.2,1.069,12.115c-2.138,4.1-7.3,6.592-11.224,4.988,2.672,3.029,4.81,7.483,2.851,11.4-1.782,3.563-6.057,5.523-9.977,5.523s-7.3-1.782-10.69-3.385c-3.385,7.126-13.006,11.046-19.6,7.839-3.563-1.782-6.057-6.414-3.385-9.8-3.92,1.6-8.017,3.207-12.115,3.385s-8.374-1.247-10.155-4.632S104.705,85,108.625,83.4c-5.7,2.851-13.006,1.069-15.678-4.1-2.672-4.988-.534-12.471,4.632-16.213-5.879-3.385-8.2-11.4-5.345-18.172a9.443,9.443,0,0,1,4.632-5.167c3.741-1.782,7.483.356,10.69,2.316-2.138-3.92-.178-9.977,4.276-12.471,4.276-2.494,10.155-1.069,12.115,3.029,2.672-3.385,5.345-6.77,8.908-9.086s8.374-3.029,11.58-.713,3.207,8.017-.534,10.155C146.395,29.237,152.452,27.812,157.262,28.525Z" transform="translate(-62.401 0)" fill="url(#linear-gradient)"/>
      <g id="Grupo_426" data-name="Grupo 426" transform="translate(109.115 322.845)">
        <path id="Caminho_1394" data-name="Caminho 1394" d="M79.206,190.6c0,30.644-.356,79.281,4.276,104.224H89.54c4.81-33.138,10.511-69.661,16.034-104.224Z" transform="translate(-75.465 -190.6)" fill="#d99156"/>
        <path id="Caminho_1395" data-name="Caminho 1395" d="M99.1,250.378l5.523,8.2L85.2,257.148l8.374-6.948Z" transform="translate(-85.2 -144.017)" fill="#473a57"/>
      </g>
      <g id="Grupo_427" data-name="Grupo 427" transform="translate(161.316 321.776)">
        <path id="Caminho_1396" data-name="Caminho 1396" d="M52,192.138c2.494,30.465,6.414,79.1,13.006,103.511,1.96-.178,4.1-.356,6.057-.535,2.138-33.494,4.81-70.2,7.3-105.114Z" transform="translate(-52 -190)" fill="#d99156"/>
        <path id="Caminho_1397" data-name="Caminho 1397" d="M66.062,250.3l6.057,7.661-19.419.178,7.661-7.661Z" transform="translate(-46.999 -142.869)" fill="#473a57"/>
      </g>
      <path id="Caminho_1398" data-name="Caminho 1398" d="M51.924,28.525c-3.741.356-7.483,1.96-8.73,5.167s1.782,8.374,5.523,7.661c-4.276-.713-8.73-.713-12.293,1.247a9.443,9.443,0,0,0-4.989,10.155c.891,4.1,5.523,7.839,9.621,6.77-4.1,1.425-7.839,3.385-10.155,6.77s-3.207,8.2-1.069,12.115c2.138,4.1,7.3,6.592,11.224,4.988-2.672,3.029-4.81,7.483-2.851,11.4,1.782,3.563,6.057,5.523,9.977,5.523s7.3-1.782,10.69-3.385c3.385,7.126,13.006,11.046,19.6,7.839,3.563-1.782,6.057-6.414,3.385-9.8,3.92,1.6,8.017,3.207,12.115,3.385s8.374-1.247,10.155-4.632.356-8.73-3.563-10.333c5.7,2.851,13.006,1.069,15.678-4.1,2.672-4.988.534-12.471-4.632-16.213,5.879-3.385,8.2-11.4,5.345-18.172a9.443,9.443,0,0,0-4.632-5.167c-3.741-1.782-7.483.356-10.69,2.316,2.138-3.92.178-9.977-4.276-12.471C93.079,27.1,87.2,28.525,85.24,32.622c-2.672-3.385-5.345-6.77-8.908-9.086s-8.374-3.029-11.58-.713-3.207,8.017.534,10.155C62.614,29.237,56.735,27.812,51.924,28.525Z" transform="translate(111.173 0)" fill="url(#linear-gradient-2)"/>
      <circle id="Elipse_483" data-name="Elipse 483" cx="9.086" cy="9.086" r="9.086" transform="translate(165.591 54.714)" fill="#6eaa6f" stroke="#000" stroke-miterlimit="10" stroke-width="0.5"/>
      <circle id="Elipse_484" data-name="Elipse 484" cx="9.086" cy="9.086" r="9.086" transform="translate(154.902 50.26)" fill="#6eaa6f" stroke="#000" stroke-miterlimit="10" stroke-width="0.5"/>
      <path id="Caminho_1399" data-name="Caminho 1399" d="M55.062,41.507c-.534.356,1.425,1.069,3.385,3.207,1.425,1.6,2.138,5.879,2.672,5.523s1.782-3.563-.891-6.77C57.913,40.795,55.775,41.151,55.062,41.507Z" transform="translate(120.506 15.523)" fill="#ede39f"/>
      <path id="Caminho_1400" data-name="Caminho 1400" d="M60.875,39c-.534.713,2.316.891,5.7,3.029,2.316,1.6,4.988,6.948,5.523,6.236s1.069-5.345-3.741-8.552C64.26,37.044,61.41,38.291,60.875,39Z" transform="translate(99.55 13.038)" fill="#ede39f"/>
      <path id="Caminho_1401" data-name="Caminho 1401" d="M151.505,128.652c3.385-9.442,10.155-21.557,11.4-31.534,4.1-32.781-10.155-50.419-37.235-54.7-20.132-3.207-46.144-4.1-60.753,12.471C48.351,73.422,45.5,108.52,53.874,131.324c.891,2.672,8.552,11.224,10.69,13.184s6.057-1.069,8.552-2.316Z" transform="translate(28.873 14.964)" fill="url(#linear-gradient-3)"/>
      <path id="Caminho_1402" data-name="Caminho 1402" d="M157.262,28.525c3.741.356,7.483,1.96,8.73,5.167,1.247,3.385-1.782,8.374-5.523,7.661,4.276-.713,8.73-.713,12.293,1.247a9.443,9.443,0,0,1,4.989,10.155c-.891,4.1-5.523,7.839-9.621,6.77,4.1,1.425,7.839,3.385,10.155,6.77s3.207,8.2,1.069,12.115c-2.138,4.1-7.3,6.592-11.224,4.988,2.672,3.029,4.81,7.483,2.851,11.4-1.782,3.563-6.057,5.523-9.977,5.523s-7.3-1.782-10.69-3.385c-3.385,7.126-13.006,11.046-19.6,7.839-3.563-1.782-6.057-6.414-3.385-9.8-3.92,1.6-8.017,3.207-12.115,3.385s-8.374-1.247-10.155-4.632S104.705,85,108.625,83.4c-5.7,2.851-13.006,1.069-15.678-4.1-2.672-4.988-.534-12.471,4.632-16.213-5.879-3.385-8.2-11.4-5.345-18.172a9.443,9.443,0,0,1,4.632-5.167c3.741-1.782,7.483.356,10.69,2.316-2.138-3.92-.178-9.977,4.276-12.471,4.276-2.494,10.155-1.069,12.115,3.029,2.672-3.385,5.345-6.77,8.908-9.086s8.374-3.029,11.58-.713,3.207,8.017-.534,10.155C146.395,29.237,152.452,27.812,157.262,28.525Z" transform="translate(-62.401 0)" fill="url(#linear-gradient)"/>
      <path id="Caminho_1403" data-name="Caminho 1403" d="M51.462,129.594c2.494-2.494,7.126-2.851,9.086.178.178.356,1.247,2.316,1.6,2.316a14.841,14.841,0,0,1,2.672-.713c-.178,0-1.247-8.017-2.494-17.282a27.339,27.339,0,0,0,4.81-7.839c2.316-6.236,1.782-23.517.534-30.109,11.759-24.408,67.879-36.879,81.954,1.96.178.356-4.988,22.8,4.454,28.149,8.374,4.632.534,38.839-29.04,42.046-14.253,1.6-51.31-.891-59.862-8.017-.356-.356-.891-.178-1.069.356A8.274,8.274,0,0,1,61.8,144.2l-.534.535c-3.563,2.316-11.046-.356-12.649-4.632C47.008,136.364,48.968,132.088,51.462,129.594Z" transform="translate(37.521 24.89)" fill="#ba7b43"/>
      <path id="Caminho_1404" data-name="Caminho 1404" d="M87.679,76.92a23.373,23.373,0,0,1,.891,11.224c-.356,2.851-5.523,4.276-6.592,1.6-1.782-3.741-1.96-9.443-1.247-12.828C81.444,73.179,86.076,72.645,87.679,76.92Z" transform="translate(48.338 41.041)" fill="#201f20"/>
      <path id="Caminho_1405" data-name="Caminho 1405" d="M70.079,76.92a23.373,23.373,0,0,1,.891,11.224c-.356,2.851-5.523,4.276-6.592,1.6-1.782-3.741-1.96-9.443-1.247-12.828C63.844,73.179,68.476,72.645,70.079,76.92Z" transform="translate(97.294 41.041)" fill="#201f20"/>
      <path id="Caminho_1406" data-name="Caminho 1406" d="M104.75,98.163a5.637,5.637,0,0,1,6.77.713,1.274,1.274,0,0,1-.356,2.138c-1.069.534-1.782,1.425-1.247,2.672.534,1.425,2.138.891,3.207.534a.883.883,0,0,1,1.069,1.069c-.891,2.672-4.81,2.138-6.236.178a4.552,4.552,0,0,1,.356-5.523,3.092,3.092,0,0,0-2.494.534c-.891.713-.891,2.138-1.069,3.207a.873.873,0,0,1-1.6.178A4.531,4.531,0,0,1,104.75,98.163Z" transform="translate(-16.836 59.35)" fill="#915b23"/>
      <path id="VENTA_1_" d="M67.4,89.659a4.686,4.686,0,0,1,4.988-6.236,10.277,10.277,0,0,1,2.494.534h0c-.534-.178-.356-.178,0,0A5.867,5.867,0,0,1,81.832,87.7c1.069,2.851-.356,6.948-3.385,7.661C73.814,96.607,69.36,94.469,67.4,89.659Z" transform="translate(78.593 48.434)" fill="#774928" opacity="0.6"/>
      <g id="Grupo_429" data-name="Grupo 429" transform="translate(133.284 147.997)">
        <path id="Caminho_1407" data-name="Caminho 1407" d="M68.219,102.153c.891,4.632,11.4,8.908,18.172,7.661s8.017-5.523,7.126-10.155-3.563-8.2-10.333-6.948S67.328,97.342,68.219,102.153Z" transform="translate(-68.158 -92.459)" fill="#c64832"/>
        <g id="Grupo_428" data-name="Grupo 428" transform="translate(0)" clip-path="url(#clip-path)">
          <path id="Caminho_1408" data-name="Caminho 1408" d="M68.894,100.753c-1.069-4.988,7.3-13.184,14.431-14.787S93.3,88.1,94.371,92.914s0,9.264-7.126,10.868S69.963,105.741,68.894,100.753Z" transform="translate(-70.258 -97.829)" fill="#fff"/>
        </g>
      </g>
      <g id="ROUPA_1_" transform="translate(105.252 181.742)">
        <path id="Caminho_1410" data-name="Caminho 1410" d="M52.548,159.9c-5.345,9.8,6.77,138.965,5.7,144.488,8.73,1.96,5.879.356,14.787,2.494,2.672-8.017,18.885-79.1,22.092-87.477l2.851-.178c.534,0,0,.891.178,1.425,5.345,15.5,12.828,73.936,18.172,87.477,6.592-1.425,9.442.178,16.034-1.247-1.069-29.4,5.345-96.919,1.425-126.137Z" transform="translate(-51.18 -73.492)" fill="#58167d"/>
        <g id="FRENTE_1_" transform="translate(54.103)">
          <path id="Caminho_1411" data-name="Caminho 1411" d="M67.691,114.838c-.356-.713-.534-1.425-.891-2.138C67.156,113.413,67.335,114.125,67.691,114.838Z" transform="translate(-65.731 -110.384)" fill="#e6b54a"/>
          <path id="Caminho_1412" data-name="Caminho 1412" d="M68.291,113.36c-.356-.713-.534-1.247-.891-1.96A17.358,17.358,0,0,1,68.291,113.36Z" transform="translate(-67.4 -111.4)" fill="#e6b54a"/>
          <path id="Caminho_1413" data-name="Caminho 1413" d="M67.9,111.4Z" transform="translate(-67.9 -111.4)" fill="#e6b54a"/>
          <path id="Caminho_1414" data-name="Caminho 1414" d="M67.478,112.856c0-.178-.178-.178-.178-.356A.622.622,0,0,0,67.478,112.856Z" transform="translate(-66.409 -110.54)" fill="#e6b54a"/>
        </g>
      </g>
      <g id="ESQUERDA_4_" transform="translate(181.924 241.515)">
        <g id="Grupo_432" data-name="Grupo 432">
          <g id="Grupo_431" data-name="Grupo 431">
            <path id="Caminho_1415" data-name="Caminho 1415" d="M40.523,147.355a96.941,96.941,0,0,1,.534,10.155,103.464,103.464,0,0,1-.891,12.828c-.534,4.632-2.138,9.086-1.247,13.718.713,3.92,5.879,4.632,8.017,1.6,4.988-6.948,4.81-19.241,4.988-27.615.178-3.741,0-7.483,0-11.224C48.719,144.5,42.839,143.97,40.523,147.355Z" transform="translate(-22.471 -144.95)" fill="#d99156"/>
            <g id="Grupo_430" data-name="Grupo 430" transform="translate(0 30.17)">
              <path id="Caminho_1416" data-name="Caminho 1416" d="M46.525,191.843c0,.535,3.563,3.92,5.345,2.316,3.029-3.029,1.247-3.92,1.6-6.592.178,2.494.713,8.017,4.632,7.126,3.385-.713,1.96-4.988,2.138-6.414.178-.891-.891-2.316-.178-1.425,0,0-.178,6.592,6.236,3.563,1.96-.891-.356-6.236-.356-6.236s0,.891,1.425,1.6,1.425.178,2.672-.356c1.425-.534.178-4.276,0-4.632-2.138-3.029-1.069-1.96-1.96-5.7-.713-2.672-.713-4.81-2.138-7.126-1.247-1.96-1.96-2.851-3.92-3.029a8.537,8.537,0,0,1-4.632-1.6c-1.425-1.247-2.494-1.782-4.454-1.247-1.782.356-3.029,1.782-4.1,3.385s-1.782,3.741-2.851,5.345a7.694,7.694,0,0,1-4.988,4.1c-1.425.356-2.851.713-4.1,1.069-1.425.356-1.782.356-1.247,1.782A6.4,6.4,0,0,0,36.9,179.55c3.207,3.741,5.879.534,10.69-2.138C46.169,185.251,45.99,185.073,46.525,191.843Z" transform="translate(-35.421 -161.884)" fill="#d99156"/>
            </g>
          </g>
        </g>
      </g>
      <g id="ESQUERDA_1_" transform="translate(81.5 247.845)">
        <g id="Grupo_435" data-name="Grupo 435" transform="translate(0)">
          <g id="Grupo_434" data-name="Grupo 434">
            <path id="Caminho_1417" data-name="Caminho 1417" d="M110.566,149.567a49.312,49.312,0,0,0,1.782,8.908,110.711,110.711,0,0,0,3.563,10.868c1.425,3.92,3.741,7.483,4.276,11.58.356,3.563-4.1,5.345-6.592,3.207-5.879-4.81-8.374-15.678-10.511-22.626-.891-3.207-1.782-6.414-2.494-9.621C102.727,149.032,107.893,147.251,110.566,149.567Z" transform="translate(-100.589 -148.503)" fill="#d99156"/>
            <g id="Grupo_433" data-name="Grupo 433" transform="translate(1.069 24.403)">
              <path id="Caminho_1418" data-name="Caminho 1418" d="M124.191,194.091a4.427,4.427,0,0,1,.178,1.425,1.853,1.853,0,0,1-2.316,1.069,4.239,4.239,0,0,1-2.316-1.6c-3.029-3.207-5.345-11.046-7.661-10.155-1.6.713-.178,5.523.534,8.73a17.571,17.571,0,0,1,.535,4.276,2.186,2.186,0,0,1-4.276.534c-.713-3.207-.713-8.374-1.96-11.4a.961.961,0,0,0-1.782,0l-2.851,8.552c-.535,1.247-1.6,2.672-2.851,2.138-1.069-.356-1.069-1.96-.891-3.029a28.991,28.991,0,0,1,2.316-6.592c.534-1.069,1.247-2.494.356-3.563s-2.672-.713-3.563.178c-1.069.891-1.782,2.138-2.851,2.851-1.247.713-3.207.178-3.207-1.247A3.3,3.3,0,0,1,91.944,185c1.782-2.851,6.057-4.632,6.057-8.017,0-2.494-.891-4.276-.178-6.592.534-1.96,1.069-2.851,2.672-3.563a7.744,7.744,0,0,0,3.741-2.494c1.069-1.425,1.782-2.138,3.563-2.138a6.716,6.716,0,0,1,4.454,1.96c1.247,1.069,2.316,2.851,3.563,4.1,1.6,1.6,3.207.535,5.167-.356a5.5,5.5,0,0,1,3.207-.891,2.292,2.292,0,0,1,1.96,2.672,5.335,5.335,0,0,1-.713,1.782c-1.782,3.92-5.167,2.672-9.8,2.851C116.53,181.441,122.409,187.677,124.191,194.091Z" transform="translate(-91.587 -162.2)" fill="#d99156"/>
            </g>
          </g>
        </g>
      </g>
      <path id="DIREITO_3_" d="M32.614,113.891c-2.316-2.138,16.925,4.1,22.448,7.483,12.115,7.3,26.19,15.856,34.563,29.4,5.879,16.747,5.345,34.207,3.563,42.58-3.563,0-26.19,2.494-32.425-3.029,2.672-7.839,9.977-30.465,9.977-30.465S55.418,142.219,47.4,138.834c-1.782-2.316-4.1-13.54-8.552-19.6C37.424,117.277,34.4,115.317,32.614,113.891Z" transform="translate(128.167 71.949)" fill="#a01127"/>
      <path id="GOLA_1_" d="M66.6,114.841c0,2.494,5.345,4.989,13.006,4.989s14.253-2.494,14.253-4.989c0-.891-2.672-3.741-4.1-3.741-.713,0,.356,2.316-1.247,2.672a45.334,45.334,0,0,1-9.264.891c-3.029,0-6.057,0-8.2-.713-1.782-.713-.534-2.494-1.069-2.672C67.134,110.387,66.6,113.594,66.6,114.841Z" transform="translate(67.813 70.108)" fill="#001d7e"/>
      <path id="PESCOÇO_1_" d="M71.9,106.524c1.425.356,7.839-.534,10.868.356.713,6.592.534,4.276,1.247,10.868A78.5,78.5,0,0,1,71.9,118.1,73.743,73.743,0,0,0,71.9,106.524Z" transform="translate(68.214 66.489)" fill="#915b23"/>
      <path id="BOCA_1_" d="M94.875,69.085c1.247.713.535,2.316-1.069,1.96a13.072,13.072,0,0,0-7.839,0c-2.138.891-3.029,2.672-4.276,4.1-.891,1.069-3.029.534-3.029-.713C78.127,68.373,89.352,65.522,94.875,69.085Z" transform="translate(44.705 36.048)" fill="#201f20"/>
      <path id="BOCA_4_" d="M76.375,77.648c1.247-.713.534-2.316-1.069-1.96-2.851.534-5.345.713-7.839-.534-2.138-1.069-2.851-2.851-4.1-4.276-.891-1.069-3.029-.713-3.207.535C59.628,77.291,70.674,80.855,76.375,77.648Z" transform="translate(96.165 38.175)" fill="#201f20"/>
      <path id="Caminho_1419" data-name="Caminho 1419" d="M51.924,28.525c-3.741.356-7.483,1.96-8.73,5.167s1.782,8.374,5.523,7.661c-4.276-.713-8.73-.713-12.293,1.247a9.443,9.443,0,0,0-4.989,10.155c.891,4.1,5.523,7.839,9.621,6.77-4.1,1.425-7.839,3.385-10.155,6.77s-3.207,8.2-1.069,12.115c2.138,4.1,7.3,6.592,11.224,4.988-2.672,3.029-4.81,7.483-2.851,11.4,1.782,3.563,6.057,5.523,9.977,5.523s7.3-1.782,10.69-3.385c3.385,7.126,13.006,11.046,19.6,7.839,3.563-1.782,6.057-6.414,3.385-9.8,3.92,1.6,8.017,3.207,12.115,3.385s8.374-1.247,10.155-4.632.356-8.73-3.563-10.333c5.7,2.851,13.006,1.069,15.678-4.1,2.672-4.988.534-12.471-4.632-16.213,5.879-3.385,8.2-11.4,5.345-18.172a9.443,9.443,0,0,0-4.632-5.167c-3.741-1.782-7.483.356-10.69,2.316,2.138-3.92.178-9.977-4.276-12.471C93.079,27.1,87.2,28.525,85.24,32.622c-2.672-3.385-5.345-6.77-8.908-9.086s-8.374-3.029-11.58-.713-3.207,8.017.534,10.155C62.614,29.237,56.735,27.812,51.924,28.525Z" transform="translate(111.173 0)" fill="url(#linear-gradient-2)"/>
      <circle id="Elipse_485" data-name="Elipse 485" cx="9.977" cy="9.977" r="9.977" transform="translate(167.017 52.398)" fill="#473a57" stroke="#000" stroke-miterlimit="10" stroke-width="0.75"/>
      <path id="Caminho_1420" data-name="Caminho 1420" d="M55.115,45.618c.178,1.069,1.96-1.247,5.345-2.316,2.494-.713,7.839,1.069,7.483.178-.178-1.069-3.029-4.81-8.2-3.207C55.65,41.52,54.937,44.727,55.115,45.618Z" transform="translate(114.218 14.441)" fill="#ebc477"/>
      <circle id="Elipse_486" data-name="Elipse 486" cx="9.977" cy="9.977" r="9.977" transform="translate(155.614 46.341)" fill="#473a57" stroke="#000" stroke-miterlimit="10" stroke-width="0.75"/>
      <path id="Caminho_1421" data-name="Caminho 1421" d="M61.515,42.218c.178,1.069,1.96-1.247,5.345-2.316,2.494-.713,7.839,1.069,7.483.178-.178-1.069-3.029-4.81-8.2-3.207C62.05,37.942,61.337,41.149,61.515,42.218Z" transform="translate(96.415 11.784)" fill="#ebc477"/>
      <circle id="Elipse_487" data-name="Elipse 487" cx="9.977" cy="9.977" r="9.977" transform="translate(87.023 52.754)" fill="#473a57" stroke="#000" stroke-miterlimit="10" stroke-width="0.75"/>
      <path id="Caminho_1422" data-name="Caminho 1422" d="M106.313,53.3c1.069.356-.178-2.316.535-5.879.534-2.494,4.632-6.236,3.741-6.592-1.069-.356-5.7.534-6.77,5.7C102.928,50.807,105.422,52.945,106.313,53.3Z" transform="translate(-15.014 15.131)" fill="#ebc477"/>
      <circle id="Elipse_488" data-name="Elipse 488" cx="9.977" cy="9.977" r="9.977" transform="translate(76.155 59.881)" fill="#473a57" stroke="#000" stroke-miterlimit="10" stroke-width="0.75"/>
      <path id="Caminho_1423" data-name="Caminho 1423" d="M112.323,57.3c1.069.356-.178-2.316.534-5.879.535-2.494,4.632-6.236,3.741-6.592-1.069-.356-5.7.534-6.77,5.7C108.938,54.807,111.254,56.945,112.323,57.3Z" transform="translate(-31.714 18.257)" fill="#ebc477"/>
      <path id="Caminho_1424" data-name="Caminho 1424" d="M151.505,128.652c3.385-9.442,10.155-21.557,11.4-31.534,4.1-32.781-10.155-50.419-37.235-54.7-20.132-3.207-46.144-4.1-60.753,12.471C48.351,73.422,45.5,108.52,53.874,131.324c.891,2.672,8.552,11.224,10.69,13.184s6.057-1.069,8.552-2.316Z" transform="translate(28.873 14.964)" fill="url(#linear-gradient-3)"/>
      <path id="Caminho_1425" data-name="Caminho 1425" d="M51.462,129.594c2.494-2.494,7.126-2.851,9.086.178.178.356,1.247,2.316,1.6,2.316a14.841,14.841,0,0,1,2.672-.713c-.178,0-1.247-8.017-2.494-17.282a27.339,27.339,0,0,0,4.81-7.839c2.316-6.236,1.782-23.517.534-30.109,11.759-24.408,67.879-36.879,81.954,1.96.178.356-4.988,22.8,4.454,28.149,8.374,4.632.534,38.839-29.04,42.046-14.253,1.6-51.31-.891-59.862-8.017-.356-.356-.891-.178-1.069.356A8.274,8.274,0,0,1,61.8,144.2l-.534.535c-3.563,2.316-11.046-.356-12.649-4.632C47.008,136.364,48.968,132.088,51.462,129.594Z" transform="translate(37.521 24.89)" fill="#ba7b43"/>
      <path id="Caminho_1426" data-name="Caminho 1426" d="M87.679,76.92a23.373,23.373,0,0,1,.891,11.224c-.356,2.851-5.523,4.276-6.592,1.6-1.782-3.741-1.96-9.443-1.247-12.828C81.444,73.179,86.076,72.645,87.679,76.92Z" transform="translate(48.338 41.041)" fill="#201f20"/>
      <path id="Caminho_1427" data-name="Caminho 1427" d="M70.079,76.92a23.373,23.373,0,0,1,.891,11.224c-.356,2.851-5.523,4.276-6.592,1.6-1.782-3.741-1.96-9.443-1.247-12.828C63.844,73.179,68.476,72.645,70.079,76.92Z" transform="translate(97.294 41.041)" fill="#201f20"/>
      <path id="Caminho_1428" data-name="Caminho 1428" d="M104.75,98.163a5.637,5.637,0,0,1,6.77.713,1.274,1.274,0,0,1-.356,2.138c-1.069.534-1.782,1.425-1.247,2.672.534,1.425,2.138.891,3.207.534a.883.883,0,0,1,1.069,1.069c-.891,2.672-4.81,2.138-6.236.178a4.552,4.552,0,0,1,.356-5.523,3.092,3.092,0,0,0-2.494.534c-.891.713-.891,2.138-1.069,3.207a.873.873,0,0,1-1.6.178A4.531,4.531,0,0,1,104.75,98.163Z" transform="translate(-16.836 59.35)" fill="#915b23"/>
      <path id="VENTA_3_" d="M67.4,89.659a4.686,4.686,0,0,1,4.988-6.236,10.277,10.277,0,0,1,2.494.534h0c-.534-.178-.356-.178,0,0A5.867,5.867,0,0,1,81.832,87.7c1.069,2.851-.356,6.948-3.385,7.661C73.814,96.607,69.36,94.469,67.4,89.659Z" transform="translate(78.593 48.434)" fill="#774928" opacity="0.6"/>
      <g id="Grupo_437" data-name="Grupo 437" transform="translate(133.284 147.997)">
        <path id="Caminho_1429" data-name="Caminho 1429" d="M68.219,102.153c.891,4.632,11.4,8.908,18.172,7.661s8.017-5.523,7.126-10.155-3.563-8.2-10.333-6.948S67.328,97.342,68.219,102.153Z" transform="translate(-68.158 -92.459)" fill="#c64832"/>
        <g id="Grupo_436" data-name="Grupo 436" transform="translate(0)" clip-path="url(#clip-path)">
          <path id="Caminho_1430" data-name="Caminho 1430" d="M68.894,100.753c-1.069-4.988,7.3-13.184,14.431-14.787S93.3,88.1,94.371,92.914s0,9.264-7.126,10.868S69.963,105.741,68.894,100.753Z" transform="translate(-70.258 -97.829)" fill="#fff"/>
        </g>
      </g>
      <g id="ROUPA_3_" transform="translate(89.339 181.114)">
        <path id="Caminho_1432" data-name="Caminho 1432" d="M52.548,159.9c-5.345,9.8,6.77,138.965,5.7,144.488,8.73,1.96,5.879.356,14.787,2.494,2.672-8.017,18.885-79.1,22.092-87.477l2.851-.178c.534,0,0,.891.178,1.425,5.345,15.5,12.828,73.936,18.172,87.477,6.592-1.425,9.442.178,16.034-1.247-1.069-29.4,5.345-96.919,1.425-126.137Z" transform="translate(-35.266 -72.863)" fill="#dde3e8"/>
        <g id="FRENTE_3_">
          <path id="Caminho_1433" data-name="Caminho 1433" d="M67.691,114.838c-.356-.713-.534-1.425-.891-2.138C67.156,113.413,67.335,114.125,67.691,114.838Z" transform="translate(4.286 -109.755)" fill="#dfa330"/>
          <path id="Caminho_1434" data-name="Caminho 1434" d="M68.291,113.36c-.356-.713-.534-1.247-.891-1.96A17.358,17.358,0,0,1,68.291,113.36Z" transform="translate(2.617 -110.771)" fill="#dfa330"/>
          <path id="Caminho_1435" data-name="Caminho 1435" d="M67.9,111.4Z" transform="translate(2.117 -110.771)" fill="#dfa330"/>
          <path id="Caminho_1436" data-name="Caminho 1436" d="M67.478,112.856c0-.178-.178-.178-.178-.356A.622.622,0,0,0,67.478,112.856Z" transform="translate(3.608 -109.911)" fill="#dfa330"/>
          <path id="Caminho_1437" data-name="Caminho 1437" d="M117.33,114.348a5.952,5.952,0,0,0-4.81-3.029c-6.414-.534-18.172-.178-18.351.178,0,.178-.534,1.069-.534,1.247a3.128,3.128,0,0,0-.713.891c0,.178-.891.713-.891.891-.356.535-1.247.178-1.96.356C78.313,117.911,58.18,215.187,46.6,252.6c25.833,13.184,84.626,8.73,107.965-.534-7.839-31.534-7.3-125.247-35.81-135.936A3.02,3.02,0,0,1,117.33,114.348Z" transform="translate(-46.6 -111.047)" fill="#dfa330"/>
        </g>
      </g>
      <g id="ESQUERDA_6_" transform="translate(181.924 241.515)">
        <g id="Grupo_440" data-name="Grupo 440">
          <g id="Grupo_439" data-name="Grupo 439">
            <path id="Caminho_1438" data-name="Caminho 1438" d="M40.523,147.355a96.941,96.941,0,0,1,.534,10.155,103.464,103.464,0,0,1-.891,12.828c-.534,4.632-2.138,9.086-1.247,13.718.713,3.92,5.879,4.632,8.017,1.6,4.988-6.948,4.81-19.241,4.988-27.615.178-3.741,0-7.483,0-11.224C48.719,144.5,42.839,143.97,40.523,147.355Z" transform="translate(-22.471 -144.95)" fill="#d99156"/>
            <g id="Grupo_438" data-name="Grupo 438" transform="translate(0 30.17)">
              <path id="Caminho_1439" data-name="Caminho 1439" d="M46.525,191.843c0,.535,3.563,3.92,5.345,2.316,3.029-3.029,1.247-3.92,1.6-6.592.178,2.494.713,8.017,4.632,7.126,3.385-.713,1.96-4.988,2.138-6.414.178-.891-.891-2.316-.178-1.425,0,0-.178,6.592,6.236,3.563,1.96-.891-.356-6.236-.356-6.236s0,.891,1.425,1.6,1.425.178,2.672-.356c1.425-.534.178-4.276,0-4.632-2.138-3.029-1.069-1.96-1.96-5.7-.713-2.672-.713-4.81-2.138-7.126-1.247-1.96-1.96-2.851-3.92-3.029a8.537,8.537,0,0,1-4.632-1.6c-1.425-1.247-2.494-1.782-4.454-1.247-1.782.356-3.029,1.782-4.1,3.385s-1.782,3.741-2.851,5.345a7.694,7.694,0,0,1-4.988,4.1c-1.425.356-2.851.713-4.1,1.069-1.425.356-1.782.356-1.247,1.782A6.4,6.4,0,0,0,36.9,179.55c3.207,3.741,5.879.534,10.69-2.138C46.169,185.251,45.99,185.073,46.525,191.843Z" transform="translate(-35.421 -161.884)" fill="#d99156"/>
            </g>
          </g>
        </g>
      </g>
      <g id="ESQUERDA_5_" transform="translate(81.5 247.845)">
        <g id="Grupo_443" data-name="Grupo 443" transform="translate(0)">
          <g id="Grupo_442" data-name="Grupo 442">
            <path id="Caminho_1440" data-name="Caminho 1440" d="M110.566,149.567a49.312,49.312,0,0,0,1.782,8.908,110.711,110.711,0,0,0,3.563,10.868c1.425,3.92,3.741,7.483,4.276,11.58.356,3.563-4.1,5.345-6.592,3.207-5.879-4.81-8.374-15.678-10.511-22.626-.891-3.207-1.782-6.414-2.494-9.621C102.727,149.032,107.893,147.251,110.566,149.567Z" transform="translate(-100.589 -148.503)" fill="#d99156"/>
            <g id="Grupo_441" data-name="Grupo 441" transform="translate(1.069 24.403)">
              <path id="Caminho_1441" data-name="Caminho 1441" d="M124.191,194.091a4.427,4.427,0,0,1,.178,1.425,1.853,1.853,0,0,1-2.316,1.069,4.239,4.239,0,0,1-2.316-1.6c-3.029-3.207-5.345-11.046-7.661-10.155-1.6.713-.178,5.523.534,8.73a17.571,17.571,0,0,1,.535,4.276,2.186,2.186,0,0,1-4.276.534c-.713-3.207-.713-8.374-1.96-11.4a.961.961,0,0,0-1.782,0l-2.851,8.552c-.535,1.247-1.6,2.672-2.851,2.138-1.069-.356-1.069-1.96-.891-3.029a28.991,28.991,0,0,1,2.316-6.592c.534-1.069,1.247-2.494.356-3.563s-2.672-.713-3.563.178c-1.069.891-1.782,2.138-2.851,2.851-1.247.713-3.207.178-3.207-1.247A3.3,3.3,0,0,1,91.944,185c1.782-2.851,6.057-4.632,6.057-8.017,0-2.494-.891-4.276-.178-6.592.534-1.96,1.069-2.851,2.672-3.563a7.744,7.744,0,0,0,3.741-2.494c1.069-1.425,1.782-2.138,3.563-2.138a6.716,6.716,0,0,1,4.454,1.96c1.247,1.069,2.316,2.851,3.563,4.1,1.6,1.6,3.207.535,5.167-.356a5.5,5.5,0,0,1,3.207-.891,2.292,2.292,0,0,1,1.96,2.672,5.335,5.335,0,0,1-.713,1.782c-1.782,3.92-5.167,2.672-9.8,2.851C116.53,181.441,122.409,187.677,124.191,194.091Z" transform="translate(-91.587 -162.2)" fill="#d99156"/>
            </g>
          </g>
        </g>
      </g>
      <path id="DIREITO_7_" d="M146.319,112.8c-3.385,0-16.213,4.988-20.488,8.2-11.046,8.73-27.615,20.845-35.988,34.563-9.977,16.391-8.552,35.276-6.77,43.649,1.96,2.672,30.465-6.77,30.465-6.77s-12.293-26.19-8.908-32.247c6.057-11.224,11.046-13.9,25.655-19.419,2.851-1.069,3.741-9.8,4.632-12.293C137.411,120.639,146.319,112.8,146.319,112.8Z" transform="translate(-11.727 71.437)" fill="#edc735"/>
      <path id="DIREITO_6_" d="M32.614,113.891c-2.316-2.138,16.925,4.1,22.448,7.483,12.115,7.3,26.19,15.856,34.563,29.4,5.879,16.747,5.345,34.207,3.563,42.58-3.563,0-26.19,2.494-32.425-3.029,2.672-7.839,9.977-30.465,9.977-30.465s-13.184-16.569-21.2-19.954c-1.782-2.316-6.236-14.787-10.69-20.845C37.424,117.277,34.4,115.317,32.614,113.891Z" transform="translate(128.167 71.949)" fill="#edc735"/>
      <path id="GOLA_4_" d="M66.6,114.841c0,2.494,5.345,4.989,13.006,4.989s14.253-2.494,14.253-4.989c0-.891-2.672-3.741-4.1-3.741-.713,0,.356,2.316-1.247,2.672a45.334,45.334,0,0,1-9.264.891c-3.029,0-6.057,0-8.2-.713-1.782-.713-.534-2.494-1.069-2.672C67.134,110.387,66.6,113.594,66.6,114.841Z" transform="translate(67.813 70.108)" fill="#db9600"/>
      <path id="PESCOÇO_3_" d="M71.9,106.524c1.425.356,7.839-.534,10.868.356.713,6.592.534,4.276,1.247,10.868A78.5,78.5,0,0,1,71.9,118.1,73.743,73.743,0,0,0,71.9,106.524Z" transform="translate(68.214 66.489)" fill="#915b23"/>
      <path id="BOCA_6_" d="M94.875,69.085c1.247.713.535,2.316-1.069,1.96a13.072,13.072,0,0,0-7.839,0c-2.138.891-3.029,2.672-4.276,4.1-.891,1.069-3.029.534-3.029-.713C78.127,68.373,89.352,65.522,94.875,69.085Z" transform="translate(44.705 36.048)" fill="#201f20"/>
      <path id="BOCA_5_" d="M76.375,77.648c1.247-.713.534-2.316-1.069-1.96-2.851.534-5.345.713-7.839-.534-2.138-1.069-2.851-2.851-4.1-4.276-.891-1.069-3.029-.713-3.207.535C59.628,77.291,70.674,80.855,76.375,77.648Z" transform="translate(96.165 38.175)" fill="#201f20"/>
    </g>
    <g id="Grupo_262" data-name="Grupo 262" transform="translate(96 21)">
      <path id="Caminho_699" data-name="Caminho 699" d="M347.151,314.117c-27,57.471-77.288,23.457-132.73,23.457S121.86,359.83,121.86,304.392,246.3,211.83,301.744,211.83,374.15,256.646,347.151,314.117Z" transform="translate(-192.499 516.169) rotate(-82)" fill="#473a57" opacity="0.3"/>
      <path id="Caminho_482-2" data-name="Caminho 482" d="M366.627,235.791c0,49.364-71.582,55.172-120.946,55.172S130.66,316.214,130.66,266.853,163.167,128.53,212.53,128.53,366.627,186.424,366.627,235.791Z" transform="translate(250.34 276.246)" fill="#473a57" opacity="0.2"/>
      <path id="Caminho_531" data-name="Caminho 531" d="M132.361,627.435a4.026,4.026,0,0,1-2.483,2.2,4.139,4.139,0,0,1-5.614-3.191l-3.319-13.1-11.905,6.126a4.515,4.515,0,0,1-1.926.557,4.055,4.055,0,0,1-1.889-.361,4.335,4.335,0,0,1-2.1-2.2,3.364,3.364,0,0,1-.135-2.942,4.154,4.154,0,0,1,2.085-1.994L119,605.694l-3.981-15.736a3.943,3.943,0,0,1,.226-2.694,4,4,0,0,1,2.438-2.19,4.274,4.274,0,0,1,5.659,3.176l3.4,13.448,11.762-6.344a4.018,4.018,0,0,1,3.883-.316,3.891,3.891,0,0,1,2.115,2.258,3.627,3.627,0,0,1-.045,2.89,4.215,4.215,0,0,1-2.047,2.1l-13.809,6.75,3.981,15.736A3.943,3.943,0,0,1,132.361,627.435Z" transform="translate(533.378 -56.518) rotate(49)" fill="none" stroke="#1c0a2d" stroke-miterlimit="10" stroke-width="2"/>
      <path id="Caminho_698" data-name="Caminho 698" d="M148.05,649.989a6.157,6.157,0,0,1-3.8,3.372,6.329,6.329,0,0,1-8.585-4.879l-5.075-20.035-18.205,9.367a6.9,6.9,0,0,1-2.946.852,6.2,6.2,0,0,1-2.888-.552,6.629,6.629,0,0,1-3.211-3.372,5.144,5.144,0,0,1-.207-4.5,6.353,6.353,0,0,1,3.188-3.05l21.3-10.449-6.088-24.063a6.029,6.029,0,0,1,.345-4.12,6.111,6.111,0,0,1,3.728-3.349,6.536,6.536,0,0,1,8.654,4.856l5.2,20.564,17.987-9.7a6.145,6.145,0,0,1,5.938-.483,5.95,5.95,0,0,1,3.234,3.452,5.547,5.547,0,0,1-.069,4.419,6.445,6.445,0,0,1-3.13,3.211l-21.117,10.322,6.088,24.063A6.03,6.03,0,0,1,148.05,649.989Z" transform="translate(376.285 -458.9)" fill="none" stroke="#dfa330" stroke-miterlimit="10" stroke-width="2"/>
      <g id="Grupo_260" data-name="Grupo 260" transform="translate(323.908 5.783)">
        <circle id="Elipse_317" data-name="Elipse 317" cx="26.663" cy="26.663" r="26.663" transform="translate(264.346 328.705)" fill="#edc735"/>
        <circle id="Elipse_318" data-name="Elipse 318" cx="26.663" cy="26.663" r="26.663" transform="translate(268.854 333.233)" fill="none" stroke="#1c0a2d" stroke-miterlimit="10" stroke-width="2"/>
      </g>
    </g>
  </g>
</svg>
