<svg xmlns="http://www.w3.org/2000/svg" xmlns:xlink="http://www.w3.org/1999/xlink" width="218" height="218" viewBox="0 0 218 218">
  <defs>
    <filter id="Retângulo_1587" x="0" y="0" width="218" height="218" filterUnits="userSpaceOnUse">
      <feOffset dy="3" input="SourceAlpha"/>
      <feGaussianBlur stdDeviation="3" result="blur"/>
      <feFlood flood-opacity="0.161"/>
      <feComposite operator="in" in2="blur"/>
      <feComposite in="SourceGraphic"/>
    </filter>
    <clipPath id="clip-path">
      <rect id="Retângulo_1584" data-name="Retângulo 1584" width="200" height="200" fill="#fff"/>
    </clipPath>
    <linearGradient id="linear-gradient" x1="0.39" y1="0.51" x2="1.74" y2="0.51" gradientUnits="objectBoundingBox">
      <stop offset="0" stop-color="#fef050"/>
      <stop offset="0.059" stop-color="#f9e43e"/>
      <stop offset="0.13" stop-color="#f3d727"/>
      <stop offset="0.203" stop-color="#f0ce0c"/>
      <stop offset="0.281" stop-color="#efcb00"/>
      <stop offset="0.588" stop-color="#d99544"/>
      <stop offset="0.888" stop-color="#cd6f3c"/>
      <stop offset="1" stop-color="#c34435"/>
    </linearGradient>
    <linearGradient id="linear-gradient-2" x1="0.484" y1="1.083" x2="0.583" y2="0.303" gradientUnits="objectBoundingBox">
      <stop offset="0" stop-color="#90b75a"/>
      <stop offset="0.059" stop-color="#8bb368"/>
      <stop offset="0.208" stop-color="#80a97f"/>
      <stop offset="0.359" stop-color="#76a090"/>
      <stop offset="0.513" stop-color="#6f989c"/>
      <stop offset="0.669" stop-color="#6a93a4"/>
      <stop offset="0.829" stop-color="#6790a8"/>
      <stop offset="1" stop-color="#668faa"/>
    </linearGradient>
  </defs>
  <g id="Grupo_581" data-name="Grupo 581" transform="translate(-790 -323)">
    <g id="Grupo_486" data-name="Grupo 486" transform="translate(0 -2)" opacity="0.5">
      <g id="Grupo_461" data-name="Grupo 461" transform="translate(108 47)">
        <g transform="matrix(1, 0, 0, 1, 682, 278)" filter="url(#Retângulo_1587)">
          <rect id="Retângulo_1587-2" data-name="Retângulo 1587" width="200" height="200" rx="10" transform="translate(9 6)" fill="#fff"/>
        </g>
        <g id="Grupo_de_máscara_3" data-name="Grupo de máscara 3" transform="translate(691 284)" clip-path="url(#clip-path)">
          <g id="sessao2-tela3" transform="translate(24.184 19.946)">
            <g id="Grupo_454" data-name="Grupo 454" transform="translate(70.3 224.035)">
              <path id="Caminho_1464" data-name="Caminho 1464" d="M101.492,189.645c-1.194,25.674-2.985,66.276-7.911,87.173-1.642-.149-3.433-.149-5.075-.3-2.687-27.913-5.971-58.663-9.105-87.92Z" transform="translate(-79.4 -188.6)" fill="#ebc134"/>
              <path id="Caminho_1465" data-name="Caminho 1465" d="M87.077,248.7,82.3,255.268l16.27-.3L91.853,248.7Z" transform="translate(-77.971 -158.989)" fill="#ebc134"/>
            </g>
            <g id="Grupo_455" data-name="Grupo 455" transform="translate(37.013 224.035)">
              <path id="Caminho_1466" data-name="Caminho 1466" d="M57.1,189.645c1.194,25.674,2.985,66.276,7.911,87.173,1.642-.149,3.433-.149,5.075-.3,2.687-27.913,5.971-58.663,9.105-87.92Z" transform="translate(-57.1 -188.6)" fill="#ebc134"/>
              <path id="Caminho_1467" data-name="Caminho 1467" d="M69.444,248.7l4.926,6.568-16.27-.3,6.717-6.269Z" transform="translate(-56.607 -158.989)" fill="#ebc134"/>
            </g>
            <g id="ROUPA_6_" transform="translate(25.519 99.365)">
              <path id="Caminho_1468" data-name="Caminho 1468" d="M122.192,159.7c3.881,8.508-11.046,75.083-10.3,79.71-7.463,1.194-11.643,1.045-19.106,2.239-1.791-6.866-7.016-27.316-9.105-34.481-1.642-.149-3.135-.3-4.777-.448-5.224,11.344-10.3,22.689-15.524,34.033-5.374-1.493-10.3-53.438-5.672-77.62Z" transform="translate(-46.214 -78.169)" fill="#ebc134"/>
              <path id="Caminho_1469" data-name="Caminho 1469" d="M56.522,168.4c-3.881,8.508,2.388,61.947,1.642,66.723,7.463,1.194,11.643,1.045,19.106,2.239,1.791-6.866,7.016-27.316,9.105-34.481C88.018,202.732,56.522,168.4,56.522,168.4Z" transform="translate(-46.521 -73.882)" fill="#ebc134"/>
              <g id="FRENTE_2_">
                <path id="Caminho_1470" data-name="Caminho 1470" d="M72.5,112.442a16.28,16.28,0,0,1,.9-1.642A16.28,16.28,0,0,0,72.5,112.442Z" transform="translate(-38.019 -102.262)" fill="#ebc134"/>
                <path id="Caminho_1471" data-name="Caminho 1471" d="M87.6,109.7c.3.3.448.746.746,1.045A2.677,2.677,0,0,1,87.6,109.7Z" transform="translate(-30.579 -102.804)" fill="#ebc134"/>
                <path id="Caminho_1472" data-name="Caminho 1472" d="M73.8,110.435a17.318,17.318,0,0,1,2.388-3.135A15.845,15.845,0,0,0,73.8,110.435Z" transform="translate(-37.378 -103.986)" fill="#ebc134"/>
                <path id="Caminho_1473" data-name="Caminho 1473" d="M88.2,110.7a13.872,13.872,0,0,1,.746,1.493A6.972,6.972,0,0,1,88.2,110.7Z" transform="translate(-30.283 -102.311)" fill="#ebc134"/>
                <path id="Caminho_1474" data-name="Caminho 1474" d="M73.2,111.142c.3-.6.6-1.045.9-1.642A3.558,3.558,0,0,0,73.2,111.142Z" transform="translate(-37.674 -102.902)" fill="#ebc134"/>
                <path id="Caminho_1475" data-name="Caminho 1475" d="M87.5,109.6c0,.149.149.149.149.3A.462.462,0,0,1,87.5,109.6Z" transform="translate(-30.628 -102.853)" fill="#ebc134"/>
                <path id="Caminho_1476" data-name="Caminho 1476" d="M73.7,109.5Z" transform="translate(-37.428 -102.902)" fill="#ebc134"/>
                <path id="Caminho_1477" data-name="Caminho 1477" d="M73.1,110.8c0-.149.149-.149.149-.3A.462.462,0,0,0,73.1,110.8Z" transform="translate(-37.723 -102.41)" fill="#ebc134"/>
                <path id="Caminho_1478" data-name="Caminho 1478" d="M75.4,107.3Z" transform="translate(-36.59 -103.986)" fill="#ebc134"/>
                <path id="Caminho_1479" data-name="Caminho 1479" d="M88,110.5a.521.521,0,0,0,.149.3C88.149,110.649,88.149,110.649,88,110.5Z" transform="translate(-30.382 -102.41)" fill="url(#linear-gradient)"/>
                <path id="Caminho_1480" data-name="Caminho 1480" d="M84.777,113.469c0-.149.149-.149.149-.3.3-.6.6-1.045.9-1.642v-.149a17.318,17.318,0,0,1,2.388-3.135h0a7.581,7.581,0,0,1,2.985-2.388c4.329-1.941,9.553,0,12.389,3.135h0l.149.149,1.194,1.194.3.3c.3.448.6.746.9,1.194,0,.149.149.149.149.3.3.3.448.746.746,1.045a.521.521,0,0,0,.149.3,13.873,13.873,0,0,1,.746,1.493c1.343,3.284,22.838,63.589,30.451,95.532-20.9,3.433-69.858.6-88.965-8.359,8.658-27.466,30-77.769,34.332-87.024A6.163,6.163,0,0,0,84.777,113.469Z" transform="translate(-49.4 -105.08)" fill="url(#linear-gradient-2)"/>
              </g>
              <path id="ESQUERDO_1_" d="M68.042,111.188c1.791-1.941,7.463,7.314,7.463,9.852.746,15.524,1.791,26.122,11.046,35.228,4.329,4.329,7.314,9.7,9.7,15.375,3.284,7.314,4.18,18.509-3.135,24.032-3.135,2.388-15.823,4.478-19.7,4.03-8.061-1.194-11.344-9.7-12.986-17.614-2.239-10.747-2.538-21.644-1.94-33.138.6-10.6,2.687-21.047,5.075-31.347a7.612,7.612,0,0,1,2.09-3.881Z" transform="translate(-45.054 -102.201)" fill="#386054"/>
              <path id="DIREITO_16_" d="M105.181,113.034a3.513,3.513,0,0,0-5.971,2.239c-1.194,17.763-3.732,33.436-14.479,47.766-4.329,5.821-7.463,7.463-10.747,13.882-4.18,8.508-6.269,19.405,2.687,25.674,3.881,2.687,11.494,2.985,16.27,2.388,10-1.343,13.136-7.613,17.763-16.121,6.269-11.344,5.822-19.554,5.224-32.541-.448-12.091-2.985-24.032-5.523-35.825a10.04,10.04,0,0,0-2.388-4.478Z" transform="translate(-39.054 -101.66)" fill="#386054"/>
              <g id="ESQUERDA_2_" transform="translate(17.315 83.64)">
                <g id="DIREITA_3_">
                  <g id="Grupo_458" data-name="Grupo 458">
                    <g id="Grupo_457" data-name="Grupo 457">
                      <path id="Caminho_1481" data-name="Caminho 1481" d="M90.128,161.392a59.584,59.584,0,0,1-4.03,6.568,72.646,72.646,0,0,1-5.971,7.463c-2.239,2.687-5.224,4.777-6.717,7.911-1.343,2.687,1.642,5.374,4.329,4.478,5.971-2.09,11.2-9.852,14.778-14.778,1.642-2.239,3.284-4.627,4.777-6.866C96.4,163.034,92.964,160.2,90.128,161.392Z" transform="translate(-55.05 -161.113)" fill="#d99156" stroke="#336535" stroke-miterlimit="10" stroke-width="0.5"/>
                      <g id="Grupo_456" data-name="Grupo 456" transform="translate(0 15.587)">
                        <path id="Caminho_1482" data-name="Caminho 1482" d="M61.448,192.669A1.7,1.7,0,0,0,61,193.863a1.9,1.9,0,0,0,1.493,1.642,4.727,4.727,0,0,0,2.388-.6c3.433-1.642,7.463-7.165,8.956-5.822,1.045,1.045-1.493,4.329-2.985,6.717a22.47,22.47,0,0,0-1.642,3.284,1.873,1.873,0,0,0,3.284,1.642c1.493-2.239,2.985-6.419,4.777-8.508a.763.763,0,0,1,1.343.448l-.149,7.464c0,1.045.448,2.538,1.642,2.538.9,0,1.343-1.194,1.642-2.09a25.337,25.337,0,0,0,.149-5.822c-.149-1.045-.149-2.388.746-2.836.9-.6,2.239.3,2.687,1.194.6,1.045.746,2.239,1.493,2.985.746.9,2.388,1.045,2.836,0a1.275,1.275,0,0,0,0-1.045c-.6-2.836-3.433-5.374-2.388-8.061.746-1.94,3.284-2.985,3.433-5.075.149-1.642-1.343-2.687-2.538-3.582a6.359,6.359,0,0,1-2.239-2.985,3.18,3.18,0,0,0-2.239-2.687c-1.343-.6-3.135-1.493-4.627-.9-1.343.6-2.09,2.687-3.433,3.284-1.791.746-2.687-.6-4.03-1.791a7.871,7.871,0,0,0-2.239-1.642,2.01,2.01,0,0,0-2.388,1.493,3.066,3.066,0,0,0,0,1.642c.3,3.582,3.284,3.732,6.866,5.075C71.15,184.907,64.732,188.191,61.448,192.669Z" transform="translate(-61 -171.556)" fill="#d99156" stroke="#336535" stroke-miterlimit="10" stroke-width="0.5"/>
                      </g>
                    </g>
                  </g>
                </g>
                <path id="Caminho_1483" data-name="Caminho 1483" d="M109.1,200.41c-3.135-4.777-9.4-8.21-11.792-13.285,3.582-1.343,6.568-1.194,7.016-4.777a3.066,3.066,0,0,0,0-1.642,2,2,0,0,0-2.239-1.642,6.251,6.251,0,0,0-2.388,1.642c-1.343,1.194-2.388,2.538-4.03,1.642-1.343-.6-1.941-2.836-3.284-3.433s-3.284.3-4.627.746h0c-.746-.9-1.642-1.791-2.388-2.687-1.941-2.538-3.881-5.075-5.672-7.762a71.476,71.476,0,0,1-3.732-6.717c-2.836-1.194-6.419,1.493-7.463,4.329q2.015,3.582,4.478,7.165c2.388,3.582,5.523,8.508,9.105,11.942a3.5,3.5,0,0,0-1.642,2.687c0,2.09,2.538,3.135,3.135,5.075.9,2.687-2.09,5.075-2.836,7.911a1.275,1.275,0,0,0,0,1.045c.3,1.045,2.09.9,2.836.149a19.122,19.122,0,0,0,1.642-2.985c.6-1.045,1.941-1.791,2.836-1.045.9.6.746,1.941.6,2.985a25.335,25.335,0,0,0-.149,5.821c.149.9.448,2.09,1.493,2.239,1.045,0,1.642-1.343,1.642-2.538l.149-7.463a.837.837,0,0,1,1.493-.448c1.791,2.09,2.985,6.269,4.478,8.658a1.819,1.819,0,0,0,3.284-1.493,13.066,13.066,0,0,0-1.493-3.284c-1.343-2.388-3.881-5.821-2.687-6.866,1.642-1.343,5.523,4.329,8.807,6.12a4.511,4.511,0,0,0,2.388.746,1.754,1.754,0,0,0,1.642-1.493A2.813,2.813,0,0,0,109.1,200.41Z" transform="translate(-57.305 -160.575)" fill="#d99156" stroke="#336535" stroke-miterlimit="10" stroke-width="0.5"/>
              </g>
            </g>
            <path id="Caminho_1484" data-name="Caminho 1484" d="M33.641,134.026C25.73,131.041,55.435,94.47,57.077,86.26c.3-1.642-7.613-3.582-6.866-4.777C66.331,52.674,72.75,42.823,94.394,39.389c16.867-2.687,38.959.448,51.349,14.33,13.882,15.524,28.51,64.335,23.585,84.188-3.284,13.434-37.168,9.553-39.258,8.508C130.219,146.416,80.811,152.088,33.641,134.026Z" transform="translate(-32.304 -38.512)" fill="#ce6b01"/>
            <path id="GOLA_2_" d="M82.069,128.938A7.667,7.667,0,0,0,86.7,134.76c2.388,1.194,5.075,1.343,7.613,1.642,5.374.448,11.344.6,15.673-2.538a21.774,21.774,0,0,0,5.672-7.016c2.836-4.777,5.672-10.6,3.284-15.673-1.343-2.836-4.03-4.777-6.717-6.419a52.829,52.829,0,0,0-41.646-4.926c-3.732,1.194-7.613,2.836-9.553,6.269-2.09,3.732-1.493,8.658.9,12.24,2.239,3.582,5.822,6.269,9.553,8.508Z" transform="translate(-18.785 -9.392)" fill="#58167d"/>
            <path id="PESCOÇO_7_" d="M102.764,115.051c1.791-.746,3.732-1.94,4.18-4.03s-1.045-4.18-2.687-5.523c-4.627-3.732-10.9-4.478-16.718-4.777-4.478-.149-8.956-.149-13.136,1.194s-8.061,4.329-9.7,8.359c4.329.3,7.613,3.732,11.046,6.419.6.448,1.194.9,1.791.746.6,0,1.045-.448,1.642-.6,2.239-1.194,5.075-.9,7.613-.6C92.016,116.992,97.689,117.141,102.764,115.051Z" transform="translate(-16.343 -7.895)" fill="#e6b54a"/>
            <path id="CADARÇOS_3_" d="M81.871,115.471a.872.872,0,0,1,1.343,1.045c-2.985,6.269-3.433,11.643.448,17.763,2.687,4.329,16.718,15.076,18.36,4.478.149-1.343,2.239-.746,1.941.6a6.852,6.852,0,0,1-6.419,5.821c-4.777,0-8.807-2.687-12.24-5.821C79.184,133.831,75,122.039,81.871,115.471Z" transform="translate(-9.63 -0.701)" fill="#f7f7f8"/>
            <path id="CADARÇOS_2_" d="M84.432,114.873a.4.4,0,0,1,.746.3c-1.642,5.224-2.09,10-.6,15.375,1.343,4.478,4.926,7.911,7.613,11.494,2.985,3.881,7.762,14.778-.448,16.121-.9.149-1.493-1.045-.6-1.493,9.4-5.224-4.18-17.315-7.165-22.987A20.42,20.42,0,0,1,84.432,114.873Z" transform="translate(-7.863 -0.999)" fill="#fff"/>
            <path id="PESCOÇO_2_" d="M88.3,106.651c0-2.687-6.568-4.03-8.807-1.642-.6,5.523-.6,4.329-1.194,9.852a65.772,65.772,0,0,0,10.15.3S88.3,111.129,88.3,106.651Z" transform="translate(-9.642 -6.361)" fill="#915b23"/>
            <path id="Caminho_1485" data-name="Caminho 1485" d="M145.212,106.532c-2.09-2.09-7.016-5.971-11.792-3.284a23.394,23.394,0,0,0-3.732,5.224c-.9,1.642,1.493,6.717-.3,6.269.149,0-6.866.3-5.822-7.613-1.642-1.941,4.926-11.046,4.03-13.584-1.941-5.224-1.493-19.7-.448-25.227-20.6-29.406-44.632,4.627-64.932,8.21-.3,0,1.941,11.643-4.03,21.047-4.329,6.717-3.881,28.361,20.9,31.2,11.942,1.343,42.99-.746,50.155-6.717,2.09,3.284,6.717,3.284,6.866,3.433C140.286,125.34,147.3,108.622,145.212,106.532Z" transform="translate(-20.578 -29.677)" fill="#bc9e6c"/>
            <path id="Caminho_1486" data-name="Caminho 1486" d="M73.927,100.764c-1.045,2.09.149,1.94,2.239.149,3.433-3.135,7.165-6.12,11.942-6.717,7.762-1.194,8.508-.149,11.643,1.045,2.239.9,6.419,4.03,5.374,2.09C100.2,88.076,78.7,91.211,73.927,100.764Z" transform="translate(-11.986 -12.266)" fill="#82623c"/>
            <circle id="Elipse_489" data-name="Elipse 489" cx="3.881" cy="3.881" r="3.881" transform="translate(57.91 53.868)" fill="#201f20"/>
            <ellipse id="Elipse_490" data-name="Elipse 490" cx="2.985" cy="1.642" rx="2.985" ry="1.642" transform="translate(54.328 59.241)" fill="#edeef0"/>
            <circle id="Elipse_491" data-name="Elipse 491" cx="3.881" cy="3.881" r="3.881" transform="translate(77.315 53.868)" fill="#201f20"/>
            <ellipse id="Elipse_492" data-name="Elipse 492" cx="2.985" cy="1.642" rx="2.985" ry="1.642" transform="translate(81.196 59.241)" fill="#edeef0"/>
            <path id="Caminho_1487" data-name="Caminho 1487" d="M68.114,79.933a1.225,1.225,0,0,1,0-2.388c2.388-.3,4.478-.9,5.971-2.836,1.343-1.642,1.194-3.732,1.493-5.523a1.408,1.408,0,0,1,2.687-.3C81.1,74.709,73.787,81.426,68.114,79.933Z" transform="translate(-15.13 -23.976)" fill="#cb6120"/>
            <path id="Caminho_1488" data-name="Caminho 1488" d="M96.775,79.933a1.225,1.225,0,0,0,0-2.388c-2.388-.3-4.478-.9-5.971-2.836-1.343-1.642-1.194-3.732-1.493-5.523a1.408,1.408,0,0,0-2.687-.3C83.639,74.709,91.1,81.426,96.775,79.933Z" transform="translate(-5.876 -23.976)" fill="#cb6120"/>
            <path id="Caminho_1489" data-name="Caminho 1489" d="M115.71,89.539c-2.388-2.239-4.926-1.493-7.016,1.045-.6.746-.448,2.687.3,3.135a3.748,3.748,0,0,1,1.343,4.03c-.6,2.09-2.239,1.343-3.284.9-.6-.3-1.194.6-1.045,1.493.9,4.03,5.075,3.284,6.419.3a9.154,9.154,0,0,0-.3-8.359,2.265,2.265,0,0,1,2.538.9c.9,1.194.9,3.284,1.045,4.926.149,1.194,1.343,1.194,1.642.3C118.546,95.361,117.651,91.33,115.71,89.539Z" transform="translate(3.998 -14.028)" fill="#915b23"/>
            <circle id="Elipse_493" data-name="Elipse 493" cx="19.256" cy="19.256" r="19.256" transform="translate(30.146 34.612)" fill="#edeef0" stroke="#336535" stroke-miterlimit="10" stroke-width="2" opacity="0.26"/>
            <circle id="Elipse_494" data-name="Elipse 494" cx="19.256" cy="19.256" r="19.256" transform="translate(30.146 34.612)" fill="none" stroke="#336535" stroke-miterlimit="10" stroke-width="2" opacity="0.71"/>
            <circle id="Elipse_495" data-name="Elipse 495" cx="19.256" cy="19.256" r="19.256" transform="translate(72.987 34.612)" fill="#edeef0" stroke="#336535" stroke-miterlimit="10" stroke-width="2" opacity="0.26"/>
            <circle id="Elipse_496" data-name="Elipse 496" cx="19.256" cy="19.256" r="19.256" transform="translate(72.987 34.612)" fill="none" stroke="#336535" stroke-miterlimit="10" stroke-width="2" opacity="0.71"/>
            <path id="VENTA_5_" d="M86.253,88.661c1.045-2.687-.746-4.926-3.582-4.329-.746.149-5.672.9-9.105,1.642-2.388.448,1.045,5.672,3.732,6.269C81.328,93.288,84.611,92.691,86.253,88.661Z" transform="translate(-12.371 -15.985)" fill="#774928" opacity="0.38"/>
            <rect id="Retângulo_1583" data-name="Retângulo 1583" width="1.343" height="2.239" transform="translate(70.15 53.868)" fill="#336535" opacity="0.81"/>
          </g>
        </g>
      </g>
    </g>
  </g>
</svg>
