<svg xmlns="http://www.w3.org/2000/svg" xmlns:xlink="http://www.w3.org/1999/xlink" width="218" height="218" viewBox="0 0 218 218">
  <defs>
    <filter id="Retângulo_1587" x="-7" y="0" width="218" height="218" filterUnits="userSpaceOnUse">
      <feOffset dy="3" input="SourceAlpha"/>
      <feGaussianBlur stdDeviation="3" result="blur"/>
      <feFlood flood-opacity="0.161"/>
      <feComposite operator="in" in2="blur"/>
      <feComposite in="SourceGraphic"/>
    </filter>
    <filter id="Retângulo_1589" x="0" y="0" width="218" height="218" filterUnits="userSpaceOnUse">
      <feOffset dy="3" input="SourceAlpha"/>
      <feGaussianBlur stdDeviation="3" result="blur-2"/>
      <feFlood flood-opacity="0.161"/>
      <feComposite operator="in" in2="blur-2"/>
      <feComposite in="SourceGraphic"/>
    </filter>
    <clipPath id="clip-path">
      <g transform="matrix(1, 0, 0, 1, 0, 0)" filter="url(#Retângulo_1587)">
        <rect id="Retângulo_1587-2" data-name="Retângulo 1587" width="200" height="200" rx="10" transform="translate(691 284)" fill="#fff"/>
      </g>
    </clipPath>
    <linearGradient id="linear-gradient" x1="-0.001" y1="0.501" x2="1.004" y2="0.501" gradientUnits="objectBoundingBox">
      <stop offset="0" stop-color="#e2ac56"/>
      <stop offset="1" stop-color="#d99156"/>
    </linearGradient>
    <linearGradient id="linear-gradient-2" x1="-0.005" y1="0.5" x2="0.997" y2="0.5" xlink:href="#linear-gradient"/>
    <linearGradient id="linear-gradient-3" x1="0.48" y1="0.118" x2="0.019" y2="0.91" gradientUnits="objectBoundingBox">
      <stop offset="0.038" stop-color="#6a7e92"/>
      <stop offset="1" stop-color="#08111d"/>
    </linearGradient>
    <linearGradient id="linear-gradient-4" x1="0.001" y1="0.5" x2="1" y2="0.5" gradientUnits="objectBoundingBox">
      <stop offset="0" stop-color="#73584c"/>
      <stop offset="1" stop-color="#362927"/>
    </linearGradient>
  </defs>
  <g id="Grupo_580" data-name="Grupo 580" transform="translate(-574 -323)">
    <g id="Grupo_485" data-name="Grupo 485" transform="translate(-8 -2)" opacity="0.5">
      <g transform="matrix(1, 0, 0, 1, 582, 325)" filter="url(#Retângulo_1589)">
        <rect id="Retângulo_1589-2" data-name="Retângulo 1589" width="200" height="200" rx="10" transform="translate(9 6)" fill="#fff"/>
      </g>
      <g id="Grupo_463" data-name="Grupo 463" transform="translate(-107 47)">
        <g id="Grupo_de_máscara_5" data-name="Grupo de máscara 5" clip-path="url(#clip-path)">
          <g id="sessao2-tela2-2" transform="translate(677.907 215.736)">
            <g id="Grupo_476" data-name="Grupo 476" transform="translate(119.989 307.219)">
              <g id="Grupo_475" data-name="Grupo 475">
                <path id="Caminho_1510" data-name="Caminho 1510" d="M86.633,219.639c2.645,30.231,6.613,78.034,13.226,102.408,2.078-.189,3.968-.378,6.046-.567,1.889-33.065,4.346-69.532,6.613-104.109Z" transform="translate(-86.633 -217.372)" fill="url(#linear-gradient)"/>
                <path id="Caminho_1511" data-name="Caminho 1511" d="M101.489,279.639l9.825,3.779,8.691-.189v1.889l-9.258,2.267-17.572-1.512,1.889-6.046Z" transform="translate(-82.217 -175.341)" fill="#6a3b1b"/>
              </g>
            </g>
            <g id="Grupo_478" data-name="Grupo 478" transform="translate(73.697 306.653)">
              <g id="Grupo_477" data-name="Grupo 477">
                <path id="Caminho_1512" data-name="Caminho 1512" d="M93.567,219.867c-3.4,30.042-8.88,77.845-16.06,102.03-2.078-.378-3.968-.567-6.046-.756C70.516,288.077,69,251.61,67.682,217.033Z" transform="translate(-53.133 -217.033)" fill="url(#linear-gradient-2)"/>
                <path id="Caminho_1513" data-name="Caminho 1513" d="M77.324,278.926l-9.636,4.157L59,283.46v1.7l9.447,1.889,17.383-2.267-2.078-6.046Z" transform="translate(-58.996 -175.384)" fill="#6a3b1b"/>
              </g>
            </g>
            <g id="Grupo_480" data-name="Grupo 480" transform="translate(37.216 279.773)">
              <g id="Grupo_479" data-name="Grupo 479">
                <path id="Caminho_1514" data-name="Caminho 1514" d="M54.992,245.815a4.115,4.115,0,0,1-1.512.945c-1.134.189-2.267-.945-2.645-2.078a6.035,6.035,0,0,1,.567-3.59c1.889-5.29,9.447-12.092,6.991-14.171-1.7-1.323-6.235,3.023-9.447,5.479a18.4,18.4,0,0,1-4.535,2.834,2.7,2.7,0,0,1-2.834-4.535c3.023-2.645,9.069-5.479,11.715-8.5a1.283,1.283,0,0,0-.945-2.078L41.2,221.63c-1.7.189-3.968-.189-3.968-1.889-.189-1.512,1.512-2.267,2.834-2.645a32.877,32.877,0,0,1,8.5-1.134c1.512,0,3.4-.189,4.157-1.512.756-1.512-.756-3.212-2.267-3.779s-3.4-.756-4.724-1.7-1.889-3.4-.378-4.157a3.683,3.683,0,0,1,1.512-.189c4.157.378,8.5,4.157,12.281,2.267,2.645-1.323,3.779-5.29,6.8-5.857,2.456-.378,4.157,1.512,5.668,3.023a7.953,7.953,0,0,0,4.724,2.645c2.078.378,3.4.756,4.346,2.834.945,1.889,2.645,4.535,2.078,6.613s-3.59,3.59-4.346,5.668c-.756,2.645,1.323,3.779,3.4,5.668,1.134.945,2.267,1.7,2.834,3.023a2.935,2.935,0,0,1-1.7,3.779,9.573,9.573,0,0,1-2.456.378c-5.479.189-5.857-4.346-8.691-9.258C64.817,230.321,61.227,240.147,54.992,245.815Z" transform="translate(-37.216 -200.986)" fill="#bc9e6c"/>
              </g>
            </g>
            <path id="Caminho_1515" data-name="Caminho 1515" d="M54.143,257.042l-6.991-16.816c.189,0,10.014-1.7,13.037-6.613,3.4-5.1-1.134-12.848-4.913-24.185-6.046-18.139,25.7-40.434,31.365-45.158L99.679,158.6l15.682,3.212-10.77,67.831L78.139,213.962l5.1-28.153c-11.337,9.069-20.217,12.281-17.194,20.028,7.369,19.65,11.526,24.185,6.046,32.5C65.668,247.972,54.521,257.042,54.143,257.042Z" transform="translate(6.706 50.178)" fill="#bc9e6c"/>
            <g id="Grupo_482" data-name="Grupo 482" transform="translate(141.34 279.773)">
              <g id="Grupo_481" data-name="Grupo 481">
                <path id="Caminho_1516" data-name="Caminho 1516" d="M129.233,245.815a4.114,4.114,0,0,0,1.512.945c1.134.189,2.267-.945,2.645-2.078a6.035,6.035,0,0,0-.567-3.59c-1.889-5.29-9.447-12.092-6.991-14.171,1.7-1.323,6.235,3.023,9.447,5.479a18.4,18.4,0,0,0,4.535,2.834,2.7,2.7,0,0,0,2.834-4.535c-3.023-2.645-9.069-5.479-11.715-8.5a1.283,1.283,0,0,1,.945-2.078l11.148,1.512c1.7.189,3.968-.189,3.968-1.889.189-1.512-1.512-2.267-2.834-2.645a32.877,32.877,0,0,0-8.5-1.134c-1.512,0-3.4-.189-4.157-1.512-.756-1.512.756-3.212,2.267-3.779s3.4-.756,4.724-1.7,1.889-3.4.378-4.157a3.683,3.683,0,0,0-1.512-.189c-4.157.378-8.5,4.157-12.281,2.267-2.645-1.323-3.779-5.29-6.8-5.857-2.456-.378-4.157,1.512-5.668,3.023a7.953,7.953,0,0,1-4.724,2.645c-2.078.378-3.4.756-4.346,2.834-.945,1.889-2.645,4.535-2.078,6.613s3.59,3.59,4.346,5.668c.756,2.645-1.323,3.779-3.4,5.668-1.134.945-2.267,1.7-2.834,3.023a2.935,2.935,0,0,0,1.7,3.779,9.574,9.574,0,0,0,2.456.378c5.479.189,5.857-4.346,8.691-9.258C119.219,230.321,123,240.147,129.233,245.815Z" transform="translate(-99.38 -200.986)" fill="#bc9e6c"/>
              </g>
            </g>
            <path id="Caminho_1517" data-name="Caminho 1517" d="M134.112,257.194l6.991-16.816c-.189,0-10.014-1.7-13.037-6.613-3.4-5.1,1.134-12.848,4.913-24.185,6.046-18.139-25.885-41.946-31.743-46.481L86.5,158.376l-3.023,71.61L109.927,214.3l-3.4-26.83c11.337,9.069,18.517,10.959,15.493,18.706-7.369,19.65-11.526,24.185-6.046,32.5C122.4,248.125,133.545,257.194,134.112,257.194Z" transform="translate(31.224 50.025)" fill="#bc9e6c"/>
            <path id="Caminho_1518" data-name="Caminho 1518" d="M107.8,287.318c-1.134,1.889.756-14.738-1.323-13.982a109.863,109.863,0,0,1-6.046,14.738,145.3,145.3,0,0,1-27.964-7.369,11.557,11.557,0,0,1-2.267-.945c-1.7-.567-3.4-1.323-5.1-2.078a10.125,10.125,0,0,1-2.078-.945,77.686,77.686,0,0,1-7.936-3.968c-1.134-3.023,9.069-38.923,13.6-49.693a70.842,70.842,0,0,1,10.959-2.456c.189,0,.756-.189,1.889-.378a29.644,29.644,0,0,1,3.023-.567c.756-.189,1.7-.378,2.645-.567a36.737,36.737,0,0,0,3.779-.945c13.037-2.834,33.821-7.369,43.835-8.125.756,1.323,13.6,59.14,11.9,71.61C140.675,285.429,116.3,287.7,107.8,287.318Z" transform="translate(12.001 84.898)" fill="#aeadb3"/>
            <path id="Caminho_1519" data-name="Caminho 1519" d="M135.815,269.129c-26.641,9.447-47.236,1.512-75.578,1.134,3.59-26.074,4.724-37.033,8.5-60.085,10.77-3.212,8.88-32.688,9.069-46.481,3.023-1.889,3.968-1.323,5.668-3.023,8.314,19.461,22.673,22.107,26.641-.945,1.7.756,6.046.756,7.558,2.078,2.267,34.01,3.023,44.024,8.5,46.858C132.414,239.275,138.271,268.373,135.815,269.129Z" transform="translate(15.539 50.939)" fill="url(#linear-gradient-3)"/>
            <path id="Caminho_1520" data-name="Caminho 1520" d="M78.339,160.293c-.567,31.554,0,79.924-2.645,110.911-1.134-.189-7.18-.567-8.125-.756,5.479-35.144,5.857-78.223,6.991-108.077A10.983,10.983,0,0,0,78.339,160.293Z" transform="translate(20.488 51.32)" fill="#dedc1c"/>
            <path id="Caminho_1521" data-name="Caminho 1521" d="M81.351,150.376c.756-3.779,10.2-5.29,12.092-1.323-.945,7.747-1.512,15.682-2.456,23.429-4.535,1.889-12.47.378-12.47-3.59C78.328,162.846,80.028,156.611,81.351,150.376Z" transform="translate(27.868 42.154)" fill="#bc9e6c"/>
            <path id="Caminho_1522" data-name="Caminho 1522" d="M85.194,84.264H112.78a45.278,45.278,0,0,1,45.158,45.158v17.005a45.278,45.278,0,0,1-45.158,45.158H85.194c-24.752,0-41.946-20.406-45.158-45.158C35.5,110.149,60.442,84.264,85.194,84.264Z" transform="translate(1.54 0)" fill="url(#linear-gradient-4)"/>
            <path id="Caminho_1523" data-name="Caminho 1523" d="M54.872,165.788c2.456-2.456,6.991-2.834,8.88.189.189.378,1.134,2.267,1.512,2.267a13.919,13.919,0,0,1,2.645-.756c-.189,0,1.889-7.747.567-17.005,1.889-2.267,4.346-2.645,9.069-10.014,3.59-5.668,2.078-11.148.945-17.572,22.862-13.226,42.513-19.461,68.587-18.517a1.883,1.883,0,0,1,.189.756c.756,9.258-.189,34.577,4.724,37.033,10.959,5.857,2.267,39.112-20.6,44.591-13.793,3.4-54.794-3.4-63.3-10.392a.53.53,0,0,0-.945.378,11.621,11.621,0,0,1-2.267,3.59l-.567.567c-3.59,2.267-10.77-.378-12.47-4.535A10.33,10.33,0,0,1,54.872,165.788Z" transform="translate(9.567 13.516)" fill="#cca46b"/>
            <g id="Grupo_483" data-name="Grupo 483" transform="translate(102.142 158.331)">
              <path id="Caminho_1524" data-name="Caminho 1524" d="M77.765,128.483c-2.645,4.913-2.267,13.037.567,18.328,6.046,10.959,21.351,12.281,33.254,10.392a21.759,21.759,0,0,0,11.148-5.1c3.59-3.023,5.857-7.369,6.8-12.659-.945.189-1.7.378-2.645.567a60.3,60.3,0,0,1-48.559-11.337A.694.694,0,0,1,77.765,128.483Z" transform="translate(-75.978 -128.483)" fill="#831c1e"/>
              <path id="Caminho_1525" data-name="Caminho 1525" d="M77.743,128.483c-2.267,2.645-2.078,11.715-.756,12.848,8.88,9.069,22.3,11.715,34.2,10.014,4.346-.756,8.88-.756,11.9-3.4a17.567,17.567,0,0,0,5.668-8.125C111.753,143.221,91.347,139.064,77.743,128.483Z" transform="translate(-75.956 -128.483)" fill="#fff"/>
            </g>
            <path id="Caminho_1526" data-name="Caminho 1526" d="M54.591,143.506a5.394,5.394,0,0,1,6.613.567,1.481,1.481,0,0,1-.189,2.078,1.833,1.833,0,0,0-1.134,2.645c.567,1.323,2.078.945,3.212.567a.757.757,0,0,1,.945.945c-.945,2.645-4.724,2.078-6.046.189a4.289,4.289,0,0,1,.378-5.479,3.008,3.008,0,0,0-2.456.567c-.945.756-.945,2.078-1.134,3.212a.834.834,0,0,1-1.512.189C51.946,147.284,52.891,144.639,54.591,143.506Z" transform="translate(10.415 39.388)" fill="#915b23"/>
            <path id="Caminho_1527" data-name="Caminho 1527" d="M95.442,123.948a99.742,99.742,0,0,1-10.581-.189c-2.456-.189-2.834-1.889-.378-1.7a99.249,99.249,0,0,1,10.581.567C97.143,122.626,97.332,123.948,95.442,123.948Z" transform="translate(30.782 25.502)"/>
            <path id="Caminho_1528" data-name="Caminho 1528" d="M100.865,123.384a86.078,86.078,0,0,0,9.825-.189c2.267,0,2.645-1.889.378-1.7-3.212,0-6.613.189-9.825.378C99.353,122.061,99.164,123.384,100.865,123.384Z" transform="translate(42.176 25.122)"/>
            <path id="Caminho_1529" data-name="Caminho 1529" d="M97.057,110.759a1.366,1.366,0,0,1-1.134,2.456c-2.834-.756-5.1-.945-7.747.378-2.078,1.134-2.834,3.59-4.157,5.479A1.616,1.616,0,0,1,81,118.317C80.619,110.759,91.577,106.6,97.057,110.759Z" transform="translate(29.545 16.773)" fill="#502e25"/>
            <path id="Caminho_1530" data-name="Caminho 1530" d="M98.94,110.759a1.366,1.366,0,0,0,1.134,2.456c2.834-.756,5.1-.945,7.747.378,2.078,1.134,2.834,3.59,4.157,5.479a1.616,1.616,0,0,0,3.023-.756C115.568,110.759,104.609,106.6,98.94,110.759Z" transform="translate(41.266 16.773)" fill="#502e25"/>
            <path id="Caminho_1531" data-name="Caminho 1531" d="M94.17,128.534a2.548,2.548,0,0,1,4.157-1.134l.945.945h0c-.189-.189,0-.189,0,0a3.213,3.213,0,0,1,1.889,3.779c-.378,1.512-2.267,2.834-3.779,2.267C94.548,133.447,93.414,131.18,94.17,128.534Z" transform="translate(38.289 28.663)" fill="#6a3b1b" opacity="0.6"/>
          </g>
        </g>
      </g>
    </g>
  </g>
</svg>
