<svg xmlns="http://www.w3.org/2000/svg" xmlns:xlink="http://www.w3.org/1999/xlink" width="218" height="218" viewBox="0 0 218 218">
  <defs>
    <filter id="Retângulo_1587" x="0" y="0" width="218" height="218" filterUnits="userSpaceOnUse">
      <feOffset dy="3" input="SourceAlpha"/>
      <feGaussianBlur stdDeviation="3" result="blur"/>
      <feFlood flood-opacity="0.161"/>
      <feComposite operator="in" in2="blur"/>
      <feComposite in="SourceGraphic"/>
    </filter>
    <clipPath id="clip-path">
      <rect id="Retângulo_1584" data-name="Retângulo 1584" width="200" height="200" fill="#fff"/>
    </clipPath>
  </defs>
  <g id="Grupo_573" data-name="Grupo 573" transform="translate(-790 -323)">
    <g id="Grupo_486" data-name="Grupo 486" transform="translate(0 -2)" opacity="0.5">
      <g id="Grupo_461" data-name="Grupo 461" transform="translate(108 47)">
        <g transform="matrix(1, 0, 0, 1, 682, 278)" filter="url(#Retângulo_1587)">
          <rect id="Retângulo_1587-2" data-name="Retângulo 1587" width="200" height="200" rx="10" transform="translate(9 6)" fill="#fff"/>
        </g>
      </g>
    </g>
    <g id="menino_1svg" data-name="menino 1svg" transform="translate(719.137 291.21)" opacity="0.5">
      <path id="Caminho_1540" data-name="Caminho 1540" d="M126.272,226.831c3.977,12.371,12.127,11.324,12.127,11.324l-5.634-25.315S122.295,214.455,126.272,226.831Z" transform="translate(-3.687 -80.663)" fill="#e2ab82"/>
      <path id="Caminho_1541" data-name="Caminho 1541" d="M351.8,212.84l-5.634,25.315s8.155,1.052,12.127-11.324S351.8,212.84,351.8,212.84Z" transform="translate(-120.822 -80.663)" fill="#e2ab82"/>
      <rect id="Retângulo_1596" data-name="Retângulo 1596" width="19.127" height="19.123" transform="translate(170.196 189.009)" fill="#e2ab82"/>
      <path id="Caminho_1542" data-name="Caminho 1542" d="M189.5,87.65a52.311,52.311,0,0,0-52.311,52.311c0,28.893,14.554,72.875,52.311,72.875,43.377,0,52.3-43.982,52.3-72.875A52.311,52.311,0,0,0,189.5,87.65Z" transform="translate(-9.958 -14.249)" fill="#e2ab82"/>
      <path id="Caminho_1543" data-name="Caminho 1543" d="M137.2,139.961c0,28.893,11.827,72.875,52.316,72.875V87.65A52.316,52.316,0,0,0,137.2,139.961Z" transform="translate(-9.963 -14.249)" fill="#e2ab82"/>
      <path id="Caminho_1544" data-name="Caminho 1544" d="M201.889,374.62H175.555C136.347,379.686,134,404.278,134,404.278H242.317C242.317,379.935,201.889,374.62,201.889,374.62Z" transform="translate(-8.265 -166.488)" fill="#de4506"/>
      <path id="Caminho_1545" data-name="Caminho 1545" d="M264.9,374.62H251.13v29.658H305.5C305.5,379.935,264.9,374.62,264.9,374.62Z" transform="translate(-70.403 -166.488)" fill="#de4506"/>
      <path id="Caminho_1546" data-name="Caminho 1546" d="M246.3,372.47v18.357c1.249,1.075,1.249,1.408,1.249,1.408l1.239-1.207-.347-18.54Z" transform="translate(-67.841 -165.347)" fill="#e2ab82"/>
      <path id="Caminho_1547" data-name="Caminho 1547" d="M249,372.473v19.761s24.573-4.695,24.569-16.432C273.6,375.826,267.493,372.056,249,372.473Z" transform="translate(-69.273 -165.332)" fill="#e2ab82"/>
      <path id="Caminho_1548" data-name="Caminho 1548" d="M196.63,375.848c0,11.7,24.569,16.432,24.569,16.432l.028-19.761C202.738,372.078,196.63,375.848,196.63,375.848Z" transform="translate(-41.491 -165.355)" fill="#e2ab82"/>
      <path id="Caminho_1549" data-name="Caminho 1549" d="M175.14,68.1l-11-7.31L157.346,73.4,143.5,62.875c-2.089,3.286-5.225,18.31-5.225,18.31-4.179-2.089-14.634-3.657-14.634-3.657l2.113,23.249-7.334-2.329c.521,11,9.2,33.738,9.2,33.738s8.089-14.968,6.5-24.372S162.1,100.5,179.7,106.51l6.639-18.282L179.769,60.8Z" transform="translate(0 0)" fill="#030202"/>
      <path id="Caminho_1550" data-name="Caminho 1550" d="M305.128,77.5s-10.446,1.568-14.63,3.657c0,0-3.132-15.024-5.221-18.287L271.432,73.4l-6.8-12.611-11,7.31-4.568-7.31V106.5c17.606-6,47.175-8.1,45.588,1.305s6.493,24.372,6.493,24.372,8.676-22.733,9.2-33.738l-7.324,2.319Z" transform="translate(-69.31 0)" fill="#030202"/>
      <line id="Linha_39" data-name="Linha 39" x2="19.301" y2="5.564" transform="translate(153.294 118.069)" fill="none" stroke="#1f140f" stroke-linecap="round" stroke-miterlimit="10" stroke-width="1"/>
      <line id="Linha_40" data-name="Linha 40" x1="19.343" y2="5.409" transform="translate(189.985 118.599)" fill="none" stroke="#1f140f" stroke-linecap="round" stroke-miterlimit="10" stroke-width="1"/>
      <rect id="Retângulo_1597" data-name="Retângulo 1597" width="7.625" height="11.939" rx="3.812" transform="translate(163.623 130.027)" fill="#1f140f"/>
      <rect id="Retângulo_1598" data-name="Retângulo 1598" width="7.625" height="11.939" rx="3.812" transform="translate(192.032 130.116)" fill="#1f140f"/>
      <rect id="Retângulo_1599" data-name="Retângulo 1599" width="10.212" height="16.911" rx="5.106" transform="translate(175.098 145.534)" fill="#cc7958"/>
      <path id="Caminho_1551" data-name="Caminho 1551" d="M222.4,288.466a82.163,82.163,0,0,0,19.893-1.108c2.474-.446,4.784,1.211,4.784,3.432v7.869a3.838,3.838,0,0,1-4.268,3.526c-7.545-.441-14.038-1.878-20.54-1.85a3.819,3.819,0,0,1-4.085-3.512v-4.845A3.8,3.8,0,0,1,222.4,288.466Z" transform="translate(-52.923 -120.156)" fill="#fff"/>
    </g>
  </g>
</svg>
