<svg xmlns="http://www.w3.org/2000/svg" xmlns:xlink="http://www.w3.org/1999/xlink" width="218" height="218" viewBox="0 0 218 218">
  <defs>
    <filter id="Retângulo_1587" x="-7" y="0" width="218" height="218" filterUnits="userSpaceOnUse">
      <feOffset dy="3" input="SourceAlpha"/>
      <feGaussianBlur stdDeviation="3" result="blur"/>
      <feFlood flood-opacity="0.161"/>
      <feComposite operator="in" in2="blur"/>
      <feComposite in="SourceGraphic"/>
    </filter>
    <filter id="Retângulo_1589" x="0" y="0" width="218" height="218" filterUnits="userSpaceOnUse">
      <feOffset dy="3" input="SourceAlpha"/>
      <feGaussianBlur stdDeviation="3" result="blur-2"/>
      <feFlood flood-opacity="0.161"/>
      <feComposite operator="in" in2="blur-2"/>
      <feComposite in="SourceGraphic"/>
    </filter>
    <clipPath id="clip-path">
      <g transform="matrix(1, 0, 0, 1, 0, 0)" filter="url(#Retângulo_1587)">
        <rect id="Retângulo_1587-2" data-name="Retângulo 1587" width="200" height="200" rx="10" transform="translate(691 284)" fill="#fff"/>
      </g>
    </clipPath>
  </defs>
  <g id="Grupo_587" data-name="Grupo 587" transform="translate(-574 -323)">
    <g id="Grupo_517" data-name="Grupo 517">
      <g id="Grupo_485" data-name="Grupo 485" transform="translate(-8 -2)" opacity="0.5">
        <g transform="matrix(1, 0, 0, 1, 582, 325)" filter="url(#Retângulo_1589)">
          <rect id="Retângulo_1589-2" data-name="Retângulo 1589" width="200" height="200" rx="10" transform="translate(9 6)" fill="#fff"/>
        </g>
      </g>
      <g id="PERSONAGENS-06" transform="translate(618.016 360.531)" opacity="0.5">
        <path id="Caminho_347" data-name="Caminho 347" d="M135,294.273h9.488V292.3a17.5,17.5,0,0,1-8.617-.568,18.923,18.923,0,0,1-9.256.5v2.029H135Z" transform="translate(-70.038 -161.345)" fill="#e2ab82"/>
        <path id="Caminho_348" data-name="Caminho 348" d="M118.292,306.857l-.027-.027c-.2.063-.366.134-.545.206l.264-.049Z" transform="translate(-65.116 -169.696)" fill="#c9e4f5"/>
        <path id="Caminho_349" data-name="Caminho 349" d="M199.876,333.009H147.46V297.42h1.22l7.513,11.03,4.277-6.82a60.9,60.9,0,0,1,16.809,4.845c10.793,4.626,16.054,11.222,18.53,16.192a31.857,31.857,0,0,1,2.749,6.668C199,330.466,199.43,331.686,199.876,333.009Z" transform="translate(-81.564 -164.492)" fill="#e13636"/>
        <path id="Caminho_350" data-name="Caminho 350" d="M80.357,297.42v35.589H26.13c4.608-13.73,8.662-16.858,8.662-16.858,9.833-10.726,29.77-13.953,32.3-14.3l.259-.054.308-.121,4.259,6.789,7.513-11.03Z" transform="translate(-14.46 -164.492)" fill="#e13636"/>
        <path id="Caminho_351" data-name="Caminho 351" d="M145.316,8.394h.13l.17,33.426V41.9a33.793,33.793,0,0,0,2.918,1.828c.1.067.21.121.322.192,6.7,3.741,22.521,10.57,36.944,1.14,3.41-2.235,3.687,6.847,1.368,11.719l7.182,9.882a3.9,3.9,0,0,1-.027.563c1.707.447,7.6,2.512,6.257,10.418a5.05,5.05,0,0,0,1.341-4.7c5.238-1.421,7.915-5.757,6.86-11.08-1.028-5.184-4.228-4.956-7.808-7.388,7.714-2.306,9.64-9.462,7.249-16.309-1.645-4.751-4.089-8.456-10.543-8.974,3.41-4.684,1.73-8.59-1.618-12.157-3.432-3.625-8.916-5.073-15.308-3.812,0-9.386-10.668-10.865-15.33-11.1a16.045,16.045,0,0,0-8.9,1.788,10.808,10.808,0,0,1-2.534.469c-1.287.264.791.626-3.053-1.461-2.136-1.153-6.7-1.627-6.744-1.645l1.126.228Z" transform="translate(-79.755 -0.702)" fill="#030202"/>
        <path id="Caminho_352" data-name="Caminho 352" d="M16.939,66.768a.608.608,0,0,0,.045.121h0l7.325-10.8C19,44.994,33.623,39.134,43.483,35.443c7.012-2.637,17.015,2.44,22.208,5.6a1.669,1.669,0,0,1,.179.089L65.691,7.693h-.147V.8L64.417.568c-10.275-1.85-24.648.773-26.092,8.684-8.8-2.74-25.98,5.363-25.422,15.683C6.7,25.257.233,29.945-.009,36.448c-.192,5.363,3.6,12.237,8.867,13.971-6.391.1-6.481,19.106,2.9,21.229A8.2,8.2,0,0,1,16.939,66.768Z" transform="translate(0)" fill="#030202"/>
        <path id="Caminho_353" data-name="Caminho 353" d="M252.007,148.87a110.808,110.808,0,0,1-3.517,23.357c2.534-.585,6.677-2.762,9.131-10.378a18.648,18.648,0,0,0,.63-2.561C259.605,151.382,253.715,149.3,252.007,148.87Z" transform="translate(-137.44 -82.334)" fill="#e2ab82"/>
        <path id="Caminho_354" data-name="Caminho 354" d="M160.576,228.652c-3.951.277-9.068-1.278-13.6-8.662v13.587h.161a3.441,3.441,0,0,0,.353-.031v.08C157.47,234.77,160.182,231.682,160.576,228.652Z" transform="translate(-81.298 -121.668)" fill="#e2ab82"/>
        <path id="Caminho_355" data-name="Caminho 355" d="M195.892,116.743l-7.182-9.882c2.32-4.872,2.042-13.94-1.368-11.719-14.423,9.43-30.257,2.6-36.944-1.14v.049s-.125-.089-.322-.241a33.79,33.79,0,0,1-2.918-1.828v-.094a1.668,1.668,0,0,0-.179-.089v56.711c.952-1.274,5.363-6.628,10.49-2.731,4.4,3.348,7.727,8.045,9.064,9.475l.644.232c.639,10.279-.939,16.657-3.45,20.595,16-5.761,24.447-20,28.6-35.42a110.81,110.81,0,0,0,3.517-23.357A4.851,4.851,0,0,0,195.892,116.743Z" transform="translate(-81.298 -50.771)" fill="#e2ab82"/>
        <path id="Caminho_356" data-name="Caminho 356" d="M58.807,147.667l.7-.25c5.068-4.183,3.745-5.153,9.417-9.457,5.363-4.076,9.958,1.989,10.592,2.887.04-.049.067-.094.112-.156V84c-5.184-3.164-15.2-8.241-22.2-5.6-9.859,3.692-24.479,9.551-19.173,20.648l-7.334,10.8h0a.608.608,0,0,1-.045-.121A8.17,8.17,0,0,0,25.7,114.6c-.675,1.886-.769,4.429.335,7.866,2.235,6.914,5.85,9.341,8.389,10.181,4.2,15.419,12.59,29.784,28.157,35.8C59.9,164.516,58.181,158.089,58.807,147.667Z" transform="translate(-13.943 -42.949)" fill="#e2ab82"/>
        <path id="Caminho_357" data-name="Caminho 357" d="M129.894,233.356V219.773a1.189,1.189,0,0,0-.112-.183c-4.554,7.535-9.721,9.122-13.712,8.84.639,3.03,3.62,6.119,13.627,4.979v-.08Z" transform="translate(-64.203 -121.447)" fill="#e2ab82"/>
        <path id="Caminho_358" data-name="Caminho 358" d="M154.232,96.492c-.112-.072-.219-.125-.322-.192.2.152.322.241.322.241Z" transform="translate(-85.131 -53.259)" fill="#030202"/>
        <path id="Caminho_359" data-name="Caminho 359" d="M146.56,250.33v.08a2.185,2.185,0,0,0,.349-.049h-.152Z" transform="translate(-81.066 -138.448)" fill="#313131"/>
        <path id="Caminho_360" data-name="Caminho 360" d="M123.268,308.464l7.522-11.044H119v4.206l.027.027Z" transform="translate(-65.823 -164.492)" fill="#90aebf"/>
        <path id="Caminho_361" data-name="Caminho 361" d="M157.714,308.486l4.282-6.82h0V297.46H150.21Z" transform="translate(-83.085 -164.514)" fill="#90aebf"/>
        <path id="Caminho_362" data-name="Caminho 362" d="M95.222,129.756a.98.98,0,0,1-.161,0,.894.894,0,0,1-.72-1.041c.693-3.8,8.648-4.469,15.781-3.173a.895.895,0,1,1-.317,1.761c-8.045-1.466-13.408.022-13.707,1.734a.894.894,0,0,1-.876.72Z" transform="translate(-52.178 -69.097)" fill="#1f140f"/>
        <path id="Caminho_363" data-name="Caminho 363" d="M183.711,130.176a.894.894,0,0,1-.894-.733c-.411-2.235-6.311-3.768-14.114-2.346a.894.894,0,1,1-.322-1.756c8.554-1.56,15.518.067,16.2,3.781a.894.894,0,0,1-.72,1.041Z" transform="translate(-92.706 -68.994)" fill="#1f140f"/>
        <rect id="Retângulo_1491" data-name="Retângulo 1491" width="4.943" height="10.311" rx="2.472" transform="translate(50.084 61.383)" fill="#1f140f"/>
        <path id="Caminho_364" data-name="Caminho 364" d="M144.932,232.69a7.057,7.057,0,0,1-1.368,4.094H126.108a6.994,6.994,0,0,1-1.368-4.094Z" transform="translate(-68.998 -128.692)" fill="#fffefe"/>
        <path id="Caminho_365" data-name="Caminho 365" d="M145.257,241.85a11.352,11.352,0,0,1-17.457,0Z" transform="translate(-70.69 -133.758)" fill="#030202"/>
        <rect id="Retângulo_1492" data-name="Retângulo 1492" width="4.943" height="10.311" rx="2.472" transform="translate(79.961 62.013)" fill="#1f140f"/>
        <rect id="Retângulo_1493" data-name="Retângulo 1493" width="9.238" height="10.311" rx="4.619" transform="translate(60.681 80.074)" fill="#cc7958"/>
        <path id="Caminho_366" data-name="Caminho 366" d="M167.039,220.557l-.644-.232c-1.341-1.426-4.662-6.127-9.064-9.475-5.117-3.9-9.538,1.457-10.49,2.731-.045.063-.072.107-.112.156l.085.112a.809.809,0,0,1-.085.13,1.186,1.186,0,0,1,.112.183c4.527,7.383,9.645,8.939,13.6,8.662-.393,3.03-3.129,6.119-13.082,4.979v18.324l-.358.121a17.5,17.5,0,0,0,8.617.545,12.179,12.179,0,0,0,7.973-5.654C166.1,237.215,167.678,230.824,167.039,220.557Z" transform="translate(-81.16 -115.84)" fill="#030202"/>
        <path id="Caminho_367" data-name="Caminho 367" d="M121.212,246.243l.358-.121v-18.4a3.446,3.446,0,0,1-.353.031,2.187,2.187,0,0,1-.349.049c-10.007,1.14-12.988-1.949-13.627-4.979,3.987.277,9.158-1.305,13.7-8.845a.81.81,0,0,0,.085-.13l-.085-.112c-.635-.894-5.229-6.963-10.592-2.887-5.672,4.3-4.349,5.274-9.417,9.457l-.7.25c-.635,10.423,1.091,16.849,3.781,20.778a12.7,12.7,0,0,0,7.938,5.4A18.616,18.616,0,0,0,121.212,246.243Z" transform="translate(-55.374 -115.844)" fill="#030202"/>
        <path id="Caminho_368" data-name="Caminho 368" d="M95.89,125.494c0-3.8,5.479-6.874,12.246-6.874" transform="translate(-53.042 -65.604)" fill="none"/>
      </g>
    </g>
  </g>
</svg>
