<svg xmlns="http://www.w3.org/2000/svg" width="364.327" height="373.804" viewBox="0 0 364.327 373.804">
  <g id="Grupo_569" data-name="Grupo 569" transform="translate(-825 -246.195)">
    <g id="Prancheta_1_cópia_7svg" data-name="Prancheta 1 cópia 7svg" transform="translate(753.15 130.585)">
      <path id="Caminho_1301" data-name="Caminho 1301" d="M507.3,347.159H492V339.61h15.3Zm-12.912-2.385h10.527v-2.783H494.39Z" transform="translate(-242.457 -129.264)" fill="#b0b7bc"/>
      <path id="Caminho_1302" data-name="Caminho 1302" d="M502.826,357.432a1.188,1.188,0,0,1-1.188-1.193,2.038,2.038,0,0,0-2.038-2.034H475.07a2.039,2.039,0,0,0-2.034,2.034,1.193,1.193,0,0,1-2.385,0,4.424,4.424,0,0,1,4.419-4.42H499.6a4.424,4.424,0,0,1,4.42,4.42A1.193,1.193,0,0,1,502.826,357.432Z" transform="translate(-230.137 -136.31)" fill="#b0b7bc"/>
      <path id="Caminho_1303" data-name="Caminho 1303" d="M491.952,277.238H426.077a4.517,4.517,0,0,1-4.517-4.517V233.977a4.517,4.517,0,0,1,4.517-4.517h65.875a4.517,4.517,0,0,1,4.517,4.517v38.74a4.521,4.521,0,0,1-4.517,4.521Z" transform="translate(-201.808 -65.7)" fill="#e8ecec"/>
      <path id="Caminho_1304" data-name="Caminho 1304" d="M496.6,274.8H432.039a1.29,1.29,0,0,1-1.269-1.294V239.939a1.269,1.269,0,0,1,1.269-1.269H496.6a1.294,1.294,0,0,1,1.29,1.269v33.572a1.294,1.294,0,0,1-1.29,1.294Z" transform="translate(-207.123 -71.015)" fill="#f7bf5c"/>
      <path id="Caminho_1305" data-name="Caminho 1305" d="M507.495,332.791h-5.16a1.294,1.294,0,0,1,0-2.584h5.16a1.294,1.294,0,1,1,0,2.584Z" transform="translate(-247.717 -123.837)" fill="#263841"/>
      <path id="Caminho_1306" data-name="Caminho 1306" d="M438.1,252.431a1.269,1.269,0,0,0,.914-.376l5.168-5.164a1.292,1.292,0,0,0-1.827-1.827l-5.164,5.164a1.29,1.29,0,0,0,.909,2.2Z" transform="translate(-210.604 -74.486)" fill="#566b7a"/>
      <circle id="Elipse_473" data-name="Elipse 473" cx="1.256" cy="1.256" r="1.256" transform="translate(263.652 206.37)" fill="#e01227"/>
      <path id="Caminho_1307" data-name="Caminho 1307" d="M510.519,349.8H497.37V344.39h13.149Zm-12.912-.241h12.688v-4.906H497.607Z" transform="translate(-245.556 -132.023)" fill="#1c0a2d"/>
      <path id="Caminho_1308" data-name="Caminho 1308" d="M507.229,359.95h-.241a3.113,3.113,0,0,0-3.108-3.109H479.35a3.113,3.113,0,0,0-3.108,3.109H476a3.35,3.35,0,0,1,3.345-3.35h24.53A3.354,3.354,0,0,1,507.229,359.95Z" transform="translate(-233.224 -139.069)" fill="#1c0a2d"/>
      <path id="Caminho_1309" data-name="Caminho 1309" d="M494.565,279.445H428.7a4.652,4.652,0,0,1-4.652-4.652v-38.74A4.652,4.652,0,0,1,428.7,231.4H494.56a4.652,4.652,0,0,1,4.652,4.652v38.74a4.652,4.652,0,0,1-4.648,4.652ZM428.7,231.654a4.4,4.4,0,0,0-4.394,4.4v38.74a4.4,4.4,0,0,0,4.394,4.4h65.863a4.4,4.4,0,0,0,4.394-4.4v-38.74a4.4,4.4,0,0,0-4.4-4.4Z" transform="translate(-203.245 -66.819)" fill="#1c0a2d"/>
      <path id="Caminho_1310" data-name="Caminho 1310" d="M499.223,276.977h-64.56a1.417,1.417,0,0,1-1.413-1.413V241.993a1.417,1.417,0,0,1,1.413-1.413h64.56a1.417,1.417,0,0,1,1.413,1.413v33.572A1.417,1.417,0,0,1,499.223,276.977Zm-64.56-36.156a1.172,1.172,0,0,0-1.172,1.172v33.572a1.171,1.171,0,0,0,1.171,1.172h64.56a1.176,1.176,0,0,0,1.167-1.172V241.993a1.176,1.176,0,0,0-1.176-1.171Z" transform="translate(-208.554 -72.117)" fill="#1c0a2d"/>
      <path id="Caminho_1311" data-name="Caminho 1311" d="M509.933,335h-5.155a1.413,1.413,0,1,1,0-2.821h5.155a1.413,1.413,0,1,1,0,2.821Zm-5.164-2.584a1.172,1.172,0,0,0,0,2.343h5.164a1.172,1.172,0,0,0,0-2.343Z" transform="translate(-248.971 -124.974)" fill="#1c0a2d"/>
      <path id="Caminho_1312" data-name="Caminho 1312" d="M440.768,254.66a1.391,1.391,0,0,1-.994-.423,1.408,1.408,0,0,1,0-2l5.164-5.164a1.409,1.409,0,0,1,1.992,1.992l-5.164,5.181A1.4,1.4,0,0,1,440.768,254.66Zm5.168-7.744a1.167,1.167,0,0,0-.846.343l-5.168,5.164a1.172,1.172,0,0,0,1.658,1.658l5.185-5.16a1.172,1.172,0,0,0-.846-2Z" transform="translate(-212.08 -75.628)" fill="#1c0a2d"/>
      <path id="Caminho_1313" data-name="Caminho 1313" d="M529.275,334.929a1.374,1.374,0,1,1,1.375-1.374,1.374,1.374,0,0,1-1.375,1.374Zm0-2.512a1.138,1.138,0,1,0,1.138,1.138A1.138,1.138,0,0,0,529.275,332.417Z" transform="translate(-263.174 -124.977)" fill="#1c0a2d"/>
      <path id="Caminho_1314" data-name="Caminho 1314" d="M476.977,161.929c3.341.03,6.082-3.244,6.116-7.3s-.846-7.363-6-7.405-6.082,3.244-6.116,7.3S473.631,161.891,476.977,161.929Z" transform="translate(-230.327 -18.241)" fill="#f7bf5c"/>
      <path id="Caminho_1315" data-name="Caminho 1315" d="M457.9,208.134Z" transform="translate(-222.779 -53.319)" fill="#3f92cc"/>
      <path id="Caminho_1316" data-name="Caminho 1316" d="M512,208.894Z" transform="translate(-253.998 -53.702)" fill="#3f92cc"/>
      <path id="Caminho_1317" data-name="Caminho 1317" d="M480.786,193.689c-.055-7.076-.964-9.1-8.036-10.434a4.216,4.216,0,0,1-3.328,1.243,4.264,4.264,0,0,1-3.307-1.3c-7,1.205-8,3.185-8.184,10.074,0,.562-.021.592-.021.529v.744s1.658,3.4,11.419,3.485,11.457-3.286,11.457-3.286v-.55A4.023,4.023,0,0,1,480.786,193.689Z" transform="translate(-222.785 -39.004)" fill="#f7bf5c"/>
      <path id="Caminho_1318" data-name="Caminho 1318" d="M537.377,162.929c3.345.025,6.082-3.244,6.116-7.308s-.846-7.363-6-7.4-6.082,3.244-6.116,7.3S534.031,162.929,537.377,162.929Z" transform="translate(-265.182 -18.818)" fill="#f7bf5c"/>
      <path id="Caminho_1319" data-name="Caminho 1319" d="M518.3,209.35Z" transform="translate(-257.634 -54.095)" fill="#3f92cc"/>
      <path id="Caminho_1320" data-name="Caminho 1320" d="M572.39,209.944Z" transform="translate(-288.848 -54.308)" fill="#3f92cc"/>
      <path id="Caminho_1321" data-name="Caminho 1321" d="M541.156,194.779c-.055-7.076-.964-9.1-8.036-10.434a4.2,4.2,0,0,1-3.324,1.239,4.3,4.3,0,0,1-3.307-1.294c-7,1.205-8,3.185-8.188,10.074,0,.562-.021.592-.021.524v.744s1.658,3.409,11.419,3.489,11.461-3.3,11.461-3.3v-.55A2.7,2.7,0,0,1,541.156,194.779Z" transform="translate(-257.623 -39.633)" fill="#f7bf5c"/>
      <path id="Caminho_1322" data-name="Caminho 1322" d="M506.993,157.129c3.345.03,6.082-3.244,6.116-7.3s-.846-7.363-6-7.405-6.082,3.244-6.111,7.308S503.647,157.1,506.993,157.129Z" transform="translate(-247.65 -15.471)" fill="#d19f4e"/>
      <path id="Caminho_1323" data-name="Caminho 1323" d="M487.91,203.54Z" transform="translate(-240.097 -50.742)" fill="#2e739c"/>
      <path id="Caminho_1324" data-name="Caminho 1324" d="M542,204.124Z" transform="translate(-271.311 -50.949)" fill="#2e739c"/>
      <path id="Caminho_1325" data-name="Caminho 1325" d="M510.838,188.959c-.055-7.076-.964-9.1-8.036-10.434a4.211,4.211,0,0,1-3.324,1.243,4.274,4.274,0,0,1-3.307-1.3c-7,1.205-8,3.185-8.171,10.074v1.273s1.658,3.383,11.419,3.485S510.88,190,510.88,190v-.554a2.631,2.631,0,0,1-.042-.491Z" transform="translate(-240.149 -36.275)" fill="#d19f4e"/>
      <path id="Caminho_1326" data-name="Caminho 1326" d="M478.907,160.389c3.345.03,6.082-3.244,6.116-7.3s-.846-7.363-6-7.405-6.078,3.244-6.116,7.325S475.561,160.364,478.907,160.389Z" transform="translate(-231.44 -17.352)" fill="none" stroke="#1b0c2d" stroke-miterlimit="10" stroke-width="1"/>
      <path id="Caminho_1327" data-name="Caminho 1327" d="M459.83,206.8Z" transform="translate(-223.893 -52.623)" fill="none" stroke="#1b0c2d" stroke-miterlimit="10" stroke-width="1"/>
      <path id="Caminho_1328" data-name="Caminho 1328" d="M539.317,161.439c3.341.025,6.082-3.244,6.115-7.308s-.846-7.359-6-7.4-6.082,3.244-6.116,7.3S535.971,161.413,539.317,161.439Z" transform="translate(-266.301 -17.958)" fill="none" stroke="#1b0c2d" stroke-miterlimit="10" stroke-width="1"/>
      <path id="Caminho_1329" data-name="Caminho 1329" d="M574.32,208.434Z" transform="translate(-289.962 -53.436)" fill="none" stroke="#1b0c2d" stroke-miterlimit="10" stroke-width="1"/>
      <path id="Caminho_1330" data-name="Caminho 1330" d="M508.225,189.91c-.055-7.076-.964-9.1-8.036-10.434a4.205,4.205,0,0,1-3.328,1.239,4.286,4.286,0,0,1-3.307-1.294l-.127.025c-1.184-1.163-3.075-1.861-6.09-2.432a4.216,4.216,0,0,1-3.328,1.243,4.264,4.264,0,0,1-3.307-1.3c-2.821.486-4.652,1.1-5.879,2.115l-.182-.034a4.961,4.961,0,0,1-6.631-.055c-7.008,1.205-8,3.185-8.188,10.074,0,.562-.021.592-.021.529v.744s1.654,3.4,11.419,3.485c5.853.046,8.81-1.15,10.239-2.115.757.055,1.573.089,2.457.1s1.616,0,2.343-.055c1.269,1.015,4.191,2.466,10.51,2.516,9.753.08,11.466-3.3,11.466-3.3v-.55C508.234,190.443,508.229,190.363,508.225,189.91Z" transform="translate(-223.875 -35.403)" fill="none" stroke="#1b0c2d" stroke-miterlimit="10" stroke-width="1"/>
      <path id="Caminho_1331" data-name="Caminho 1331" d="M508.927,155.619c3.341.03,6.082-3.244,6.116-7.3s-.846-7.363-6-7.405-6.082,3.244-6.116,7.308S505.581,155.594,508.927,155.619Z" transform="translate(-248.764 -14.599)" fill="none" stroke="#1b0c2d" stroke-miterlimit="10" stroke-width="1"/>
      <line id="Linha_26" data-name="Linha 26" y1="0.922" x2="1.108" transform="translate(265.826 115.61)" fill="none"/>
      <rect id="Retângulo_1555" data-name="Retângulo 1555" width="86.844" height="235.807" transform="translate(214.292 253.607)" fill="#f7bf5c"/>
      <rect id="Retângulo_1556" data-name="Retângulo 1556" width="86.844" height="8.243" transform="translate(214.292 253.607)" fill="#dba752"/>
      <rect id="Retângulo_1557" data-name="Retângulo 1557" width="99.523" height="20.918" transform="translate(207.318 233.319)" fill="#f7bf5c"/>
      <text id="_1" data-name="#1" transform="translate(227.17 337.19)" fill="#fff" font-size="50" font-family="Lato-Bold, Lato" font-weight="700"><tspan x="0" y="0">#1</tspan></text>
      <text id="_1-2" data-name="#1" transform="translate(228.955 338.382)" fill="none" stroke="#1b0c2d" stroke-miterlimit="10" stroke-width="2" font-size="50" font-family="Lato-Bold, Lato" font-weight="700"><tspan x="0" y="0">#1</tspan></text>
      <path id="Caminho_1332" data-name="Caminho 1332" d="M807.952,465.149a1.057,1.057,0,0,0-1.294-.749L756.52,477.833l.275,2.081a1.049,1.049,0,0,0,.275-.038L807.2,466.444a1.057,1.057,0,0,0,.748-1.294Z" transform="translate(-395.104 -201.257)" fill="#504f4f"/>
      <path id="Caminho_1333" data-name="Caminho 1333" d="M753.234,496.13a2.884,2.884,0,0,0-2.884,2.88v4.255h5.773V499.01a2.88,2.88,0,0,0-2.889-2.88Z" transform="translate(-391.544 -219.588)" fill="#727272"/>
      <path id="Caminho_1334" data-name="Caminho 1334" d="M800.748,506.339a2.829,2.829,0,0,1,2.821,2.821v36.68a2.829,2.829,0,0,1-2.821,2.821h-57.8a2.829,2.829,0,0,1-2.817-2.821V509.151a2.829,2.829,0,0,1,2.817-2.821Z" transform="translate(-385.646 -225.474)" fill="#e35062"/>
      <circle id="Elipse_474" data-name="Elipse 474" cx="12.975" cy="12.975" r="12.975" transform="translate(360.253 289.053)" fill="#504f4f"/>
      <path id="Caminho_1335" data-name="Caminho 1335" d="M772.633,553.226a8.653,8.653,0,1,1,8.653-8.649A8.653,8.653,0,0,1,772.633,553.226Z" transform="translate(-399.409 -242.549)" fill="#fff"/>
      <circle id="Elipse_475" data-name="Elipse 475" cx="3.244" cy="3.244" r="3.244" transform="translate(391.968 300.797)" fill="#504f4f"/>
      <circle id="Elipse_476" data-name="Elipse 476" cx="3.244" cy="3.244" r="3.244" transform="translate(405.667 300.797)" fill="#504f4f"/>
      <rect id="Retângulo_1558" data-name="Retângulo 1558" width="20.186" height="10.091" transform="translate(391.968 286.38)" fill="#fff"/>
      <path id="Caminho_1336" data-name="Caminho 1336" d="M828.76,579.05v5.807h6.729l1.408-2.9-1.408-2.906Z" transform="translate(-436.792 -267.439)" fill="#504f4f"/>
      <path id="Caminho_1337" data-name="Caminho 1337" d="M865.387,579.05h-6.729l-1.408,2.906,1.408,2.9h6.729Z" transform="translate(-453.233 -267.439)" fill="#504f4f"/>
      <rect id="Retângulo_1559" data-name="Retângulo 1559" width="6.729" height="5.807" transform="translate(398.697 311.612)" fill="#fff"/>
      <path id="Caminho_1338" data-name="Caminho 1338" d="M840.958,527.72a1.057,1.057,0,0,0-1.057,1.057v5.5h2.115v-5.5A1.057,1.057,0,0,0,840.958,527.72Z" transform="translate(-443.221 -237.817)" fill="#e35062"/>
      <path id="Caminho_1339" data-name="Caminho 1339" d="M783,554.424a1.057,1.057,0,0,1-1.057-1.057v-8.649a1.057,1.057,0,1,1,2.115,0v8.649A1.053,1.053,0,0,1,783,554.424Z" transform="translate(-409.774 -247.016)" fill="#727272"/>
      <path id="Caminho_1340" data-name="Caminho 1340" d="M772.777,554.829a1.057,1.057,0,0,1-1.057-1.057v-6.344a1.057,1.057,0,1,1,2.115,0v6.344A1.057,1.057,0,0,1,772.777,554.829Z" transform="translate(-403.876 -248.58)" fill="#727272"/>
      <path id="Caminho_1341" data-name="Caminho 1341" d="M793.227,554.829a1.057,1.057,0,0,1-1.057-1.057v-6.344a1.057,1.057,0,1,1,2.115,0v6.344a1.057,1.057,0,0,1-1.057,1.057Z" transform="translate(-415.677 -248.58)" fill="#727272"/>
      <path id="Caminho_1342" data-name="Caminho 1342" d="M804.271,479.141H753.735v-1.425a2.857,2.857,0,0,0-.381-1.4l47.905-12.849a1.058,1.058,0,1,0-.55-2.043L750.627,474.84a2.876,2.876,0,0,0-2.66,2.863v1.438h-1.506a2.829,2.829,0,0,0-2.821,2.821v36.68a2.829,2.829,0,0,0,2.821,2.821h57.81a2.829,2.829,0,0,0,2.821-2.821v-36.7a2.829,2.829,0,0,0-2.821-2.8Z" transform="translate(-387.672 -199.536)" fill="none" stroke="#1b0c2d" stroke-miterlimit="10" stroke-width="1"/>
      <rect id="Retângulo_1560" data-name="Retângulo 1560" width="86.844" height="134.385" transform="translate(342.993 355.029)" fill="#e35062"/>
      <rect id="Retângulo_1561" data-name="Retângulo 1561" width="86.844" height="8.243" transform="translate(342.993 355.029)" fill="#c0485c" opacity="0.81"/>
      <rect id="Retângulo_1562" data-name="Retângulo 1562" width="99.523" height="20.918" transform="translate(336.653 334.746)" fill="#e35062"/>
      <text id="_3" data-name="#3" transform="translate(356.624 438.219)" fill="#fff" font-size="50" font-family="Lato-Bold, Lato" font-weight="700"><tspan x="0" y="0">#3</tspan></text>
      <text id="_3-2" data-name="#3" transform="translate(358.409 439.407)" fill="none" stroke="#1b0c2d" stroke-miterlimit="10" stroke-width="2" font-size="50" font-family="Lato-Bold, Lato" font-weight="700"><tspan x="0" y="0">#3</tspan></text>
      <path id="Caminho_1343" data-name="Caminho 1343" d="M175.354,416.538l-32.845.1a4.445,4.445,0,0,1-4.458-4.424l-.211-66.746a4.445,4.445,0,0,1,4.428-4.453l32.845-.106a4.445,4.445,0,0,1,4.453,4.428l.211,66.742A4.445,4.445,0,0,1,175.354,416.538Z" transform="translate(-38.081 -130.014)" fill="#727272"/>
      <path id="Caminho_1344" data-name="Caminho 1344" d="M178.18,349.807h-5.215a1.307,1.307,0,1,1,0-2.609h5.215a1.307,1.307,0,0,1,0,2.609Z" transform="translate(-57.554 -133.641)" fill="#444b61"/>
      <path id="Caminho_1345" data-name="Caminho 1345" d="M195.848,349.767h-1.3a1.307,1.307,0,1,1,0-2.609h1.3a1.307,1.307,0,0,1,0,2.609Z" transform="translate(-70.007 -133.618)" fill="#444b61"/>
      <rect id="Retângulo_1563" data-name="Retângulo 1563" width="41.726" height="54.765" transform="translate(99.767 218.841) rotate(-0.18)" fill="#3f92cc"/>
      <path id="Caminho_1346" data-name="Caminho 1346" d="M179.629,412.2l-32.845.106a4.441,4.441,0,0,1-4.453-4.428l-.211-66.742a4.445,4.445,0,0,1,4.424-4.458l32.845-.1a4.441,4.441,0,0,1,4.453,4.407l.211,66.746a4.437,4.437,0,0,1-4.424,4.47Z" transform="translate(-40.551 -127.516)" fill="none" stroke="#1b0c2d" stroke-miterlimit="10" stroke-width="1"/>
      <rect id="Retângulo_1564" data-name="Retângulo 1564" width="36.118" height="8.37" transform="translate(104.604 273.709) rotate(-0.18)" fill="#727272"/>
      <circle id="Elipse_477" data-name="Elipse 477" cx="3.912" cy="3.912" r="3.912" transform="translate(116.718 276.145)" fill="#504f4f"/>
      <rect id="Retângulo_1565" data-name="Retângulo 1565" width="86.844" height="172.419" transform="translate(78.19 316.995)" fill="#3f92cc"/>
      <rect id="Retângulo_1566" data-name="Retângulo 1566" width="86.844" height="8.243" transform="translate(78.19 316.995)" fill="#2e739c"/>
      <rect id="Retângulo_1567" data-name="Retângulo 1567" width="99.523" height="20.918" transform="translate(71.85 296.712)" fill="#3f92cc"/>
      <text id="_2" data-name="#2" transform="translate(92.138 400.185)" fill="#fff" font-size="50" font-family="Lato-Bold, Lato" font-weight="700"><tspan x="0" y="0">#2</tspan></text>
      <text id="_2-2" data-name="#2" transform="translate(93.923 401.454)" fill="none" stroke="#1b0c2d" stroke-miterlimit="10" stroke-width="2" font-size="50" font-family="Lato-Bold, Lato" font-weight="700"><tspan x="0" y="0">#2</tspan></text>
    </g>
  </g>
</svg>
