<svg xmlns="http://www.w3.org/2000/svg" xmlns:xlink="http://www.w3.org/1999/xlink" width="625.659" height="593.899" viewBox="0 0 625.659 593.899">
  <defs>
    <linearGradient id="linear-gradient" x1="6.112" y1="0.59" x2="7.152" y2="0.59" gradientUnits="objectBoundingBox">
      <stop offset="0" stop-color="#502e25"/>
      <stop offset="1" stop-color="#201310"/>
    </linearGradient>
    <linearGradient id="linear-gradient-2" x1="0.328" y1="0.349" x2="0.787" y2="0.76" xlink:href="#linear-gradient"/>
    <clipPath id="clip-path">
      <path id="Caminho_1230" data-name="Caminho 1230" d="M93.557,89.886c-1.92,4.364,4.015,13.616,10.3,16.409s9.426.175,11.347-4.19,1.746-8.554-4.364-11.347S95.477,85.7,93.557,89.886Z" transform="translate(-93.19 -87.578)"/>
    </clipPath>
  </defs>
  <g id="Grupo_566" data-name="Grupo 566" transform="translate(-22.456 -94.034)">
    <g id="Grupo_402" data-name="Grupo 402" transform="translate(8 20)">
      <g id="Grupo_262" data-name="Grupo 262" transform="translate(4 43.473)">
        <path id="Caminho_482" data-name="Caminho 482" d="M516.152,310.247c0,142.782-207.048,159.582-349.83,159.582S-72.347,0,70.436,0,516.152,167.455,516.152,310.247Z" transform="translate(636.115 482.189) rotate(164)" fill="#eabf34" opacity="0.2"/>
        <path id="Caminho_699" data-name="Caminho 699" d="M200.789,91.162c-24.062,51.221-68.882,20.906-118.294,20.906S0,131.9,0,82.495,110.908,0,160.32,0,224.851,39.941,200.789,91.162Z" transform="matrix(-0.921, -0.391, 0.391, -0.921, 221.241, 296.102)" fill="#1b0c2d" opacity="0.1"/>
        <path id="Caminho_531" data-name="Caminho 531" d="M31.028,44.607a4.214,4.214,0,0,1-2.6,2.308,4.332,4.332,0,0,1-5.876-3.34L19.08,29.863,6.62,36.274a4.725,4.725,0,0,1-2.016.583,4.243,4.243,0,0,1-1.977-.378,4.537,4.537,0,0,1-2.2-2.308,3.52,3.52,0,0,1-.142-3.08A4.348,4.348,0,0,1,2.47,29l14.579-7.152L12.882,5.384a4.127,4.127,0,0,1,.236-2.82A4.182,4.182,0,0,1,15.67.272,4.474,4.474,0,0,1,21.593,3.6l3.56,14.075,12.31-6.64a4.206,4.206,0,0,1,4.064-.331,4.072,4.072,0,0,1,2.213,2.363,3.8,3.8,0,0,1-.047,3.025,4.411,4.411,0,0,1-2.142,2.2L27.1,25.35l4.166,16.469A4.127,4.127,0,0,1,31.028,44.607Z" transform="translate(283.401 60.056) rotate(49)" fill="none" stroke="#1c0a2d" stroke-miterlimit="10" stroke-width="2"/>
        <path id="Caminho_698" data-name="Caminho 698" d="M143.119,642.9a5.487,5.487,0,0,1-3.385,3.005,5.641,5.641,0,0,1-7.651-4.349L127.561,623.7l-16.225,8.348a6.153,6.153,0,0,1-2.626.759,5.527,5.527,0,0,1-2.574-.492,5.908,5.908,0,0,1-2.861-3.005,4.584,4.584,0,0,1-.185-4.01,5.662,5.662,0,0,1,2.841-2.718l18.984-9.313-5.426-21.446a5.374,5.374,0,0,1,.308-3.672,5.446,5.446,0,0,1,3.323-2.985,5.825,5.825,0,0,1,7.713,4.328l4.636,18.328,16.03-8.646a5.476,5.476,0,0,1,5.292-.431,5.3,5.3,0,0,1,2.882,3.077,4.944,4.944,0,0,1-.062,3.939,5.744,5.744,0,0,1-2.79,2.861l-18.82,9.2,5.426,21.446A5.374,5.374,0,0,1,143.119,642.9Z" transform="translate(-41.621 -235.118)" fill="none" stroke="#dfa330" stroke-miterlimit="10" stroke-width="2"/>
        <g id="Grupo_260" data-name="Grupo 260" transform="translate(54.838 460.965)">
          <circle id="Elipse_317" data-name="Elipse 317" cx="23.763" cy="23.763" r="23.763" transform="translate(0 0)" fill="#1b0c2d"/>
          <circle id="Elipse_318" data-name="Elipse 318" cx="23.763" cy="23.763" r="23.763" transform="translate(4.018 4.036)" fill="none" stroke="#dfa330" stroke-miterlimit="10" stroke-width="2"/>
        </g>
        <g id="Grupo_395" data-name="Grupo 395" transform="translate(373.838 60.161)">
          <circle id="Elipse_317-2" data-name="Elipse 317" cx="17.221" cy="17.221" r="17.221" transform="translate(0 0)" fill="#1b0c2d"/>
          <circle id="Elipse_318-2" data-name="Elipse 318" cx="17.221" cy="17.221" r="17.221" transform="translate(2.911 2.925)" fill="none" stroke="#dfa330" stroke-miterlimit="10" stroke-width="2"/>
        </g>
      </g>
      <g id="sessao2-tela1-1" transform="translate(277.363 157.74)">
        <g id="Grupo_386" data-name="Grupo 386" transform="translate(90.455 325.473)">
          <path id="Caminho_1213" data-name="Caminho 1213" d="M67.157,193.446c2.095,30.723-9.077,79.427-2.968,104.215,2.095-.175,4.015-.349,6.11-.524,2.618-33.516,20.075-70.35,23.217-105.437Z" transform="translate(-62.341 -191.7)" fill="#d99156"/>
          <path id="Caminho_1214" data-name="Caminho 1214" d="M70.655,253.7l10.125,2.968,8.728-1.047.349,1.92-9.252,3.142H62.8l1.222-6.284Z" transform="translate(-61.999 -145.47)" fill="#1c1423"/>
        </g>
        <g id="ROUPA_11_" transform="translate(43.426 177.966)">
          <path id="Caminho_1215" data-name="Caminho 1215" d="M118.549,174.407C123.612,197.275,86.6,298,85.731,303.76c-8.9-.873-16.06-2.444-25.137-3.317,0-8.554-14.663-116.609-1.571-143.143Z" transform="translate(-21.84 -69.843)" fill="#dde3e8"/>
          <g id="FRENTE_11_">
            <path id="Caminho_1216" data-name="Caminho 1216" d="M71.1,107.2Z" transform="translate(-8.78 -107.2)" fill="#f3a51c"/>
            <path id="Caminho_1217" data-name="Caminho 1217" d="M101.909,107.4c6.459.7,16.933,9.252,16.933,9.426.175.524,18.329,102.819,23.217,141.921-27.756,8.379-85.188-6.633-106.659-19.9C49.54,207.426,99.989,107.226,101.909,107.4Z" transform="translate(-35.4 -107.051)" fill="#f3a51c"/>
          </g>
        </g>
        <g id="ESQUERDA_18_" transform="translate(160.966 227)">
          <g id="Grupo_389" data-name="Grupo 389">
            <g id="Grupo_388" data-name="Grupo 388">
              <path id="Caminho_1218" data-name="Caminho 1218" d="M103.9,154.309a72.985,72.985,0,0,0,8.9-1.746,112.615,112.615,0,0,0,10.823-3.666c3.84-1.571,7.506-3.84,11.7-4.189,3.666-.349,5.237,4.015,3.142,6.633-4.888,5.935-15.711,8.379-22.693,10.474-3.142.873-6.459,1.746-9.776,2.444C103.2,161.99,101.453,157.1,103.9,154.309Z" transform="translate(-102.733 -128.28)" fill="#d99156"/>
              <g id="Grupo_387" data-name="Grupo 387" transform="translate(25.033)">
                <path id="Caminho_1219" data-name="Caminho 1219" d="M148.541,137.4a4.338,4.338,0,0,1,1.4-.175,1.945,1.945,0,0,1,1.047,2.444,5.354,5.354,0,0,1-1.571,2.444c-3.142,3.142-11.172,5.411-10.125,7.681.7,1.571,5.586.175,8.728-.524a17.588,17.588,0,0,1,4.364-.524,2.142,2.142,0,0,1,.524,4.19c-3.142.7-8.554.7-11.521,1.92a.909.909,0,0,0,0,1.746l8.554,2.968c1.222.524,2.793,1.571,2.269,2.793-.349,1.047-1.92,1.047-2.968.873a29.784,29.784,0,0,1-6.633-2.269c-1.047-.524-2.618-1.222-3.491-.349-1.047.873-.7,2.618.175,3.666s2.095,1.746,2.793,2.968.175,3.142-1.222,3.142a3.237,3.237,0,0,1-1.222-.349c-2.968-1.746-4.539-6.11-8.03-6.11-2.444,0-4.713,2.444-6.983,1.746-1.92-.524-2.444-2.618-2.968-4.364a7.588,7.588,0,0,0-2.444-3.666c-1.4-1.047-2.095-1.746-2.095-3.666,0-1.746-.349-4.19.873-5.586,1.222-1.222,3.84-1.222,5.062-2.444,1.571-1.571.524-3.142-.349-5.237a5.583,5.583,0,0,1-.873-3.317,2.369,2.369,0,0,1,2.618-2.095,8.513,8.513,0,0,1,1.92.7c4.015,1.92,2.793,5.237,2.968,9.776C135.8,145.084,142.082,139.323,148.541,137.4Z" transform="translate(-117.074 -135.289)" fill="#d99156"/>
              </g>
            </g>
          </g>
        </g>
        <circle id="Elipse_436" data-name="Elipse 436" cx="9.252" cy="9.252" r="9.252" transform="translate(101.032 48.09)" fill="#419c6c" stroke="#000" stroke-miterlimit="10" stroke-width="0.5"/>
        <circle id="Elipse_437" data-name="Elipse 437" cx="9.252" cy="9.252" r="9.252" transform="translate(111.506 53.327)" fill="#1c1423"/>
        <path id="Caminho_1220" data-name="Caminho 1220" d="M80.848,36.218c0,.7-1.746-.349-4.713-.349-2.095,0-5.935,2.269-5.935,1.571s1.4-3.666,5.761-3.84C79.626,33.775,80.848,35.52,80.848,36.218Z" transform="translate(33.974 15.887)" fill="#acc783"/>
        <path id="Caminho_1221" data-name="Caminho 1221" d="M88.8,42.551c-.175.873-1.746-1.222-4.713-2.444-2.095-.873-7.157.524-6.983-.349s3.142-4.19,7.681-2.444C88.449,38.71,88.972,41.678,88.8,42.551Z" transform="translate(39.117 18.283)" fill="#54475f"/>
        <path id="Caminho_1222" data-name="Caminho 1222" d="M150.915,121.314c3.317-9.6-4.713-44.689-3.491-54.639,4.015-32.993-16.06-21.122-43.292-25.312-20.249-3.142-32.993,0-47.656,16.584C39.891,76.626,37.1,96.875,45.3,119.918c.873,2.618,16.235,15.362,18.329,17.282s6.11-1.047,8.554-2.269Z" transform="translate(12.088 20.866)" fill="url(#linear-gradient)"/>
        <path id="Caminho_1223" data-name="Caminho 1223" d="M101.207,20.16c4.19.524,8.728,2.269,10.125,6.11,1.571,3.84-2.095,9.776-6.284,8.9,4.888-.873,10.125-.7,14.14,1.4a11.129,11.129,0,0,1,5.935,11.7c-1.047,4.888-6.459,9.077-11,7.855,4.713,1.571,9.077,4.015,11.87,7.855a13.673,13.673,0,0,1,1.222,14.14c-2.444,4.713-8.554,7.681-13.092,5.761,3.142,3.491,5.586,8.554,3.317,13.267-1.92,4.19-13.267,4.19-13.267,4.19s-11.347,14.14-17.456,3.142c-2.968,12.918-12.394,12.569-20.075,8.9-4.19-1.92-8.728-6.983-5.761-10.823-4.539,1.92-7.506,3.491-12.394,3.666-4.713.349-7.681-4.015-9.776-7.855S40.458,85.971,45,84.05c-6.633,3.317-15.013,1.222-18.155-4.713s-.7-14.489,5.412-18.678c-6.808-4.015-9.6-13.267-6.11-21.122a11.981,11.981,0,0,1,5.237-6.11c4.364-1.92,8.728.524,12.394,2.793C41.331,31.681,43.6,24.7,48.663,21.731c5.062-2.793,11.87-1.222,14.14,3.491,2.968-3.84,6.11-7.855,10.3-10.474s9.776-3.491,13.441-.873,3.666,9.252-.524,11.7C88.813,21.032,95.8,19.636,101.207,20.16Z" transform="translate(0)" fill="url(#linear-gradient-2)"/>
        <path id="PESCOÇO_13_" d="M84.47,105.891c0-3.317-7.855-4.888-10.474-1.92-.7,6.633-.7,5.237-1.4,11.87a81.519,81.519,0,0,0,12.22.349S84.47,111.3,84.47,105.891Z" transform="translate(35.764 67.187)" fill="#915b23"/>
        <path id="Caminho_1224" data-name="Caminho 1224" d="M51.743,124.777c2.618-2.444,7.157-2.968,9.077.175.175.349,1.222,2.444,1.571,2.269a13.078,13.078,0,0,1,2.793-.7c-.175,0,12.394-4.364,15.187-13.441.873-2.968,6.11-12.045,9.077-13.092,17.631-6.11,12.045-16.409,10.823-23.043,11.87-24.439,35.786-43.117,49.926-4.015.175.349-4.888,22.868,4.364,28.1,8.379,4.713.524,38.928-29.152,42.245-14.314,1.571-51.5-.873-60.225-8.03-.349-.349-.873-.175-1.047.349a9.968,9.968,0,0,1-2.269,3.666l-.524.524c-3.666,2.444-11-.349-12.743-4.539C47.2,131.41,49.124,127.22,51.743,124.777Z" transform="translate(17.519 28.401)" fill="#ba7b43"/>
        <path id="Caminho_1225" data-name="Caminho 1225" d="M98.53,71.168c-1.4,3.317-1.4,7.157-1.047,11.172.349,2.793,5.586,4.19,6.633,1.571,1.746-3.84,1.92-9.426,1.222-12.918C104.815,67.5,100.276,66.979,98.53,71.168Z" transform="translate(54.173 41.685)" fill="#201f20"/>
        <path id="Caminho_1226" data-name="Caminho 1226" d="M96.946,71.305a1.377,1.377,0,0,1,1.222-2.444c2.793.873,5.237,1.571,8.03.175,2.269-1.047,3.317-3.317,4.713-5.237a1.631,1.631,0,0,1,2.968,1.047C113.879,72.876,102.183,76.018,96.946,71.305Z" transform="translate(53.488 37.882)" fill="#201f20"/>
        <path id="Caminho_1227" data-name="Caminho 1227" d="M52.4,94.478c2.269-1.571,4.713-.873,6.808.7a1.248,1.248,0,0,1-.349,2.095,2,2,0,0,0-1.222,2.618c.7,1.4,2.095.873,3.142.524a.865.865,0,0,1,1.047,1.047c-.873,2.618-4.888,2.095-6.284.175a4.442,4.442,0,0,1,.349-5.411,3.029,3.029,0,0,0-2.444.524c-.873.7-.873,2.095-1.047,3.317a.823.823,0,0,1-1.571.175A4.373,4.373,0,0,1,52.4,94.478Z" transform="translate(19.133 60.62)" fill="#915b23"/>
        <path id="VENTA_11_" d="M119.81,82.752c1.222-3.142-6.808-5.935-7.681-5.761h0c.524-.175.349-.175,0,0-2.793-.873-5.935,1.047-6.983,3.666-1.047,2.793.349,6.808,3.491,7.681A9.082,9.082,0,0,0,119.81,82.752Z" transform="translate(59.776 48.082)" fill="#774928"/>
        <path id="DIREITO_15_" d="M87.224,113.4c-.873-3.142,12.045,41.721,15.711,45.561,21.646,22.693,22.868,18.5,38.055,14.663,2.618,6.459-8.379,44.863-8.379,44.863A323.815,323.815,0,0,0,96.3,193.174c-18.329-11-20.424-17.631-24.09-27.058-1.047-2.793-5.935-20.6,2.444-53.417Z" transform="translate(33.708 74.867)" fill="#f3be61"/>
        <path id="GOLA_11_" d="M92.744,116.354c0,2.618-2.444,0-10.125,0s-12.22-.524-12.22-2.968c0-1.047,3.142-3.666,4.015-5.062.349-.524-.873,2.793.873,3.142,2.444.524,7.332.175,11,.175C89.428,111.815,92.744,115.306,92.744,116.354Z" transform="translate(34.123 71.562)" fill="#1c1423"/>
        <g id="Grupo_391" data-name="Grupo 391" transform="translate(144.306 143.714)">
          <path id="Caminho_1228" data-name="Caminho 1228" d="M93.557,89.886c-1.92,4.364,4.015,13.616,10.3,16.409s9.426.175,11.347-4.19,1.746-8.554-4.364-11.347S95.477,85.7,93.557,89.886Z" transform="translate(-93.19 -87.578)" fill="#c64832"/>
          <g id="Grupo_390" data-name="Grupo 390" clip-path="url(#clip-path)">
            <path id="Caminho_1229" data-name="Caminho 1229" d="M94.921,87.422c1.92-4.539,13.441-6.459,19.9-3.666s6.808,7.332,4.888,11.87-5.237,7.506-11.87,4.713S93,91.961,94.921,87.422Z" transform="translate(-92.11 -91.399)" fill="#fff"/>
          </g>
        </g>
      </g>
      <g id="Grupo_393" data-name="Grupo 393" transform="translate(-13 -74)">
        <path id="Caminho_551" data-name="Caminho 551" d="M100.3,420.94,94.1,422.486s-1.9,6.194,1.989,10.248l5.893-1.126Z" transform="translate(-22.632 -74.732)" fill="#1b0d20"/>
        <path id="Caminho_552" data-name="Caminho 552" d="M159.208,444.77l.878,4.122-21.028,3.859-.908-3.6Z" transform="translate(-33.729 -80.671)" fill="#b5b5b4"/>
        <path id="Caminho_553" data-name="Caminho 553" d="M142.49,456.966,160,453.46s4.182,20.458,12.83,37.177l-16.584,5.931" transform="translate(-34.811 -82.838)" fill="#d1d5d5"/>
        <path id="Caminho_555" data-name="Caminho 555" d="M204.926,326.86s-24.91,32.95-39.519,41.291-27.777,7.124-27.777,7.124l7.38,43.663s13.3-4.775,23-3.754,22.965,4.5,57.807,27.515Z" transform="translate(-33.599 -51.281)" fill="#d1d5d5"/>
        <path id="Caminho_556" data-name="Caminho 556" d="M128.56,391.32s-29.834-.631-26.974,25.525,34.354,18.108,34.354,18.108Z" transform="translate(-24.567 -67.348)" fill="#f3a51c"/>
        <path id="Caminho_557" data-name="Caminho 557" d="M138.106,378.488l-.526-3.243s13.213,1.194,27.777-7.125,39.519-41.291,39.519-41.291l.916,5.1s-15.2,18.438-19.076,23.22c-4.309,5.323-12.064,13.453-22.312,18.243C160.478,375.268,150.41,378.376,138.106,378.488Z" transform="translate(-33.587 -51.274)" fill="#e3e5e7"/>
        <path id="Caminho_558" data-name="Caminho 558" d="M244.829,383.279c5.555,32.064,6.8,58.618,2.778,59.308s-11.787-24.729-17.342-56.793-6.794-58.625-2.778-59.308S239.3,351.215,244.829,383.279Z" transform="translate(-55.409 -51.184)" fill="#b5b5b4"/>
        <path id="Caminho_559" data-name="Caminho 559" d="M249.349,417.552c1.194,14.782.683,24.624-1.742,25.045-4.024.7-11.787-24.729-17.342-56.793s-6.794-58.625-2.778-59.308c1.644-.285,3.9,3.754,6.389,10.863,0,0-2.763-5.255-4.94-4.467s2.252,42.154,4.722,53.167,9.009,48.047,12.567,49.151S249.349,417.552,249.349,417.552Z" transform="translate(-55.41 -51.187)" fill="#d1d5d5"/>
        <path id="Caminho_560" data-name="Caminho 560" d="M238.708,415.475s13.243-4.016,10.653-16.907-15.9-11.757-15.9-11.757S235.464,401,238.708,415.475Z" transform="translate(-57.486 -66.218)" fill="#f3a51c"/>
        <path id="Caminho_561" data-name="Caminho 561" d="M130.03,394.555l-.548-3.236s-17.47-.368-24.392,11.186C105.09,402.506,111.546,392.836,130.03,394.555Z" transform="translate(-25.488 -67.348)" fill="#cc8616"/>
        <path id="Caminho_562" data-name="Caminho 562" d="M142.49,457.843l4.655-.863" transform="translate(-34.811 -83.715)" fill="#ba4a3f" opacity="0.37"/>
        <path id="Caminho_563" data-name="Caminho 563" d="M160.3,449.9l.683,2.673-21.246,4.219-.42-3Z" transform="translate(-34.021 -81.95)" fill="#e3e5e7"/>
        <path id="Caminho_564" data-name="Caminho 564" d="M222.652,441.438a2.136,2.136,0,0,0,.165-.255h0c.045-.09.1-.18.143-.278L223,440.8l.1-.248a.919.919,0,0,1,.053-.128l.135-.33a.9.9,0,0,0,.038-.135c.038-.113.068-.233.105-.353v-.09l.113-.5a.465.465,0,0,0,0-.053,2.976,2.976,0,0,1,.09-.48,1.166,1.166,0,0,0,0-.158,1.491,1.491,0,0,1,.068-.428,1.68,1.68,0,0,1,0-.173,3.441,3.441,0,0,1,.06-.465v-.165l.068-.6v-.06c0-.24.045-.48.068-.751v-.068c0-.218.038-.443.053-.668v-.2a3.188,3.188,0,0,1,.038-.593v-1.9h0V428.1c0-.7,0-1.411-.06-2.147v-.225a7,7,0,0,0-.038-.878v-.315a6.19,6.19,0,0,0-.038-.833v-.33l-.045-.908v-.27c-.045-.8-.1-1.607-.158-2.44v-.308l-.068-.938V418.1l-.068-.893v-.248h0c-.593-7.32-1.607-15.863-3-25.067a13.694,13.694,0,0,0,.946-8.934,14.264,14.264,0,0,0-3.754-7.447c-3-15.983-6.516-29.8-9.655-38.776h0v-.09l-.36-.991-.135-.39c-.12-.323-.24-.646-.36-.953l-.113-.278c-.1-.263-.2-.51-.293-.751l-.113-.278c-.12-.3-.24-.578-.353-.856-.045-.09-.083-.18-.12-.27-.12-.278-.24-.555-.36-.818a.975.975,0,0,0-.06-.128c-.105-.24-.21-.465-.323-.683l-.09-.2c-.12-.24-.24-.465-.353-.683l-.083-.165c-.113-.21-.225-.405-.33-.593a.309.309,0,0,1-.038-.068c-.12-.2-.233-.39-.353-.571,0-.045-.053-.083-.075-.12-.113-.18-.225-.338-.338-.5l-.06-.075c-.1-.135-.2-.263-.3-.383l-.053-.06-.315-.338-.068-.06a2.35,2.35,0,0,0-.315-.255h0a1.559,1.559,0,0,0-.285-.158h-.053a1.5,1.5,0,0,0-.285-.083h-.06a1.149,1.149,0,0,0-.278,0,4.1,4.1,0,0,0-.751.285s-1.554,2.065-4.122,5.255c-.315.405-.653.826-1.006,1.261s-.713.893-1.1,1.359l-1.171,1.449c-1.419,1.734-3,3.619-4.67,5.593-8.393,9.865-19.459,21.771-27.447,26.328a53.926,53.926,0,0,1-26.043,7.185c-1.141,0-1.779-.06-1.779-.06h-2.252l-.541.038h-.12l-.533.15h-.128l-.638.068h-.158l-.6.075h-.135l-.751.105H127.6l-.683.12h-.113l-.788.158-.21.038-.751.173h-.068l-.841.2-.225.06-.871.24H123l-.833.255-.233.075c-.293.09-.586.2-.886.3l-.105.038-.811.308-.225.09c-.293.113-.586.24-.886.368l-.143.068-.751.36-.218.105c-.293.143-.578.293-.871.45l-.173.1c-.248.135-.5.278-.751.428a1.694,1.694,0,0,0-.2.12c-.285.173-.563.353-.841.533l-.18.128c-.24.165-.473.338-.706.51l-.173.12c-.263.21-.526.42-.751.638l-.188.158-.668.6-.128.128c-.248.24-.488.48-.751.751-.053.068-.113.128-.173.2a9.189,9.189,0,0,0-.623.751c0,.038-.06.068-.083.105-.225.278-.435.563-.646.856l-.158.225q-.293.428-.563.878v.045h0a21.021,21.021,0,0,0-2.778,11.261l-5.368,1.366s-1.907,6.2,1.982,10.255l5.473-1.051c4.977,11.261,17.59,12.29,25.525,11.681l.863,3.408.39,2.763,2.065-.413,13.581,39.113-.886.323,1.306,4.092,18.528-7.072-1.5-3.641-.886.323c-7.928-15.435-12.072-33.941-12.642-36.606l1.7-.338-.608-2.4-.856-4.024a37.261,37.261,0,0,1,8.8-.173c9.512,1.029,22.522,4.377,55.915,26.276.683.863,1.306,1.284,1.862,1.224h.06a1.033,1.033,0,0,0,.2-.06h.06l.135-.083.068-.053a.525.525,0,0,0,.12-.105l.068-.06c.045-.045.083-.1.128-.15Z" transform="translate(-24.388 -51.049)" fill="none" stroke="#1b0d20" stroke-miterlimit="10" stroke-width="3"/>
      </g>
      <g id="Grupo_394" data-name="Grupo 394" transform="translate(-30 310)">
        <path id="Caminho_581" data-name="Caminho 581" d="M333.531,180.175l-2.748,15.938h4.3a4.85,4.85,0,0,1,4.947,4.94,4.256,4.256,0,0,1-1.419,3.3,5.06,5.06,0,0,1-3.528,1.276h-5.946l-1.832,10.811a4.677,4.677,0,0,1-1.5,2.838,4.429,4.429,0,0,1-3.063,1.1A4.677,4.677,0,0,1,319.214,219a4.91,4.91,0,0,1-1.329-3.566,5.561,5.561,0,0,1,.09-1.194l1.449-8.633H304.41l-1.832,10.811a4.429,4.429,0,0,1-1.562,2.883,4.707,4.707,0,0,1-3.108,1.051,4.5,4.5,0,0,1-3.438-1.419,5.075,5.075,0,0,1-1.329-3.619,4.459,4.459,0,0,1,.1-1.1l1.464-8.611h-3.3a4.85,4.85,0,0,1-4.947-4.94,4.257,4.257,0,0,1,1.419-3.3,5.082,5.082,0,0,1,3.528-1.276h4.94l2.748-15.938h-4.3a4.85,4.85,0,0,1-4.947-4.947,4.249,4.249,0,0,1,1.419-3.3,5.067,5.067,0,0,1,3.528-1.284h5.863l1.832-10.435a4.587,4.587,0,0,1,1.5-2.838,4.444,4.444,0,0,1,3.07-1.1,4.67,4.67,0,0,1,3.521,1.374,4.925,4.925,0,0,1,1.329,3.574,5.61,5.61,0,0,1-.09,1.194l-1.374,8.258h14.932l1.832-10.435a4.5,4.5,0,0,1,1.562-2.89,4.767,4.767,0,0,1,3.116-1.051,4.5,4.5,0,0,1,3.431,1.419,5.1,5.1,0,0,1,1.329,3.619,5.033,5.033,0,0,1-.09,1.1l-1.374,8.258h3.206a4.857,4.857,0,0,1,4.94,4.947,4.227,4.227,0,0,1-1.419,3.3,5.053,5.053,0,0,1-3.521,1.284Zm-12.455,15.938,2.748-15.938H308.809l-2.748,15.938Z" transform="translate(-70.696 -8.753)" fill="#f3a51c"/>
        <path id="Caminho_582" data-name="Caminho 582" d="M325.971,185.9l-2.748,15.931h4.309a4.857,4.857,0,0,1,4.94,4.947,4.227,4.227,0,0,1-1.419,3.3,5.053,5.053,0,0,1-3.521,1.284h-5.953l-1.832,10.811a4.677,4.677,0,0,1-1.5,2.838,4.452,4.452,0,0,1-3.063,1.1,4.685,4.685,0,0,1-3.529-1.374,4.917,4.917,0,0,1-1.329-3.573,5.479,5.479,0,0,1,.09-1.186l1.5-8.611H296.9l-1.832,10.811a4.459,4.459,0,0,1-1.607,2.9,4.782,4.782,0,0,1-3.116,1.051,4.5,4.5,0,0,1-3.438-1.419,5.09,5.09,0,0,1-1.329-3.619,4.413,4.413,0,0,1,.1-1.1l1.464-8.611h-3.3a4.85,4.85,0,0,1-4.947-4.947,4.249,4.249,0,0,1,1.419-3.3,5.068,5.068,0,0,1,3.528-1.284h4.94l2.748-15.931h-4.3a4.85,4.85,0,0,1-4.947-4.947,4.242,4.242,0,0,1,1.419-3.3,5.067,5.067,0,0,1,3.529-1.284H293.1l1.832-10.435a4.632,4.632,0,0,1,1.5-2.845,4.5,4.5,0,0,1,3.071-1.1,4.67,4.67,0,0,1,3.521,1.374,4.925,4.925,0,0,1,1.329,3.574,5.483,5.483,0,0,1-.09,1.186l-1.374,8.258H317.81l1.832-10.435a4.5,4.5,0,0,1,1.562-2.89,4.767,4.767,0,0,1,3.115-1.051,4.5,4.5,0,0,1,3.431,1.419,5.09,5.09,0,0,1,1.329,3.619,4.914,4.914,0,0,1-.09,1.1l-1.374,8.258h3.206a4.85,4.85,0,0,1,4.94,4.947,4.242,4.242,0,0,1-1.419,3.3,5.052,5.052,0,0,1-3.521,1.284Zm-12.462,15.931,2.748-15.931H301.241l-2.748,15.931Z" transform="translate(-68.812 -10.189)" fill="none" stroke="#1b0d20" stroke-miterlimit="10" stroke-width="2"/>
      </g>
      <g id="Grupo_397" data-name="Grupo 397" transform="translate(-318 196)">
        <path id="Caminho_584" data-name="Caminho 584" d="M822.658,147.008a5.8,5.8,0,0,1,2.537,3.709,5.533,5.533,0,0,1-2.59,6.066,5.3,5.3,0,0,1,2.342,3.408v.165a5.067,5.067,0,0,1-2.252,5.473,5.435,5.435,0,0,1,2.6,3.619l.105.488a5.03,5.03,0,0,1-3.574,6.119l-25.818,5.5s-6.914,1.5-8.566.105a11.426,11.426,0,0,0-3.941-1.794c-.6-.165-1.013-.248-1.013-.248l-7.883,1.719-5.833-27.4s6.892-1.937,10.668-5.09A8.332,8.332,0,0,0,781.15,147c2.718-4.227,5.848-15.015,5.488-20.21s-2.395-8.431-2.357-11.088,8.258-6.4,13.776,6.667a37.017,37.017,0,0,1,3.078,14.264,20.339,20.339,0,0,1-.083,2.3l16.907-3.6a5.39,5.39,0,0,1,3.251.323,6.622,6.622,0,0,1,3.821,4.752,6.479,6.479,0,0,1-2.372,6.6Z" transform="translate(-190.918 2.004)" fill="#f8c798"/>
        <path id="Caminho_585" data-name="Caminho 585" d="M770.088,161.465l6.757,31.854a2.725,2.725,0,0,1-2.094,3.236l-21.374,4.564a2.725,2.725,0,0,1-3.3-2.568l-.593-16.043-.638-17a2.733,2.733,0,0,1,2.162-2.763l15.848-3.378a2.718,2.718,0,0,1,3.228,2.095Z" transform="translate(-185.952 -9.517)" fill="#f3a51c"/>
        <path id="Caminho_586" data-name="Caminho 586" d="M750.16,200.92l.248,6.637a2.725,2.725,0,0,0,3.3,2.568l21.4-4.557a2.725,2.725,0,0,0,2.095-3.236l-1.456-6.862Z" transform="translate(-186.279 -18.531)" fill="#1a4a85" opacity="0.3"/>
        <circle id="Elipse_325" data-name="Elipse 325" cx="2.988" cy="2.988" r="2.988" transform="translate(569.527 179.289)" fill="#1a4a85" opacity="0.3"/>
        <circle id="Elipse_326" data-name="Elipse 326" cx="2.988" cy="2.988" r="2.988" transform="translate(568.701 179.162)" fill="#1b0d20"/>
        <path id="Caminho_587" data-name="Caminho 587" d="M830.367,140.4a6.621,6.621,0,0,0-3.821-4.752h0l-.375-.143h0l-.338-.1h-.105l-.285-.06h-.075l-.345-.053h-.5a2.765,2.765,0,0,0-.353,0h-.488l-.375.068-5.142,1.1L806.4,138.967a3.438,3.438,0,0,1,.037-.616,1.023,1.023,0,0,0,0-.345v-1.344h0a37.024,37.024,0,0,0-3.078-14.264c-4.625-10.983-11.186-10.09-13.183-7.943,2.575.751,5.578,3.206,8.033,9.009a35.592,35.592,0,0,1,3,16.584l.548,2.575,18.919-4.069a3.814,3.814,0,0,1,4.5,2.853v.068a6.494,6.494,0,0,1-2.372,6.614,5.788,5.788,0,0,1,2.53,3.709,5.526,5.526,0,0,1-2.59,6.066,5.255,5.255,0,0,1,2.35,3.408v.165a5.06,5.06,0,0,1-2.252,5.473,5.443,5.443,0,0,1,2.6,3.619l.105.488a5.03,5.03,0,0,1-3.574,6.119l5.218-1.044a5.03,5.03,0,0,0,3.574-6.119l-.105-.488a5.435,5.435,0,0,0-2.6-3.619,5.068,5.068,0,0,0,2.252-5.473v-.165a5.3,5.3,0,0,0-2.342-3.408,5.533,5.533,0,0,0,2.59-6.066,5.8,5.8,0,0,0-2.537-3.709A6.479,6.479,0,0,0,830.367,140.4Z" transform="translate(-196.254 1.997)" fill="#f8c798" opacity="0.5"/>
        <path id="Caminho_588" data-name="Caminho 588" d="M817.4,174.417l-.1-.488a5.45,5.45,0,0,0-2.6-3.619,5.068,5.068,0,0,0,2.252-5.473l-.038-.173a5.308,5.308,0,0,0-2.342-3.4,5.541,5.541,0,0,0,2.59-6.073,5.834,5.834,0,0,0-2.538-3.709,6.629,6.629,0,0,0,2.095-7.552,6.546,6.546,0,0,0-3.543-3.814h0l-.375-.143h0l-.338-.105h-.105a1.424,1.424,0,0,1-.285-.068h-.075a2.718,2.718,0,0,0-.345-.045H810.31l-.375.06-16.907,3.6V142.4a1.294,1.294,0,0,0,0-.173v-1.1a37.016,37.016,0,0,0-3.078-14.264c-.158-.383-.323-.751-.488-1.1l-.158-.33c-.113-.233-.225-.465-.345-.683s-.12-.24-.188-.36-.218-.4-.323-.586-.135-.225-.2-.338l-.345-.556-.18-.278c-.143-.218-.293-.428-.443-.631l-.083-.12c-.18-.24-.353-.465-.533-.683-.052-.06-.105-.113-.15-.173l-.39-.443-.2-.2c-.113-.12-.233-.233-.345-.345l-.21-.2-.353-.308-.188-.158-.405-.308-.128-.1-.533-.345-.12-.06c-.135-.083-.278-.158-.413-.225l-.18-.09-.345-.15-.2-.075-.33-.12-.18-.06-.353-.09h-.15a3.753,3.753,0,0,0-.48-.083h-.075a3.75,3.75,0,0,0-.4,0h-1.074l-.263.045h-.158l-.308.075h-.083l-.36.12-.082.008a1.27,1.27,0,0,0-.21.09l-.143.068-.173.1-.135.083a1.23,1.23,0,0,0-.165.105l-.12.083-.158.128-.09.083a2.69,2.69,0,0,0-.21.2,3.9,3.9,0,0,0-.593,1.276c-.038,2.658,2,5.863,2.357,11.081s-2.77,15.991-5.488,20.21a8.5,8.5,0,0,1-1.7,1.854,20.817,20.817,0,0,1-4.084,2.538l-.3-1.419a2.725,2.725,0,0,0-3.236-2.095l-15.848,3.371a2.725,2.725,0,0,0-2.155,2.77l.631,17,.593,16.043a2.733,2.733,0,0,0,2.087,2.553,3.129,3.129,0,0,0,.593.075,3.491,3.491,0,0,0,.615-.06l21.4-4.565a3.058,3.058,0,0,0,.525-.165,2.718,2.718,0,0,0,1.629-2.515,2.337,2.337,0,0,0-.06-.556l-.413-1.937,1.1-.24s.413.083,1.013.255a11.261,11.261,0,0,1,3.941,1.794c1.652,1.389,8.566-.105,8.566-.105l25.818-5.5A4.993,4.993,0,0,0,817.4,174.417Z" transform="translate(-185.184 0.864)" fill="none" stroke="#1b0d20" stroke-miterlimit="10" stroke-width="2"/>
      </g>
    </g>
  </g>
</svg>
