<svg xmlns="http://www.w3.org/2000/svg" xmlns:xlink="http://www.w3.org/1999/xlink" width="218" height="218" viewBox="0 0 218 218">
  <defs>
    <filter id="Retângulo_1587" x="0" y="0" width="218" height="218" filterUnits="userSpaceOnUse">
      <feOffset dy="3" input="SourceAlpha"/>
      <feGaussianBlur stdDeviation="3" result="blur"/>
      <feFlood flood-opacity="0.161"/>
      <feComposite operator="in" in2="blur"/>
      <feComposite in="SourceGraphic"/>
    </filter>
    <clipPath id="clip-path">
      <rect id="Retângulo_1584" data-name="Retângulo 1584" width="200" height="200" fill="#fff"/>
    </clipPath>
  </defs>
  <g id="Grupo_588" data-name="Grupo 588" transform="translate(-790 -323)">
    <g id="Grupo_518" data-name="Grupo 518">
      <g id="Grupo_486" data-name="Grupo 486" transform="translate(0 -2)" opacity="0.5">
        <g id="Grupo_461" data-name="Grupo 461" transform="translate(108 47)">
          <g transform="matrix(1, 0, 0, 1, 682, 278)" filter="url(#Retângulo_1587)">
            <rect id="Retângulo_1587-2" data-name="Retângulo 1587" width="200" height="200" rx="10" transform="translate(9 6)" fill="#fff"/>
          </g>
        </g>
      </g>
      <g id="PERSONAGENS-08" transform="translate(839.24 360.533)" opacity="0.5">
        <rect id="Retângulo_1496" data-name="Retângulo 1496" width="7.817" height="12.598" rx="1.69" transform="translate(57.659 67.928)" fill="#e18f4c"/>
        <g id="_Group_" data-name="&lt;Group&gt;" transform="translate(49.67 118.93)">
          <rect id="Retângulo_1497" data-name="Retângulo 1497" width="19.597" height="19.597" fill="#99582a"/>
        </g>
        <g id="_Group_2" data-name="&lt;Group&gt;" transform="translate(106.989 60.712)">
          <path id="Caminho_398" data-name="Caminho 398" d="M242.577,134.36,236.82,160.3s8.346,1.075,12.417-11.608S242.577,134.36,242.577,134.36Z" transform="translate(-236.82 -134.36)" fill="#99582a"/>
        </g>
        <g id="_Group_3" data-name="&lt;Group&gt;" transform="translate(-0.038 60.712)">
          <path id="Caminho_399" data-name="Caminho 399" d="M.883,148.689C4.949,161.372,13.3,160.3,13.3,160.3L7.534,134.36S-3.184,136,.883,148.689Z" transform="translate(0.038 -134.36)" fill="#99582a"/>
        </g>
        <g id="_Group_4" data-name="&lt;Group&gt;" transform="translate(6.251)">
          <path id="Caminho_400" data-name="Caminho 400" d="M67.471,0A53.594,53.594,0,0,0,13.88,53.586c0,29.6,24,74.656,53.591,74.656,44.811,0,53.6-45.06,53.6-74.652A53.591,53.591,0,0,0,67.471,0Z" transform="translate(-13.88)" fill="#99582a"/>
        </g>
        <g id="_Group_5" data-name="&lt;Group&gt;" transform="translate(6.644 0.741)">
          <path id="Caminho_401" data-name="Caminho 401" d="M14.75,54.887c0,29.407,9.643,74.173,53.591,74.173V1.64A53.42,53.42,0,0,0,14.75,54.887Z" transform="translate(-14.75 -1.64)" fill="#99582a"/>
        </g>
        <g id="_Group_6" data-name="&lt;Group&gt;" transform="translate(59.444 99.717)">
          <path id="Caminho_402" data-name="Caminho 402" d="M145.716,220.68s6.819,13.556-14.116,10.822v20.171s24.685,9.584,22.358-28.015Z" transform="translate(-131.6 -220.68)" fill="#ebebec"/>
        </g>
        <g id="_Group_7" data-name="&lt;Group&gt;" transform="translate(45.481 138.412)">
          <path id="Caminho_403" data-name="Caminho 403" d="M100.7,306.431l2.666,11.789c13.339,5.174,22.476.045,22.476.045l2.937-11.834C120,306.174,100.7,306.431,100.7,306.431Z" transform="translate(-100.7 -306.317)" fill="#e0ac80"/>
        </g>
        <g id="_Group_8" data-name="&lt;Group&gt;" transform="translate(3.196 133.611)">
          <path id="Caminho_404" data-name="Caminho 404" d="M76.932,300.3V295.69H49.843V300.3C9.5,305.486,7.12,330.687,7.12,330.687h111.4C118.517,305.739,76.932,300.3,76.932,300.3Z" transform="translate(-7.12 -295.69)" fill="#9bc011"/>
        </g>
        <g id="_Group_9" data-name="&lt;Group&gt;" transform="translate(59.887 133.611)">
          <path id="Caminho_405" data-name="Caminho 405" d="M146.7,300.3V295.69H132.58v35h55.7C188.281,305.739,146.7,300.3,146.7,300.3Z" transform="translate(-132.58 -295.69)" fill="#9bc011"/>
        </g>
        <g id="_Group_10" data-name="&lt;Group&gt;" transform="translate(36.688 99.717)">
          <path id="Caminho_406" data-name="Caminho 406" d="M89.631,220.68l-8.242,2.964c-2.332,37.613,23.37,28.015,23.37,28.015V231.5C83.842,234.222,89.631,220.68,89.631,220.68Z" transform="translate(-81.239 -220.68)" fill="#ebebec"/>
        </g>
        <g id="_Group_11" data-name="&lt;Group&gt;" transform="translate(37.556 90.942)">
          <path id="Caminho_407" data-name="Caminho 407" d="M93.81,202.784c-6.326,4.817-4.695,5.824-10.65,10.65,0,0,8.215-.452,22.363-7.352C105.523,206.082,100.141,197.981,93.81,202.784Z" transform="translate(-83.16 -201.262)" fill="#ebebec"/>
        </g>
        <g id="_Group_12" data-name="&lt;Group&gt;" transform="translate(69.272 3.534)">
          <path id="Caminho_408" data-name="Caminho 408" d="M153.35,7.82v8.45s24.577,9.8,27.957,30.08l9.76-4.388S177.448,9.88,153.35,7.82Z" transform="translate(-153.35 -7.82)" fill="#99582a"/>
        </g>
        <g id="_Group_13" data-name="&lt;Group&gt;" transform="translate(59.521 90.503)">
          <path id="Caminho_409" data-name="Caminho 409" d="M143.487,201.817c-6.326-4.817-11.717,3.3-11.717,3.3,14.148,6.9,22.363,7.352,22.363,7.352C148.177,207.642,149.822,206.634,143.487,201.817Z" transform="translate(-131.77 -200.29)" fill="#ebebec"/>
        </g>
        <g id="BOCA" transform="translate(70.081 41.433)">
          <path id="Caminho_410" data-name="Caminho 410" d="M155.624,94.322a1.412,1.412,0,0,0,1.627,2.286c2.964-1.125,5.58-1.807,8.757-.8,2.567.818,3.832,2.969,5.531,4.659,1.256,1.247,3.425.307,3.244-1.3C173.942,91.656,161,89.369,155.624,94.322Z" transform="translate(-155.14 -91.693)" fill="#ebebec"/>
        </g>
        <path id="Caminho_411" data-name="Caminho 411" d="M72.828,98.576a1.545,1.545,0,0,0,2.77,1.148c1.807-2.363,3.579-4.189,6.873-4.858,2.657-.538,5.038.669,7.5,1.279,1.807.452,3.068-1.378,1.934-2.648C86.61,87.587,74.315,91.848,72.828,98.576Z" transform="translate(-39.922 -49.712)" fill="#ebebec"/>
        <ellipse id="Elipse_292" data-name="Elipse 292" cx="4.559" cy="4.451" rx="4.559" ry="4.451" transform="translate(40.538 51.313)" fill="#010001"/>
        <ellipse id="Elipse_293" data-name="Elipse 293" cx="4.559" cy="4.451" rx="4.559" ry="4.451" transform="translate(71.599 50.88)" fill="#010001"/>
        <rect id="Retângulo_1498" data-name="Retângulo 1498" width="7.817" height="12.598" rx="3.909" transform="translate(56.575 69.519)" fill="#663e1f"/>
        <path id="Caminho_412" data-name="Caminho 412" d="M131.207,221.16a9.037,9.037,0,0,1-1,4.139h-12.77a9.037,9.037,0,0,1-1-4.139Z" transform="translate(-63.846 -121.226)" fill="#fffefe"/>
        <path id="Caminho_413" data-name="Caminho 413" d="M131.42,230.32a6.994,6.994,0,0,1-12.77,0Z" transform="translate(-65.058 -126.247)" fill="#030202"/>
      </g>
    </g>
  </g>
</svg>
