<svg xmlns="http://www.w3.org/2000/svg" width="983.91" height="422.058" viewBox="0 0 983.91 422.058">
  <g id="Grupo_574" data-name="Grupo 574" transform="translate(-158.288 -212.713)">
    <g id="Grupo_402" data-name="Grupo 402" transform="translate(8 20)">
      <g id="Grupo_262" data-name="Grupo 262" transform="translate(264 77.473)">
        <path id="Caminho_699" data-name="Caminho 699" d="M200.789,91.162c-24.062,51.221-68.882,20.906-118.294,20.906S0,131.9,0,82.495,110.908,0,160.32,0,224.851,39.941,200.789,91.162Z" transform="translate(760.355 450.853) rotate(163)" fill="#1b0c2d" opacity="0.1"/>
        <path id="Caminho_531" data-name="Caminho 531" d="M31.028,44.607a4.214,4.214,0,0,1-2.6,2.308,4.332,4.332,0,0,1-5.876-3.34L19.08,29.863,6.62,36.274a4.725,4.725,0,0,1-2.016.583,4.243,4.243,0,0,1-1.977-.378,4.537,4.537,0,0,1-2.2-2.308,3.52,3.52,0,0,1-.142-3.08A4.348,4.348,0,0,1,2.47,29l14.579-7.152L12.882,5.384a4.127,4.127,0,0,1,.236-2.82A4.182,4.182,0,0,1,15.67.272,4.474,4.474,0,0,1,21.593,3.6l3.56,14.075,12.31-6.64a4.206,4.206,0,0,1,4.064-.331,4.072,4.072,0,0,1,2.213,2.363,3.8,3.8,0,0,1-.047,3.025,4.411,4.411,0,0,1-2.142,2.2L27.1,25.35l4.166,16.469A4.127,4.127,0,0,1,31.028,44.607Z" transform="translate(96.401 199.056) rotate(49)" fill="none" stroke="#1c0a2d" stroke-miterlimit="10" stroke-width="2"/>
        <path id="Caminho_698" data-name="Caminho 698" d="M143.119,642.9a5.487,5.487,0,0,1-3.385,3.005,5.641,5.641,0,0,1-7.651-4.349L127.561,623.7l-16.225,8.348a6.153,6.153,0,0,1-2.626.759,5.527,5.527,0,0,1-2.574-.492,5.908,5.908,0,0,1-2.861-3.005,4.584,4.584,0,0,1-.185-4.01,5.662,5.662,0,0,1,2.841-2.718l18.984-9.313-5.426-21.446a5.374,5.374,0,0,1,.308-3.672,5.446,5.446,0,0,1,3.323-2.985,5.825,5.825,0,0,1,7.713,4.328l4.636,18.328,16.03-8.646a5.476,5.476,0,0,1,5.292-.431,5.3,5.3,0,0,1,2.882,3.077,4.944,4.944,0,0,1-.062,3.939,5.744,5.744,0,0,1-2.79,2.861l-18.82,9.2,5.426,21.446A5.374,5.374,0,0,1,143.119,642.9Z" transform="translate(646.379 -149.118)" fill="none" stroke="#dfa330" stroke-miterlimit="10" stroke-width="2"/>
        <g id="Grupo_260" data-name="Grupo 260" transform="translate(77.045 394.161)">
          <circle id="Elipse_317" data-name="Elipse 317" cx="38.421" cy="38.421" r="38.421" transform="translate(0 0)" fill="#1b0c2d"/>
          <circle id="Elipse_318" data-name="Elipse 318" cx="38.421" cy="38.421" r="38.421" transform="translate(6.496 6.525)" fill="none" stroke="#dfa330" stroke-miterlimit="10" stroke-width="2"/>
        </g>
        <g id="Grupo_395" data-name="Grupo 395" transform="translate(820.838 306.161)">
          <circle id="Elipse_317-2" data-name="Elipse 317" cx="17.221" cy="17.221" r="17.221" transform="translate(0 0)" fill="#1b0c2d"/>
          <circle id="Elipse_318-2" data-name="Elipse 318" cx="17.221" cy="17.221" r="17.221" transform="translate(2.911 2.925)" fill="none" stroke="#dfa330" stroke-miterlimit="10" stroke-width="2"/>
        </g>
      </g>
      <g id="Grupo_393" data-name="Grupo 393" transform="matrix(0.809, 0.588, -0.588, 0.809, 336.312, -72.415)">
        <path id="Caminho_551" data-name="Caminho 551" d="M100.3,420.94,94.1,422.486s-1.9,6.194,1.989,10.248l5.893-1.126Z" transform="translate(-22.632 -74.732)" fill="#1b0d20"/>
        <path id="Caminho_552" data-name="Caminho 552" d="M159.208,444.77l.878,4.122-21.028,3.859-.908-3.6Z" transform="translate(-33.729 -80.671)" fill="#b5b5b4"/>
        <path id="Caminho_553" data-name="Caminho 553" d="M142.49,456.966,160,453.46s4.182,20.458,12.83,37.177l-16.584,5.931" transform="translate(-34.811 -82.838)" fill="#d1d5d5"/>
        <path id="Caminho_555" data-name="Caminho 555" d="M204.926,326.86s-24.91,32.95-39.519,41.291-27.777,7.124-27.777,7.124l7.38,43.663s13.3-4.775,23-3.754,22.965,4.5,57.807,27.515Z" transform="translate(-33.599 -51.281)" fill="#d1d5d5"/>
        <path id="Caminho_556" data-name="Caminho 556" d="M128.56,391.32s-29.834-.631-26.974,25.525,34.354,18.108,34.354,18.108Z" transform="translate(-24.567 -67.348)" fill="#f3a51c"/>
        <path id="Caminho_557" data-name="Caminho 557" d="M138.106,378.488l-.526-3.243s13.213,1.194,27.777-7.125,39.519-41.291,39.519-41.291l.916,5.1s-15.2,18.438-19.076,23.22c-4.309,5.323-12.064,13.453-22.312,18.243C160.478,375.268,150.41,378.376,138.106,378.488Z" transform="translate(-33.587 -51.274)" fill="#e3e5e7"/>
        <path id="Caminho_558" data-name="Caminho 558" d="M244.829,383.279c5.555,32.064,6.8,58.618,2.778,59.308s-11.787-24.729-17.342-56.793-6.794-58.625-2.778-59.308S239.3,351.215,244.829,383.279Z" transform="translate(-55.409 -51.184)" fill="#b5b5b4"/>
        <path id="Caminho_559" data-name="Caminho 559" d="M249.349,417.552c1.194,14.782.683,24.624-1.742,25.045-4.024.7-11.787-24.729-17.342-56.793s-6.794-58.625-2.778-59.308c1.644-.285,3.9,3.754,6.389,10.863,0,0-2.763-5.255-4.94-4.467s2.252,42.154,4.722,53.167,9.009,48.047,12.567,49.151S249.349,417.552,249.349,417.552Z" transform="translate(-55.41 -51.187)" fill="#d1d5d5"/>
        <path id="Caminho_560" data-name="Caminho 560" d="M238.708,415.475s13.243-4.016,10.653-16.907-15.9-11.757-15.9-11.757S235.464,401,238.708,415.475Z" transform="translate(-57.486 -66.218)" fill="#f3a51c"/>
        <path id="Caminho_561" data-name="Caminho 561" d="M130.03,394.555l-.548-3.236s-17.47-.368-24.392,11.186C105.09,402.506,111.546,392.836,130.03,394.555Z" transform="translate(-25.488 -67.348)" fill="#cc8616"/>
        <path id="Caminho_562" data-name="Caminho 562" d="M142.49,457.843l4.655-.863" transform="translate(-34.811 -83.715)" fill="#ba4a3f" opacity="0.37"/>
        <path id="Caminho_563" data-name="Caminho 563" d="M160.3,449.9l.683,2.673-21.246,4.219-.42-3Z" transform="translate(-34.021 -81.95)" fill="#e3e5e7"/>
        <path id="Caminho_564" data-name="Caminho 564" d="M222.652,441.438a2.136,2.136,0,0,0,.165-.255h0c.045-.09.1-.18.143-.278L223,440.8l.1-.248a.919.919,0,0,1,.053-.128l.135-.33a.9.9,0,0,0,.038-.135c.038-.113.068-.233.105-.353v-.09l.113-.5a.465.465,0,0,0,0-.053,2.976,2.976,0,0,1,.09-.48,1.166,1.166,0,0,0,0-.158,1.491,1.491,0,0,1,.068-.428,1.68,1.68,0,0,1,0-.173,3.441,3.441,0,0,1,.06-.465v-.165l.068-.6v-.06c0-.24.045-.48.068-.751v-.068c0-.218.038-.443.053-.668v-.2a3.188,3.188,0,0,1,.038-.593v-1.9h0V428.1c0-.7,0-1.411-.06-2.147v-.225a7,7,0,0,0-.038-.878v-.315a6.19,6.19,0,0,0-.038-.833v-.33l-.045-.908v-.27c-.045-.8-.1-1.607-.158-2.44v-.308l-.068-.938V418.1l-.068-.893v-.248h0c-.593-7.32-1.607-15.863-3-25.067a13.694,13.694,0,0,0,.946-8.934,14.264,14.264,0,0,0-3.754-7.447c-3-15.983-6.516-29.8-9.655-38.776h0v-.09l-.36-.991-.135-.39c-.12-.323-.24-.646-.36-.953l-.113-.278c-.1-.263-.2-.51-.293-.751l-.113-.278c-.12-.3-.24-.578-.353-.856-.045-.09-.083-.18-.12-.27-.12-.278-.24-.555-.36-.818a.975.975,0,0,0-.06-.128c-.105-.24-.21-.465-.323-.683l-.09-.2c-.12-.24-.24-.465-.353-.683l-.083-.165c-.113-.21-.225-.405-.33-.593a.309.309,0,0,1-.038-.068c-.12-.2-.233-.39-.353-.571,0-.045-.053-.083-.075-.12-.113-.18-.225-.338-.338-.5l-.06-.075c-.1-.135-.2-.263-.3-.383l-.053-.06-.315-.338-.068-.06a2.35,2.35,0,0,0-.315-.255h0a1.559,1.559,0,0,0-.285-.158h-.053a1.5,1.5,0,0,0-.285-.083h-.06a1.149,1.149,0,0,0-.278,0,4.1,4.1,0,0,0-.751.285s-1.554,2.065-4.122,5.255c-.315.405-.653.826-1.006,1.261s-.713.893-1.1,1.359l-1.171,1.449c-1.419,1.734-3,3.619-4.67,5.593-8.393,9.865-19.459,21.771-27.447,26.328a53.926,53.926,0,0,1-26.043,7.185c-1.141,0-1.779-.06-1.779-.06h-2.252l-.541.038h-.12l-.533.15h-.128l-.638.068h-.158l-.6.075h-.135l-.751.105H127.6l-.683.12h-.113l-.788.158-.21.038-.751.173h-.068l-.841.2-.225.06-.871.24H123l-.833.255-.233.075c-.293.09-.586.2-.886.3l-.105.038-.811.308-.225.09c-.293.113-.586.24-.886.368l-.143.068-.751.36-.218.105c-.293.143-.578.293-.871.45l-.173.1c-.248.135-.5.278-.751.428a1.694,1.694,0,0,0-.2.12c-.285.173-.563.353-.841.533l-.18.128c-.24.165-.473.338-.706.51l-.173.12c-.263.21-.526.42-.751.638l-.188.158-.668.6-.128.128c-.248.24-.488.48-.751.751-.053.068-.113.128-.173.2a9.189,9.189,0,0,0-.623.751c0,.038-.06.068-.083.105-.225.278-.435.563-.646.856l-.158.225q-.293.428-.563.878v.045h0a21.021,21.021,0,0,0-2.778,11.261l-5.368,1.366s-1.907,6.2,1.982,10.255l5.473-1.051c4.977,11.261,17.59,12.29,25.525,11.681l.863,3.408.39,2.763,2.065-.413,13.581,39.113-.886.323,1.306,4.092,18.528-7.072-1.5-3.641-.886.323c-7.928-15.435-12.072-33.941-12.642-36.606l1.7-.338-.608-2.4-.856-4.024a37.261,37.261,0,0,1,8.8-.173c9.512,1.029,22.522,4.377,55.915,26.276.683.863,1.306,1.284,1.862,1.224h.06a1.033,1.033,0,0,0,.2-.06h.06l.135-.083.068-.053a.525.525,0,0,0,.12-.105l.068-.06c.045-.045.083-.1.128-.15Z" transform="translate(-24.388 -51.049)" fill="none" stroke="#1b0d20" stroke-miterlimit="10" stroke-width="3"/>
      </g>
      <g id="Grupo_394" data-name="Grupo 394" transform="translate(-22 266)">
        <path id="Caminho_581" data-name="Caminho 581" d="M333.531,180.175l-2.748,15.938h4.3a4.85,4.85,0,0,1,4.947,4.94,4.256,4.256,0,0,1-1.419,3.3,5.06,5.06,0,0,1-3.528,1.276h-5.946l-1.832,10.811a4.677,4.677,0,0,1-1.5,2.838,4.429,4.429,0,0,1-3.063,1.1A4.677,4.677,0,0,1,319.214,219a4.91,4.91,0,0,1-1.329-3.566,5.561,5.561,0,0,1,.09-1.194l1.449-8.633H304.41l-1.832,10.811a4.429,4.429,0,0,1-1.562,2.883,4.707,4.707,0,0,1-3.108,1.051,4.5,4.5,0,0,1-3.438-1.419,5.075,5.075,0,0,1-1.329-3.619,4.459,4.459,0,0,1,.1-1.1l1.464-8.611h-3.3a4.85,4.85,0,0,1-4.947-4.94,4.257,4.257,0,0,1,1.419-3.3,5.082,5.082,0,0,1,3.528-1.276h4.94l2.748-15.938h-4.3a4.85,4.85,0,0,1-4.947-4.947,4.249,4.249,0,0,1,1.419-3.3,5.067,5.067,0,0,1,3.528-1.284h5.863l1.832-10.435a4.587,4.587,0,0,1,1.5-2.838,4.444,4.444,0,0,1,3.07-1.1,4.67,4.67,0,0,1,3.521,1.374,4.925,4.925,0,0,1,1.329,3.574,5.61,5.61,0,0,1-.09,1.194l-1.374,8.258h14.932l1.832-10.435a4.5,4.5,0,0,1,1.562-2.89,4.767,4.767,0,0,1,3.116-1.051,4.5,4.5,0,0,1,3.431,1.419,5.1,5.1,0,0,1,1.329,3.619,5.033,5.033,0,0,1-.09,1.1l-1.374,8.258h3.206a4.857,4.857,0,0,1,4.94,4.947,4.227,4.227,0,0,1-1.419,3.3,5.053,5.053,0,0,1-3.521,1.284Zm-12.455,15.938,2.748-15.938H308.809l-2.748,15.938Z" transform="translate(-70.696 -8.753)" fill="#f3a51c"/>
        <path id="Caminho_582" data-name="Caminho 582" d="M325.971,185.9l-2.748,15.931h4.309a4.857,4.857,0,0,1,4.94,4.947,4.227,4.227,0,0,1-1.419,3.3,5.053,5.053,0,0,1-3.521,1.284h-5.953l-1.832,10.811a4.677,4.677,0,0,1-1.5,2.838,4.452,4.452,0,0,1-3.063,1.1,4.685,4.685,0,0,1-3.529-1.374,4.917,4.917,0,0,1-1.329-3.573,5.479,5.479,0,0,1,.09-1.186l1.5-8.611H296.9l-1.832,10.811a4.459,4.459,0,0,1-1.607,2.9,4.782,4.782,0,0,1-3.116,1.051,4.5,4.5,0,0,1-3.438-1.419,5.09,5.09,0,0,1-1.329-3.619,4.413,4.413,0,0,1,.1-1.1l1.464-8.611h-3.3a4.85,4.85,0,0,1-4.947-4.947,4.249,4.249,0,0,1,1.419-3.3,5.068,5.068,0,0,1,3.528-1.284h4.94l2.748-15.931h-4.3a4.85,4.85,0,0,1-4.947-4.947,4.242,4.242,0,0,1,1.419-3.3,5.067,5.067,0,0,1,3.529-1.284H293.1l1.832-10.435a4.632,4.632,0,0,1,1.5-2.845,4.5,4.5,0,0,1,3.071-1.1,4.67,4.67,0,0,1,3.521,1.374,4.925,4.925,0,0,1,1.329,3.574,5.483,5.483,0,0,1-.09,1.186l-1.374,8.258H317.81l1.832-10.435a4.5,4.5,0,0,1,1.562-2.89,4.767,4.767,0,0,1,3.115-1.051,4.5,4.5,0,0,1,3.431,1.419,5.09,5.09,0,0,1,1.329,3.619,4.914,4.914,0,0,1-.09,1.1l-1.374,8.258h3.206a4.85,4.85,0,0,1,4.94,4.947,4.242,4.242,0,0,1-1.419,3.3,5.052,5.052,0,0,1-3.521,1.284Zm-12.462,15.931,2.748-15.931H301.241l-2.748,15.931Z" transform="translate(-68.812 -10.189)" fill="none" stroke="#1b0d20" stroke-miterlimit="10" stroke-width="2"/>
      </g>
      <g id="Grupo_397" data-name="Grupo 397" transform="translate(472.246 250.182) rotate(-14)">
        <path id="Caminho_584" data-name="Caminho 584" d="M822.658,147.008a5.8,5.8,0,0,1,2.537,3.709,5.533,5.533,0,0,1-2.59,6.066,5.3,5.3,0,0,1,2.342,3.408v.165a5.067,5.067,0,0,1-2.252,5.473,5.435,5.435,0,0,1,2.6,3.619l.105.488a5.03,5.03,0,0,1-3.574,6.119l-25.818,5.5s-6.914,1.5-8.566.105a11.426,11.426,0,0,0-3.941-1.794c-.6-.165-1.013-.248-1.013-.248l-7.883,1.719-5.833-27.4s6.892-1.937,10.668-5.09A8.332,8.332,0,0,0,781.15,147c2.718-4.227,5.848-15.015,5.488-20.21s-2.395-8.431-2.357-11.088,8.258-6.4,13.776,6.667a37.017,37.017,0,0,1,3.078,14.264,20.339,20.339,0,0,1-.083,2.3l16.907-3.6a5.39,5.39,0,0,1,3.251.323,6.622,6.622,0,0,1,3.821,4.752,6.479,6.479,0,0,1-2.372,6.6Z" transform="translate(-190.918 2.004)" fill="#f8c798"/>
        <path id="Caminho_585" data-name="Caminho 585" d="M770.088,161.465l6.757,31.854a2.725,2.725,0,0,1-2.094,3.236l-21.374,4.564a2.725,2.725,0,0,1-3.3-2.568l-.593-16.043-.638-17a2.733,2.733,0,0,1,2.162-2.763l15.848-3.378a2.718,2.718,0,0,1,3.228,2.095Z" transform="translate(-185.952 -9.517)" fill="#f3a51c"/>
        <path id="Caminho_586" data-name="Caminho 586" d="M750.16,200.92l.248,6.637a2.725,2.725,0,0,0,3.3,2.568l21.4-4.557a2.725,2.725,0,0,0,2.095-3.236l-1.456-6.862Z" transform="translate(-186.279 -18.531)" fill="#1a4a85" opacity="0.3"/>
        <circle id="Elipse_325" data-name="Elipse 325" cx="2.988" cy="2.988" r="2.988" transform="translate(569.527 179.289)" fill="#1a4a85" opacity="0.3"/>
        <circle id="Elipse_326" data-name="Elipse 326" cx="2.988" cy="2.988" r="2.988" transform="translate(568.701 179.162)" fill="#1b0d20"/>
        <path id="Caminho_587" data-name="Caminho 587" d="M830.367,140.4a6.621,6.621,0,0,0-3.821-4.752h0l-.375-.143h0l-.338-.1h-.105l-.285-.06h-.075l-.345-.053h-.5a2.765,2.765,0,0,0-.353,0h-.488l-.375.068-5.142,1.1L806.4,138.967a3.438,3.438,0,0,1,.037-.616,1.023,1.023,0,0,0,0-.345v-1.344h0a37.024,37.024,0,0,0-3.078-14.264c-4.625-10.983-11.186-10.09-13.183-7.943,2.575.751,5.578,3.206,8.033,9.009a35.592,35.592,0,0,1,3,16.584l.548,2.575,18.919-4.069a3.814,3.814,0,0,1,4.5,2.853v.068a6.494,6.494,0,0,1-2.372,6.614,5.788,5.788,0,0,1,2.53,3.709,5.526,5.526,0,0,1-2.59,6.066,5.255,5.255,0,0,1,2.35,3.408v.165a5.06,5.06,0,0,1-2.252,5.473,5.443,5.443,0,0,1,2.6,3.619l.105.488a5.03,5.03,0,0,1-3.574,6.119l5.218-1.044a5.03,5.03,0,0,0,3.574-6.119l-.105-.488a5.435,5.435,0,0,0-2.6-3.619,5.068,5.068,0,0,0,2.252-5.473v-.165a5.3,5.3,0,0,0-2.342-3.408,5.533,5.533,0,0,0,2.59-6.066,5.8,5.8,0,0,0-2.537-3.709A6.479,6.479,0,0,0,830.367,140.4Z" transform="translate(-196.254 1.997)" fill="#f8c798" opacity="0.5"/>
        <path id="Caminho_588" data-name="Caminho 588" d="M817.4,174.417l-.1-.488a5.45,5.45,0,0,0-2.6-3.619,5.068,5.068,0,0,0,2.252-5.473l-.038-.173a5.308,5.308,0,0,0-2.342-3.4,5.541,5.541,0,0,0,2.59-6.073,5.834,5.834,0,0,0-2.538-3.709,6.629,6.629,0,0,0,2.095-7.552,6.546,6.546,0,0,0-3.543-3.814h0l-.375-.143h0l-.338-.105h-.105a1.424,1.424,0,0,1-.285-.068h-.075a2.718,2.718,0,0,0-.345-.045H810.31l-.375.06-16.907,3.6V142.4a1.294,1.294,0,0,0,0-.173v-1.1a37.016,37.016,0,0,0-3.078-14.264c-.158-.383-.323-.751-.488-1.1l-.158-.33c-.113-.233-.225-.465-.345-.683s-.12-.24-.188-.36-.218-.4-.323-.586-.135-.225-.2-.338l-.345-.556-.18-.278c-.143-.218-.293-.428-.443-.631l-.083-.12c-.18-.24-.353-.465-.533-.683-.052-.06-.105-.113-.15-.173l-.39-.443-.2-.2c-.113-.12-.233-.233-.345-.345l-.21-.2-.353-.308-.188-.158-.405-.308-.128-.1-.533-.345-.12-.06c-.135-.083-.278-.158-.413-.225l-.18-.09-.345-.15-.2-.075-.33-.12-.18-.06-.353-.09h-.15a3.753,3.753,0,0,0-.48-.083h-.075a3.75,3.75,0,0,0-.4,0h-1.074l-.263.045h-.158l-.308.075h-.083l-.36.12-.082.008a1.27,1.27,0,0,0-.21.09l-.143.068-.173.1-.135.083a1.23,1.23,0,0,0-.165.105l-.12.083-.158.128-.09.083a2.69,2.69,0,0,0-.21.2,3.9,3.9,0,0,0-.593,1.276c-.038,2.658,2,5.863,2.357,11.081s-2.77,15.991-5.488,20.21a8.5,8.5,0,0,1-1.7,1.854,20.817,20.817,0,0,1-4.084,2.538l-.3-1.419a2.725,2.725,0,0,0-3.236-2.095l-15.848,3.371a2.725,2.725,0,0,0-2.155,2.77l.631,17,.593,16.043a2.733,2.733,0,0,0,2.087,2.553,3.129,3.129,0,0,0,.593.075,3.491,3.491,0,0,0,.615-.06l21.4-4.565a3.058,3.058,0,0,0,.525-.165,2.718,2.718,0,0,0,1.629-2.515,2.337,2.337,0,0,0-.06-.556l-.413-1.937,1.1-.24s.413.083,1.013.255a11.261,11.261,0,0,1,3.941,1.794c1.652,1.389,8.566-.105,8.566-.105l25.818-5.5A4.993,4.993,0,0,0,817.4,174.417Z" transform="translate(-185.184 0.864)" fill="none" stroke="#1b0d20" stroke-miterlimit="10" stroke-width="2"/>
      </g>
    </g>
    <g id="Caminho_1490" data-name="Caminho 1490" transform="translate(447.656 254.38)" fill="#ebc134" opacity="0.1">
      <path d="M 233.3219299316406 379.8915710449219 C 223.0775146484375 379.8915710449219 212.6169281005859 379.19482421875 202.2306823730469 377.8207397460938 C 192.1797637939453 376.4909973144531 181.9469299316406 374.4937438964844 171.8165130615234 371.8844909667969 C 152.5061798095703 366.9107666015625 132.9696807861328 359.5725708007813 113.7495956420898 350.0736694335938 C 95.75759887695313 341.1815795898438 77.87168121337891 330.3162536621094 60.58884811401367 317.7793273925781 C 44.35393142700195 306.0025939941406 28.61393165588379 292.7298278808594 13.80601501464844 278.3296813964844 C -0.2287347018718719 264.6812438964844 -13.32781791687012 250.1227569580078 -25.12731742858887 235.0585784912109 C -36.48965072631836 220.5524139404297 -46.4532356262207 205.8317565917969 -54.74131774902344 191.305419921875 C -62.90131759643555 177.0035095214844 -69.23573303222656 163.2475891113281 -73.5684814453125 150.4199981689453 C -77.93998718261719 137.4778289794922 -80.15648651123047 125.8233337402344 -80.15648651123047 115.7801666259766 C -80.15648651123047 92.08641815185547 -78.51715087890625 72.38233947753906 -75.14482116699219 55.54208755493164 C -73.36848449707031 46.67166900634766 -71.0648193359375 38.48291778564453 -68.29790496826172 31.2032527923584 C -65.44673156738281 23.70208549499512 -61.99740219116211 16.88583564758301 -58.04581832885742 10.94366931915283 C -53.99531936645508 4.852752685546875 -49.27090072631836 -0.539914071559906 -44.00381851196289 -5.084580898284912 C -38.62364959716797 -9.726747512817383 -32.48756790161133 -13.64824771881104 -25.76581764221191 -16.74016380310059 C -18.91823387145996 -19.8899974822998 -11.22723484039307 -22.2875804901123 -2.906484603881836 -23.86633110046387 C 5.544848442077637 -25.46991348266602 14.93059825897217 -26.28299713134766 24.99009895324707 -26.28299713134766 C 35.49384689331055 -26.28299713134766 50.21776580810547 -25.58608055114746 67.56993103027344 -24.26758003234863 C 86.29560089111328 -22.84474754333496 107.761344909668 -20.71158027648926 129.6465148925781 -18.09874725341797 C 166.65234375 -13.68074703216553 223.6880187988281 -5.667080879211426 285.2537536621094 7.42033576965332 C 313.8975219726563 13.50925254821777 340.8229370117188 20.14016914367676 365.2821044921875 27.12883567810059 C 392.2894287109375 34.84550094604492 416.6840209960938 43.1140022277832 437.7883605957031 51.70450210571289 C 449.0678405761719 56.29583740234375 459.6051940917969 61.06158447265625 469.1075134277344 65.86933898925781 C 479.0187683105469 70.88400268554688 488.0696105957031 76.07883453369141 496.0086669921875 81.30941772460938 C 504.2685852050781 86.75141906738281 511.548095703125 92.37924957275391 517.6450805664063 98.03658294677734 C 523.9718627929688 103.9071655273438 529.1970825195313 109.9690017700195 533.1755981445313 116.0537490844727 C 538.1404418945313 123.647087097168 542.113525390625 131.4844207763672 544.9844360351563 139.3481750488281 C 547.7930297851563 147.0409240722656 549.6126708984375 154.9390869140625 550.3931274414063 162.8232574462891 C 551.1580810546875 170.5525054931641 550.9420166015625 178.4457550048828 549.7506713867188 186.2836761474609 C 548.579833984375 193.9870910644531 546.4410400390625 201.8096618652344 543.3934936523438 209.5340881347656 C 536.699951171875 226.5005035400391 525.5347900390625 243.3712463378906 510.208251953125 259.6778259277344 C 495.1470031738281 275.7020874023438 476.1875915527344 291.0597534179688 453.856689453125 305.3243408203125 C 408.6256103515625 334.2170715332031 350.8859252929688 357.7743225097656 286.8796691894531 373.4493408203125 C 278.0457763671875 375.6127624511719 268.9948425292969 377.2520751953125 259.978271484375 378.3219299316406 C 251.1997680664063 379.3634338378906 242.2312622070313 379.8915710449219 233.3219299316406 379.8915710449219 Z" stroke="none"/>
      <path d="M 24.99005126953125 -25.78298950195313 C 14.9617919921875 -25.78298950195313 5.60736083984375 -24.97283935546875 -2.81329345703125 -23.37509155273438 C -11.09417724609375 -21.80392456054688 -18.7462158203125 -19.41876220703125 -25.556884765625 -16.28591918945313 C -32.23602294921875 -13.21365356445313 -38.33251953125 -9.31756591796875 -43.67718505859375 -4.70599365234375 C -48.90997314453125 -0.191009521484375 -53.6041259765625 5.16741943359375 -57.6295166015625 11.22048950195313 C -61.5604248046875 17.13168334960938 -64.99261474609375 23.91458129882813 -67.83056640625 31.38092041015625 C -70.58770751953125 38.634765625 -72.88360595703125 46.7967529296875 -74.654541015625 55.64016723632813 C -78.0203857421875 72.44784545898438 -79.65655517578125 92.1197509765625 -79.65655517578125 115.7800903320313 C -79.65655517578125 125.7686767578125 -77.4488525390625 137.3694152832031 -73.0948486328125 150.2599182128906 C -68.77239990234375 163.0571746826172 -62.45123291015625 176.7835083007813 -54.30706787109375 191.0575866699219 C -46.03106689453125 205.5628356933594 -36.08111572265625 220.2631683349609 -24.73370361328125 234.7501678466797 C -12.94805908203125 249.7968292236328 0.1358642578125 264.3384399414063 14.15463256835938 277.9711608886719 C 28.94528198242188 292.3546752929688 44.6668701171875 305.6119079589844 60.88238525390625 317.3745727539063 C 78.14263916015625 329.8950805664063 96.00430297851563 340.7457580566406 113.9712219238281 349.6254272460938 C 133.1603698730469 359.1090698242188 152.664306640625 366.4351806640625 171.9412231445313 371.4002685546875 C 182.0523071289063 374.0045776367188 192.2651977539063 375.9979248046875 202.2962951660156 377.3250732421875 C 212.660888671875 378.6963500976563 223.0994567871094 379.3916015625 233.3219604492188 379.3916015625 C 242.2115478515625 379.3916015625 251.1603088378906 378.8646545410156 259.9193725585938 377.8254089355469 C 268.9158020019531 376.7579956054688 277.946533203125 375.1222534179688 286.7608032226563 372.9636840820313 C 350.7142944335938 357.3015747070313 408.4021301269531 333.7666015625 453.5874633789063 304.9030151367188 C 475.883544921875 290.6606750488281 494.8109741210938 275.3294982910156 509.8438720703125 259.3354187011719 C 525.1268920898438 243.0751647949219 536.258056640625 226.2578430175781 542.9284057617188 209.3505859375 C 545.9620361328125 201.6609954833984 548.0911254882813 193.8749237060547 549.2564086914063 186.20849609375 C 550.44140625 178.4116668701172 550.656494140625 170.5603332519531 549.8955688476563 162.8724975585938 C 549.1193237304688 155.0300903320313 547.3089599609375 147.1730041503906 544.5147705078125 139.5195922851563 C 541.656982421875 131.6916809082031 537.7011108398438 123.888671875 532.7571411132813 116.3273315429688 C 528.8009033203125 110.2765808105469 523.60205078125 104.2459106445313 517.3049926757813 98.40301513671875 C 511.2282104492188 92.764404296875 503.9705505371094 87.15374755859375 495.733642578125 81.7269287109375 C 487.8103637695313 76.50674438476563 478.776123046875 71.32159423828125 468.8818054199219 66.31549072265625 C 459.3915405273438 61.51382446289063 448.8667907714844 56.75375366210938 437.5998840332031 52.16757202148438 C 416.5121459960938 43.58383178710938 392.1347045898438 35.32135009765625 365.1447143554688 27.60958862304688 C 340.696533203125 20.62408447265625 313.7823791503906 13.99591064453125 285.1497802734375 7.909332275390625 C 223.602294921875 -5.174072265625 166.5827026367188 -13.18548583984375 129.5872192382813 -17.60232543945313 C 107.7089538574219 -20.21432495117188 86.25064086914063 -22.34674072265625 67.53204345703125 -23.76901245117188 C 50.19219970703125 -25.08657836914063 35.48138427734375 -25.78298950195313 24.99005126953125 -25.78298950195313 M 24.99005126953125 -26.78298950195313 C 106.6672058105469 -26.78298950195313 468.0919494628906 15.6005859375 533.5941162109375 115.7800903320313 C 599.09619140625 215.9596710205078 475.7982177734375 327.6983337402344 286.9986267089844 373.9349975585938 C 268.9760131835938 378.3486938476563 251.0164184570313 380.3915710449219 233.3219604492188 380.3915710449219 C 65.65451049804688 380.3915710449219 -80.65655517578125 197.3861236572266 -80.65655517578125 115.7800903320313 C -80.65655517578125 25.56201171875 -56.6871337890625 -26.78298950195313 24.99005126953125 -26.78298950195313 Z" stroke="none" fill="#707070"/>
    </g>
  </g>
</svg>
