<svg xmlns="http://www.w3.org/2000/svg" xmlns:xlink="http://www.w3.org/1999/xlink" width="218" height="218" viewBox="0 0 218 218">
  <defs>
    <filter id="Retângulo_1587" x="0" y="0" width="218" height="218" filterUnits="userSpaceOnUse">
      <feOffset dy="3" input="SourceAlpha"/>
      <feGaussianBlur stdDeviation="3" result="blur"/>
      <feFlood flood-opacity="0.161"/>
      <feComposite operator="in" in2="blur"/>
      <feComposite in="SourceGraphic"/>
    </filter>
    <filter id="Retângulo_1588" x="0" y="0" width="218" height="218" filterUnits="userSpaceOnUse">
      <feOffset dy="3" input="SourceAlpha"/>
      <feGaussianBlur stdDeviation="3" result="blur-2"/>
      <feFlood flood-opacity="0.161"/>
      <feComposite operator="in" in2="blur-2"/>
      <feComposite in="SourceGraphic"/>
    </filter>
    <clipPath id="clip-path">
      <g transform="matrix(1, 0, 0, 1, 0, 0)" filter="url(#Retângulo_1587)">
        <rect id="Retângulo_1587-2" data-name="Retângulo 1587" width="200" height="200" rx="10" transform="translate(691 284)" fill="#fff"/>
      </g>
    </clipPath>
    <linearGradient id="linear-gradient" x1="-6.049" y1="-3.898" x2="-5.485" y2="-3.898" gradientUnits="objectBoundingBox">
      <stop offset="0" stop-color="#e2ac56"/>
      <stop offset="1" stop-color="#d99156"/>
    </linearGradient>
    <linearGradient id="linear-gradient-2" x1="-4.13" y1="-3.685" x2="-3.565" y2="-3.685" xlink:href="#linear-gradient"/>
    <linearGradient id="linear-gradient-3" x1="0.48" y1="0.013" x2="0.521" y2="1.002" gradientUnits="objectBoundingBox">
      <stop offset="0" stop-color="#fff"/>
      <stop offset="0" stop-color="#c4686c"/>
      <stop offset="1" stop-color="#935596"/>
    </linearGradient>
    <linearGradient id="linear-gradient-4" x1="0.481" y1="-0.014" x2="0.517" y2="1.002" xlink:href="#linear-gradient-3"/>
    <linearGradient id="linear-gradient-5" x1="0.466" y1="-0.026" x2="0.516" y2="0.842" gradientUnits="objectBoundingBox">
      <stop offset="0" stop-color="#fff"/>
      <stop offset="0" stop-color="#6191c9"/>
      <stop offset="1" stop-color="#2d4065"/>
    </linearGradient>
  </defs>
  <g id="Grupo_582" data-name="Grupo 582" transform="translate(-358 -323)">
    <g id="Grupo_484" data-name="Grupo 484" transform="translate(-14 -2)">
      <g transform="matrix(1, 0, 0, 1, 372, 325)" filter="url(#Retângulo_1588)">
        <rect id="Retângulo_1588-2" data-name="Retângulo 1588" width="200" height="200" rx="10" transform="translate(9 6)" fill="#fff"/>
      </g>
      <g id="Grupo_464" data-name="Grupo 464" transform="translate(-310 47)">
        <g id="Grupo_de_máscara_4" data-name="Grupo de máscara 4" clip-path="url(#clip-path)">
          <g id="sessao2-tela2-1" transform="translate(657.524 190.165)">
            <path id="Caminho_1491" data-name="Caminho 1491" d="M137.965,109.835h-27.02c-24.456,0-41.024,19.328-41.024,43.982,0,0-1.972,25.442-2.761,31.951C64.4,210.224,42.7,257.954,64,274.324L114.3,315.742l68.241-39.051c26.429-16.764,0-72.975,0-97.628l-2.958-18.145C179.58,136.461,162.618,109.835,137.965,109.835Z" transform="translate(13.059 0)" fill="#321815"/>
            <g id="Grupo_465" data-name="Grupo 465" transform="translate(86.925 329.35)">
              <path id="Caminho_1492" data-name="Caminho 1492" d="M130.192,245.816c-1.381,27.809-3.156,73.764-8.481,96.248-1.775-.2-18.934-.592-20.709-.789-2.958-30.373-9.073-59.366-12.425-91.12Z" transform="translate(-53.076 -245.816)" fill="#d99156"/>
              <path id="Caminho_1493" data-name="Caminho 1493" d="M66.585,246.915c1.381,27.809,4.733,71.988,10.059,94.472,1.775-.2,18.342-1.381,20.117-1.381,2.958-30.373,8.086-56.8,11.636-88.556Z" transform="translate(-66.585 -245.14)" fill="#d99156"/>
              <path id="Caminho_1494" data-name="Caminho 1494" d="M103.644,301.161,93.586,314.178l31.162.986-12.031-13.412Z" transform="translate(-49.998 -211.816)" fill="url(#linear-gradient)"/>
              <path id="Caminho_1495" data-name="Caminho 1495" d="M79.943,301.161,69.884,314.178l31.162.986L89.015,301.752Z" transform="translate(-64.559 -211.816)" fill="url(#linear-gradient-2)"/>
            </g>
            <g id="DIREITA_5_" transform="translate(33.476 259.4)">
              <g id="Grupo_469" data-name="Grupo 469">
                <g id="Grupo_468" data-name="Grupo 468">
                  <g id="Grupo_467" data-name="Grupo 467">
                    <path id="Caminho_1496" data-name="Caminho 1496" d="M79.989,202.616c-1.381,2.367-20.709,26.626-22.287,28.8-1.972,2.761-5.522,6.114-7.889,8.678-2.564,2.958,4.733,14.989,3.156,18.539-1.381,2.958,1.775,5.72,4.733,4.733,6.509-2.367,12.031-10.65,16.173-16.173,1.775-2.367,22.681-32.937,24.259-35.5C97.148,208.533,83.144,201.432,79.989,202.616Z" transform="translate(-23.779 -202.484)" fill="#cca46b"/>
                    <g id="Grupo_466" data-name="Grupo 466" transform="translate(0 36.123)">
                      <path id="Caminho_1497" data-name="Caminho 1497" d="M34.068,251.391a1.79,1.79,0,0,0-.592,1.381,2.318,2.318,0,0,0,2.17,1.972,5.675,5.675,0,0,0,3.156-.592c4.536-1.972,9.861-8.678,12.031-6.9,1.578,1.381-1.775,5.522-3.747,8.284a25.266,25.266,0,0,0-2.17,3.945c-.789,2.367,2.958,4.339,4.536,2.17,1.972-2.761,3.747-7.889,6.311-10.453a1.209,1.209,0,0,1,1.972.789v9.467c.2,1.381.789,3.353,2.367,3.353,1.381,0,1.972-1.381,1.972-2.564a22.649,22.649,0,0,0,0-7.3c-.2-1.381-.394-2.958.789-3.55,1.381-.789,2.958.394,3.747,1.578s1.183,2.761,2.17,3.945,3.353,1.381,3.945.2c.2-.394,0-.789,0-1.381-.986-3.55-4.931-6.9-3.747-10.256.986-2.367,4.339-3.55,4.339-6.114,0-2.17-1.972-3.353-3.55-4.733a8.814,8.814,0,0,1-3.156-3.945,4.771,4.771,0,0,0-3.156-3.55c-1.775-.789-4.339-1.972-6.311-1.381-1.775.592-2.761,3.353-4.536,3.945-2.367.789-3.55-.789-5.522-2.564a11.272,11.272,0,0,0-3.156-2.17,2.451,2.451,0,0,0-3.156,1.775,7.955,7.955,0,0,0,0,2.17c.592,4.536,4.733,4.733,9.664,6.706C47.085,241.924,38.407,245.868,34.068,251.391Z" transform="translate(-33.476 -224.861)" fill="#cca46b"/>
                    </g>
                  </g>
                </g>
                <path id="Caminho_1498" data-name="Caminho 1498" d="M46.8,235.007a10.4,10.4,0,0,0,6.9-.2,10.177,10.177,0,0,0-.394,2.169,5.775,5.775,0,0,0,1.381,4.339c.2.2.592,0,.394-.2a9.4,9.4,0,0,1-.789-3.945,3.5,3.5,0,0,1,.789-1.972c.2-.592.789-.986.789-1.578h0v-.2h0a.193.193,0,0,0-.2-.2h-.394c-.2,0-.394.2-.592.394a8.266,8.266,0,0,1-2.958.789,30.538,30.538,0,0,1-4.339-.2C46.4,233.823,46.206,234.809,46.8,235.007Z" transform="translate(-25.497 -183.596)" fill="#93724b"/>
              </g>
            </g>
            <g id="DIREITA_2_" transform="translate(161.28 256.879)">
              <g id="Grupo_473" data-name="Grupo 473">
                <g id="Grupo_472" data-name="Grupo 472">
                  <g id="Grupo_471" data-name="Grupo 471">
                    <path id="Caminho_1499" data-name="Caminho 1499" d="M131.973,201.208c.986,2.564,16.962,29.19,18.145,31.557,1.578,3.156,4.734,6.706,6.509,9.664,2.17,3.156-6.706,14.2-5.522,17.948.986,3.156-2.564,5.522-5.325,4.142-6.114-3.156-10.453-12.228-13.806-18.145-1.381-2.761-17.948-35.7-19.328-38.46C114.223,204.956,129.015,199.631,131.973,201.208Z" transform="translate(-112.645 -200.922)" fill="#cca46b"/>
                    <g id="Grupo_470" data-name="Grupo 470" transform="translate(26.544 40.885)">
                      <path id="Caminho_1500" data-name="Caminho 1500" d="M168.418,255.272c.2.395.592.986.394,1.381a2.613,2.613,0,0,1-2.564,1.775,8.449,8.449,0,0,1-3.156-.986c-4.339-2.564-8.481-10.059-11.045-8.481-1.578,1.183,1.183,5.72,2.564,8.678a28.147,28.147,0,0,1,1.578,4.339c.394,2.564-3.55,3.747-4.733,1.578-1.578-2.958-2.761-8.481-4.733-11.242a1.134,1.134,0,0,0-1.972.394l-1.381,9.467c-.394,1.381-1.183,3.156-2.761,2.958-1.381-.2-1.775-1.578-1.775-2.958a30.934,30.934,0,0,1,.986-7.3c.394-1.381.789-2.958-.394-3.747s-3.156,0-3.945,1.183c-.986,1.183-1.381,2.564-2.564,3.55s-3.55.986-3.747-.394c-.2-.394,0-.789.2-1.381,1.381-3.353,5.917-6.114,5.128-9.664-.592-2.564-3.747-4.142-3.55-6.706.2-2.17,2.367-3.156,4.142-4.142a7.37,7.37,0,0,0,3.55-3.353,5.217,5.217,0,0,1,3.55-3.156c1.972-.394,4.733-1.381,6.509-.394,1.775.789,2.367,3.747,3.945,4.536,2.17,1.183,3.747-.394,5.917-1.775a8.618,8.618,0,0,1,3.55-1.775,2.537,2.537,0,0,1,2.958,2.17,6.709,6.709,0,0,1-.2,1.972c-1.183,4.536-5.325,4.142-10.453,5.325C156.979,244.227,164.868,249.158,168.418,255.272Z" transform="translate(-129.088 -226.249)" fill="#cca46b"/>
                    </g>
                  </g>
                </g>
                <path id="Caminho_1501" data-name="Caminho 1501" d="M145.121,236.679a9.16,9.16,0,0,1-6.706-1.183,4.034,4.034,0,0,1,0,2.17,6.15,6.15,0,0,1-1.775,4.142c-.2.2-.592,0-.394-.2a6.494,6.494,0,0,0,1.183-3.747,8.389,8.389,0,0,0-.394-2.17c-.2-.592-.592-.986-.592-1.578h0v-.2h0a.193.193,0,0,1,.2-.2h.394c.2,0,.394.2.592.394a7.783,7.783,0,0,0,2.958,1.183,35.417,35.417,0,0,0,4.339.394A.506.506,0,0,1,145.121,236.679Z" transform="translate(-98.18 -180.774)" fill="#8b6c46"/>
              </g>
            </g>
            <g id="ROUPA_2_" transform="translate(82.245 226.594)">
              <path id="DIREITO_2_" d="M98.937,184.726c-3.156.789-13.214,4.536-15.581,6.706-7.495,7.1-11.045,11.045-19.526,34.318-2.761,7.495,35.107,24.851,37.079,11.045,1.775-13.017,14.595-23.865,14-37.079,0-1.775,0-15.976-.986-17.553Z" transform="translate(-63.686 -182.162)" fill="url(#linear-gradient-3)"/>
              <path id="DIREITO_1_" d="M116.577,184.576c3.156.789,13.214,4.536,15.581,6.706,7.495,7.1,11.045,11.045,19.526,34.318,2.761,7.3-35.107,24.851-37.079,10.848-1.775-13.017-25.837-8.481-22.09-34.712.2-1.775,2.169-17.751,3.156-19.328Z" transform="translate(-46.219 -182.012)" fill="url(#linear-gradient-4)"/>
            </g>
            <path id="Caminho_1502" data-name="Caminho 1502" d="M144.359,370.685,113,369.3l-2.761-31.162h0l-2.564,32.543-31.557-.395S48.9,317.828,59.156,265.365c3.747-19.131,19.723-43.982,24.259-47.927,10.059-19.723,15.976-31.754,15.976-31.754l9.073-2.367a98.267,98.267,0,0,0-3.945,26.429c0,3.747,23.273,1.183,23.273,1.183l-.2-28.4,8.086.986s9.27,30.57,14,37.671c9.467,14.595,19.328,32.937,21.3,45.954C178.282,317.433,144.359,370.685,144.359,370.685Z" transform="translate(14.357 44.657)" stroke="#4a72b2" stroke-miterlimit="10" stroke-width="0.305" fill="url(#linear-gradient-5)"/>
            <path id="Caminho_1503" data-name="Caminho 1503" d="M153.246,182.092c-7.495-21.3-4.536-29.782-3.353-36.093-14.2,0-54.632,4.536-73.369,2.761-.394,0,3.945,4.339-8.086,24.259-4.733,7.889-4.339,31.162,22.681,34.318,13.017,1.578,31.754,7.495,64.1-8.284C155.613,199.053,152.063,191.164,153.246,182.092Z" transform="translate(20.065 22.216)" fill="#cca46b"/>
            <path id="Caminho_1504" data-name="Caminho 1504" d="M98.774,152.54a19.57,19.57,0,0,0-.789,10.256c.394,2.564,4.931,3.747,6.114,1.381,1.578-3.353,1.775-8.481,1.183-11.636C104.493,149.187,100.352,148.6,98.774,152.54Z" transform="translate(39.43 24.55)" fill="#201f20"/>
            <path id="Caminho_1505" data-name="Caminho 1505" d="M88.544,153.1c-.592,3.156,0,6.706.986,10.256.789,2.564,5.72,2.761,6.311.394a20.789,20.789,0,0,0-.986-11.636C93.475,148.762,89.333,149.157,88.544,153.1Z" transform="translate(33.684 24.58)" fill="#201f20"/>
            <path id="BOCA_7_" d="M97.149,154.892a1.3,1.3,0,0,0,2.564.2c.789-2.564,1.578-4.733,3.945-6.114,1.972-1.183,4.142-.789,6.311-.789a1.5,1.5,0,0,0,.789-2.761C104.644,141.678,96.36,148.581,97.149,154.892Z" transform="translate(39.083 21.212)" fill="#201f20"/>
            <path id="Caminho_1506" data-name="Caminho 1506" d="M84.74,179.946c-1.381,2.761.2,2.761,2.761.592,4.339-3.747,9.27-6.9,15.187-6.9,10.059,0,11.045,1.775,14.792,4.142,2.958,1.775,8.086,7.1,6.9,4.142C118.268,167.915,90.656,167.521,84.74,179.946Z" transform="translate(31.178 37.576)" fill="#915b23"/>
            <path id="Caminho_1507" data-name="Caminho 1507" d="M84.032,146.255a1.306,1.306,0,0,0,.986,2.367,9.379,9.379,0,0,1,7.3.2c1.972.986,2.761,3.156,3.945,4.931a1.5,1.5,0,0,0,2.761-.789C99.415,145.861,88.962,142.311,84.032,146.255Z" transform="translate(30.702 21.368)" fill="#201f20"/>
            <path id="VENTA_2_" d="M104.033,163.617c.789-2.367-1.972-5.325-4.733-5.128a6.08,6.08,0,0,0-1.972.2h0c-2.367-.789-4.931.2-5.522,2.17a5.406,5.406,0,0,0,3.55,6.114C99.5,168.351,102.849,167.167,104.033,163.617Z" transform="translate(35.749 29.843)" fill="#774928" opacity="0.6"/>
            <g id="FULOR" transform="translate(142.143 110.94)">
              <ellipse id="Elipse_497" data-name="Elipse 497" cx="14.398" cy="7.495" rx="14.398" ry="7.495" transform="translate(19.082 27.166) rotate(-70.623)" fill="#edc735"/>
              <ellipse id="Elipse_498" data-name="Elipse 498" cx="7.495" cy="14.398" rx="7.495" ry="14.398" transform="translate(7.074 9.627) rotate(-29.795)" fill="#edc735"/>
              <ellipse id="Elipse_499" data-name="Elipse 499" cx="14.397" cy="7.495" rx="14.397" ry="7.495" transform="translate(25.359 23.074) rotate(-19.555)" fill="#edc735"/>
              <ellipse id="Elipse_500" data-name="Elipse 500" cx="7.494" cy="14.397" rx="7.494" ry="14.397" transform="translate(23.486 35.304) rotate(-56.734)" fill="#edc735"/>
              <ellipse id="Elipse_501" data-name="Elipse 501" cx="7.495" cy="14.398" rx="7.495" ry="14.398" transform="translate(19.389 29.255) rotate(-5.443)" fill="#edc735"/>
              <ellipse id="Elipse_502" data-name="Elipse 502" cx="14.398" cy="7.495" rx="14.398" ry="7.495" transform="matrix(0.782, -0.624, 0.624, 0.782, 1.998, 41.839)" fill="#edc735"/>
              <ellipse id="Elipse_503" data-name="Elipse 503" cx="7.495" cy="14.397" rx="7.495" ry="14.397" transform="translate(0 33.391) rotate(-81.819)" fill="#edc735"/>
              <ellipse id="Elipse_504" data-name="Elipse 504" cx="9.861" cy="1.183" rx="9.861" ry="1.183" transform="translate(26.888 24.849) rotate(-76.856)" fill="#ce6b01" opacity="0.47"/>
              <ellipse id="Elipse_505" data-name="Elipse 505" cx="0.592" cy="9.27" rx="0.592" ry="9.27" transform="matrix(0.999, -0.051, 0.051, 0.999, 26.356, 9.192)" fill="#ce6b01" opacity="0.47"/>
              <ellipse id="Elipse_506" data-name="Elipse 506" cx="9.27" cy="0.592" rx="9.27" ry="0.592" transform="translate(27.678 25.101) rotate(-55.722)" fill="#ce6b01" opacity="0.47"/>
              <ellipse id="Elipse_507" data-name="Elipse 507" cx="9.862" cy="1.183" rx="9.862" ry="1.183" transform="matrix(0.947, -0.322, 0.322, 0.947, 33.272, 26.621)" fill="#ce6b01" opacity="0.47"/>
              <ellipse id="Elipse_508" data-name="Elipse 508" cx="9.27" cy="0.592" rx="9.27" ry="0.592" transform="matrix(0.821, -0.571, 0.571, 0.821, 31.064, 28.38)" fill="#ce6b01" opacity="0.47"/>
              <ellipse id="Elipse_509" data-name="Elipse 509" cx="0.592" cy="9.27" rx="0.592" ry="9.27" transform="translate(33.51 28.438) rotate(-87.642)" fill="#ce6b01" opacity="0.47"/>
              <ellipse id="Elipse_510" data-name="Elipse 510" cx="1.183" cy="9.862" rx="1.183" ry="9.862" transform="translate(29.488 33.033) rotate(-62.446)" fill="#ce6b01" opacity="0.47"/>
              <ellipse id="Elipse_511" data-name="Elipse 511" cx="0.592" cy="9.27" rx="0.592" ry="9.27" transform="translate(27.361 31.595) rotate(-78.498)" fill="#ce6b01" opacity="0.47"/>
              <ellipse id="Elipse_512" data-name="Elipse 512" cx="0.592" cy="9.27" rx="0.592" ry="9.27" transform="translate(29.297 32.149) rotate(-41.307)" fill="#ce6b01" opacity="0.47"/>
              <ellipse id="Elipse_513" data-name="Elipse 513" cx="1.183" cy="9.861" rx="1.183" ry="9.861" transform="translate(25.638 29.815) rotate(-5.826)" fill="#ce6b01" opacity="0.47"/>
              <ellipse id="Elipse_514" data-name="Elipse 514" cx="0.592" cy="9.27" rx="0.592" ry="9.27" transform="translate(25.59 27.395) rotate(-21.881)" fill="#ce6b01" opacity="0.47"/>
              <ellipse id="Elipse_515" data-name="Elipse 515" cx="9.27" cy="0.592" rx="9.27" ry="0.592" transform="translate(21.217 47.144) rotate(-74.687)" fill="#ce6b01" opacity="0.47"/>
              <ellipse id="Elipse_516" data-name="Elipse 516" cx="9.861" cy="1.183" rx="9.861" ry="1.183" transform="translate(8.29 44.686) rotate(-46.686)" fill="#ce6b01" opacity="0.47"/>
              <ellipse id="Elipse_517" data-name="Elipse 517" cx="9.27" cy="0.592" rx="9.27" ry="0.592" transform="translate(15.118 45.358) rotate(-62.735)" fill="#ce6b01" opacity="0.47"/>
              <ellipse id="Elipse_518" data-name="Elipse 518" cx="9.27" cy="0.592" rx="9.27" ry="0.592" transform="translate(5.778 38.485) rotate(-25.55)" fill="#ce6b01" opacity="0.47"/>
              <ellipse id="Elipse_519" data-name="Elipse 519" cx="1.183" cy="9.862" rx="1.183" ry="9.862" transform="matrix(0.253, -0.967, 0.967, 0.253, 5.503, 26.973)" fill="#ce6b01" opacity="0.47"/>
              <ellipse id="Elipse_520" data-name="Elipse 520" cx="9.27" cy="0.592" rx="9.27" ry="0.592" transform="translate(8.871 31.073) rotate(-1.398)" fill="#ce6b01" opacity="0.47"/>
              <ellipse id="Elipse_521" data-name="Elipse 521" cx="0.592" cy="9.269" rx="0.592" ry="9.269" transform="matrix(0.585, -0.811, 0.811, 0.585, 9.899, 20.484)" fill="#ce6b01" opacity="0.47"/>
              <ellipse id="Elipse_522" data-name="Elipse 522" cx="1.183" cy="9.862" rx="1.183" ry="9.862" transform="translate(14.661 8.804) rotate(-22.742)" fill="#ce6b01" opacity="0.47"/>
              <ellipse id="Elipse_523" data-name="Elipse 523" cx="0.592" cy="9.27" rx="0.592" ry="9.27" transform="matrix(0.779, -0.627, 0.627, 0.779, 12.611, 14.51)" fill="#ce6b01" opacity="0.47"/>
              <ellipse id="Elipse_524" data-name="Elipse 524" cx="0.592" cy="9.27" rx="0.592" ry="9.27" transform="translate(22.425 8.183) rotate(-1.605)" fill="#ce6b01" opacity="0.47"/>
              <circle id="Elipse_525" data-name="Elipse 525" cx="7.495" cy="7.495" r="7.495" transform="translate(18.742 21.97)" fill="#cb6120"/>
            </g>
            <line id="Linha_29" data-name="Linha 29" y1="0.197" x2="29.979" transform="translate(115.523 272.351)" fill="none" stroke="#4a72b2" stroke-miterlimit="10" stroke-width="2.443" opacity="0.68"/>
            <line id="Linha_30" data-name="Linha 30" x2="0.197" y2="30.176" transform="translate(114.34 271.168)" fill="none" stroke="#4a72b2" stroke-miterlimit="10" stroke-width="2.443" opacity="0.68"/>
            <line id="Linha_31" data-name="Linha 31" x1="1.381" y2="29.979" transform="translate(145.896 271.168)" fill="none" stroke="#4a72b2" stroke-miterlimit="10" stroke-width="2.443" opacity="0.68"/>
            <line id="Linha_32" data-name="Linha 32" x1="16.173" y2="7.692" transform="translate(130.71 300.752)" fill="none" stroke="#4a72b2" stroke-miterlimit="10" stroke-width="2.443" opacity="0.68"/>
            <line id="Linha_33" data-name="Linha 33" x2="16.962" y2="8.284" transform="translate(113.748 300.161)" fill="none" stroke="#4a72b2" stroke-miterlimit="10" stroke-width="2.443" opacity="0.68"/>
            <line id="Linha_34" data-name="Linha 34" y1="6.903" x2="32.74" transform="translate(72.527 315.742)" fill="none" stroke="#4a72b2" stroke-miterlimit="10" stroke-width="2.443" opacity="0.68"/>
            <path id="Caminho_1508" data-name="Caminho 1508" d="M61.943,306.613s15.384-4.339,19.723-10.453c8.481-11.834,5.917-58.774,5.917-58.774" transform="translate(17.488 78.356)" fill="none" stroke="#4a72b2" stroke-miterlimit="10" stroke-width="2.443" opacity="0.68"/>
            <path id="Caminho_1509" data-name="Caminho 1509" d="M126.958,304.529s-8.086-2.958-12.425-9.27c-8.481-11.834-7.495-56.407-7.495-56.407" transform="translate(45.169 79.257)" fill="none" stroke="#4a72b2" stroke-miterlimit="10" stroke-width="2.443" opacity="0.68"/>
            <line id="Linha_35" data-name="Linha 35" x1="33.332" y1="6.114" transform="translate(152.01 318.108)" fill="none" stroke="#4a72b2" stroke-miterlimit="10" stroke-width="2.443" opacity="0.68"/>
          </g>
        </g>
      </g>
    </g>
  </g>
</svg>
