<svg xmlns="http://www.w3.org/2000/svg" width="364.439" height="409" viewBox="0 0 364.439 409">
  <g id="Grupo_568" data-name="Grupo 568" transform="translate(-824.642 -211)">
    <g id="Prancheta_1_cópia_8svg" data-name="Prancheta 1 cópia 8svg" transform="translate(752.792 177.77)">
      <line id="Linha_27" data-name="Linha 27" y1="0.922" x2="1.108" transform="translate(265.886 33.23)" fill="none"/>
      <path id="Caminho_1347" data-name="Caminho 1347" d="M507.306,650.162H492V642.61h15.3Zm-12.916-2.386h10.53v-2.784H494.39Z" transform="translate(-242.402 -351.577)" fill="#b0b7bc"/>
      <path id="Caminho_1348" data-name="Caminho 1348" d="M502.836,660.434a1.189,1.189,0,0,1-1.189-1.193,2.039,2.039,0,0,0-2.039-2.035H475.071a2.039,2.039,0,0,0-2.035,2.035,1.193,1.193,0,1,1-2.386,0,4.425,4.425,0,0,1,4.421-4.421h24.537a4.425,4.425,0,0,1,4.421,4.421A1.193,1.193,0,0,1,502.836,660.434Z" transform="translate(-230.084 -358.621)" fill="#b0b7bc"/>
      <path id="Caminho_1349" data-name="Caminho 1349" d="M491.974,580.253h-65.9a4.518,4.518,0,0,1-4.518-4.518V536.978a4.518,4.518,0,0,1,4.518-4.518h65.9a4.518,4.518,0,0,1,4.518,4.518V575.73A4.522,4.522,0,0,1,491.974,580.253Z" transform="translate(-201.762 -288.027)" fill="#e8ecec"/>
      <path id="Caminho_1350" data-name="Caminho 1350" d="M496.623,577.816H432.039a1.29,1.29,0,0,1-1.269-1.295V542.939a1.269,1.269,0,0,1,1.269-1.269h64.584a1.3,1.3,0,0,1,1.29,1.269v33.582A1.3,1.3,0,0,1,496.623,577.816Z" transform="translate(-207.076 -293.34)" fill="#f7bf5c"/>
      <path id="Caminho_1351" data-name="Caminho 1351" d="M507.5,635.792h-5.161a1.295,1.295,0,0,1,0-2.585H507.5a1.295,1.295,0,1,1,0,2.585Z" transform="translate(-247.661 -346.151)" fill="#263841"/>
      <path id="Caminho_1352" data-name="Caminho 1352" d="M438.1,555.434a1.269,1.269,0,0,0,.914-.377l5.17-5.165a1.292,1.292,0,1,0-1.828-1.828l-5.166,5.166a1.29,1.29,0,0,0,.91,2.2Z" transform="translate(-210.556 -296.811)" fill="#566b7a"/>
      <circle id="Elipse_478" data-name="Elipse 478" cx="1.256" cy="1.256" r="1.256" transform="translate(263.711 287.056)" fill="#e01227"/>
      <path id="Caminho_1353" data-name="Caminho 1353" d="M510.523,652.8H497.37V647.39h13.153Zm-12.916-.241H510.3v-4.908H497.607Z" transform="translate(-245.5 -354.335)" fill="#1c0a2d"/>
      <path id="Caminho_1354" data-name="Caminho 1354" d="M507.239,662.951H507a3.114,3.114,0,0,0-3.109-3.109H479.351a3.114,3.114,0,0,0-3.109,3.109H476a3.351,3.351,0,0,1,3.346-3.351h24.537A3.355,3.355,0,0,1,507.239,662.951Z" transform="translate(-233.171 -361.379)" fill="#1c0a2d"/>
      <path id="Caminho_1355" data-name="Caminho 1355" d="M494.586,582.459H428.7a4.654,4.654,0,0,1-4.654-4.654V539.054A4.654,4.654,0,0,1,428.7,534.4h65.879a4.654,4.654,0,0,1,4.654,4.654v38.752A4.654,4.654,0,0,1,494.586,582.459ZM428.7,534.654a4.4,4.4,0,0,0-4.4,4.4v38.752a4.4,4.4,0,0,0,4.4,4.4h65.883a4.4,4.4,0,0,0,4.4-4.4V539.054a4.4,4.4,0,0,0-4.4-4.4Z" transform="translate(-203.199 -289.146)" fill="#1c0a2d"/>
      <path id="Caminho_1356" data-name="Caminho 1356" d="M499.243,579.988h-64.58a1.417,1.417,0,0,1-1.413-1.413V544.993a1.417,1.417,0,0,1,1.413-1.413h64.58a1.417,1.417,0,0,1,1.413,1.413v33.582A1.417,1.417,0,0,1,499.243,579.988Zm-64.58-36.167a1.172,1.172,0,0,0-1.172,1.172v33.582a1.172,1.172,0,0,0,1.172,1.172h64.58a1.176,1.176,0,0,0,1.168-1.172V544.993a1.176,1.176,0,0,0-1.176-1.172Z" transform="translate(-208.507 -294.442)" fill="#1c0a2d"/>
      <path id="Caminho_1357" data-name="Caminho 1357" d="M509.935,638h-5.157a1.413,1.413,0,1,1,0-2.822h5.157a1.413,1.413,0,1,1,0,2.822Zm-5.166-2.585a1.172,1.172,0,1,0,0,2.344h5.166a1.172,1.172,0,1,0,0-2.344Z" transform="translate(-248.914 -347.287)" fill="#1c0a2d"/>
      <path id="Caminho_1358" data-name="Caminho 1358" d="M440.768,557.663a1.392,1.392,0,0,1-.994-.423,1.409,1.409,0,0,1,0-2l5.166-5.166a1.409,1.409,0,0,1,1.993,1.993l-5.165,5.182a1.4,1.4,0,0,1-1,.41Zm5.17-7.746a1.168,1.168,0,0,0-.846.343l-5.17,5.166a1.173,1.173,0,1,0,1.658,1.658l5.187-5.161a1.172,1.172,0,0,0-.846-2Z" transform="translate(-212.031 -297.953)" fill="#1c0a2d"/>
      <path id="Caminho_1359" data-name="Caminho 1359" d="M529.275,637.93a1.375,1.375,0,1,1,1.375-1.375,1.375,1.375,0,0,1-1.375,1.375Zm0-2.513a1.138,1.138,0,1,0,1.138,1.138A1.138,1.138,0,0,0,529.275,635.417Z" transform="translate(-263.114 -347.29)" fill="#1c0a2d"/>
      <path id="Caminho_1360" data-name="Caminho 1360" d="M476.979,464.933c3.342.03,6.084-3.245,6.117-7.306s-.846-7.365-6-7.408-6.084,3.245-6.117,7.306S473.632,464.9,476.979,464.933Z" transform="translate(-230.274 -240.578)" fill="#f7bf5c"/>
      <path id="Caminho_1361" data-name="Caminho 1361" d="M457.9,511.134Z" transform="translate(-222.728 -275.649)" fill="#3f92cc"/>
      <path id="Caminho_1362" data-name="Caminho 1362" d="M512,511.894Z" transform="translate(-253.941 -276.032)" fill="#3f92cc"/>
      <path id="Caminho_1363" data-name="Caminho 1363" d="M480.793,496.692c-.055-7.078-.965-9.1-8.038-10.437a4.217,4.217,0,0,1-3.329,1.244,4.265,4.265,0,0,1-3.308-1.3c-7.006,1.206-8,3.186-8.186,10.077,0,.563-.021.592-.021.529v.745s1.658,3.384,11.423,3.486,11.461-3.287,11.461-3.287v-.55A4.014,4.014,0,0,1,480.793,496.692Z" transform="translate(-222.734 -261.337)" fill="#f7bf5c"/>
      <path id="Caminho_1364" data-name="Caminho 1364" d="M537.379,465.934c3.346.025,6.084-3.245,6.117-7.31s-.846-7.365-6-7.4-6.084,3.245-6.117,7.306S534.032,465.934,537.379,465.934Z" transform="translate(-265.122 -241.155)" fill="#f7bf5c"/>
      <path id="Caminho_1365" data-name="Caminho 1365" d="M518.3,512.35Z" transform="translate(-257.576 -276.424)" fill="#3f92cc"/>
      <path id="Caminho_1366" data-name="Caminho 1366" d="M572.39,512.944Z" transform="translate(-288.782 -276.637)" fill="#3f92cc"/>
      <path id="Caminho_1367" data-name="Caminho 1367" d="M541.163,497.782c-.055-7.078-.965-9.1-8.038-10.437a4.2,4.2,0,0,1-3.325,1.24,4.3,4.3,0,0,1-3.308-1.294c-7.006,1.206-8,3.186-8.19,10.077,0,.563-.021.592-.021.525v.745s1.658,3.41,11.422,3.49,11.465-3.3,11.465-3.3v-.55A2.718,2.718,0,0,1,541.163,497.782Z" transform="translate(-257.564 -261.966)" fill="#f7bf5c"/>
      <path id="Caminho_1368" data-name="Caminho 1368" d="M506.994,460.133c3.346.03,6.084-3.245,6.117-7.306s-.846-7.365-6-7.408-6.084,3.245-6.113,7.31S503.648,460.108,506.994,460.133Z" transform="translate(-247.594 -237.809)" fill="#d19f4e"/>
      <path id="Caminho_1369" data-name="Caminho 1369" d="M487.91,506.54Z" transform="translate(-240.042 -273.072)" fill="#2e739c"/>
      <path id="Caminho_1370" data-name="Caminho 1370" d="M542,507.124Z" transform="translate(-271.249 -273.28)" fill="#2e739c"/>
      <path id="Caminho_1371" data-name="Caminho 1371" d="M510.845,491.962c-.055-7.078-.965-9.1-8.038-10.437a4.213,4.213,0,0,1-3.325,1.244,4.276,4.276,0,0,1-3.308-1.3c-7.006,1.206-8,3.186-8.173,10.077v1.273s1.658,3.406,11.423,3.486,11.465-3.3,11.465-3.3v-.554A2.623,2.623,0,0,1,510.845,491.962Z" transform="translate(-240.094 -258.608)" fill="#d19f4e"/>
      <path id="Caminho_1372" data-name="Caminho 1372" d="M478.908,463.393c3.346.03,6.084-3.245,6.117-7.306s-.846-7.365-6-7.408-6.079,3.245-6.117,7.327S475.562,463.368,478.908,463.393Z" transform="translate(-231.388 -239.69)" fill="none" stroke="#1b0c2d" stroke-miterlimit="10" stroke-width="1"/>
      <path id="Caminho_1373" data-name="Caminho 1373" d="M459.83,509.8Z" transform="translate(-223.842 -274.953)" fill="none" stroke="#1b0c2d" stroke-miterlimit="10" stroke-width="1"/>
      <path id="Caminho_1374" data-name="Caminho 1374" d="M539.319,464.443c3.342.025,6.084-3.245,6.117-7.31s-.846-7.361-6-7.4-6.084,3.245-6.117,7.306S535.972,464.418,539.319,464.443Z" transform="translate(-266.241 -240.296)" fill="none" stroke="#1b0c2d" stroke-miterlimit="10" stroke-width="1"/>
      <path id="Caminho_1375" data-name="Caminho 1375" d="M574.32,511.434Z" transform="translate(-289.896 -275.766)" fill="none" stroke="#1b0c2d" stroke-miterlimit="10" stroke-width="1"/>
      <path id="Caminho_1376" data-name="Caminho 1376" d="M508.24,492.914c-.055-7.078-.965-9.1-8.038-10.437a4.207,4.207,0,0,1-3.329,1.24,4.288,4.288,0,0,1-3.308-1.295l-.127.025c-1.185-1.163-3.076-1.861-6.092-2.433a4.217,4.217,0,0,1-3.329,1.244,4.265,4.265,0,0,1-3.308-1.3c-2.822.487-4.654,1.1-5.881,2.115l-.182-.034a4.963,4.963,0,0,1-6.634-.055c-7.01,1.206-8,3.186-8.19,10.077,0,.563-.021.592-.021.529v.745s1.654,3.406,11.423,3.486c5.855.047,8.812-1.151,10.242-2.115.757.055,1.574.089,2.458.1s1.616,0,2.344-.055c1.269,1.015,4.193,2.466,10.513,2.538,9.756.08,11.469-3.3,11.469-3.3v-.55C508.249,493.447,508.244,493.367,508.24,492.914Z" transform="translate(-223.825 -257.737)" fill="none" stroke="#1b0c2d" stroke-miterlimit="10" stroke-width="1"/>
      <path id="Caminho_1377" data-name="Caminho 1377" d="M508.928,458.623c3.342.03,6.084-3.245,6.118-7.306s-.846-7.365-6-7.408-6.084,3.245-6.117,7.31S505.582,458.6,508.928,458.623Z" transform="translate(-248.708 -236.938)" fill="none" stroke="#1b0c2d" stroke-miterlimit="10" stroke-width="1"/>
      <line id="Linha_28" data-name="Linha 28" y1="0.922" x2="1.108" transform="translate(265.886 65.966)" fill="none"/>
      <rect id="Retângulo_1568" data-name="Retângulo 1568" width="86.871" height="107.922" transform="translate(214.336 334.308)" fill="#f7bf5c"/>
      <rect id="Retângulo_1569" data-name="Retângulo 1569" width="86.871" height="8.245" transform="translate(214.336 334.308)" fill="#dba752"/>
      <rect id="Retângulo_1570" data-name="Retângulo 1570" width="99.554" height="20.924" transform="translate(207.36 314.014)" fill="#f7bf5c"/>
      <path id="Caminho_1378" data-name="Caminho 1378" d="M807.968,528.15a1.058,1.058,0,0,0-1.295-.749L756.52,540.837l.275,2.081a1.05,1.05,0,0,0,.275-.038l50.149-13.436A1.058,1.058,0,0,0,807.968,528.15Z" transform="translate(-395.015 -285.087)" fill="#504f4f"/>
      <path id="Caminho_1379" data-name="Caminho 1379" d="M753.235,559.13a2.885,2.885,0,0,0-2.885,2.881v4.256h5.775v-4.256a2.881,2.881,0,0,0-2.889-2.881Z" transform="translate(-391.455 -303.414)" fill="#727272"/>
      <path id="Caminho_1380" data-name="Caminho 1380" d="M800.767,569.339a2.83,2.83,0,0,1,2.822,2.822v36.692a2.83,2.83,0,0,1-2.822,2.822H742.948a2.83,2.83,0,0,1-2.818-2.822v-36.7a2.83,2.83,0,0,1,2.818-2.822Z" transform="translate(-385.559 -309.299)" fill="#e35062"/>
      <circle id="Elipse_479" data-name="Elipse 479" cx="12.979" cy="12.979" r="12.979" transform="translate(360.342 268.23)" fill="#504f4f"/>
      <path id="Caminho_1381" data-name="Caminho 1381" d="M772.636,616.232a8.656,8.656,0,1,1,8.656-8.652A8.656,8.656,0,0,1,772.636,616.232Z" transform="translate(-399.319 -326.37)" fill="#fff"/>
      <circle id="Elipse_480" data-name="Elipse 480" cx="3.245" cy="3.245" r="3.245" transform="translate(392.067 279.979)" fill="#504f4f"/>
      <circle id="Elipse_481" data-name="Elipse 481" cx="3.245" cy="3.245" r="3.245" transform="translate(405.77 279.979)" fill="#504f4f"/>
      <rect id="Retângulo_1571" data-name="Retângulo 1571" width="20.193" height="10.094" transform="translate(392.067 265.557)" fill="#fff"/>
      <path id="Caminho_1382" data-name="Caminho 1382" d="M828.76,642.05v5.809h6.731l1.409-2.9-1.409-2.906Z" transform="translate(-436.693 -351.254)" fill="#504f4f"/>
      <path id="Caminho_1383" data-name="Caminho 1383" d="M865.39,642.05h-6.731l-1.409,2.906,1.409,2.9h6.731Z" transform="translate(-453.13 -351.254)" fill="#504f4f"/>
      <rect id="Retângulo_1572" data-name="Retângulo 1572" width="6.731" height="5.809" transform="translate(398.798 290.796)" fill="#fff"/>
      <path id="Caminho_1384" data-name="Caminho 1384" d="M840.958,590.72a1.058,1.058,0,0,0-1.058,1.058v5.5h2.115v-5.5A1.058,1.058,0,0,0,840.958,590.72Z" transform="translate(-443.12 -321.639)" fill="#e35062"/>
      <path id="Caminho_1385" data-name="Caminho 1385" d="M783,617.427a1.058,1.058,0,0,1-1.058-1.058v-8.652a1.058,1.058,0,1,1,2.115,0v8.652A1.053,1.053,0,0,1,783,617.427Z" transform="translate(-409.681 -330.836)" fill="#727272"/>
      <path id="Caminho_1386" data-name="Caminho 1386" d="M772.778,617.831a1.058,1.058,0,0,1-1.058-1.058v-6.346a1.058,1.058,0,0,1,2.115,0v6.346A1.058,1.058,0,0,1,772.778,617.831Z" transform="translate(-403.784 -332.399)" fill="#727272"/>
      <path id="Caminho_1387" data-name="Caminho 1387" d="M793.228,617.831a1.058,1.058,0,0,1-1.058-1.058v-6.346a1.058,1.058,0,1,1,2.115,0v6.346a1.058,1.058,0,0,1-1.058,1.058Z" transform="translate(-415.583 -332.399)" fill="#727272"/>
      <path id="Caminho_1388" data-name="Caminho 1388" d="M804.29,542.146H753.738v-1.426a2.856,2.856,0,0,0-.381-1.4l47.92-12.852a1.058,1.058,0,0,0-.55-2.043l-50.1,13.424a2.877,2.877,0,0,0-2.661,2.864v1.438h-1.506a2.83,2.83,0,0,0-2.822,2.822V581.66a2.83,2.83,0,0,0,2.822,2.822H804.29a2.83,2.83,0,0,0,2.822-2.822V544.951a2.83,2.83,0,0,0-2.822-2.8Z" transform="translate(-387.584 -283.367)" fill="none" stroke="#1b0c2d" stroke-miterlimit="10" stroke-width="1"/>
      <rect id="Retângulo_1573" data-name="Retângulo 1573" width="86.871" height="108.003" transform="translate(343.077 334.227)" fill="#e35062"/>
      <rect id="Retângulo_1574" data-name="Retângulo 1574" width="86.871" height="8.245" transform="translate(343.077 334.227)" fill="#c0485c" opacity="0.81"/>
      <rect id="Retângulo_1575" data-name="Retângulo 1575" width="99.554" height="20.924" transform="translate(336.735 313.938)" fill="#e35062"/>
      <path id="Caminho_1389" data-name="Caminho 1389" d="M175.365,570.561l-32.855.1a4.446,4.446,0,0,1-4.459-4.425l-.212-66.767a4.446,4.446,0,0,1,4.429-4.455l32.855-.106a4.446,4.446,0,0,1,4.455,4.429l.212,66.763A4.446,4.446,0,0,1,175.365,570.561Z" transform="translate(-38.072 -266.362)" fill="#727272"/>
      <path id="Caminho_1390" data-name="Caminho 1390" d="M178.182,503.807h-5.216a1.307,1.307,0,1,1,0-2.61h5.216a1.307,1.307,0,0,1,0,2.61Z" transform="translate(-57.541 -269.989)" fill="#444b61"/>
      <path id="Caminho_1391" data-name="Caminho 1391" d="M195.849,503.767h-1.3a1.307,1.307,0,1,1,0-2.61h1.3a1.307,1.307,0,0,1,0,2.61Z" transform="translate(-69.991 -269.965)" fill="#444b61"/>
      <rect id="Retângulo_1576" data-name="Retângulo 1576" width="41.739" height="54.782" transform="translate(99.773 236.495) rotate(-0.18)" fill="#3f92cc"/>
      <path id="Caminho_1392" data-name="Caminho 1392" d="M179.641,566.227l-32.855.106a4.442,4.442,0,0,1-4.455-4.429l-.212-66.763a4.446,4.446,0,0,1,4.425-4.459l32.855-.1a4.442,4.442,0,0,1,4.455,4.408l.212,66.767a4.438,4.438,0,0,1-4.425,4.472Z" transform="translate(-40.542 -263.864)" fill="none" stroke="#1b0c2d" stroke-miterlimit="10" stroke-width="1"/>
      <rect id="Retângulo_1577" data-name="Retângulo 1577" width="36.129" height="8.372" transform="translate(104.612 291.381) rotate(-0.18)" fill="#727272"/>
      <circle id="Elipse_482" data-name="Elipse 482" cx="3.913" cy="3.913" r="3.913" transform="translate(116.732 293.817)" fill="#504f4f"/>
      <rect id="Retângulo_1578" data-name="Retângulo 1578" width="86.871" height="107.55" transform="translate(78.192 334.68)" fill="#3f92cc"/>
      <rect id="Retângulo_1579" data-name="Retângulo 1579" width="86.871" height="8.245" transform="translate(78.192 334.68)" fill="#2e739c"/>
      <rect id="Retângulo_1580" data-name="Retângulo 1580" width="99.554" height="20.924" transform="translate(71.85 314.39)" fill="#3f92cc"/>
    </g>
  </g>
</svg>
