<svg xmlns="http://www.w3.org/2000/svg" xmlns:xlink="http://www.w3.org/1999/xlink" width="810.061" height="542.979" viewBox="0 0 810.061 542.979">
  <defs>
    <linearGradient id="linear-gradient" y1="0.5" x2="1" y2="0.5" gradientUnits="objectBoundingBox">
      <stop offset="0" stop-color="#fff"/>
      <stop offset="0" stop-color="#4292cc"/>
      <stop offset="1" stop-color="#256b99"/>
    </linearGradient>
    <linearGradient id="linear-gradient-2" x1="5.584" y1="-6.857" x2="6.541" y2="-6.857" gradientUnits="objectBoundingBox">
      <stop offset="0" stop-color="#592b21"/>
      <stop offset="1" stop-color="#200c09"/>
    </linearGradient>
    <linearGradient id="linear-gradient-3" x1="-0.847" y1="0.723" x2="-0.39" y2="1.158" xlink:href="#linear-gradient-2"/>
    <linearGradient id="linear-gradient-4" x1="-14.409" y1="-0.349" x2="-13.503" y2="-0.349" xlink:href="#linear-gradient"/>
    <linearGradient id="linear-gradient-5" x1="1.418" y1="-0.775" x2="2.159" y2="-1.477" gradientUnits="objectBoundingBox">
      <stop offset="0" stop-color="#fff"/>
      <stop offset="0" stop-color="#fdf3e2"/>
      <stop offset="0" stop-color="#fbe3b9"/>
      <stop offset="0" stop-color="#f9d493"/>
      <stop offset="0" stop-color="#f8c773"/>
      <stop offset="0" stop-color="#f6bd57"/>
      <stop offset="0" stop-color="#f5b441"/>
      <stop offset="0" stop-color="#f4ad31"/>
      <stop offset="0" stop-color="#f3a825"/>
      <stop offset="0" stop-color="#f3a61e"/>
      <stop offset="0" stop-color="#f3a51c"/>
      <stop offset="0.03" stop-color="#f3a71c" stop-opacity="0.929"/>
      <stop offset="0.14" stop-color="#f5af1b" stop-opacity="0.722"/>
      <stop offset="0.25" stop-color="#f6b61b" stop-opacity="0.522"/>
      <stop offset="0.36" stop-color="#f7bb1a" stop-opacity="0.361"/>
      <stop offset="0.47" stop-color="#f8c01a" stop-opacity="0.231"/>
      <stop offset="0.59" stop-color="#f9c319" stop-opacity="0.129"/>
      <stop offset="0.71" stop-color="#fac619" stop-opacity="0.059"/>
      <stop offset="0.84" stop-color="#fac819" stop-opacity="0.012"/>
      <stop offset="1" stop-color="#fac819" stop-opacity="0"/>
    </linearGradient>
    <linearGradient id="linear-gradient-6" x1="198.015" y1="-7.333" x2="219.846" y2="-7.333" gradientUnits="objectBoundingBox">
      <stop offset="0" stop-color="#fff"/>
      <stop offset="0" stop-color="#f3a51c"/>
      <stop offset="1" stop-color="#fac819"/>
    </linearGradient>
    <linearGradient id="linear-gradient-7" x1="-1.065" y1="0.568" x2="-1.065" y2="-0.329" gradientUnits="objectBoundingBox">
      <stop offset="0" stop-color="#e09b3e"/>
      <stop offset="0.3" stop-color="#c84d4e"/>
      <stop offset="0.6" stop-color="#c31e77"/>
      <stop offset="1" stop-color="#5f3c8f"/>
    </linearGradient>
    <linearGradient id="linear-gradient-8" x1="-2.835" y1="0.646" x2="-2.835" y2="-1.266" xlink:href="#linear-gradient-7"/>
    <linearGradient id="linear-gradient-9" x1="-12.709" y1="33.017" x2="-12.709" y2="25.034" xlink:href="#linear-gradient-7"/>
  </defs>
  <g id="Grupo_596" data-name="Grupo 596" transform="translate(-479 -141.021)">
    <g id="Bia_CONTATO" transform="translate(627.885 124.488)">
      <g id="BIA_4_SIDE" data-name="BIA 4 SIDE" transform="translate(63.116 18.88)">
        <path id="Caminho_1075" data-name="Caminho 1075" d="M852.685,407.322C974.169,474.741,778.194,771.6,667.775,692.79c-113.074-80.707-313.136,40.2-432.511-75.339C135.441,520.839,37.915,191.09,176.877,191.09S641.454,290.085,852.685,407.322Z" transform="translate(-293.005 -193.438)" fill="#4292cc" opacity="0.11"/>
        <path id="Caminho_1076" data-name="Caminho 1076" d="M639.234,467.08l-10.014-3.185c-.8-3.781-13.9,11.388-15.633,17.3-5.488,18.715-7.55,25.538-11.875,31.456-18.463-10.85-32.871-22.479-46.075-41.55-8.094-.865-21.2,32.768-21.2,32.768s25.435,23.854,32.47,26.684c23.086,9.275,26.925,14.568,51.117,20.411.533.132,7.252,0,8.931-8.753h0c3.437-12.889,6.21-20.2,7.212-38.914C634.376,499.79,632.606,483.653,639.234,467.08Z" transform="translate(-264.437 -208.708)" fill="url(#linear-gradient)"/>
        <path id="Caminho_1077" data-name="Caminho 1077" d="M700.559,730.085c-2.423,35.752,10.661,92.5,3.391,121.343-2.366-.246-4.749-.384-7.132-.539-3.03-39.023-23.441-82.016-27.068-122.85Z" transform="translate(-322.233 -321.79)" fill="#ef9351"/>
        <path id="Caminho_1078" data-name="Caminho 1078" d="M699.2,948.4l-11.858,3.323-10.237-1.111-.229,2.137,10.667,3.781,20.755.017-1.449-7.315Z" transform="translate(-325.278 -415.914)" fill="#f3a51c"/>
        <g id="ROUPA" transform="translate(233.469 224.771)">
          <path id="Caminho_1079" data-name="Caminho 1079" d="M631.817,625.82c-5.9,26.678,37.27,144.109,38.164,150.743,10.443-1.094,18.773-2.836,29.216-3.93-.046-9.916,17.02-135.837,1.776-166.7Z" transform="translate(-539.263 -494.403)" fill="#dbe4e8"/>
          <g id="FRENTE" transform="translate(81.137 9.598)">
            <path id="Caminho_1080" data-name="Caminho 1080" d="M702.08,428.109,702,428Z" transform="translate(-650.614 -428)" fill="#f6b63e"/>
            <path id="Caminho_1081" data-name="Caminho 1081" d="M658.965,428.78c-7.482.813-19.638,10.73-19.706,10.884-.275.7-21.442,119.854-26.959,165.4,32.435,9.739,99.2-7.653,124.2-23.126C719.969,545.294,661.285,428.522,658.965,428.78Z" transform="translate(-612.3 -428.333)" fill="#4292cc"/>
          </g>
          <g id="ESQUERDA">
            <path id="Caminho_1082" data-name="Caminho 1082" d="M544.461,489.514a87.94,87.94,0,0,1-8.094-6.949,125.465,125.465,0,0,1-8.948-9.916c-3.1-3.764-5.356-8.186-9.395-10.982-3.437-2.389-7.722,1.111-7.046,4.9,1.57,8.788,11.016,17.558,17.031,23.739,2.727,2.8,5.557,5.471,8.444,8.077C540.634,497.774,545.332,493.661,544.461,489.514Z" transform="translate(-487.853 -432.449)" fill="#ef9351"/>
            <path id="Caminho_1083" data-name="Caminho 1083" d="M484.829,412.251a3.11,3.11,0,0,0-1.438-.962,2.339,2.339,0,0,0-2.532,1.787,6.159,6.159,0,0,0,.286,3.363c1.455,5,8.209,11.818,5.872,13.7-1.673,1.214-5.7-3.065-8.559-5.643a20.955,20.955,0,0,0-4.084-2.962,2.533,2.533,0,0,0-2.916,4.067c2.778,2.584,8.18,5.58,10.541,8.536.63.785.424.315-.086,1.18-3.145,5.288,8.106,18.75,10.884,19.357,2.291.5,4.01-1.214,5.534-2.606a8.209,8.209,0,0,1,4.583-2.292c1.988-.195,3.151-.607,4.274-2.446,1.014-1.661,2.692-4.056,2.257-6.118s-3.271-3.494-3.769-5.459c-.647-2.544,1.369-3.506,3.437-5.093a8.681,8.681,0,0,0,2.83-2.755,2.629,2.629,0,0,0-1.5-3.557,7.819,7.819,0,0,0-2.257-.441c-5.087-.378-5.792,3.741-8.593,8.312C493.4,427.386,490.374,417.876,484.829,412.251Z" transform="translate(-470.665 -411.246)" fill="#ef9351"/>
          </g>
        </g>
        <circle id="Elipse_407" data-name="Elipse 407" cx="10.69" cy="10.69" r="10.69" transform="translate(350.164 83.139)" fill="#009e6a" stroke="#1f140f" stroke-miterlimit="10" stroke-width="0.5"/>
        <path id="Caminho_1084" data-name="Caminho 1084" d="M683.739,170.023c-.074.819,2.108-.458,5.5-.464,2.417,0,6.84,2.687,6.92,1.873s-1.65-4.319-6.668-4.382C685.268,167.021,683.819,169.21,683.739,170.023Z" transform="translate(-328.207 -82.169)" fill="#a0c980"/>
        <path id="PESCOÇO" d="M672.706,415.273c0-3.775,9.166-5.694,12.248-2.291.819,7.751.768,6.055,1.6,13.794a106.229,106.229,0,0,1-14.138.435S672.712,421.512,672.706,415.273Z" transform="translate(-323.373 -186.461)" fill="#a35b1a"/>
        <circle id="Elipse_408" data-name="Elipse 408" cx="10.69" cy="10.69" r="10.69" transform="translate(298.801 100.285)" fill="#f3a51c"/>
        <path id="Caminho_1085" data-name="Caminho 1085" d="M588.26,207.987c.659.876,1.295-2.085,4.01-4.709,1.953-1.868,7.928-2.584,7.27-3.437s-5.156-3.048-9.286.756C586.811,203.782,587.6,207.11,588.26,207.987Z" transform="translate(-287.179 -95.574)" fill="#f8c573"/>
        <path id="Caminho_1086" data-name="Caminho 1086" d="M566.325,307.338c-7.9-8.708-15.06-50.074-20.9-60.265-19.168-33.564,7.774-29.846,35.025-46.723,20.256-12.546,35.46-14.82,58.81-3.615,26.243,12.6,38.41,33.117,39.917,61.542.172,3.271-10.495,23.757-11.87,26.73s-6.977,1.667-10.237,1.363Z" transform="translate(-266.366 -91.758)" fill="url(#linear-gradient-2)"/>
        <path id="Caminho_1087" data-name="Caminho 1087" d="M595.492,101.761c-4.337,2.469-8.347,6.3-8.215,11.119s6.662,9.469,10.85,6.806c-5.66,1.289-11.148,3.747-14.556,7.98s-4.291,10.478-1.048,15.2,11.016,6.766,15.421,3.391c-4.3,3.781-7.968,8.4-9.206,13.84a15.937,15.937,0,0,0,5.064,15.7c4.709,3.9,12.649,4.422,16.613.355-1.782,5.219-2.051,11.761,2.435,15.782,4.01,3.592,16.1-1.4,16.1-1.4s18.6,10.157,20.2-4.549c8.891,12.506,18.99,7.946,25.584.573,3.563-4.01,6.3-11.457,1.192-14.253,5.729-.057,9.687.292,14.894-1.558s6.41-7.659,6.977-12.838-7.447-12.6-13.176-12.54c8.564.647,16.613-5.465,17.426-13.2s-5.763-15.971-14.213-17.753c5.58-7.333,4.314-18.607-2.864-25.469-2.291-2.171-5.236-3.97-8.415-4.085-5.494-.189-9.229,4.428-12.03,8.593.6-6.09-5.047-12.465-11.767-13.279s-13.245,4.079-13.582,10.18c-5.007-2.8-10.174-5.66-15.851-6.554s-12.03.67-14.763,5.1.2,11.583,5.883,12.414C609.206,97.029,601.118,98.564,595.492,101.761Z" transform="translate(-284.111 -45.019)" fill="url(#linear-gradient-3)"/>
        <path id="Caminho_1088" data-name="Caminho 1088" d="M674.924,307.328c-3.872-1.512-8.954.1-9.681,4.354-.074.435-.218,3.1-.733,3.139a13.226,13.226,0,0,0-3.265.43c.189,0-15.324.974-22.4-7.59-2.291-2.755-12.03-10.145-15.7-9.9-21.66,1.426-20.314-12.322-21.952-19.827-23.705-20.967-57.8-30.167-55.4,18.1,0,.521,15.6,22.376,7.968,32.252-6.817,8.828,16.968,42.071,50.366,32.269,16.115-4.732,54.949-24.238,61.01-35.724a.728.728,0,0,1,1.255-.069,10.953,10.953,0,0,0,4.085,2.836,4.432,4.432,0,0,0,.813.264c4.99.922,11.669-5.333,11.566-10.672C682.773,312.518,678.808,308.84,674.924,307.328Z" transform="translate(-269.233 -122.259)" fill="#ce7c3e"/>
        <path id="Caminho_1089" data-name="Caminho 1089" d="M587.419,332.426c2.939,3,4.795,7.1,6.1,11.629.928,3.214-4.01,7-6.468,4.766-3.58-3.265-6.359-9.269-7.178-13.227C578.981,331.315,583.725,328.662,587.419,332.426Z" transform="translate(-283.795 -152.038)" fill="#1c1b1c"/>
        <path id="Caminho_1090" data-name="Caminho 1090" d="M622.76,358.342c-.825-3.758-2.555-2.641-3.334,1.53-1.363,7.258-3.7,14.322-9.767,19.139-10.042,7.94-12.425,6.96-18.223,7.751-4.291.573-13.835-.573-10.145,1.4C598.528,397.406,626.552,375.7,622.76,358.342Z" transform="translate(-284.094 -162.899)" fill="#1c1b1c"/>
        <path id="Caminho_1091" data-name="Caminho 1091" d="M582.5,315.824c.39,1.719-1.753,3.053-2.864,1.455-1.988-2.778-3.93-4.915-7.447-5.62-2.864-.573-5.316.945-7.9,1.747a1.971,1.971,0,0,1-2.137-3.116C567.548,303.055,580.7,307.8,582.5,315.824Z" transform="translate(-276.085 -141.829)" fill="#1c1b1c"/>
        <path id="Caminho_1092" data-name="Caminho 1092" d="M763.013,347.3c-3.139-.573-5.539,1.117-7.012,3.769a1.547,1.547,0,0,0,1.232,2.12,2.324,2.324,0,0,1,2.549,2.332c-.046,1.753-1.913,1.942-3.2,2.034a.945.945,0,0,0-.619,1.518c2.165,2.458,6.193.1,6.817-2.624a5.156,5.156,0,0,0-2.864-5.757,3.157,3.157,0,0,1,2.933-.476c1.335.43,1.953,1.885,2.612,2.99.487.808,1.719.3,1.85-.51C767.67,350.161,765.459,347.749,763.013,347.3Z" transform="translate(-358.972 -159.112)" fill="#a35b1a"/>
        <path id="VENTA" d="M546.131,378.667c-2.79-2.864,4.549-9.475,5.574-9.618a.224.224,0,0,0,.057-.046c-.71.057-.355,0,.04-.034a7.087,7.087,0,0,1,9.217.773c2.412,2.526,2.784,7.539-.235,9.859C556.047,383.25,550.37,383.015,546.131,378.667Z" transform="translate(-269.162 -167.837)" fill="#864822"/>
        <path id="GOLA" d="M659.27,441.462c0,3,2.922.034,11.9.034s14.15-.521,14.15-3.523c0-1.146-3.649-4.2-4.772-5.8-.435-.624.945,3.328-.951,3.7-2.864.573-8.593.286-12.792.286C663.229,436.157,659.27,440.1,659.27,441.462Z" transform="translate(-317.756 -195.384)" fill="#f3a51c"/>
        <g id="ESQUERDA-2" data-name="ESQUERDA" transform="translate(311.863 369.658)">
          <path id="Caminho_1093" data-name="Caminho 1093" d="M641.6,666.728a87.969,87.969,0,0,1,.71,10.81,125.562,125.562,0,0,1-.825,13.531c-.521,4.927-2.131,9.7-1.283,14.625.722,4.193,6.3,4.806,8.559,1.621,5.259-7.384,4.9-20.468,5.11-29.216.092-3.964,0-7.917-.143-11.864C650.293,663.635,643.992,663.148,641.6,666.728Z" transform="translate(-621.37 -664.164)" fill="#ef9351"/>
          <path id="Caminho_1094" data-name="Caminho 1094" d="M617.249,761.09a3.172,3.172,0,0,0,.327,1.719,2.371,2.371,0,0,0,3.093.573,6.2,6.2,0,0,0,2.24-2.589c2.584-4.583,2.732-14.356,5.757-13.995,2.068.349,1.822,6.3,1.988,10.22a21.239,21.239,0,0,0,.756,5.064,2.57,2.57,0,0,0,5.018-.779c-.1-3.855-1.77-9.9-1.3-13.709a1.146,1.146,0,0,1,2.051-.573l5.929,8.885c.98,1.249,2.658,2.624,3.936,1.678,1.094-.813.682-2.526.086-3.746a30.936,30.936,0,0,0-4.543-6.828c-.98-1.146-2.131-2.555-1.547-3.93.619-1.478,2.767-1.541,4.2-.825s2.629,1.942,4.182,2.337,3.643-.756,3.254-2.292a2.63,2.63,0,0,0-.825-1.232c-2.962-2.8-8.37-3.386-9.372-7.333-.716-2.824,1.4-6.107-.149-8.593-1.26-2.011-3.712-2.028-5.826-2.154a8.329,8.329,0,0,1-4.944-1.719c-1.553-1.306-2.681-1.856-4.812-1.363-1.925.447-4.858.934-6.044,2.71s-.212,4.858-1.277,6.617c-1.381,2.291-3.512,1.5-6.147,1.111a8.958,8.958,0,0,0-4.01-.092,2.67,2.67,0,0,0-1.518,3.615,8.142,8.142,0,0,0,1.289,1.948c3.34,3.958,6.828,1.547,12.122.315C622.142,744.11,617.4,753.058,617.249,761.09Z" transform="translate(-607.512 -687.898)" fill="#ef9351"/>
        </g>
        <path id="DIREITO" d="M657.39,469.038c-1.587-3.586-11.457,14.213-11.915,20.451-2.864,36.944-7.31,78.665-25.744,107.154,2.291,7.934,38.955,7.207,38.955,7.207s12.551-33.106,12.483-40.8c-.224-25.263,3.254-30.934-.613-55.883-.573-3.557-5.671-19.2-2.549-37.053Z" transform="translate(-300.867 -210.958)" fill="url(#linear-gradient-4)"/>
        <path id="Caminho_1095" data-name="Caminho 1095" d="M454.37,245.338,520.421,18.88,721.106,229.189,483.2,274.147" transform="translate(-230.236 -18.88)" opacity="0.51" fill="url(#linear-gradient-5)"/>
        <rect id="Retângulo_1549" data-name="Retângulo 1549" width="9.578" height="62.39" rx="4.789" transform="matrix(0.672, -0.74, 0.74, 0.672, 215.626, 223.001)" fill="#1c1b1c"/>
        <path id="Caminho_1096" data-name="Caminho 1096" d="M2.143,0h0V46.774h0A2.142,2.142,0,0,1,0,44.632V2.137A2.142,2.142,0,0,1,2.143,0Z" transform="matrix(0.672, -0.74, 0.74, 0.672, 225.018, 221.485)" fill="url(#linear-gradient-6)"/>
        <rect id="Retângulo_1550" data-name="Retângulo 1550" width="2.034" height="8.662" rx="1.01" transform="matrix(0.672, -0.74, 0.74, 0.672, 221.818, 225.012)" fill="#dbe4e8"/>
        <rect id="Retângulo_1551" data-name="Retângulo 1551" width="2.034" height="2.641" rx="0.56" transform="matrix(0.672, -0.74, 0.74, 0.672, 229.179, 231.685)" fill="#dbe4e8"/>
        <circle id="Elipse_409" data-name="Elipse 409" cx="12.425" cy="12.425" r="12.425" transform="translate(243.045 370.716)" fill="#4292cc"/>
        <circle id="Elipse_410" data-name="Elipse 410" cx="12.425" cy="12.425" r="12.425" transform="translate(245.147 372.829)" fill="none" stroke="#1c0a2d" stroke-miterlimit="10" stroke-width="2"/>
        <circle id="Elipse_411" data-name="Elipse 411" cx="6.702" cy="6.702" r="6.702" transform="translate(424.613 125.8)" fill="#f3a51c"/>
        <circle id="Elipse_412" data-name="Elipse 412" cx="6.702" cy="6.702" r="6.702" transform="translate(425.747 126.94)" fill="none" stroke="#1c0a2d" stroke-miterlimit="10" stroke-width="1"/>
        <path id="Caminho_1097" data-name="Caminho 1097" d="M168.931,379.807a3.07,3.07,0,0,1-1.9,1.679,3.156,3.156,0,0,1-4.268-2.429l-2.532-9.979-9.057,4.669a3.437,3.437,0,0,1-1.467.424,3.059,3.059,0,0,1-1.444-.281,3.3,3.3,0,0,1-1.6-1.678,2.549,2.549,0,0,1-.1-2.234,3.117,3.117,0,0,1,1.587-1.518l10.6-5.2-3.03-11.979a3.088,3.088,0,0,1,2.028-3.718,3.226,3.226,0,0,1,2.469.1,3.283,3.283,0,0,1,1.839,2.32l2.584,10.237,8.96-4.829a3.065,3.065,0,0,1,2.95-.246,2.979,2.979,0,0,1,1.615,1.719,2.784,2.784,0,0,1-.034,2.2,3.2,3.2,0,0,1-1.558,1.593l-10.512,5.127,3.03,11.979a3,3,0,0,1-.166,2.051Z" transform="translate(-98.673 -159.187)" fill="none" stroke="#1c0a2d" stroke-miterlimit="10" stroke-width="2"/>
        <path id="Caminho_1098" data-name="Caminho 1098" d="M785.768,81.974a2.52,2.52,0,0,1-1.272-1.633,2.584,2.584,0,0,1,2.206-3.368l8.284-1.558-3.351-7.648a2.821,2.821,0,0,1-.269-1.22,2.469,2.469,0,0,1,.3-1.146,2.715,2.715,0,0,1,1.455-1.226,2.091,2.091,0,0,1,1.833.034,2.589,2.589,0,0,1,1.146,1.375l3.712,8.942,9.951-1.868a2.423,2.423,0,0,1,1.667.246,2.464,2.464,0,0,1,1.266,1.6,2.636,2.636,0,0,1-.2,2.016,2.7,2.7,0,0,1-1.982,1.369l-8.5,1.57,3.495,7.573a2.5,2.5,0,0,1,.046,2.429,2.417,2.417,0,0,1-1.484,1.232,2.292,2.292,0,0,1-1.8-.143A2.618,2.618,0,0,1,801.04,89.2l-3.649-8.845L787.44,82.22a2.48,2.48,0,0,1-1.673-.246Z" transform="translate(-371.191 -38.144)" fill="none" stroke="#1c0a2d" stroke-miterlimit="10" stroke-width="2"/>
        <path id="Caminho_1099" data-name="Caminho 1099" d="M396.075,247a6.658,6.658,0,0,1,1.122,5.015,6.335,6.335,0,0,1-5.325,5.35,6.075,6.075,0,0,1,1.054,4.612l-.037.2a5.8,5.8,0,0,1-4.705,4.86,6.229,6.229,0,0,1,1.24,4.959l-.1.564a5.767,5.767,0,0,1-6.391,4.99l-29.755-5.1s-7.984-1.339-9.15-3.515a12.9,12.9,0,0,0-3.428-3.577c-.57-.434-.973-.694-.973-.694L330.49,263.1l5.405-31.584s8.152.855,13.5-.886a9.44,9.44,0,0,0,2.6-1.24c4.674-3.335,12.565-13.446,14.394-19.143s1.023-9.974,2.188-12.782,11.505-3.292,11.815,12.919a42.388,42.388,0,0,1-2.777,16.483c-.353.874-.713,1.674-1.066,2.405l19.5,3.335a6.2,6.2,0,0,1,3.316,1.717,7.563,7.563,0,0,1,2.046,6.67A7.439,7.439,0,0,1,396.075,247Z" transform="translate(-281.143 -135.512)" fill="#f8c798"/>
        <path id="Caminho_1100" data-name="Caminho 1100" d="M329.9,246.643l-6.28,36.7a3.1,3.1,0,0,1-3.6,2.548l-24.678-4.222a3.1,3.1,0,0,1-2.411-4.122l6.174-17.277,6.528-18.33a3.1,3.1,0,0,1,3.465-2.027l18.256,3.137a3.1,3.1,0,0,1,2.548,3.6Z" transform="translate(-266.793 -152.203)" fill="#4292cc"/>
        <path id="Caminho_1101" data-name="Caminho 1101" d="M295.463,289.14l-2.579,7.16a3.1,3.1,0,0,0,2.411,4.122l24.678,4.222a3.1,3.1,0,0,0,3.6-2.548l1.351-7.91Z" transform="translate(-266.778 -170.934)" fill="#1a4a85" opacity="0.3"/>
        <ellipse id="Elipse_413" data-name="Elipse 413" cx="3.422" cy="3.422" rx="3.422" ry="3.422" transform="translate(34.476 118.324)" fill="#1a4a85" opacity="0.3"/>
        <ellipse id="Elipse_414" data-name="Elipse 414" cx="3.422" cy="3.422" rx="3.422" ry="3.422" transform="translate(33.657 117.834)" fill="#1b0d20"/>
        <path id="Caminho_1102" data-name="Caminho 1102" d="M425.473,240.962a7.55,7.55,0,0,0-2.046-6.664h0l-.328-.31h0l-.316-.248-.1-.074-.279-.192-.068-.043-.353-.2-.149-.068c-.087-.05-.18-.087-.267-.13l-.105-.043c-.13-.056-.254-.105-.384-.149h-.093l-.328-.1h-.118c-.136-.037-.279-.068-.422-.093l-5.932-1.017-13.563-2.318q.149-.3.3-.62l.167-.36.155-.36c.056-.118.105-.236.155-.36.1-.229.192-.459.291-.694h0a42.258,42.258,0,0,0,2.789-16.57c-.26-13.638-7.612-15.46-10.637-14.022,2.43,1.86,4.569,5.765,4.705,13.018a40.548,40.548,0,0,1-3.843,18.888l-.508,2.976,21.783,3.719a4.339,4.339,0,0,1,3.6,4.959v.068a7.439,7.439,0,0,1-5.319,6.025A6.658,6.658,0,0,1,415.375,251a6.329,6.329,0,0,1-5.325,5.35,6.082,6.082,0,0,1,1.054,4.618l-.037.192a5.771,5.771,0,0,1-4.73,4.86,6.242,6.242,0,0,1,1.24,4.959l-.1.558a5.752,5.752,0,0,1-6.385,4.99l5.926,1.017a5.767,5.767,0,0,0,6.391-4.99l.1-.564a6.23,6.23,0,0,0-1.24-4.959,5.8,5.8,0,0,0,4.705-4.86l.037-.2a6.075,6.075,0,0,0-1.054-4.612,6.335,6.335,0,0,0,5.325-5.35,6.658,6.658,0,0,0-1.122-5.015A7.439,7.439,0,0,0,425.473,240.962Z" transform="translate(-305.223 -135.5)" fill="#f8c798" opacity="0.5"/>
        <path id="Caminho_1103" data-name="Caminho 1103" d="M368.728,276.768l.093-.558a6.2,6.2,0,0,0-1.24-4.959,5.79,5.79,0,0,0,4.711-4.86v-.2a6.05,6.05,0,0,0-1.054-4.612,6.329,6.329,0,0,0,5.325-5.35,6.658,6.658,0,0,0-1.116-5.015,7.439,7.439,0,0,0,5.319-6.025,7.7,7.7,0,0,0,.1-1.122,7.439,7.439,0,0,0-2.145-5.542h0c-.105-.105-.217-.211-.335-.31h0c-.1-.087-.2-.167-.31-.248h0l-.05-.037h0c-.093-.062-.186-.13-.279-.186l-.074-.05-.347-.2h-.056l-.062-.031-.267-.13-.105-.043a4.119,4.119,0,0,0-.384-.149h-.087c-.112-.031-.217-.068-.329-.093l-.118-.031c-.143-.037-.279-.068-.428-.093L356,233.593l.3-.62c.056-.118.105-.242.161-.36l.031-.068c0-.062.056-.124.081-.18l.05-.112c.05-.118.105-.236.155-.36.093-.229.192-.459.285-.694a42.152,42.152,0,0,0,2.777-16.483,12.254,12.254,0,0,0-.05-1.364,1.962,1.962,0,0,0-.031-.428,8.063,8.063,0,0,0-.074-.868,3.71,3.71,0,0,0-.05-.459q-.05-.391-.093-.763a2.6,2.6,0,0,0-.068-.44l-.13-.738-.074-.366c-.062-.3-.13-.583-.2-.855l-.037-.167c-.087-.335-.18-.651-.279-.955-.031-.087-.062-.167-.087-.248-.074-.217-.149-.428-.229-.62-.037-.105-.081-.2-.118-.3l-.223-.521c-.043-.1-.093-.192-.136-.285s-.161-.322-.248-.477l-.13-.248c-.1-.174-.2-.341-.3-.5,0-.05-.062-.105-.1-.155-.136-.211-.273-.409-.415-.62l-.1-.118c-.112-.143-.229-.285-.341-.415l-.161-.167c-.1-.112-.2-.211-.3-.31l-.174-.161-.3-.267-.167-.143q-.167-.13-.335-.242l-.149-.105c-.155-.105-.316-.2-.471-.3l-.074-.037c-.136-.074-.273-.143-.415-.2s-.112-.05-.167-.074l-.316-.13-.186-.068-.3-.087-.186-.056-.3-.062-.174-.037-.366-.05h-1.544l-.217.043-.167.037-.223.068-.13.043c-.105.043-.2.081-.3.13,0,0-.986.657-1.172,1.1-1.165,2.808-.36,7.079-2.188,12.782s-9.776,15.745-14.456,19.074a9.521,9.521,0,0,1-2.6,1.24,23.974,23.974,0,0,1-5.412.973l.279-1.636a3.1,3.1,0,0,0-2.548-3.6l-18.268-3.1a3.1,3.1,0,0,0-3.465,2.027l-6.527,18.324-6.162,17.3a3.1,3.1,0,0,0,1.73,3.924,3.47,3.47,0,0,0,.682.2l24.678,4.222a3.1,3.1,0,0,0,3.422-1.94,3.253,3.253,0,0,0,.167-.62l.384-2.238,1.271.217s.4.26.973.694a12.987,12.987,0,0,1,3.428,3.577c1.165,2.176,9.143,3.515,9.143,3.515l29.755,5.1A5.787,5.787,0,0,0,368.728,276.768Z" transform="translate(-264.422 -137.169)" fill="none" stroke="#1b0d20" stroke-miterlimit="10" stroke-width="2"/>
        <path id="Caminho_1105" data-name="Caminho 1105" d="M901.2,305.518h0a5.9,5.9,0,0,0-7.378-3.9l-1.759.544a.8.8,0,0,1-1-.527l-.533-1.719a5.9,5.9,0,0,0-7.384-3.89h0a5.9,5.9,0,0,0-3.89,7.379l4.01,13.01a.8.8,0,0,0,1,.521l13.033-4.01a5.9,5.9,0,0,0,3.9-7.413Z" transform="translate(-411.611 -137.148)" fill="#e4566a"/>
        <g id="Grupo_413" data-name="Grupo 413">
          <path id="Caminho_1104" data-name="Caminho 1104" d="M898.224,287.3l-26.644-14.069a9.074,9.074,0,0,0-12.236,3.809l-9.217,17.472a9.08,9.08,0,0,0,3.792,12.265l3.827,2.016a.378.378,0,0,1,.155.5l-4.577,8.616a1.266,1.266,0,0,0,1.535,1.793l14.121-4.846a.4.4,0,0,1,.292,0l11.268,5.969a9.074,9.074,0,0,0,12.265-3.792l9.212-17.455a9.086,9.086,0,0,0-3.792-12.282Z" transform="translate(-398.83 -127.079)" fill="#e4566a"/>
          <path id="Caminho_1106" data-name="Caminho 1106" d="M901.2,305.518h0a5.9,5.9,0,0,0-7.378-3.9l-1.759.544a.8.8,0,0,1-1-.527l-.533-1.719a5.9,5.9,0,0,0-7.384-3.89h0a5.9,5.9,0,0,0-3.89,7.379l4.01,13.01a.8.8,0,0,0,1,.521l13.033-4.01a5.9,5.9,0,0,0,3.9-7.413Z" transform="translate(-411.611 -137.148)" fill="#fdf5f5"/>
          <path id="Caminho_1107" data-name="Caminho 1107" d="M865.386,275.225l26.644,14.052a9.08,9.08,0,0,1,3.792,12.3L886.6,319.049a9.068,9.068,0,0,1-12.259,3.792L863.083,316.9a.412.412,0,0,0-.3,0l-14.121,4.812a1.272,1.272,0,0,1-1.541-1.793l4.548-8.593a.373.373,0,0,0-.155-.5l-3.821-2.016a9.08,9.08,0,0,1-3.8-12.265l9.217-17.472a9.08,9.08,0,0,1,12.271-3.844Z" transform="translate(-396.17 -127.931)" fill="none" stroke="#1b0c2d" stroke-miterlimit="10" stroke-width="2"/>
        </g>
        <ellipse id="Elipse_415" data-name="Elipse 415" cx="4.99" cy="3.357" rx="4.99" ry="3.357" transform="translate(240.803 253.855) rotate(-45)" fill="#ef9351"/>
        <ellipse id="Elipse_416" data-name="Elipse 416" cx="4.99" cy="3.357" rx="4.99" ry="3.357" transform="translate(236.617 249.668) rotate(-45)" fill="#ef9351"/>
        <ellipse id="Elipse_417" data-name="Elipse 417" cx="4.99" cy="3.357" rx="4.99" ry="3.357" transform="translate(232.116 245.909) rotate(-45)" fill="#ef9351"/>
        <g id="Grupo_411" data-name="Grupo 411" transform="translate(-226.292 80)">
          <path id="Caminho_1108" data-name="Caminho 1108" d="M252.047,447.7l-88.828,30.225a17.312,17.312,0,0,0-10.814,21.93l30.225,88.836A17.312,17.312,0,0,0,204.593,599.5L248.4,584.655l-14.709-43.507-11.25,3.837a2.8,2.8,0,0,1-3.56-1.746l-4.836-14a2.83,2.83,0,0,1,1.755-3.585l11.276-3.828L222.443,508.3c-5.348-15.709,1.335-27.53,15.348-32.29l11.5-3.913a2.813,2.813,0,0,1,3.568,1.755l4,11.813a2.813,2.813,0,0,1-1.763,3.568l-7.052,2.4c-7.615,2.594-7.858,6.717-6.053,12.031l3.988,11.754,16.758-5.734a2.813,2.813,0,0,1,3.661,2.082l3.106,14.567a2.812,2.812,0,0,1-1.847,3.249L252.668,534.7l14.718,43.474,26.069-8.866a17.3,17.3,0,0,0,10.805-21.963l-30.225-88.836A17.312,17.312,0,0,0,252.047,447.7Z" transform="translate(-100.863 -201.649)" fill="#485a94"/>
          <path id="Caminho_1109" data-name="Caminho 1109" d="M261.314,450.821l-88.836,30.225a17.312,17.312,0,0,0-10.805,21.963L191.9,591.837a17.312,17.312,0,0,0,21.955,10.772l43.818-14.936-14.709-43.482-11.292,3.845a2.821,2.821,0,0,1-3.568-1.746L223.281,532.3a2.829,2.829,0,0,1,1.755-3.585l11.267-3.829-4.6-13.542c-5.348-15.7,1.335-27.522,15.348-32.29l11.5-3.912a2.812,2.812,0,0,1,3.568,1.763l4.022,11.8a2.821,2.821,0,0,1-1.763,3.577l-7.052,2.4c-7.615,2.594-7.859,6.717-6.053,12.031l3.988,11.712L272,512.74a2.813,2.813,0,0,1,3.661,2.074l3.107,14.575a2.813,2.813,0,0,1-1.847,3.249l-15.012,5.1,14.718,43.482,26.069-8.866A17.312,17.312,0,0,0,313.5,550.4l-30.225-88.836a17.3,17.3,0,0,0-21.964-10.738Z" transform="translate(-102.348 -202.149)" fill="none" stroke="#1c0a2d" stroke-miterlimit="10" stroke-width="2"/>
        </g>
        <g id="Grupo_414" data-name="Grupo 414" transform="translate(-379 18)">
          <path id="Caminho_1110" data-name="Caminho 1110" d="M953.834,491.131l-69.49-16.43a25.4,25.4,0,0,0-30.483,18.848l-8.22,34.74A25.4,25.4,0,0,0,864.5,558.772L933.99,575.2a25.4,25.4,0,0,0,30.483-18.859l8.21-34.73A25.4,25.4,0,0,0,953.834,491.131ZM926.8,530.9l-36.173,7.824a1.341,1.341,0,0,1-1.585-1.616l7.56-31.976a1.341,1.341,0,0,1,2.164-.721l28.613,24.163a1.331,1.331,0,0,1-.579,2.327Z" transform="translate(-397.076 -213.293)" fill="#e12e25"/>
          <path id="Caminho_1111" data-name="Caminho 1111" d="M958.614,495.511l-69.49-16.43a25.4,25.4,0,0,0-30.483,18.859l-8.21,34.73a25.4,25.4,0,0,0,18.848,30.483l69.45,16.451a25.4,25.4,0,0,0,30.482-18.849l8.22-34.74A25.4,25.4,0,0,0,958.614,495.511Zm-27.038,39.8-36.163,7.824a1.341,1.341,0,0,1-1.585-1.626l7.56-31.966a1.341,1.341,0,0,1,2.164-.722l28.613,24.153a1.341,1.341,0,0,1-.589,2.337Z" transform="translate(-396.999 -213.222)" fill="none" stroke="#1b0c2d" stroke-miterlimit="10" stroke-width="2"/>
        </g>
        <rect id="Retângulo_1552" data-name="Retângulo 1552" width="33.61" height="33.61" transform="translate(184.961 21.577) rotate(-14.03)" fill="#edeff0"/>
        <path id="Caminho_1112" data-name="Caminho 1112" d="M423.06,71.469l19.523,8.8L436.23,54.85Z" transform="translate(-216.862 -34.244)" fill="#cfd8dc"/>
        <path id="Caminho_1113" data-name="Caminho 1113" d="M416.569,41.615l-1.358.338L402.121,58.9l-19.512-8.8-1.363.338a4.2,4.2,0,0,0-3.059,5.087L384.328,80a4.2,4.2,0,0,0,5.093,3.053l1.358-.338L384.4,57.294l19.443,8.467,13.176-16.613,6.359,25.418,1.358-.338a4.193,4.193,0,0,0,3.053-5.093l-6.124-24.49A4.2,4.2,0,0,0,416.569,41.615Z" transform="translate(-197.641 -28.536)" fill="#e3463d"/>
        <rect id="Retângulo_1553" data-name="Retângulo 1553" width="33.61" height="33.61" transform="translate(187.115 22.672) rotate(-14.03)" fill="none" stroke="#1c0a2d" stroke-miterlimit="10" stroke-width="2"/>
        <path id="Caminho_1114" data-name="Caminho 1114" d="M426.81,73.379l19.523,8.8L439.98,56.76Z" transform="translate(-218.464 -35.06)" fill="none" stroke="#1c0a2d" stroke-miterlimit="10" stroke-width="2"/>
        <path id="Caminho_1115" data-name="Caminho 1115" d="M420.29,43.524l-1.358.338L405.865,60.813l-19.523-8.8-1.358.338a4.2,4.2,0,0,0-3.076,5.093l6.112,24.461a4.2,4.2,0,0,0,5.1,3.053l1.358-.338-6.336-25.412,19.437,8.467,13.176-16.613,6.353,25.418,1.358-.338a4.2,4.2,0,0,0,3.059-5.093l-6.118-24.444a4.2,4.2,0,0,0-5.116-3.082Z" transform="translate(-199.232 -29.352)" fill="none" stroke="#1c0a2d" stroke-miterlimit="10" stroke-width="2"/>
        <g id="Grupo_412" data-name="Grupo 412" transform="translate(-212 -33)">
          <path id="Caminho_1116" data-name="Caminho 1116" d="M113.754,121.069l-32.87,10.38a25.45,25.45,0,0,0-16.591,31.89l10.38,32.891a25.45,25.45,0,0,0,31.89,16.6l32.9-10.38a25.45,25.45,0,0,0,16.591-31.89l-10.373-32.891a25.457,25.457,0,0,0-31.925-16.6Zm34.086,52.074a16.834,16.834,0,0,1-10.991,21.121l-32.891,10.373a16.835,16.835,0,0,1-21.121-10.984l-10.359-32.9a16.841,16.841,0,0,1,10.991-21.121l32.891-10.38a16.842,16.842,0,0,1,21.121,10.991l10.38,32.9Z" transform="translate(-63.116 -62.023)" fill="url(#linear-gradient-7)"/>
          <path id="Caminho_1117" data-name="Caminho 1117" d="M114.5,156.881a22.073,22.073,0,1,0,27.687,14.41A22.073,22.073,0,0,0,114.5,156.881Zm10.7,33.912a13.486,13.486,0,1,1,8.8-16.925,13.486,13.486,0,0,1-8.8,16.925Z" transform="translate(-74.085 -73.003)" fill="url(#linear-gradient-8)"/>
          <circle id="Elipse_418" data-name="Elipse 418" cx="5.287" cy="5.287" r="5.287" transform="translate(56.266 72.094)" fill="url(#linear-gradient-9)"/>
          <path id="Caminho_1118" data-name="Caminho 1118" d="M119.652,124.723,86.761,135.1a25.45,25.45,0,0,0-16.6,31.89l10.38,32.891a25.45,25.45,0,0,0,31.89,16.6l32.9-10.38a25.45,25.45,0,0,0,16.591-31.89l-10.38-32.9A25.45,25.45,0,0,0,119.652,124.723Zm34.107,52.067a16.848,16.848,0,0,1-10.991,21.128l-32.891,10.373A16.835,16.835,0,0,1,88.728,197.3L78.355,164.409a16.834,16.834,0,0,1,10.991-21.093l32.891-10.422a16.841,16.841,0,0,1,21.1,11.005Z" transform="translate(-64.907 -63.14)" fill="none" stroke="#1c0a2d" stroke-miterlimit="10" stroke-width="2"/>
          <path id="Caminho_1119" data-name="Caminho 1119" d="M120.376,160.552a22.073,22.073,0,1,0,27.68,14.389A22.073,22.073,0,0,0,120.376,160.552Zm10.7,33.905a20.645,20.645,0,1,0,0-.014Z" transform="translate(-75.879 -74.124)" fill="none" stroke="#1c0a2d" stroke-miterlimit="10" stroke-width="2"/>
          <circle id="Elipse_419" data-name="Elipse 419" cx="5.287" cy="5.287" r="5.287" transform="translate(60.345 74.63)" fill="none" stroke="#1c0a2d" stroke-miterlimit="10" stroke-width="2"/>
        </g>
      </g>
    </g>
  </g>
</svg>
