<svg xmlns="http://www.w3.org/2000/svg" width="32" height="32" viewBox="0 0 32 32">
  <g id="Grupo_599" data-name="Grupo 599" transform="translate(-151 -450)">
    <rect id="Retângulo_247" data-name="Retângulo 247" width="32" height="32" rx="5" transform="translate(151 450)" fill="#4292cc"/>
    <path id="Caminho_4" data-name="Caminho 4" d="M3.072,3.072A9.3,9.3,0,0,1,10.24,0a9.3,9.3,0,0,1,7.168,3.072A9.3,9.3,0,0,1,20.48,10.24a9.3,9.3,0,0,1-3.072,7.168A9.3,9.3,0,0,1,10.24,20.48a9.3,9.3,0,0,1-7.168-3.072A10.219,10.219,0,0,1,0,10.24,9.3,9.3,0,0,1,3.072,3.072Zm8.533,15.36a4.193,4.193,0,0,0,2.56-1.536,7.454,7.454,0,0,0,1.195-3.584,2.826,2.826,0,0,0-.853-2.048,3,3,0,0,0-2.219-1.024H10.581A4.983,4.983,0,0,1,9.045,9.9,1.549,1.549,0,0,1,8.533,8.7a.887.887,0,0,1,.341-.683,1.294,1.294,0,0,1,.683-.341,1.165,1.165,0,0,1,.853.512c.341.171.512.341.683.341a1.026,1.026,0,0,0,.683-.171,1.026,1.026,0,0,0,.171-.683,2.716,2.716,0,0,0-.853-1.707,7.059,7.059,0,0,0,.853-3.243.367.367,0,0,0-.341-.341,5.276,5.276,0,0,0-1.365-.341A8.537,8.537,0,0,0,5.8,3.413,4.3,4.3,0,0,0,4.267,6.827a4.37,4.37,0,0,0,1.365,3.243,4.663,4.663,0,0,0,3.243,1.365h0v.683a2.191,2.191,0,0,0,.683,1.707,2.485,2.485,0,0,0,1.536,1.024V17.92c0,.171,0,.171.171.341S11.435,18.432,11.605,18.432Z" transform="translate(156.76 455.76)" fill="#fff"/>
  </g>
</svg>
