<svg xmlns="http://www.w3.org/2000/svg" xmlns:xlink="http://www.w3.org/1999/xlink" width="632" height="562.076" viewBox="0 0 632 562.076">
  <defs>
    <linearGradient id="linear-gradient" x1="4.876" y1="-0.179" x2="5.915" y2="-0.179" gradientUnits="objectBoundingBox">
      <stop offset="0" stop-color="#592b21"/>
      <stop offset="1" stop-color="#200c09"/>
    </linearGradient>
    <linearGradient id="linear-gradient-2" x1="0.328" y1="0.345" x2="0.787" y2="0.757" xlink:href="#linear-gradient"/>
    <linearGradient id="linear-gradient-3" y1="0.5" x2="1" y2="0.5" gradientUnits="objectBoundingBox">
      <stop offset="0" stop-color="#fff"/>
      <stop offset="0" stop-color="#4292cc"/>
      <stop offset="1" stop-color="#256b99"/>
    </linearGradient>
    <clipPath id="clip-path">
      <rect id="Retângulo_1505" data-name="Retângulo 1505" width="102.57" height="109.223" transform="translate(0 101.888) rotate(-83.39)" fill="none"/>
    </clipPath>
    <linearGradient id="linear-gradient-4" x1="0" y1="0.5" x2="1" y2="0.5" xlink:href="#linear-gradient-3"/>
  </defs>
  <g id="Grupo_549" data-name="Grupo 549" transform="translate(-43 -92.971)">
    <g id="Grupo_548" data-name="Grupo 548">
      <path id="Caminho_484" data-name="Caminho 484" d="M493.194,822.13l11.16,3.131,9.632-1.046.218,2.009-10.039,3.559-19.536.015,1.37-6.886Z" transform="translate(-119.893 -174.751)" fill="#f3a51c"/>
      <g id="Grupo_341" data-name="Grupo 341">
        <path id="Caminho_482" data-name="Caminho 482" d="M707.3,390.646c0,120.631-174.927,134.824-295.558,134.824S130.66,587.178,130.66,466.554,210.1,128.53,330.729,128.53,707.3,270.007,707.3,390.646Z" transform="translate(-32.298 -3.109)" fill="#4292cc" opacity="0.35"/>
        <path id="Caminho_483" data-name="Caminho 483" d="M488.772,666.207c2.258,33.638-10.031,87.046-3.191,114.182,2.258-.226,4.47-.361,6.713-.5,2.867-36.724,22.057-77.18,25.443-115.6Z" transform="translate(-119.609 -135.688)" fill="#ef9351"/>
        <g id="ROUPA" transform="translate(312.255 366.849)">
          <path id="Caminho_485" data-name="Caminho 485" d="M532.55,595.526c5.554,25.1-35.076,135.607-35.911,141.853-9.828-1.031-17.662-2.671-27.5-3.7.045-9.331-16.006-127.826-1.671-156.866Z" transform="translate(-426.428 -480.892)" fill="#dbe4e8"/>
          <g id="FRENTE">
            <path id="Caminho_486" data-name="Caminho 486" d="M505.83,449.448a.483.483,0,0,0,.075-.1A.483.483,0,0,1,505.83,449.448Z" transform="translate(-437.395 -449.35)" fill="#f6b63e"/>
            <path id="Caminho_487" data-name="Caminho 487" d="M487.841,449.9c7.044.753,18.482,10.1,18.55,10.265.256.647,20.175,112.782,25.368,155.624-30.523,9.151-93.314-7.2-116.869-21.763C430.437,559.544,485.658,449.659,487.841,449.9Z" transform="translate(-414.89 -449.486)" fill="#4292cc"/>
          </g>
          <g id="ESQUERDA" transform="translate(38.279 114.633)">
            <path id="Caminho_488" data-name="Caminho 488" d="M508.193,605.969a81.525,81.525,0,0,0-3.6,9.377,117.265,117.265,0,0,0-3.01,12.206c-.888,4.515-.753,9.173-2.875,13.3-1.791,3.522-6.893,2.529-8.03-.911-2.626-7.977,1.279-19.468,3.5-27.272,1.008-3.537,2.16-7.014,3.379-10.468C501.338,600.844,507.065,602.146,508.193,605.969Z" transform="translate(-471.708 -601.679)" fill="#ef9351"/>
            <path id="Caminho_489" data-name="Caminho 489" d="M492.151,681.219a3.009,3.009,0,0,1-.753,1.445,2.2,2.2,0,0,1-2.89-.354,5.749,5.749,0,0,1-1.272-2.912c-1.023-4.786,1.505-13.455-1.257-13.967-1.926-.256-3.349,5.087-4.568,8.5a19.423,19.423,0,0,1-2.054,4.274,2.382,2.382,0,0,1-4.229-2.07c1.144-3.379,4.282-8.278,4.914-11.777a1.069,1.069,0,0,0-1.663-1.061l-7.691,6.238c-1.2.835-3.07,1.588-3.943.4-.753-1.016.09-2.416.956-3.334a28.719,28.719,0,0,1,5.892-4.8c1.182-.753,2.589-1.678,2.453-3.055s-2.032-2.122-3.492-1.881-2.86,1-4.342.918-3.01-1.663-2.258-2.935a2.424,2.424,0,0,1,1.069-.865c3.386-1.663,8.338-.7,10.31-3.921,1.407-2.3.436-5.787,2.483-7.525,1.671-1.43,3.845-.753,5.749-.308a7.736,7.736,0,0,0,4.846-.15c1.731-.753,2.882-.911,4.636.113,1.58.926,4.041,2.152,4.6,4.056s-1.144,4.357-.677,6.208c.594,2.393,2.694,2.258,5.132,2.672a8.262,8.262,0,0,1,3.575,1.016,2.483,2.483,0,0,1,.354,3.62,7.36,7.36,0,0,1-1.671,1.37c-4.041,2.589-6.472-.5-10.821-3.048C492.474,664.844,494.22,674.077,492.151,681.219Z" transform="translate(-465.756 -611.526)" fill="#ef9351"/>
          </g>
        </g>
        <circle id="Elipse_303" data-name="Elipse 303" cx="10.061" cy="10.061" r="10.061" transform="translate(375.544 224.53)" fill="#009e6a" stroke="#1f140f" stroke-miterlimit="10" stroke-width="0.5"/>
        <circle id="Elipse_304" data-name="Elipse 304" cx="10.061" cy="10.061" r="10.061" transform="translate(386.99 230.272)" fill="#f3a51c"/>
        <path id="Caminho_490" data-name="Caminho 490" d="M515.156,265.209c.075.753-1.979-.436-5.17-.436-2.258,0-6.442,2.529-6.517,1.761s1.55-4.064,6.276-4.124C513.726,262.365,515.088,264.442,515.156,265.209Z" transform="translate(-124.554 -36.24)" fill="#a0c980"/>
        <path id="Caminho_491" data-name="Caminho 491" d="M533.8,276.772c-.256,1.008-1.889-1.332-5.223-2.611-2.378-.911-7.819.647-7.525-.361s3.371-4.515,8.331-2.724C533.5,272.6,534.03,275.771,533.8,276.772Z" transform="translate(-128.904 -38.26)" fill="#f8c573"/>
        <path id="Caminho_492" data-name="Caminho 492" d="M549.463,367.993c3.672-10.453-5.155-48.915-3.808-59.932,4.417-36.122-17.609-23.073-47.41-27.8-22.147-3.507-36.167.045-52.354,18.272-18.189,20.476-21.274,42.714-12.236,67.931,1.038,2.9,17.745,16.8,20.025,18.881s6.66-1.091,9.384-2.544Z" transform="translate(-106.064 -40.359)" fill="url(#linear-gradient)"/>
        <path id="Caminho_493" data-name="Caminho 493" d="M471.557,216.931c4.666.564,9.542,2.438,11.183,6.66s-2.34,10.633-6.946,9.851c5.381-.941,11.04-.805,15.54,1.625s7.525,7.525,6.442,12.793-7.1,9.873-12.146,8.549c5.11,1.716,9.971,4.395,13.019,8.669a15,15,0,0,1,1.324,15.457c-2.664,5.1-9.377,8.443-14.3,6.366,3.447,3.876,6.065,9.452,3.635,14.577-2.175,4.583-14.486,4.643-14.486,4.643s-12.417,15.608-19.19,3.432c-3.161,14.087-13.591,13.809-22,9.783-4.515-2.167-9.648-7.623-6.216-11.928-4.989,2.032-8.278,3.763-13.546,4.071s-8.353-4.312-10.731-8.6,1.881-13.666,6.871-15.675c-7.194,3.68-16.42,1.309-19.927-5.117s-.753-15.954,5.93-20.567c-7.525-4.327-10.535-14.577-6.773-23.141,1.181-2.709,3.093-5.351,5.817-6.607,4.7-2.167,9.617.482,13.546,3.055-2.739-5.065-.151-12.65,5.381-15.8s12.974-1.279,15.487,3.913c3.326-4.252,6.773-8.617,11.371-11.454s10.7-3.8,14.667-.956,4.041,10.129-.587,12.914C457.936,217.819,465.514,216.2,471.557,216.931Z" transform="translate(-95.886 -22.977)" fill="url(#linear-gradient-2)"/>
        <path id="PESCOÇO" d="M522.476,441.146c0-3.552-8.639-5.358-11.521-2.137-.753,7.292-.753,5.7-1.505,12.981a99.474,99.474,0,0,0,13.3.406S522.476,447.008,522.476,441.146Z" transform="translate(-126.035 -79.527)" fill="#a35b1a"/>
        <path id="Caminho_494" data-name="Caminho 494" d="M451.211,386.4c2.807-2.717,7.811-3.168,9.986.256.226.346,1.324,2.619,1.784,2.461a10.942,10.942,0,0,1,3.01-.813c-.181,0,13.651-4.741,16.676-14.75.978-3.221,6.735-13.177,10.024-14.3,19.318-6.645,13.147-18.061,11.837-25.195,12.936-26.828,39.177-47.214,54.657-4.455.165.467-5.4,25.1,4.824,30.892,9.128,5.177.587,42.684-31.968,46.334-15.7,1.753-56.5-1.038-65.945-8.8a.685.685,0,0,0-1.114.4,10.107,10.107,0,0,1-2.513,3.943,4.339,4.339,0,0,1-.6.527c-4,2.619-12.041-.384-13.922-5.057C446.342,393.786,448.389,389.135,451.211,386.4Z" transform="translate(-110.675 -46.766)" fill="#ce7c3e"/>
        <path id="Caminho_495" data-name="Caminho 495" d="M567.47,357.363c-1.46,3.672-1.573,7.909-1.061,12.311.369,3.123,6.02,4.613,7.345,1.783,1.927-4.139,2.152-10.355,1.422-14.095C574.386,353.33,569.306,352.758,567.47,357.363Z" transform="translate(-140.062 -58.935)" fill="#1c1b1c"/>
        <path id="Caminho_496" data-name="Caminho 496" d="M534.737,391.908c-.655-3.56,1.257-3.221,3.454.113,3.823,5.8,8.428,11.1,15.435,13.056,11.6,3.236,13.32,1.505,18.64.09,3.928-1.054,11.792-5.539,9.309-2.476C570.008,416.975,537.762,408.35,534.737,391.908Z" transform="translate(-132.26 -67.659)" fill="#1c1b1c"/>
        <path id="Caminho_497" data-name="Caminho 497" d="M561.557,348.023a1.527,1.527,0,0,0,3.01.211c.753-3.138,1.618-5.7,4.41-7.586,2.258-1.505,4.952-1.114,7.525-1.362a1.851,1.851,0,0,0,.753-3.477C569.88,331.5,560.2,340.407,561.557,348.023Z" transform="translate(-138.898 -54.124)" fill="#1c1b1c"/>
        <path id="Caminho_498" data-name="Caminho 498" d="M455.123,415.682c2.513-1.648,5.215-1.046,7.458.715a1.46,1.46,0,0,1-.294,2.258,2.2,2.2,0,0,0-1.37,2.95c.677,1.505,2.37.993,3.522.6a.9.9,0,0,1,1.091,1.091c-.986,2.92-5.343,2.34-6.871.2a4.861,4.861,0,0,1,.369-6.02,2.965,2.965,0,0,0-2.717.655c-1.008.858-1.016,2.348-1.181,3.544-.128.88-1.4.9-1.791.233C452.128,419.851,453.166,416.961,455.123,415.682Z" transform="translate(-112.021 -73.93)" fill="#a35b1a"/>
        <path id="VENTA" d="M607.922,378.512c1.37-3.522-7.4-6.57-8.338-6.321h-.068c.632-.2.316-.105-.045,0a6.66,6.66,0,0,0-7.721,4.019c-1.174,3.078.331,7.525,3.763,8.474C600.984,386.1,605.845,383.818,607.922,378.512Z" transform="translate(-146.304 -63.362)" fill="#864822"/>
        <path id="DIREITO" d="M514.295,463.544c2.393-2.739,6.216,15.72,4.937,21.38-7.57,33.5-15.118,71.649-6.615,101.923-4.229,6.389-36.46-4.312-36.46-4.312s-2.032-32.75.143-39.546c7.134-22.305,5.606-28.265,15.879-49.306,1.467-3.01,10.295-15.435,12.424-32.1Z" transform="translate(-117.583 -85.527)" fill="url(#linear-gradient-3)"/>
        <path id="GOLA" d="M528.48,461.092c0,2.83-2.747,0-11.19,0s-13.32-.489-13.32-3.319c0-1.054,3.432-3.951,4.515-5.463.406-.579-.9,3.138.888,3.484,2.687.527,8.12.271,12.041.271C524.755,456.088,528.48,459.805,528.48,461.092Z" transform="translate(-124.679 -83.218)" fill="#f3a51c"/>
        <path id="Caminho_499" data-name="Caminho 499" d="M156.192,478.49c21.139-19.491,10.641-18.46-8.842-39.606s-33.541-80.521-54.679-61-48.4,44.949-28.875,66.1S135.053,497.973,156.192,478.49Z" transform="translate(-14.092 -63.855)" fill="#35ad8c" opacity="0.55"/>
        <circle id="Elipse_305" data-name="Elipse 305" cx="41.924" cy="41.924" r="41.924" transform="translate(80.497 278.434)" fill="#2e414f"/>
        <path id="Caminho_500" data-name="Caminho 500" d="M214.47,380.069A41.736,41.736,0,0,0,207.7,357.26s-2.393,3.5-1.942,5.742,3.085,2.416,2.814,4.064-2.212-.467-4.613,3.876-1.2,10.332,2.258,10.776S214.47,380.069,214.47,380.069Z" transform="translate(-50.126 -59.712)" fill="#35ad8c"/>
        <path id="Caminho_501" data-name="Caminho 501" d="M176.941,333.8a41.8,41.8,0,0,1,13.4,6.382s-4.861-.805-6.705.843-4.515,5.546-6.7,0S176.941,333.8,176.941,333.8Z" transform="translate(-43.511 -53.906)" fill="#4bb29c"/>
        <path id="Caminho_502" data-name="Caminho 502" d="M120.74,346.138a41.834,41.834,0,0,1,31.524-14.3s-2.845,1.723,2.544,4.643,2.92,4.267,1.8,5.17-3.07-1.8-4.342-3.6-6.773-4.568-10.934-3.07-7.781,2.6-7.187,4,7.789-1.3,10.483-1.151,1.8,1.8-.753,3.763-2.845,4.342-.143,5.84,6.02,1.648,6.773.753-1.347-6.735,3.763-4.192,9.286,4.041,5.095,7.789-9.076,7.924-9.2,10.325,1.505,4.342.6,4.515-1.723-.978-2.325-1.8-3.364-1.121-4.711-.6-3.9,2.544-2.476,4.515,3.371,1.046,5.32,1.949,3.763,4.312,3.386,5.087-2.032-.2-3.386-2.845-3.906-.9-5.7-1.347-3.138-.753-4.937-3.891-5.516-4.026-7.036-5.84c-4.357-5.2-4.049-9.136-4.944-10.934a37.573,37.573,0,0,0-3.221-4.779Z" transform="translate(-29.843 -53.421)" fill="#35ad8c"/>
        <path id="Caminho_503" data-name="Caminho 503" d="M166.3,388.335s4.515.452,6.735,2.393,2.551,2.7,6.02,3.447,4.944,2.694,2.694,6.442-6.291,9.73-8.233,11.529-4.342,3.3-5.268,6.284-1.2,4.794.753,6.02c0,0-1.046,2.551-3.447-.753s-.444-7.187,0-9.437,1.648-8.978.9-10.626-4.192-2.7-5.095-6.141S162.029,387.3,166.3,388.335Z" transform="translate(-39.834 -67.376)" fill="#35ad8c"/>
        <path id="Caminho_504" data-name="Caminho 504" d="M123.23,344.145a41.929,41.929,0,0,1,59.277,59.315s19.024-25.157-7.909-52.083S123.23,344.145,123.23,344.145Z" transform="translate(-30.459 -53.43)" fill="#263845" opacity="0.6"/>
        <circle id="Elipse_306" data-name="Elipse 306" cx="42.323" cy="42.323" r="42.323" transform="translate(83.583 280.353)" fill="none" stroke="#f3a51c" stroke-miterlimit="10" stroke-width="3" opacity="0.7"/>
        <g id="Grupo_236" data-name="Grupo 236" transform="translate(508.521 189.079)" clip-path="url(#clip-path)">
          <path id="Caminho_505" data-name="Caminho 505" d="M703.507,305.5c4.177,2.122,78.264-56.094,78.264-56.094s3.763-7.473-2.2-10.535l-33.036-16.8c-5.441-2.762-9.256-.384-10.7,2.468s-35.226,69.361-37.04,72.921S699.331,303.381,703.507,305.5Zm0,0" transform="translate(-681.259 -215.034)" fill="#c7cbcb"/>
          <path id="Caminho_506" data-name="Caminho 506" d="M746.424,321.876a6.223,6.223,0,0,1-8.353,2.724l-34.278-17.429a6.208,6.208,0,0,1-2.724-8.346l35.9-70.663a6.223,6.223,0,0,1,8.353-2.724L779.6,242.86a6.223,6.223,0,0,1,2.724,8.353Zm0,0" transform="translate(-681.808 -216.003)" fill="#e3e5e7"/>
        </g>
        <path id="Caminho_507" data-name="Caminho 507" d="M741.473,231.74l39.553,20.1-32.163,63.281L709.31,295.013Zm0,0" transform="translate(-175.493 -28.65)" fill="#2e414f"/>
        <path id="Caminho_508" data-name="Caminho 508" d="M784.746,243.074a.933.933,0,0,1-1.264.354l-11.145-5.667a.888.888,0,1,1,.805-1.58l11.145,5.667a.926.926,0,0,1,.459,1.227Zm0,0" transform="translate(-190.96 -29.72)" fill="#5a6b73"/>
        <path id="Caminho_509" data-name="Caminho 509" d="M784.042,243.546a1.038,1.038,0,0,1-.609-.1l-11.145-5.667a.888.888,0,1,1,.805-1.58.993.993,0,0,0-.594.692c-.09.489,1.211,1.2,1.806,1.505S784.042,243.546,784.042,243.546Zm0,0" transform="translate(-190.948 -29.725)" fill="#2e414f"/>
        <path id="Caminho_510" data-name="Caminho 510" d="M756.454,316.257a6.208,6.208,0,0,1-8.353,2.724L713.823,301.56a6.223,6.223,0,0,1-2.724-8.353l35.918-70.663a6.208,6.208,0,0,1,8.353-2.717l34.278,17.421a6.216,6.216,0,0,1,2.724,8.353Zm0,0" transform="translate(-175.77 -25.534)" fill="none" stroke="#f3a51f" stroke-miterlimit="10" stroke-width="3" opacity="0.7"/>
        <path id="Caminho_511" data-name="Caminho 511" d="M343.6,691.033a3.394,3.394,0,0,1-3.4,3.394H212.644a3.386,3.386,0,0,1-3.394-3.394V605.244a3.394,3.394,0,0,1,3.394-3.394H340.2a3.394,3.394,0,0,1,3.4,3.394Z" transform="translate(-51.746 -120.239)" fill="#e3e5e7"/>
        <path id="Caminho_512" data-name="Caminho 512" d="M308.129,724.87H277.651s-.617,10.189-1.851,12.349h34.18C308.746,735.059,308.129,724.87,308.129,724.87Z" transform="translate(-68.215 -150.682)" fill="#d1d5d5"/>
        <path id="Caminho_513" data-name="Caminho 513" d="M310.872,742.13a7.675,7.675,0,0,1-2.852-.85H273.847a7.676,7.676,0,0,1-2.852.85c-1.851.226-3.085.384-3.085,1.309h46.055C313.965,742.514,312.731,742.356,310.872,742.13Z" transform="translate(-66.262 -154.743)" fill="#c7cbcb"/>
        <path id="Caminho_514" data-name="Caminho 514" d="M340.2,601.88H212.644a3.394,3.394,0,0,0-3.394,3.394V682.3H343.593V605.274a3.386,3.386,0,0,0-3.394-3.394Zm-2.16,75.592H214.8V606.734H338.039Z" transform="translate(-51.746 -120.247)" fill="#2e414f"/>
        <path id="Caminho_515" data-name="Caminho 515" d="M216.63,608.29v70.776H339.865V608.29H216.63Z" transform="translate(-53.572 -121.833)" fill="#4292cc"/>
        <path id="Caminho_516" data-name="Caminho 516" d="M308.649,724.87H278.171s-.09,1.505-.271,3.5h31.02C308.739,726.39,308.649,724.87,308.649,724.87Z" transform="translate(-68.734 -150.682)" fill="#c7cbcb"/>
        <circle id="Elipse_307" data-name="Elipse 307" cx="2.205" cy="2.205" r="2.205" transform="translate(222.485 566.203)" fill="#2e414f"/>
        <path id="Caminho_517" data-name="Caminho 517" d="M359.407,601.88H336.041L286.87,682.3H362.8V605.274a3.386,3.386,0,0,0-3.394-3.394Z" transform="translate(-70.954 -120.247)" fill="#e3e5e7" opacity="0.16"/>
        <path id="Caminho_518" data-name="Caminho 518" d="M350.42,683.2a3.394,3.394,0,0,1-3.394,3.394H219.464a3.394,3.394,0,0,1-3.394-3.394V597.414a3.394,3.394,0,0,1,3.394-3.394H347.026a3.394,3.394,0,0,1,3.394,3.394Z" transform="translate(-53.434 -118.302)" fill="none" stroke="#f3a51c" stroke-miterlimit="10" stroke-width="3" opacity="0.7"/>
        <path id="Caminho_519" data-name="Caminho 519" d="M809.065,581.452c-2.544-.617-9.617-6.479-16.556-10.483a59.352,59.352,0,0,0-28.423-7.443c-8.09.068-16.119,1.964-19.566,1.008-13.23-3.642-19.762-19.438-16.232-32.923h0c3.868-14.757,19.912-24.758,35.008-21.522l56.846,14.885c14.75,4.583,23.125,20.981,19.257,35.738h0C835.818,574.2,822.393,584.711,809.065,581.452Z" transform="translate(-179.955 -97.381)" fill="#293339"/>
        <path id="Caminho_520" data-name="Caminho 520" d="M768.594,540.06l-5.749-1.505,1.505-5.749-9.572-2.506-1.505,5.749-5.749-1.505-2.513,9.572,5.749,1.505-1.505,5.749,9.58,2.513,1.505-5.749,5.749,1.505Z" transform="translate(-184.328 -102.533)" fill="#e3e5e7"/>
        <line id="Linha_11" data-name="Linha 11" x1="4.831" y2="2.83" transform="translate(595.081 455.957)" fill="none" stroke="#ccd4d8" stroke-linecap="round" stroke-linejoin="round" stroke-width="2"/>
        <line id="Linha_12" data-name="Linha 12" x1="4.831" y2="2.83" transform="translate(602.741 457.959)" fill="none" stroke="#ccd4d8" stroke-linecap="round" stroke-linejoin="round" stroke-width="2"/>
        <path id="Caminho_521" data-name="Caminho 521" d="M809.81,505.549l9.279-35.444a8.94,8.94,0,0,1,10.882-6.359h0a8.933,8.933,0,0,1,6.359,10.874l-1.249,4.794a7.939,7.939,0,0,0,5.651,9.67h0a7.947,7.947,0,0,0,9.67-5.652l4.019-15.322" transform="translate(-200.363 -85.992)" fill="none" stroke="#394650" stroke-miterlimit="10" stroke-width="2"/>
        <circle id="Elipse_308" data-name="Elipse 308" cx="4.952" cy="4.952" r="4.952" transform="translate(629.419 440.583)" fill="#f3a51c"/>
        <circle id="Elipse_309" data-name="Elipse 309" cx="4.952" cy="4.952" r="4.952" transform="translate(643.243 450.343)" fill="#1c0a2d"/>
        <circle id="Elipse_310" data-name="Elipse 310" cx="4.952" cy="4.952" r="4.952" transform="translate(615.414 447.152)" fill="#35ad8c"/>
        <circle id="Elipse_311" data-name="Elipse 311" cx="4.952" cy="4.952" r="4.952" transform="translate(629.238 456.913)" fill="#e01227"/>
        <line id="Linha_13" data-name="Linha 13" x2="22.982" y2="6.02" transform="translate(597.361 426.631)" fill="none" stroke="#b0b7bc" stroke-linecap="round" stroke-linejoin="round" stroke-width="2"/>
        <path id="Caminho_522" data-name="Caminho 522" d="M813.569,579.115c-2.536-.617-9.617-6.479-16.556-10.483a59.376,59.376,0,0,0-28.446-7.405c-8.1.068-16.119,1.964-19.566,1.008-13.23-3.642-19.762-19.446-16.225-32.923h0c3.86-14.757,19.9-24.758,35.008-21.523l56.846,14.885c14.742,4.583,23.118,20.981,19.257,35.738h0C840.322,571.853,826.9,582.366,813.569,579.115Z" transform="translate(-181.065 -96.812)" fill="none" stroke="#f3a51f" stroke-miterlimit="10" stroke-width="3" opacity="0.7"/>
        <path id="Caminho_523" data-name="Caminho 523" d="M524.693,126.19c16.556,0,29.951,11.085,29.951,24.751,0,9.843-6.953,18.339-17.015,22.328A25.225,25.225,0,0,0,542.9,182.8s-10.468-3.379-15.314-7.713a30.849,30.849,0,0,1-4.289.294c-16.556,0-28.544-10.761-28.544-24.435S508.145,126.19,524.693,126.19Z" transform="translate(-122.397 -2.53)" fill="#2e414f"/>
        <path id="Caminho_524" data-name="Caminho 524" d="M552.724,182.8a25.224,25.224,0,0,1-5.268-9.527c10.061-3.988,17.015-12.485,17.015-22.328,0-13.666-13.41-24.751-29.951-24.751,0,0,12.989.519,20.793,8.955s8.6,17.226,3.763,25.85-14.531,11.017-14.531,11.017A16.4,16.4,0,0,0,552.724,182.8Z" transform="translate(-132.239 -2.53)" fill="#263845"/>
        <path id="Caminho_525" data-name="Caminho 525" d="M552.635,130s-2.965,8.571-.12,16.654,11.514,16.014,12.936,16.368l1.445-2.784-13.651-29.966Z" transform="translate(-136.386 -3.473)" fill="#1d303b"/>
        <path id="Caminho_526" data-name="Caminho 526" d="M593.557,92.44c-22.441,0-40.637,15.051-40.637,33.578,0,13.35,9.429,24.886,23.088,30.3a22.324,22.324,0,0,1-5.779,10.535s10.355-1.806,16.925-7.691a49.76,49.76,0,0,0,6.4.414c22.441,0,40.637-15.051,40.637-33.578S616,92.44,593.557,92.44Z" transform="translate(-136.792 5.822)" fill="#4292cc"/>
        <path id="Caminho_527" data-name="Caminho 527" d="M570.228,166.881a22.524,22.524,0,0,0,5.779-10.535c-13.659-5.411-23.088-16.947-23.088-30.3,0-18.542,18.2-33.578,40.637-33.578,0,0-17.624.7-28.213,12.146s-11.672,23.366-5.057,35.076S580,154.637,580,154.637,579.673,161.906,570.228,166.881Z" transform="translate(-136.792 5.814)" fill="url(#linear-gradient-4)"/>
        <circle id="Elipse_312" data-name="Elipse 312" cx="5.403" cy="5.403" r="5.403" transform="translate(435.874 126.045)" fill="#e3e5e7"/>
        <circle id="Elipse_313" data-name="Elipse 313" cx="5.403" cy="5.403" r="5.403" transform="translate(452.28 126.045)" fill="#e3e5e7"/>
        <circle id="Elipse_314" data-name="Elipse 314" cx="5.403" cy="5.403" r="5.403" transform="translate(468.685 126.045)" fill="#e3e5e7"/>
        <path id="Caminho_528" data-name="Caminho 528" d="M527.768,122.07c16.556,0,29.951,11.077,29.951,24.751,0,9.836-6.953,18.339-17.015,22.328a25.262,25.262,0,0,0,5.268,9.52s-10.483-3.371-15.329-7.736a29.686,29.686,0,0,1-4.289.293c-16.556,0-28.544-10.761-28.544-24.427S511.22,122.07,527.768,122.07Z" transform="translate(-123.154 -1.511)" fill="none" stroke="#f3a51c" stroke-miterlimit="10" stroke-width="3" opacity="0.7"/>
        <path id="Caminho_529" data-name="Caminho 529" d="M596.637,88.32C574.2,88.32,556,103.371,556,121.9c0,13.35,9.429,24.879,23.088,30.29a22.291,22.291,0,0,1-5.779,10.535s10.355-1.8,16.925-7.683a49.845,49.845,0,0,0,6.4.414c22.441,0,40.637-15.051,40.637-33.578S619.078,88.32,596.637,88.32Z" transform="translate(-137.554 6.841)" fill="none" stroke="#f3a51c" stroke-miterlimit="10" stroke-width="3" opacity="0.7"/>
        <path id="Caminho_530" data-name="Caminho 530" d="M332.338,152.83c0,34.255-38.086,38.3-72.341,38.3s-51.707-4.041-51.707-38.3S277.3,85.41,311.553,85.41,332.338,118.552,332.338,152.83Z" transform="translate(-51.508 7.562)" fill="#f3a51c" opacity="0.6"/>
        <circle id="Elipse_315" data-name="Elipse 315" cx="26.467" cy="26.467" r="26.467" transform="translate(466.585 499.198)" fill="#35ad8c"/>
        <circle id="Elipse_316" data-name="Elipse 316" cx="26.467" cy="26.467" r="26.467" transform="translate(471.063 503.698)" fill="none" stroke="#1c0a2d" stroke-miterlimit="10" stroke-width="2"/>
        <g id="Grupo_260" data-name="Grupo 260" transform="translate(-14.092 7.562)">
          <circle id="Elipse_317" data-name="Elipse 317" cx="19.852" cy="19.852" r="19.852" transform="translate(264.346 328.705)" fill="#4292cc"/>
          <circle id="Elipse_318" data-name="Elipse 318" cx="19.852" cy="19.852" r="19.852" transform="translate(267.703 332.076)" fill="none" stroke="#1c0a2d" stroke-miterlimit="10" stroke-width="2"/>
        </g>
        <path id="Caminho_531" data-name="Caminho 531" d="M132.361,627.435a4.026,4.026,0,0,1-2.483,2.2,4.139,4.139,0,0,1-5.614-3.191l-3.319-13.1-11.905,6.126a4.515,4.515,0,0,1-1.926.557,4.055,4.055,0,0,1-1.889-.361,4.335,4.335,0,0,1-2.1-2.2,3.364,3.364,0,0,1-.135-2.942,4.154,4.154,0,0,1,2.085-1.994L119,605.694l-3.981-15.736a3.943,3.943,0,0,1,.226-2.694,4,4,0,0,1,2.438-2.19,4.274,4.274,0,0,1,5.659,3.176l3.4,13.448,11.762-6.344a4.018,4.018,0,0,1,3.883-.316,3.891,3.891,0,0,1,2.115,2.258,3.627,3.627,0,0,1-.045,2.89,4.215,4.215,0,0,1-2.047,2.1l-13.809,6.75,3.981,15.736A3.943,3.943,0,0,1,132.361,627.435Z" transform="translate(-25.382 -116.024)" fill="none" stroke="#1c0a2d" stroke-miterlimit="10" stroke-width="2"/>
        <path id="Caminho_532" data-name="Caminho 532" d="M155.356,253.851a3.913,3.913,0,0,1-3.131.64,4,4,0,0,1-3.146-5.373l3.537-12.537-12.883-.617a4.312,4.312,0,0,1-1.874-.467,3.914,3.914,0,0,1-1.407-1.212,4.214,4.214,0,0,1-.692-2.852,3.236,3.236,0,0,1,1.309-2.513,3.973,3.973,0,0,1,2.7-.67l14.915,1.016,4.267-15.051a3.763,3.763,0,0,1,1.505-2.137,3.845,3.845,0,0,1,3.093-.647,4.124,4.124,0,0,1,3.191,5.373l-3.65,12.861,12.883.376a3.876,3.876,0,0,1,3.394,1.6,3.763,3.763,0,0,1,.677,2.9,3.5,3.5,0,0,1-1.43,2.393,4.079,4.079,0,0,1-2.717.753l-14.795-1.016-4.259,15.051a3.763,3.763,0,0,1-1.49,2.13Z" transform="translate(-33.553 -23.602)" fill="none" stroke="#f3a51f" stroke-miterlimit="10" stroke-width="2"/>
      </g>
    </g>
  </g>
</svg>
