<svg xmlns="http://www.w3.org/2000/svg" xmlns:xlink="http://www.w3.org/1999/xlink" width="608.361" height="564.112" viewBox="0 0 608.361 564.112">
  <defs>
    <linearGradient id="linear-gradient" x1="8.031" y1="-1.041" x2="9.07" y2="-1.041" gradientUnits="objectBoundingBox">
      <stop offset="0" stop-color="#592b21"/>
      <stop offset="1" stop-color="#200c09"/>
    </linearGradient>
    <linearGradient id="linear-gradient-2" x1="0.328" y1="0.345" x2="0.787" y2="0.757" xlink:href="#linear-gradient"/>
    <linearGradient id="linear-gradient-3" y1="0.5" x2="1" y2="0.5" gradientUnits="objectBoundingBox">
      <stop offset="0" stop-color="#fff"/>
      <stop offset="0" stop-color="#f3a51c"/>
      <stop offset="1" stop-color="#fac819"/>
    </linearGradient>
  </defs>
  <g id="Grupo_547" data-name="Grupo 547" transform="translate(-71 -90.936)">
    <path id="Caminho_533" data-name="Caminho 533" d="M680.292,390.238c0,147.805-48.318,188.743-196.131,188.743s-339.1-40.938-339.1-188.743S385.094,133.41,532.9,133.41,680.292,242.432,680.292,390.238Z" transform="translate(-35.451 -3.062)" fill="#f3a51f" opacity="0.52"/>
    <path id="Caminho_580" data-name="Caminho 580" d="M862.024,232.119c0,42.139,3,84.165-39.1,84.165S735.84,233.4,735.84,191.271s39.939-2.162,82.071-2.162S862.024,190.01,862.024,232.119Z" transform="translate(-182.709 -12.673)" fill="#3f92cc" opacity="0.35"/>
    <g id="Grupo_546" data-name="Grupo 546">
      <path id="Caminho_534" data-name="Caminho 534" d="M488.759,666.2c2.252,33.558-10.007,86.838-3.183,113.91,2.252-.225,4.459-.36,6.7-.5,2.86-36.636,22-77,25.382-115.329Z" transform="translate(-119.808 -135.387)" fill="#ef9351"/>
      <path id="Caminho_535" data-name="Caminho 535" d="M493.173,822.13l11.133,3.123,9.61-1.043.218,2-10.015,3.551-19.489.015L486,822.911Z" transform="translate(-120.093 -174.732)" fill="#1b0d20"/>
      <path id="Caminho_536" data-name="Caminho 536" d="M532.381,595.481c5.54,25.045-34.992,135.283-35.825,141.514-9.8-1.029-17.62-2.665-27.432-3.694.045-9.309-15.968-127.52-1.667-156.491Z" transform="translate(-114.331 -113.584)" fill="#dbe4e8"/>
      <path id="Caminho_537" data-name="Caminho 537" d="M505.83,449.448a.48.48,0,0,0,.075-.1.484.484,0,0,1-.075.1Z" transform="translate(-125.377 -81.813)" fill="#f6b63e"/>
      <path id="Caminho_538" data-name="Caminho 538" d="M487.667,449.9c7.027.751,18.438,10.075,18.506,10.24.255.646,20.127,112.513,25.307,155.253-30.45,9.129-93.092-7.185-116.59-21.711C430.4,559.282,485.49,449.66,487.667,449.9Z" transform="translate(-102.709 -81.95)" fill="#f3a51c"/>
      <path id="Caminho_539" data-name="Caminho 539" d="M508.15,605.959a81.323,81.323,0,0,0-3.589,9.354,117.017,117.017,0,0,0-3,12.177c-.886,4.5-.751,9.152-2.868,13.266-1.787,3.513-6.877,2.522-8.01-.909-2.62-7.958,1.276-19.422,3.491-27.207,1.006-3.529,2.155-7,3.371-10.443C501.31,600.846,507.023,602.145,508.15,605.959Z" transform="translate(-121.383 -119.782)" fill="#ef9351"/>
      <path id="Caminho_540" data-name="Caminho 540" d="M492.088,681.124a3,3,0,0,1-.751,1.441,2.192,2.192,0,0,1-2.883-.353,5.735,5.735,0,0,1-1.269-2.905c-1.021-4.775,1.5-13.423-1.254-13.934-1.922-.255-3.341,5.075-4.557,8.483a19.376,19.376,0,0,1-2.05,4.264,2.377,2.377,0,0,1-4.219-2.065c1.141-3.371,4.272-8.258,4.9-11.749a1.066,1.066,0,0,0-1.659-1.059l-7.672,6.224c-1.2.833-3.063,1.584-3.934.4-.751-1.013.09-2.41.953-3.326a28.648,28.648,0,0,1,5.878-4.79c1.179-.751,2.583-1.674,2.447-3.048s-2.027-2.117-3.483-1.877-2.853,1-4.332.916-3-1.659-2.252-2.928a2.418,2.418,0,0,1,1.066-.863c3.378-1.659,8.318-.7,10.285-3.911,1.4-2.3.435-5.773,2.477-7.507,1.667-1.426,3.836-.751,5.736-.308a7.718,7.718,0,0,0,4.835-.15c1.727-.751,2.875-.909,4.625.113,1.577.923,4.031,2.147,4.587,4.047s-1.141,4.347-.676,6.194c.593,2.387,2.688,2.252,5.12,2.665a8.242,8.242,0,0,1,3.566,1.013,2.477,2.477,0,0,1,.353,3.611,7.347,7.347,0,0,1-1.667,1.366c-4.031,2.583-6.456-.5-10.8-3.04C492.41,664.788,494.152,674,492.088,681.124Z" transform="translate(-115.388 -129.701)" fill="#ef9351"/>
      <circle id="Elipse_319" data-name="Elipse 319" cx="10.037" cy="10.037" r="10.037" transform="translate(375.318 225.557)" fill="#009e6a" stroke="#1f140f" stroke-miterlimit="10" stroke-width="0.5"/>
      <circle id="Elipse_320" data-name="Elipse 320" cx="10.037" cy="10.037" r="10.037" transform="translate(386.737 231.285)" fill="#1b0d20"/>
      <path id="Caminho_541" data-name="Caminho 541" d="M515.128,265.2c.075.751-1.974-.435-5.158-.435-2.252,0-6.426,2.522-6.5,1.757s1.547-4.054,6.261-4.114C513.7,262.365,515.061,264.437,515.128,265.2Z" transform="translate(-124.788 -35.216)" fill="#a0c980"/>
      <path id="Caminho_542" data-name="Caminho 542" d="M533.774,276.757c-.255,1.006-1.884-1.329-5.21-2.605-2.372-.908-7.8.646-7.507-.36s3.363-4.5,8.311-2.718C533.473,272.59,534,275.759,533.774,276.757Z" transform="translate(-129.169 -37.251)" fill="#584660"/>
      <path id="Caminho_543" data-name="Caminho 543" d="M549.175,367.781c3.664-10.428-5.143-48.8-3.8-59.789,4.407-36.035-17.567-23.018-47.3-27.732-22.094-3.5-36.081.045-52.229,18.228-18.145,20.428-21.223,42.612-12.207,67.769,1.036,2.9,17.7,16.764,19.977,18.836s6.644-1.089,9.362-2.537Z" transform="translate(-106.163 -39.365)" fill="url(#linear-gradient)"/>
      <path id="Caminho_544" data-name="Caminho 544" d="M471.357,216.912c4.655.563,9.519,2.432,11.156,6.644s-2.335,10.608-6.929,9.827c5.368-.938,11.013-.8,15.5,1.622s7.507,7.507,6.426,12.763-7.08,9.85-12.117,8.528c5.1,1.712,9.947,4.384,12.988,8.648a14.966,14.966,0,0,1,1.321,15.42c-2.658,5.09-9.354,8.423-14.264,6.351,3.438,3.866,6.051,9.429,3.626,14.542-2.17,4.572-14.452,4.632-14.452,4.632s-12.387,15.57-19.144,3.423c-3.153,14.054-13.558,13.776-21.952,9.76-4.5-2.162-9.625-7.6-6.2-11.9-4.977,2.027-8.258,3.754-13.513,4.061s-8.333-4.3-10.706-8.581,1.877-13.633,6.854-15.638c-7.177,3.671-16.381,1.306-19.88-5.1s-.751-15.916,5.916-20.518c-7.507-4.317-10.51-14.542-6.757-23.085,1.179-2.7,3.086-5.338,5.8-6.591,4.685-2.162,9.594.48,13.513,3.048-2.733-5.052-.15-12.62,5.368-15.766s12.943-1.276,15.45,3.9c3.318-4.242,6.757-8.6,11.344-11.426s10.676-3.791,14.632-.953,4.031,10.1-.586,12.883C457.768,217.8,465.328,216.183,471.357,216.912Z" transform="translate(-95.911 -21.857)" fill="url(#linear-gradient-2)"/>
      <path id="PESCOÇO" d="M522.445,441.137c0-3.543-8.618-5.345-11.494-2.132-.751,7.275-.751,5.683-1.5,12.95a99.242,99.242,0,0,0,13.273.405S522.445,446.985,522.445,441.137Z" transform="translate(-126.279 -78.817)" fill="#a35b1a"/>
      <path id="Caminho_545" data-name="Caminho 545" d="M451.2,386.209c2.8-2.71,7.793-3.161,9.962.255.225.345,1.321,2.613,1.779,2.455a10.916,10.916,0,0,1,3-.811c-.18,0,13.618-4.73,16.636-14.715.976-3.213,6.719-13.145,10-14.264C511.854,352.5,505.7,341.112,504.392,334c12.905-26.764,39.083-47.1,54.526-4.444.165.465-5.383,25.037,4.812,30.818,9.106,5.165.586,42.582-31.891,46.223-15.66,1.749-56.366-1.036-65.787-8.776a.683.683,0,0,0-1.111.4,10.083,10.083,0,0,1-2.508,3.934,4.32,4.32,0,0,1-.6.526c-3.986,2.613-12.012-.383-13.889-5.045C446.344,393.574,448.386,388.935,451.2,386.209Z" transform="translate(-110.808 -45.819)" fill="#ce7c3e"/>
      <path id="Caminho_546" data-name="Caminho 546" d="M567.467,357.356c-1.457,3.664-1.569,7.89-1.059,12.282.368,3.116,6.006,4.6,7.327,1.779,1.922-4.129,2.147-10.33,1.419-14.061C574.366,353.332,569.3,352.761,567.467,357.356Z" transform="translate(-140.408 -58.076)" fill="#1c1b1c"/>
      <path id="Caminho_547" data-name="Caminho 547" d="M534.737,391.9c-.653-3.551,1.254-3.213,3.446.113,3.814,5.788,8.408,11.073,15.4,13.025,11.576,3.228,13.288,1.5,18.6.09,3.919-1.051,11.764-5.525,9.287-2.47C569.924,416.909,537.755,408.305,534.737,391.9Z" transform="translate(-132.55 -66.864)" fill="#1c1b1c"/>
      <path id="Caminho_548" data-name="Caminho 548" d="M561.557,347.991a1.523,1.523,0,0,0,3,.21c.751-3.131,1.614-5.683,4.4-7.567,2.252-1.5,4.94-1.111,7.507-1.359a1.847,1.847,0,0,0,.751-3.468C569.86,331.5,560.2,340.393,561.557,347.991Z" transform="translate(-139.235 -53.23)" fill="#1c1b1c"/>
      <path id="Caminho_549" data-name="Caminho 549" d="M455.117,415.679c2.508-1.644,5.2-1.044,7.44.713a1.456,1.456,0,0,1-.293,2.252,2.194,2.194,0,0,0-1.366,2.943c.676,1.5,2.365.991,3.513.6a.893.893,0,0,1,1.089,1.089c-.983,2.913-5.33,2.335-6.854.2a4.85,4.85,0,0,1,.368-6.006,2.958,2.958,0,0,0-2.71.653c-1.006.856-1.013,2.342-1.179,3.536-.128.878-1.4.893-1.787.233C452.129,419.839,453.165,416.956,455.117,415.679Z" transform="translate(-112.164 -73.18)" fill="#a35b1a"/>
      <path id="VENTA" d="M607.883,378.5c1.366-3.513-7.38-6.554-8.318-6.306H599.5c.631-.2.315-.105-.045,0a6.644,6.644,0,0,0-7.7,4.009c-1.171,3.07.33,7.507,3.754,8.453C600.961,386.064,605.811,383.789,607.883,378.5Z" transform="translate(-146.695 -62.535)" fill="#864822"/>
      <path id="DIREITO" d="M514.2,463.539c2.387-2.733,6.2,15.683,4.925,21.328-7.552,33.415-15.082,71.478-6.6,101.68-4.219,6.374-36.373-4.3-36.373-4.3s-2.027-32.672.143-39.451c7.117-22.252,5.593-28.2,15.841-49.188,1.464-3,10.27-15.4,12.395-32.027Z" transform="translate(-117.766 -84.861)" fill="url(#linear-gradient-3)"/>
      <path id="GOLA" d="M528.422,461.071c0,2.823-2.74,0-11.163,0s-13.288-.488-13.288-3.311c0-1.051,3.423-3.941,4.5-5.45.405-.578-.893,3.131.886,3.476,2.68.526,8.1.27,12.012.27C524.705,456.078,528.422,459.787,528.422,461.071Z" transform="translate(-124.914 -82.536)" fill="#1b0d20"/>
      <path id="Caminho_550" data-name="Caminho 550" d="M318.36,683.445c-20.69,36.981-84.984,19.519-121.958-1.209S168.761,610.8,189.444,573.83,245,599.745,281.972,620.436,339.043,646.471,318.36,683.445Z" transform="translate(-41.99 -109.995)" fill="#1b0d20" opacity="0.2"/>
      <path id="Caminho_554" data-name="Caminho 554" d="M177.851,502.24l-18.311,6.622,1.306,4.092,18.536-7.072Z" transform="translate(-39.061 -94.996)" fill="#1b0d20"/>
      <g id="Grupo_393" data-name="Grupo 393">
        <path id="Caminho_551" data-name="Caminho 551" d="M100.3,420.94,94.1,422.486s-1.9,6.194,1.989,10.248l5.893-1.126Z" transform="translate(-22.632 -74.732)" fill="#1b0d20"/>
        <path id="Caminho_552" data-name="Caminho 552" d="M159.208,444.77l.878,4.122-21.028,3.859-.908-3.6Z" transform="translate(-33.729 -80.671)" fill="#b5b5b4"/>
        <path id="Caminho_553" data-name="Caminho 553" d="M142.49,456.966,160,453.46s4.182,20.458,12.83,37.177l-16.584,5.931" transform="translate(-34.811 -82.838)" fill="#d1d5d5"/>
        <path id="Caminho_555" data-name="Caminho 555" d="M204.926,326.86s-24.91,32.95-39.519,41.291-27.777,7.124-27.777,7.124l7.38,43.663s13.3-4.775,23-3.754,22.965,4.5,57.807,27.515Z" transform="translate(-33.599 -51.281)" fill="#d1d5d5"/>
        <path id="Caminho_556" data-name="Caminho 556" d="M128.56,391.32s-29.834-.631-26.974,25.525,34.354,18.108,34.354,18.108Z" transform="translate(-24.567 -67.348)" fill="#f3a51c"/>
        <path id="Caminho_557" data-name="Caminho 557" d="M138.106,378.488l-.526-3.243s13.213,1.194,27.777-7.125,39.519-41.291,39.519-41.291l.916,5.1s-15.2,18.438-19.076,23.22c-4.309,5.323-12.064,13.453-22.312,18.243C160.478,375.268,150.41,378.376,138.106,378.488Z" transform="translate(-33.587 -51.274)" fill="#e3e5e7"/>
        <path id="Caminho_558" data-name="Caminho 558" d="M244.829,383.279c5.555,32.064,6.8,58.618,2.778,59.308s-11.787-24.729-17.342-56.793-6.794-58.625-2.778-59.308S239.3,351.215,244.829,383.279Z" transform="translate(-55.409 -51.184)" fill="#b5b5b4"/>
        <path id="Caminho_559" data-name="Caminho 559" d="M249.349,417.552c1.194,14.782.683,24.624-1.742,25.045-4.024.7-11.787-24.729-17.342-56.793s-6.794-58.625-2.778-59.308c1.644-.285,3.9,3.754,6.389,10.863,0,0-2.763-5.255-4.94-4.467s2.252,42.154,4.722,53.167,9.009,48.047,12.567,49.151S249.349,417.552,249.349,417.552Z" transform="translate(-55.41 -51.187)" fill="#d1d5d5"/>
        <path id="Caminho_560" data-name="Caminho 560" d="M238.708,415.475s13.243-4.016,10.653-16.907-15.9-11.757-15.9-11.757S235.464,401,238.708,415.475Z" transform="translate(-57.486 -66.218)" fill="#f3a51c"/>
        <path id="Caminho_561" data-name="Caminho 561" d="M130.03,394.555l-.548-3.236s-17.47-.368-24.392,11.186C105.09,402.506,111.546,392.836,130.03,394.555Z" transform="translate(-25.488 -67.348)" fill="#cc8616"/>
        <path id="Caminho_562" data-name="Caminho 562" d="M142.49,457.843l4.655-.863" transform="translate(-34.811 -83.715)" fill="#ba4a3f" opacity="0.37"/>
        <path id="Caminho_563" data-name="Caminho 563" d="M160.3,449.9l.683,2.673-21.246,4.219-.42-3Z" transform="translate(-34.021 -81.95)" fill="#e3e5e7"/>
        <path id="Caminho_564" data-name="Caminho 564" d="M222.652,441.438a2.136,2.136,0,0,0,.165-.255h0c.045-.09.1-.18.143-.278L223,440.8l.1-.248a.919.919,0,0,1,.053-.128l.135-.33a.9.9,0,0,0,.038-.135c.038-.113.068-.233.105-.353v-.09l.113-.5a.465.465,0,0,0,0-.053,2.976,2.976,0,0,1,.09-.48,1.166,1.166,0,0,0,0-.158,1.491,1.491,0,0,1,.068-.428,1.68,1.68,0,0,1,0-.173,3.441,3.441,0,0,1,.06-.465v-.165l.068-.6v-.06c0-.24.045-.48.068-.751v-.068c0-.218.038-.443.053-.668v-.2a3.188,3.188,0,0,1,.038-.593v-1.9h0V428.1c0-.7,0-1.411-.06-2.147v-.225a7,7,0,0,0-.038-.878v-.315a6.19,6.19,0,0,0-.038-.833v-.33l-.045-.908v-.27c-.045-.8-.1-1.607-.158-2.44v-.308l-.068-.938V418.1l-.068-.893v-.248h0c-.593-7.32-1.607-15.863-3-25.067a13.694,13.694,0,0,0,.946-8.934,14.264,14.264,0,0,0-3.754-7.447c-3-15.983-6.516-29.8-9.655-38.776h0v-.09l-.36-.991-.135-.39c-.12-.323-.24-.646-.36-.953l-.113-.278c-.1-.263-.2-.51-.293-.751l-.113-.278c-.12-.3-.24-.578-.353-.856-.045-.09-.083-.18-.12-.27-.12-.278-.24-.555-.36-.818a.975.975,0,0,0-.06-.128c-.105-.24-.21-.465-.323-.683l-.09-.2c-.12-.24-.24-.465-.353-.683l-.083-.165c-.113-.21-.225-.405-.33-.593a.309.309,0,0,1-.038-.068c-.12-.2-.233-.39-.353-.571,0-.045-.053-.083-.075-.12-.113-.18-.225-.338-.338-.5l-.06-.075c-.1-.135-.2-.263-.3-.383l-.053-.06-.315-.338-.068-.06a2.35,2.35,0,0,0-.315-.255h0a1.559,1.559,0,0,0-.285-.158h-.053a1.5,1.5,0,0,0-.285-.083h-.06a1.149,1.149,0,0,0-.278,0,4.1,4.1,0,0,0-.751.285s-1.554,2.065-4.122,5.255c-.315.405-.653.826-1.006,1.261s-.713.893-1.1,1.359l-1.171,1.449c-1.419,1.734-3,3.619-4.67,5.593-8.393,9.865-19.459,21.771-27.447,26.328a53.926,53.926,0,0,1-26.043,7.185c-1.141,0-1.779-.06-1.779-.06h-2.252l-.541.038h-.12l-.533.15h-.128l-.638.068h-.158l-.6.075h-.135l-.751.105H127.6l-.683.12h-.113l-.788.158-.21.038-.751.173h-.068l-.841.2-.225.06-.871.24H123l-.833.255-.233.075c-.293.09-.586.2-.886.3l-.105.038-.811.308-.225.09c-.293.113-.586.24-.886.368l-.143.068-.751.36-.218.105c-.293.143-.578.293-.871.45l-.173.1c-.248.135-.5.278-.751.428a1.694,1.694,0,0,0-.2.12c-.285.173-.563.353-.841.533l-.18.128c-.24.165-.473.338-.706.51l-.173.12c-.263.21-.526.42-.751.638l-.188.158-.668.6-.128.128c-.248.24-.488.48-.751.751-.053.068-.113.128-.173.2a9.189,9.189,0,0,0-.623.751c0,.038-.06.068-.083.105-.225.278-.435.563-.646.856l-.158.225q-.293.428-.563.878v.045h0a21.021,21.021,0,0,0-2.778,11.261l-5.368,1.366s-1.907,6.2,1.982,10.255l5.473-1.051c4.977,11.261,17.59,12.29,25.525,11.681l.863,3.408.39,2.763,2.065-.413,13.581,39.113-.886.323,1.306,4.092,18.528-7.072-1.5-3.641-.886.323c-7.928-15.435-12.072-33.941-12.642-36.606l1.7-.338-.608-2.4-.856-4.024a37.261,37.261,0,0,1,8.8-.173c9.512,1.029,22.522,4.377,55.915,26.276.683.863,1.306,1.284,1.862,1.224h.06a1.033,1.033,0,0,0,.2-.06h.06l.135-.083.068-.053a.525.525,0,0,0,.12-.105l.068-.06c.045-.045.083-.1.128-.15Z" transform="translate(-24.388 -51.049)" fill="none" stroke="#1b0d20" stroke-miterlimit="10" stroke-width="3"/>
      </g>
      <rect id="Retângulo_1506" data-name="Retângulo 1506" width="99.954" height="48.723" transform="translate(674.442 410.349) rotate(167.03)" fill="#35ad8c"/>
      <path id="Caminho_565" data-name="Caminho 565" d="M760.92,471.065l8.8,38.175,87.837-20.225-8.791-38.175Zm83.332,15.976-24.632,5.676c3.243-3.754,4.625-9.64,3.266-15.54-1.449-6.269-5.631-11.051-10.623-12.913l25.4-5.848c.878,3.814,5.556,7.83,9.369,6.952l3.228,14c-3.806.871-6.869,3.874-5.991,7.673ZM768.788,483.4c3.821-.886,6.141-6.509,5.255-10.33l24.474-5.638c-3.671,3.859-5.345,9.985-3.9,16.253,1.359,5.9,5.173,10.585,9.76,12.552L780.642,501.7c-.878-3.821-4.812-5.188-8.626-4.309Z" transform="translate(-188.961 -82.184)" fill="#277d64"/>
      <path id="Caminho_566" data-name="Caminho 566" d="M826.568,480.67a3.472,3.472,0,0,0-.751-.353,6.052,6.052,0,0,0-1.051-.293,7.241,7.241,0,0,0-1.261-.15,6.923,6.923,0,0,0-1.359.083l1.1,4.775h.458a21.148,21.148,0,0,1,2.41.15,6.756,6.756,0,0,1,1.9.51,3.677,3.677,0,0,1,1.374,1.058,4.363,4.363,0,0,1,.818,1.794,4.631,4.631,0,0,1,0,2.192,4.12,4.12,0,0,1-.878,1.719,5.684,5.684,0,0,1-1.6,1.284,9.125,9.125,0,0,1-2.132.818l.555,2.425-1.2.278-.571-2.47a11.964,11.964,0,0,1-3.311.068,10.015,10.015,0,0,1-3.093-.878l.661-2.485a4.8,4.8,0,0,0,.878.428,8.157,8.157,0,0,0,1.276.36,9.648,9.648,0,0,0,1.5.2,9,9,0,0,0,1.682-.045l-1.1-4.775a2.123,2.123,0,0,0-.308,0h-.308a21.007,21.007,0,0,1-2.3-.188,5.884,5.884,0,0,1-1.712-.518,3.6,3.6,0,0,1-1.186-.983,4.13,4.13,0,0,1-.691-1.576,5.024,5.024,0,0,1-.068-2.1,4.457,4.457,0,0,1,.751-1.764,5.541,5.541,0,0,1,1.449-1.381,7.712,7.712,0,0,1,2-.931l-.541-2.335,1.209-.278.533,2.335a9.007,9.007,0,0,1,2.905-.038,10.01,10.01,0,0,1,2.523.706Zm-7.507,2.357a1.727,1.727,0,0,0,1.021,1.3,6.841,6.841,0,0,0,2.252.375l-1.051-4.55a3.43,3.43,0,0,0-1.922,1.141,2.042,2.042,0,0,0-.3,1.734Zm8.438,6.126a1.757,1.757,0,0,0-1.164-1.351,9,9,0,0,0-2.477-.413l1.058,4.572a4.3,4.3,0,0,0,2.147-1.081,1.8,1.8,0,0,0,.443-1.727Z" transform="translate(-202.749 -88.284)" fill="#f3a51c"/>
      <path id="Caminho_567" data-name="Caminho 567" d="M855.857,481.124a3.814,3.814,0,1,0,.48-2.89,3.829,3.829,0,0,0-.48,2.89Z" transform="translate(-212.6 -88.565)" fill="#f3a51c"/>
      <path id="Caminho_568" data-name="Caminho 568" d="M792.12,495.805a3.821,3.821,0,1,1-1.7-2.385A3.829,3.829,0,0,1,792.12,495.805Z" transform="translate(-194.854 -92.653)" fill="#f3a51c"/>
      <rect id="Retângulo_1507" data-name="Retângulo 1507" width="99.954" height="48.723" transform="translate(677.196 405.791) rotate(167.03)" fill="none" stroke="#1b0d20" stroke-miterlimit="10" stroke-width="3"/>
      <path id="Caminho_569" data-name="Caminho 569" d="M755.1,695.6,639.33,663.1a2.763,2.763,0,0,1-1.914-3.408L662.3,571.1a2.763,2.763,0,0,1,3.408-1.914l115.764,32.507a2.763,2.763,0,0,1,1.922,3.363L758.51,693.643A2.763,2.763,0,0,1,755.1,695.6Z" transform="translate(-158.15 -111.658)" fill="#f3a51c"/>
      <rect id="Retângulo_1508" data-name="Retângulo 1508" width="8.647" height="8.647" transform="translate(585.01 544.196) rotate(-74.291)" fill="#e01227"/>
      <rect id="Retângulo_1509" data-name="Retângulo 1509" width="8.671" height="8.671" transform="matrix(0.27, -0.963, 0.963, 0.27, 594.996, 545.154)" fill="#3f92cc"/>
      <path id="Caminho_570" data-name="Caminho 570" d="M803.813,655.038l-12.53-3.513a2.171,2.171,0,1,1,1.171-4.182l12.53,3.521a2.17,2.17,0,0,1-1.171,4.174Z" transform="translate(-196.134 -131.145)" fill="#6c5c4c"/>
      <path id="Caminho_571" data-name="Caminho 571" d="M806.124,646.689l-12.53-3.521a2.17,2.17,0,1,1,1.171-4.174l12.53,3.521a2.17,2.17,0,0,1-1.171,4.174Z" transform="translate(-196.688 -129.057)" fill="#6c5c4c"/>
      <path id="Caminho_572" data-name="Caminho 572" d="M808.467,638.349l-12.522-3.521a2.17,2.17,0,1,1,1.171-4.174l12.522,3.513a2.171,2.171,0,1,1-1.171,4.182Z" transform="translate(-197.274 -126.978)" fill="#6c5c4c"/>
      <path id="Caminho_573" data-name="Caminho 573" d="M810.807,630l-12.522-3.513a2.17,2.17,0,1,1,1.171-4.174l12.522,3.491a2.17,2.17,0,0,1-1.171,4.174Z" transform="translate(-197.857 -124.899)" fill="#6c5c4c"/>
      <path id="Caminho_574" data-name="Caminho 574" d="M785.3,703.036a2.17,2.17,0,0,1,2.673-1.5l3.881,1.1a8.671,8.671,0,1,0-1.171,4.174l-3.881-1.089a2.177,2.177,0,0,1-1.5-2.68Z" transform="translate(-192.349 -142.739)" fill="#566b7a"/>
      <path id="Caminho_575" data-name="Caminho 575" d="M795.406,705.179l-3.881-1.1a2.171,2.171,0,0,0-1.171,4.182l3.881,1.088A7.875,7.875,0,0,0,795.406,705.179Z" transform="translate(-195.902 -145.288)" fill="#e8ecec"/>
      <path id="Caminho_576" data-name="Caminho 576" d="M680.195,585.028a7.507,7.507,0,0,0-9.234,5.188l-17.642,62.822a7.507,7.507,0,0,0,5.188,9.234l32.454,9.114,21.689-77.244Z" transform="translate(-162.071 -115.563)" fill="#293339"/>
      <path id="Caminho_577" data-name="Caminho 577" d="M763.253,607.964,730.8,598.82,709.11,676.064l32.454,9.114a7.507,7.507,0,0,0,9.234-5.188l17.642-62.814a7.507,7.507,0,0,0-5.188-9.212Z" transform="translate(-176.047 -119.07)" fill="#293339"/>
      <path id="Caminho_578" data-name="Caminho 578" d="M707.724,675.682,703.55,674.5l21.689-77.244,4.174,1.171" transform="translate(-174.661 -118.681)" fill="#293339"/>
      <path id="Caminho_579" data-name="Caminho 579" d="M760.894,703.572,645.13,671.065a2.755,2.755,0,0,1-1.914-3.4l24.909-88.632a2.763,2.763,0,0,1,3.408-1.907L787.3,609.632a2.763,2.763,0,0,1,1.914,3.408l-24.887,88.587a2.763,2.763,0,0,1-3.431,1.944Z" transform="translate(-159.596 -113.636)" fill="none" stroke="#1b0d20" stroke-miterlimit="10" stroke-width="3"/>
      <circle id="Elipse_321" data-name="Elipse 321" cx="26.403" cy="26.403" r="26.403" transform="translate(184.089 492.07)" fill="#f3a51c"/>
      <circle id="Elipse_322" data-name="Elipse 322" cx="26.403" cy="26.403" r="26.403" transform="translate(188.557 496.559)" fill="none" stroke="#3f92cc" stroke-miterlimit="10" stroke-width="3"/>
      <circle id="Elipse_323" data-name="Elipse 323" cx="16.081" cy="16.081" r="16.081" transform="translate(122.882 207.502)" fill="#35ad8c"/>
      <circle id="Elipse_324" data-name="Elipse 324" cx="16.081" cy="16.081" r="16.081" transform="translate(125.6 210.235)" fill="none" stroke="#3f92cc" stroke-miterlimit="10" stroke-width="2"/>
      <g id="Grupo_394" data-name="Grupo 394">
        <path id="Caminho_581" data-name="Caminho 581" d="M333.531,180.175l-2.748,15.938h4.3a4.85,4.85,0,0,1,4.947,4.94,4.256,4.256,0,0,1-1.419,3.3,5.06,5.06,0,0,1-3.528,1.276h-5.946l-1.832,10.811a4.677,4.677,0,0,1-1.5,2.838,4.429,4.429,0,0,1-3.063,1.1A4.677,4.677,0,0,1,319.214,219a4.91,4.91,0,0,1-1.329-3.566,5.561,5.561,0,0,1,.09-1.194l1.449-8.633H304.41l-1.832,10.811a4.429,4.429,0,0,1-1.562,2.883,4.707,4.707,0,0,1-3.108,1.051,4.5,4.5,0,0,1-3.438-1.419,5.075,5.075,0,0,1-1.329-3.619,4.459,4.459,0,0,1,.1-1.1l1.464-8.611h-3.3a4.85,4.85,0,0,1-4.947-4.94,4.257,4.257,0,0,1,1.419-3.3,5.082,5.082,0,0,1,3.528-1.276h4.94l2.748-15.938h-4.3a4.85,4.85,0,0,1-4.947-4.947,4.249,4.249,0,0,1,1.419-3.3,5.067,5.067,0,0,1,3.528-1.284h5.863l1.832-10.435a4.587,4.587,0,0,1,1.5-2.838,4.444,4.444,0,0,1,3.07-1.1,4.67,4.67,0,0,1,3.521,1.374,4.925,4.925,0,0,1,1.329,3.574,5.61,5.61,0,0,1-.09,1.194l-1.374,8.258h14.932l1.832-10.435a4.5,4.5,0,0,1,1.562-2.89,4.767,4.767,0,0,1,3.116-1.051,4.5,4.5,0,0,1,3.431,1.419,5.1,5.1,0,0,1,1.329,3.619,5.033,5.033,0,0,1-.09,1.1l-1.374,8.258h3.206a4.857,4.857,0,0,1,4.94,4.947,4.227,4.227,0,0,1-1.419,3.3,5.053,5.053,0,0,1-3.521,1.284Zm-12.455,15.938,2.748-15.938H308.809l-2.748,15.938Z" transform="translate(-70.696 -8.753)" fill="#f3a51c"/>
        <path id="Caminho_582" data-name="Caminho 582" d="M325.971,185.9l-2.748,15.931h4.309a4.857,4.857,0,0,1,4.94,4.947,4.227,4.227,0,0,1-1.419,3.3,5.053,5.053,0,0,1-3.521,1.284h-5.953l-1.832,10.811a4.677,4.677,0,0,1-1.5,2.838,4.452,4.452,0,0,1-3.063,1.1,4.685,4.685,0,0,1-3.529-1.374,4.917,4.917,0,0,1-1.329-3.573,5.479,5.479,0,0,1,.09-1.186l1.5-8.611H296.9l-1.832,10.811a4.459,4.459,0,0,1-1.607,2.9,4.782,4.782,0,0,1-3.116,1.051,4.5,4.5,0,0,1-3.438-1.419,5.09,5.09,0,0,1-1.329-3.619,4.413,4.413,0,0,1,.1-1.1l1.464-8.611h-3.3a4.85,4.85,0,0,1-4.947-4.947,4.249,4.249,0,0,1,1.419-3.3,5.068,5.068,0,0,1,3.528-1.284h4.94l2.748-15.931h-4.3a4.85,4.85,0,0,1-4.947-4.947,4.242,4.242,0,0,1,1.419-3.3,5.067,5.067,0,0,1,3.529-1.284H293.1l1.832-10.435a4.632,4.632,0,0,1,1.5-2.845,4.5,4.5,0,0,1,3.071-1.1,4.67,4.67,0,0,1,3.521,1.374,4.925,4.925,0,0,1,1.329,3.574,5.483,5.483,0,0,1-.09,1.186l-1.374,8.258H317.81l1.832-10.435a4.5,4.5,0,0,1,1.562-2.89,4.767,4.767,0,0,1,3.115-1.051,4.5,4.5,0,0,1,3.431,1.419,5.09,5.09,0,0,1,1.329,3.619,4.914,4.914,0,0,1-.09,1.1l-1.374,8.258h3.206a4.85,4.85,0,0,1,4.94,4.947,4.242,4.242,0,0,1-1.419,3.3,5.052,5.052,0,0,1-3.521,1.284Zm-12.462,15.931,2.748-15.931H301.241l-2.748,15.931Z" transform="translate(-68.812 -10.189)" fill="none" stroke="#1b0d20" stroke-miterlimit="10" stroke-width="2"/>
      </g>
      <path id="Caminho_583" data-name="Caminho 583" d="M591.435,154.849A6.929,6.929,0,0,1,587.2,158.6a7.064,7.064,0,0,1-9.557-5.443l-5.66-22.289-20.27,10.435a7.7,7.7,0,0,1-3.281.946,6.756,6.756,0,0,1-3.221-.616,7.365,7.365,0,0,1-3.574-3.754,5.7,5.7,0,0,1-.225-5,7.034,7.034,0,0,1,3.543-3.4l23.731-11.629-6.757-26.8a6.9,6.9,0,0,1,4.5-8.318,7.275,7.275,0,0,1,9.632,5.413l5.788,22.9,20.045-10.8a6.832,6.832,0,0,1,6.606-.548,6.637,6.637,0,0,1,3.6,3.836,6.268,6.268,0,0,1-.075,4.932,7.17,7.17,0,0,1-3.491,3.566l-23.521,11.456,6.757,26.8a6.7,6.7,0,0,1-.345,4.564Z" transform="translate(-134.129 9.68)" fill="none" stroke="#1c0a2d" stroke-miterlimit="10" stroke-width="2"/>
      <g id="Grupo_396" data-name="Grupo 396">
        <path id="Caminho_584" data-name="Caminho 584" d="M822.658,147.008a5.8,5.8,0,0,1,2.537,3.709,5.533,5.533,0,0,1-2.59,6.066,5.3,5.3,0,0,1,2.342,3.408v.165a5.067,5.067,0,0,1-2.252,5.473,5.435,5.435,0,0,1,2.6,3.619l.105.488a5.03,5.03,0,0,1-3.574,6.119l-25.818,5.5s-6.914,1.5-8.566.105a11.426,11.426,0,0,0-3.941-1.794c-.6-.165-1.013-.248-1.013-.248l-7.883,1.719-5.833-27.4s6.892-1.937,10.668-5.09A8.332,8.332,0,0,0,781.15,147c2.718-4.227,5.848-15.015,5.488-20.21s-2.395-8.431-2.357-11.088,8.258-6.4,13.776,6.667a37.017,37.017,0,0,1,3.078,14.264,20.339,20.339,0,0,1-.083,2.3l16.907-3.6a5.39,5.39,0,0,1,3.251.323,6.622,6.622,0,0,1,3.821,4.752,6.479,6.479,0,0,1-2.372,6.6Z" transform="translate(-190.918 2.004)" fill="#f8c798"/>
        <path id="Caminho_585" data-name="Caminho 585" d="M770.088,161.465l6.757,31.854a2.725,2.725,0,0,1-2.094,3.236l-21.374,4.564a2.725,2.725,0,0,1-3.3-2.568l-.593-16.043-.638-17a2.733,2.733,0,0,1,2.162-2.763l15.848-3.378a2.718,2.718,0,0,1,3.228,2.095Z" transform="translate(-185.952 -9.517)" fill="#f3a51c"/>
        <path id="Caminho_586" data-name="Caminho 586" d="M750.16,200.92l.248,6.637a2.725,2.725,0,0,0,3.3,2.568l21.4-4.557a2.725,2.725,0,0,0,2.095-3.236l-1.456-6.862Z" transform="translate(-186.279 -18.531)" fill="#1a4a85" opacity="0.3"/>
        <circle id="Elipse_325" data-name="Elipse 325" cx="2.988" cy="2.988" r="2.988" transform="translate(569.527 179.289)" fill="#1a4a85" opacity="0.3"/>
        <circle id="Elipse_326" data-name="Elipse 326" cx="2.988" cy="2.988" r="2.988" transform="translate(568.701 179.162)" fill="#1b0d20"/>
        <path id="Caminho_587" data-name="Caminho 587" d="M830.367,140.4a6.621,6.621,0,0,0-3.821-4.752h0l-.375-.143h0l-.338-.1h-.105l-.285-.06h-.075l-.345-.053h-.5a2.765,2.765,0,0,0-.353,0h-.488l-.375.068-5.142,1.1L806.4,138.967a3.438,3.438,0,0,1,.037-.616,1.023,1.023,0,0,0,0-.345v-1.344h0a37.024,37.024,0,0,0-3.078-14.264c-4.625-10.983-11.186-10.09-13.183-7.943,2.575.751,5.578,3.206,8.033,9.009a35.592,35.592,0,0,1,3,16.584l.548,2.575,18.919-4.069a3.814,3.814,0,0,1,4.5,2.853v.068a6.494,6.494,0,0,1-2.372,6.614,5.788,5.788,0,0,1,2.53,3.709,5.526,5.526,0,0,1-2.59,6.066,5.255,5.255,0,0,1,2.35,3.408v.165a5.06,5.06,0,0,1-2.252,5.473,5.443,5.443,0,0,1,2.6,3.619l.105.488a5.03,5.03,0,0,1-3.574,6.119l5.218-1.044a5.03,5.03,0,0,0,3.574-6.119l-.105-.488a5.435,5.435,0,0,0-2.6-3.619,5.068,5.068,0,0,0,2.252-5.473v-.165a5.3,5.3,0,0,0-2.342-3.408,5.533,5.533,0,0,0,2.59-6.066,5.8,5.8,0,0,0-2.537-3.709A6.479,6.479,0,0,0,830.367,140.4Z" transform="translate(-196.254 1.997)" fill="#f8c798" opacity="0.5"/>
        <path id="Caminho_588" data-name="Caminho 588" d="M817.4,174.417l-.1-.488a5.45,5.45,0,0,0-2.6-3.619,5.068,5.068,0,0,0,2.252-5.473l-.038-.173a5.308,5.308,0,0,0-2.342-3.4,5.541,5.541,0,0,0,2.59-6.073,5.834,5.834,0,0,0-2.538-3.709,6.629,6.629,0,0,0,2.095-7.552,6.546,6.546,0,0,0-3.543-3.814h0l-.375-.143h0l-.338-.105h-.105a1.424,1.424,0,0,1-.285-.068h-.075a2.718,2.718,0,0,0-.345-.045H810.31l-.375.06-16.907,3.6V142.4a1.294,1.294,0,0,0,0-.173v-1.1a37.016,37.016,0,0,0-3.078-14.264c-.158-.383-.323-.751-.488-1.1l-.158-.33c-.113-.233-.225-.465-.345-.683s-.12-.24-.188-.36-.218-.4-.323-.586-.135-.225-.2-.338l-.345-.556-.18-.278c-.143-.218-.293-.428-.443-.631l-.083-.12c-.18-.24-.353-.465-.533-.683-.052-.06-.105-.113-.15-.173l-.39-.443-.2-.2c-.113-.12-.233-.233-.345-.345l-.21-.2-.353-.308-.188-.158-.405-.308-.128-.1-.533-.345-.12-.06c-.135-.083-.278-.158-.413-.225l-.18-.09-.345-.15-.2-.075-.33-.12-.18-.06-.353-.09h-.15a3.753,3.753,0,0,0-.48-.083h-.075a3.75,3.75,0,0,0-.4,0h-1.074l-.263.045h-.158l-.308.075h-.083l-.36.12-.082.008a1.27,1.27,0,0,0-.21.09l-.143.068-.173.1-.135.083a1.23,1.23,0,0,0-.165.105l-.12.083-.158.128-.09.083a2.69,2.69,0,0,0-.21.2,3.9,3.9,0,0,0-.593,1.276c-.038,2.658,2,5.863,2.357,11.081s-2.77,15.991-5.488,20.21a8.5,8.5,0,0,1-1.7,1.854,20.817,20.817,0,0,1-4.084,2.538l-.3-1.419a2.725,2.725,0,0,0-3.236-2.095l-15.848,3.371a2.725,2.725,0,0,0-2.155,2.77l.631,17,.593,16.043a2.733,2.733,0,0,0,2.087,2.553,3.129,3.129,0,0,0,.593.075,3.491,3.491,0,0,0,.615-.06l21.4-4.565a3.058,3.058,0,0,0,.525-.165,2.718,2.718,0,0,0,1.629-2.515,2.337,2.337,0,0,0-.06-.556l-.413-1.937,1.1-.24s.413.083,1.013.255a11.261,11.261,0,0,1,3.941,1.794c1.652,1.389,8.566-.105,8.566-.105l25.818-5.5A4.993,4.993,0,0,0,817.4,174.417Z" transform="translate(-185.184 0.864)" fill="none" stroke="#1b0d20" stroke-miterlimit="10" stroke-width="2"/>
      </g>
    </g>
  </g>
</svg>
