<svg xmlns="http://www.w3.org/2000/svg" xmlns:xlink="http://www.w3.org/1999/xlink" width="624" height="586.193" viewBox="0 0 624 586.193">
  <defs>
    <linearGradient id="linear-gradient" x1="-17.818" y1="-26.637" x2="-16.811" y2="-26.637" gradientUnits="objectBoundingBox">
      <stop offset="0" stop-color="#fff"/>
      <stop offset="0" stop-color="#4292cc"/>
      <stop offset="1" stop-color="#256b99"/>
    </linearGradient>
    <linearGradient id="linear-gradient-2" x1="0" y1="0.5" x2="1" y2="0.5" xlink:href="#linear-gradient"/>
    <linearGradient id="linear-gradient-3" x1="11.202" y1="-1.907" x2="12.241" y2="-1.907" gradientUnits="objectBoundingBox">
      <stop offset="0" stop-color="#592b21"/>
      <stop offset="1" stop-color="#200c09"/>
    </linearGradient>
    <linearGradient id="linear-gradient-4" x1="0.328" y1="0.345" x2="0.787" y2="0.757" xlink:href="#linear-gradient-3"/>
    <linearGradient id="linear-gradient-5" y1="0.5" x2="1" y2="0.5" gradientUnits="objectBoundingBox">
      <stop offset="0" stop-color="#fff"/>
      <stop offset="0" stop-color="#1b0c2d"/>
      <stop offset="1" stop-color="#352561"/>
    </linearGradient>
    <linearGradient id="linear-gradient-6" x1="0" y1="0.501" x2="1" y2="0.501" xlink:href="#linear-gradient"/>
    <linearGradient id="linear-gradient-7" x1="0" y1="0.5" x2="1" y2="0.5" xlink:href="#linear-gradient"/>
  </defs>
  <g id="Grupo_550" data-name="Grupo 550" transform="translate(-66 -68.807)">
    <path id="Caminho_589" data-name="Caminho 589" d="M195.236,392.223A81.044,81.044,0,0,1,170.4,504.111c-37.753,24.042-19.256,2.257-43.3-35.525S66.2,418.229,103.951,394.194,171.194,354.47,195.236,392.223Z" transform="translate(-21.748 -62.79)" fill="#f3a51e" opacity="0.4"/>
    <path id="Caminho_590" data-name="Caminho 590" d="M645.639,514.6c23.628-17.082,9.323-1.377,62.367-19.565s115.7-91.8,133.891-38.769a101.519,101.519,0,0,1-63.1,128.978C725.757,603.4,600.188,547.426,645.639,514.6Z" transform="translate(-157.42 -79.571)" fill="#3f92cc" opacity="0.3"/>
    <path id="Caminho_591" data-name="Caminho 591" d="M695.126,355.112c0,139.34-318.907,208.351-458.27,208.351s-16.931-126.178-16.931-265.51S255.646,126,394.978,126,695.126,215.773,695.126,355.112Z" transform="translate(-42.156 -2.502)" fill="#1c0a2d" opacity="0.22"/>
    <path id="Caminho_592" data-name="Caminho 592" d="M488.771,666.206c2.257,33.637-10.031,87.041-3.191,114.176,2.258-.226,4.47-.361,6.712-.5,2.867-36.722,22.056-77.176,25.442-115.6Z" transform="translate(-119.695 -135.729)" fill="#ef9351"/>
    <path id="Caminho_593" data-name="Caminho 593" d="M493.193,822.13l11.159,3.13,9.632-1.046.218,2.009-10.038,3.559-19.535.015,1.37-6.885Z" transform="translate(-119.978 -174.798)" fill="url(#linear-gradient)"/>
    <path id="Caminho_594" data-name="Caminho 594" d="M532.547,595.525c5.553,25.1-35.074,135.6-35.909,141.845-9.828-1.031-17.661-2.671-27.5-3.7.045-9.331-16.006-127.819-1.671-156.858Z" transform="translate(-114.257 -114.08)" fill="#dbe4e8"/>
    <path id="Caminho_595" data-name="Caminho 595" d="M505.83,449.448a.478.478,0,0,0,.075-.1.479.479,0,0,1-.075.1Z" transform="translate(-125.225 -82.533)" fill="#f6b63e"/>
    <path id="Caminho_596" data-name="Caminho 596" d="M487.837,449.9c7.043.753,18.481,10.1,18.549,10.264.256.647,20.174,112.777,25.367,155.616-30.521,9.15-93.309-7.2-116.862-21.762C430.437,559.538,485.655,449.659,487.837,449.9Z" transform="translate(-102.717 -82.669)" fill="#1b0c2d"/>
    <path id="Caminho_597" data-name="Caminho 597" d="M508.192,605.969a81.51,81.51,0,0,0-3.6,9.376,117.288,117.288,0,0,0-3.01,12.206c-.888,4.515-.752,9.173-2.874,13.3-1.791,3.522-6.893,2.528-8.029-.911-2.626-7.976,1.279-19.467,3.5-27.27,1.008-3.537,2.16-7.013,3.379-10.467C501.337,600.844,507.064,602.146,508.192,605.969Z" transform="translate(-121.259 -120.235)" fill="#ef9351"/>
    <path id="Caminho_598" data-name="Caminho 598" d="M492.149,681.217a3.01,3.01,0,0,1-.752,1.445,2.2,2.2,0,0,1-2.89-.354,5.749,5.749,0,0,1-1.272-2.912c-1.023-4.786,1.505-13.455-1.257-13.966-1.926-.256-3.349,5.087-4.568,8.5a19.42,19.42,0,0,1-2.054,4.274,2.382,2.382,0,0,1-4.229-2.069c1.144-3.379,4.282-8.277,4.914-11.777a1.069,1.069,0,0,0-1.663-1.061l-7.69,6.238c-1.2.835-3.07,1.588-3.943.4-.752-1.016.09-2.415.956-3.333a28.718,28.718,0,0,1,5.892-4.8c1.181-.752,2.589-1.678,2.453-3.055s-2.032-2.122-3.492-1.881-2.859,1-4.342.918-3.01-1.663-2.258-2.935a2.424,2.424,0,0,1,1.069-.865c3.386-1.663,8.338-.7,10.309-3.92,1.407-2.3.436-5.787,2.483-7.525,1.671-1.43,3.845-.753,5.749-.309a7.735,7.735,0,0,0,4.846-.151c1.731-.753,2.882-.911,4.635.113,1.58.926,4.041,2.152,4.6,4.056s-1.144,4.357-.677,6.208c.595,2.393,2.694,2.258,5.132,2.671a8.261,8.261,0,0,1,3.574,1.016,2.483,2.483,0,0,1,.354,3.62,7.36,7.36,0,0,1-1.671,1.37c-4.041,2.589-6.471-.5-10.821-3.048C492.473,664.842,494.219,674.076,492.149,681.217Z" transform="translate(-115.307 -130.084)" fill="#ef9351"/>
    <circle id="Elipse_327" data-name="Elipse 327" cx="10.061" cy="10.061" r="10.061" transform="translate(375.458 224.505)" fill="#009e6a" stroke="#1f140f" stroke-miterlimit="10" stroke-width="0.5"/>
    <circle id="Elipse_328" data-name="Elipse 328" cx="10.061" cy="10.061" r="10.061" transform="translate(386.903 230.247)" fill="url(#linear-gradient-2)"/>
    <path id="Caminho_599" data-name="Caminho 599" d="M515.156,265.209c.075.753-1.979-.436-5.17-.436-2.258,0-6.441,2.528-6.517,1.761s1.55-4.063,6.276-4.124C513.726,262.365,515.088,264.441,515.156,265.209Z" transform="translate(-124.64 -36.264)" fill="#a0c980"/>
    <path id="Caminho_600" data-name="Caminho 600" d="M533.8,276.771c-.256,1.008-1.889-1.332-5.222-2.611-2.378-.91-7.818.647-7.525-.361s3.371-4.515,8.33-2.724C533.5,272.6,534.029,275.771,533.8,276.771Z" transform="translate(-128.991 -38.285)" fill="#eeedee"/>
    <path id="Caminho_601" data-name="Caminho 601" d="M549.457,367.988c3.672-10.452-5.155-48.912-3.808-59.929,4.417-36.12-17.608-23.071-47.407-27.8-22.146-3.507-36.165.045-52.351,18.271-18.188,20.475-21.273,42.712-12.236,67.928,1.038,2.9,17.744,16.8,20.024,18.88s6.66-1.091,9.384-2.543Z" transform="translate(-106.147 -40.384)" fill="url(#linear-gradient-3)"/>
    <path id="Caminho_602" data-name="Caminho 602" d="M471.553,216.931c4.666.564,9.542,2.438,11.182,6.66s-2.34,10.633-6.946,9.85c5.38-.941,11.039-.805,15.539,1.625s7.525,7.525,6.441,12.792-7.1,9.873-12.145,8.548c5.109,1.716,9.971,4.395,13.018,8.669a15,15,0,0,1,1.324,15.456c-2.664,5.1-9.376,8.443-14.3,6.366,3.446,3.875,6.065,9.451,3.635,14.576-2.175,4.583-14.486,4.643-14.486,4.643s-12.416,15.607-19.189,3.431c-3.16,14.087-13.59,13.808-22,9.782-4.515-2.167-9.647-7.623-6.216-11.927-4.989,2.032-8.277,3.762-13.545,4.071s-8.353-4.312-10.731-8.6,1.881-13.665,6.87-15.674c-7.194,3.68-16.419,1.309-19.926-5.117s-.753-15.953,5.93-20.566c-7.525-4.327-10.535-14.576-6.772-23.139,1.181-2.709,3.093-5.35,5.817-6.607,4.7-2.167,9.617.482,13.545,3.055-2.739-5.064-.151-12.649,5.38-15.8s12.973-1.279,15.486,3.913c3.326-4.252,6.772-8.616,11.37-11.453s10.7-3.8,14.666-.956,4.041,10.129-.587,12.913C457.932,217.818,465.51,216.2,471.553,216.931Z" transform="translate(-95.967 -22.999)" fill="url(#linear-gradient-4)"/>
    <path id="PESCOÇO" d="M522.476,441.145c0-3.552-8.639-5.358-11.521-2.137-.752,7.292-.752,5.7-1.5,12.981a99.471,99.471,0,0,0,13.3.406S522.476,447.007,522.476,441.145Z" transform="translate(-126.121 -79.558)" fill="#a35b1a"/>
    <path id="Caminho_603" data-name="Caminho 603" d="M451.211,386.4c2.807-2.716,7.811-3.168,9.986.256.226.346,1.324,2.619,1.783,2.461a10.94,10.94,0,0,1,3.01-.813c-.181,0,13.65-4.741,16.675-14.749.978-3.221,6.735-13.176,10.023-14.3,19.317-6.645,13.146-18.06,11.837-25.194,12.935-26.826,39.175-47.212,54.654-4.455.166.467-5.4,25.1,4.824,30.89,9.128,5.177.587,42.682-31.966,46.331-15.7,1.753-56.5-1.038-65.941-8.8a.685.685,0,0,0-1.114.4,10.106,10.106,0,0,1-2.513,3.943,4.336,4.336,0,0,1-.6.527c-4,2.619-12.04-.384-13.921-5.057C446.342,393.781,448.389,389.131,451.211,386.4Z" transform="translate(-110.759 -46.793)" fill="#ce7c3e"/>
    <path id="Caminho_604" data-name="Caminho 604" d="M567.47,357.363c-1.46,3.672-1.573,7.909-1.061,12.311.369,3.123,6.02,4.613,7.344,1.783,1.926-4.139,2.152-10.354,1.422-14.094C574.385,353.33,569.306,352.758,567.47,357.363Z" transform="translate(-140.15 -58.963)" fill="#1c1b1c"/>
    <path id="Caminho_605" data-name="Caminho 605" d="M534.737,391.907c-.655-3.559,1.257-3.221,3.454.113,3.823,5.8,8.428,11.1,15.434,13.056,11.6,3.236,13.319,1.5,18.639.09,3.928-1.053,11.792-5.538,9.308-2.476C570.007,416.973,537.762,408.349,534.737,391.907Z" transform="translate(-132.348 -67.689)" fill="#1c1b1c"/>
    <path id="Caminho_606" data-name="Caminho 606" d="M561.557,348.022a1.527,1.527,0,0,0,3.01.211c.753-3.138,1.618-5.7,4.41-7.585,2.258-1.5,4.951-1.114,7.525-1.362a1.851,1.851,0,0,0,.753-3.477C569.88,331.5,560.2,340.407,561.557,348.022Z" transform="translate(-138.986 -54.152)" fill="#1c1b1c"/>
    <path id="Caminho_607" data-name="Caminho 607" d="M455.123,415.682c2.513-1.648,5.215-1.046,7.457.715a1.46,1.46,0,0,1-.294,2.257,2.2,2.2,0,0,0-1.37,2.95c.677,1.5,2.37.993,3.522.6a.9.9,0,0,1,1.091,1.091c-.986,2.92-5.343,2.34-6.87.2a4.861,4.861,0,0,1,.369-6.02,2.965,2.965,0,0,0-2.717.655c-1.008.858-1.016,2.348-1.181,3.544-.128.88-1.4.9-1.791.233C452.128,419.851,453.166,416.961,455.123,415.682Z" transform="translate(-112.105 -73.96)" fill="#a35b1a"/>
    <path id="VENTA" d="M607.921,378.512c1.37-3.522-7.4-6.569-8.338-6.321h-.068c.632-.2.316-.105-.045,0a6.659,6.659,0,0,0-7.721,4.018c-1.174,3.078.331,7.525,3.763,8.473C600.983,386.1,605.844,383.817,607.921,378.512Z" transform="translate(-146.393 -63.391)" fill="#864822"/>
    <path id="DIREITO" d="M514.293,463.544c2.393-2.739,6.216,15.72,4.936,21.378-7.57,33.493-15.118,71.645-6.614,101.918-4.229,6.389-36.458-4.312-36.458-4.312s-2.032-32.749.143-39.544c7.134-22.3,5.606-28.264,15.878-49.3,1.467-3.01,10.294-15.434,12.424-32.1Z" transform="translate(-117.667 -85.56)" fill="url(#linear-gradient-5)"/>
    <path id="GOLA" d="M528.479,461.091c0,2.829-2.747,0-11.19,0s-13.319-.489-13.319-3.318c0-1.053,3.431-3.951,4.515-5.463.406-.579-.9,3.138.888,3.484,2.686.527,8.119.271,12.04.271C524.754,456.087,528.479,459.8,528.479,461.091Z" transform="translate(-124.765 -83.25)" fill="url(#linear-gradient-6)"/>
    <path id="Caminho_608" data-name="Caminho 608" d="M148.818,274.55a57.942,57.942,0,1,0,53.916,102.543h0Z" transform="translate(-28.9 -39.269)" fill="#1b0c2d"/>
    <path id="Caminho_609" data-name="Caminho 609" d="M237.619,296.668a57.942,57.942,0,0,0-78.259-24.313L213.276,374.9A57.942,57.942,0,0,0,237.619,296.668Z" transform="translate(-39.472 -37.074)" fill="#1b0c2d"/>
    <path id="Caminho_610" data-name="Caminho 610" d="M229.044,304.888A46.7,46.7,0,0,0,166,285.285l43.464,82.669A46.7,46.7,0,0,0,229.044,304.888Z" transform="translate(-41.116 -40.599)" fill="#e9e8e8"/>
    <path id="Caminho_611" data-name="Caminho 611" d="M157.785,287.05a46.7,46.7,0,1,0,43.464,82.67h0Z" transform="translate(-32.9 -42.363)" fill="#fff"/>
    <path id="Caminho_612" data-name="Caminho 612" d="M189.3,370.294l9.9-20.054-24.185-46Z" transform="translate(-43.346 -46.618)" fill="#93c4d6"/>
    <path id="Caminho_613" data-name="Caminho 613" d="M175.01,304.24l24.185,46,22.131,3.213Z" transform="translate(-43.346 -46.618)" fill="url(#linear-gradient-7)"/>
    <path id="Caminho_614" data-name="Caminho 614" d="M241.943,291.995a63.812,63.812,0,0,0-86.183-26.781l2.739,5.207a57.942,57.942,0,0,1,53.916,102.543l2.739,5.215a63.827,63.827,0,0,0,26.789-86.183Z" transform="translate(-38.581 -35.14)" fill="#1b0c2d"/>
    <path id="Caminho_615" data-name="Caminho 615" d="M201.19,375.38a57.942,57.942,0,1,1-53.916-102.543h0l-2.739-5.207h0a63.814,63.814,0,0,0,59.394,112.965h0Z" transform="translate(-27.356 -37.556)" fill="#1b0c2d"/>
    <path id="Caminho_616" data-name="Caminho 616" d="M164.691,277.777a3.725,3.725,0,1,0-1.558,5.034,3.725,3.725,0,0,0,1.558-5.034Z" transform="translate(-39.054 -39.576)" fill="#e01227"/>
    <path id="Caminho_617" data-name="Caminho 617" d="M229.69,401.244a3.725,3.725,0,1,0-1.565,5.027,3.725,3.725,0,0,0,1.565-5.027Z" transform="translate(-55.141 -70.132)" fill="#fff"/>
    <path id="Caminho_618" data-name="Caminho 618" d="M257.354,312.081a3.725,3.725,0,1,0-2.842.261A3.725,3.725,0,0,0,257.354,312.081Z" transform="translate(-62.375 -46.82)" fill="#fff"/>
    <path id="Caminho_619" data-name="Caminho 619" d="M133.879,376.971a3.762,3.762,0,1,0-5.027-1.565,3.762,3.762,0,0,0,5.027,1.565Z" transform="translate(-31.81 -62.859)" fill="#fff"/>
    <path id="Caminho_620" data-name="Caminho 620" d="M128.427,318.684a2.4,2.4,0,1,0,1.415,1.177,2.4,2.4,0,0,0-1.415-1.177Z" transform="translate(-31.046 -50.166)" fill="#fff"/>
    <path id="Caminho_621" data-name="Caminho 621" d="M261.637,360.084a2.4,2.4,0,1,0,1.415,1.177A2.4,2.4,0,0,0,261.637,360.084Z" transform="translate(-64.016 -60.413)" fill="#fff"/>
    <path id="Caminho_622" data-name="Caminho 622" d="M217.316,275.787a2.4,2.4,0,1,0-1.177,1.415,2.4,2.4,0,0,0,1.177-1.415Z" transform="translate(-52.655 -38.805)" fill="#fff"/>
    <ellipse id="Elipse_329" data-name="Elipse 329" cx="2.4" cy="2.4" rx="2.4" ry="2.4" transform="translate(127.959 335.516) rotate(-27.73)" fill="#fff"/>
    <circle id="Elipse_330" data-name="Elipse 330" cx="65.113" cy="65.113" r="65.113" transform="translate(86.71 222.842)" fill="none" stroke="#707070" stroke-miterlimit="10" stroke-width="2"/>
    <path id="Caminho_623" data-name="Caminho 623" d="M686.255,528.5l-2.927,12.266A45.743,45.743,0,0,0,634.9,571.01l-10.467-2.5a5,5,0,0,0-6.02,3.762l15.05,3.589a48.14,48.14,0,0,0-.9,4.966,45.74,45.74,0,0,0,29.55,48.859l-3.07,12.845a5,5,0,0,0,3.665,6.058l4.176-17.473,1.55-6.509.753-3.3h0C650.2,616.792,638.5,597.422,643.1,578.174h0c4.6-19.256,23.779-31.236,42.757-26.706h0l.655-2.716,1.693-7.089,4.033-16.893A5.011,5.011,0,0,0,686.255,528.5Z" transform="translate(-153.089 -101.169)" fill="#1b0c2d"/>
    <path id="Caminho_624" data-name="Caminho 624" d="M774.34,623.519a5,5,0,0,0-3.665-6.057l-13.981-3.341h-.188a47.906,47.906,0,0,1-.9,4.951h0Z" transform="translate(-187.047 -123.314)" fill="#1b0c2d"/>
    <path id="Caminho_625" data-name="Caminho 625" d="M667.178,593.744a23.064,23.064,0,0,0,16.886,27.918l5.4-22.575,5.4-22.575a23.072,23.072,0,0,0-27.677,17.232Z" transform="translate(-164.992 -113.858)" fill="#dbe4e8"/>
    <path id="Caminho_626" data-name="Caminho 626" d="M618.38,587.92a5,5,0,0,0,3.665,6.08l10.467,2.5a48.18,48.18,0,0,1,.9-4.967Z" transform="translate(-153.045 -116.83)" fill="#342151"/>
    <path id="Caminho_627" data-name="Caminho 627" d="M736.245,596.927h0a47.926,47.926,0,0,0,.9-4.951A45.812,45.812,0,0,0,707.6,543.063l2.927-12.266a5,5,0,0,0-3.665-6.058l-4.033,16.893-1.656,7.126-.655,2.716c18.985,4.515,30.687,23.884,26.1,43.141h0c-4.6,19.256-23.779,31.228-42.764,26.7l-.753,3.3-1.55,6.509L677.37,648.6a5.012,5.012,0,0,0,6.02-3.763l3.063-12.853a45.73,45.73,0,0,0,48.438-30.25l.181.06,13.974,3.333a5.012,5.012,0,0,0,6.02-3.763Z" transform="translate(-167.682 -101.192)" fill="#342151"/>
    <path id="Caminho_628" data-name="Caminho 628" d="M717.517,604.565a23.079,23.079,0,0,0-16.886-27.925l-5.4,22.575-5.4,22.575a23.071,23.071,0,0,0,27.677-17.225Z" transform="translate(-170.769 -114.038)" fill="#b9c3c6"/>
    <path id="Caminho_629" data-name="Caminho 629" d="M738.672,599.139l-13.936-3.333h-.188A45.809,45.809,0,0,0,695,546.893l2.927-12.266a4.974,4.974,0,1,0-9.669-2.31l-2.927,12.266a45.743,45.743,0,0,0-48.43,30.243l-10.467-2.5a5.042,5.042,0,0,0-2.34,9.782l10.46,2.5a45.751,45.751,0,0,0,29.558,48.852l-3.07,12.845a4.974,4.974,0,1,0,9.669,2.31l3.07-12.845a45.744,45.744,0,0,0,48.438-30.258l.181.06,13.974,3.341a5.042,5.042,0,0,0,2.34-9.782Zm-24.735-.753c-4.59,19.256-23.779,31.236-42.757,26.7h0c-18.985-4.515-30.687-23.877-26.1-43.133h0c4.6-19.256,23.779-31.236,42.764-26.7h0C706.834,559.768,718.535,579.13,713.938,598.386Z" transform="translate(-153.622 -102.08)" fill="none" stroke="#707070" stroke-miterlimit="10" stroke-width="2"/>
    <ellipse id="Elipse_331" data-name="Elipse 331" cx="23.237" cy="22.906" rx="23.237" ry="22.906" transform="translate(498.241 505.447) rotate(-76.57)" fill="none" stroke="#707070" stroke-miterlimit="10" stroke-width="2"/>
    <path id="Caminho_630" data-name="Caminho 630" d="M597.932,201.772a8.277,8.277,0,0,1-12.13.61l-.309-.309a8.277,8.277,0,0,1,.4-12.13c9.459-8.165,26.127-22.733,32.47-29.438,5.629-5.945,22.8-23.275,22.8-23.275l8.578,8.428s-17.1,17.405-22.951,23.132C620.2,175.231,605.924,192.155,597.932,201.772Z" transform="translate(-144.336 -5.282)" fill="#1b0c2d"/>
    <rect id="Retângulo_1510" data-name="Retângulo 1510" width="43.381" height="73.511" transform="matrix(0.701, -0.713, 0.713, 0.701, 474.118, 111.845)" fill="#1b0c2d"/>
    <rect id="Retângulo_1511" data-name="Retângulo 1511" width="21.687" height="73.511" transform="matrix(0.701, -0.713, 0.713, 0.701, 474.115, 111.835)" fill="#3f2b60"/>
    <rect id="Retângulo_1512" data-name="Retângulo 1512" width="43.382" height="5.945" transform="translate(522.331 159.241) rotate(-45.48)" fill="#3f2b60"/>
    <rect id="Retângulo_1513" data-name="Retângulo 1513" width="47.189" height="9.338" transform="matrix(0.701, -0.713, 0.713, 0.701, 524.181, 163.724)" fill="#dbe3e7"/>
    <rect id="Retângulo_1514" data-name="Retângulo 1514" width="43.382" height="5.885" transform="translate(474.123 111.838) rotate(-45.48)" fill="#3f2b60"/>
    <rect id="Retângulo_1515" data-name="Retângulo 1515" width="47.196" height="9.338" transform="matrix(0.701, -0.713, 0.713, 0.701, 467.008, 107.543)" fill="#dbe3e7"/>
    <rect id="Retângulo_1516" data-name="Retângulo 1516" width="65.395" height="6.69" transform="matrix(1, -0.01, 0.01, 1, 504.636, 202.515)" fill="#3f2b60"/>
    <rect id="Retângulo_1517" data-name="Retângulo 1517" width="77.661" height="6.69" transform="matrix(1, -0.01, 0.01, 1, 498.563, 208.52)" fill="#dbe3e7"/>
    <rect id="Retângulo_1518" data-name="Retângulo 1518" width="32.779" height="6.69" transform="matrix(1, -0.009, 0.009, 1, 536.974, 202.968)" fill="#1b0c2d"/>
    <rect id="Retângulo_1519" data-name="Retângulo 1519" width="38.913" height="6.682" transform="matrix(1, -0.01, 0.01, 1, 537.314, 208.125)" fill="#dbe3e7"/>
    <path id="Caminho_631" data-name="Caminho 631" d="M672.652,147.479l-1.407,1.43,7.006,6.893,34.84-35.435-7.006-6.855-1.415,1.43-3.364-3.311h0L654.8,65.886l-3.364-3.3,1.407-1.43-7.006-6.893-34.84,35.435L618,96.588l1.407-1.43,3.537,3.469h0L641.251,116.6c-4.116,4.161-17.812,18.022-22.823,23.327-6.682,7.058-24.238,22.4-34.193,31a8.683,8.683,0,0,0-.421,12.792l.324.324a8.691,8.691,0,0,0,12.792-.647c8.42-10.106,23.455-27.925,30.4-34.72,5.207-5.1,18.88-18.985,22.981-23.154Z" transform="translate(-143.881 15.254)" fill="none" stroke="#3f92cc" stroke-miterlimit="10" stroke-width="1"/>
    <path id="Caminho_632" data-name="Caminho 632" d="M746.364,240.771l-6.456.06-.053-6.261-34.517.286v.008l-34.344.286.053,6.261-6.456.06.06,7.036,81.774-.692Z" transform="translate(-164.519 -29.374)" fill="none" stroke="#3f92cc" stroke-miterlimit="10" stroke-width="1"/>
    <rect id="Retângulo_1520" data-name="Retângulo 1520" width="12.996" height="44.721" transform="translate(198.308 150.082) rotate(-45)" fill="#1b0c2d"/>
    <g id="Grupo_497" data-name="Grupo 497">
      <rect id="Retângulo_1521" data-name="Retângulo 1521" width="118.993" height="12.996" transform="translate(221.2 172.599) rotate(-45)" fill="#1b0c2d"/>
      <path id="Caminho_633" data-name="Caminho 633" d="M382.482,95.069l-9.4-9.4-76.875,76.875-23.23-23.23-9.4,9.4,32.357,32.357.181-.188.278.278Z" transform="translate(-65.267 7.48)" fill="none" stroke="#5183bf" stroke-miterlimit="10" stroke-width="1"/>
    </g>
    <circle id="Elipse_332" data-name="Elipse 332" cx="34.999" cy="34.999" r="34.999" transform="translate(165.527 500.475)" fill="#35ad8c"/>
    <circle id="Elipse_333" data-name="Elipse 333" cx="34.999" cy="34.999" r="34.999" transform="translate(171.441 506.42)" fill="none" stroke="#1b0c2d" stroke-miterlimit="10" stroke-width="4"/>
    <circle id="Elipse_334" data-name="Elipse 334" cx="21.687" cy="21.687" r="21.687" transform="translate(226.291 423.442)" fill="#1b0c2d"/>
    <circle id="Elipse_335" data-name="Elipse 335" cx="21.687" cy="21.687" r="21.687" transform="translate(229.963 427.137)" fill="none" stroke="#707070" stroke-miterlimit="10" stroke-width="2"/>
    <path id="Caminho_634" data-name="Caminho 634" d="M855.035,340.47a6.885,6.885,0,0,1-4.244,3.763,7.066,7.066,0,0,1-9.572-5.448l-5.674-22.372L815.228,326.88a7.744,7.744,0,0,1-3.288.948,6.773,6.773,0,0,1-3.228-.625,7.412,7.412,0,0,1-3.589-3.762,5.712,5.712,0,0,1-.218-5.012,7.1,7.1,0,0,1,3.552-3.416l23.786-11.656-6.772-26.864a6.7,6.7,0,0,1,.384-4.6,6.818,6.818,0,0,1,4.169-3.762,7.224,7.224,0,0,1,5.538.218,7.3,7.3,0,0,1,4.116,5.2l5.772,22.966,20.084-10.828a6.845,6.845,0,0,1,6.622-.549,6.653,6.653,0,0,1,3.612,3.845,6.2,6.2,0,0,1-.075,4.936,7.21,7.21,0,0,1-3.492,3.574l-23.576,11.513,6.773,26.864A6.7,6.7,0,0,1,855.035,340.47Z" transform="translate(-199.13 -37.57)" fill="none" stroke="#f3a51f" stroke-miterlimit="10" stroke-width="3"/>
    <path id="Caminho_635" data-name="Caminho 635" d="M773.129,405.481a3.53,3.53,0,0,1-2.649-1.2,3.635,3.635,0,0,1,.535-5.628l9.278-7.352L771.128,384a3.853,3.853,0,0,1-1.136-1.339,3.581,3.581,0,0,1-.391-1.64,3.762,3.762,0,0,1,1.008-2.468,2.92,2.92,0,0,1,2.3-1.159,3.619,3.619,0,0,1,2.34.941l10.452,8.676,11.144-8.827a3.446,3.446,0,0,1,2.258-.752,3.507,3.507,0,0,1,2.626,1.159,3.763,3.763,0,0,1-.512,5.659L791.7,391.77l9.263,7.149a3.514,3.514,0,0,1,1.648,3.01,3.394,3.394,0,0,1-1.046,2.5,3.175,3.175,0,0,1-2.325,1,3.762,3.762,0,0,1-2.408-.88l-10.324-8.616-11.145,8.827A3.454,3.454,0,0,1,773.129,405.481Z" transform="translate(-190.457 -64.723)" fill="none" stroke="#f3a51f" stroke-miterlimit="10" stroke-width="3"/>
  </g>
</svg>
