<svg xmlns="http://www.w3.org/2000/svg" width="532.721" height="505.397" viewBox="0 0 532.721 505.397">
  <g id="Grupo_552" data-name="Grupo 552" transform="translate(-45 -118.015)">
    <g id="INFOGRÁFICO_2_-_1svg" data-name="INFOGRÁFICO 2 - 1svg" transform="translate(-56.48 74.466)">
      <path id="Caminho_805" data-name="Caminho 805" d="M620.059,306.465c0,108.11-169.223,242.482-280.625,242.482S209.684,428.932,170.641,327.688C126.3,212.7,173.542,43.55,284.944,43.55S620.059,198.355,620.059,306.465Z" transform="translate(-30.891 0)" fill="#b0e8dc" opacity="0.38"/>
      <path id="Caminho_806" data-name="Caminho 806" d="M507.229,507.27H115.97a14.5,14.5,0,0,1-14.49-14.495v-333.3A14.5,14.5,0,0,1,115.97,145h391.26a14.5,14.5,0,0,1,14.495,14.495V492.775A14.5,14.5,0,0,1,507.229,507.27Z" transform="translate(0 -22.663)" fill="#e5eaf6"/>
      <path id="Caminho_807" data-name="Caminho 807" d="M521.729,217.443H101.48V159.479A14.5,14.5,0,0,1,115.97,145h391.26a14.5,14.5,0,0,1,14.495,14.495Z" transform="translate(0 -22.663)" fill="#35ad8c"/>
      <rect id="Retângulo_1535" data-name="Retângulo 1535" width="420.244" height="14.49" transform="translate(101.48 194.78)" fill="#e5eaf6"/>
      <circle id="Elipse_370" data-name="Elipse 370" cx="21.737" cy="21.737" r="21.737" transform="translate(141.333 133.19)" fill="#2b8769"/>
      <path id="Caminho_808" data-name="Caminho 808" d="M209.419,175.184h0a10.863,10.863,0,0,1-10.868-10.863V128.068A10.868,10.868,0,0,1,209.418,117.2h0a10.868,10.868,0,0,1,10.868,10.868v36.226a10.868,10.868,0,0,1-10.868,10.889Z" transform="translate(-46.349 -9.389)" fill="#c7cfe2"/>
      <path id="Caminho_809" data-name="Caminho 809" d="M209.419,176.639A10.868,10.868,0,0,1,198.55,165.77v21.742a10.868,10.868,0,1,0,21.737,0V165.77a10.868,10.868,0,0,1-10.868,10.868Z" transform="translate(-46.349 -32.58)" fill="#b0bad2"/>
      <circle id="Elipse_371" data-name="Elipse 371" cx="21.737" cy="21.737" r="21.737" transform="translate(438.402 133.19)" fill="#2b8769"/>
      <path id="Caminho_810" data-name="Caminho 810" d="M777.949,175.184h0a10.863,10.863,0,0,1-10.868-10.863V128.068A10.868,10.868,0,0,1,777.949,117.2h0a10.868,10.868,0,0,1,10.868,10.868v36.226a10.868,10.868,0,0,1-10.868,10.889Z" transform="translate(-317.809 -9.389)" fill="#c7cfe2"/>
      <path id="Caminho_811" data-name="Caminho 811" d="M777.949,176.639A10.868,10.868,0,0,1,767.08,165.77v21.742a10.868,10.868,0,1,0,21.737,0V165.77A10.868,10.868,0,0,1,777.949,176.639Z" transform="translate(-317.809 -32.58)" fill="#b0bad2"/>
      <path id="Caminho_812" data-name="Caminho 812" d="M277.9,444.667H248.927a7.247,7.247,0,0,1-7.247-7.242V415.688a7.247,7.247,0,0,1,7.247-7.247H277.9a7.247,7.247,0,0,1,7.247,7.247v21.737A7.242,7.242,0,0,1,277.9,444.667Z" transform="translate(-66.942 -148.45)" fill="#c7cfe2"/>
      <path id="Caminho_813" data-name="Caminho 813" d="M388.868,444.667h-29.01a7.247,7.247,0,0,1-7.247-7.242V415.688a7.247,7.247,0,0,1,7.247-7.247h29.01a7.242,7.242,0,0,1,7.242,7.247v21.737a7.237,7.237,0,0,1-7.242,7.242Z" transform="translate(-119.909 -148.45)" fill="#c7cfe2"/>
      <path id="Caminho_814" data-name="Caminho 814" d="M499.777,444.667H470.792a7.247,7.247,0,0,1-7.242-7.242V415.688a7.248,7.248,0,0,1,7.242-7.247h28.984a7.247,7.247,0,0,1,7.247,7.247v21.737A7.242,7.242,0,0,1,499.777,444.667Z" transform="translate(-172.88 -148.45)" fill="#c7cfe2"/>
      <path id="Caminho_815" data-name="Caminho 815" d="M610.707,444.667H581.728a7.248,7.248,0,0,1-7.248-7.242V415.688a7.247,7.247,0,0,1,7.248-7.247h28.979a7.247,7.247,0,0,1,7.247,7.247v21.737A7.242,7.242,0,0,1,610.707,444.667Z" transform="translate(-225.847 -148.45)" fill="#c7cfe2"/>
      <path id="Caminho_816" data-name="Caminho 816" d="M721.642,444.667H692.657a7.247,7.247,0,0,1-7.247-7.242V415.688a7.247,7.247,0,0,1,7.247-7.247h28.984a7.247,7.247,0,0,1,7.242,7.247v21.737A7.242,7.242,0,0,1,721.642,444.667Z" transform="translate(-278.814 -148.45)" fill="#35ad8c"/>
      <path id="Caminho_817" data-name="Caminho 817" d="M832.577,444.667H803.593a7.248,7.248,0,0,1-7.242-7.242V415.688a7.248,7.248,0,0,1,7.242-7.247h28.984a7.248,7.248,0,0,1,7.247,7.247v21.737A7.242,7.242,0,0,1,832.577,444.667Z" transform="translate(-331.785 -148.45)" fill="#35ad8c"/>
      <path id="Caminho_818" data-name="Caminho 818" d="M278.9,367.479H249.928a7.247,7.247,0,0,1-7.247-7.247h0A7.247,7.247,0,0,1,249.928,353H278.9a7.247,7.247,0,0,1,7.247,7.247h0A7.247,7.247,0,0,1,278.9,367.479Z" transform="translate(-67.42 -121.978)" fill="#c7cfe2"/>
      <path id="Caminho_819" data-name="Caminho 819" d="M389.868,367.479h-29.01a7.247,7.247,0,0,1-7.247-7.247h0A7.247,7.247,0,0,1,360.857,353h29.01a7.242,7.242,0,0,1,7.242,7.247h0A7.242,7.242,0,0,1,389.868,367.479Z" transform="translate(-120.386 -121.978)" fill="#c7cfe2"/>
      <path id="Caminho_820" data-name="Caminho 820" d="M500.777,367.479H471.792a7.247,7.247,0,0,1-7.242-7.247h0A7.247,7.247,0,0,1,471.792,353h28.984a7.247,7.247,0,0,1,7.247,7.247h0A7.247,7.247,0,0,1,500.777,367.479Z" transform="translate(-173.358 -121.978)" fill="#c7cfe2"/>
      <path id="Caminho_821" data-name="Caminho 821" d="M611.707,367.479H582.727a7.248,7.248,0,0,1-7.248-7.247h0A7.248,7.248,0,0,1,582.727,353h28.979a7.247,7.247,0,0,1,7.247,7.247h0A7.247,7.247,0,0,1,611.707,367.479Z" transform="translate(-226.324 -121.978)" fill="#c7cfe2"/>
      <path id="Caminho_822" data-name="Caminho 822" d="M721.642,367.479H692.657a7.247,7.247,0,0,1-7.247-7.247h0A7.247,7.247,0,0,1,692.657,353h28.984a7.247,7.247,0,0,1,7.242,7.247h0A7.247,7.247,0,0,1,721.642,367.479Z" transform="translate(-278.814 -121.978)" fill="#2b8769"/>
      <path id="Caminho_823" data-name="Caminho 823" d="M832.577,367.479H803.593a7.248,7.248,0,0,1-7.242-7.247h0A7.247,7.247,0,0,1,803.593,353h28.984a7.248,7.248,0,0,1,7.247,7.247h0A7.248,7.248,0,0,1,832.577,367.479Z" transform="translate(-331.785 -121.978)" fill="#2b8769"/>
      <path id="Caminho_824" data-name="Caminho 824" d="M277.9,541.751H248.927a7.247,7.247,0,0,1-7.247-7.232V512.782a7.247,7.247,0,0,1,7.247-7.242H277.9a7.248,7.248,0,0,1,7.247,7.242v21.737A7.248,7.248,0,0,1,277.9,541.751Z" transform="translate(-66.942 -194.813)" fill="#c7cfe2"/>
      <path id="Caminho_825" data-name="Caminho 825" d="M388.868,541.751h-29.01a7.247,7.247,0,0,1-7.247-7.232V512.782a7.247,7.247,0,0,1,7.247-7.242h29.01a7.242,7.242,0,0,1,7.242,7.242v21.737A7.242,7.242,0,0,1,388.868,541.751Z" transform="translate(-119.909 -194.813)" fill="#c7cfe2"/>
      <path id="Caminho_826" data-name="Caminho 826" d="M499.777,541.751H470.792a7.247,7.247,0,0,1-7.242-7.232V512.782a7.247,7.247,0,0,1,7.242-7.242h28.984a7.247,7.247,0,0,1,7.247,7.242v21.737A7.247,7.247,0,0,1,499.777,541.751Z" transform="translate(-172.88 -194.813)" fill="#c7cfe2"/>
      <path id="Caminho_827" data-name="Caminho 827" d="M610.707,541.751H581.727a7.248,7.248,0,0,1-7.247-7.232V512.782a7.248,7.248,0,0,1,7.247-7.242h28.979a7.247,7.247,0,0,1,7.247,7.242v21.737A7.248,7.248,0,0,1,610.707,541.751Z" transform="translate(-225.847 -194.813)" fill="#c7cfe2"/>
      <path id="Caminho_828" data-name="Caminho 828" d="M721.642,541.751H692.657a7.247,7.247,0,0,1-7.247-7.232V512.782a7.248,7.248,0,0,1,7.247-7.242h28.984a7.247,7.247,0,0,1,7.242,7.242v21.737A7.247,7.247,0,0,1,721.642,541.751Z" transform="translate(-278.813 -194.813)" fill="#35ad8c"/>
      <path id="Caminho_829" data-name="Caminho 829" d="M832.577,541.751H803.592a7.248,7.248,0,0,1-7.242-7.232V512.782a7.248,7.248,0,0,1,7.242-7.242h28.984a7.247,7.247,0,0,1,7.247,7.242v21.737A7.248,7.248,0,0,1,832.577,541.751Z" transform="translate(-331.785 -194.813)" fill="#35ad8c"/>
      <path id="Caminho_830" data-name="Caminho 830" d="M277.9,638.783H248.927a7.247,7.247,0,0,1-7.247-7.268V609.778a7.247,7.247,0,0,1,7.247-7.247H277.9a7.247,7.247,0,0,1,7.247,7.247v21.737a7.248,7.248,0,0,1-7.247,7.268Z" transform="translate(-66.942 -241.123)" fill="#c7cfe2"/>
      <path id="Caminho_831" data-name="Caminho 831" d="M388.868,638.783h-29.01a7.247,7.247,0,0,1-7.248-7.268V609.778a7.247,7.247,0,0,1,7.248-7.247h29.01a7.242,7.242,0,0,1,7.242,7.247v21.737a7.242,7.242,0,0,1-7.242,7.268Z" transform="translate(-119.909 -241.123)" fill="#c7cfe2"/>
      <path id="Caminho_832" data-name="Caminho 832" d="M499.777,638.783H470.792a7.247,7.247,0,0,1-7.242-7.268V609.778a7.247,7.247,0,0,1,7.242-7.247h28.984a7.247,7.247,0,0,1,7.247,7.247v21.737a7.248,7.248,0,0,1-7.247,7.268Z" transform="translate(-172.88 -241.123)" fill="#c7cfe2"/>
      <path id="Caminho_833" data-name="Caminho 833" d="M610.706,638.783H581.728a7.247,7.247,0,0,1-7.247-7.268V609.778a7.247,7.247,0,0,1,7.247-7.247h28.979a7.247,7.247,0,0,1,7.247,7.247v21.737a7.248,7.248,0,0,1-7.247,7.268Z" transform="translate(-225.847 -241.123)" fill="#c7cfe2"/>
      <path id="Caminho_834" data-name="Caminho 834" d="M721.642,638.783H692.657a7.247,7.247,0,0,1-7.247-7.268V609.778a7.247,7.247,0,0,1,7.247-7.247h28.984a7.247,7.247,0,0,1,7.242,7.247v21.737a7.248,7.248,0,0,1-7.242,7.268Z" transform="translate(-278.814 -241.123)" fill="#35ad8c"/>
      <path id="Caminho_835" data-name="Caminho 835" d="M832.577,638.783H803.593a7.247,7.247,0,0,1-7.242-7.268V609.778a7.247,7.247,0,0,1,7.242-7.247h28.984a7.247,7.247,0,0,1,7.247,7.247v21.737a7.248,7.248,0,0,1-7.247,7.268Z" transform="translate(-331.785 -241.123)" fill="#35ad8c"/>
      <path id="Caminho_836" data-name="Caminho 836" d="M277.9,735.9H248.927a7.247,7.247,0,0,1-7.247-7.242V706.918a7.247,7.247,0,0,1,7.247-7.247H277.9a7.247,7.247,0,0,1,7.247,7.247v21.737A7.247,7.247,0,0,1,277.9,735.9Z" transform="translate(-66.942 -287.505)" fill="#c7cfe2"/>
      <path id="Caminho_837" data-name="Caminho 837" d="M388.868,735.9h-29.01a7.247,7.247,0,0,1-7.247-7.242V706.918a7.247,7.247,0,0,1,7.247-7.247h29.01a7.242,7.242,0,0,1,7.242,7.247v21.737A7.242,7.242,0,0,1,388.868,735.9Z" transform="translate(-119.909 -287.505)" fill="#c7cfe2"/>
      <path id="Caminho_838" data-name="Caminho 838" d="M499.777,735.9H470.792a7.247,7.247,0,0,1-7.242-7.242V706.918a7.247,7.247,0,0,1,7.242-7.247h28.984a7.247,7.247,0,0,1,7.247,7.247v21.737A7.247,7.247,0,0,1,499.777,735.9Z" transform="translate(-172.88 -287.505)" fill="#c7cfe2"/>
      <path id="Caminho_839" data-name="Caminho 839" d="M610.707,735.9H581.728a7.248,7.248,0,0,1-7.248-7.242V706.918a7.247,7.247,0,0,1,7.248-7.247h28.979a7.247,7.247,0,0,1,7.247,7.247v21.737A7.247,7.247,0,0,1,610.707,735.9Z" transform="translate(-225.847 -287.505)" fill="#c7cfe2"/>
      <path id="Caminho_840" data-name="Caminho 840" d="M721.642,735.9H692.657a7.247,7.247,0,0,1-7.247-7.242V706.918a7.247,7.247,0,0,1,7.247-7.247h28.984a7.247,7.247,0,0,1,7.242,7.247v21.737A7.247,7.247,0,0,1,721.642,735.9Z" transform="translate(-278.814 -287.505)" fill="#35ad8c"/>
      <path id="Caminho_841" data-name="Caminho 841" d="M832.577,735.9H803.593a7.247,7.247,0,0,1-7.242-7.242V706.918a7.248,7.248,0,0,1,7.242-7.247h28.984a7.248,7.248,0,0,1,7.247,7.247v21.737A7.247,7.247,0,0,1,832.577,735.9Z" transform="translate(-331.785 -287.505)" fill="#35ad8c"/>
      <path id="Caminho_842" data-name="Caminho 842" d="M702.589,436.265l8.329,8.334a1.333,1.333,0,0,0,1.85,0l14.981-14.981a1.309,1.309,0,0,0-1.85-1.85L710.918,442.75h1.85l-8.329-8.329A1.307,1.307,0,0,0,702.589,436.265Z" transform="translate(-286.832 -157.495)" fill="#dbe3e7"/>
      <path id="Caminho_843" data-name="Caminho 843" d="M816.349,435.15l8.334,8.329a1.327,1.327,0,0,0,1.844,0L841.508,428.5a1.309,1.309,0,0,0-1.85-1.85l-14.975,14.981h1.844L818.2,433.3A1.309,1.309,0,0,0,816.349,435.15Z" transform="translate(-341.15 -156.96)" fill="#dbe3e7"/>
      <path id="Caminho_844" data-name="Caminho 844" d="M816.349,532.215l8.334,8.329a1.317,1.317,0,0,0,1.844,0l14.981-14.976a1.309,1.309,0,0,0-1.85-1.85L824.683,538.7h1.845L818.2,530.37A1.307,1.307,0,0,0,816.349,532.215Z" transform="translate(-341.15 -203.309)" fill="#dbe3e7"/>
      <path id="Caminho_845" data-name="Caminho 845" d="M702.589,532.215l8.329,8.329a1.327,1.327,0,0,0,1.85,0l14.981-14.976a1.309,1.309,0,0,0-1.85-1.85L710.918,538.7h1.85l-8.329-8.329A1.307,1.307,0,0,0,702.589,532.215Z" transform="translate(-286.832 -203.309)" fill="#dbe3e7"/>
      <path id="Caminho_846" data-name="Caminho 846" d="M702.589,629.285l8.329,8.329a1.333,1.333,0,0,0,1.85,0l14.981-14.981a1.307,1.307,0,0,0-1.85-1.845l-14.981,14.976h1.85l-8.329-8.329a1.309,1.309,0,0,0-1.85,1.85Z" transform="translate(-286.832 -249.657)" fill="#dbe3e7"/>
      <path id="Caminho_847" data-name="Caminho 847" d="M816.349,629.285l8.334,8.329a1.322,1.322,0,0,0,1.845,0l14.981-14.981a1.307,1.307,0,0,0-1.85-1.845l-14.976,14.976h1.845l-8.329-8.329a1.309,1.309,0,0,0-1.85,1.85Z" transform="translate(-341.15 -249.657)" fill="#dbe3e7"/>
      <path id="Caminho_848" data-name="Caminho 848" d="M816.349,726.352l8.334,8.329a1.327,1.327,0,0,0,1.844,0l14.981-14.98a1.309,1.309,0,0,0-1.85-1.85l-14.975,14.981h1.844L818.2,724.5A1.309,1.309,0,0,0,816.349,726.352Z" transform="translate(-341.15 -296.004)" fill="#dbe3e7"/>
      <path id="Caminho_849" data-name="Caminho 849" d="M702.589,726.352l8.329,8.329a1.333,1.333,0,0,0,1.85,0L727.748,719.7a1.309,1.309,0,0,0-1.85-1.85l-14.981,14.981h1.85l-8.329-8.329A1.309,1.309,0,0,0,702.589,726.352Z" transform="translate(-286.832 -296.004)" fill="#dbe3e7"/>
      <path id="Caminho_850" data-name="Caminho 850" d="M514.082,142.7H477.448v-3.438a10.953,10.953,0,0,0-10.393-11.046,10.811,10.811,0,0,0-11.135,10.858v3.621H180.906v-3.438a10.953,10.953,0,0,0-10.393-11.046,10.811,10.811,0,0,0-11.135,10.863v3.621H122.755a14.5,14.5,0,0,0-14.495,14.49V490.4a14.489,14.489,0,0,0,14.495,14.489H514.082A14.489,14.489,0,0,0,528.577,490.4V157.185A14.5,14.5,0,0,0,514.082,142.7Z" transform="translate(-3.237 -14.642)" fill="none" stroke="#1c0a2d" stroke-miterlimit="10" stroke-width="3"/>
      <text id="FINAIS_DE_SEMANA" data-name="FINAIS DE SEMANA" transform="translate(200.297 166.116)" fill="#1c0a2d" font-size="23" font-family="Lato-Bold, Lato" font-weight="700"><tspan x="0" y="0">FINAIS DE SEMANA</tspan></text>
      <path id="Caminho_851" data-name="Caminho 851" d="M172.9,444.667H143.927a7.247,7.247,0,0,1-7.247-7.242V415.688a7.247,7.247,0,0,1,7.247-7.247H172.9a7.247,7.247,0,0,1,7.247,7.247v21.737A7.242,7.242,0,0,1,172.9,444.667Z" transform="translate(-16.807 -148.45)" fill="#c7cfe2"/>
      <path id="Caminho_852" data-name="Caminho 852" d="M173.9,367.479H144.927a7.247,7.247,0,0,1-7.247-7.247h0A7.247,7.247,0,0,1,144.927,353H173.9a7.247,7.247,0,0,1,7.247,7.247h0A7.247,7.247,0,0,1,173.9,367.479Z" transform="translate(-17.285 -121.978)" fill="#c7cfe2"/>
      <path id="Caminho_853" data-name="Caminho 853" d="M172.9,541.751H143.927a7.247,7.247,0,0,1-7.247-7.232V512.782a7.247,7.247,0,0,1,7.247-7.242H172.9a7.247,7.247,0,0,1,7.247,7.242v21.737A7.248,7.248,0,0,1,172.9,541.751Z" transform="translate(-16.807 -194.813)" fill="#c7cfe2"/>
      <path id="Caminho_854" data-name="Caminho 854" d="M172.9,638.783H143.927a7.247,7.247,0,0,1-7.247-7.268V609.778a7.247,7.247,0,0,1,7.247-7.247H172.9a7.247,7.247,0,0,1,7.247,7.247v21.737a7.248,7.248,0,0,1-7.247,7.268Z" transform="translate(-16.807 -241.123)" fill="#c7cfe2"/>
      <path id="Caminho_855" data-name="Caminho 855" d="M172.9,735.9H143.927a7.247,7.247,0,0,1-7.247-7.242V706.918a7.247,7.247,0,0,1,7.247-7.247H172.9a7.247,7.247,0,0,1,7.247,7.247v21.737A7.247,7.247,0,0,1,172.9,735.9Z" transform="translate(-16.807 -287.505)" fill="#c7cfe2"/>
      <g id="Grupo_289" data-name="Grupo 289" transform="translate(492.599 122.917)" opacity="0.99">
        <path id="Caminho_856" data-name="Caminho 856" d="M914.365,146.11A64.4,64.4,0,1,1,850,210.5,64.4,64.4,0,0,1,914.365,146.11Z" transform="translate(-850 -146.11)" fill="#2b8769"/>
        <path id="Caminho_857" data-name="Caminho 857" d="M918.365,148.11A64.4,64.4,0,1,1,854,212.5,64.4,64.4,0,0,1,918.365,148.11Z" transform="translate(-851.91 -147.065)" fill="none" stroke="#1c0a2d" stroke-miterlimit="10" stroke-width="3"/>
        <path id="Caminho_858" data-name="Caminho 858" d="M924.477,167.29a53.329,53.329,0,1,1-53.3,53.318A53.328,53.328,0,0,1,924.477,167.29Z" transform="translate(-860.113 -156.223)" fill="#e5eaf6"/>
        <path id="Caminho_859" data-name="Caminho 859" d="M964.492,252.3l-18.523-41.6a2.064,2.064,0,1,0-3.767,1.677l18.523,41.6a2.064,2.064,0,0,0,3.767-1.677Z" transform="translate(-893.92 -176.327)" fill="#e01227"/>
        <path id="Caminho_860" data-name="Caminho 860" d="M967.038,265.2l-2.712,32.078a2.014,2.014,0,1,1-4.013-.34l2.717-32.083a2.012,2.012,0,0,1,4.008.34Zm19.307,14.056-21.251-9.991a3.772,3.772,0,0,1,3.208-6.824l21.251,9.985a3.773,3.773,0,1,1-3.208,6.829Z" transform="translate(-902.669 -201.509)" fill="#727272"/>
        <path id="Caminho_861" data-name="Caminho 861" d="M965.827,253.94a8.052,8.052,0,1,1-8.047,8.05A8.052,8.052,0,0,1,965.827,253.94Z" transform="translate(-901.463 -197.596)" fill="#e5e7e6"/>
        <path id="Caminho_862" data-name="Caminho 862" d="M969.5,261.64a4.029,4.029,0,1,1-4.023,4.029A4.029,4.029,0,0,1,969.5,261.64Z" transform="translate(-905.139 -201.273)" fill="#1c0a2d"/>
      </g>
      <circle id="Elipse_372" data-name="Elipse 372" cx="23.237" cy="23.237" r="23.237" transform="translate(135.01 465.039)" fill="#35ad8c"/>
      <circle id="Elipse_373" data-name="Elipse 373" cx="23.237" cy="23.237" r="23.237" transform="translate(138.94 468.994)" fill="none" stroke="#1c0a2d" stroke-miterlimit="10" stroke-width="2"/>
      <circle id="Elipse_374" data-name="Elipse 374" cx="14.176" cy="14.176" r="14.176" transform="translate(340.142 108.579)" fill="#35ad8c"/>
      <circle id="Elipse_375" data-name="Elipse 375" cx="14.176" cy="14.176" r="14.176" transform="translate(342.541 110.993)" fill="none" stroke="#1c0a2d" stroke-miterlimit="10" stroke-width="2"/>
    </g>
    <path id="Caminho_864" data-name="Caminho 864" d="M138.648,636.473a4.88,4.88,0,0,1-3.01,2.672,5.017,5.017,0,0,1-6.8-3.867l-4.022-15.88-14.43,7.425a5.472,5.472,0,0,1-2.335.675,4.916,4.916,0,0,1-2.289-.438,5.254,5.254,0,0,1-2.545-2.672,4.077,4.077,0,0,1-.164-3.566,5.036,5.036,0,0,1,2.527-2.417l16.883-8.282-4.825-19.072a4.779,4.779,0,0,1,.274-3.265,4.843,4.843,0,0,1,2.955-2.654,5.181,5.181,0,0,1,6.859,3.849l4.123,16.3,14.256-7.689a4.87,4.87,0,0,1,4.707-.383,4.716,4.716,0,0,1,2.563,2.736,4.4,4.4,0,0,1-.055,3.5,5.109,5.109,0,0,1-2.481,2.545L134.1,614.172l4.825,19.072A4.779,4.779,0,0,1,138.648,636.473Z" transform="translate(542.731 -41.316) rotate(17)" fill="none" stroke="#1c0a2d" stroke-miterlimit="10" stroke-width="2"/>
    <g id="Grupo_294" data-name="Grupo 294" transform="translate(519 370.592)">
      <circle id="Elipse_317" data-name="Elipse 317" cx="26.611" cy="26.611" r="26.611" transform="translate(0 0)" fill="#4292cc"/>
      <circle id="Elipse_318" data-name="Elipse 318" cx="26.611" cy="26.611" r="26.611" transform="translate(4.499 4.519)" fill="none" stroke="#1c0a2d" stroke-miterlimit="10" stroke-width="2"/>
    </g>
  </g>
</svg>
