<svg xmlns="http://www.w3.org/2000/svg" xmlns:xlink="http://www.w3.org/1999/xlink" width="432.455" height="518.94" viewBox="0 0 432.455 518.94">
  <defs>
    <linearGradient id="linear-gradient" x1="4.503" y1="0.355" x2="4.964" y2="0.789" gradientUnits="objectBoundingBox">
      <stop offset="0" stop-color="#502e25"/>
      <stop offset="1" stop-color="#201310"/>
    </linearGradient>
    <linearGradient id="linear-gradient-2" x1="0.344" y1="0.355" x2="0.805" y2="0.789" xlink:href="#linear-gradient"/>
    <linearGradient id="linear-gradient-3" x1="2.057" y1="2.779" x2="3.039" y2="2.779" xlink:href="#linear-gradient"/>
    <clipPath id="clip-path">
      <path id="Caminho_665" data-name="Caminho 665" d="M184.83,219.583c-1.111,5.778-14.224,11.112-22.669,9.557s-10-6.89-8.89-12.668,4.445-10.223,12.89-8.668S185.941,213.582,184.83,219.583Z" transform="translate(-152.955 -207.49)"/>
    </clipPath>
    <linearGradient id="linear-gradient-7" x1="-0.001" y1="0.5" x2="0.998" y2="0.5" gradientUnits="objectBoundingBox">
      <stop offset="0" stop-color="#fff"/>
      <stop offset="0" stop-color="#6191c9"/>
      <stop offset="1" stop-color="#446a96"/>
    </linearGradient>
    <linearGradient id="linear-gradient-8" x1="0" y1="0.5" x2="0.999" y2="0.5" xlink:href="#linear-gradient-7"/>
  </defs>
  <g id="Grupo_551" data-name="Grupo 551" transform="translate(-27.984 -118.534)">
    <g id="Grupo_262" data-name="Grupo 262">
      <path id="Caminho_699" data-name="Caminho 699" d="M347.151,314.117c-27,57.471-77.288,23.457-132.73,23.457S121.86,359.83,121.86,304.392,246.3,211.83,301.744,211.83,374.15,256.646,347.151,314.117Z" transform="matrix(-0.921, -0.391, 0.391, -0.921, 276.367, 636.189)" fill="#00ba91" opacity="0.3"/>
      <path id="Caminho_482" data-name="Caminho 482" d="M546.66,317.626c0,87.026-126.2,97.265-213.223,97.265s-202.777,44.517-202.777-42.5S187.968,128.53,274.995,128.53,546.66,230.595,546.66,317.626Z" transform="translate(-87.66 116.246)" fill="#4292cc" opacity="0.2"/>
      <g id="tela1-1" transform="translate(86.778 70.504)">
        <path id="Caminho_649" data-name="Caminho 649" d="M233.331,56.914c-4.667.444-9.334,2.445-10.89,6.445-1.556,4.223,2.222,10.446,6.89,9.557C224,72.027,218.44,72.027,214,74.472a11.779,11.779,0,0,0-6.223,12.668c1.111,5.112,6.89,9.779,12,8.445-5.112,1.778-9.779,4.223-12.668,8.445s-4,10.223-1.333,15.113c2.667,5.112,9.112,8.223,14,6.223-3.334,3.778-6,9.334-3.556,14.224,2.222,4.445,7.556,6.89,12.446,6.89s9.112-2.222,13.335-4.223c4.223,8.89,16.224,13.779,24.447,9.779,4.445-2.222,7.556-8,4.223-12.224,4.889,2,10,4,15.113,4.223s10.446-1.556,12.668-5.778.444-10.89-4.445-12.89c7.112,3.556,16.224,1.333,19.558-5.112,3.334-6.223.667-15.557-5.778-20.224,7.334-4.223,10.223-14.224,6.667-22.669-1.111-2.667-3.111-5.334-5.778-6.445-4.667-2.222-9.334.444-13.335,2.889C298,68.916,295.56,61.359,290,58.248c-5.334-3.111-12.668-1.333-15.113,3.778-3.334-4.223-6.667-8.445-11.112-11.335s-10.446-3.778-14.446-.889-4,10,.667,12.668C246.888,57.8,239.331,56.025,233.331,56.914Z" transform="translate(-1.352 0)" fill="url(#linear-gradient)"/>
        <g id="Grupo_242" data-name="Grupo 242" transform="translate(176.639 424.065)">
          <path id="Caminho_650" data-name="Caminho 650" d="M210.628,427.732c0,38.226.444,98.9-5.334,130.014h-7.556c-6-41.338-13.113-86.9-20-130.014Z" transform="translate(-177.735 -427.732)" fill="#d99156"/>
          <path id="Caminho_651" data-name="Caminho 651" d="M198.09,561.7l-6.89,10.223,24.225-1.778-10.446-8.668Z" transform="translate(-177.865 -429.023)" fill="#e6b54a"/>
        </g>
        <g id="Grupo_243" data-name="Grupo 243" transform="translate(116.188 422.732)">
          <path id="Caminho_652" data-name="Caminho 652" d="M149.587,429.052c-3.111,38-8,98.677-16.224,129.125-2.445-.222-5.112-.445-7.556-.667-2.667-41.782-6-87.565-9.112-131.125Z" transform="translate(-116.695 -426.385)" fill="#d99156"/>
          <path id="Caminho_653" data-name="Caminho 653" d="M125.822,561.707l-7.556,9.557,24.225.222-9.557-9.557Z" transform="translate(-116.71 -427.692)" fill="#e6b54a"/>
        </g>
        <path id="Caminho_654" data-name="Caminho 654" d="M146.858,56.914c4.667.444,9.334,2.445,10.89,6.445s-2.222,10.446-6.89,9.557c5.334-.889,10.89-.889,15.335,1.556a11.779,11.779,0,0,1,6.223,12.668c-1.111,5.112-6.89,9.779-12,8.445,5.112,1.778,9.779,4.223,12.668,8.445s4,10.223,1.333,15.113c-2.667,5.112-9.112,8.223-14,6.223,3.334,3.778,6,9.334,3.556,14.224-2.222,4.445-7.556,6.89-12.446,6.89s-9.112-2.222-13.335-4.223c-4.223,8.89-16.224,13.779-24.447,9.779-4.445-2.222-7.556-8-4.223-12.224-4.889,2-10,4-15.113,4.223s-10.446-1.556-12.668-5.778-.444-10.89,4.445-12.89c-7.112,3.556-16.224,1.333-19.558-5.112-3.334-6.223-.667-15.557,5.778-20.224-7.334-4.223-10.223-14.224-6.667-22.669,1.111-2.667,3.111-5.334,5.778-6.445,4.667-2.222,9.334.444,13.335,2.889-2.667-4.889-.222-12.446,5.334-15.557,5.334-3.111,12.668-1.333,15.113,3.778,3.334-4.223,6.667-8.445,11.112-11.335s10.446-3.778,14.446-.889,4,10-.667,12.668C133.523,57.8,140.858,56.025,146.858,56.914Z" transform="translate(0 0)" fill="url(#linear-gradient-2)"/>
        <circle id="Elipse_338" data-name="Elipse 338" cx="11.335" cy="11.335" r="11.335" transform="translate(121.078 89.585)" fill="#6eaa6f" stroke="#000" stroke-miterlimit="10" stroke-width="1.122"/>
        <circle id="Elipse_339" data-name="Elipse 339" cx="11.335" cy="11.335" r="11.335" transform="translate(134.412 84.028)" fill="#6eaa6f" stroke="#000" stroke-miterlimit="10" stroke-width="1.122"/>
        <path id="Caminho_655" data-name="Caminho 655" d="M131.872,92.9c.667.444-1.778,1.333-4.223,4-1.778,2-2.667,7.334-3.334,6.89s-2.222-4.445,1.111-8.445C128.316,92.015,130.983,92.46,131.872,92.9Z" transform="translate(-0.571 -0.43)" fill="#ede39f"/>
        <path id="Caminho_656" data-name="Caminho 656" d="M150.89,86.612c.667.889-2.889,1.111-7.112,3.778-2.889,2-6.223,8.668-6.89,7.779S135.555,91.5,141.555,87.5C146.667,84.168,150.223,85.723,150.89,86.612Z" transform="translate(-0.698 -0.361)" fill="#ede39f"/>
        <path id="Caminho_657" data-name="Caminho 657" d="M125.749,200.9c-4.223-11.779-12.668-26.892-14.224-39.338-5.112-40.893,12.668-62.9,46.45-68.23,25.114-4,57.562-5.112,75.786,15.557,20.669,23.114,24.225,66.9,13.779,95.344-1.111,3.334-10.668,14-13.335,16.446s-7.556-1.333-10.668-2.889Z" transform="translate(-0.448 -0.415)" fill="url(#linear-gradient-3)"/>
        <path id="Caminho_658" data-name="Caminho 658" d="M233.331,56.914c-4.667.444-9.334,2.445-10.89,6.445-1.556,4.223,2.222,10.446,6.89,9.557C224,72.027,218.44,72.027,214,74.472a11.779,11.779,0,0,0-6.223,12.668c1.111,5.112,6.89,9.779,12,8.445-5.112,1.778-9.779,4.223-12.668,8.445s-4,10.223-1.333,15.113c2.667,5.112,9.112,8.223,14,6.223-3.334,3.778-6,9.334-3.556,14.224,2.222,4.445,7.556,6.89,12.446,6.89s9.112-2.222,13.335-4.223c4.223,8.89,16.224,13.779,24.447,9.779,4.445-2.222,7.556-8,4.223-12.224,4.889,2,10,4,15.113,4.223s10.446-1.556,12.668-5.778.444-10.89-4.445-12.89c7.112,3.556,16.224,1.333,19.558-5.112,3.334-6.223.667-15.557-5.778-20.224,7.334-4.223,10.223-14.224,6.667-22.669-1.111-2.667-3.111-5.334-5.778-6.445-4.667-2.222-9.334.444-13.335,2.889C298,68.916,295.56,61.359,290,58.248c-5.334-3.111-12.668-1.333-15.113,3.778-3.334-4.223-6.667-8.445-11.112-11.335s-10.446-3.778-14.446-.889-4,10,.667,12.668C246.888,57.8,239.331,56.025,233.331,56.914Z" transform="translate(-1.352 0)" fill="url(#linear-gradient)"/>
        <path id="Caminho_659" data-name="Caminho 659" d="M239.733,214.733c-3.111-3.111-8.89-3.556-11.335.222-.222.445-1.556,2.889-2,2.889a18.514,18.514,0,0,0-3.334-.889c.222,0,1.556-10,3.111-21.558a34.1,34.1,0,0,1-6-9.779c-2.889-7.779-2.222-29.337-.667-37.56-14.668-30.448-84.676-46.005-102.233,2.445-.222.444,6.223,28.448-5.556,35.115-10.446,5.778-.667,48.45,36.226,52.45,17.78,2,64.007-1.111,74.675-10,.445-.444,1.111-.222,1.333.444a10.322,10.322,0,0,0,2.889,4.445l.667.667c4.445,2.889,13.779-.444,15.779-5.778C245.29,223.178,242.845,217.844,239.733,214.733Z" transform="translate(-0.421 -0.69)" fill="#ba7b43"/>
        <path id="Caminho_660" data-name="Caminho 660" d="M181.761,169.62a29.156,29.156,0,0,0-1.111,14c.444,3.556,6.89,5.334,8.223,2,2.222-4.667,2.445-11.779,1.556-16C189.539,164.953,183.761,164.286,181.761,169.62Z" transform="translate(-1.121 -1.138)" fill="#201f20"/>
        <path id="Caminho_661" data-name="Caminho 661" d="M142.264,169.62a29.157,29.157,0,0,0-1.111,14c.445,3.556,6.89,5.334,8.223,2,2.222-4.667,2.445-11.779,1.556-16C150.042,164.953,144.264,164.286,142.264,169.62Z" transform="translate(-0.739 -1.138)" fill="#201f20"/>
        <path id="Caminho_662" data-name="Caminho 662" d="M242.251,219.466c-2.889-1.778-6-1.111-8.445.889a1.589,1.589,0,0,0,.444,2.667c1.333.667,2.222,1.778,1.556,3.334-.667,1.778-2.667,1.111-4,.667a1.1,1.1,0,0,0-1.333,1.333c1.111,3.334,6,2.667,7.779.222a5.678,5.678,0,0,0-.444-6.89,3.857,3.857,0,0,1,3.111.667c1.111.889,1.111,2.667,1.333,4a1.089,1.089,0,0,0,2,.222C245.585,224.133,244.474,221.022,242.251,219.466Z" transform="translate(-1.605 -1.645)" fill="#915b23"/>
        <path id="VENTA_1_" d="M169.028,194.939a5.846,5.846,0,0,0-6.223-7.779,12.819,12.819,0,0,0-3.111.667h0c.667-.222.444-.222,0,0a7.319,7.319,0,0,0-8.668,4.667c-1.333,3.556.444,8.668,4.223,9.557C161.027,203.606,166.583,200.939,169.028,194.939Z" transform="translate(-0.834 -1.343)" fill="#774928" opacity="0.6"/>
        <g id="Grupo_245" data-name="Grupo 245" transform="translate(152.098 205.95)">
          <path id="Caminho_663" data-name="Caminho 663" d="M184.83,219.583c-1.111,5.778-14.224,11.112-22.669,9.557s-10-6.89-8.89-12.668,4.445-10.223,12.89-8.668S185.941,213.582,184.83,219.583Z" transform="translate(-152.955 -207.49)" fill="#c64832"/>
          <g id="Grupo_244" data-name="Grupo 244" clip-path="url(#clip-path)">
            <path id="Caminho_664" data-name="Caminho 664" d="M186.622,210.989c1.333-6.223-9.112-16.446-18-18.446s-12.446,2.667-13.779,8.668,0,11.557,8.89,13.557S185.289,217.211,186.622,210.989Z" transform="translate(-152.969 -207.341)" fill="#fff"/>
          </g>
        </g>
        <g id="ROUPA_1_" transform="translate(114.366 248.046)">
          <path id="Caminho_666" data-name="Caminho 666" d="M217.8,358.837c6.667,12.224-8.445,173.352-7.112,180.242-10.89,2.445-7.334.445-18.446,3.111-3.334-10-23.558-98.677-27.559-109.123l-3.556-.222c-.667,0,0,1.111-.222,1.778-6.667,19.335-16,92.232-22.669,109.123-8.223-1.778-11.779.222-20-1.556,1.333-36.671-6.667-120.9-1.778-157.35Z" transform="translate(-114.855 -251.047)" fill="#58167d"/>
          <g id="FRENTE_1_" transform="translate(34.715)">
            <path id="Caminho_667" data-name="Caminho 667" d="M149.908,255.581c.444-.889.667-1.778,1.111-2.667C150.575,253.8,150.353,254.692,149.908,255.581Z" transform="translate(-149.908 -250.025)" fill="#e6b54a"/>
            <path id="Caminho_668" data-name="Caminho 668" d="M151.255,252.441c.444-.889.667-1.556,1.111-2.445A21.65,21.65,0,0,0,151.255,252.441Z" transform="translate(-149.921 -249.996)" fill="#e6b54a"/>
            <path id="Caminho_669" data-name="Caminho 669" d="M152.377,250Z" transform="translate(-149.932 -249.996)" fill="#e6b54a"/>
            <path id="Caminho_670" data-name="Caminho 670" d="M151.03,252.91c0-.222.222-.222.222-.444A.776.776,0,0,1,151.03,252.91Z" transform="translate(-149.919 -250.02)" fill="#e6b54a"/>
          </g>
        </g>
        <g id="ESQUERDA_4_" transform="translate(79.342 322.61)">
          <g id="Grupo_248" data-name="Grupo 248">
            <g id="Grupo_247" data-name="Grupo 247">
              <path id="Caminho_671" data-name="Caminho 671" d="M101.071,328.287a120.929,120.929,0,0,0-.667,12.668,129.064,129.064,0,0,0,1.111,16c.667,5.778,2.667,11.335,1.556,17.113-.889,4.889-7.334,5.778-10,2-6.223-8.668-6-24-6.223-34.448-.222-4.667,0-9.334,0-14C90.847,324.732,98.182,324.065,101.071,328.287Z" transform="translate(-79.56 -325.287)" fill="#d99156"/>
              <g id="Grupo_246" data-name="Grupo 246" transform="translate(0 37.636)">
                <path id="Caminho_672" data-name="Caminho 672" d="M109.668,400.662c0,.667-4.445,4.889-6.667,2.889-3.778-3.778-1.556-4.889-2-8.223-.222,3.111-.889,10-5.778,8.89-4.223-.889-2.445-6.223-2.667-8-.222-1.111,1.111-2.889.222-1.778,0,0,.222,8.223-7.779,4.445-2.445-1.111.444-7.779.444-7.779s0,1.111-1.778,2-1.778.222-3.334-.444c-1.778-.667-.222-5.334,0-5.778,2.667-3.778,1.333-2.445,2.445-7.112.889-3.334.889-6,2.667-8.89,1.556-2.445,2.445-3.556,4.889-3.778a10.65,10.65,0,0,0,5.778-2c1.778-1.556,3.111-2.222,5.556-1.556,2.222.444,3.778,2.222,5.112,4.223s2.222,4.667,3.556,6.667c1.556,2.667,3.111,4.223,6.223,5.112,1.778.444,3.556.889,5.112,1.333,1.778.444,2.222.444,1.556,2.222a7.982,7.982,0,0,1-1.556,2.222c-4,4.667-7.334.667-13.335-2.667C110.113,392.439,110.335,392.217,109.668,400.662Z" transform="translate(-79.49 -363.29)" fill="#d99156"/>
              </g>
            </g>
          </g>
        </g>
        <g id="ESQUERDA_1_" transform="translate(204.17 330.506)">
          <g id="Grupo_251" data-name="Grupo 251">
            <g id="Grupo_250" data-name="Grupo 250">
              <path id="Caminho_673" data-name="Caminho 673" d="M237.761,334.587a61.512,61.512,0,0,1-2.222,11.112,138.1,138.1,0,0,1-4.445,13.557c-1.778,4.889-4.667,9.334-5.334,14.446-.444,4.445,5.112,6.667,8.223,4,7.334-6,10.446-19.558,13.113-28.225,1.111-4,2.222-8,3.111-12C247.54,333.921,241.095,331.7,237.761,334.587Z" transform="translate(-205.729 -333.26)" fill="#d99156"/>
              <g id="Grupo_249" data-name="Grupo 249" transform="translate(0 30.442)">
                <path id="Caminho_674" data-name="Caminho 674" d="M208.007,403.781a5.523,5.523,0,0,0-.222,1.778,2.312,2.312,0,0,0,2.889,1.334,5.288,5.288,0,0,0,2.889-2c3.778-4,6.667-13.779,9.557-12.668,2,.889.222,6.89-.667,10.89a21.919,21.919,0,0,0-.667,5.334c0,3.111,4.667,3.556,5.334.667.889-4,.889-10.446,2.445-14.224a1.2,1.2,0,0,1,2.222,0l3.556,10.668c.667,1.556,2,3.334,3.556,2.667,1.333-.444,1.333-2.445,1.111-3.778a36.168,36.168,0,0,0-2.889-8.223c-.667-1.333-1.556-3.111-.445-4.445s3.334-.889,4.445.222c1.333,1.111,2.222,2.667,3.556,3.556,1.556.889,4,.222,4-1.556a4.12,4.12,0,0,0-.445-1.556c-2.222-3.556-7.556-5.778-7.556-10,0-3.111,1.111-5.334.222-8.223-.667-2.445-1.334-3.556-3.334-4.445a9.66,9.66,0,0,1-4.667-3.111c-1.333-1.778-2.222-2.667-4.445-2.667a8.378,8.378,0,0,0-5.556,2.445c-1.556,1.333-2.889,3.556-4.445,5.112-2,2-4,.667-6.445-.444-1.333-.667-2.667-1.333-4-1.111-1.556,0-2.667,1.778-2.445,3.334a6.655,6.655,0,0,0,.889,2.222c2.222,4.889,6.445,3.334,12.224,3.556C217.564,388,210.23,395.78,208.007,403.781Z" transform="translate(-205.534 -363.999)" fill="#d99156"/>
              </g>
            </g>
          </g>
        </g>
        <path id="DIREITO_3_" d="M149.83,255.153c2.889-2.667-21.113,5.112-28,9.334-15.113,9.112-32.67,19.78-43.116,36.671-7.334,20.891-6.667,42.671-4.445,53.117,4.445,0,32.67,3.111,40.449-3.778-3.334-9.779-12.446-38-12.446-38s19.113-22,29.114-26.225c2.222-2.889,5.112-16.891,10.668-24.447C143.829,259.375,147.607,256.931,149.83,255.153Z" transform="translate(-0.082 -1.995)" fill="#a01127"/>
        <path id="GOLA_1_" d="M183.463,253.99c0,3.111-6.667,6.223-16.224,6.223s-17.78-3.111-17.78-6.223c0-1.111,3.334-4.667,5.112-4.667.889,0-.444,2.889,1.556,3.334a56.553,56.553,0,0,0,11.557,1.111c3.778,0,7.556,0,10.223-.889,2.222-.889.667-3.111,1.333-3.334C182.8,248.434,183.463,252.435,183.463,253.99Z" transform="translate(-0.823 -1.944)" fill="#001d7e"/>
        <path id="PESCOÇO_1_" d="M176.466,239c-1.778.444-9.779-.667-13.557.444-.889,8.223-.667,5.334-1.556,13.557a97.929,97.929,0,0,0,15.113.444A91.988,91.988,0,0,1,176.466,239Z" transform="translate(-0.938 -1.843)" fill="#915b23"/>
        <path id="BOCA_1_" d="M177.279,153.48c-1.556.889-.667,2.889,1.333,2.445,3.556-.889,6.445-1.111,9.779,0,2.667,1.111,3.778,3.334,5.334,5.112,1.111,1.333,3.778.667,3.778-.889C198.17,152.591,184.168,149.035,177.279,153.48Z" transform="translate(-1.084 -0.999)" fill="#201f20"/>
        <path id="BOCA_4_" d="M135.762,166.873c-1.556-.889-.667-2.889,1.333-2.445,3.556.667,6.667.889,9.779-.667,2.667-1.333,3.556-3.556,5.112-5.334,1.111-1.333,3.778-.889,4,.667C156.654,166.429,142.874,170.874,135.762,166.873Z" transform="translate(-0.683 -1.058)" fill="#201f20"/>
        <path id="Caminho_675" data-name="Caminho 675" d="M146.858,56.914c4.667.444,9.334,2.445,10.89,6.445s-2.222,10.446-6.89,9.557c5.334-.889,10.89-.889,15.335,1.556a11.779,11.779,0,0,1,6.223,12.668c-1.111,5.112-6.89,9.779-12,8.445,5.112,1.778,9.779,4.223,12.668,8.445s4,10.223,1.333,15.113c-2.667,5.112-9.112,8.223-14,6.223,3.334,3.778,6,9.334,3.556,14.224-2.222,4.445-7.556,6.89-12.446,6.89s-9.112-2.222-13.335-4.223c-4.223,8.89-16.224,13.779-24.447,9.779-4.445-2.222-7.556-8-4.223-12.224-4.889,2-10,4-15.113,4.223s-10.446-1.556-12.668-5.778-.444-10.89,4.445-12.89c-7.112,3.556-16.224,1.333-19.558-5.112-3.334-6.223-.667-15.557,5.778-20.224-7.334-4.223-10.223-14.224-6.667-22.669,1.111-2.667,3.111-5.334,5.778-6.445,4.667-2.222,9.334.444,13.335,2.889-2.667-4.889-.222-12.446,5.334-15.557,5.334-3.111,12.668-1.333,15.113,3.778,3.334-4.223,6.667-8.445,11.112-11.335s10.446-3.778,14.446-.889,4,10-.667,12.668C133.523,57.8,140.858,56.025,146.858,56.914Z" transform="translate(0 0)" fill="url(#linear-gradient-2)"/>
        <circle id="Elipse_340" data-name="Elipse 340" cx="12.446" cy="12.446" r="12.446" transform="translate(117.077 86.695)" fill="#dfa330" stroke="#000" stroke-miterlimit="10" stroke-width="1.683"/>
        <path id="Caminho_676" data-name="Caminho 676" d="M139.653,96.652c-.222,1.333-2.445-1.556-6.667-2.889-3.111-.889-9.779,1.333-9.334.222.222-1.333,3.778-6,10.223-4C138.987,91.541,139.876,95.541,139.653,96.652Z" transform="translate(-0.574 -0.4)" fill="#ebc477"/>
        <circle id="Elipse_341" data-name="Elipse 341" cx="12.446" cy="12.446" r="12.446" transform="translate(131.301 79.139)" fill="#dfa330" stroke="#000" stroke-miterlimit="10" stroke-width="1.683"/>
        <path id="Caminho_677" data-name="Caminho 677" d="M154.016,89.022c-.222,1.333-2.445-1.556-6.667-2.889-3.111-.889-9.779,1.333-9.334.222.222-1.333,3.778-6,10.223-4C153.349,83.688,154.238,87.689,154.016,89.022Z" transform="translate(-0.712 -0.327)" fill="#ebc477"/>
        <circle id="Elipse_342" data-name="Elipse 342" cx="12.446" cy="12.446" r="12.446" transform="translate(216.866 87.14)" fill="#dfa330" stroke="#000" stroke-miterlimit="10" stroke-width="1.683"/>
        <path id="Caminho_678" data-name="Caminho 678" d="M238.049,107.117c-1.334.445.222-2.889-.667-7.334-.667-3.111-5.778-7.779-4.667-8.223,1.333-.444,7.112.667,8.445,7.112C242.272,104.006,239.16,106.673,238.049,107.117Z" transform="translate(-1.625 -0.42)" fill="#ebc477"/>
        <circle id="Elipse_343" data-name="Elipse 343" cx="12.446" cy="12.446" r="12.446" transform="translate(230.423 96.03)" fill="#dfa330" stroke="#000" stroke-miterlimit="10" stroke-width="1.683"/>
        <path id="Caminho_679" data-name="Caminho 679" d="M251.514,116.094c-1.333.445.222-2.889-.667-7.334-.667-3.111-5.778-7.779-4.667-8.223,1.333-.444,7.112.667,8.445,7.112C255.736,112.982,252.847,115.649,251.514,116.094Z" transform="translate(-1.755 -0.506)" fill="#ebc477"/>
        <path id="Caminho_680" data-name="Caminho 680" d="M125.749,200.9c-4.223-11.779-12.668-26.892-14.224-39.338-5.112-40.893,12.668-62.9,46.45-68.23,25.114-4,57.562-5.112,75.786,15.557,20.669,23.114,24.225,66.9,13.779,95.344-1.111,3.334-10.668,14-13.335,16.446s-7.556-1.333-10.668-2.889Z" transform="translate(-0.448 -0.415)" fill="url(#linear-gradient-3)"/>
        <path id="Caminho_681" data-name="Caminho 681" d="M239.733,214.733c-3.111-3.111-8.89-3.556-11.335.222-.222.445-1.556,2.889-2,2.889a18.514,18.514,0,0,0-3.334-.889c.222,0,1.556-10,3.111-21.558a34.1,34.1,0,0,1-6-9.779c-2.889-7.779-2.222-29.337-.667-37.56-14.668-30.448-84.676-46.005-102.233,2.445-.222.444,6.223,28.448-5.556,35.115-10.446,5.778-.667,48.45,36.226,52.45,17.78,2,64.007-1.111,74.675-10,.445-.444,1.111-.222,1.333.444a10.322,10.322,0,0,0,2.889,4.445l.667.667c4.445,2.889,13.779-.444,15.779-5.778C245.29,223.178,242.845,217.844,239.733,214.733Z" transform="translate(-0.421 -0.69)" fill="#ba7b43"/>
        <path id="Caminho_682" data-name="Caminho 682" d="M181.761,169.62a29.156,29.156,0,0,0-1.111,14c.444,3.556,6.89,5.334,8.223,2,2.222-4.667,2.445-11.779,1.556-16C189.539,164.953,183.761,164.286,181.761,169.62Z" transform="translate(-1.121 -1.138)" fill="#201f20"/>
        <path id="Caminho_683" data-name="Caminho 683" d="M142.264,169.62a29.157,29.157,0,0,0-1.111,14c.445,3.556,6.89,5.334,8.223,2,2.222-4.667,2.445-11.779,1.556-16C150.042,164.953,144.264,164.286,142.264,169.62Z" transform="translate(-0.739 -1.138)" fill="#201f20"/>
        <path id="Caminho_684" data-name="Caminho 684" d="M242.251,219.466c-2.889-1.778-6-1.111-8.445.889a1.589,1.589,0,0,0,.444,2.667c1.333.667,2.222,1.778,1.556,3.334-.667,1.778-2.667,1.111-4,.667a1.1,1.1,0,0,0-1.333,1.333c1.111,3.334,6,2.667,7.779.222a5.678,5.678,0,0,0-.444-6.89,3.857,3.857,0,0,1,3.111.667c1.111.889,1.111,2.667,1.333,4a1.089,1.089,0,0,0,2,.222C245.585,224.133,244.474,221.022,242.251,219.466Z" transform="translate(-1.605 -1.645)" fill="#915b23"/>
        <path id="VENTA_3_" d="M169.028,194.939a5.846,5.846,0,0,0-6.223-7.779,12.819,12.819,0,0,0-3.111.667h0c.667-.222.444-.222,0,0a7.319,7.319,0,0,0-8.668,4.667c-1.333,3.556.444,8.668,4.223,9.557C161.027,203.606,166.583,200.939,169.028,194.939Z" transform="translate(-0.834 -1.343)" fill="#774928" opacity="0.6"/>
        <g id="Grupo_253" data-name="Grupo 253" transform="translate(152.098 205.95)">
          <path id="Caminho_685" data-name="Caminho 685" d="M184.83,219.583c-1.111,5.778-14.224,11.112-22.669,9.557s-10-6.89-8.89-12.668,4.445-10.223,12.89-8.668S185.941,213.582,184.83,219.583Z" transform="translate(-152.955 -207.49)" fill="#c64832"/>
          <g id="Grupo_252" data-name="Grupo 252" clip-path="url(#clip-path)">
            <path id="Caminho_686" data-name="Caminho 686" d="M186.622,210.989c1.333-6.223-9.112-16.446-18-18.446s-12.446,2.667-13.779,8.668,0,11.557,8.89,13.557S185.289,217.211,186.622,210.989Z" transform="translate(-152.969 -207.341)" fill="#fff"/>
          </g>
        </g>
        <g id="ROUPA_3_" transform="translate(104.187 247.262)">
          <path id="Caminho_688" data-name="Caminho 688" d="M217.8,358.837c6.667,12.224-8.445,173.352-7.112,180.242-10.89,2.445-7.334.445-18.446,3.111-3.334-10-23.558-98.677-27.559-109.123l-3.556-.222c-.667,0,0,1.111-.222,1.778-6.667,19.335-16,92.232-22.669,109.123-8.223-1.778-11.779.222-20-1.556,1.333-36.671-6.667-120.9-1.778-157.35Z" transform="translate(-104.676 -250.263)" fill="#dde3e8"/>
          <g id="FRENTE_3_">
            <path id="Caminho_689" data-name="Caminho 689" d="M149.908,255.581c.444-.889.667-1.778,1.111-2.667C150.575,253.8,150.353,254.692,149.908,255.581Z" transform="translate(-105.014 -249.24)" fill="#6191c9"/>
            <path id="Caminho_690" data-name="Caminho 690" d="M151.255,252.441c.444-.889.667-1.556,1.111-2.445A21.65,21.65,0,0,0,151.255,252.441Z" transform="translate(-105.027 -249.212)" fill="#6191c9"/>
            <path id="Caminho_691" data-name="Caminho 691" d="M152.377,250Z" transform="translate(-105.038 -249.212)" fill="#6191c9"/>
            <path id="Caminho_692" data-name="Caminho 692" d="M151.03,252.91c0-.222.222-.222.222-.444A.776.776,0,0,1,151.03,252.91Z" transform="translate(-105.025 -249.236)" fill="#6191c9"/>
            <path id="Caminho_693" data-name="Caminho 693" d="M151.026,253.323a7.425,7.425,0,0,1,6-3.778c8-.667,22.669-.222,22.891.222,0,.222.667,1.333.667,1.556a3.9,3.9,0,0,1,.889,1.111c0,.222,1.111.889,1.111,1.111.444.667,1.556.222,2.445.444,14.668,3.778,39.782,125.125,54.228,171.8-32.226,16.446-105.567,10.89-134.681-.667,9.779-39.338,9.112-156.239,44.672-169.574A3.767,3.767,0,0,0,151.026,253.323Z" transform="translate(-104.577 -249.204)" fill="#6191c9"/>
          </g>
        </g>
        <g id="ESQUERDA_6_" transform="translate(79.342 322.61)">
          <g id="Grupo_256" data-name="Grupo 256">
            <g id="Grupo_255" data-name="Grupo 255">
              <path id="Caminho_694" data-name="Caminho 694" d="M101.071,328.287a120.929,120.929,0,0,0-.667,12.668,129.064,129.064,0,0,0,1.111,16c.667,5.778,2.667,11.335,1.556,17.113-.889,4.889-7.334,5.778-10,2-6.223-8.668-6-24-6.223-34.448-.222-4.667,0-9.334,0-14C90.847,324.732,98.182,324.065,101.071,328.287Z" transform="translate(-79.56 -325.287)" fill="#d99156"/>
              <g id="Grupo_254" data-name="Grupo 254" transform="translate(0 37.636)">
                <path id="Caminho_695" data-name="Caminho 695" d="M109.668,400.662c0,.667-4.445,4.889-6.667,2.889-3.778-3.778-1.556-4.889-2-8.223-.222,3.111-.889,10-5.778,8.89-4.223-.889-2.445-6.223-2.667-8-.222-1.111,1.111-2.889.222-1.778,0,0,.222,8.223-7.779,4.445-2.445-1.111.444-7.779.444-7.779s0,1.111-1.778,2-1.778.222-3.334-.444c-1.778-.667-.222-5.334,0-5.778,2.667-3.778,1.333-2.445,2.445-7.112.889-3.334.889-6,2.667-8.89,1.556-2.445,2.445-3.556,4.889-3.778a10.65,10.65,0,0,0,5.778-2c1.778-1.556,3.111-2.222,5.556-1.556,2.222.444,3.778,2.222,5.112,4.223s2.222,4.667,3.556,6.667c1.556,2.667,3.111,4.223,6.223,5.112,1.778.444,3.556.889,5.112,1.333,1.778.444,2.222.444,1.556,2.222a7.982,7.982,0,0,1-1.556,2.222c-4,4.667-7.334.667-13.335-2.667C110.113,392.439,110.335,392.217,109.668,400.662Z" transform="translate(-79.49 -363.29)" fill="#d99156"/>
              </g>
            </g>
          </g>
        </g>
        <g id="ESQUERDA_5_" transform="translate(204.17 330.506)">
          <g id="Grupo_259" data-name="Grupo 259">
            <g id="Grupo_258" data-name="Grupo 258">
              <path id="Caminho_696" data-name="Caminho 696" d="M237.761,334.587a61.512,61.512,0,0,1-2.222,11.112,138.1,138.1,0,0,1-4.445,13.557c-1.778,4.889-4.667,9.334-5.334,14.446-.444,4.445,5.112,6.667,8.223,4,7.334-6,10.446-19.558,13.113-28.225,1.111-4,2.222-8,3.111-12C247.54,333.921,241.095,331.7,237.761,334.587Z" transform="translate(-205.729 -333.26)" fill="#d99156"/>
              <g id="Grupo_257" data-name="Grupo 257" transform="translate(0 30.442)">
                <path id="Caminho_697" data-name="Caminho 697" d="M208.007,403.781a5.523,5.523,0,0,0-.222,1.778,2.312,2.312,0,0,0,2.889,1.334,5.288,5.288,0,0,0,2.889-2c3.778-4,6.667-13.779,9.557-12.668,2,.889.222,6.89-.667,10.89a21.919,21.919,0,0,0-.667,5.334c0,3.111,4.667,3.556,5.334.667.889-4,.889-10.446,2.445-14.224a1.2,1.2,0,0,1,2.222,0l3.556,10.668c.667,1.556,2,3.334,3.556,2.667,1.333-.444,1.333-2.445,1.111-3.778a36.168,36.168,0,0,0-2.889-8.223c-.667-1.333-1.556-3.111-.445-4.445s3.334-.889,4.445.222c1.333,1.111,2.222,2.667,3.556,3.556,1.556.889,4,.222,4-1.556a4.12,4.12,0,0,0-.445-1.556c-2.222-3.556-7.556-5.778-7.556-10,0-3.111,1.111-5.334.222-8.223-.667-2.445-1.334-3.556-3.334-4.445a9.66,9.66,0,0,1-4.667-3.111c-1.333-1.778-2.222-2.667-4.445-2.667a8.378,8.378,0,0,0-5.556,2.445c-1.556,1.333-2.889,3.556-4.445,5.112-2,2-4,.667-6.445-.444-1.333-.667-2.667-1.333-4-1.111-1.556,0-2.667,1.778-2.445,3.334a6.655,6.655,0,0,0,.889,2.222c2.222,4.889,6.445,3.334,12.224,3.556C217.564,388,210.23,395.78,208.007,403.781Z" transform="translate(-205.534 -363.999)" fill="#d99156"/>
              </g>
            </g>
          </g>
        </g>
        <path id="DIREITO_7_" d="M183.57,253.138c4.223,0,20.224,6.223,25.558,10.223,13.779,10.89,34.448,26,44.894,43.116,12.446,20.447,10.668,44,8.445,54.45-2.445,3.334-38-8.445-38-8.445s15.335-32.67,11.112-40.227c-7.556-14-13.779-17.335-32-24.225-3.556-1.333-4.667-12.224-5.778-15.335C194.682,262.917,183.57,253.138,183.57,253.138Z" transform="translate(-1.152 -1.981)" fill="url(#linear-gradient-7)"/>
        <path id="DIREITO_6_" d="M149.83,255.153c2.889-2.667-21.113,5.112-28,9.334-15.113,9.112-32.67,19.78-43.116,36.671-7.334,20.891-6.667,42.671-4.445,53.117,4.445,0,32.67,3.111,40.449-3.778-3.334-9.779-12.446-38-12.446-38s16.446-20.669,26.447-24.892c2.222-2.889,7.779-18.446,13.335-26C143.829,259.375,147.607,256.931,149.83,255.153Z" transform="translate(-0.082 -1.995)" fill="url(#linear-gradient-8)"/>
        <path id="GOLA_4_" d="M183.463,253.99c0,3.111-6.667,6.223-16.224,6.223s-17.78-3.111-17.78-6.223c0-1.111,3.334-4.667,5.112-4.667.889,0-.444,2.889,1.556,3.334a56.553,56.553,0,0,0,11.557,1.111c3.778,0,7.556,0,10.223-.889,2.222-.889.667-3.111,1.333-3.334C182.8,248.434,183.463,252.435,183.463,253.99Z" transform="translate(-0.823 -1.944)" fill="#db9600"/>
        <path id="PESCOÇO_3_" d="M176.466,239c-1.778.444-9.779-.667-13.557.444-.889,8.223-.667,5.334-1.556,13.557a97.929,97.929,0,0,0,15.113.444A91.988,91.988,0,0,1,176.466,239Z" transform="translate(-0.938 -1.843)" fill="#915b23"/>
        <path id="BOCA_6_" d="M177.279,153.48c-1.556.889-.667,2.889,1.333,2.445,3.556-.889,6.445-1.111,9.779,0,2.667,1.111,3.778,3.334,5.334,5.112,1.111,1.333,3.778.667,3.778-.889C198.17,152.591,184.168,149.035,177.279,153.48Z" transform="translate(-1.084 -0.999)" fill="#201f20"/>
        <path id="BOCA_5_" d="M135.762,166.873c-1.556-.889-.667-2.889,1.333-2.445,3.556.667,6.667.889,9.779-.667,2.667-1.333,3.556-3.556,5.112-5.334,1.111-1.333,3.778-.889,4,.667C156.654,166.429,142.874,170.874,135.762,166.873Z" transform="translate(-0.683 -1.058)" fill="#201f20"/>
      </g>
      <path id="Caminho_531" data-name="Caminho 531" d="M132.361,627.435a4.026,4.026,0,0,1-2.483,2.2,4.139,4.139,0,0,1-5.614-3.191l-3.319-13.1-11.905,6.126a4.515,4.515,0,0,1-1.926.557,4.055,4.055,0,0,1-1.889-.361,4.335,4.335,0,0,1-2.1-2.2,3.364,3.364,0,0,1-.135-2.942,4.154,4.154,0,0,1,2.085-1.994L119,605.694l-3.981-15.736a3.943,3.943,0,0,1,.226-2.694,4,4,0,0,1,2.438-2.19,4.274,4.274,0,0,1,5.659,3.176l3.4,13.448,11.762-6.344a4.018,4.018,0,0,1,3.883-.316,3.891,3.891,0,0,1,2.115,2.258,3.627,3.627,0,0,1-.045,2.89,4.215,4.215,0,0,1-2.047,2.1l-13.809,6.75,3.981,15.736A3.943,3.943,0,0,1,132.361,627.435Z" transform="translate(805.378 -121.518) rotate(49)" fill="none" stroke="#1c0a2d" stroke-miterlimit="10" stroke-width="2"/>
      <path id="Caminho_698" data-name="Caminho 698" d="M148.05,649.989a6.157,6.157,0,0,1-3.8,3.372,6.329,6.329,0,0,1-8.585-4.879l-5.075-20.035-18.205,9.367a6.9,6.9,0,0,1-2.946.852,6.2,6.2,0,0,1-2.888-.552,6.629,6.629,0,0,1-3.211-3.372,5.144,5.144,0,0,1-.207-4.5,6.353,6.353,0,0,1,3.188-3.05l21.3-10.449-6.088-24.063a6.029,6.029,0,0,1,.345-4.12,6.111,6.111,0,0,1,3.728-3.349,6.536,6.536,0,0,1,8.654,4.856l5.2,20.564,17.987-9.7a6.145,6.145,0,0,1,5.938-.483,5.95,5.95,0,0,1,3.234,3.452,5.547,5.547,0,0,1-.069,4.419,6.445,6.445,0,0,1-3.13,3.211l-21.117,10.322,6.088,24.063A6.03,6.03,0,0,1,148.05,649.989Z" transform="translate(256.285 -110.9)" fill="none" stroke="#dfa330" stroke-miterlimit="10" stroke-width="2"/>
      <g id="Grupo_260" data-name="Grupo 260" transform="translate(-204.092 184.783)">
        <circle id="Elipse_317" data-name="Elipse 317" cx="26.663" cy="26.663" r="26.663" transform="translate(264.346 328.705)" fill="#4292cc"/>
        <circle id="Elipse_318" data-name="Elipse 318" cx="26.663" cy="26.663" r="26.663" transform="translate(268.854 333.233)" fill="none" stroke="#1c0a2d" stroke-miterlimit="10" stroke-width="2"/>
      </g>
    </g>
  </g>
</svg>
