<svg xmlns="http://www.w3.org/2000/svg" width="631.573" height="485" viewBox="0 0 631.573 485">
  <g id="Grupo_555" data-name="Grupo 555" transform="translate(-43.427 -152.5)">
    <path id="Caminho_482" data-name="Caminho 482" d="M636.538,364.237c0,108.478-118.4,30.392-264.679,84.347S4.964,417.971,4.964,309.5,189.431,128.53,297.908,128.53,636.538,255.753,636.538,364.237Z" transform="translate(38.462 33.624)" fill="#4292cc" opacity="0.05"/>
    <text id="_84_" data-name="84%" transform="translate(178 183.5)" fill="#fbfbfb" font-size="24" font-family="Lato-Bold, Lato" font-weight="700"><tspan x="0" y="0">84%</tspan></text>
    <g id="Grupo_368" data-name="Grupo 368" transform="translate(0 9)">
      <g id="Grupo_366" data-name="Grupo 366" transform="translate(-541 3.25)">
        <path id="Retângulo_1466" data-name="Retângulo 1466" d="M10,0H82A10,10,0,0,1,92,10V138.1a0,0,0,0,1,0,0H0a0,0,0,0,1,0,0V10A10,10,0,0,1,10,0Z" transform="translate(1016 388.5)" fill="#f6c774"/>
        <path id="Retângulo_1465" data-name="Retângulo 1465" d="M10,0H82A10,10,0,0,1,92,10V317a0,0,0,0,1,0,0H0a0,0,0,0,1,0,0V10A10,10,0,0,1,10,0Z" transform="translate(908 210)" fill="#4cb9f6"/>
        <text id="_68_" data-name="68%" transform="translate(932 250.5)" fill="#fbfbfb" font-size="24" font-family="Lato-Bold, Lato" font-weight="700"><tspan x="0" y="0">68%</tspan></text>
        <text id="_32_" data-name="32%" transform="translate(1040 429.5)" fill="#fbfbfb" font-size="24" font-family="Lato-Bold, Lato" font-weight="700"><tspan x="0" y="0">32%</tspan></text>
        <text id="Ouviu_música_na_internet" data-name="Ouviu música na internet" transform="translate(908 542.5)" fill="#727272" font-size="14" font-family="RobotoSlab-Regular, Roboto Slab"><tspan x="15.583" y="15">Ouviu música na internet</tspan></text>
      </g>
      <path id="Retângulo_1468" data-name="Retângulo 1468" d="M10,0H82A10,10,0,0,1,92,10V115.1a0,0,0,0,1,0,0H0a0,0,0,0,1,0,0V10A10,10,0,0,1,10,0Z" transform="translate(259 415.5)" fill="#f6c774"/>
      <path id="Retângulo_1467" data-name="Retângulo 1467" d="M10,0H82A10,10,0,0,1,92,10V387a0,0,0,0,1,0,0H0a0,0,0,0,1,0,0V10A10,10,0,0,1,10,0Z" transform="translate(151 143.5)" fill="#4cb9f6"/>
      <text id="_16_" data-name="16%" transform="translate(283 454.5)" fill="#fbfbfb" font-size="24" font-family="Lato-Bold, Lato" font-weight="700"><tspan x="0" y="0">16%</tspan></text>
      <text id="Assistiu_a_vídeos_programas_filmes_ou_séries_na_internet" data-name="Assistiu a vídeos, programas,
filmes ou séries na internet" transform="translate(151 546.5)" fill="#727272" font-size="14" font-family="RobotoSlab-Regular, Roboto Slab"><tspan x="3.511" y="15">Assistiu a vídeos, programas,</tspan><tspan x="9.468" y="35">filmes ou séries na internet</tspan></text>
      <g id="Grupo_367" data-name="Grupo 367" transform="translate(-39 4)">
        <rect id="Retângulo_1470" data-name="Retângulo 1470" width="7.35" height="26.131" transform="translate(197.915 597.466)" fill="#4292cc"/>
        <rect id="Retângulo_1469" data-name="Retângulo 1469" width="7.35" height="21.936" transform="translate(190 601.65)" fill="#4292cc"/>
        <rect id="Retângulo_1471" data-name="Retângulo 1471" width="7.35" height="26.131" transform="translate(266 597.926)" fill="#f6c774"/>
        <rect id="Retângulo_1472" data-name="Retângulo 1472" width="7.35" height="21.936" transform="translate(258.085 602.109)" fill="#f6c774"/>
        <text id="Sim" transform="translate(222 620.5)" fill="#727272" font-size="14" font-family="RobotoSlab-Regular, Roboto Slab"><tspan x="-13.176" y="0">Sim</tspan></text>
        <text id="Não" transform="translate(290 620.5)" fill="#727272" font-size="14" font-family="RobotoSlab-Regular, Roboto Slab"><tspan x="-13.115" y="0">Não</tspan></text>
      </g>
    </g>
    <path id="Caminho_531" data-name="Caminho 531" d="M132.361,627.435a4.026,4.026,0,0,1-2.483,2.2,4.139,4.139,0,0,1-5.614-3.191l-3.319-13.1-11.905,6.126a4.515,4.515,0,0,1-1.926.557,4.055,4.055,0,0,1-1.889-.361,4.335,4.335,0,0,1-2.1-2.2,3.364,3.364,0,0,1-.135-2.942,4.154,4.154,0,0,1,2.085-1.994L119,605.694l-3.981-15.736a3.943,3.943,0,0,1,.226-2.694,4,4,0,0,1,2.438-2.19,4.274,4.274,0,0,1,5.659,3.176l3.4,13.448,11.762-6.344a4.018,4.018,0,0,1,3.883-.316,3.891,3.891,0,0,1,2.115,2.258,3.627,3.627,0,0,1-.045,2.89,4.215,4.215,0,0,1-2.047,2.1l-13.809,6.75,3.981,15.736A3.943,3.943,0,0,1,132.361,627.435Z" transform="translate(-46.622 -340.023)" fill="none" stroke="#1c0a2d" stroke-miterlimit="10" stroke-width="2"/>
    <path id="Caminho_1155" data-name="Caminho 1155" d="M149.665,652.311a6.375,6.375,0,0,1-3.933,3.492,6.555,6.555,0,0,1-8.891-5.053L131.586,630l-18.854,9.7a7.152,7.152,0,0,1-3.051.882,6.424,6.424,0,0,1-2.991-.572,6.865,6.865,0,0,1-3.325-3.492,5.327,5.327,0,0,1-.214-4.66,6.579,6.579,0,0,1,3.3-3.158l22.06-10.821-6.3-24.92a6.244,6.244,0,0,1,.358-4.266,6.328,6.328,0,0,1,3.861-3.468,6.769,6.769,0,0,1,8.962,5.029l5.387,21.3L159.4,601.506a6.364,6.364,0,0,1,6.15-.5,6.162,6.162,0,0,1,3.349,3.575,5.745,5.745,0,0,1-.072,4.577,6.675,6.675,0,0,1-3.242,3.325l-21.869,10.69,6.3,24.92A6.244,6.244,0,0,1,149.665,652.311Z" transform="translate(464.378 -340.023)" fill="none" stroke="#1c0a2d" stroke-miterlimit="10" stroke-width="2"/>
    <text id="_84_2" data-name="84%" transform="translate(174 192.75)" fill="#fbfbfb" font-size="24" font-family="Lato-Bold, Lato" font-weight="700"><tspan x="0" y="0">84%</tspan></text>
  </g>
</svg>
