<svg xmlns="http://www.w3.org/2000/svg" width="199.25" height="242.33" viewBox="0 0 199.25 242.33">
  <g id="Grupo_560" data-name="Grupo 560" transform="translate(-691.75 -141.67)">
    <g id="INFOGRÁFICO_3_-_CELULAR_1svg" data-name="INFOGRÁFICO 3 - CELULAR 1svg" transform="translate(546.554 51.304)">
      <path id="Caminho_1005" data-name="Caminho 1005" d="M344.446,257.482c0,54.219-22.058,72.039-76.277,72.039S128.327,303.39,148.1,257.482C169.554,207.688,136.261,136,190.48,136S344.446,203.263,344.446,257.482Z" transform="translate(0 -32.488)" fill="#3f92cc" opacity="0.2"/>
      <path id="Caminho_1006" data-name="Caminho 1006" d="M346.876,298.024l-89.828,33.838a12.963,12.963,0,0,1-16.709-7.568l-68.77-182.54a12.963,12.963,0,0,1,7.568-16.708L268.96,91.2a12.964,12.964,0,0,1,16.708,7.568l68.764,182.54a12.963,12.963,0,0,1-7.556,16.717Z" transform="translate(-18.182)" fill="#727272"/>
      <path id="Caminho_1007" data-name="Caminho 1007" d="M326.46,183.273,312.2,188.649a3.811,3.811,0,0,1-2.688-7.133l14.266-5.373a3.809,3.809,0,1,1,2.685,7.13Z" transform="translate(-115.221 -60.893)" fill="#444b61"/>
      <path id="Caminho_1008" data-name="Caminho 1008" d="M402.685,164.615l-3.566,1.342a3.811,3.811,0,0,1-2.688-7.13L400,157.482a3.811,3.811,0,0,1,2.688,7.133Z" transform="translate(-177.171 -47.607)" fill="#444b61"/>
      <rect id="Retângulo_1538" data-name="Retângulo 1538" width="122.309" height="160.532" transform="matrix(0.937, -0.349, 0.349, 0.937, 156.945, 151.183)" fill="#3f92cc"/>
      <rect id="Retângulo_1539" data-name="Retângulo 1539" width="105.548" height="24.455" transform="translate(228.601 295.382) rotate(-20.64)" fill="#727272"/>
      <circle id="Elipse_388" data-name="Elipse 388" cx="11.431" cy="11.431" r="11.431" transform="translate(267.529 284.969)" fill="#444544"/>
      <path id="Caminho_1009" data-name="Caminho 1009" d="M438.91,150.72l56.42,149.768L381.22,343.475Z" transform="translate(-168.031 -42.968)" fill="#88b9d6" opacity="0.41"/>
    </g>
  </g>
</svg>
