<svg xmlns="http://www.w3.org/2000/svg" xmlns:xlink="http://www.w3.org/1999/xlink" width="731.756" height="547.163" viewBox="0 0 731.756 547.163">
  <defs>
    <linearGradient id="linear-gradient" x1="4.861" y1="0.355" x2="5.322" y2="0.789" gradientUnits="objectBoundingBox">
      <stop offset="0" stop-color="#502e25"/>
      <stop offset="1" stop-color="#201310"/>
    </linearGradient>
    <linearGradient id="linear-gradient-2" x1="-1.385" y1="-2.813" x2="-0.391" y2="-2.813" gradientUnits="objectBoundingBox">
      <stop offset="0" stop-color="#e2ac56"/>
      <stop offset="1" stop-color="#d99156"/>
    </linearGradient>
    <linearGradient id="linear-gradient-3" x1="3.277" y1="-8.792" x2="4.271" y2="-8.792" xlink:href="#linear-gradient-2"/>
    <linearGradient id="linear-gradient-4" x1="0.344" y1="0.355" x2="0.805" y2="0.789" xlink:href="#linear-gradient"/>
    <linearGradient id="linear-gradient-5" x1="2.322" y1="2.71" x2="3.305" y2="2.71" xlink:href="#linear-gradient"/>
    <clipPath id="clip-path">
      <path id="Caminho_1173" data-name="Caminho 1173" d="M85.3,102.375c-.911,4.738-11.664,9.112-18.589,7.836s-8.2-5.65-7.29-10.388,3.645-8.383,10.57-7.107S86.207,97.454,85.3,102.375Z" transform="translate(-59.158 -92.459)"/>
    </clipPath>
    <linearGradient id="linear-gradient-9" x1="-0.14" y1="0.58" x2="1.289" y2="0.58" gradientUnits="objectBoundingBox">
      <stop offset="0" stop-color="#fff"/>
      <stop offset="0" stop-color="#6191c9"/>
      <stop offset="1" stop-color="#446a96"/>
    </linearGradient>
  </defs>
  <g id="Grupo_565" data-name="Grupo 565" transform="translate(-109.568 -69.527)">
    <path id="Caminho_1211" data-name="Caminho 1211" d="M229.308,257.944c9.443-234.9,135.5-34.213,323.934-28.412S785.637,25.634,880,194.284,818.714,596.332,687.813,596.332,219.865,492.846,229.308,257.944Z" transform="translate(-45.163 -85.967) rotate(7)" fill="#4292cc" opacity="0.1"/>
    <g id="Grupo_384" data-name="Grupo 384">
      <path id="Caminho_699" data-name="Caminho 699" d="M211.8,183.261C169.3,286.229,20.737,271.1,2.867,225.288S53.051,0,140.324,0,254.3,80.293,211.8,183.261Z" transform="translate(438.579 365.879) rotate(112)" fill="#00ba91" opacity="0.23"/>
      <path id="Caminho_531" data-name="Caminho 531" d="M55.482,79.762a7.534,7.534,0,0,1-4.648,4.126,7.746,7.746,0,0,1-10.506-5.971L34.118,53.4,11.838,64.862A8.449,8.449,0,0,1,8.232,65.9,7.588,7.588,0,0,1,4.7,65.228,8.112,8.112,0,0,1,.768,61.1a6.3,6.3,0,0,1-.253-5.507,7.774,7.774,0,0,1,3.9-3.732L30.484,39.075,23.034,9.627a7.379,7.379,0,0,1,.423-5.042A7.478,7.478,0,0,1,28.02.486,8,8,0,0,1,38.61,6.43L44.976,31.6,66.988,19.725a7.52,7.52,0,0,1,7.267-.591,7.282,7.282,0,0,1,3.957,4.225,6.789,6.789,0,0,1-.085,5.408A7.888,7.888,0,0,1,74.3,32.7L48.455,45.328,55.9,74.776A7.379,7.379,0,0,1,55.482,79.762Z" transform="matrix(0.326, -0.946, 0.946, 0.326, 153.532, 318.255)" fill="none" stroke="#1c0a2d" stroke-miterlimit="10" stroke-width="2"/>
      <path id="Caminho_698" data-name="Caminho 698" d="M126.807,589.657a7.807,7.807,0,0,1,4.816-4.276,8.026,8.026,0,0,1,10.886,6.187l6.435,25.406L172.03,605.1a8.753,8.753,0,0,1,3.736-1.08,7.862,7.862,0,0,1,3.663.7,8.406,8.406,0,0,1,4.071,4.276,6.523,6.523,0,0,1,.263,5.706,8.055,8.055,0,0,1-4.042,3.867l-27.011,13.251,7.72,30.514a7.646,7.646,0,0,1-.438,5.224,7.75,7.75,0,0,1-4.728,4.247,8.289,8.289,0,0,1-10.974-6.158l-6.6-26.078-22.809,12.3a7.792,7.792,0,0,1-7.53.613,7.545,7.545,0,0,1-4.1-4.378,7.034,7.034,0,0,1,.088-5.6,8.174,8.174,0,0,1,3.969-4.071l26.778-13.089-7.72-30.514A7.647,7.647,0,0,1,126.807,589.657Z" transform="translate(595.729 -428.339) rotate(16)" fill="none" stroke="#dfa330" stroke-miterlimit="10" stroke-width="2"/>
      <g id="Grupo_260" data-name="Grupo 260" transform="translate(181.532 150.59) rotate(60)">
        <circle id="Elipse_317" data-name="Elipse 317" cx="20.434" cy="20.434" r="20.434" transform="translate(3.455 3.47)" fill="#4292cc"/>
        <circle id="Elipse_318" data-name="Elipse 318" cx="20.434" cy="20.434" r="20.434" transform="translate(1.732 1)" fill="none" stroke="#1c0a2d" stroke-miterlimit="10" stroke-width="2"/>
      </g>
      <g id="Grupo_321" data-name="Grupo 321" transform="translate(228.221 433.912) rotate(60)">
        <circle id="Elipse_317-2" data-name="Elipse 317" cx="55.024" cy="55.024" r="55.024" transform="translate(9.303 9.345)" fill="#4292cc"/>
        <circle id="Elipse_318-2" data-name="Elipse 318" cx="55.024" cy="55.024" r="55.024" transform="translate(7.794 4.5)" fill="none" stroke="#1c0a2d" stroke-miterlimit="10" stroke-width="2"/>
      </g>
      <path id="Caminho_1157" data-name="Caminho 1157" d="M105.859,28.688c-3.827.364-7.654,2-8.93,5.285-1.276,3.463,1.822,8.565,5.65,7.836C98.2,41.08,93.649,41.08,90,43.085a9.659,9.659,0,0,0-5.1,10.388c.911,4.192,5.65,8.019,9.841,6.925-4.192,1.458-8.019,3.463-10.388,6.925s-3.28,8.383-1.093,12.393c2.187,4.192,7.472,6.743,11.481,5.1-2.734,3.1-4.921,7.654-2.916,11.664,1.822,3.645,6.2,5.65,10.206,5.65s7.472-1.822,10.935-3.463c3.463,7.29,13.3,11.3,20.047,8.019,3.645-1.822,6.2-6.561,3.463-10.023,4.009,1.64,8.2,3.28,12.393,3.463s8.565-1.276,10.388-4.738.364-8.93-3.645-10.57c5.832,2.916,13.3,1.093,16.037-4.192,2.734-5.1.547-12.757-4.738-16.584,6.014-3.463,8.383-11.664,5.467-18.589a9.66,9.66,0,0,0-4.738-5.285c-3.827-1.822-7.654.364-10.935,2.369,2.187-4.009.182-10.206-4.374-12.757-4.374-2.551-10.388-1.093-12.393,3.1-2.734-3.463-5.467-6.925-9.112-9.294s-8.565-3.1-11.846-.729-3.28,8.2.547,10.388C116.976,29.417,110.779,27.959,105.859,28.688Z" transform="translate(293.474 119.841)" fill="url(#linear-gradient)"/>
      <g id="Grupo_370" data-name="Grupo 370" transform="translate(353.954 449.595)">
        <path id="Caminho_1158" data-name="Caminho 1158" d="M97.172,190.6c0,31.346.364,81.1-4.374,106.613H86.6c-4.921-33.9-10.752-71.257-16.4-106.613Z" transform="translate(-70.2 -190.6)" fill="#d99156"/>
        <path id="Caminho_1159" data-name="Caminho 1159" d="M81.85,250.382l-5.65,8.383,19.865-1.458L87.5,250.2Z" transform="translate(-65.265 -141.583)" fill="url(#linear-gradient-2)"/>
      </g>
      <g id="Grupo_371" data-name="Grupo 371" transform="translate(304.383 448.502)">
        <path id="Caminho_1160" data-name="Caminho 1160" d="M69.972,192.187c-2.551,31.164-6.561,80.916-13.3,105.884-2-.182-4.192-.365-6.2-.547C48.285,263.262,45.551,225.72,43,190Z" transform="translate(-43 -190)" fill="#d99156"/>
        <path id="Caminho_1161" data-name="Caminho 1161" d="M49.9,250.3l-6.2,7.836,19.865.182-7.836-7.836Z" transform="translate(-42.424 -140.407)" fill="url(#linear-gradient-3)"/>
      </g>
      <path id="Caminho_1162" data-name="Caminho 1162" d="M87.38,28.688c3.827.364,7.654,2,8.93,5.285,1.276,3.463-1.822,8.565-5.65,7.836,4.374-.729,8.93-.729,12.575,1.276a9.659,9.659,0,0,1,5.1,10.388c-.911,4.192-5.65,8.019-9.841,6.925,4.192,1.458,8.019,3.463,10.388,6.925s3.28,8.383,1.093,12.393c-2.187,4.192-7.472,6.743-11.481,5.1,2.734,3.1,4.921,7.654,2.916,11.664-1.822,3.645-6.2,5.65-10.206,5.65s-7.472-1.822-10.935-3.463c-3.463,7.29-13.3,11.3-20.047,8.019-3.645-1.822-6.2-6.561-3.463-10.023-4.009,1.64-8.2,3.28-12.393,3.463s-8.565-1.276-10.388-4.738-.364-8.93,3.645-10.57c-5.832,2.916-13.3,1.093-16.037-4.192-2.734-5.1-.547-12.757,4.738-16.584-6.014-3.463-8.383-11.664-5.467-18.589A9.66,9.66,0,0,1,25.6,40.169c3.827-1.822,7.654.364,10.935,2.369-2.187-4.009-.182-10.206,4.374-12.757,4.374-2.551,10.388-1.093,12.393,3.1,2.734-3.463,5.467-6.925,9.112-9.294s8.565-3.1,11.846-.729,3.28,8.2-.547,10.388C76.445,29.417,82.459,27.959,87.38,28.688Z" transform="translate(242.153 119.841)" fill="url(#linear-gradient-4)"/>
      <circle id="Elipse_426" data-name="Elipse 426" cx="9.294" cy="9.294" r="9.294" transform="translate(308.393 175.319)" fill="#6eaa6f" stroke="#000" stroke-miterlimit="10" stroke-width="0.5"/>
      <circle id="Elipse_427" data-name="Elipse 427" cx="9.294" cy="9.294" r="9.294" transform="translate(319.327 170.763)" fill="#6eaa6f" stroke="#000" stroke-miterlimit="10" stroke-width="0.5"/>
      <path id="Caminho_1163" data-name="Caminho 1163" d="M52.947,41.513c.547.364-1.458,1.093-3.463,3.28-1.458,1.64-2.187,6.014-2.734,5.65s-1.822-3.645.911-6.925C50.032,40.784,52.219,41.148,52.947,41.513Z" transform="translate(263.829 136.175)" fill="#ede39f"/>
      <path id="Caminho_1164" data-name="Caminho 1164" d="M63.637,39.025c.547.729-2.369.911-5.832,3.1-2.369,1.64-5.1,7.107-5.65,6.379s-1.093-5.467,3.827-8.748C60.175,37.02,63.091,38.3,63.637,39.025Z" transform="translate(268.629 133.56)" fill="#ede39f"/>
      <path id="Caminho_1165" data-name="Caminho 1165" d="M52.684,130.671C49.221,121.012,42.3,108.62,41.02,98.414,36.829,64.881,51.408,46.839,79.109,42.465c20.594-3.28,47.2-4.192,62.145,12.757,16.949,18.953,19.865,54.855,11.3,78.183-.911,2.734-8.748,11.481-10.935,13.486s-6.2-1.093-8.748-2.369Z" transform="translate(259.171 135.587)" fill="url(#linear-gradient-5)"/>
      <path id="Caminho_1166" data-name="Caminho 1166" d="M105.859,28.688c-3.827.364-7.654,2-8.93,5.285-1.276,3.463,1.822,8.565,5.65,7.836C98.2,41.08,93.649,41.08,90,43.085a9.659,9.659,0,0,0-5.1,10.388c.911,4.192,5.65,8.019,9.841,6.925-4.192,1.458-8.019,3.463-10.388,6.925s-3.28,8.383-1.093,12.393c2.187,4.192,7.472,6.743,11.481,5.1-2.734,3.1-4.921,7.654-2.916,11.664,1.822,3.645,6.2,5.65,10.206,5.65s7.472-1.822,10.935-3.463c3.463,7.29,13.3,11.3,20.047,8.019,3.645-1.822,6.2-6.561,3.463-10.023,4.009,1.64,8.2,3.28,12.393,3.463s8.565-1.276,10.388-4.738.364-8.93-3.645-10.57c5.832,2.916,13.3,1.093,16.037-4.192,2.734-5.1.547-12.757-4.738-16.584,6.014-3.463,8.383-11.664,5.467-18.589a9.66,9.66,0,0,0-4.738-5.285c-3.827-1.822-7.654.364-10.935,2.369,2.187-4.009.182-10.206-4.374-12.757-4.374-2.551-10.388-1.093-12.393,3.1-2.734-3.463-5.467-6.925-9.112-9.294s-8.565-3.1-11.846-.729-3.28,8.2.547,10.388C116.976,29.417,110.779,27.959,105.859,28.688Z" transform="translate(293.474 119.841)" fill="url(#linear-gradient)"/>
      <path id="Caminho_1167" data-name="Caminho 1167" d="M147.228,131.344c-2.551-2.551-7.29-2.916-9.294.182-.182.364-1.276,2.369-1.64,2.369a15.184,15.184,0,0,0-2.734-.729c.182,0,1.276-8.2,2.551-17.678a27.966,27.966,0,0,1-4.921-8.019c-2.369-6.379-1.822-24.056-.547-30.8-12.028-24.967-69.435-37.724-83.832,2-.182.364,5.1,23.327-4.556,28.794-8.565,4.738-.547,39.729,29.706,43.009,14.579,1.64,52.486-.911,61.234-8.2.365-.364.911-.182,1.093.364a8.464,8.464,0,0,0,2.369,3.645l.547.547c3.645,2.369,11.3-.364,12.939-4.738C151.784,138.269,149.78,133.9,147.228,131.344Z" transform="translate(258.118 146.031)" fill="#ba7b43"/>
      <path id="Caminho_1168" data-name="Caminho 1168" d="M72.542,76.989a23.909,23.909,0,0,0-.911,11.481c.364,2.916,5.65,4.374,6.743,1.64,1.822-3.827,2-9.659,1.276-13.122C78.921,73.162,74.183,72.616,72.542,76.989Z" transform="translate(284.692 163.026)" fill="#201f20"/>
      <path id="Caminho_1169" data-name="Caminho 1169" d="M54.942,76.989a23.909,23.909,0,0,0-.911,11.481c.364,2.916,5.65,4.374,6.743,1.64,1.822-3.827,2-9.659,1.276-13.122C61.321,73.162,56.583,72.616,54.942,76.989Z" transform="translate(270.217 163.026)" fill="#201f20"/>
      <path id="Caminho_1170" data-name="Caminho 1170" d="M103.372,98.182a5.767,5.767,0,0,0-6.925.729,1.3,1.3,0,0,0,.364,2.187c1.093.547,1.822,1.458,1.276,2.734-.547,1.458-2.187.911-3.28.547a.9.9,0,0,0-1.093,1.093c.911,2.734,4.921,2.187,6.379.182a4.656,4.656,0,0,0-.364-5.65,3.163,3.163,0,0,1,2.551.547c.911.729.911,2.187,1.093,3.28a.893.893,0,0,0,1.64.182A4.635,4.635,0,0,0,103.372,98.182Z" transform="translate(303.068 182.292)" fill="#915b23"/>
      <path id="VENTA_5_" d="M73.225,89.8a4.794,4.794,0,0,0-5.1-6.379,10.512,10.512,0,0,0-2.551.547h0c.547-.182.364-.182,0,0A6,6,0,0,0,58.463,87.8c-1.093,2.916.364,7.107,3.463,7.836C66.664,96.911,71.22,94.724,73.225,89.8Z" transform="translate(273.804 170.806)" fill="#774928" opacity="0.6"/>
      <g id="Grupo_373" data-name="Grupo 373" transform="translate(333.83 270.74)">
        <path id="Caminho_1171" data-name="Caminho 1171" d="M85.3,102.375c-.911,4.738-11.664,9.112-18.589,7.836s-8.2-5.65-7.29-10.388,3.645-8.383,10.57-7.107S86.207,97.454,85.3,102.375Z" transform="translate(-59.158 -92.459)" fill="#c64832"/>
        <g id="Grupo_372" data-name="Grupo 372" transform="translate(0)" clip-path="url(#clip-path)">
          <path id="Caminho_1172" data-name="Caminho 1172" d="M86.224,101.1c1.093-5.1-7.472-13.486-14.762-15.126s-10.206,2.187-11.3,7.107c-1.093,5.1,0,9.477,7.29,11.117S85.131,106.2,86.224,101.1Z" transform="translate(-58.629 -98.109)" fill="#fff"/>
        </g>
      </g>
      <g id="ROUPA_6_" transform="translate(302.889 305.258)">
        <path id="Caminho_1174" data-name="Caminho 1174" d="M126.6,159.9c5.467,10.023-6.925,142.15-5.832,147.8-8.93,2-6.014.365-15.126,2.551-2.734-8.2-19.318-80.916-22.6-89.482l-2.916-.182c-.547,0,0,.911-.182,1.458-5.467,15.855-13.122,75.631-18.589,89.482-6.743-1.458-9.659.182-16.4-1.276,1.093-30.07-5.467-99.141-1.458-129.028Z" transform="translate(-42.18 -71.512)" fill="#58167d"/>
        <g id="FRENTE_5_" transform="translate(28.466)">
          <path id="Caminho_1175" data-name="Caminho 1175" d="M57.8,114.887c.364-.729.547-1.458.911-2.187C58.347,113.429,58.164,114.158,57.8,114.887Z" transform="translate(-57.8 -110.331)" fill="#e6b54a"/>
          <path id="Caminho_1176" data-name="Caminho 1176" d="M58.4,113.4c.364-.729.547-1.276.911-2A17.755,17.755,0,0,0,58.4,113.4Z" transform="translate(-57.307 -111.4)" fill="#e6b54a"/>
          <path id="Caminho_1177" data-name="Caminho 1177" d="M58.9,111.4Z" transform="translate(-56.895 -111.4)" fill="#e6b54a"/>
          <path id="Caminho_1178" data-name="Caminho 1178" d="M58.3,112.864c0-.182.182-.182.182-.364A.636.636,0,0,1,58.3,112.864Z" transform="translate(-57.389 -110.495)" fill="#e6b54a"/>
        </g>
      </g>
      <path id="GOLA_3_" d="M85.483,114.927c0,2.551-5.467,5.1-13.3,5.1s-14.579-2.551-14.579-5.1c0-.911,2.734-3.827,4.192-3.827.729,0-.364,2.369,1.276,2.734a46.374,46.374,0,0,0,9.477.911c3.1,0,6.2,0,8.383-.729,1.822-.729.547-2.551,1.093-2.734C84.937,110.371,85.483,113.651,85.483,114.927Z" transform="translate(273.391 193.612)" fill="#001d7e"/>
      <path id="PESCOÇO_7_" d="M75.293,106.525c-1.458.364-8.019-.547-11.117.364-.729,6.743-.547,4.374-1.276,11.117a80.3,80.3,0,0,0,12.393.364A75.432,75.432,0,0,1,75.293,106.525Z" transform="translate(277.75 189.803)" fill="#915b23"/>
      <path id="BOCA_11_" d="M70.293,69.121c-1.276.729-.547,2.369,1.093,2a13.372,13.372,0,0,1,8.019,0c2.187.911,3.1,2.734,4.374,4.192.911,1.093,3.1.547,3.1-.729C87.424,68.392,75.943,65.476,70.293,69.121Z" transform="translate(283.296 157.773)" fill="#201f20"/>
      <path id="BOCA_10_" d="M51.793,77.817c-1.276-.729-.547-2.369,1.093-2,2.916.547,5.467.729,8.019-.547,2.187-1.093,2.916-2.916,4.192-4.374.911-1.093,3.1-.729,3.28.547C68.924,77.453,57.625,81.1,51.793,77.817Z" transform="translate(268.081 160.011)" fill="#201f20"/>
      <path id="Caminho_1179" data-name="Caminho 1179" d="M87.38,28.688c3.827.364,7.654,2,8.93,5.285,1.276,3.463-1.822,8.565-5.65,7.836,4.374-.729,8.93-.729,12.575,1.276a9.659,9.659,0,0,1,5.1,10.388c-.911,4.192-5.65,8.019-9.841,6.925,4.192,1.458,8.019,3.463,10.388,6.925s3.28,8.383,1.093,12.393c-2.187,4.192-7.472,6.743-11.481,5.1,2.734,3.1,4.921,7.654,2.916,11.664-1.822,3.645-6.2,5.65-10.206,5.65s-7.472-1.822-10.935-3.463c-3.463,7.29-13.3,11.3-20.047,8.019-3.645-1.822-6.2-6.561-3.463-10.023-4.009,1.64-8.2,3.28-12.393,3.463s-8.565-1.276-10.388-4.738-.364-8.93,3.645-10.57c-5.832,2.916-13.3,1.093-16.037-4.192-2.734-5.1-.547-12.757,4.738-16.584-6.014-3.463-8.383-11.664-5.467-18.589A9.66,9.66,0,0,1,25.6,40.169c3.827-1.822,7.654.364,10.935,2.369-2.187-4.009-.182-10.206,4.374-12.757,4.374-2.551,10.388-1.093,12.393,3.1,2.734-3.463,5.467-6.925,9.112-9.294s8.565-3.1,11.846-.729,3.28,8.2-.547,10.388C76.445,29.417,82.459,27.959,87.38,28.688Z" transform="translate(242.153 119.841)" fill="url(#linear-gradient-4)"/>
      <g id="Grupo_374" data-name="Grupo 374" transform="translate(353.954 449.595)">
        <path id="Caminho_1180" data-name="Caminho 1180" d="M97.172,190.6c0,31.346.364,81.1-4.374,106.613H86.6c-4.921-33.9-10.752-71.257-16.4-106.613Z" transform="translate(-70.2 -190.6)" fill="#d99156"/>
        <path id="Caminho_1181" data-name="Caminho 1181" d="M81.85,250.382l-5.65,8.383,19.865-1.458L87.5,250.2Z" transform="translate(-65.265 -141.583)" fill="#e6b54a"/>
      </g>
      <g id="Grupo_375" data-name="Grupo 375" transform="translate(304.383 448.502)">
        <path id="Caminho_1182" data-name="Caminho 1182" d="M69.972,192.187c-2.551,31.164-6.561,80.916-13.3,105.884-2-.182-4.192-.365-6.2-.547C48.285,263.262,45.551,225.72,43,190Z" transform="translate(-43 -190)" fill="#d99156"/>
        <path id="Caminho_1183" data-name="Caminho 1183" d="M49.9,250.3l-6.2,7.836,19.865.182-7.836-7.836Z" transform="translate(-42.424 -140.407)" fill="#e6b54a"/>
      </g>
      <circle id="Elipse_428" data-name="Elipse 428" cx="9.294" cy="9.294" r="9.294" transform="translate(308.393 175.319)" fill="#6eaa6f" stroke="#000" stroke-miterlimit="10" stroke-width="0.5"/>
      <circle id="Elipse_429" data-name="Elipse 429" cx="9.294" cy="9.294" r="9.294" transform="translate(319.327 170.763)" fill="#6eaa6f" stroke="#000" stroke-miterlimit="10" stroke-width="0.5"/>
      <path id="Caminho_1184" data-name="Caminho 1184" d="M52.947,41.513c.547.364-1.458,1.093-3.463,3.28-1.458,1.64-2.187,6.014-2.734,5.65s-1.822-3.645.911-6.925C50.032,40.784,52.219,41.148,52.947,41.513Z" transform="translate(263.829 136.175)" fill="#ede39f"/>
      <path id="Caminho_1185" data-name="Caminho 1185" d="M63.637,39.025c.547.729-2.369.911-5.832,3.1-2.369,1.64-5.1,7.107-5.65,6.379s-1.093-5.467,3.827-8.748C60.175,37.02,63.091,38.3,63.637,39.025Z" transform="translate(268.629 133.56)" fill="#ede39f"/>
      <circle id="Elipse_430" data-name="Elipse 430" cx="9.294" cy="9.294" r="9.294" transform="translate(384.024 176.777)" fill="#6eaa6f" stroke="#000" stroke-miterlimit="10" stroke-width="0.5"/>
      <circle id="Elipse_431" data-name="Elipse 431" cx="9.294" cy="9.294" r="9.294" transform="translate(393.865 183.52)" fill="#6eaa6f" stroke="#000" stroke-miterlimit="10" stroke-width="0.5"/>
      <path id="Caminho_1186" data-name="Caminho 1186" d="M99.635,45.011c0,.729-1.822-.547-4.738-1.093-2.187-.364-6.2,1.64-6.2.911s1.822-3.645,6.2-3.1C98.541,42.277,99.635,44.282,99.635,45.011Z" transform="translate(298.969 136.504)" fill="#ede39f"/>
      <path id="Caminho_1187" data-name="Caminho 1187" d="M108.122,52.209c-.364.911-2-1.458-5.832-3.1-2.551-1.093-8.748-.364-8.383-1.276s3.827-4.009,9.294-1.64C107.94,48.2,108.486,51.3,108.122,52.209Z" transform="translate(303.239 139.512)" fill="#ede39f"/>
      <circle id="Elipse_432" data-name="Elipse 432" cx="10.206" cy="10.206" r="10.206" transform="translate(319.51 166.936)" fill="#dfa330" stroke="#000" stroke-miterlimit="10" stroke-width="0.75"/>
      <path id="Caminho_1188" data-name="Caminho 1188" d="M67.247,42.267c-.182,1.093-2-1.276-5.285-2.734-2.369-.911-8.019.729-7.654-.364.182-1.093,3.463-4.556,8.565-2.734C66.882,38.075,67.429,41.355,67.247,42.267Z" transform="translate(270.669 131.776)" fill="#ebc477"/>
      <circle id="Elipse_433" data-name="Elipse 433" cx="10.206" cy="10.206" r="10.206" transform="translate(307.664 171.492)" fill="#dfa330" stroke="#000" stroke-miterlimit="10" stroke-width="0.75"/>
      <path id="Caminho_1189" data-name="Caminho 1189" d="M59.448,41.5c.182,1.093-2.369-.364-6.014.182-2.551.364-6.743,4.374-7.108,3.28s.911-5.65,6.2-6.379C57.261,37.671,59.265,40.4,59.448,41.5Z" transform="translate(264.071 133.82)" fill="#ebc477"/>
      <circle id="Elipse_434" data-name="Elipse 434" cx="10.206" cy="10.206" r="10.206" transform="translate(382.384 173.496)" fill="#dfa330" stroke="#000" stroke-miterlimit="10" stroke-width="0.75"/>
      <path id="Caminho_1190" data-name="Caminho 1190" d="M101.647,46.567c-.182,1.093-2-1.276-5.285-2.734-2.369-.911-8.019.729-7.654-.364.182-1.093,3.463-4.556,8.565-2.734C101.282,42.375,101.829,45.473,101.647,46.567Z" transform="translate(298.961 135.313)" fill="#ebc477"/>
      <path id="Caminho_1191" data-name="Caminho 1191" d="M52.684,130.671C49.221,121.012,42.3,108.62,41.02,98.414,36.829,64.881,51.408,46.839,79.109,42.465c20.594-3.28,47.2-4.192,62.145,12.757,16.949,18.953,19.865,54.855,11.3,78.183-.911,2.734-8.748,11.481-10.935,13.486s-6.2-1.093-8.748-2.369Z" transform="translate(259.171 135.587)" fill="url(#linear-gradient-5)"/>
      <path id="Caminho_1192" data-name="Caminho 1192" d="M147.228,131.344c-2.551-2.551-7.29-2.916-9.294.182-.182.364-1.276,2.369-1.64,2.369a15.184,15.184,0,0,0-2.734-.729c.182,0,1.276-8.2,2.551-17.678a27.966,27.966,0,0,1-4.921-8.019c-2.369-6.379-1.822-24.056-.547-30.8-12.028-24.967-69.435-37.724-83.832,2-.182.364,5.1,23.327-4.556,28.794-8.565,4.738-.547,39.729,29.706,43.009,14.579,1.64,52.486-.911,61.234-8.2.365-.364.911-.182,1.093.364a8.464,8.464,0,0,0,2.369,3.645l.547.547c3.645,2.369,11.3-.364,12.939-4.738C151.784,138.269,149.78,133.9,147.228,131.344Z" transform="translate(258.118 146.031)" fill="#ba7b43"/>
      <path id="Caminho_1193" data-name="Caminho 1193" d="M72.542,76.989a23.909,23.909,0,0,0-.911,11.481c.364,2.916,5.65,4.374,6.743,1.64,1.822-3.827,2-9.659,1.276-13.122C78.921,73.162,74.183,72.616,72.542,76.989Z" transform="translate(284.692 163.026)" fill="#201f20"/>
      <path id="Caminho_1194" data-name="Caminho 1194" d="M54.942,76.989a23.909,23.909,0,0,0-.911,11.481c.364,2.916,5.65,4.374,6.743,1.64,1.822-3.827,2-9.659,1.276-13.122C61.321,73.162,56.583,72.616,54.942,76.989Z" transform="translate(270.217 163.026)" fill="#201f20"/>
      <path id="Caminho_1195" data-name="Caminho 1195" d="M103.372,98.182a5.767,5.767,0,0,0-6.925.729,1.3,1.3,0,0,0,.364,2.187c1.093.547,1.822,1.458,1.276,2.734-.547,1.458-2.187.911-3.28.547a.9.9,0,0,0-1.093,1.093c.911,2.734,4.921,2.187,6.379.182a4.656,4.656,0,0,0-.364-5.65,3.163,3.163,0,0,1,2.551.547c.911.729.911,2.187,1.093,3.28a.893.893,0,0,0,1.64.182A4.635,4.635,0,0,0,103.372,98.182Z" transform="translate(303.068 182.292)" fill="#915b23"/>
      <path id="VENTA_2_" d="M73.225,89.8a4.794,4.794,0,0,0-5.1-6.379,10.512,10.512,0,0,0-2.551.547h0c.547-.182.364-.182,0,0A6,6,0,0,0,58.463,87.8c-1.093,2.916.364,7.107,3.463,7.836C66.664,96.911,71.22,94.724,73.225,89.8Z" transform="translate(273.804 170.806)" fill="#774928" opacity="0.6"/>
      <g id="Grupo_377" data-name="Grupo 377" transform="translate(333.83 270.74)">
        <path id="Caminho_1196" data-name="Caminho 1196" d="M85.3,102.375c-.911,4.738-11.664,9.112-18.589,7.836s-8.2-5.65-7.29-10.388,3.645-8.383,10.57-7.107S86.207,97.454,85.3,102.375Z" transform="translate(-59.158 -92.459)" fill="#c64832"/>
        <g id="Grupo_376" data-name="Grupo 376" transform="translate(0)" clip-path="url(#clip-path)">
          <path id="Caminho_1197" data-name="Caminho 1197" d="M86.224,101.1c1.093-5.1-7.472-13.486-14.762-15.126s-10.206,2.187-11.3,7.107c-1.093,5.1,0,9.477,7.29,11.117S85.131,106.2,86.224,101.1Z" transform="translate(-58.629 -98.109)" fill="#fff"/>
        </g>
      </g>
      <g id="ROUPA_2_" transform="translate(294.542 304.615)">
        <path id="Caminho_1199" data-name="Caminho 1199" d="M126.6,159.9c5.467,10.023-6.925,142.15-5.832,147.8-8.93,2-6.014.365-15.126,2.551-2.734-8.2-19.318-80.916-22.6-89.482l-2.916-.182c-.547,0,0,.911-.182,1.458-5.467,15.855-13.122,75.631-18.589,89.482-6.743-1.458-9.659.182-16.4-1.276,1.093-30.07-5.467-99.141-1.458-129.028Z" transform="translate(-33.833 -70.869)" fill="#dde3e8"/>
        <g id="FRENTE_2_">
          <path id="Caminho_1200" data-name="Caminho 1200" d="M57.8,114.887c.364-.729.547-1.458.911-2.187C58.347,113.429,58.164,114.158,57.8,114.887Z" transform="translate(-20.987 -109.688)" fill="#6191c9"/>
          <path id="Caminho_1201" data-name="Caminho 1201" d="M58.4,113.4c.364-.729.547-1.276.911-2A17.755,17.755,0,0,0,58.4,113.4Z" transform="translate(-20.493 -110.757)" fill="#6191c9"/>
          <path id="Caminho_1202" data-name="Caminho 1202" d="M58.9,111.4Z" transform="translate(-20.082 -110.757)" fill="#6191c9"/>
          <path id="Caminho_1203" data-name="Caminho 1203" d="M58.3,112.864c0-.182.182-.182.182-.364A.636.636,0,0,1,58.3,112.864Z" transform="translate(-20.576 -109.852)" fill="#6191c9"/>
          <path id="Caminho_1204" data-name="Caminho 1204" d="M75.689,114.424a6.088,6.088,0,0,1,4.921-3.1c6.561-.547,18.589-.182,18.771.182,0,.182.547,1.093.547,1.276a3.2,3.2,0,0,1,.729.911c0,.182.911.729.911.911.364.547,1.276.182,2,.364,12.028,3.1,32.622,102.6,44.467,140.874-26.425,13.486-86.566,8.93-110.44-.547,8.019-32.257,7.472-128.117,36.631-139.052A3.089,3.089,0,0,0,75.689,114.424Z" transform="translate(-37.6 -111.047)" fill="#6191c9"/>
        </g>
      </g>
      <path id="GOLA_2_" d="M85.483,114.927c0,2.551-5.467,5.1-13.3,5.1s-14.579-2.551-14.579-5.1c0-.911,2.734-3.827,4.192-3.827.729,0-.364,2.369,1.276,2.734a46.374,46.374,0,0,0,9.477.911c3.1,0,6.2,0,8.383-.729,1.822-.729.547-2.551,1.093-2.734C84.937,110.371,85.483,113.651,85.483,114.927Z" transform="translate(273.391 193.612)" fill="#db9600"/>
      <path id="PESCOÇO_2_" d="M75.293,106.525c-1.458.364-8.019-.547-11.117.364-.729,6.743-.547,4.374-1.276,11.117a80.3,80.3,0,0,0,12.393.364A75.432,75.432,0,0,1,75.293,106.525Z" transform="translate(277.75 189.803)" fill="#915b23"/>
      <g id="ESQUERDA_2_" transform="translate(422.722 343.239)">
        <g id="Grupo_380" data-name="Grupo 380">
          <g id="Grupo_379" data-name="Grupo 379">
            <path id="Caminho_1205" data-name="Caminho 1205" d="M110.97,138.5a81.574,81.574,0,0,0,9.112,2c3.827.547,7.654.911,11.664,1.093,4.192.182,8.565-.547,12.575.729,3.463,1.093,3.28,6.014.182,7.472-6.925,3.463-18.042,1.458-25.514.547-3.463-.364-6.743-1.093-10.023-1.64C107.143,145.425,107.69,139.958,110.97,138.5Z" transform="translate(-107.934 -127.092)" fill="#d99156"/>
            <g id="Grupo_378" data-name="Grupo 378" transform="translate(27.616)">
              <path id="Caminho_1206" data-name="Caminho 1206" d="M160.106,143.83a2.069,2.069,0,0,1,1.458.547,1.982,1.982,0,0,1,0,2.734,6.179,6.179,0,0,1-2.551,1.64c-4.192,1.64-12.575.547-12.757,3.1,0,1.822,5.1,2.369,8.383,3.1a28.172,28.172,0,0,1,4.192,1.276c2.369,1.094,1.093,4.556-1.276,4.192-3.28-.547-8.2-2.734-11.481-2.916a.982.982,0,0,0-.729,1.64l6.743,6.2c.911.911,1.822,2.551.911,3.645-.911.911-2.187.182-3.28-.364a25.941,25.941,0,0,1-5.285-4.738c-.911-.911-1.822-2.187-3.1-1.822s-1.64,2.187-1.276,3.463,1.276,2.551,1.458,3.827c.182,1.458-1.093,2.916-2.369,2.551a2.2,2.2,0,0,1-.911-.911c-2-2.916-1.822-7.654-5.1-8.93-2.369-.911-5.467.365-7.29-1.276-1.458-1.276-1.276-3.463-1.093-5.285a7.231,7.231,0,0,0-.729-4.374c-.911-1.458-1.276-2.551-.547-4.192.547-1.64,1.458-4.009,3.1-4.738s4.192.365,5.832-.182c2.187-.911,1.822-2.734,1.822-5.1a11.215,11.215,0,0,1,.365-3.463,2.388,2.388,0,0,1,3.28-.911,4.913,4.913,0,0,1,1.458,1.276c2.916,3.28.365,6.014-1.276,10.388C144.98,145.835,153.181,142.919,160.106,143.83Z" transform="translate(-123.087 -132.241)" fill="#d99156"/>
            </g>
          </g>
        </g>
        <path id="Caminho_1207" data-name="Caminho 1207" d="M133.919,139.544a11.377,11.377,0,0,1-5.467,5.467,5.711,5.711,0,0,1,2,1.458,7.233,7.233,0,0,1,2.551,4.374c0,.365-.364.547-.547.182a8.332,8.332,0,0,0-2.551-3.645,4.678,4.678,0,0,0-2.187-.911,5.349,5.349,0,0,1-1.822-.547h0v-.182h0v-.182h0v-.182c0-.182.182-.182.182-.364a1.1,1.1,0,0,1,.729-.182,27.432,27.432,0,0,0,3.1-1.822,12.474,12.474,0,0,0,3.1-3.827C133.19,138.45,134.1,138.815,133.919,139.544Z" transform="translate(-93.158 -126.861)" fill="#915b23"/>
      </g>
      <path id="DIREITO_2_" d="M70.735,112.9c-1.458-2.916,18.042,4.556,22.051,8.019,9.477,7.836,19.318,25.15,30.617,31.346,9.659,5.285,14.4,4.556,30.8,8.93,3.827,6.014-12.393,29.341-12.393,29.341s-21.687-11.3-26.425-16.037c-15.491-15.126-16.22-10.023-23.509-27.337-1.276-2.916-6.014-16.766-6.743-19.5Z" transform="translate(284.13 194.547)" fill="#5682b5"/>
      <g id="ESQUERDA_15_" transform="translate(324.381 284.3)">
        <g id="Grupo_383" data-name="Grupo 383">
          <g id="Grupo_382" data-name="Grupo 382">
            <path id="Caminho_1208" data-name="Caminho 1208" d="M54.6,153.344a90.525,90.525,0,0,0,4.556-9.477c1.64-4.009,2.916-8.2,4.192-12.393,1.276-4.556,1.64-9.477,4.192-13.486,2.187-3.463,7.472-2,8.2,1.64,2,8.565-3.1,20.047-6.2,28.066-1.458,3.645-7.29,15.308-9.659,17.86C56.058,166.647,55.511,157.353,54.6,153.344Z" transform="translate(-53.457 -86.642)" fill="#d99156"/>
            <g id="Grupo_381" data-name="Grupo 381">
              <path id="Caminho_1209" data-name="Caminho 1209" d="M71.153,109.377c.182-.182,4.009-9.477,7.654-9.477,6.2,0-1.458,8.2-1.822,9.477-1.276,5.1-.364,4.192-1.093,6.925,1.093-2.187,3.827-7.29,7.107-4.921,2.916,2,0,5.467-.547,6.925a2.622,2.622,0,0,1-.911,1.276s2.369-6.2,7.29-.911c1.64,1.64-2.916,5.832-2.916,5.832s.364-.911,2-1.093c1.458-.182,1.276.364,2.369,1.276,1.093,1.093-1.458,4.009-1.822,4.374-3.1,2-1.64,1.276-4.009,4.556-1.64,2.187-2.551,4.192-4.921,5.832-1.822,1.276-2.916,2-4.921,1.276a9.768,9.768,0,0,0-5.1-.364c-1.822.547-3.1.729-4.738-.547-1.64-1.093-2.187-2.734-2.551-4.921-.364-2-.182-4.192-.547-6.2a8.1,8.1,0,0,0-3.1-5.832c-1.276-.911-2.369-1.64-3.463-2.551s-1.64-1.093-.547-2.187a6.545,6.545,0,0,1,1.822-1.276c4.374-2.369,5.65,1.822,9.112,6.2C68.419,115.391,68.055,115.573,71.153,109.377Z" transform="translate(-53.973 -99.9)" fill="#d99156"/>
            </g>
          </g>
        </g>
      </g>
      <path id="DIREITO_1_" d="M67.877,116.4c-2,.547-7.836,6.925-11.3,12.575C48.923,141.362,39.993,155.577,38.9,171.8c2.551,18.042,32.439,4.009,40.458,4.009-2.369-8.565-11.846-19.318-7.654-29.159-15.673,13.851-14.579,12.21-14.579,12.21s7.108-5.285,8.748-16.584c.547-2.916,1.64-22.963,7.472-28.43C72.251,113.115,68.241,116.76,67.877,116.4Z" transform="translate(258.012 195.789)" fill="url(#linear-gradient-9)"/>
      <path id="BOCA_8_" d="M70.293,69.121c-1.276.729-.547,2.369,1.093,2a13.372,13.372,0,0,1,8.019,0c2.187.911,3.1,2.734,4.374,4.192.911,1.093,3.1.547,3.1-.729C87.424,68.392,75.943,65.476,70.293,69.121Z" transform="translate(283.296 157.773)" fill="#201f20"/>
      <path id="BOCA_7_" d="M51.793,77.817c-1.276-.729-.547-2.369,1.093-2,2.916.547,5.467.729,8.019-.547,2.187-1.093,2.916-2.916,4.192-4.374.911-1.093,3.1-.729,3.28.547C68.924,77.453,57.625,81.1,51.793,77.817Z" transform="translate(268.081 160.011)" fill="#201f20"/>
      <circle id="Elipse_435" data-name="Elipse 435" cx="10.206" cy="10.206" r="10.206" transform="translate(392.589 179.51)" fill="#dfa330" stroke="#000" stroke-miterlimit="10" stroke-width="0.75"/>
      <path id="Caminho_1210" data-name="Caminho 1210" d="M107.247,49.867c-.182,1.093-2-1.276-5.285-2.734-2.369-.911-8.019.729-7.654-.364.182-1.093,3.463-4.556,8.565-2.734C107.065,45.675,107.611,48.773,107.247,49.867Z" transform="translate(303.567 138.027)" fill="#ebc477"/>
    </g>
    <g id="Grupo_351" data-name="Grupo 351" transform="translate(32.496 -71.829)">
      <path id="Caminho_511" data-name="Caminho 511" d="M369.7,708.361a4.053,4.053,0,0,1-4.062,4.053H213.3a4.044,4.044,0,0,1-4.053-4.053V605.9a4.053,4.053,0,0,1,4.053-4.053H365.641A4.053,4.053,0,0,1,369.7,605.9Z" transform="translate(217.254 -105.872)" fill="#e3e5e7"/>
      <path id="Caminho_512" data-name="Caminho 512" d="M314.41,724.87h-36.4s-.737,12.169-2.211,14.748h40.821C315.147,737.039,314.41,724.87,314.41,724.87Z" transform="translate(210.516 -118.328)" fill="#d1d5d5"/>
      <path id="Caminho_513" data-name="Caminho 513" d="M319.219,742.3a9.169,9.169,0,0,1-3.406-1.016H275a9.169,9.169,0,0,1-3.406,1.016c-2.211.27-3.685.458-3.685,1.564h55C322.913,742.754,321.439,742.565,319.219,742.3Z" transform="translate(211.315 -119.989)" fill="#c7cbcb"/>
      <path id="Caminho_514" data-name="Caminho 514" d="M365.641,601.88H213.3a4.053,4.053,0,0,0-4.053,4.053v92H369.694v-92a4.044,4.044,0,0,0-4.053-4.053Zm-2.579,90.279H215.883V607.677H363.062Z" transform="translate(217.254 -105.875)" fill="#2e414f"/>
      <path id="Caminho_515" data-name="Caminho 515" d="M216.63,608.29v84.527H363.809V608.29H216.63Z" transform="translate(216.507 -106.524)" fill="#4292cc"/>
      <path id="Caminho_516" data-name="Caminho 516" d="M314.623,724.87h-36.4s-.108,1.8-.324,4.179h37.046C314.731,726.685,314.623,724.87,314.623,724.87Z" transform="translate(210.303 -118.328)" fill="#c7cbcb"/>
      <path id="Caminho_517" data-name="Caminho 517" d="M373.5,601.88H345.594L286.87,697.929h90.683v-92a4.044,4.044,0,0,0-4.053-4.053Z" transform="translate(209.395 -105.875)" fill="#e3e5e7" opacity="0.16"/>
      <path id="Caminho_518" data-name="Caminho 518" d="M376.523,700.531a4.053,4.053,0,0,1-4.053,4.053H220.123a4.053,4.053,0,0,1-4.053-4.053V598.074a4.053,4.053,0,0,1,4.053-4.053H372.47a4.053,4.053,0,0,1,4.053,4.053Z" transform="translate(212.981 -100.302)" fill="none" stroke="#f3a51c" stroke-miterlimit="10" stroke-width="1" opacity="0.7"/>
    </g>
  </g>
</svg>
