<svg xmlns="http://www.w3.org/2000/svg" width="385.78" height="366.184" viewBox="0 0 385.78 366.184">
  <g id="Grupo_280" data-name="Grupo 280" transform="translate(-937.221 -208.437)">
    <path id="Caminho_730" data-name="Caminho 730" d="M1013.61,338.229c0,83.772,219.272,189.2,303.048,189.2s82.731-109.781,82.731-193.552,1.041-172.632-82.731-172.632S1013.61,254.457,1013.61,338.229Z" transform="translate(-76.389 47.197)" fill="#3f92cc" opacity="0.19"/>
    <g id="Grupo_276" data-name="Grupo 276" transform="translate(993.195 290.656)" opacity="0.2">
      <rect id="Ret창ngulo_1527" data-name="Ret창ngulo 1527" width="52.192" height="20.877" transform="translate(125.26 193.133)" fill="none" stroke="#b0b7bc" stroke-linecap="round" stroke-miterlimit="10" stroke-width="20"/>
      <path id="Caminho_749" data-name="Caminho 749" d="M1313.87,788.975h0a13.089,13.089,0,0,1,13.075-13.045h99.164a13.089,13.089,0,0,1,13.026,13.046h0" transform="translate(-1225.144 -561.92)" fill="none" stroke="#b0b7bc" stroke-linecap="round" stroke-miterlimit="10" stroke-width="20"/>
      <path id="Caminho_750" data-name="Caminho 750" d="M1414.206,524.983H1148.015a18.255,18.255,0,0,1-18.255-18.255V350.1a18.255,18.255,0,0,1,18.255-18.255h266.192a18.255,18.255,0,0,1,18.26,18.255V506.723A18.255,18.255,0,0,1,1414.206,524.983Z" transform="translate(-1129.76 -331.85)" fill="#e8ecec"/>
      <path id="Caminho_751" data-name="Caminho 751" d="M1428.432,510.526H1167.469a5.219,5.219,0,0,1-5.219-5.219v-135.7a5.219,5.219,0,0,1,5.219-5.219h260.963a5.219,5.219,0,0,1,5.219,5.219v135.7A5.219,5.219,0,0,1,1428.432,510.526Z" transform="translate(-1146.593 -348.708)" fill="#3f92cc"/>
      <path id="Caminho_752" data-name="Caminho 752" d="M1437.441,699.778h-20.881a5.219,5.219,0,1,1,0-10.438h20.881a5.219,5.219,0,0,1,0,10.438Z" transform="translate(-1275.642 -517.06)" fill="#263841"/>
      <path id="Caminho_753" data-name="Caminho 753" d="M1189.134,417.332a5.2,5.2,0,0,0,3.691-1.532l20.877-20.877a5.219,5.219,0,1,0-7.383-7.378l-20.876,20.877a5.224,5.224,0,0,0,3.692,8.911Z" transform="translate(-1157.819 -359.912)" fill="#566b7a"/>
      <circle id="Elipse_352" data-name="Elipse 352" cx="5.079" cy="5.079" r="5.079" transform="translate(177.451 172.256)" fill="#e01227"/>
      <rect id="Ret창ngulo_1528" data-name="Ret창ngulo 1528" width="52.192" height="20.877" transform="translate(130.079 196.974)" fill="none" stroke="#1c0a2d" stroke-miterlimit="10" stroke-width="2"/>
      <path id="Caminho_754" data-name="Caminho 754" d="M1323.87,796.96h0a13.089,13.089,0,0,1,13.075-13.06h99.164a13.089,13.089,0,0,1,13.026,13.06h0" transform="translate(-1230.325 -566.05)" fill="none" stroke="#1c0a2d" stroke-miterlimit="10" stroke-width="2"/>
      <path id="Caminho_755" data-name="Caminho 755" d="M1424.206,532.948H1158.015a18.255,18.255,0,0,1-18.255-18.255V358.07a18.255,18.255,0,0,1,18.255-18.26h266.191a18.255,18.255,0,0,1,18.26,18.26V514.688a18.255,18.255,0,0,1-18.26,18.26Z" transform="translate(-1134.941 -335.974)" fill="none" stroke="#1c0a2d" stroke-miterlimit="10" stroke-width="2"/>
      <path id="Caminho_756" data-name="Caminho 756" d="M1438.432,518.491H1177.469a5.219,5.219,0,0,1-5.219-5.219v-135.7a5.224,5.224,0,0,1,5.219-5.219h260.963a5.224,5.224,0,0,1,5.219,5.219v135.7a5.219,5.219,0,0,1-5.219,5.219Z" transform="translate(-1151.773 -352.832)" fill="none" stroke="#1c0a2d" stroke-miterlimit="10" stroke-width="2"/>
      <path id="Caminho_757" data-name="Caminho 757" d="M1447.436,707.7h-20.877a5.219,5.219,0,0,1,0-10.438h20.877a5.219,5.219,0,1,1,0,10.438Z" transform="translate(-1280.823 -521.163)" fill="none" stroke="#1c0a2d" stroke-miterlimit="10" stroke-width="2"/>
      <path id="Caminho_758" data-name="Caminho 758" d="M1199.134,425.332a5.223,5.223,0,0,0,3.691-1.532l20.877-20.877a5.219,5.219,0,1,0-7.383-7.378l-20.876,20.877a5.224,5.224,0,0,0,3.691,8.911Z" transform="translate(-1163 -364.057)" fill="none" stroke="#1c0a2d" stroke-miterlimit="10" stroke-width="2"/>
      <circle id="Elipse_353" data-name="Elipse 353" cx="5.079" cy="5.079" r="5.079" transform="translate(182.27 176.097)" fill="none" stroke="#1c0a2d" stroke-miterlimit="10" stroke-width="2"/>
    </g>
  </g>
</svg>
