<svg xmlns="http://www.w3.org/2000/svg" xmlns:xlink="http://www.w3.org/1999/xlink" width="554.779" height="462.452" viewBox="0 0 554.779 462.452">
  <defs>
    <linearGradient id="linear-gradient" x1="1.323" y1="-6.379" x2="0.329" y2="-6.379" gradientUnits="objectBoundingBox">
      <stop offset="0" stop-color="#e2ac56"/>
      <stop offset="1" stop-color="#d99156"/>
    </linearGradient>
    <linearGradient id="linear-gradient-2" x1="52.38" y1="-54.251" x2="51.325" y2="-54.251" xlink:href="#linear-gradient"/>
    <linearGradient id="linear-gradient-3" x1="0.998" y1="0.5" x2="-0.001" y2="0.5" gradientUnits="objectBoundingBox">
      <stop offset="0" stop-color="#fff"/>
      <stop offset="0" stop-color="#6191c9"/>
      <stop offset="1" stop-color="#446a96"/>
    </linearGradient>
    <linearGradient id="linear-gradient-4" x1="-0.766" y1="2.247" x2="-1.225" y2="2.678" gradientUnits="objectBoundingBox">
      <stop offset="0" stop-color="#502e25"/>
      <stop offset="1" stop-color="#201310"/>
    </linearGradient>
    <linearGradient id="linear-gradient-5" x1="-0.586" y1="4.107" x2="-1.594" y2="4.107" xlink:href="#linear-gradient-4"/>
    <linearGradient id="linear-gradient-6" x1="-1.645" y1="1.805" x2="-2.088" y2="2.246" xlink:href="#linear-gradient-4"/>
    <linearGradient id="linear-gradient-7" x1="1" y1="0.501" x2="0" y2="0.501" xlink:href="#linear-gradient-3"/>
    <clipPath id="clip-path">
      <path id="Caminho_992" data-name="Caminho 992" d="M56.658,95.4c.863,4.486,16.736,14.838,23.292,13.63s10.18-10.7,9.317-15.356c-.863-4.486-2.761-3.451-9.317-2.243S55.795,90.746,56.658,95.4Z" transform="translate(-56.627 -90.398)"/>
    </clipPath>
  </defs>
  <g id="Grupo_558" data-name="Grupo 558" transform="translate(-56.211 -241.442)">
    <g id="Grupo_326" data-name="Grupo 326" transform="translate(0 22)">
      <g id="Grupo_320" data-name="Grupo 320" transform="translate(4.37 127.418)">
        <g id="Grupo_262" data-name="Grupo 262" transform="translate(27.984 153.874)">
          <path id="Caminho_699" data-name="Caminho 699" d="M296.625,198.61C250.566,310.2,89.557,293.81,70.191,244.158S124.578,0,219.161,0,342.684,87.018,296.625,198.61Z" transform="translate(424.409 -14.518) rotate(61)" fill="#00ba91" opacity="0.1"/>
          <path id="Caminho_482" data-name="Caminho 482" d="M645.872,319.53c13.333,122.667-156.531,56.444-281.667,52.592s-154.333,135.408-217,23.408,40.7-267,127.632-267S632.539,196.863,645.872,319.53Z" transform="translate(-103.559 -110.821)" fill="#4292cc" opacity="0.2"/>
          <path id="Caminho_531" data-name="Caminho 531" d="M21.917,31.509a2.976,2.976,0,0,1-1.836,1.63,3.06,3.06,0,0,1-4.15-2.359l-2.453-9.686-8.8,4.529a3.338,3.338,0,0,1-1.424.412,3,3,0,0,1-1.4-.267A3.2,3.2,0,0,1,.3,24.137a2.487,2.487,0,0,1-.1-2.175,3.071,3.071,0,0,1,1.541-1.474l10.3-5.052L9.1,3.8a2.915,2.915,0,0,1,.167-1.992,2.954,2.954,0,0,1,1.8-1.619A3.16,3.16,0,0,1,15.252,2.54l2.515,9.942,8.7-4.69a2.971,2.971,0,0,1,2.871-.234A2.876,2.876,0,0,1,30.9,9.227a2.682,2.682,0,0,1-.033,2.136,3.116,3.116,0,0,1-1.513,1.552l-10.209,4.99,2.943,11.633A2.915,2.915,0,0,1,21.917,31.509Z" transform="translate(444.241 69.236) rotate(49)" fill="none" stroke="#1c0a2d" stroke-miterlimit="10" stroke-width="2"/>
          <path id="Caminho_698" data-name="Caminho 698" d="M158.172,664.541a7.531,7.531,0,0,1-4.645,4.125,7.742,7.742,0,0,1-10.5-5.969l-6.208-24.508-22.27,11.459a8.444,8.444,0,0,1-3.6,1.042,7.584,7.584,0,0,1-3.533-.676,8.108,8.108,0,0,1-3.928-4.125,6.292,6.292,0,0,1-.253-5.5,7.771,7.771,0,0,1,3.9-3.73l26.057-12.782-7.447-29.435a7.376,7.376,0,0,1,.422-5.039,7.476,7.476,0,0,1,4.561-4.1,8,8,0,0,1,10.586,5.941L147.67,616.4l22-11.867a7.517,7.517,0,0,1,7.264-.591,7.278,7.278,0,0,1,3.956,4.223,6.785,6.785,0,0,1-.085,5.406,7.885,7.885,0,0,1-3.829,3.927l-25.832,12.627,7.447,29.435A7.377,7.377,0,0,1,158.172,664.541Z" transform="translate(388.866 -376.336)" fill="none" stroke="#dfa330" stroke-miterlimit="10" stroke-width="2"/>
          <g id="Grupo_260" data-name="Grupo 260" transform="translate(23.857 249.734)">
            <circle id="Elipse_317" data-name="Elipse 317" cx="19.712" cy="19.712" r="19.712" transform="translate(0 0)" fill="#4292cc"/>
            <circle id="Elipse_318" data-name="Elipse 318" cx="19.712" cy="19.712" r="19.712" transform="translate(3.333 3.348)" fill="none" stroke="#1c0a2d" stroke-miterlimit="10" stroke-width="2"/>
          </g>
          <g id="Grupo_321" data-name="Grupo 321" transform="translate(315.646 19.608)">
            <circle id="Elipse_317-2" data-name="Elipse 317" cx="23.036" cy="23.036" r="23.036" transform="translate(0 0)" fill="#4292cc"/>
            <circle id="Elipse_318-2" data-name="Elipse 318" cx="23.036" cy="23.036" r="23.036" transform="translate(3.895 3.912)" fill="none" stroke="#1c0a2d" stroke-miterlimit="10" stroke-width="2"/>
          </g>
        </g>
        <g id="tela3" transform="translate(73.093 92.024)">
          <g id="Grupo_308" data-name="Grupo 308" transform="translate(122.155 291.807)">
            <path id="Caminho_962" data-name="Caminho 962" d="M63.2,191.308c1.38,29.676,3.451,76.606,9.144,100.761,1.9-.173,3.968-.173,5.866-.345,3.106-32.264,6.9-67.807,10.525-101.624Z" transform="translate(-63.2 -190.1)" fill="#d99156"/>
            <path id="Caminho_963" data-name="Caminho 963" d="M79.385,250.1l5.521,7.592L66.1,257.346l7.764-7.246Z" transform="translate(-64.375 -146.579)" fill="url(#linear-gradient)"/>
          </g>
          <g id="Grupo_309" data-name="Grupo 309" transform="translate(167.877 291.807)">
            <path id="Caminho_964" data-name="Caminho 964" d="M27.5,198.037c9.317,28.123,24.155,72.81,35.887,94.55,1.9-.69,3.8-1.38,5.521-1.9C63.215,258.769,57.176,223.572,51.655,190.1Z" transform="translate(-27.5 -190.1)" fill="#d99156"/>
            <path id="Caminho_965" data-name="Caminho 965" d="M21.839,251.133l10.18.173,7.937-3.106.69,1.725L32.881,255.1l-16.563,4.313-.518-6.039Z" transform="translate(20.95 -147.957)" fill="url(#linear-gradient-2)"/>
          </g>
          <g id="DIREITA_1_" transform="translate(183.986 37.198)">
            <g id="Grupo_313" data-name="Grupo 313" transform="translate(0 0)">
              <g id="Grupo_312" data-name="Grupo 312">
                <g id="Grupo_311" data-name="Grupo 311">
                  <path id="Caminho_966" data-name="Caminho 966" d="M29.8,89.924a68.293,68.293,0,0,0,3.623-8.109c1.208-3.451,2.243-7.074,3.106-10.525,1.035-3.968,1.035-8.109,3.106-11.56,1.725-2.933,6.211-1.9,7.074,1.208,1.9,7.074-1.9,17.081-4.313,23.81-1.035,3.106-2.243,6.039-3.451,8.972C35.668,94.755,30.665,93.2,29.8,89.924Z" transform="translate(-25.897 -31.316)" fill="#d99156"/>
                  <g id="Grupo_310" data-name="Grupo 310">
                    <path id="Caminho_967" data-name="Caminho 967" d="M36.019,44.03a2.781,2.781,0,0,1,.69-1.208,1.962,1.962,0,0,1,2.588.518,4.857,4.857,0,0,1,1.035,2.588c.69,4.313-1.9,11.732.518,12.25,1.725.345,3.106-4.313,4.313-7.247a15.141,15.141,0,0,1,2.07-3.623c1.38-1.9,4.486-.173,3.623,2.07-1.208,2.933-4.141,7.074-4.831,10.18a.947.947,0,0,0,1.38,1.035l7.074-5.176c1.035-.69,2.761-1.208,3.451-.173.518.69-.345,1.9-1.208,2.761a23.913,23.913,0,0,1-5.349,3.968c-1.035.518-2.415,1.38-2.243,2.588,0,1.38,1.725,1.9,2.933,1.725a35.7,35.7,0,0,1,3.8-.69c1.38.173,2.588,1.553,1.9,2.761a1.584,1.584,0,0,1-1.035.69c-3.106,1.38-7.419.173-9.317,2.933-1.38,1.9-.69,5-2.588,6.556-1.553,1.208-3.451.518-5,0a7.351,7.351,0,0,0-4.313,0c-1.553.518-2.588.69-4.141-.345-1.38-.863-3.451-2.07-3.8-3.8-.345-1.553,1.208-3.8.863-5.349-.345-2.07-2.243-2.07-4.313-2.588a6.65,6.65,0,0,1-3.106-1.035,2.232,2.232,0,0,1-.173-3.278,5.372,5.372,0,0,1,1.553-1.208c3.623-2.07,5.694.69,9.317,3.106C34.984,58.351,33.777,50.241,36.019,44.03Z" transform="translate(-20.209 -42.531)" fill="#d99156"/>
                  </g>
                </g>
              </g>
              <path id="Caminho_968" data-name="Caminho 968" d="M29.852,56.334a9.915,9.915,0,0,1,3.968,6.039,16.266,16.266,0,0,1,1.725-1.725,6.224,6.224,0,0,1,4.486-1.553.259.259,0,1,1,0,.518,7.66,7.66,0,0,0-3.8,1.725,7.661,7.661,0,0,0-1.38,1.9c-.345.518-.345,1.208-.863,1.553h-.518c-.173,0-.173-.173-.345-.345a.525.525,0,0,1,0-.69,21.852,21.852,0,0,0-1.035-3.106c-.69-1.553-1.9-2.416-2.933-3.623C28.817,56.852,29.334,55.989,29.852,56.334Z" transform="translate(-17.665 -32.578)" fill="#915b23"/>
            </g>
          </g>
          <path id="DIREITO_11_" d="M25.873,175.621c-2.588,1.725-.863-18.806,1.9-23.12,16.218-25.363,33.817-54.521,37.1-80.574,5.176-4.313,25.708,10.7,25.708,10.7s-6.729,16.563-10.352,21.567c-12.25,16.563-22.085,29.331-36.233,44.169-2.07,2.07-7.592,6.9-9.489,8.8C30.531,160.611,25.873,175.621,25.873,175.621Z" transform="translate(123.715 15.425)" fill="url(#linear-gradient-3)"/>
          <g id="ESQUERDA_11_" transform="translate(44.859 248.51)">
            <g id="Grupo_316" data-name="Grupo 316" transform="translate(0)">
              <g id="Grupo_315" data-name="Grupo 315">
                <path id="Caminho_969" data-name="Caminho 969" d="M113.719,165.341a68.294,68.294,0,0,1-4.313,7.764c-2.07,3.106-4.313,6.039-6.556,8.972-2.588,3.106-5.694,5.694-7.247,9.489-1.38,3.278,2.243,6.039,5.176,4.831,6.9-2.761,12.423-11.9,16.391-17.771,1.9-2.761,3.451-5.349,5.176-8.282C121.138,167.067,117,163.961,113.719,165.341Z" transform="translate(-74.898 -165.005)" fill="#d99156"/>
                <g id="Grupo_314" data-name="Grupo 314" transform="translate(0 18.913)">
                  <path id="Caminho_970" data-name="Caminho 970" d="M103.718,201.214a1.959,1.959,0,0,0-.518,1.38,1.89,1.89,0,0,0,1.9,1.725,5.728,5.728,0,0,0,2.761-.863c3.8-2.07,8.282-8.627,10.18-7.074,1.208,1.208-1.553,5.176-3.106,7.937a15.1,15.1,0,0,0-1.725,3.8c-.69,2.243,2.588,3.8,3.8,1.725,1.553-2.761,3.106-7.592,5.176-10.007a.979.979,0,0,1,1.725.518l.173,8.627c.173,1.208.69,2.933,1.9,2.933,1.035,0,1.553-1.38,1.725-2.588a22.02,22.02,0,0,0-.173-6.729c-.173-1.208-.345-2.761.69-3.451s2.588.173,3.278,1.208c.69,1.208.863,2.415,1.9,3.451.863,1.035,2.761,1.035,3.278-.173.173-.345,0-.863,0-1.208-.863-3.278-4.313-6.039-3.278-9.144.69-2.243,3.623-3.623,3.623-5.866,0-1.9-1.725-3.106-3.106-3.968a6.012,6.012,0,0,1-2.588-3.278,4.174,4.174,0,0,0-2.761-3.106c-1.553-.518-3.8-1.553-5.349-.863s-2.243,3.278-3.8,3.968c-1.9,1.035-3.106-.518-4.658-1.9a7.883,7.883,0,0,0-2.761-1.9,2.087,2.087,0,0,0-2.588,1.9,6.993,6.993,0,0,0,0,1.9c.518,4.141,3.968,4.141,8.109,5.521C114.587,191.725,107.341,195.866,103.718,201.214Z" transform="translate(-103.2 -175.967)" fill="#d99156"/>
                </g>
              </g>
            </g>
            <path id="Caminho_971" data-name="Caminho 971" d="M108.276,182.288a9.7,9.7,0,0,0,7.246-.518,13.536,13.536,0,0,0-.345,2.415,7.089,7.089,0,0,0,1.553,4.486c.173.173.518,0,.518-.345a6.944,6.944,0,0,1-.863-4.141,5.622,5.622,0,0,1,.69-2.243c.345-.69.69-1.035.69-1.725v-.345h0a.169.169,0,0,0-.173-.173h-.518a1.308,1.308,0,0,0-.69.345,10.966,10.966,0,0,1-3.106,1.035,14.1,14.1,0,0,1-4.658-.173C107.931,181.08,107.586,182.116,108.276,182.288Z" transform="translate(-92.058 -154.346)" fill="#915b23"/>
          </g>
          <g id="ROUPA_7_" transform="translate(105.931 154.986)">
            <path id="Caminho_972" data-name="Caminho 972" d="M28.871,161.1c-4.486,9.835,15.011,133.888,14.148,139.409,8.627,1.38,5.866,0,14.32,1.38,2.07-7.937,13.458-77.469,16.046-85.923,1.9-.173,3.623-.345,5.521-.518,6.039,13.113,27.778,71.085,33.817,84.2,6.211-1.725,6.211-1.208,12.6-3.106-2.761-28.3-16.391-103.694-21.74-131.817Z" transform="translate(-23.172 -74.315)" fill="#dde3e8"/>
            <g id="FRENTE_7_">
              <path id="Caminho_973" data-name="Caminho 973" d="M57.335,114.1a18.824,18.824,0,0,0-1.035-1.9A6.7,6.7,0,0,1,57.335,114.1Z" transform="translate(-3.671 -109.785)" fill="#6191c9"/>
              <path id="Caminho_974" data-name="Caminho 974" d="M72.263,111.2c-.345.345-.518.863-.863,1.208C71.745,111.89,72.09,111.545,72.263,111.2Z" transform="translate(-44.651 -110.51)" fill="#6191c9"/>
              <path id="Caminho_975" data-name="Caminho 975" d="M72.863,112.1A16.032,16.032,0,0,0,72,113.825,8.057,8.057,0,0,0,72.863,112.1Z" transform="translate(-46.286 -109.857)" fill="#6191c9"/>
              <path id="Caminho_976" data-name="Caminho 976" d="M57.935,112.8c-.345-.69-.69-1.208-1.035-1.9C57.245,111.59,57.59,112.108,57.935,112.8Z" transform="translate(-5.306 -110.727)" fill="#6191c9"/>
              <path id="Caminho_977" data-name="Caminho 977" d="M71.373,111c0,.173-.173.173-.173.345C71.2,111.173,71.2,111,71.373,111Z" transform="translate(-43.416 -110.655)" fill="#6191c9"/>
              <path id="Caminho_978" data-name="Caminho 978" d="M57.5,110.9Z" transform="translate(-5.906 -110.727)" fill="#6191c9"/>
              <path id="Caminho_979" data-name="Caminho 979" d="M56.973,112.345c0-.173-.173-.173-.173-.345A.534.534,0,0,0,56.973,112.345Z" transform="translate(-4.171 -109.93)" fill="#6191c9"/>
              <path id="Caminho_980" data-name="Caminho 980" d="M71.973,111.9a.6.6,0,0,1-.173.345A.534.534,0,0,1,71.973,111.9Z" transform="translate(-45.051 -110.002)" fill="#6191c9"/>
              <path id="Caminho_981" data-name="Caminho 981" d="M72.684,113.388a5.735,5.735,0,0,0-4.831-2.588c-6.211,0-19.324,0-19.669.345,0,.173-.173.173-.173.345-.345.345-.518.863-.863,1.208a.6.6,0,0,1-.173.345c-.345.518-.173,1.553-.863,1.725C34.9,118.392,20.061,204.659,20.406,250.554c25.708,11.042,93.687-12.6,115.6-22.947C105.293,193.445,93.043,120.98,73.892,115.113A12.129,12.129,0,0,1,72.684,113.388Z" transform="translate(-20.4 -110.8)" fill="#6191c9"/>
            </g>
          </g>
          <path id="Caminho_982" data-name="Caminho 982" d="M52.678,37.239c-3.106,1.9-5.866,4.658-5.694,8.109s4.831,6.729,7.937,4.658c-3.968,1.035-7.937,2.761-10.352,5.866s-2.933,7.592-.518,10.87,7.937,4.658,11.042,2.243A18.96,18.96,0,0,0,48.71,78.993a11.283,11.283,0,0,0,3.8,11.215c3.451,2.761,9.144,2.933,11.9,0-1.208,3.8-1.38,8.454,1.9,11.215,2.933,2.588,7.592,2.588,11.042.863,3.451-1.553,5.866-4.313,8.109-7.074,5.694,5,15.873,4.658,20.532-.69,2.588-2.933,2.761-8.109-.863-10.007,4.141-.173,8.282-.173,12.077-1.553s6.9-4.313,7.247-8.109-3.106-7.937-7.247-7.764c6.211.345,11.9-4.141,12.25-9.662.518-5.349-4.313-11.215-10.525-12.25,3.968-5.349,2.933-13.458-2.416-18.289a9.332,9.332,0,0,0-6.039-2.761c-3.968,0-6.556,3.278-8.454,6.211.345-4.313-3.8-8.8-8.627-9.317s-9.489,3.106-9.662,7.419c-3.623-1.9-7.419-3.968-11.387-4.486-4.141-.518-8.627.69-10.525,3.8-1.9,3.278.345,8.282,4.313,8.8C62.513,33.616,56.647,34.824,52.678,37.239Z" transform="translate(53.949 -20.971)" fill="url(#linear-gradient-4)"/>
          <circle id="Elipse_386" data-name="Elipse 386" cx="9.662" cy="9.662" r="9.662" transform="translate(115.771 30.071)" fill="#dfa330" stroke="#000" stroke-miterlimit="10" stroke-width="0.75"/>
          <path id="Caminho_983" data-name="Caminho 983" d="M74.943,48.244c.518.863,1.208-1.9,3.8-4.141,1.9-1.725,7.247-2.243,6.729-2.933a6.364,6.364,0,0,0-8.454.518C73.563,44.275,74.253,47.381,74.943,48.244Z" transform="translate(42.899 -7.303)" fill="#ebc477"/>
          <circle id="Elipse_387" data-name="Elipse 387" cx="9.662" cy="9.662" r="9.662" transform="translate(128.194 30.933)" fill="#dfa330" stroke="#000" stroke-miterlimit="10" stroke-width="0.75"/>
          <path id="Caminho_984" data-name="Caminho 984" d="M67.619,48.666c.518.863,1.208-1.9,3.8-4.141,1.9-1.725,7.246-2.243,6.729-2.933-.518-.863-4.658-2.933-8.454.518C66.411,44.87,67.1,47.8,67.619,48.666Z" transform="translate(62.646 -7.035)" fill="#ebc477"/>
          <path id="Caminho_985" data-name="Caminho 985" d="M157.329,113.166c-.69-9.662.518-23.12-2.243-32.437-9.144-30.711-28.641-40.718-54.349-33.99-19.151,5-42.444,14.32-49,34.68-7.419,22.947,3.8,55.039,20.014,72.12,1.9,1.9,12.078,6.556,14.666,7.419s5-3.278,6.729-5.349Z" transform="translate(14.172 -3.729)" fill="url(#linear-gradient-5)"/>
          <path id="Caminho_986" data-name="Caminho 986" d="M147.308,44.9c3.451-1.035,7.419-1.208,9.835,1.208s1.553,8.109-1.9,8.972c3.451-2.243,7.419-3.968,11.387-3.623,3.8.345,7.592,2.933,8.454,6.9s-1.9,9.144-5.866,9.662c4.141-.345,8.282,0,11.732,2.07a11.384,11.384,0,0,1,5.694,10.352c-.345,4.313-3.968,8.8-7.937,8.8,3.623,1.725,7.074,4.658,7.074,8.972-.173,3.8-3.278,7.247-6.729,8.8-3.451,1.38-7.246,1.38-10.7,1.208-.173,7.592-7.246,14.838-14.32,14.666-3.8-.173-7.937-3.278-6.729-7.419-2.933,2.933-5.866,5.866-9.317,7.764-3.623,1.725-7.937,2.243-10.87,0s-3.623-7.592-.863-10.525c-3.968,4.831-11.042,6.039-15.528,2.588s-5.349-10.87-2.243-16.218c-6.556-.69-11.732-6.9-11.9-13.975a9.48,9.48,0,0,1,2.07-6.384c2.588-2.933,6.9-2.588,10.352-2.07-3.451-2.761-3.968-8.8-1.035-12.6,2.933-3.968,8.627-4.831,12.077-2.07,1.035-3.968,2.07-8.109,4.486-11.387,2.415-3.451,6.211-5.866,10.007-5.176,3.623.69,5.866,5.866,3.623,9.144C138.163,49.734,142.994,46.283,147.308,44.9Z" transform="translate(-96.582 -4.135)" fill="url(#linear-gradient-6)"/>
          <path id="PESCOÇO_6_" d="M62.273,108.5c0-3.106,7.592-4.658,10.18-1.9.69,6.384.69,5,1.38,11.387a76.023,76.023,0,0,1-11.732.345S62.273,113.676,62.273,108.5Z" transform="translate(75.756 40.102)" fill="#915b23"/>
          <path id="Caminho_987" data-name="Caminho 987" d="M48.355,150.769c1.38-3.106,5.176-5.349,8.109-3.278.345.173,2.07,1.725,2.243,1.38a6.514,6.514,0,0,1,2.07-1.725c-.173.173-4.313-6.556-8.972-14.32a24.712,24.712,0,0,0,1.208-8.8c-.345-6.384-7.764-21.567-11.215-26.916.863-26.4,45.722-59.352,73.328-30.366.345.345,4.486,22.085,14.838,23.12,9.144.863,15.528,34.162-9.317,48.655-12.077,6.9-45.895,19.151-56.247,16.218-.518-.172-.863.173-.69.69a8.416,8.416,0,0,1-.69,4.141c-.173.345-.173.518-.345.69-2.243,3.451-9.835,3.968-12.94.863C46.975,158.361,46.975,153.875,48.355,150.769Z" transform="translate(46.54 4.045)" fill="#ba7b43"/>
          <path id="BOCA_2_" d="M92.751,74.342a1.321,1.321,0,0,1-.345,2.588c-2.761,0-5.176.345-7.419,2.416-1.725,1.725-1.9,3.968-2.588,6.211a1.618,1.618,0,0,1-3.106,0C77.051,78.31,86.54,71.754,92.751,74.342Z" transform="translate(26.816 17.324)" fill="#201f20"/>
          <path id="Caminho_988" data-name="Caminho 988" d="M78.03,70.525c.863,1.208-.345,2.933-1.725,2.07-2.416-1.553-4.486-2.588-7.419-2.07-2.416.518-3.8,2.416-5.521,3.8A1.635,1.635,0,0,1,60.777,72.6C62.675,65.349,74.235,64.832,78.03,70.525Z" transform="translate(73.629 12.169)" fill="#201f20"/>
          <path id="Caminho_989" data-name="Caminho 989" d="M88.075,113.49c1.38-2.243,3.8-2.761,6.211-2.07a1.263,1.263,0,0,1,.518,1.9c-.69.863-1.035,2.07,0,2.933,1.035,1.035,2.243,0,3.106-.69a.794.794,0,0,1,1.208.518c.173,2.761-3.451,3.8-5.521,2.588a4.423,4.423,0,0,1-1.9-5,2.487,2.487,0,0,0-1.9,1.553c-.518,1.035,0,2.243.345,3.278.173.69-.863,1.208-1.38.863A4.492,4.492,0,0,1,88.075,113.49Z" transform="translate(6.992 44.429)" fill="#915b23"/>
          <path id="VENTA_7_" d="M62.8,90.431a4.44,4.44,0,0,1,2.07-7.419,12.089,12.089,0,0,1,2.415-.518h0a5.779,5.779,0,0,1,7.592.518c2.07,2.07,2.416,6.211,0,8.109C71.078,94.054,66.419,94.054,62.8,90.431Z" transform="translate(74.025 22.802)" fill="#774928" opacity="0.6"/>
          <path id="GOLA_7_" d="M56.8,114.423c0,2.415,5.176,4.831,12.6,4.831s13.8-2.416,13.8-4.831c0-.863-2.588-3.623-3.968-3.623-.69,0,.345,2.243-1.208,2.588a43.9,43.9,0,0,1-8.972.863c-2.933,0-5.866,0-7.937-.69-1.725-.69-.518-2.416-1.035-2.588C57.318,110.282,56.8,113.388,56.8,114.423Z" transform="translate(75.535 44.186)" fill="#001d7e"/>
          <path id="DIREITO_10_" d="M137.478,113.5c0-3.106-16.218,9.662-18.461,14.148-12.423,27.433-27.088,58.145-47.1,75.226-.69,6.729,23.12,15.528,23.12,15.528s17.426-21.912,19.669-27.778c7.074-19.324,8.282-28.641,12.94-48.828a19.259,19.259,0,0,0,.173-8.282Z" transform="translate(-4.798 45.798)" fill="url(#linear-gradient-7)"/>
          <g id="Grupo_319" data-name="Grupo 319" transform="translate(126.266 119.786)">
            <path id="Caminho_990" data-name="Caminho 990" d="M56.658,95.4c.863,4.486,16.736,14.838,23.292,13.63s10.18-10.7,9.317-15.356c-.863-4.486-2.761-3.451-9.317-2.243S55.795,90.746,56.658,95.4Z" transform="translate(-56.627 -90.398)" fill="#c64832"/>
            <g id="Grupo_317" data-name="Grupo 317" transform="translate(0)" clip-path="url(#clip-path)">
              <path id="Caminho_991" data-name="Caminho 991" d="M57.282,96.074c-1.035-4.831,7.074-12.768,13.975-14.32s9.662,2.07,10.7,6.729c1.035,4.831,1.208,11.56-5.694,13.113S58.317,100.9,57.282,96.074Z" transform="translate(-50.695 -96.933)" fill="#fff"/>
            </g>
            <g id="Grupo_318" data-name="Grupo 318" transform="translate(0)" clip-path="url(#clip-path)">
              <path id="Caminho_993" data-name="Caminho 993" d="M58.582,109.874c-1.035-4.831,7.074-12.768,13.975-14.32s9.662,2.07,10.7,6.729c1.035,4.831,1.208,11.56-5.694,13.113S59.617,114.7,58.582,109.874Z" transform="translate(-54.238 -86.923)" fill="#c95a56"/>
            </g>
          </g>
          <path id="Caminho_995" data-name="Caminho 995" d="M38.132,98.736,66.945,87a1.582,1.582,0,0,0,.863-2.243l-22.6-55.211a1.582,1.582,0,0,0-2.243-.863L14.149,40.419a1.582,1.582,0,0,0-.863,2.243l22.6,55.211A1.712,1.712,0,0,0,38.132,98.736Z" transform="translate(166.15 -15.525)" fill="#5b5b5f" stroke="#000" stroke-miterlimit="10" stroke-width="1"/>
          <path id="Caminho_996" data-name="Caminho 996" d="M28.712,32.77,38.2,28.8c.863-.173,2.588,6.211,2.588,6.211A106.939,106.939,0,0,1,43.033,46.4c.345,3.8-1.208,10.18-1.9,15.011-.518,3.106-2.07,9.835-2.588,13.113-1.725,13.63,5.176,18.461,4.313,18.461l-8.8,3.8c-.863.173-2.933-12.25-3.451-20.877-.173-3.8-.518-11.387-.345-15.356.173-3.278,1.208-9.317.69-12.768-1.38-9.144-6.384-13.458-6.384-13.458Z" transform="translate(171.257 -15.294)" fill="#aeadb3"/>
          <rect id="Retângulo_1537" data-name="Retângulo 1537" width="33.816" height="7.246" transform="matrix(-0.925, 0.379, -0.379, -0.925, 234.235, 70.004)"/>
          <path id="Caminho_997" data-name="Caminho 997" d="M81.38,78.036a23.353,23.353,0,0,1,3.968,10.18c.518,2.761-3.968,5.349-5.694,3.278A22.271,22.271,0,0,1,75,79.934C74.651,76.483,78.792,74.758,81.38,78.036Z" transform="translate(41.983 19.151)" fill="#201f20"/>
          <path id="Caminho_998" data-name="Caminho 998" d="M69.052,73.438a21.98,21.98,0,0,1,3.8,10.18c.518,2.761-3.968,5.349-5.866,3.278A22.54,22.54,0,0,1,62.5,75.336C62.15,71.54,66.464,69.815,69.052,73.438Z" transform="translate(76.051 15.64)" fill="#201f20"/>
          <path id="Caminho_999" data-name="Caminho 999" d="M67.355,72.891a10.585,10.585,0,0,1,2.07,5.349c.173,1.38-2.07,2.761-3.106,1.725A12.1,12.1,0,0,1,63.9,73.927C63.731,72.029,65.974,71.166,67.355,72.891Z" transform="translate(77.058 16.014)" fill="#fff"/>
          <path id="Caminho_1000" data-name="Caminho 1000" d="M69.144,73.819a1.566,1.566,0,0,1-.518,1.208c-.173.173-1.208-.518-1.38-1.035a1.192,1.192,0,0,1,.518-1.38C68.281,72.439,69.144,73.129,69.144,73.819Z" transform="translate(71.645 16.467)" fill="#fff"/>
          <path id="Caminho_1001" data-name="Caminho 1001" d="M69.257,77.236a2.563,2.563,0,0,1-1.035,2.243c-.518.345-2.588-1.208-2.588-2.07a2.488,2.488,0,0,1,1.035-2.588C67.359,74.475,69.257,76.028,69.257,77.236Z" transform="translate(74.293 18.053)" fill="#9a999e"/>
          <path id="Caminho_1002" data-name="Caminho 1002" d="M81.557,82.058A2.563,2.563,0,0,1,80.521,84.3c-.518.345-2.588-1.208-2.588-2.07a2.488,2.488,0,0,1,1.035-2.588C79.659,79.125,81.557,80.678,81.557,82.058Z" transform="translate(40.771 21.512)" fill="#9a999e"/>
          <path id="Caminho_1003" data-name="Caminho 1003" d="M81.644,78.819a1.566,1.566,0,0,1-.518,1.208c-.173.173-1.208-.518-1.38-1.035a1.192,1.192,0,0,1,.518-1.38C80.609,77.439,81.471,78.129,81.644,78.819Z" transform="translate(37.578 20.093)" fill="#fff"/>
          <path id="Caminho_1004" data-name="Caminho 1004" d="M79.855,77.423a10.585,10.585,0,0,1,2.07,5.349c.173,1.38-2.07,2.761-3.106,1.725A12.1,12.1,0,0,1,76.4,78.459C76.231,76.561,78.474,75.525,79.855,77.423Z" transform="translate(42.991 19.246)" fill="#fff"/>
        </g>
      </g>
      <g id="Grupo_322" data-name="Grupo 322" transform="translate(252.836 185)">
        <circle id="Elipse_305" data-name="Elipse 305" cx="64.462" cy="64.462" r="64.462" transform="translate(80.497 278.442)" fill="#2e414f"/>
        <path id="Caminho_500" data-name="Caminho 500" d="M220.8,392.332a64.173,64.173,0,0,0-10.414-35.072s-3.68,5.38-2.985,8.829,4.744,3.714,4.328,6.248-3.4-.717-7.093,5.959-1.84,15.887,3.471,16.57S220.8,392.332,220.8,392.332Z" transform="translate(-11.376 -49.428)" fill="#35ad8c"/>
        <path id="Caminho_501" data-name="Caminho 501" d="M177.462,333.8a64.264,64.264,0,0,1,20.608,9.812s-7.475-1.238-10.31,1.3-6.943,8.528-10.3,0S177.462,333.8,177.462,333.8Z" transform="translate(-15.575 -53.113)" fill="#4bb29c"/>
        <path id="Caminho_502" data-name="Caminho 502" d="M120.74,353.825a64.323,64.323,0,0,1,48.471-21.985s-4.374,2.65,3.911,7.139,4.49,6.561,2.765,7.949-4.721-2.766-6.676-5.531-10.414-7.024-16.813-4.721-11.964,4-11.05,6.144,11.976-2,16.118-1.77,2.765,2.765-1.157,5.785-4.374,6.676-.22,8.979,9.257,2.534,10.414,1.157-2.071-10.356,5.785-6.445,14.279,6.214,7.834,11.976-13.955,12.184-14.14,15.875,2.314,6.676.926,6.943-2.65-1.5-3.575-2.766-5.172-1.724-7.243-.926-5.994,3.911-3.807,6.943,5.184,1.608,8.181,3,5.785,6.63,5.207,7.822-3.124-.312-5.207-4.374-6.005-1.377-8.759-2.071-4.825-1.157-7.591-5.982-8.482-6.19-10.819-8.979c-6.7-8-6.225-14.047-7.6-16.813a57.773,57.773,0,0,0-4.952-7.347Z" transform="translate(-24.252 -53.421)" fill="#35ad8c"/>
        <path id="Caminho_503" data-name="Caminho 503" d="M169.082,388.392s6.943.694,10.356,3.68,3.923,4.154,9.257,5.3,7.6,4.142,4.142,9.9S183.164,422.237,180.178,425s-6.676,5.068-8.1,9.662-1.851,7.371,1.157,9.257c0,0-1.608,3.923-5.3-1.157s-.683-11.05,0-14.51,2.534-13.8,1.389-16.338-6.445-4.154-7.834-9.442S162.521,386.807,169.082,388.392Z" transform="translate(-17.909 -44.563)" fill="#35ad8c"/>
        <path id="Caminho_504" data-name="Caminho 504" d="M123.23,350.742a64.469,64.469,0,0,1,91.144,91.2s29.251-38.682-12.161-80.083S123.23,350.742,123.23,350.742Z" transform="translate(-23.861 -53.416)" fill="#263845" opacity="0.6"/>
        <circle id="Elipse_306" data-name="Elipse 306" cx="65.075" cy="65.075" r="65.075" transform="translate(85.241 281.392)" fill="none" stroke="#f3a51c" stroke-miterlimit="10" stroke-width="3" opacity="0.7"/>
      </g>
    </g>
  </g>
</svg>
