<svg xmlns="http://www.w3.org/2000/svg" width="413.253" height="366.179" viewBox="0 0 413.253 366.179">
  <g id="Grupo_279" data-name="Grupo 279" transform="translate(-475 -208.143)">
    <path id="Caminho_729" data-name="Caminho 729" d="M497.284,337.614c0,83.776-219.272,189.2-303.048,189.2s-82.716-109.781-82.716-193.552S110.478,160.63,194.25,160.63,497.284,253.842,497.284,337.614Z" transform="translate(390.969 47.512)" fill="#3f92cc" opacity="0.19"/>
    <g id="Grupo_272" data-name="Grupo 272" transform="translate(475 306.988)" opacity="0.2">
      <path id="Caminho_731" data-name="Caminho 731" d="M54.48,776.14H392.029v7.913h0a7.937,7.937,0,0,1-7.913,7.923H62.388a7.937,7.937,0,0,1-7.908-7.913h0Z" transform="translate(-54.48 -578.361)" fill="#b4b3b3"/>
      <path id="Caminho_732" data-name="Caminho 732" d="M339.288,677.65H107.221L54.48,725.114H392.029Z" transform="translate(-54.48 -527.335)" fill="#dbe3e7"/>
      <path id="Caminho_733" data-name="Caminho 733" d="M111.52,725.905l29.3-26.375H364.791l29.3,26.375Z" transform="translate(-84.031 -538.671)" fill="#f5f5f5"/>
      <path id="Caminho_734" data-name="Caminho 734" d="M397.439,776.14a5.3,5.3,0,0,1-5.3,5.3h-36.9a5.272,5.272,0,0,1-5.272-5.3Z" transform="translate(-207.568 -578.361)" fill="#e6e6e5"/>
      <path id="Caminho_735" data-name="Caminho 735" d="M163.92,516.055V373.648a7.932,7.932,0,0,1,7.908-7.908H388.074a7.932,7.932,0,0,1,7.913,7.908V516.055Z" transform="translate(-111.179 -365.74)" fill="#263841"/>
      <rect id="Retângulo_1523" data-name="Retângulo 1523" width="200.419" height="121.308" transform="translate(68.562 15.821)" fill="#3f92cc"/>
      <circle id="Elipse_346" data-name="Elipse 346" cx="2.636" cy="2.636" r="2.636" transform="translate(268.982 152.951)" fill="#35ad8c"/>
      <circle id="Elipse_347" data-name="Elipse 347" cx="2.636" cy="2.636" r="2.636" transform="translate(166.136 5.272)" fill="#e01227"/>
      <path id="Caminho_736" data-name="Caminho 736" d="M652.587,792.332h-26.37a2.636,2.636,0,1,1,0-5.272h26.37a2.636,2.636,0,0,1,0,5.272Z" transform="translate(-349.321 -584.019)" fill="#263841"/>
    </g>
    <g id="Grupo_273" data-name="Grupo 273" transform="translate(477.636 305.061)" opacity="0.19">
      <path id="Caminho_737" data-name="Caminho 737" d="M60,772.15H397.525v7.908h0a7.937,7.937,0,0,1-7.894,7.923H67.884A7.937,7.937,0,0,1,60,780.058h0Z" transform="translate(-59.976 -574.367)" fill="none" stroke="#1c0a2d" stroke-miterlimit="10" stroke-width="2"/>
      <path id="Caminho_738" data-name="Caminho 738" d="M344.758,673.65H112.691L59.95,721.114H397.5Z" transform="translate(-59.95 -523.335)" fill="none" stroke="#1c0a2d" stroke-miterlimit="10" stroke-width="2"/>
      <path id="Caminho_739" data-name="Caminho 739" d="M116.99,721.91l29.3-26.37H370.261l29.3,26.37Z" transform="translate(-89.501 -534.676)" fill="none" stroke="#1c0a2d" stroke-miterlimit="10" stroke-width="2"/>
      <path id="Caminho_740" data-name="Caminho 740" d="M402.909,772.15a5.272,5.272,0,0,1-5.272,5.272h-36.92a5.3,5.3,0,0,1-5.277-5.272Z" transform="translate(-213.038 -574.367)" fill="none" stroke="#1c0a2d" stroke-miterlimit="10" stroke-width="2"/>
      <path id="Caminho_741" data-name="Caminho 741" d="M169.39,512.055V369.648a7.932,7.932,0,0,1,7.913-7.908H393.544a7.932,7.932,0,0,1,7.913,7.908V512.055Z" transform="translate(-116.649 -361.74)" fill="none" stroke="#1c0a2d" stroke-miterlimit="10" stroke-width="2"/>
      <rect id="Retângulo_1524" data-name="Retângulo 1524" width="200.419" height="121.308" transform="translate(68.562 15.821)" fill="none" stroke="#1c0a2d" stroke-miterlimit="10" stroke-width="2"/>
      <circle id="Elipse_348" data-name="Elipse 348" cx="2.636" cy="2.636" r="2.636" transform="translate(268.986 152.951)" fill="none" stroke="#1c0a2d" stroke-miterlimit="10" stroke-width="2"/>
      <circle id="Elipse_349" data-name="Elipse 349" cx="2.636" cy="2.636" r="2.636" transform="translate(166.136 5.272)" fill="none" stroke="#1c0a2d" stroke-miterlimit="10" stroke-width="2"/>
      <path id="Caminho_742" data-name="Caminho 742" d="M658.057,788.332h-26.37a2.636,2.636,0,1,1,0-5.272h26.37a2.636,2.636,0,0,1,0,5.272Z" transform="translate(-354.791 -580.019)" fill="none" stroke="#1c0a2d" stroke-miterlimit="10" stroke-width="2"/>
    </g>
    <g id="Grupo_274" data-name="Grupo 274" transform="translate(781.793 311.639)" opacity="0.19">
      <path id="Caminho_743" data-name="Caminho 743" d="M763.411,522.668l-63.762-.482a8.621,8.621,0,0,1-8.559-8.674l.921-129.563a8.621,8.621,0,0,1,8.674-8.559l63.757.482A8.621,8.621,0,0,1,773,384.546l-.964,129.573A8.622,8.622,0,0,1,763.411,522.668Z" transform="translate(-691.09 -375.39)" fill="#dbe3e7"/>
      <circle id="Elipse_350" data-name="Elipse 350" cx="7.595" cy="7.595" r="7.595" transform="translate(32.934 126.797)" fill="#fff"/>
      <path id="Caminho_744" data-name="Caminho 744" d="M763.593,391.357l-10.12-.072a2.535,2.535,0,0,1,.038-5.065l10.12.077a2.53,2.53,0,1,1-.039,5.06Z" transform="translate(-722.162 -381.001)" fill="#444b61"/>
      <path id="Caminho_745" data-name="Caminho 745" d="M792.526,391.552H790a2.535,2.535,0,1,1,.034-5.065h2.535a2.53,2.53,0,1,1-.039,5.06Z" transform="translate(-740.97 -381.137)" fill="#444b61"/>
      <rect id="Retângulo_1525" data-name="Retângulo 1525" width="106.315" height="81.005" transform="translate(0.149 121.457) rotate(-89.58)" fill="#3f92cc"/>
    </g>
    <g id="Grupo_275" data-name="Grupo 275" transform="translate(784.805 308.497)" opacity="0.19">
      <path id="Caminho_746" data-name="Caminho 746" d="M769.656,516.158l-63.762-.482A8.617,8.617,0,0,1,697.34,507l.94-129.578a8.612,8.612,0,0,1,8.675-8.554l63.762.482a8.612,8.612,0,0,1,8.554,8.674L778.307,507.6A8.617,8.617,0,0,1,769.656,516.158Z" transform="translate(-697.34 -368.87)" fill="none" stroke="#1c0a2d" stroke-miterlimit="10" stroke-width="2"/>
      <circle id="Elipse_351" data-name="Elipse 351" cx="7.595" cy="7.595" r="7.595" transform="translate(32.934 126.802)" fill="none" stroke="#1c0a2d" stroke-miterlimit="10" stroke-width="2"/>
      <path id="Caminho_747" data-name="Caminho 747" d="M769.728,384.857l-10.12-.077a2.53,2.53,0,0,1,.034-5.06l10.12.072a2.535,2.535,0,0,1-.034,5.065Z" transform="translate(-728.298 -374.491)" fill="none" stroke="#1c0a2d" stroke-miterlimit="10" stroke-width="2"/>
      <path id="Caminho_748" data-name="Caminho 748" d="M798.9,385.09h-2.535a2.53,2.53,0,0,1,.039-5.06h2.53a2.535,2.535,0,0,1-.034,5.065Z" transform="translate(-747.34 -374.651)" fill="none" stroke="#1c0a2d" stroke-miterlimit="10" stroke-width="2"/>
      <rect id="Retângulo_1526" data-name="Retângulo 1526" width="106.315" height="81.005" transform="translate(0.142 121.468) rotate(-89.58)" fill="none" stroke="#1c0a2d" stroke-miterlimit="10" stroke-width="2"/>
    </g>
  </g>
</svg>
