<svg xmlns="http://www.w3.org/2000/svg" xmlns:xlink="http://www.w3.org/1999/xlink" width="521.996" height="536.154" viewBox="0 0 521.996 536.154">
  <defs>
    <linearGradient id="linear-gradient" y1="0.5" x2="1" y2="0.5" gradientUnits="objectBoundingBox">
      <stop offset="0" stop-color="#fff"/>
      <stop offset="0" stop-color="#4292cc"/>
      <stop offset="1" stop-color="#256b99"/>
    </linearGradient>
    <linearGradient id="linear-gradient-2" y1="0.501" x2="1" y2="0.501" gradientUnits="objectBoundingBox">
      <stop offset="0" stop-color="#fff"/>
      <stop offset="0" stop-color="#6191c9"/>
      <stop offset="1" stop-color="#446a96"/>
    </linearGradient>
    <linearGradient id="linear-gradient-3" x1="-0.64" y1="-0.433" x2="-0.181" y2="0.003" gradientUnits="objectBoundingBox">
      <stop offset="0" stop-color="#502e25"/>
      <stop offset="1" stop-color="#201310"/>
    </linearGradient>
    <linearGradient id="linear-gradient-4" x1="2.248" y1="1.917" x2="3.228" y2="1.917" xlink:href="#linear-gradient-3"/>
    <linearGradient id="linear-gradient-5" x1="5.136" y1="-0.403" x2="5.598" y2="0.032" xlink:href="#linear-gradient-3"/>
    <clipPath id="clip-path">
      <path id="Caminho_1148" data-name="Caminho 1148" d="M115.572,98.763c-1.023,5.322-5.322,21.492-30.7,19.445-13.509-1.023-12.076-12.69-11.053-18.217C74.84,94.669,77.092,95.9,84.87,97.33,103.291,101.014,116.6,93.236,115.572,98.763Z" transform="translate(-73.197 -96.098)"/>
    </clipPath>
    <linearGradient id="linear-gradient-6" x1="0.001" y1="0.501" x2="1.001" y2="0.501" xlink:href="#linear-gradient-2"/>
    <clipPath id="clip-path-3">
      <rect id="Retângulo_1505" data-name="Retângulo 1505" width="100.564" height="107.086" transform="translate(0 99.895) rotate(-83.39)" fill="none"/>
    </clipPath>
  </defs>
  <g id="Grupo_349" data-name="Grupo 349" transform="translate(-755 -93.174)">
    <path id="Caminho_532" data-name="Caminho 532" d="M154.973,253.019a3.837,3.837,0,0,1-3.069.627,3.925,3.925,0,0,1-3.084-5.268l3.468-12.292-12.631-.605a4.228,4.228,0,0,1-1.837-.457,3.837,3.837,0,0,1-1.38-1.188,4.132,4.132,0,0,1-.679-2.8,3.173,3.173,0,0,1,1.284-2.464,3.9,3.9,0,0,1,2.649-.657l14.623,1,4.183-14.756a3.689,3.689,0,0,1,1.476-2.1,3.77,3.77,0,0,1,3.032-.635,4.043,4.043,0,0,1,3.128,5.268l-3.578,12.609,12.631.369a3.8,3.8,0,0,1,3.328,1.572,3.689,3.689,0,0,1,.664,2.841,3.431,3.431,0,0,1-1.4,2.346,4,4,0,0,1-2.663.738l-14.505-1-4.176,14.756a3.689,3.689,0,0,1-1.461,2.088Z" transform="translate(889.064 -117.081)" fill="none" stroke="#f3a51f" stroke-miterlimit="10" stroke-width="2"/>
    <g id="Grupo_348" data-name="Grupo 348" transform="translate(755 94.659)">
      <path id="Caminho_482" data-name="Caminho 482" d="M675.275,395.151c-34.944,113.016-139.159,146.168-257.43,146.168S177.565,525.161,212.51,412.145,439.352,89.255,557.623,89.255,710.219,282.135,675.275,395.151Z" transform="translate(-196.496 -89.255)" fill="#4292cc" opacity="0.35"/>
      <path id="Caminho_499" data-name="Caminho 499" d="M97.161,102.444c20.725-19.109,10.433-18.1-8.669-38.831S55.607-15.333,34.882,3.806s-47.449,44.07-28.31,64.809S76.436,121.546,97.161,102.444Z" transform="matrix(-0.914, -0.407, 0.407, -0.914, 477.956, 369.804)" fill="#35ad8c" opacity="0.55"/>
      <g id="Grupo_347" data-name="Grupo 347" transform="translate(377.108 0.015)">
        <path id="Caminho_523" data-name="Caminho 523" d="M524.107,126.19c16.232,0,29.365,10.868,29.365,24.267,0,9.651-6.817,17.98-16.682,21.891a24.731,24.731,0,0,0,5.165,9.341s-10.263-3.313-15.014-7.563a30.244,30.244,0,0,1-4.206.288c-16.232,0-27.985-10.551-27.985-23.957S507.883,126.19,524.107,126.19Z" transform="translate(-494.75 -98.249)" fill="#2e414f"/>
        <path id="Caminho_524" data-name="Caminho 524" d="M552.368,181.688a24.731,24.731,0,0,1-5.165-9.341c9.865-3.91,16.682-12.24,16.682-21.891,0-13.4-13.148-24.267-29.365-24.267,0,0,12.735.509,20.386,8.78s8.433,16.889,3.689,25.344-14.247,10.8-14.247,10.8A16.077,16.077,0,0,0,552.368,181.688Z" transform="translate(-505.177 -98.249)" fill="#263845"/>
        <path id="Caminho_525" data-name="Caminho 525" d="M552.608,130s-2.907,8.4-.118,16.328,11.289,15.7,12.683,16.047l1.417-2.73-13.384-29.38Z" transform="translate(-509.572 -99.248)" fill="#1d303b"/>
        <path id="Caminho_526" data-name="Caminho 526" d="M592.762,92.44c-22,0-39.842,14.756-39.842,32.921,0,13.089,9.245,24.4,22.636,29.7a21.888,21.888,0,0,1-5.666,10.329s10.152-1.771,16.593-7.54a48.786,48.786,0,0,0,6.279.406c22,0,39.842-14.756,39.842-32.921S614.763,92.44,592.762,92.44Z" transform="translate(-510.001 -89.4)" fill="#4292cc"/>
        <path id="Caminho_527" data-name="Caminho 527" d="M569.89,165.425a22.084,22.084,0,0,0,5.666-10.329c-13.391-5.3-22.636-16.616-22.636-29.7,0-18.18,17.84-32.921,39.842-32.921,0,0-17.28.686-27.661,11.908s-11.443,22.909-4.958,34.389,19.331,14.653,19.331,14.653S579.149,160.548,569.89,165.425Z" transform="translate(-510.001 -89.408)" fill="url(#linear-gradient)"/>
        <circle id="Elipse_312" data-name="Elipse 312" cx="5.297" cy="5.297" r="5.297" transform="translate(62.279 30.28)" fill="#e3e5e7"/>
        <circle id="Elipse_313" data-name="Elipse 313" cx="5.297" cy="5.297" r="5.297" transform="translate(78.363 30.28)" fill="#e3e5e7"/>
        <circle id="Elipse_314" data-name="Elipse 314" cx="5.297" cy="5.297" r="5.297" transform="translate(94.447 30.28)" fill="#e3e5e7"/>
        <path id="Caminho_528" data-name="Caminho 528" d="M527.182,122.07c16.232,0,29.365,10.861,29.365,24.267,0,9.643-6.817,17.98-16.682,21.891a24.767,24.767,0,0,0,5.165,9.333s-10.278-3.305-15.029-7.585a29.106,29.106,0,0,1-4.206.288c-16.232,0-27.985-10.551-27.985-23.949S510.958,122.07,527.182,122.07Z" transform="translate(-495.552 -97.169)" fill="none" stroke="#f3a51c" stroke-miterlimit="10" stroke-width="3" opacity="0.7"/>
        <path id="Caminho_529" data-name="Caminho 529" d="M595.842,88.32c-22,0-39.842,14.756-39.842,32.921,0,13.089,9.245,24.392,22.636,29.7a21.855,21.855,0,0,1-5.666,10.329s10.152-1.763,16.593-7.533a48.867,48.867,0,0,0,6.279.406c22,0,39.842-14.756,39.842-32.921S617.843,88.32,595.842,88.32Z" transform="translate(-510.809 -88.32)" fill="none" stroke="#f3a51c" stroke-miterlimit="10" stroke-width="3" opacity="0.7"/>
      </g>
      <g id="Grupo_342" data-name="Grupo 342" transform="translate(93.141 306.223)">
        <circle id="Elipse_315" data-name="Elipse 315" cx="25.949" cy="25.949" r="25.949" transform="translate(0)" fill="#35ad8c"/>
        <circle id="Elipse_316" data-name="Elipse 316" cx="25.949" cy="25.949" r="25.949" transform="translate(4.39 4.412)" fill="none" stroke="#1c0a2d" stroke-miterlimit="10" stroke-width="2"/>
      </g>
      <g id="Grupo_260" data-name="Grupo 260" transform="translate(0 290.327)">
        <circle id="Elipse_317" data-name="Elipse 317" cx="14.989" cy="14.989" r="14.989" transform="translate(0)" fill="#4292cc"/>
        <circle id="Elipse_318" data-name="Elipse 318" cx="14.989" cy="14.989" r="14.989" transform="translate(2.534 2.546)" fill="none" stroke="#1c0a2d" stroke-miterlimit="10" stroke-width="2"/>
      </g>
      <path id="Caminho_531" data-name="Caminho 531" d="M131.781,626.6a3.947,3.947,0,0,1-2.435,2.162,4.058,4.058,0,0,1-5.5-3.128l-3.254-12.845-11.672,6.006a4.426,4.426,0,0,1-1.889.546,3.975,3.975,0,0,1-1.852-.354,4.25,4.25,0,0,1-2.059-2.162,3.3,3.3,0,0,1-.133-2.885,4.073,4.073,0,0,1,2.044-1.955l13.657-6.7-3.9-15.428a3.866,3.866,0,0,1,.221-2.641,3.918,3.918,0,0,1,2.39-2.147,4.191,4.191,0,0,1,5.548,3.114l3.335,13.185,11.532-6.22a3.94,3.94,0,0,1,3.807-.31,3.815,3.815,0,0,1,2.073,2.213,3.556,3.556,0,0,1-.044,2.833,4.132,4.132,0,0,1-2.007,2.058L128.1,608.561l3.9,15.428A3.866,3.866,0,0,1,131.781,626.6Z" transform="translate(336.847 -197.891)" fill="none" stroke="#1c0a2d" stroke-miterlimit="10" stroke-width="2"/>
      <g id="tela4" transform="translate(95.095 67.977)">
        <g id="Grupo_330" data-name="Grupo 330" transform="translate(181.712 335.08)">
          <path id="Caminho_1120" data-name="Caminho 1120" d="M123.093,190.2c0,35.206.409,91.085-4.912,119.741h-6.959C105.7,271.869,99.145,229.909,92.8,190.2Z" transform="translate(-92.8 -190.2)" fill="#d99156"/>
          <path id="Caminho_1121" data-name="Caminho 1121" d="M104.941,250.209,98.8,259.42l22.311-1.433-9.62-8.187Z" transform="translate(-86.519 -127.808)" fill="#e6b54a"/>
        </g>
        <g id="Grupo_331" data-name="Grupo 331" transform="translate(126.038 334.057)">
          <path id="Caminho_1122" data-name="Caminho 1122" d="M95.893,192.156c-2.866,35-7.369,90.88-14.942,118.922-2.252-.2-4.708-.409-6.959-.614C71.536,271.983,68.466,229.818,65.6,189.7Z" transform="translate(-65.6 -189.7)" fill="#d99156"/>
          <path id="Caminho_1123" data-name="Caminho 1123" d="M73.259,249.9,66.3,258.7l22.311.409-9.006-8.8Z" transform="translate(-64.867 -126.68)" fill="#e6b54a"/>
        </g>
        <g id="ESQUERDA_12_" transform="translate(0 153.167)">
          <g id="Grupo_334" data-name="Grupo 334">
            <g id="Grupo_333" data-name="Grupo 333">
              <path id="Caminho_1124" data-name="Caminho 1124" d="M58.277,117.1a60.947,60.947,0,0,1-10.439-1.433,128.026,128.026,0,0,1-12.69-3.275c-4.5-1.433-8.8-3.889-13.714-3.889-4.094,0-5.731,5.117-3.07,7.778,5.936,6.345,18.422,8.392,26.814,10.234,3.684.819,7.573,1.433,11.258,2.047C59.5,126.1,61.347,120.167,58.277,117.1Z" transform="translate(9.631 -93.814)" fill="#d99156"/>
              <g id="Grupo_332" data-name="Grupo 332">
                <path id="Caminho_1125" data-name="Caminho 1125" d="M6.841,101.478a2.242,2.242,0,0,0-1.637,0,2.275,2.275,0,0,0-1.023,2.866A8.443,8.443,0,0,0,6.227,107c3.889,3.275,13.1,5.322,12.281,7.983-2.661,0-9.006,2.866-1.842,7.369.2,0-3.684,1.842-1.637,4.912,1.228,1.842.819,2.456,3.07,3.684.409.2,2.252,3.275,3.684,3.48,2.456.2,4.094-.614,6.55-.819,2.866-.2,5.936-1.637,8.6-2.661,2.047-.819,2.252-2.252,2.866-4.094a8.232,8.232,0,0,1,2.456-4.3c1.433-1.228,2.252-2.252,2.252-4.3,0-1.842-1.228-3.48-2.661-4.912s-3.07-3.275-4.5-4.708c-1.842-1.637-8.392-7.573-12.281-1.023C17.075,107.21,14.414,103.116,6.841,101.478Z" transform="translate(-4.023 -101.325)" fill="#d99156"/>
              </g>
            </g>
          </g>
        </g>
        <path id="DIREITO_13_" d="M159.81,126.056c3.275-1.842-19.445-11.258-25.381-10.644-35.615,3.275-75.938,5.936-105.208-4.912-7.369,3.07,2.252,45.235,2.252,45.235S51.532,150.618,58.9,150c25.995-2.252,36.229-3.48,59.768-10.234,3.275-1.023,14.328-13.714,17.194-14.737C141.388,122.986,159.81,126.056,159.81,126.056Z" transform="translate(19.446 61.447)" fill="url(#linear-gradient-2)"/>
        <g id="ROUPA_8_" transform="translate(115.394 172.14)">
          <path id="Caminho_1126" data-name="Caminho 1126" d="M159.59,159.5c6.141,11.258-7.778,159.654-6.55,166-10.03,2.252-6.755.409-16.989,2.866-3.07-9.211-21.7-90.88-25.381-100.5l-3.275-.2c-.614,0,0,1.023-.2,1.637-6.141,17.808-14.737,84.944-20.878,100.5-7.573-1.637-10.848.2-18.422-1.433,1.228-33.773-6.141-111.349-1.637-144.917Z" transform="translate(-55.815 -59.398)" fill="#dde3e8"/>
          <g id="FRENTE_8_">
            <path id="Caminho_1127" data-name="Caminho 1127" d="M80.4,114.756c.409-.819.614-1.638,1.023-2.456A21.31,21.31,0,0,0,80.4,114.756Z" transform="translate(-39.463 -108.809)" fill="#6191c9"/>
            <path id="Caminho_1128" data-name="Caminho 1128" d="M96.5,112.3" transform="translate(-22.609 -108.809)" fill="#6191c9"/>
            <path id="Caminho_1129" data-name="Caminho 1129" d="M81,113.352c.409-.819.614-1.433,1.023-2.252A7.567,7.567,0,0,0,81,113.352Z" transform="translate(-38.835 -110.065)" fill="#6191c9"/>
            <path id="Caminho_1130" data-name="Caminho 1130" d="M81.5,111.147Z" transform="translate(-38.311 -110.112)" fill="#6191c9"/>
            <path id="Caminho_1131" data-name="Caminho 1131" d="M80.9,112.609c0-.2.2-.2.2-.409C80.9,112.2,80.9,112.4,80.9,112.609Z" transform="translate(-38.94 -108.914)" fill="#6191c9"/>
            <path id="Caminho_1132" data-name="Caminho 1132" d="M95.8,111.2" transform="translate(-23.342 -109.961)" fill="#6191c9"/>
            <path id="Caminho_1133" data-name="Caminho 1133" d="M102.77,114.495c1.228-2.047.614-3.48,2.866-3.684-1.637,10.439,22.925-.614,23.334-.2,0,.2,2.047.819,2.252,1.023.409.409,0,.409.409,1.023a5.977,5.977,0,0,0,.409,1.842c.409.614,2.252.409,3.07.409,13.509,3.48,36.025,115.442,49.329,158.426-29.679,15.147-97.225,10.03-124.039-.614,9.006-36.229,8.392-143.893,41.142-156.174C101.746,116.542,102.156,115.518,102.77,114.495Z" transform="translate(-60.4 -110.595)" fill="#6191c9"/>
          </g>
        </g>
        <path id="GOLA_8_" d="M111.517,115c0,2.866-6.141,5.731-14.942,5.731S80.2,117.864,80.2,115c0-1.023,3.07-4.3,4.708-4.3.819,0-.409,2.661,1.433,3.07a52.084,52.084,0,0,0,10.644,1.023c3.48,0,6.959,0,9.416-.819,2.047-.819.614-2.866,1.228-3.07C110.9,110.086,111.517,113.77,111.517,115Z" transform="translate(75.722 61.656)" fill="#001d7e"/>
        <path id="Caminho_1134" data-name="Caminho 1134" d="M31.138,119.956c-.409.2-1.433,1.637-5.322,1.228-1.842-.2-3.48-2.047-4.094-6.141a8.1,8.1,0,0,1-3.07,2.047c-.614.2-4.912.819-5.526.409-1.637-1.433-1.228-4.708-1.023-5.526a23.787,23.787,0,0,1,3.07-5.526l1.433-2.047a65.583,65.583,0,0,0-3.275,7.983,7.281,7.281,0,0,0,1.023,3.889c.2.2,2.661-.2,3.48-.2,4.5-.409,3.889-6.55,4.912-6.345.614,0,0,8.6,2.047,9.62C26.225,119.956,27.044,120.979,31.138,119.956Z" transform="translate(4.225 55.061)" fill="#915b23"/>
        <path id="Caminho_1135" data-name="Caminho 1135" d="M19.1,125.047l1.023-.614a2.865,2.865,0,0,0,1.228-1.842c.409-1.023-.614-2.661-1.433-3.07-1.023-.614-7.778,1.023-7.778,1.023l7.983-2.252a3.266,3.266,0,0,0,.614-1.637,5.3,5.3,0,0,0-2.252-2.047L10.5,113.584h6.959a4.221,4.221,0,0,0,2.661-.614c.409-.614-.614-2.047-.819-2.252l2.252-.819a3.847,3.847,0,0,1-.2,3.684,2.467,2.467,0,0,1-1.023,1.023,5.518,5.518,0,0,1,1.433,1.637,3.124,3.124,0,0,1-.2,2.661c.614,1.023,2.047,3.275.819,4.708A17.427,17.427,0,0,1,19.1,125.047Z" transform="translate(2.757 60.819)" fill="#915b23"/>
        <path id="Caminho_1136" data-name="Caminho 1136" d="M113.024,34.922c4.3.409,8.6,2.047,10.234,5.936s-2.047,9.62-6.141,9.006c4.912-1.023,10.03-.819,14.123,1.228s6.959,6.755,5.936,11.462c-.819,4.708-6.345,9.006-10.848,7.983A23.414,23.414,0,0,1,138.2,78.111a13.58,13.58,0,0,1,1.433,13.919c-2.252,4.708-8.392,7.778-12.9,5.936,3.07,3.48,5.526,8.392,3.48,13.1-1.842,4.094-6.959,6.55-11.258,6.55-4.5,0-8.392-1.842-12.281-3.684-3.684,8.187-14.737,12.9-22.515,9.416C80.07,121.5,77,115.977,80.07,112.088c-4.5,1.842-9.006,3.889-13.714,4.3s-9.62-1.228-11.872-5.117-.614-10.03,3.889-11.872c-6.345,3.48-14.737,1.433-18.012-4.3s-1.023-14.328,5.117-18.626c-6.755-3.889-9.62-13.1-6.55-20.878a11.64,11.64,0,0,1,5.117-6.141c4.3-2.047,8.6.2,12.281,2.456-2.456-4.5-.409-11.462,4.708-14.328,4.912-2.866,11.667-1.433,14.123,3.275,2.866-3.889,5.936-7.983,10.03-10.439,4.094-2.661,9.62-3.684,13.3-1.023,3.684,2.456,3.889,9.006-.409,11.667C100.743,35.946,107.7,34.308,113.024,34.922Z" transform="translate(31.23 -25.086)" fill="url(#linear-gradient-3)"/>
        <path id="Caminho_1137" data-name="Caminho 1137" d="M91.218,82.981c-1.433,3.889-1.433,8.187-.819,12.9.409,3.275,6.345,4.708,7.778,1.637,1.842-4.3,2.047-10.848,1.228-14.737C98.382,78.682,93.06,78.068,91.218,82.981Z" transform="translate(85.991 28.993)" fill="#201f20"/>
        <circle id="Elipse_420" data-name="Elipse 420" cx="11.462" cy="11.462" r="11.462" transform="translate(132.588 33.784)" fill="#dfa330" stroke="#000" stroke-miterlimit="10" stroke-width="0.75"/>
        <path id="Caminho_1138" data-name="Caminho 1138" d="M86.242,51.249c-.2,1.228-2.252-1.433-5.936-3.07-2.661-1.023-9.006.819-8.6-.409s3.889-5.117,9.62-3.07C85.833,46.541,86.447,50.225,86.242,51.249Z" transform="translate(66.814 -8.049)" fill="#ebc477"/>
        <circle id="Elipse_421" data-name="Elipse 421" cx="11.462" cy="11.462" r="11.462" transform="translate(119.079 40.13)" fill="#dfa330" stroke="#000" stroke-miterlimit="10" stroke-width="0.75"/>
        <path id="Caminho_1139" data-name="Caminho 1139" d="M79.642,54.349c-.2,1.228-2.252-1.433-5.936-3.07-2.661-1.023-9.006.819-8.6-.409.2-1.228,3.889-5.117,9.62-3.07C79.438,49.641,80.052,53.121,79.642,54.349Z" transform="translate(59.905 -4.804)" fill="#ebc477"/>
        <path id="Caminho_1140" data-name="Caminho 1140" d="M73.4,148.3c-4.094-10.848-12.076-24.562-13.714-36.025-5.117-37.457,10.644-58.13,41.756-63.657,23.129-4.094,52.809-5.526,70,13.1,19.445,21.083,23.334,61.2,14.328,87.605-1.023,3.07-9.62,13.1-12.076,15.351-2.252,2.252-6.959-1.023-9.825-2.456Z" transform="translate(53.252 -6.031)" fill="url(#linear-gradient-4)"/>
        <path id="Caminho_1141" data-name="Caminho 1141" d="M126.318,34.9c-4.3.614-8.6,2.252-10.03,6.141s2.252,9.62,6.345,8.8c-4.912-.819-10.03-.614-13.919,1.637-4.094,2.252-6.755,6.959-5.526,11.667,1.023,4.708,6.55,8.8,11.053,7.573-4.5,1.637-9.006,4.094-11.667,7.983a13.574,13.574,0,0,0-1.023,13.919c2.456,4.5,8.6,7.573,13.1,5.526-3.07,3.48-5.322,8.6-3.07,13.3,2.047,4.094,7.164,6.141,11.667,6.141,4.5-.2,8.392-2.047,12.281-4.094,3.889,8.187,15.147,12.486,22.72,8.6,4.094-2.047,6.755-7.573,3.684-11.462,4.5,1.842,9.211,3.48,13.919,3.684s9.62-1.637,11.667-5.526.2-10.03-4.3-11.872c6.55,3.275,14.942,1.023,18.012-4.912s.409-14.328-5.731-18.422c6.755-4.094,9.211-13.3,5.731-21.083a11.583,11.583,0,0,0-5.322-5.936c-4.3-1.842-8.6.614-12.281,2.866,2.456-4.708,0-11.462-5.117-14.123-5.117-2.866-11.667-1.023-13.919,3.684-3.07-3.889-6.345-7.778-10.439-10.234-4.3-2.456-9.62-3.275-13.3-.614-3.48,2.661-3.48,9.211.819,11.667C138.6,35.512,131.64,34.284,126.318,34.9Z" transform="translate(96.536 -26.494)" fill="url(#linear-gradient-5)"/>
        <path id="Caminho_1142" data-name="Caminho 1142" d="M179.555,145.744c-3.07-2.866-8.187-3.275-10.439.409-.2.409-1.433,2.661-1.842,2.661A17.053,17.053,0,0,0,164.2,148c.2,0,1.433-9.211,2.661-20.059a29.4,29.4,0,0,1-5.731-9.006c-2.866-7.164-2.456-27.018-1.228-34.592C145.987,56.5,81.1,43.2,65.75,88.228c-.2.409,6.141,26.2-4.5,32.34-9.415,5.526.2,44.621,34.182,47.9,16.375,1.637,58.949-2.047,68.774-10.439.409-.409,1.023-.2,1.228.409a14.132,14.132,0,0,0,2.661,4.094l.614.614c4.3,2.661,12.69-.614,14.533-5.526C184.877,153.317,182.625,148.61,179.555,145.744Z" transform="translate(52.305 7.372)" fill="#ba7b43"/>
        <path id="Caminho_1143" data-name="Caminho 1143" d="M75.218,80.619c-1.433,3.889-1.433,8.187-.819,12.9.409,3.275,6.345,4.708,7.778,1.637,1.842-4.3,2.047-10.848,1.228-14.737C82.382,76.116,77.06,75.707,75.218,80.619Z" transform="translate(69.242 26.442)" fill="#201f20"/>
        <path id="Caminho_1144" data-name="Caminho 1144" d="M90.618,81.241c-1.433,3.889-1.433,8.187-.819,12.9.409,3.275,6.345,4.708,7.778,1.637,1.842-4.3,2.047-10.848,1.228-14.737C97.782,76.942,92.46,76.533,90.618,81.241Z" transform="translate(85.363 27.254)" fill="#201f20"/>
        <path id="Caminho_1145" data-name="Caminho 1145" d="M123.5,103.486c-2.661-1.637-5.526-1.023-7.778.819a1.7,1.7,0,0,0,.409,2.456,2.213,2.213,0,0,1,1.433,3.07c-.614,1.637-2.456,1.023-3.684.614-.614-.2-1.433.614-1.023,1.228,1.023,3.07,5.526,2.252,7.164,0a5.23,5.23,0,0,0-.409-6.345,3.552,3.552,0,0,1,2.866.614c1.023.819,1.023,2.456,1.228,3.684.2.819,1.433.819,1.842.2C126.57,107.784,125.547,104.919,123.5,103.486Z" transform="translate(109.793 53.11)" fill="#915b23"/>
        <path id="VENTA_8_" d="M93.89,96.313a5.308,5.308,0,0,0-5.936-6.959c-1.023.2-1.842.409-2.866.614h0c.614-.2.409-.2,0,0a7.059,7.059,0,0,0-7.983,4.3c-1.228,3.275.409,7.983,4.094,8.8C86.931,104.3,91.844,101.84,93.89,96.313Z" transform="translate(72.061 39.199)" fill="#774928" opacity="0.6"/>
        <path id="BOCA_18_" d="M89.072,67.937c-1.433.409-1.228,2.456.819,2.456,3.275,0,6.141.409,8.8,2.456,2.252,1.637,2.661,3.684,3.684,5.731.819,1.433,3.275,1.433,3.684,0C107.7,72.031,96.032,65.685,89.072,67.937Z" transform="translate(84.043 16.405)" fill="#201f20"/>
        <path id="BOCA_3_" d="M82.88,66.208c1.637-.2,2.047,1.637.409,2.456-2.866,1.637-5.322,3.07-6.755,6.141-1.228,2.456-.614,4.5-.614,6.755,0,1.637-2.252,2.661-3.275,1.637C67.938,78.284,75.511,67.436,82.88,66.208Z" transform="translate(66.288 15.063)" fill="#201f20"/>
        <g id="Grupo_337" data-name="Grupo 337" transform="translate(141.589 142.468)">
          <path id="Caminho_1146" data-name="Caminho 1146" d="M115.572,98.763c-1.023,5.322-5.322,21.492-30.7,19.445-13.509-1.023-12.076-12.69-11.053-18.217C74.84,94.669,77.092,95.9,84.87,97.33,103.291,101.014,116.6,93.236,115.572,98.763Z" transform="translate(-73.197 -96.098)" fill="#c64832"/>
          <g id="Grupo_335" data-name="Grupo 335" clip-path="url(#clip-path)">
            <path id="Caminho_1147" data-name="Caminho 1147" d="M103.892,104.61c1.228-5.731-8.392-15.147-16.579-16.989S75.851,90.078,74.623,95.6c-1.228,5.731-1.433,13.714,6.755,15.556S102.664,110.137,103.892,104.61Z" transform="translate(-72.366 -105.425)" fill="#fff"/>
          </g>
          <g id="Grupo_336" data-name="Grupo 336" clip-path="url(#clip-path)">
            <path id="Caminho_1149" data-name="Caminho 1149" d="M105.192,118.41c1.228-5.731-8.392-15.147-16.579-16.989s-11.462,2.456-12.69,7.983c-1.228,5.731-1.433,13.714,6.755,15.556C90.864,126.6,104.169,123.937,105.192,118.41Z" transform="translate(-71.005 -90.978)" fill="#c95a56"/>
          </g>
        </g>
        <ellipse id="Elipse_422" data-name="Elipse 422" cx="2.866" cy="4.912" rx="2.866" ry="4.912" transform="translate(142.208 103.582)" fill="#fff"/>
        <ellipse id="Elipse_423" data-name="Elipse 423" cx="1.433" cy="3.07" rx="1.433" ry="3.07" transform="translate(149.167 108.699)" fill="#fff"/>
        <ellipse id="Elipse_424" data-name="Elipse 424" cx="1.433" cy="3.07" rx="1.433" ry="3.07" transform="translate(181.098 110.337)" fill="#fff"/>
        <ellipse id="Elipse_425" data-name="Elipse 425" cx="2.866" cy="4.912" rx="2.866" ry="4.912" transform="translate(174.958 105.219)" fill="#fff"/>
        <g id="ESQUERDA_13_" transform="translate(241.071 278.693)">
          <g id="Grupo_340" data-name="Grupo 340">
            <g id="Grupo_339" data-name="Grupo 339">
              <path id="Caminho_1151" data-name="Caminho 1151" d="M131.42,162.955a63.894,63.894,0,0,0,5.526,8.8,98.967,98.967,0,0,0,8.392,10.03c3.275,3.48,7.164,6.345,9.416,10.644,1.842,3.684-2.252,7.369-5.731,6.141-8.392-2.866-15.556-13.3-20.673-19.854-2.252-3.07-4.5-6.141-6.55-9.415C122.823,165.412,127.531,161.523,131.42,162.955Z" transform="translate(-121.8 -162.652)" fill="#d99156"/>
              <g id="Grupo_338" data-name="Grupo 338" transform="translate(18.407 21.282)">
                <path id="Caminho_1152" data-name="Caminho 1152" d="M170.516,201.4a4.113,4.113,0,0,1,.819,1.637,2.6,2.6,0,0,1-2.047,2.252,4.923,4.923,0,0,1-3.275-.819c-4.708-2.047-10.234-9.62-12.486-7.573-1.433,1.433,2.252,5.936,4.3,9.211a21.694,21.694,0,0,1,2.252,4.3c1.023,2.661-2.866,4.5-4.3,2.252-2.047-3.07-4.3-8.8-6.755-11.462-.614-.819-1.842-.2-1.842.819l.409,10.234c0,1.637-.614,3.48-2.047,3.48-1.228,0-2.047-1.637-2.252-2.866a34.842,34.842,0,0,1-.409-7.983c.2-1.433.2-3.275-1.023-3.889-1.228-.819-3.07.409-3.684,1.842a27.167,27.167,0,0,1-1.842,4.3c-1.023,1.228-3.275,1.433-3.889,0a1.748,1.748,0,0,1,0-1.433c.819-3.889,4.708-7.369,3.07-11.053-1.023-2.661-4.5-3.889-4.708-6.755-.2-2.252,1.842-3.684,3.275-4.912a8.328,8.328,0,0,0,2.866-4.094,4.62,4.62,0,0,1,3.07-3.889c1.842-.819,4.3-2.047,6.345-1.228,1.842.614,2.866,3.684,4.708,4.5,2.456,1.023,3.684-.819,5.526-2.661,1.023-.819,1.842-2.047,3.07-2.456a2.607,2.607,0,0,1,3.275,2.047,8.4,8.4,0,0,1,.2,2.252c-.409,4.912-4.5,5.117-9.211,7.164C157.007,190.756,165.808,195.055,170.516,201.4Z" transform="translate(-130.793 -173.049)" fill="#d99156"/>
              </g>
            </g>
          </g>
          <path id="Caminho_1153" data-name="Caminho 1153" d="M146.462,179.093a12.416,12.416,0,0,1-8.6,0,22.827,22.827,0,0,1,.614,2.661,7.712,7.712,0,0,1-1.637,5.526.392.392,0,0,1-.614-.2,9.984,9.984,0,0,0,.819-4.912,8.86,8.86,0,0,0-1.023-2.456A3.9,3.9,0,0,1,135,177.661v-.409h0a.2.2,0,0,1,.2-.2h.2c.2,0,.2-.2.409,0a1.552,1.552,0,0,1,.819.409,21.594,21.594,0,0,0,3.889,1.023,25.153,25.153,0,0,0,5.526-.409C146.667,177.661,147.076,178.684,146.462,179.093Z" transform="translate(-107.982 -147.677)" fill="#915b23"/>
        </g>
        <path id="DIREITO_12_" d="M95.2,112.913c-.2-3.684,20.059,10.234,22.72,15.556,16.579,31.726,36.229,67.137,61,85.763,1.433,7.778-26.2,20.059-26.2,20.059s-22.311-24.972-25.176-31.726c-9.62-22.515-11.872-33.364-18.626-56.9a23.216,23.216,0,0,1-.819-9.825Z" transform="translate(91.424 63.332)" fill="url(#linear-gradient-6)"/>
      </g>
      <g id="Grupo_344" data-name="Grupo 344" transform="matrix(0.545, -0.839, 0.839, 0.545, 23.618, 167.106)">
        <g id="Grupo_236" data-name="Grupo 236" transform="translate(0 0)" clip-path="url(#clip-path-3)">
          <path id="Caminho_505" data-name="Caminho 505" d="M5.226,83c4.095,2.081,76.732-55,76.732-55S85.648,20.673,79.8,17.67L47.414,1.2C42.08-1.506,38.339.826,36.922,3.622S2.385,71.626.607,75.116,1.131,80.915,5.226,83Zm0,0" transform="translate(16.587 5.703)" fill="#c7cbcb"/>
          <path id="Caminho_506" data-name="Caminho 506" d="M45.129,95.209a6.1,6.1,0,0,1-8.19,2.671L3.332,80.792A6.087,6.087,0,0,1,.661,72.61l35.2-69.281A6.1,6.1,0,0,1,44.051.659l33.607,17.08a6.1,6.1,0,0,1,2.671,8.19Zm0,0" transform="translate(18.223 8.593)" fill="#e3e5e7"/>
        </g>
        <g id="Grupo_343" data-name="Grupo 343" transform="translate(24.801 4.447)">
          <path id="Caminho_508" data-name="Caminho 508" d="M12.682,6.875a.915.915,0,0,1-1.24.347L.516,1.666A.871.871,0,1,1,1.305.116L12.232,5.672a.908.908,0,0,1,.45,1.2Zm0,0" transform="translate(46.114 12.479)" fill="#5a6b73"/>
          <path id="Caminho_507" data-name="Caminho 507" d="M31.534,0,70.313,19.707,38.779,81.75,0,62.035Zm0,0" transform="translate(0 9.29)" fill="#2e414f"/>
          <path id="Caminho_510" data-name="Caminho 510" d="M45.126,95.208a6.087,6.087,0,0,1-8.19,2.671L3.329,80.8a6.1,6.1,0,0,1-2.671-8.19L35.874,3.329A6.087,6.087,0,0,1,44.064.665l33.607,17.08a6.094,6.094,0,0,1,2.671,8.19Zm0,0" transform="translate(0.825 0)" fill="none" stroke="#f3a51f" stroke-miterlimit="10" stroke-width="3" opacity="0.7"/>
        </g>
      </g>
      <g id="Grupo_346" data-name="Grupo 346" transform="translate(32.619 396.363)">
        <g id="Grupo_345" data-name="Grupo 345" transform="translate(0 0)">
          <circle id="Elipse_305" data-name="Elipse 305" cx="41.104" cy="41.104" r="41.104" transform="translate(0 0.015)" fill="#2e414f"/>
          <path id="Caminho_500" data-name="Caminho 500" d="M214.24,379.623a40.919,40.919,0,0,0-6.64-22.363s-2.346,3.431-1.9,5.63,3.025,2.368,2.759,3.984-2.169-.457-4.523,3.8-1.173,10.13,2.213,10.565S214.24,379.623,214.24,379.623Z" transform="translate(-132.033 -338.505)" fill="#35ad8c"/>
          <path id="Caminho_502" data-name="Caminho 502" d="M120.74,345.858a41.015,41.015,0,0,1,30.907-14.018s-2.789,1.69,2.494,4.552,2.863,4.183,1.763,5.069-3.01-1.763-4.257-3.527-6.64-4.478-10.72-3.01-7.629,2.553-7.046,3.918,7.636-1.276,10.278-1.129,1.763,1.763-.738,3.689-2.789,4.257-.14,5.725,5.9,1.616,6.64.738-1.321-6.6,3.689-4.11,9.1,3.962,4.995,7.636-8.9,7.769-9.016,10.123,1.476,4.257.59,4.427-1.69-.959-2.28-1.763-3.3-1.1-4.619-.59-3.822,2.494-2.427,4.427,3.305,1.026,5.216,1.911,3.689,4.228,3.32,4.988-1.992-.2-3.32-2.789-3.829-.878-5.585-1.321-3.077-.738-4.84-3.815-5.408-3.947-6.9-5.725c-4.272-5.1-3.969-8.957-4.847-10.72a36.838,36.838,0,0,0-3.158-4.685Z" transform="translate(-110.543 -331.84)" fill="#35ad8c"/>
          <path id="Caminho_503" data-name="Caminho 503" d="M166.194,388.333s4.427.443,6.6,2.346,2.5,2.649,5.9,3.379,4.847,2.641,2.641,6.316-6.168,9.54-8.072,11.3-4.257,3.232-5.165,6.161-1.181,4.7.738,5.9c0,0-1.026,2.5-3.379-.738s-.435-7.046,0-9.252,1.616-8.8.885-10.418-4.11-2.649-4.995-6.021S162.011,387.322,166.194,388.333Z" transform="translate(-121.129 -346.625)" fill="#35ad8c"/>
          <circle id="Elipse_306" data-name="Elipse 306" cx="41.495" cy="41.495" r="41.495" transform="translate(3.025 1.896)" fill="none" stroke="#f3a51c" stroke-miterlimit="10" stroke-width="3" opacity="0.7"/>
        </g>
        <path id="Caminho_501" data-name="Caminho 501" d="M176.922,333.8a40.978,40.978,0,0,1,13.14,6.257s-4.766-.789-6.574.826-4.427,5.438-6.567,0S176.922,333.8,176.922,333.8Z" transform="translate(-124.312 -332.354)" fill="#4bb29c"/>
        <path id="Caminho_504" data-name="Caminho 504" d="M123.23,343.9a41.108,41.108,0,0,1,58.117,58.154S200,377.394,173.593,351,123.23,343.9,123.23,343.9Z" transform="translate(-110.484 -331.849)" fill="#263845" opacity="0.6"/>
      </g>
    </g>
  </g>
</svg>
