<svg xmlns="http://www.w3.org/2000/svg" width="327.161" height="275.554" viewBox="0 0 327.161 275.554">
  <g id="Grupo_564" data-name="Grupo 564" transform="translate(-922.269 -361.115)">
    <g id="INFOGRÁFICO_3_-_PC_2svg" data-name="INFOGRÁFICO 3 - PC 2svg" transform="translate(888.269 264.605)">
      <path id="Caminho_1051" data-name="Caminho 1051" d="M387.991,283.16c0,63.914-102.268,124.926-166.183,124.926S193.3,348.7,156.537,283.16C125.265,227.419,266.912,151.69,330.826,151.69S387.991,219.246,387.991,283.16Z" transform="translate(-77.09 -36.022)" fill="#3f92cc" opacity="0.2"/>
      <path id="Caminho_1052" data-name="Caminho 1052" d="M704.295,170.06H599.443A13.481,13.481,0,0,0,586,183.5V385.117a13.478,13.478,0,0,0,13.44,13.44H704.291a13.478,13.478,0,0,0,13.44-13.44V183.5A13.481,13.481,0,0,0,704.295,170.06Z" transform="translate(-360.351 -48.014)" fill="#d1d5d5"/>
      <path id="Caminho_1053" data-name="Caminho 1053" d="M712.295,178.56H607.443A13.481,13.481,0,0,0,594,192v201.62a13.478,13.478,0,0,0,13.44,13.44H712.291a13.478,13.478,0,0,0,13.443-13.44V192A13.481,13.481,0,0,0,712.295,178.56Z" transform="translate(-365.573 -53.563)" fill="none" stroke="#1c0a2d" stroke-miterlimit="10" stroke-width="2"/>
      <path id="Caminho_1054" data-name="Caminho 1054" d="M632.133,239.75h94.186a3.819,3.819,0,0,1,3.819,3.819v12.992H628.63v-13.3a3.5,3.5,0,0,1,3.5-3.514Z" transform="translate(-388.18 -93.508)" fill="#2e414f"/>
      <rect id="Retângulo_1548" data-name="Retângulo 1548" width="101.48" height="16.801" transform="translate(240.45 180.516)" fill="#2e414f"/>
      <circle id="Elipse_403" data-name="Elipse 403" cx="12.77" cy="12.77" r="12.77" transform="translate(278.755 272.584)" fill="#2e414f"/>
      <path id="Caminho_1055" data-name="Caminho 1055" d="M263.069,453.454a5.791,5.791,0,0,1-5.791,5.8H39.788a5.788,5.788,0,0,1-5.788-5.8V307.221a5.788,5.788,0,0,1,5.788-5.791h217.49a5.791,5.791,0,0,1,5.791,5.791Z" transform="translate(0 -133.774)" fill="#e3e5e7"/>
      <path id="Caminho_1056" data-name="Caminho 1056" d="M335.086,756H283.126s-1.042,17.359-3.156,21.047h58.272C336.138,773.359,335.086,756,335.086,756Z" transform="translate(-160.572 -430.522)" fill="#d1d5d5"/>
      <path id="Caminho_1057" data-name="Caminho 1057" d="M324.09,818.034a13.015,13.015,0,0,1-4.861-1.444H260.964a13.287,13.287,0,0,1-4.861,1.444c-3.152.4-5.263.66-5.263,2.236h78.521C329.361,818.694,327.25,818.43,324.09,818.034Z" transform="translate(-141.555 -470.075)" fill="#c7cbcb"/>
      <path id="Caminho_1058" data-name="Caminho 1058" d="M257.278,301.43H39.788A5.788,5.788,0,0,0,34,307.221V438.546H263.066V307.221A5.788,5.788,0,0,0,257.278,301.43Zm-3.691,128.891H43.482V309.658H253.587Z" transform="translate(0 -133.774)" fill="#2e414f"/>
      <path id="Caminho_1059" data-name="Caminho 1059" d="M61.31,325.13V445.793H271.416V325.13H61.31Z" transform="translate(-17.828 -149.245)" fill="#4292cc"/>
      <path id="Caminho_1060" data-name="Caminho 1060" d="M340.139,756H288.179s-.156,2.583-.469,5.961h52.9C340.3,758.573,340.139,756,340.139,756Z" transform="translate(-165.624 -430.522)" fill="#c7cbcb"/>
      <circle id="Elipse_404" data-name="Elipse 404" cx="3.764" cy="3.764" r="3.764" transform="translate(144.799 311.841)" fill="#2e414f"/>
      <path id="Caminho_1061" data-name="Caminho 1061" d="M444.556,301.43H404.713L320.88,438.546H450.344V307.221A5.788,5.788,0,0,0,444.556,301.43Z" transform="translate(-187.278 -133.774)" fill="#e3e5e7" opacity="0.16"/>
      <path id="Caminho_1062" data-name="Caminho 1062" d="M269.263,458.874a5.788,5.788,0,0,1-5.788,5.788H45.968a5.788,5.788,0,0,1-5.788-5.788V312.641a5.788,5.788,0,0,1,5.788-5.791h217.49a5.788,5.788,0,0,1,5.805,5.791Z" transform="translate(-4.034 -137.312)" fill="none" stroke="#1c0a2d" stroke-miterlimit="10" stroke-width="2"/>
      <path id="Caminho_1063" data-name="Caminho 1063" d="M341.26,761.39H289.3s-1.042,17.359-3.159,21.047h58.279C342.312,778.753,341.26,761.39,341.26,761.39Z" transform="translate(-164.599 -434.04)" fill="none" stroke="#1c0a2d" stroke-miterlimit="10" stroke-width="2"/>
      <path id="Caminho_1064" data-name="Caminho 1064" d="M330.257,823.451A13.329,13.329,0,0,1,325.4,822H267.117a13.324,13.324,0,0,1-4.861,1.448c-3.152.406-5.256.66-5.256,2.239h78.521C335.521,824.107,333.417,823.844,330.257,823.451Z" transform="translate(-145.577 -473.607)" fill="none" stroke="#1c0a2d" stroke-miterlimit="10" stroke-width="2"/>
      <path id="Caminho_1065" data-name="Caminho 1065" d="M263.458,306.85H45.968a5.788,5.788,0,0,0-5.788,5.791V443.966H269.263V312.641a5.788,5.788,0,0,0-5.805-5.791Zm-3.691,128.891H49.662V315.078H259.767Z" transform="translate(-4.034 -137.312)" fill="none" stroke="#1c0a2d" stroke-miterlimit="10" stroke-width="2"/>
      <path id="Caminho_1066" data-name="Caminho 1066" d="M67.48,330.55V451.212H277.589V330.55H67.48Z" transform="translate(-21.856 -152.784)" fill="none" stroke="#1c0a2d" stroke-miterlimit="10" stroke-width="2"/>
      <path id="Caminho_1067" data-name="Caminho 1067" d="M346.319,761.39H294.359s-.156,2.583-.469,5.965h52.9C346.475,763.973,346.319,761.39,346.319,761.39Z" transform="translate(-169.659 -434.04)" fill="none" stroke="#1c0a2d" stroke-miterlimit="10" stroke-width="2"/>
      <circle id="Elipse_405" data-name="Elipse 405" cx="3.764" cy="3.764" r="3.764" transform="translate(146.944 313.726)" fill="none" stroke="#1c0a2d" stroke-miterlimit="10" stroke-width="2"/>
      <text id="_32_" data-name="32%" transform="translate(92.988 256.747)" fill="#1c0a2d" font-size="55" font-family="Lato-Bold, Lato" font-weight="700"><tspan x="0" y="0">32%</tspan></text>
      <g id="Grupo_328" data-name="Grupo 328" transform="translate(94.897 203.441)" opacity="0.72">
        <text id="_32_2" data-name="32%" transform="translate(0 54)" fill="none" stroke="#f3a51c" stroke-miterlimit="10" stroke-width="1" font-size="55" font-family="Lato-Bold, Lato" font-weight="700"><tspan x="0" y="0">32%</tspan></text>
      </g>
      <circle id="Elipse_406" data-name="Elipse 406" cx="23.078" cy="23.078" r="23.078" transform="translate(196.207 96.513)" fill="#2e414f"/>
      <path id="Caminho_1068" data-name="Caminho 1068" d="M622,139.388a22.953,22.953,0,0,0-3.712-12.558s-1.316,1.923-1.066,3.159,1.7,1.333,1.548,2.239-1.219-.26-2.538,2.128-.66,5.69,1.236,5.937A10.735,10.735,0,0,0,622,139.388Z" transform="translate(-379.637 -19.793)" fill="#35ad8c"/>
      <path id="Caminho_1069" data-name="Caminho 1069" d="M584.129,98.83a22.994,22.994,0,0,1,7.378,3.51s-2.673-.441-3.687.465-2.493,3.052-3.691,0S584.129,98.83,584.129,98.83Z" transform="translate(-358.782 -1.515)" fill="#4bb29c"/>
      <path id="Caminho_1070" data-name="Caminho 1070" d="M517.69,104.374A23.029,23.029,0,0,1,535.05,96.51s-1.566.948,1.389,2.555,1.607,2.35.989,2.843-1.691-.99-2.392-1.976a6.291,6.291,0,0,0-6.01-1.691c-2.312.823-4.284,1.434-3.937,2.2s4.284-.715,5.767-.635.99.989-.41,2.062-1.566,2.389-.083,3.212,3.3.91,3.708.413-.74-3.708,2.062-2.309,5.111,2.229,2.8,4.288-4.944,4.368-5.027,5.687.823,2.392.33,2.472-.948-.535-1.278-.99a3.08,3.08,0,0,0-2.6-.347c-.743.271-2.142,1.389-1.361,2.475s1.854.576,2.927,1.069,2.083,2.378,1.864,2.8-1.118-.111-1.864-1.566-2.149-.493-3.125-.74a3.528,3.528,0,0,1-2.715-2.146c-.979-1.732-3.038-2.215-3.875-3.212-2.4-2.864-2.225-5.031-2.722-6.02a20.915,20.915,0,0,0-1.8-2.587Z" transform="translate(-315.758 0)" fill="#35ad8c"/>
      <path id="Caminho_1071" data-name="Caminho 1071" d="M568.747,163.833a8.082,8.082,0,0,1,3.708,1.316c1.236,1.069,1.389,1.486,3.3,1.9s2.719,1.486,1.482,3.545a43.523,43.523,0,0,1-4.513,6.347c-1.042.989-2.392,1.816-2.885,3.472s-.66,2.639.41,3.3c0,0-.576,1.389-1.9-.413s-.246-3.955,0-5.208.91-4.947.5-5.854-2.309-1.483-2.8-3.378S566.4,163.274,568.747,163.833Z" transform="translate(-347.236 -43.912)" fill="#35ad8c"/>
      <path id="Caminho_1072" data-name="Caminho 1072" d="M520.67,103.29a23.077,23.077,0,1,1,32.636,32.636s10.471-13.846-4.354-28.671S520.67,103.29,520.67,103.29Z" transform="translate(-317.703 -0.013)" fill="#263845" opacity="0.6"/>
      <path id="Caminho_1074" data-name="Caminho 1074" d="M23.3,0A23.3,23.3,0,1,1,0,23.3,23.3,23.3,0,0,1,23.3,0Z" transform="translate(197.912 97.569)" fill="none" stroke="#f3a51c" stroke-width="1" opacity="0.7"/>
      <path id="Caminho_1073" data-name="Caminho 1073" d="M567.252,812.453a2.9,2.9,0,0,1-2.34.476,2.979,2.979,0,0,1-2.344-4l2.639-9.35-9.607-.462a3.194,3.194,0,0,1-1.389-.347,2.875,2.875,0,0,1-1.042-.906,3.1,3.1,0,0,1-.514-2.125,2.4,2.4,0,0,1,.972-1.875,2.969,2.969,0,0,1,2.014-.5l11.11.757,3.177-11.228a2.837,2.837,0,0,1,1.108-1.6,2.868,2.868,0,0,1,2.305-.483,3.069,3.069,0,0,1,2.378,4.01L573,794.413l9.6.281a2.882,2.882,0,0,1,2.528,1.194,2.778,2.778,0,0,1,.507,2.163,2.615,2.615,0,0,1-1.066,1.785,3.021,3.021,0,0,1-2.028.566l-11.013-.774-3.177,11.228a2.837,2.837,0,0,1-1.108,1.6Z" transform="translate(-338.568 -446.676)" fill="none" stroke="#f3a51f" stroke-miterlimit="10" stroke-width="2"/>
    </g>
  </g>
</svg>
