<svg xmlns="http://www.w3.org/2000/svg" xmlns:xlink="http://www.w3.org/1999/xlink" width="578.476" height="543.164" viewBox="0 0 578.476 543.164">
  <defs>
    <linearGradient id="linear-gradient" x1="-0.261" y1="0.668" x2="0.185" y2="1.106" gradientUnits="objectBoundingBox">
      <stop offset="0" stop-color="#502e25"/>
      <stop offset="1" stop-color="#201310"/>
    </linearGradient>
    <linearGradient id="linear-gradient-2" x1="2.924" y1="2.944" x2="3.872" y2="2.944" xlink:href="#linear-gradient"/>
    <linearGradient id="linear-gradient-3" x1="5.737" y1="0.925" x2="6.198" y2="1.37" xlink:href="#linear-gradient"/>
    <linearGradient id="linear-gradient-4" x1="-0.001" y1="0.5" x2="0.996" y2="0.5" gradientUnits="objectBoundingBox">
      <stop offset="0" stop-color="#fff"/>
      <stop offset="0" stop-color="#6191c9"/>
      <stop offset="1" stop-color="#446a96"/>
    </linearGradient>
    <linearGradient id="linear-gradient-5" x1="0" y1="0.5" x2="0.999" y2="0.5" xlink:href="#linear-gradient-4"/>
  </defs>
  <g id="Grupo_553" data-name="Grupo 553" transform="translate(-788 -166.321)">
    <path id="Caminho_246" data-name="Caminho 246" d="M1279,0" transform="translate(9.5 255.5)" fill="none" stroke="#727272" stroke-width="1"/>
    <path id="Caminho_245" data-name="Caminho 245" d="M1279,0" transform="translate(9.5 255.5)" fill="none" stroke="#727272" stroke-width="1"/>
    <g id="Grupo_287" data-name="Grupo 287" transform="translate(976.872 137.167)">
      <g id="Grupo_262" data-name="Grupo 262" transform="translate(27.984 158.376)">
        <path id="Caminho_482" data-name="Caminho 482" d="M575.846,330.893c0,93.132-135.05,104.089-228.182,104.089s-217,47.641-217-45.485S191.989,128.53,285.121,128.53,575.846,237.755,575.846,330.893Z" transform="translate(534.357 287.065) rotate(155)" fill="#b0e8dc"/>
        <path id="Caminho_531" data-name="Caminho 531" d="M21.952,31.558a2.981,2.981,0,0,1-1.839,1.633,3.065,3.065,0,0,1-4.157-2.363l-2.457-9.7L4.684,25.663a3.343,3.343,0,0,1-1.426.412,3,3,0,0,1-1.4-.268A3.209,3.209,0,0,1,.3,24.175,2.491,2.491,0,0,1,.2,22,3.076,3.076,0,0,1,1.747,20.52l10.314-5.06L9.113,3.809a2.919,2.919,0,0,1,.167-1.995A2.959,2.959,0,0,1,11.086.192a3.165,3.165,0,0,1,4.19,2.351L17.795,12.5,26.5,7.8a2.975,2.975,0,0,1,2.875-.234,2.881,2.881,0,0,1,1.566,1.672,2.686,2.686,0,0,1-.033,2.14A3.121,3.121,0,0,1,29.4,12.936l-10.225,5,2.948,11.651A2.92,2.92,0,0,1,21.952,31.558Z" transform="translate(270.707 22.426) rotate(49)" fill="none" stroke="#1c0a2d" stroke-miterlimit="10" stroke-width="2"/>
        <path id="Caminho_698" data-name="Caminho 698" d="M136.283,633.073a4.559,4.559,0,0,1-2.812,2.5,4.686,4.686,0,0,1-6.357-3.613l-3.758-14.835-13.48,6.936a5.112,5.112,0,0,1-2.181.631,4.592,4.592,0,0,1-2.139-.409,4.908,4.908,0,0,1-2.377-2.5,3.809,3.809,0,0,1-.153-3.332,4.7,4.7,0,0,1,2.36-2.258l15.772-7.737-4.508-17.817a4.465,4.465,0,0,1,.256-3.05,4.525,4.525,0,0,1,2.761-2.48,4.84,4.84,0,0,1,6.408,3.6l3.851,15.227,13.318-7.183a4.55,4.55,0,0,1,4.4-.358,4.406,4.406,0,0,1,2.394,2.556,4.107,4.107,0,0,1-.051,3.272,4.772,4.772,0,0,1-2.318,2.377l-15.636,7.643,4.508,17.817A4.465,4.465,0,0,1,136.283,633.073Z" transform="translate(136.385 -360.991)" fill="none" stroke="#dfa330" stroke-miterlimit="10" stroke-width="2"/>
        <g id="Grupo_260" data-name="Grupo 260" transform="translate(10.144 287.048)">
          <circle id="Elipse_317" data-name="Elipse 317" cx="12.972" cy="12.972" r="12.972" transform="translate(0 0)" fill="#4292cc"/>
          <circle id="Elipse_318" data-name="Elipse 318" cx="12.972" cy="12.972" r="12.972" transform="translate(2.193 2.203)" fill="none" stroke="#1c0a2d" stroke-miterlimit="10" stroke-width="2"/>
        </g>
        <path id="Caminho_699" data-name="Caminho 699" d="M166.816,75.738c-19.991,42.554-57.228,17.369-98.279,17.369S0,109.586,0,68.537,92.142,0,133.194,0,186.807,33.183,166.816,75.738Z" transform="matrix(-0.921, -0.391, 0.391, -0.921, -54.714, 339.342)" fill="#4292cc" opacity="0.29"/>
      </g>
      <g id="tela1-2" transform="translate(86.937 109)">
        <g id="ESQUERDA_9_" transform="translate(134.957 215.89)">
          <g id="Grupo_266" data-name="Grupo 266">
            <g id="Grupo_265" data-name="Grupo 265">
              <path id="Caminho_700" data-name="Caminho 700" d="M109.1,149.629a45.6,45.6,0,0,1-1.648,8.238,102.394,102.394,0,0,1-3.3,10.051c-1.318,3.625-3.46,6.92-3.954,10.71-.33,3.3,3.79,4.943,6.1,2.966,5.437-4.449,7.744-14.5,9.721-20.926.824-2.966,1.648-5.932,2.307-8.9C116.19,148.97,111.576,147.323,109.1,149.629Z" transform="translate(-85.192 -148.537)" fill="#d99156"/>
              <g id="Grupo_264" data-name="Grupo 264" transform="translate(0 22.677)">
                <path id="Caminho_701" data-name="Caminho 701" d="M92.921,191.793a4.1,4.1,0,0,0-.165,1.318,1.714,1.714,0,0,0,2.142.989,3.92,3.92,0,0,0,2.142-1.483c2.8-2.966,4.943-10.216,7.085-9.392,1.483.659.165,5.108-.494,8.074a16.25,16.25,0,0,0-.494,3.954,2.022,2.022,0,0,0,3.954.494c.659-2.966.659-7.744,1.812-10.545a.888.888,0,0,1,1.648,0l2.636,7.909c.494,1.153,1.483,2.472,2.636,1.977.989-.33.989-1.812.824-2.8a26.815,26.815,0,0,0-2.142-6.1c-.494-.989-1.153-2.307-.33-3.3s2.472-.659,3.3.165c.989.824,1.648,1.977,2.636,2.636,1.153.659,2.966.165,2.966-1.153a3.055,3.055,0,0,0-.33-1.153c-1.648-2.636-5.6-4.284-5.6-7.415,0-2.307.824-3.954.165-6.1-.494-1.812-.989-2.636-2.472-3.3a7.162,7.162,0,0,1-3.46-2.307c-.989-1.318-1.648-1.977-3.3-1.977a6.211,6.211,0,0,0-4.119,1.812c-1.153.989-2.142,2.636-3.3,3.79-1.483,1.483-2.966.494-4.778-.33a5.084,5.084,0,0,0-2.966-.824,2.12,2.12,0,0,0-1.812,2.472,4.934,4.934,0,0,0,.659,1.648c1.648,3.625,4.778,2.472,9.062,2.636C100.006,179.93,94.733,185.7,92.921,191.793Z" transform="translate(-91.087 -162.3)" fill="#d99156"/>
              </g>
            </g>
          </g>
        </g>
        <g id="Grupo_267" data-name="Grupo 267" transform="translate(114.546 285.361)">
          <path id="Caminho_702" data-name="Caminho 702" d="M103.086,190.7c0,28.34.33,73.322-3.954,96.389h-5.6C89.08,256.442,83.808,222.665,78.7,190.7Z" transform="translate(-78.7 -190.7)" fill="#d99156"/>
          <path id="Caminho_703" data-name="Caminho 703" d="M89.743,250.465,84.8,258.044l17.96-1.318L95.016,250.3Z" transform="translate(-74.749 -152.098)" fill="#e6b54a"/>
        </g>
        <g id="Grupo_268" data-name="Grupo 268" transform="translate(69.73 284.372)">
          <path id="Caminho_704" data-name="Caminho 704" d="M75.886,192.077c-2.307,28.175-5.932,73.157-12.028,95.73-1.812-.165-3.79-.33-5.6-.494-1.977-30.976-4.449-64.919-6.755-97.213Z" transform="translate(-51.5 -190.1)" fill="#d99156"/>
          <path id="Caminho_705" data-name="Caminho 705" d="M57.8,250.4l-5.6,6.92,17.96.33-7.085-7.085Z" transform="translate(-51.047 -151.045)" fill="#e6b54a"/>
        </g>
        <path id="Caminho_706" data-name="Caminho 706" d="M69.033,31.827c3.46-.33,7.085.33,8.9,3.131s-.165,7.909-3.46,8.074a18.159,18.159,0,0,1,11.369-1.153,8.8,8.8,0,0,1,6.426,8.238c0,3.954-3.625,8.074-7.415,7.909,3.954.494,7.744,1.648,10.545,4.284a10.924,10.924,0,0,1,3.131,10.875c-1.153,3.954-5.437,7.415-9.227,6.591,2.966,2.307,5.6,5.932,4.613,9.886-.824,3.625-4.449,6.1-8.074,6.755s-7.085-.165-10.38-.989c-1.648,7.085-9.721,12.358-16.312,10.71-3.625-.824-6.591-4.778-4.778-8.238-3.3,2.142-6.591,4.449-10.216,5.273-3.625.989-7.744.494-10.051-2.307C31.8,98.228,32.29,92.956,35.42,90.814c-4.613,3.625-11.534,3.3-14.994-.824s-2.8-11.2,1.318-15.488c-5.932-1.977-9.557-8.9-8.238-15.488a10.006,10.006,0,0,1,3.131-5.6c2.966-2.142,6.92-.989,10.051.165-2.636-3.3-1.977-9.062,1.648-12.028,3.46-2.966,9.062-2.8,11.534.494,1.812-3.46,3.625-7.085,6.426-9.721s7.085-4.284,10.38-2.8a5.856,5.856,0,0,1,1.483,9.227C59.312,34.463,64.584,32.156,69.033,31.827Z" transform="translate(-6.553 -10.094)" fill="url(#linear-gradient)"/>
        <circle id="Elipse_344" data-name="Elipse 344" cx="9.227" cy="9.227" r="9.227" transform="translate(47.486 47.436)" fill="#dfa330" stroke="#000" stroke-miterlimit="10" stroke-width="0.75"/>
        <path id="Caminho_707" data-name="Caminho 707" d="M52.428,51.88c0,.989-1.977-.824-5.108-1.483-2.307-.494-6.92,1.977-6.92.989s2.307-4.613,7.085-3.954C51.6,48.09,52.593,50.891,52.428,51.88Z" transform="translate(11.04 1.817)" fill="#ebc477"/>
        <circle id="Elipse_345" data-name="Elipse 345" cx="9.227" cy="9.227" r="9.227" transform="translate(57.207 40.351)" fill="#dfa330" stroke="#000" stroke-miterlimit="10" stroke-width="0.75"/>
        <path id="Caminho_708" data-name="Caminho 708" d="M58.328,47.58c0,.989-1.977-.824-5.108-1.483-2.307-.494-6.92,1.977-6.92.989s2.307-4.613,7.085-3.954C57.339,43.955,58.493,46.756,58.328,47.58Z" transform="translate(14.862 -0.968)" fill="#ebc477"/>
        <path id="Caminho_709" data-name="Caminho 709" d="M72,78.231c-.659,3.3,0,6.755,1.153,10.38.824,2.472,5.767,2.8,6.426.33a23.476,23.476,0,0,0-1.153-11.863C76.946,73.782,72.662,74.111,72,78.231Z" transform="translate(31.339 19.625)" fill="#201f20"/>
        <path id="Caminho_710" data-name="Caminho 710" d="M58.088,131.459c-4.778-8.074-13.181-17.63-16.147-26.528-9.557-29,0-47.618,23.727-56.515,17.63-6.591,41.027-12.193,57.339.165,18.454,13.84,27.351,44.982,24.056,67.39-.33,2.636-5.767,11.7-7.25,13.841s-5.6.165-8.074-.494Z" transform="translate(9.664 -2.133)" fill="url(#linear-gradient-2)"/>
        <path id="Caminho_711" data-name="Caminho 711" d="M90.465,26.885c-3.3.989-6.426,3.131-7.085,6.426-.494,3.3,3.131,7.25,6.426,6.1-3.954.165-7.909.989-10.875,3.46a8.939,8.939,0,0,0-2.8,10.051c1.483,3.625,6.426,6.1,9.886,4.284a19.082,19.082,0,0,0-8.074,8.074,11.088,11.088,0,0,0,1.318,11.2c2.636,3.3,7.909,4.613,11.039,2.472-1.977,3.3-2.966,7.579-.494,10.875,2.142,2.966,6.591,3.954,10.051,3.131s6.261-2.966,9.062-4.943c4.284,5.932,13.841,7.579,19.278,3.625,2.966-2.142,4.284-6.92,1.318-9.557,3.79.659,7.744,1.483,11.534.989s7.415-2.636,8.4-6.1-1.318-7.909-5.108-8.733c5.6,1.648,11.863-1.483,13.511-6.591s-1.812-11.534-7.25-13.84c4.778-4.119,5.437-11.863,1.483-17.465a9.451,9.451,0,0,0-5.108-3.954c-3.625-.824-6.755,1.648-9.227,4.119,1.153-3.954-1.648-9.062-6.1-10.545s-9.392.989-10.545,4.943c-2.966-2.472-6.1-5.108-9.721-6.591-3.625-1.318-8.238-1.153-10.545,1.483a5.757,5.757,0,0,0,2.307,9.062C100.351,25.567,94.749,25.4,90.465,26.885Z" transform="translate(33.803 -17.51)" fill="url(#linear-gradient-3)"/>
        <path id="Caminho_712" data-name="Caminho 712" d="M140.671,115.226c-2.8-1.812-6.92-1.318-8.238,1.812-.165.33-.659,2.307-.989,2.307a6.909,6.909,0,0,0-2.636-.165c.165,0-.33-7.415-.824-16.147a20.966,20.966,0,0,1-5.767-6.261c-3.3-5.273-5.932-21.09-5.932-27.187C101.127,49.649,47.907,48.5,42.3,86.227c0,.33,8.568,19.772,1.153,26.2-6.591,5.767,6.591,35.26,34.107,32.789,13.181-1.153,46.465-10.216,52.89-18.124.33-.33.824-.33.989.165a7.614,7.614,0,0,0,2.8,2.8,1.249,1.249,0,0,0,.659.33c3.79,1.483,9.886-2.307,10.71-6.426C145.944,120.334,143.307,116.874,140.671,115.226Z" transform="translate(11.937 7.344)" fill="#ba7b43"/>
        <path id="Caminho_713" data-name="Caminho 713" d="M54.7,81.731c-.659,3.3,0,6.755,1.153,10.38.824,2.472,5.767,2.8,6.426.33a23.476,23.476,0,0,0-1.153-11.863C59.646,77.282,55.362,77.611,54.7,81.731Z" transform="translate(20.134 21.892)" fill="#201f20"/>
        <path id="Caminho_714" data-name="Caminho 714" d="M70.9,79.909c-.659,3.3,0,6.755,1.153,10.38.824,2.472,5.767,2.8,6.426.33a23.476,23.476,0,0,0-1.153-11.863C76.011,75.46,71.727,75.955,70.9,79.909Z" transform="translate(30.627 20.747)" fill="#201f20"/>
        <path id="Caminho_715" data-name="Caminho 715" d="M105.592,93.554c-2.307-.989-4.449,0-6.1,1.812a1.169,1.169,0,0,0,.659,1.812,1.889,1.889,0,0,1,1.648,2.142c-.33,1.318-1.812,1.153-2.8,1.153a.792.792,0,0,0-.659,1.153c1.318,2.307,4.778.989,5.767-.989a4.087,4.087,0,0,0-1.318-4.943,2.323,2.323,0,0,1,2.307.165c.989.494,1.153,1.812,1.483,2.8a.808.808,0,0,0,1.483-.165A4.245,4.245,0,0,0,105.592,93.554Z" transform="translate(48.499 31.488)" fill="#915b23"/>
        <path id="VENTA_4_" d="M74.005,91.182A4.384,4.384,0,0,0,68.239,86.4c-.824.33-1.483.494-2.142.824h0c.494-.33.165-.165,0,0a5.818,5.818,0,0,0-5.767,4.614c-.494,2.8,1.483,6.1,4.449,6.426A8.314,8.314,0,0,0,74.005,91.182Z" transform="translate(23.899 26.939)" fill="#774928" opacity="0.6"/>
        <g id="ROUPA_4_" transform="translate(61.326 153.811)">
          <path id="Caminho_716" data-name="Caminho 716" d="M127.1,159.9c4.943,9.062-6.261,128.519-5.273,133.627-8.074,1.812-5.437.329-13.676,2.307-2.472-7.415-17.465-73.157-20.431-80.9l-2.636-.165c-.494,0,0,.824-.165,1.318-4.943,14.335-11.863,68.379-16.806,80.9-6.1-1.318-8.733.165-14.829-1.153.989-27.187-4.943-89.634-1.318-116.656Z" transform="translate(-43.563 -79.099)" fill="#dde3e8"/>
          <g id="FRENTE_4_">
            <path id="Caminho_717" data-name="Caminho 717" d="M66.3,114.677c.33-.659.494-1.318.824-1.977A5.5,5.5,0,0,1,66.3,114.677Z" transform="translate(-33.511 -109.669)" fill="#6191c9"/>
            <path id="Caminho_718" data-name="Caminho 718" d="M82.4,112.7" transform="translate(-23.084 -109.669)" fill="#6191c9"/>
            <path id="Caminho_719" data-name="Caminho 719" d="M66.9,113.312c.33-.659.494-1.153.824-1.812A8.831,8.831,0,0,1,66.9,113.312Z" transform="translate(-33.123 -110.446)" fill="#6191c9"/>
            <path id="Caminho_720" data-name="Caminho 720" d="M67.5,111.5Z" transform="translate(-32.734 -110.446)" fill="#6191c9"/>
            <path id="Caminho_721" data-name="Caminho 721" d="M66.8,112.93c0-.165.165-.165.165-.33C66.965,112.765,66.965,112.765,66.8,112.93Z" transform="translate(-33.187 -109.734)" fill="#6191c9"/>
            <path id="Caminho_722" data-name="Caminho 722" d="M81.8,111.6" transform="translate(-23.472 -110.382)" fill="#6191c9"/>
            <path id="Caminho_723" data-name="Caminho 723" d="M80.507,114.221c.989-1.648.494-2.8,2.307-2.966,5.932-.494,18.454-.494,18.784-.165,0,.165,1.648.659,1.812.824.33.33,0,.33.33.824a4.811,4.811,0,0,0,.33,1.483c.33.494,1.812.33,2.472.33,10.875,2.8,29,92.929,39.709,127.53-23.891,12.193-78.265,8.074-99.849-.494,7.25-29.164,6.755-115.832,33.118-125.718Z" transform="translate(-46.4 -110.861)" fill="#6191c9"/>
          </g>
        </g>
        <g id="ESQUERDA_8_" transform="translate(0 139.212)">
          <g id="Grupo_271" data-name="Grupo 271">
            <g id="Grupo_270" data-name="Grupo 270">
              <path id="Caminho_724" data-name="Caminho 724" d="M47.1,132.542c-2.472-1.318-4.943-2.8-7.25-4.284a80.187,80.187,0,0,1-8.238-6.591c-2.966-2.472-5.273-5.6-8.733-7.25-2.966-1.318-5.932,1.977-4.778,4.778,2.472,6.591,10.875,12.193,16.477,16.147,2.472,1.812,5.108,3.46,7.744,5.108C45.287,139.462,48.417,135.673,47.1,132.542Z" transform="translate(-3.568 -94.151)" fill="#d99156"/>
              <g id="Grupo_269" data-name="Grupo 269">
                <path id="Caminho_725" data-name="Caminho 725" d="M12.179,102.494A1.871,1.871,0,0,0,10.861,102a1.8,1.8,0,0,0-1.648,1.812,5.217,5.217,0,0,0,.659,2.636c1.812,3.625,7.909,8.074,6.426,9.886-1.977-.989-7.415-.824-3.79,4.778,0,.165-3.3.33-2.8,3.131.33,1.812-.165,1.977.989,3.625.33.33.659,3.131,1.648,3.79,1.648.824,3.131.824,5.108,1.483,2.142.824,4.943.659,7.085.824,1.812,0,2.472-.824,3.46-2.142a7.02,7.02,0,0,1,3.3-2.472c1.483-.494,2.307-.824,2.966-2.471a6.032,6.032,0,0,0-.33-4.449c-.659-1.483-1.153-3.46-1.812-4.943-.824-1.812-3.79-8.238-8.733-4.613C17.781,109.909,17.286,106.119,12.179,102.494Z" transform="translate(-9.18 -102)" fill="#d99156"/>
              </g>
            </g>
          </g>
        </g>
        <path id="DIREITO_8_" d="M76.814,141.6S72.53,157.419,52.429,156.76c-17.795-.494-19.772-3.3-29.329-3.3C26.066,149.51,34.3,127.6,34.3,127.6s15.488,10.545,21.914,11.534c11.534,1.977,27.022-18.124,39.215-26.033,4.449-2.966-2.142,3.3-10.71,10.545C81.428,127.925,76.814,141.6,76.814,141.6Z" transform="translate(-0.165 43.911)" fill="url(#linear-gradient-4)"/>
        <path id="DIREITO_9_" d="M81.3,112.9c3.131,0,14.994,4.614,18.948,7.579,10.216,8.074,25.539,19.278,33.283,31.965,9.227,15.159,7.909,32.624,6.261,40.368-1.812,2.472-28.175-6.261-28.175-6.261s11.369-24.221,8.238-29.823c-5.6-10.38-10.051-12.522-23.562-17.63-2.636-.989-5.273-6.92-5.932-9.227Z" transform="translate(37.53 44.272)" fill="url(#linear-gradient-5)"/>
        <path id="GOLA_5_" d="M91.409,114.56c0,2.307-4.943,4.614-12.028,4.614S66.2,116.867,66.2,114.56c0-.824,2.472-3.46,3.79-3.46.659,0-.33,2.142,1.153,2.472a41.927,41.927,0,0,0,8.568.824c2.8,0,5.6,0,7.579-.659,1.648-.659.494-2.307.989-2.472C90.915,110.606,91.409,113.572,91.409,114.56Z" transform="translate(27.75 43.106)" fill="#db9600"/>
        <path id="PESCOÇO_4_" d="M83.428,106.9c-1.318.33-7.744,1.812-10.545,2.636a39.033,39.033,0,0,1-1.483,7.085,55.15,55.15,0,0,0,11.2.33S82.934,111.843,83.428,106.9Z" transform="translate(31.118 40.386)" fill="#915b23"/>
        <path id="BOCA_15_" d="M69.047,69.5c-1.153.659-.659,2.142.989,1.812,2.636-.33,4.943-.494,7.25.659,1.977.989,2.636,2.636,3.625,4.119.824.989,2.8.659,2.966-.494C84.535,69.994,74.32,66.7,69.047,69.5Z" transform="translate(29.187 15.504)" fill="#201f20"/>
        <path id="Caminho_726" data-name="Caminho 726" d="M26.483,124.777c-.33,0-1.483.659-4.449-.824-1.318-.659-1.977-2.636-1.153-5.932a5.949,5.949,0,0,1-2.966.494c-.494,0-3.954-.989-4.119-1.483-.824-1.483.659-3.954,1.153-4.449a26.649,26.649,0,0,1,4.119-3.131l1.812-1.153a45.4,45.4,0,0,0-4.943,4.778,5.452,5.452,0,0,0-.494,3.131,15.026,15.026,0,0,0,2.636.989c3.46,1.153,4.943-3.46,5.6-3.131.494.33-2.636,6.261-1.648,7.744C22.694,123.294,23.023,124.282,26.483,124.777Z" transform="translate(-6.349 41.292)" fill="#915b23"/>
        <path id="BOCA_9_" d="M62.571,68.71c1.318.165,1.318,1.648-.165,1.977-2.636.659-4.778,1.318-6.591,3.3C54.333,75.63,54.5,77.442,54,79.09c-.33,1.318-2.307,1.648-2.8.659C48.566,75.3,56.639,68.215,62.571,68.71Z" transform="translate(17.704 15.635)" fill="#201f20"/>
        <path id="Caminho_727" data-name="Caminho 727" d="M14.525,124.969l.989-.165A2.818,2.818,0,0,0,17,123.816c.659-.659.33-2.142,0-2.636-.659-.824-6.1-1.812-6.1-1.812l6.591.824c.494-.33.989-.824.989-.989a3.7,3.7,0,0,0-.989-2.307l-5.6-3.3L17,115.907a3.859,3.859,0,0,0,2.142.33c.494-.33.165-1.812.165-1.977l1.977.165a3.355,3.355,0,0,1-1.318,2.636c-.33.33-.659.33-1.153.494A2.784,2.784,0,0,1,19.3,119.2a2.3,2.3,0,0,1-1.153,1.812c.165.989.494,2.966-.989,3.625C16.337,125.3,14.854,124.969,14.525,124.969Z" transform="translate(-8.066 44.725)" fill="#915b23"/>
        <path id="Caminho_728" data-name="Caminho 728" d="M68.791,108.681a38.4,38.4,0,0,1-6.591-.494s22.079-1.153,27.187-14.829a2.669,2.669,0,0,1,2.8-1.648h0A2.39,2.39,0,0,1,94,94.84C90.046,105.715,78.182,108.681,68.791,108.681Z" transform="translate(25.16 30.531)" fill="#915b23"/>
      </g>
    </g>
    <path id="Caminho_863" data-name="Caminho 863" d="M152.577,656.5a6.771,6.771,0,0,1-4.177,3.708,6.961,6.961,0,0,1-9.442-5.366L133.377,632.8l-20.023,10.3a7.6,7.6,0,0,1-3.24.937,6.821,6.821,0,0,1-3.177-.608,7.29,7.29,0,0,1-3.531-3.708,5.658,5.658,0,0,1-.228-4.949,6.987,6.987,0,0,1,3.506-3.354l23.428-11.493-6.7-26.466a6.632,6.632,0,0,1,.38-4.531,6.721,6.721,0,0,1,4.1-3.683,7.189,7.189,0,0,1,9.518,5.341l5.721,22.618,19.783-10.67a6.759,6.759,0,0,1,6.531-.532,6.544,6.544,0,0,1,3.557,3.8,6.1,6.1,0,0,1-.076,4.86,7.089,7.089,0,0,1-3.443,3.531l-23.225,11.353,6.7,26.466A6.632,6.632,0,0,1,152.577,656.5Z" transform="translate(1326.248 -125.702) rotate(49)" fill="none" stroke="#1c0a2d" stroke-miterlimit="10" stroke-width="2"/>
    <g id="Grupo_291" data-name="Grupo 291" transform="translate(999.654 -162.384)">
      <circle id="Elipse_317-2" data-name="Elipse 317" cx="27.201" cy="27.201" r="27.201" transform="translate(264.346 328.705)" fill="#35ad8c"/>
      <circle id="Elipse_318-2" data-name="Elipse 318" cx="27.201" cy="27.201" r="27.201" transform="translate(268.945 333.324)" fill="none" stroke="#1c0a2d" stroke-miterlimit="10" stroke-width="2"/>
    </g>
    <g id="Grupo_293" data-name="Grupo 293" transform="matrix(0.966, -0.259, 0.259, 0.966, 447.746, 235.664)">
      <circle id="Elipse_317-3" data-name="Elipse 317" cx="46.237" cy="46.237" r="46.237" transform="translate(264.346 328.705)" fill="#35ad8c"/>
      <circle id="Elipse_318-3" data-name="Elipse 318" cx="46.237" cy="46.237" r="46.237" transform="translate(272.164 336.557)" fill="none" stroke="#1c0a2d" stroke-miterlimit="10" stroke-width="2"/>
    </g>
  </g>
</svg>
