<svg xmlns="http://www.w3.org/2000/svg" xmlns:xlink="http://www.w3.org/1999/xlink" width="734.76" height="533.385" viewBox="0 0 734.76 533.385">
  <defs>
    <linearGradient id="linear-gradient" y1="0.5" x2="1" y2="0.5" gradientUnits="objectBoundingBox">
      <stop offset="0" stop-color="#fff"/>
      <stop offset="0" stop-color="#4292cc"/>
      <stop offset="1" stop-color="#256b99"/>
    </linearGradient>
    <linearGradient id="linear-gradient-2" x1="1.261" y1="0.668" x2="0.815" y2="1.106" gradientUnits="objectBoundingBox">
      <stop offset="0" stop-color="#502e25"/>
      <stop offset="1" stop-color="#201310"/>
    </linearGradient>
    <linearGradient id="linear-gradient-3" x1="-1.924" y1="2.944" x2="-2.872" y2="2.944" xlink:href="#linear-gradient-2"/>
    <linearGradient id="linear-gradient-4" x1="-4.737" y1="0.925" x2="-5.198" y2="1.37" xlink:href="#linear-gradient-2"/>
    <linearGradient id="linear-gradient-5" x1="1.001" y1="0.5" x2="0.004" y2="0.5" gradientUnits="objectBoundingBox">
      <stop offset="0" stop-color="#fff"/>
      <stop offset="0" stop-color="#6191c9"/>
      <stop offset="1" stop-color="#446a96"/>
    </linearGradient>
    <linearGradient id="linear-gradient-6" x1="1" y1="0.5" x2="0.001" y2="0.5" xlink:href="#linear-gradient-5"/>
  </defs>
  <g id="Grupo_361" data-name="Grupo 361" transform="translate(-209.24 -82.371)">
    <path id="Caminho_499" data-name="Caminho 499" d="M156.192,478.49c21.139-19.491,10.641-18.46-8.842-39.606s-33.541-80.521-54.679-61-48.4,44.949-28.875,66.1S135.053,497.973,156.192,478.49Z" transform="translate(875.41 528.949) rotate(163)" fill="#35ad8c" opacity="0.55"/>
    <g id="Grupo_359" data-name="Grupo 359" transform="translate(12.26 -48.323)">
      <g id="Grupo_358" data-name="Grupo 358" transform="translate(349.497 292.419)">
        <g id="Grupo_357" data-name="Grupo 357">
          <circle id="Elipse_305" data-name="Elipse 305" cx="57.091" cy="57.091" r="57.091" transform="translate(0 0.021)" fill="#2e414f"/>
          <g id="Grupo_356" data-name="Grupo 356" transform="translate(4.202)">
            <g id="Grupo_355" data-name="Grupo 355">
              <path id="Caminho_500" data-name="Caminho 500" d="M218.728,388.322A56.835,56.835,0,0,0,209.5,357.26s-3.259,4.765-2.644,7.819,4.2,3.29,3.833,5.534-3.013-.635-6.282,5.278-1.629,14.07,3.074,14.675S218.728,388.322,218.728,388.322Z" transform="translate(-108.747 -331.21)" fill="#35ad8c"/>
              <path id="Caminho_502" data-name="Caminho 502" d="M120.74,351.311a56.968,56.968,0,0,1,42.929-19.471s-3.874,2.347,3.464,6.323,3.976,5.811,2.449,7.04-4.181-2.449-5.913-4.9-9.223-6.22-14.89-4.181-10.6,3.546-9.787,5.442S149.6,339.792,153.267,340s2.449,2.449-1.025,5.124-3.874,5.913-.195,7.952,8.2,2.244,9.223,1.025-1.834-9.172,5.124-5.708,12.646,5.5,6.938,10.607-12.359,10.791-12.523,14.06,2.05,5.913.82,6.149-2.347-1.332-3.167-2.449-4.581-1.527-6.415-.82-5.308,3.464-3.372,6.149,4.591,1.424,7.245,2.654,5.124,5.872,4.612,6.928-2.767-.277-4.612-3.874-5.319-1.22-7.758-1.834-4.273-1.025-6.723-5.3-7.512-5.483-9.582-7.952c-5.934-7.081-5.513-12.441-6.733-14.89a51.166,51.166,0,0,0-4.386-6.507Z" transform="translate(-110.779 -331.84)" fill="#35ad8c"/>
              <path id="Caminho_504" data-name="Caminho 504" d="M123.23,348.584a57.1,57.1,0,0,1,80.723,80.774s25.907-34.259-10.771-70.926S123.23,348.584,123.23,348.584Z" transform="translate(-110.717 -331.839)" fill="#263845" opacity="0.6"/>
              <circle id="Elipse_306" data-name="Elipse 306" cx="57.634" cy="57.634" r="57.634" transform="translate(0 2.634)" fill="none" stroke="#f3a51c" stroke-miterlimit="10" stroke-width="3" opacity="0.7"/>
            </g>
          </g>
        </g>
        <path id="Caminho_503" data-name="Caminho 503" d="M168.171,388.373s6.149.615,9.172,3.259,3.474,3.679,8.2,4.694,6.733,3.669,3.669,8.772S180.642,418.349,178,420.8s-5.913,4.489-7.174,8.557-1.64,6.528,1.025,8.2c0,0-1.424,3.474-4.694-1.025s-.6-9.787,0-12.851,2.244-12.226,1.23-14.47-5.708-3.679-6.938-8.362S162.36,386.97,168.171,388.373Z" transform="translate(-105.576 -330.442)" fill="#35ad8c"/>
      </g>
      <path id="Caminho_501" data-name="Caminho 501" d="M177.292,333.8a56.918,56.918,0,0,1,18.252,8.69s-6.62-1.1-9.131,1.148-6.149,7.553-9.121,0S177.292,333.8,177.292,333.8Z" transform="translate(244.289 -39.373)" fill="#4bb29c"/>
    </g>
    <path id="Caminho_482" data-name="Caminho 482" d="M707.3,390.646c0,120.631-131.667,33.8-294.333,93.8s-408-34.043-408-154.667S210.1,128.53,330.729,128.53,707.3,270.007,707.3,390.646Z" transform="translate(236.702 10.891)" fill="#4292cc" opacity="0.35"/>
    <g id="Grupo_360" data-name="Grupo 360" transform="translate(-45 -24)">
      <path id="Caminho_505" data-name="Caminho 505" d="M703.507,305.5c4.177,2.122,78.264-56.094,78.264-56.094s3.763-7.473-2.2-10.535l-33.036-16.8c-5.441-2.762-9.256-.384-10.7,2.468s-35.226,69.361-37.04,72.921S699.331,303.381,703.507,305.5Zm0,0" transform="translate(96.262 -11.955)" fill="#c7cbcb"/>
      <path id="Caminho_506" data-name="Caminho 506" d="M746.424,321.876a6.223,6.223,0,0,1-8.353,2.724l-34.278-17.429a6.208,6.208,0,0,1-2.724-8.346l35.9-70.663a6.223,6.223,0,0,1,8.353-2.724L779.6,242.86a6.223,6.223,0,0,1,2.724,8.353Zm0,0" transform="translate(95.713 -12.925)" fill="#e3e5e7"/>
      <rect id="Retângulo_1505" data-name="Retângulo 1505" width="102.57" height="109.223" transform="translate(777.521 304.967) rotate(-83.39)" fill="none"/>
      <path id="Caminho_507" data-name="Caminho 507" d="M741.473,231.74l39.553,20.1-32.163,63.281L709.31,295.013Zm0,0" transform="translate(93.507 -14.65)" fill="#2e414f"/>
      <path id="Caminho_508" data-name="Caminho 508" d="M784.746,243.074a.933.933,0,0,1-1.264.354l-11.145-5.667a.888.888,0,1,1,.805-1.58l11.145,5.667a.926.926,0,0,1,.459,1.227Zm0,0" transform="translate(78.04 -15.72)" fill="#5a6b73"/>
      <path id="Caminho_509" data-name="Caminho 509" d="M784.042,243.546a1.038,1.038,0,0,1-.609-.1l-11.145-5.667a.888.888,0,1,1,.805-1.58.993.993,0,0,0-.594.692c-.09.489,1.211,1.2,1.806,1.505S784.042,243.546,784.042,243.546Zm0,0" transform="translate(78.052 -15.725)" fill="#2e414f"/>
      <path id="Caminho_510" data-name="Caminho 510" d="M756.454,316.257a6.208,6.208,0,0,1-8.353,2.724L713.823,301.56a6.223,6.223,0,0,1-2.724-8.353l35.918-70.663a6.208,6.208,0,0,1,8.353-2.717l34.278,17.421a6.216,6.216,0,0,1,2.724,8.353Zm0,0" transform="translate(87.23 -8.534)" fill="none" stroke="#f3a51f" stroke-miterlimit="10" stroke-width="1" opacity="0.7"/>
    </g>
    <path id="Caminho_519" data-name="Caminho 519" d="M809.065,581.452c-2.544-.617-9.617-6.479-16.556-10.483a59.352,59.352,0,0,0-28.423-7.443c-8.09.068-16.119,1.964-19.566,1.008-13.23-3.642-19.762-19.438-16.232-32.923h0c3.868-14.757,19.912-24.758,35.008-21.522l56.846,14.885c14.75,4.583,23.125,20.981,19.257,35.738h0C835.818,574.2,822.393,584.711,809.065,581.452Z" transform="translate(89.045 -83.381)" fill="#293339"/>
    <path id="Caminho_520" data-name="Caminho 520" d="M768.594,540.06l-5.749-1.505,1.505-5.749-9.572-2.506-1.505,5.749-5.749-1.505-2.513,9.572,5.749,1.505-1.505,5.749,9.58,2.513,1.505-5.749,5.749,1.505Z" transform="translate(84.672 -88.533)" fill="#e3e5e7"/>
    <line id="Linha_11" data-name="Linha 11" x1="4.831" y2="2.83" transform="translate(864.081 469.957)" fill="none" stroke="#ccd4d8" stroke-linecap="round" stroke-linejoin="round" stroke-width="2"/>
    <line id="Linha_12" data-name="Linha 12" x1="4.831" y2="2.83" transform="translate(871.741 471.959)" fill="none" stroke="#ccd4d8" stroke-linecap="round" stroke-linejoin="round" stroke-width="2"/>
    <path id="Caminho_521" data-name="Caminho 521" d="M809.81,505.549l9.279-35.444a8.94,8.94,0,0,1,10.882-6.359h0a8.933,8.933,0,0,1,6.359,10.874l-1.249,4.794a7.939,7.939,0,0,0,5.651,9.67h0a7.947,7.947,0,0,0,9.67-5.652l4.019-15.322" transform="translate(68.637 -71.992)" fill="none" stroke="#394650" stroke-miterlimit="10" stroke-width="2"/>
    <circle id="Elipse_308" data-name="Elipse 308" cx="4.952" cy="4.952" r="4.952" transform="translate(898.419 454.583)" fill="#f3a51c"/>
    <circle id="Elipse_309" data-name="Elipse 309" cx="4.952" cy="4.952" r="4.952" transform="translate(912.243 464.343)" fill="#1c0a2d"/>
    <circle id="Elipse_310" data-name="Elipse 310" cx="4.952" cy="4.952" r="4.952" transform="translate(884.414 461.152)" fill="#35ad8c"/>
    <circle id="Elipse_311" data-name="Elipse 311" cx="4.952" cy="4.952" r="4.952" transform="translate(898.238 470.913)" fill="#e01227"/>
    <line id="Linha_13" data-name="Linha 13" x2="22.982" y2="6.02" transform="translate(866.361 440.631)" fill="none" stroke="#b0b7bc" stroke-linecap="round" stroke-linejoin="round" stroke-width="2"/>
    <path id="Caminho_522" data-name="Caminho 522" d="M813.569,579.115c-2.536-.617-9.617-6.479-16.556-10.483a59.376,59.376,0,0,0-28.446-7.405c-8.1.068-16.119,1.964-19.566,1.008-13.23-3.642-19.762-19.446-16.225-32.923h0c3.86-14.757,19.9-24.758,35.008-21.523l56.846,14.885c14.742,4.583,23.118,20.981,19.257,35.738h0C840.322,571.853,826.9,582.366,813.569,579.115Z" transform="translate(85.935 -81.812)" fill="none" stroke="#f3a51f" stroke-miterlimit="10" stroke-width="1" opacity="0.7"/>
    <g id="Grupo_353" data-name="Grupo 353" transform="translate(-388 50)">
      <g id="Grupo_352" data-name="Grupo 352">
        <path id="Caminho_523" data-name="Caminho 523" d="M524.693,126.19c16.556,0,29.951,11.085,29.951,24.751,0,9.843-6.953,18.339-17.015,22.328A25.225,25.225,0,0,0,542.9,182.8s-10.468-3.379-15.314-7.713a30.849,30.849,0,0,1-4.289.294c-16.556,0-28.544-10.761-28.544-24.435S508.145,126.19,524.693,126.19Z" transform="translate(146.603 11.47)" fill="#2e414f"/>
        <path id="Caminho_524" data-name="Caminho 524" d="M552.724,182.8a25.224,25.224,0,0,1-5.268-9.527c10.061-3.988,17.015-12.485,17.015-22.328,0-13.666-13.41-24.751-29.951-24.751,0,0,12.989.519,20.793,8.955s8.6,17.226,3.763,25.85-14.531,11.017-14.531,11.017A16.4,16.4,0,0,0,552.724,182.8Z" transform="translate(136.761 11.47)" fill="#263845"/>
        <path id="Caminho_525" data-name="Caminho 525" d="M552.635,130s-2.965,8.571-.12,16.654,11.514,16.014,12.936,16.368l1.445-2.784-13.651-29.966Z" transform="translate(132.614 10.527)" fill="#1d303b"/>
        <path id="Caminho_526" data-name="Caminho 526" d="M593.557,92.44c-22.441,0-40.637,15.051-40.637,33.578,0,13.35,9.429,24.886,23.088,30.3a22.324,22.324,0,0,1-5.779,10.535s10.355-1.806,16.925-7.691a49.76,49.76,0,0,0,6.4.414c22.441,0,40.637-15.051,40.637-33.578S616,92.44,593.557,92.44Z" transform="translate(132.208 19.822)" fill="#4292cc"/>
        <path id="Caminho_527" data-name="Caminho 527" d="M570.228,166.881a22.524,22.524,0,0,0,5.779-10.535c-13.659-5.411-23.088-16.947-23.088-30.3,0-18.542,18.2-33.578,40.637-33.578,0,0-17.624.7-28.213,12.146s-11.672,23.366-5.057,35.076S580,154.637,580,154.637,579.673,161.906,570.228,166.881Z" transform="translate(132.208 19.814)" fill="url(#linear-gradient)"/>
        <circle id="Elipse_312" data-name="Elipse 312" cx="5.403" cy="5.403" r="5.403" transform="translate(704.874 140.045)" fill="#e3e5e7"/>
        <circle id="Elipse_313" data-name="Elipse 313" cx="5.403" cy="5.403" r="5.403" transform="translate(721.28 140.045)" fill="#e3e5e7"/>
        <path id="Caminho_528" data-name="Caminho 528" d="M527.768,122.07c16.556,0,29.951,11.077,29.951,24.751,0,9.836-6.953,18.339-17.015,22.328a25.262,25.262,0,0,0,5.268,9.52s-10.483-3.371-15.329-7.736a29.686,29.686,0,0,1-4.289.293c-16.556,0-28.544-10.761-28.544-24.427S511.22,122.07,527.768,122.07Z" transform="translate(144.846 14.489)" fill="none" stroke="#f3a51c" stroke-miterlimit="10" stroke-width="2" opacity="0.7"/>
        <path id="Caminho_529" data-name="Caminho 529" d="M596.637,88.32C574.2,88.32,556,103.371,556,121.9c0,13.35,9.429,24.879,23.088,30.29a22.291,22.291,0,0,1-5.779,10.535s10.355-1.8,16.925-7.683a49.845,49.845,0,0,0,6.4.414c22.441,0,40.637-15.051,40.637-33.578S619.078,88.32,596.637,88.32Z" transform="translate(130.446 22.841)" fill="none" stroke="#f3a51c" stroke-miterlimit="10" stroke-width="2" opacity="0.7"/>
      </g>
      <circle id="Elipse_314" data-name="Elipse 314" cx="5.403" cy="5.403" r="5.403" transform="translate(737.685 140.045)" fill="#e3e5e7"/>
    </g>
    <path id="Caminho_530" data-name="Caminho 530" d="M332.338,152.83c0,34.255-38.086,38.3-72.341,38.3s-51.707-4.041-51.707-38.3S277.3,85.41,311.553,85.41,332.338,118.552,332.338,152.83Z" transform="matrix(0.208, -0.978, 0.978, 0.208, 82.391, 646.765)" fill="#f3a51c" opacity="0.6"/>
    <g id="Grupo_354" data-name="Grupo 354" transform="translate(237 12)">
      <circle id="Elipse_317" data-name="Elipse 317" cx="19.852" cy="19.852" r="19.852" transform="translate(519.254 350.266)" fill="#4292cc"/>
      <circle id="Elipse_318" data-name="Elipse 318" cx="19.852" cy="19.852" r="19.852" transform="translate(522.61 353.638)" fill="none" stroke="#1c0a2d" stroke-miterlimit="10" stroke-width="2"/>
    </g>
    <path id="Caminho_531" data-name="Caminho 531" d="M132.361,627.435a4.026,4.026,0,0,1-2.483,2.2,4.139,4.139,0,0,1-5.614-3.191l-3.319-13.1-11.905,6.126a4.515,4.515,0,0,1-1.926.557,4.055,4.055,0,0,1-1.889-.361,4.335,4.335,0,0,1-2.1-2.2,3.364,3.364,0,0,1-.135-2.942,4.154,4.154,0,0,1,2.085-1.994L119,605.694l-3.981-15.736a3.943,3.943,0,0,1,.226-2.694,4,4,0,0,1,2.438-2.19,4.274,4.274,0,0,1,5.659,3.176l3.4,13.448,11.762-6.344a4.018,4.018,0,0,1,3.883-.316,3.891,3.891,0,0,1,2.115,2.258,3.627,3.627,0,0,1-.045,2.89,4.215,4.215,0,0,1-2.047,2.1l-13.809,6.75,3.981,15.736A3.943,3.943,0,0,1,132.361,627.435Z" transform="translate(394.618 -465.024)" fill="none" stroke="#1c0a2d" stroke-miterlimit="10" stroke-width="2"/>
    <g id="Grupo_287" data-name="Grupo 287" transform="translate(599.35 69.054)">
      <g id="Grupo_262" data-name="Grupo 262" transform="translate(-187.872 31.39)">
        <path id="Caminho_698" data-name="Caminho 698" d="M118.012,637.292a4.957,4.957,0,0,0,3.058,2.715,5.1,5.1,0,0,0,6.912-3.929l4.086-16.132,14.658,7.542a5.558,5.558,0,0,0,2.372.686,4.993,4.993,0,0,0,2.326-.445,5.338,5.338,0,0,0,2.585-2.715,4.142,4.142,0,0,0,.167-3.623,5.115,5.115,0,0,0-2.567-2.455l-17.151-8.413,4.9-19.375a4.855,4.855,0,0,0-.278-3.317,4.92,4.92,0,0,0-3-2.7,5.263,5.263,0,0,0-6.968,3.91L124.924,605.6l-14.482-7.811a4.947,4.947,0,0,0-4.781-.389,4.791,4.791,0,0,0-2.6,2.78,4.466,4.466,0,0,0,.056,3.558,5.189,5.189,0,0,0,2.52,2.585l17,8.311-4.9,19.375A4.855,4.855,0,0,0,118.012,637.292Z" transform="translate(333.807 -428.933)" fill="none" stroke="#dfa330" stroke-miterlimit="10" stroke-width="2"/>
        <g id="Grupo_260" data-name="Grupo 260" transform="translate(256.604 371.633)">
          <circle id="Elipse_317-2" data-name="Elipse 317" cx="14.106" cy="14.106" r="14.106" transform="translate(2.385 0)" fill="#4292cc"/>
          <circle id="Elipse_318-2" data-name="Elipse 318" cx="14.106" cy="14.106" r="14.106" transform="translate(0 2.396)" fill="none" stroke="#1c0a2d" stroke-miterlimit="10" stroke-width="2"/>
        </g>
      </g>
      <g id="tela1-2" transform="translate(-105.607 121.19)">
        <g id="ESQUERDA_9_" transform="translate(26.07 234.762)">
          <g id="Grupo_266" data-name="Grupo 266">
            <g id="Grupo_265" data-name="Grupo 265">
              <path id="Caminho_700" data-name="Caminho 700" d="M110.222,149.725a49.59,49.59,0,0,0,1.792,8.959,111.343,111.343,0,0,0,3.583,10.929c1.433,3.942,3.763,7.525,4.3,11.646.358,3.583-4.121,5.375-6.629,3.225-5.913-4.838-8.421-15.767-10.571-22.755-.9-3.225-1.792-6.45-2.508-9.675C102.518,149.008,107.535,147.216,110.222,149.725Z" transform="translate(-100.189 -148.537)" fill="#d99156"/>
              <g id="Grupo_264" data-name="Grupo 264" transform="translate(1.254 24.659)">
                <path id="Caminho_701" data-name="Caminho 701" d="M123.876,194.372a4.453,4.453,0,0,1,.179,1.433,1.864,1.864,0,0,1-2.329,1.075,4.263,4.263,0,0,1-2.329-1.613c-3.046-3.225-5.375-11.109-7.7-10.213-1.613.717-.179,5.554.538,8.779a17.671,17.671,0,0,1,.538,4.3,2.2,2.2,0,0,1-4.3.538c-.717-3.225-.717-8.421-1.971-11.467a.966.966,0,0,0-1.792,0l-2.867,8.6c-.538,1.254-1.613,2.688-2.867,2.15-1.075-.358-1.075-1.971-.9-3.046a29.159,29.159,0,0,1,2.329-6.629c.538-1.075,1.254-2.508.358-3.583s-2.688-.717-3.583.179c-1.075.9-1.792,2.15-2.867,2.867-1.254.717-3.225.179-3.225-1.254a3.322,3.322,0,0,1,.358-1.254c1.792-2.867,6.092-4.658,6.092-8.063,0-2.508-.9-4.3-.179-6.629.538-1.971,1.075-2.867,2.688-3.583a7.788,7.788,0,0,0,3.763-2.508c1.075-1.433,1.792-2.15,3.583-2.15a6.754,6.754,0,0,1,4.479,1.971c1.254,1.075,2.329,2.867,3.583,4.121,1.613,1.613,3.225.538,5.2-.358a5.528,5.528,0,0,1,3.225-.9,2.305,2.305,0,0,1,1.971,2.688,5.366,5.366,0,0,1-.717,1.792c-1.792,3.942-5.2,2.688-9.854,2.867C116.171,181.471,121.9,187.742,123.876,194.372Z" transform="translate(-91.087 -162.3)" fill="#d99156"/>
              </g>
            </g>
          </g>
        </g>
        <g id="Grupo_267" data-name="Grupo 267" transform="translate(53.842 310.306)">
          <path id="Caminho_702" data-name="Caminho 702" d="M78.706,190.7c0,30.817-.358,79.731,4.3,104.815H89.1c4.838-33.326,10.571-70.056,16.125-104.815Z" transform="translate(-74.765 -190.7)" fill="#d99156"/>
          <path id="Caminho_703" data-name="Caminho 703" d="M98.955,250.479l5.375,8.242L84.8,257.288l8.421-6.988Z" transform="translate(-84.8 -143.514)" fill="#e6b54a"/>
        </g>
        <g id="Grupo_268" data-name="Grupo 268" transform="translate(106.518 309.231)">
          <path id="Caminho_704" data-name="Caminho 704" d="M51.5,192.25c2.508,30.638,6.45,79.552,13.079,104.1,1.971-.179,4.121-.358,6.092-.538,2.15-33.684,4.838-70.593,7.346-105.711Z" transform="translate(-51.5 -190.1)" fill="#d99156"/>
          <path id="Caminho_705" data-name="Caminho 705" d="M65.638,250.4l6.092,7.525-19.53.358,7.7-7.7Z" transform="translate(-46.466 -142.36)" fill="#e6b54a"/>
        </g>
        <path id="Caminho_706" data-name="Caminho 706" d="M45.736,32.077c-3.763-.358-7.7.358-9.675,3.4s.179,8.6,3.763,8.779c-3.942-1.613-8.421-2.329-12.363-1.254a9.572,9.572,0,0,0-6.988,8.959c0,4.3,3.942,8.779,8.063,8.6-4.3.538-8.421,1.792-11.467,4.658a11.879,11.879,0,0,0-3.4,11.825c1.254,4.3,5.913,8.063,10.034,7.167-3.225,2.508-6.092,6.45-5.017,10.75.9,3.942,4.838,6.629,8.779,7.346s7.7-.179,11.288-1.075c1.792,7.7,10.571,13.438,17.738,11.646,3.942-.9,7.167-5.2,5.2-8.959,3.583,2.329,7.167,4.838,11.109,5.733,3.942,1.075,8.421.538,10.929-2.508,2.508-2.867,1.971-8.6-1.433-10.929,5.017,3.942,12.542,3.583,16.3-.9s3.046-12.184-1.433-16.842c6.45-2.15,10.392-9.675,8.959-16.842a10.881,10.881,0,0,0-3.4-6.092c-3.225-2.329-7.525-1.075-10.929.179,2.867-3.583,2.15-9.854-1.792-13.079-3.763-3.225-9.854-3.046-12.542.538-1.971-3.763-3.942-7.7-6.988-10.571s-7.7-4.658-11.288-3.046S54.515,36.736,57.561,39.6C56.307,34.944,50.573,32.436,45.736,32.077Z" transform="translate(95.183 -8.445)" fill="url(#linear-gradient-2)"/>
        <circle id="Elipse_344" data-name="Elipse 344" cx="10.034" cy="10.034" r="10.034" transform="translate(137.156 51.583)" fill="#dfa330" stroke="#000" stroke-miterlimit="10" stroke-width="0.75"/>
        <path id="Caminho_707" data-name="Caminho 707" d="M40.418,52.276c0,1.075,2.15-.9,5.554-1.613,2.508-.538,7.525,2.15,7.525,1.075s-2.508-5.017-7.7-4.3C41.314,48.155,40.239,51.2,40.418,52.276Z" transform="translate(99.426 6.116)" fill="#ebc477"/>
        <circle id="Elipse_345" data-name="Elipse 345" cx="10.034" cy="10.034" r="10.034" transform="translate(126.585 43.879)" fill="#dfa330" stroke="#000" stroke-miterlimit="10" stroke-width="0.75"/>
        <path id="Caminho_708" data-name="Caminho 708" d="M46.316,47.976c0,1.075,2.15-.9,5.554-1.613,2.508-.538,7.525,2.15,7.525,1.075s-2.508-5.017-7.7-4.3C47.391,44.034,46.137,47.08,46.316,47.976Z" transform="translate(82.956 2.711)" fill="#ebc477"/>
        <path id="Caminho_709" data-name="Caminho 709" d="M80.346,78.526c.717,3.583,0,7.346-1.254,11.288-.9,2.688-6.271,3.046-6.988.358a25.528,25.528,0,0,1,1.254-12.9C74.97,73.689,79.629,74.047,80.346,78.526Z" transform="translate(16.139 27.883)" fill="#201f20"/>
        <path id="Caminho_710" data-name="Caminho 710" d="M135.762,139.344c5.2-8.779,14.334-19.171,17.559-28.847,10.392-31.534,0-51.78-25.8-61.456-19.171-7.167-44.614-13.259-62.352.179C45.1,64.272,35.426,98.135,39.009,122.5c.358,2.867,6.271,12.721,7.884,15.05s6.092.179,8.779-.538Z" transform="translate(-0.576 1.287)" fill="url(#linear-gradient-3)"/>
        <path id="Caminho_711" data-name="Caminho 711" d="M149.275,27.7c3.583,1.075,6.988,3.4,7.7,6.988.538,3.583-3.4,7.884-6.988,6.629,4.3.179,8.6,1.075,11.825,3.763a9.72,9.72,0,0,1,3.046,10.929c-1.613,3.942-6.988,6.629-10.75,4.658a20.75,20.75,0,0,1,8.779,8.779,12.057,12.057,0,0,1-1.433,12.184c-2.867,3.583-8.6,5.017-12,2.688,2.15,3.583,3.225,8.242.538,11.825-2.329,3.225-7.167,4.3-10.929,3.4s-6.809-3.225-9.854-5.375c-4.658,6.45-15.05,8.242-20.963,3.942-3.225-2.329-4.658-7.525-1.433-10.392-4.121.717-8.421,1.613-12.542,1.075s-8.063-2.867-9.138-6.629,1.433-8.6,5.554-9.5c-6.092,1.792-12.9-1.613-14.692-7.167s1.971-12.542,7.884-15.05c-5.2-4.479-5.913-12.9-1.613-18.992a10.278,10.278,0,0,1,5.554-4.3c3.942-.9,7.346,1.792,10.034,4.479-1.254-4.3,1.792-9.854,6.629-11.467s10.213,1.075,11.467,5.375c3.225-2.688,6.629-5.554,10.571-7.167,3.942-1.433,8.959-1.254,11.467,1.613a6.26,6.26,0,0,1-2.508,9.854C138.525,26.271,144.616,26.092,149.275,27.7Z" transform="translate(-75.545 -17.51)" fill="url(#linear-gradient-4)"/>
        <path id="Caminho_712" data-name="Caminho 712" d="M47.19,120.414c3.046-1.971,7.525-1.433,8.959,1.971.179.358.717,2.508,1.075,2.508a7.513,7.513,0,0,1,2.867-.179c-.179,0,.358-8.063.9-17.559a22.8,22.8,0,0,0,6.271-6.809c3.583-5.733,6.45-22.934,6.45-29.563,16.484-21.68,74.356-22.934,80.448,18.1,0,.358-9.317,21.5-1.254,28.488,7.167,6.271-7.167,38.343-37.088,35.655-14.334-1.254-50.526-11.109-57.514-19.709-.358-.358-.9-.358-1.075.179a8.279,8.279,0,0,1-3.046,3.046,1.359,1.359,0,0,1-.717.358c-4.121,1.613-10.75-2.508-11.646-6.988C41.456,125.968,44.323,122.206,47.19,120.414Z" transform="translate(-4.277 12.871)" fill="#ba7b43"/>
        <path id="Caminho_713" data-name="Caminho 713" d="M63.046,82.026c.717,3.583,0,7.346-1.254,11.288C60.9,96,55.52,96.36,54.8,93.673a25.528,25.528,0,0,1,1.254-12.9C57.67,77.189,62.329,77.547,63.046,82.026Z" transform="translate(64.436 30.654)" fill="#201f20"/>
        <path id="Caminho_714" data-name="Caminho 714" d="M79.246,80.2c.717,3.583,0,7.346-1.254,11.288-.9,2.688-6.271,3.046-6.988.358a25.528,25.528,0,0,1,1.254-12.9C73.691,75.363,78.35,75.9,79.246,80.2Z" transform="translate(19.21 29.255)" fill="#201f20"/>
        <path id="Caminho_715" data-name="Caminho 715" d="M101.11,93.588c2.508-1.075,4.838,0,6.629,1.971a1.271,1.271,0,0,1-.717,1.971,2.054,2.054,0,0,0-1.792,2.329c.358,1.433,1.971,1.254,3.046,1.254a.862.862,0,0,1,.717,1.254c-1.433,2.508-5.2,1.075-6.271-1.075a4.444,4.444,0,0,1,1.433-5.375,2.526,2.526,0,0,0-2.508.179c-1.075.538-1.254,1.971-1.613,3.046a.878.878,0,0,1-1.613-.179C97.706,96.813,99.139,94.484,101.11,93.588Z" transform="translate(-59.81 42.385)" fill="#915b23"/>
        <path id="VENTA_4_" d="M60.31,91.623a4.767,4.767,0,0,1,6.271-5.2c.9.358,1.613.538,2.329.9h0c-.538-.358-.179-.179,0,0a6.326,6.326,0,0,1,6.271,5.017c.538,3.046-1.613,6.629-4.838,6.988C65.148,99.686,61.206,96.64,60.31,91.623Z" transform="translate(42.087 36.824)" fill="#774928" opacity="0.6"/>
        <g id="ROUPA_4_" transform="translate(33.596 167.257)">
          <path id="Caminho_716" data-name="Caminho 716" d="M52.156,159.9c-5.375,9.854,6.809,139.753,5.733,145.308,8.779,1.971,5.913.358,14.871,2.508,2.688-8.063,18.992-79.552,22.217-87.973l2.867-.179c.538,0,0,.9.179,1.433,5.375,15.588,12.9,74.356,18.275,87.973,6.629-1.433,9.5.179,16.125-1.254-1.075-29.563,5.375-97.469,1.433-126.853Z" transform="translate(-34.418 -72.036)" fill="#dde3e8"/>
          <g id="FRENTE_4_">
            <path id="Caminho_717" data-name="Caminho 717" d="M67.2,114.85c-.358-.717-.538-1.433-.9-2.15A5.98,5.98,0,0,0,67.2,114.85Z" transform="translate(5.727 -109.404)" fill="#6191c9"/>
            <path id="Caminho_718" data-name="Caminho 718" d="M82.4,112.7" transform="translate(-38.324 -109.404)" fill="#6191c9"/>
            <path id="Caminho_719" data-name="Caminho 719" d="M67.8,113.471c-.358-.717-.538-1.254-.9-1.971A9.6,9.6,0,0,0,67.8,113.471Z" transform="translate(4.052 -110.354)" fill="#6191c9"/>
            <path id="Caminho_720" data-name="Caminho 720" d="M67.5,111.5Z" transform="translate(3.273 -110.354)" fill="#6191c9"/>
            <path id="Caminho_721" data-name="Caminho 721" d="M66.979,112.958c0-.179-.179-.179-.179-.358C66.8,112.779,66.8,112.779,66.979,112.958Z" transform="translate(5.048 -109.484)" fill="#6191c9"/>
            <path id="Caminho_722" data-name="Caminho 722" d="M81.8,111.6" transform="translate(-36.649 -110.275)" fill="#6191c9"/>
            <path id="Caminho_723" data-name="Caminho 723" d="M117.889,114.515c-1.075-1.792-.538-3.046-2.508-3.225-6.45-.538-20.067-.538-20.426-.179,0,.179-1.792.717-1.971.9-.358.358,0,.358-.358.9a5.232,5.232,0,0,1-.358,1.613c-.358.538-1.971.358-2.688.358C77.755,117.919,58.046,215.925,46.4,253.551c25.98,13.259,85.106,8.779,108.578-.538-7.884-31.713-7.346-125.957-36.013-136.708Z" transform="translate(-46.4 -110.861)" fill="#6191c9"/>
          </g>
        </g>
        <g id="ESQUERDA_8_" transform="translate(161.187 151.381)">
          <g id="Grupo_271" data-name="Grupo 271" transform="translate(0)">
            <g id="Grupo_270" data-name="Grupo 270">
              <path id="Caminho_724" data-name="Caminho 724" d="M18.182,134.153c2.688-1.433,5.375-3.046,7.884-4.658a87.2,87.2,0,0,0,8.959-7.167c3.225-2.688,5.733-6.092,9.5-7.884,3.225-1.433,6.45,2.15,5.2,5.2C47.029,126.807,37.891,132.9,31.8,137.2c-2.688,1.971-5.554,3.763-8.421,5.554C20.153,141.678,16.749,137.557,18.182,134.153Z" transform="translate(-17.845 -92.406)" fill="#d99156"/>
              <g id="Grupo_269" data-name="Grupo 269" transform="translate(20.092)">
                <path id="Caminho_725" data-name="Caminho 725" d="M33.5,102.538A2.035,2.035,0,0,1,34.935,102a1.962,1.962,0,0,1,1.792,1.971,5.674,5.674,0,0,1-.717,2.867c-1.971,3.942-8.6,8.779-6.988,10.75,2.15-1.075,8.063-.9,4.121,5.2,0,.179,3.583.358,3.046,3.4-.358,1.971.179,2.15-1.075,3.942-.358.358-.717,3.4-1.792,4.121-1.792.9-3.4.9-5.554,1.613-2.329.9-5.375.717-7.7.9-1.971,0-2.688-.9-3.763-2.329a7.634,7.634,0,0,0-3.583-2.688c-1.613-.538-2.508-.9-3.225-2.688a6.56,6.56,0,0,1,.358-4.838c.717-1.613,1.254-3.763,1.971-5.375.9-1.971,4.121-8.959,9.5-5.017C27.41,110.6,27.947,106.479,33.5,102.538Z" transform="translate(-9.18 -102)" fill="#d99156"/>
              </g>
            </g>
          </g>
        </g>
        <path id="DIREITO_8_" d="M44.9,144.159s4.658,17.2,26.517,16.484c19.35-.537,21.5-3.583,31.892-3.583-3.225-4.3-12.184-28.13-12.184-28.13S74.285,140.4,67.3,141.471c-12.542,2.15-29.384-19.709-42.643-28.309-4.838-3.225,2.329,3.583,11.646,11.467C39.884,129.287,44.9,144.159,44.9,144.159Z" transform="translate(80.609 57.57)" fill="url(#linear-gradient-5)"/>
        <path id="DIREITO_9_" d="M146.185,112.9c-3.4,0-16.3,5.017-20.6,8.242C114.471,129.921,97.809,142.1,89.387,155.9c-10.034,16.484-8.6,35.476-6.808,43.9,1.971,2.688,30.638-6.809,30.638-6.809s-12.363-26.338-8.959-32.43c6.092-11.288,10.929-13.617,25.621-19.171,2.867-1.075,5.733-7.525,6.45-10.034Z" transform="translate(-66.542 58.011)" fill="url(#linear-gradient-6)"/>
        <path id="GOLA_5_" d="M66.2,114.863c0,2.508,5.375,5.017,13.079,5.017s14.334-2.508,14.334-5.017c0-.9-2.688-3.763-4.121-3.763-.717,0,.358,2.329-1.254,2.688a45.592,45.592,0,0,1-9.317.9c-3.046,0-6.092,0-8.242-.717-1.792-.717-.538-2.508-1.075-2.688C66.738,110.562,66.2,113.788,66.2,114.863Z" transform="translate(13.084 56.586)" fill="#db9600"/>
        <path id="PESCOÇO_4_" d="M71.4,106.9c1.433.358,8.421,1.971,11.467,2.867.537,3.942.358,2.688,1.613,7.7a59.971,59.971,0,0,1-12.184.358S71.937,112.275,71.4,106.9Z" transform="translate(12.901 53.261)" fill="#915b23"/>
        <path id="BOCA_15_" d="M84.577,69.589c1.254.717.717,2.329-1.075,1.971-2.867-.358-5.375-.538-7.884.717-2.15,1.075-2.867,2.867-3.942,4.479-.9,1.075-3.046.717-3.225-.538C67.735,70.126,78.844,66.543,84.577,69.589Z" transform="translate(17.462 22.845)" fill="#201f20"/>
        <path id="Caminho_726" data-name="Caminho 726" d="M13.552,126.217c.358,0,1.613.717,4.838-.9,1.433-.717,2.15-2.867,1.254-6.45a6.47,6.47,0,0,0,3.225.538c.538,0,4.3-1.075,4.479-1.613.9-1.613-.717-4.3-1.254-4.838a28.979,28.979,0,0,0-4.479-3.4L19.644,108.3a49.364,49.364,0,0,1,5.375,5.2,5.928,5.928,0,0,1,.538,3.4,16.339,16.339,0,0,1-2.867,1.075c-3.763,1.254-5.375-3.763-6.092-3.4-.538.358,2.867,6.809,1.792,8.421C17.673,124.6,17.314,125.68,13.552,126.217Z" transform="translate(173.414 54.369)" fill="#915b23"/>
        <path id="BOCA_9_" d="M51.742,68.712c-1.433.179-1.433,1.792.179,2.15,2.867.717,5.2,1.433,7.167,3.583C60.7,76.237,60.521,78.208,61.059,80c.358,1.433,2.508,1.792,3.046.717C66.971,75.879,58.192,68.174,51.742,68.712Z" transform="translate(69.827 23.005)" fill="#201f20"/>
        <path id="Caminho_727" data-name="Caminho 727" d="M18.246,125.963l-1.075-.179a3.064,3.064,0,0,1-1.613-1.075c-.717-.717-.358-2.329,0-2.867.717-.9,6.629-1.971,6.629-1.971l-7.167.9c-.538-.358-1.075-.9-1.075-1.075a4.024,4.024,0,0,1,1.075-2.508l6.092-3.583-5.554,2.508a4.2,4.2,0,0,1-2.329.358c-.538-.358-.179-1.971-.179-2.15l-2.15.179a3.648,3.648,0,0,0,1.433,2.867c.358.358.717.358,1.254.538a3.027,3.027,0,0,0-.538,1.792,2.5,2.5,0,0,0,1.254,1.971c-.179,1.075-.538,3.225,1.075,3.942C16.275,126.321,17.888,125.963,18.246,125.963Z" transform="translate(183.591 58.565)" fill="#915b23"/>
        <path id="Caminho_728" data-name="Caminho 728" d="M89.769,110.167a41.756,41.756,0,0,0,7.167-.538S72.927,108.375,67.373,93.5a2.9,2.9,0,0,0-3.046-1.792h0a2.6,2.6,0,0,0-1.971,3.4C66.656,106.942,79.557,110.167,89.769,110.167Z" transform="translate(16.928 41.215)" fill="#915b23"/>
      </g>
    </g>
    <g id="Grupo_351" data-name="Grupo 351" transform="translate(-143.936 -68)">
      <path id="Caminho_511" data-name="Caminho 511" d="M376.035,712.563a4.213,4.213,0,0,1-4.223,4.213H213.463a4.2,4.2,0,0,1-4.213-4.213v-106.5a4.213,4.213,0,0,1,4.213-4.213H371.812a4.213,4.213,0,0,1,4.223,4.213Z" transform="translate(217.254 -105.782)" fill="#e3e5e7"/>
      <path id="Caminho_512" data-name="Caminho 512" d="M315.934,724.87H278.1s-.766,12.649-2.3,15.33h42.432C316.7,737.519,315.934,724.87,315.934,724.87Z" transform="translate(212.876 -113.876)" fill="#d1d5d5"/>
      <path id="Caminho_513" data-name="Caminho 513" d="M321.244,742.336a9.53,9.53,0,0,1-3.541-1.056H275.281a9.53,9.53,0,0,1-3.541,1.056c-2.3.28-3.83.476-3.83,1.626h57.174C325.084,742.812,323.552,742.616,321.244,742.336Z" transform="translate(213.395 -114.955)" fill="#c7cbcb"/>
      <path id="Caminho_514" data-name="Caminho 514" d="M371.812,601.88H213.463a4.213,4.213,0,0,0-4.213,4.213v95.626H376.025V606.093a4.2,4.2,0,0,0-4.213-4.213Zm-2.681,93.842H216.144V607.906H369.131Z" transform="translate(217.254 -105.784)" fill="#2e414f"/>
      <path id="Caminho_515" data-name="Caminho 515" d="M216.63,608.29v87.862H369.616V608.29H216.63Z" transform="translate(216.769 -106.206)" fill="#4292cc"/>
      <path id="Caminho_516" data-name="Caminho 516" d="M316.072,724.87H278.236s-.112,1.868-.336,4.344h38.508C316.184,726.757,316.072,724.87,316.072,724.87Z" transform="translate(212.738 -113.876)" fill="#c7cbcb"/>
      <circle id="Elipse_307" data-name="Elipse 307" cx="2.737" cy="2.737" r="2.737" transform="translate(507.173 601.082)" fill="#2e414f"/>
      <path id="Caminho_517" data-name="Caminho 517" d="M376.919,601.88H347.911L286.87,701.719h94.262V606.093a4.2,4.2,0,0,0-4.213-4.213Z" transform="translate(212.148 -105.784)" fill="#e3e5e7" opacity="0.16"/>
      <path id="Caminho_518" data-name="Caminho 518" d="M382.855,704.733a4.213,4.213,0,0,1-4.213,4.213H220.283a4.213,4.213,0,0,1-4.213-4.213v-106.5a4.213,4.213,0,0,1,4.213-4.213H378.641a4.213,4.213,0,0,1,4.213,4.213Z" transform="translate(213.081 -100.302)" fill="none" stroke="#f3a51c" stroke-miterlimit="10" stroke-width="1" opacity="0.7"/>
    </g>
  </g>
</svg>
