<svg xmlns="http://www.w3.org/2000/svg" width="416.5" height="391.717" viewBox="0 0 416.5 391.717">
  <g id="Grupo_286" data-name="Grupo 286" transform="translate(-906.5 -208.283)">
    <g id="Grupo_282" data-name="Grupo 282">
      <path id="Caminho_760" data-name="Caminho 760" d="M1013.61,337.868c0,83.6,218.825,188.81,302.431,188.81S1398.6,417.121,1398.6,333.52s1.039-172.28-82.562-172.28S1013.61,254.267,1013.61,337.868Z" transform="translate(-75.604 47.043)" fill="#3f92cc" opacity="0.19"/>
      <rect id="Retângulo_1533" data-name="Retângulo 1533" width="52.085" height="20.834" transform="translate(1118.871 483.074)" fill="none" stroke="#b0b7bc" stroke-linecap="round" stroke-miterlimit="10" stroke-width="20"/>
      <path id="Caminho_787" data-name="Caminho 787" d="M1313.87,788.949h0a13.062,13.062,0,0,1,13.048-13.019h98.962a13.062,13.062,0,0,1,13,13.019h0" transform="translate(-231.458 -272.022)" fill="none" stroke="#b0b7bc" stroke-linecap="round" stroke-miterlimit="10" stroke-width="20"/>
      <path id="Caminho_788" data-name="Caminho 788" d="M1413.627,524.589H1147.978a18.218,18.218,0,0,1-18.218-18.218v-156.3a18.218,18.218,0,0,1,18.218-18.218h265.649a18.218,18.218,0,0,1,18.223,18.218v156.3a18.218,18.218,0,0,1-18.223,18.223Z" transform="translate(-135.893 -41.515)" fill="#e8ecec"/>
      <path id="Caminho_789" data-name="Caminho 789" d="M1427.89,510.229H1167.459a5.208,5.208,0,0,1-5.208-5.209V369.6a5.209,5.209,0,0,1,5.208-5.208H1427.89a5.209,5.209,0,0,1,5.209,5.208V505.02A5.209,5.209,0,0,1,1427.89,510.229Z" transform="translate(-152.758 -58.405)" fill="#3f92cc"/>
      <path id="Caminho_790" data-name="Caminho 790" d="M1437.388,699.757h-20.839a5.208,5.208,0,0,1,0-10.417h20.839a5.208,5.208,0,1,1,0,10.417Z" transform="translate(-282.052 -227.076)" fill="#263841"/>
      <path id="Caminho_791" data-name="Caminho 791" d="M1189.124,417.269a5.194,5.194,0,0,0,3.684-1.529l20.834-20.834a5.208,5.208,0,1,0-7.368-7.363l-20.834,20.834a5.213,5.213,0,0,0,3.684,8.892Z" transform="translate(-164.006 -69.63)" fill="#566b7a"/>
      <circle id="Elipse_364" data-name="Elipse 364" cx="5.069" cy="5.069" r="5.069" transform="translate(1170.957 462.24)" fill="#e01227"/>
      <rect id="Retângulo_1534" data-name="Retângulo 1534" width="52.085" height="20.834" transform="translate(1123.681 486.907)" fill="none" stroke="#1c0a2d" stroke-miterlimit="10" stroke-width="2"/>
      <path id="Caminho_792" data-name="Caminho 792" d="M1323.87,796.933h0a13.062,13.062,0,0,1,13.048-13.033h98.962a13.062,13.062,0,0,1,13,13.033h0" transform="translate(-236.649 -276.158)" fill="none" stroke="#1c0a2d" stroke-miterlimit="10" stroke-width="2"/>
      <path id="Caminho_793" data-name="Caminho 793" d="M1423.627,532.554H1157.978a18.218,18.218,0,0,1-18.218-18.218v-156.3a18.218,18.218,0,0,1,18.218-18.223h265.649a18.218,18.218,0,0,1,18.223,18.223v156.3a18.218,18.218,0,0,1-18.223,18.223Z" transform="translate(-141.084 -45.647)" fill="none" stroke="#1c0a2d" stroke-miterlimit="10" stroke-width="2"/>
      <path id="Caminho_794" data-name="Caminho 794" d="M1437.89,518.194H1177.459a5.209,5.209,0,0,1-5.209-5.209V377.559a5.213,5.213,0,0,1,5.208-5.209H1437.89a5.213,5.213,0,0,1,5.208,5.209V512.985A5.209,5.209,0,0,1,1437.89,518.194Z" transform="translate(-157.948 -62.537)" fill="none" stroke="#1c0a2d" stroke-miterlimit="10" stroke-width="2"/>
      <path id="Caminho_795" data-name="Caminho 795" d="M1447.383,707.677h-20.834a5.209,5.209,0,1,1,0-10.417h20.834a5.209,5.209,0,1,1,0,10.417Z" transform="translate(-287.242 -231.187)" fill="none" stroke="#1c0a2d" stroke-miterlimit="10" stroke-width="2"/>
      <path id="Caminho_796" data-name="Caminho 796" d="M1199.124,425.269a5.214,5.214,0,0,0,3.684-1.529l20.834-20.834a5.208,5.208,0,1,0-7.368-7.363l-20.834,20.834a5.213,5.213,0,0,0,3.684,8.892Z" transform="translate(-169.196 -73.783)" fill="none" stroke="#1c0a2d" stroke-miterlimit="10" stroke-width="2"/>
      <circle id="Elipse_365" data-name="Elipse 365" cx="5.069" cy="5.069" r="5.069" transform="translate(1175.766 466.073)" fill="none" stroke="#1c0a2d" stroke-miterlimit="10" stroke-width="2"/>
      <circle id="Elipse_366" data-name="Elipse 366" cx="55.942" cy="55.942" r="55.942" transform="translate(942.609 230.473)" fill="#3f92cc"/>
      <path id="Caminho_797" data-name="Caminho 797" d="M1024.5,391.75l-19.237,33.367,22.464-1.193,10.21,20.055,17.795-30.871A55.885,55.885,0,0,1,1024.5,391.75Z" transform="translate(-71.27 -72.607)" fill="#1c0a2d"/>
      <path id="Caminho_798" data-name="Caminho 798" d="M1200.385,391.41a55.919,55.919,0,0,1-31.145,21.469L1187.1,443.8l10.205-20.055,22.469,1.193Z" transform="translate(-156.386 -72.431)" fill="#1c0a2d"/>
      <circle id="Elipse_367" data-name="Elipse 367" cx="40.552" cy="40.552" r="40.552" transform="translate(957.999 245.863)" fill="#dbe3e7"/>
      <path id="Caminho_799" data-name="Caminho 799" d="M1102.025,309.258l-1.977,10.47h-2.886a1.736,1.736,0,0,1-1.332-.616,2.14,2.14,0,0,1-.568-1.515,1.975,1.975,0,0,1,0-.24.569.569,0,0,1,.038-.245l1.515-7.854h-5.261l-1.491,8.176a2.554,2.554,0,0,1-1.053,1.77,3.227,3.227,0,0,1-1.818.539h-2.8l1.924-10.47h-2.948a1.818,1.818,0,0,1-1.26-.4,1.731,1.731,0,0,1-.438-1.323,5.432,5.432,0,0,1,.077-.822l.337-2.025h4.877l1.332-7.084H1082.8l.481-2.645a2.252,2.252,0,0,1,.794-1.443,3.3,3.3,0,0,1,2-.481h2.852l1.592-8.267a2.521,2.521,0,0,1,.962-1.587,2.785,2.785,0,0,1,1.746-.567h2.886l-1.953,10.422h5.237l1.977-10.422h2.823a2.1,2.1,0,0,1,1.443.515,1.693,1.693,0,0,1,.563,1.308,1.967,1.967,0,0,1,0,.385l-1.592,8.214h5.213l-.481,2.645a2.242,2.242,0,0,1-.808,1.443,3.314,3.314,0,0,1-1.991.481h-2.6l-1.308,7.084h3.641a1.731,1.731,0,0,1,1.245.4,1.78,1.78,0,0,1,.423,1.347,4.8,4.8,0,0,1-.077.818l-.308,2.005Zm-9.83-4.569h5.261l1.308-7.084h-5.233Z" transform="translate(-110.928 -15.966)" fill="#3f92cc"/>
      <path id="Caminho_800" data-name="Caminho 800" d="M1152.993,314.956h7.517V293.314c0-.837.029-1.722.077-2.645l-5.339,4.468a1.867,1.867,0,0,1-.678.385,2.444,2.444,0,0,1-.683.1,2.038,2.038,0,0,1-.962-.216,1.736,1.736,0,0,1-.625-.481l-2-2.746,11.316-9.619h5.208v32.42h6.675v4.747h-20.507Z" transform="translate(-146.555 -15.93)" fill="#3f92cc"/>
      <path id="Caminho_801" data-name="Caminho 801" d="M1104.725,311.828l-1.972,10.47h-2.886a1.76,1.76,0,0,1-1.332-.616,2.154,2.154,0,0,1-.563-1.515,1.958,1.958,0,0,1,0-.245,1.541,1.541,0,0,1,.038-.24l1.515-7.854h-5.261L1092.774,320a2.564,2.564,0,0,1-1.048,1.77,3.242,3.242,0,0,1-1.823.539h-2.818l1.953-10.47h-2.953a1.818,1.818,0,0,1-1.26-.4,1.726,1.726,0,0,1-.433-1.323,4.916,4.916,0,0,1,.077-.822l.332-2.025h4.877l1.337-7.084h-5.5l.481-2.645a2.281,2.281,0,0,1,.794-1.443,3.367,3.367,0,0,1,2.006-.481h2.847l1.592-8.267a2.545,2.545,0,0,1,.962-1.592,2.828,2.828,0,0,1,1.746-.563h2.886l-1.953,10.422h5.238l1.977-10.422h2.823a2.063,2.063,0,0,1,1.443.515,1.678,1.678,0,0,1,.567,1.308,1.917,1.917,0,0,1-.029.385l-1.587,8.214h5.208l-.481,2.64a2.2,2.2,0,0,1-.808,1.443,3.31,3.31,0,0,1-1.986.481h-2.568l-1.313,7.075h3.646a1.761,1.761,0,0,1,1.246.394,1.817,1.817,0,0,1,.423,1.351,5.433,5.433,0,0,1-.077.818l-.308,2.005Zm-9.83-4.569h5.29l1.308-7.084h-5.271Z" transform="translate(-112.339 -17.299)" fill="none" stroke="#1c0a2d" stroke-miterlimit="10" stroke-width="2"/>
      <path id="Caminho_802" data-name="Caminho 802" d="M1155.693,317.5h7.522V295.858c0-.842,0-1.722.077-2.645l-5.343,4.468a1.87,1.87,0,0,1-.678.385,2.4,2.4,0,0,1-.678.1,2.025,2.025,0,0,1-.962-.216,1.764,1.764,0,0,1-.63-.481l-2-2.751,11.316-9.619h5.213v32.42h6.671v4.747h-20.507Z" transform="translate(-147.956 -17.249)" fill="none" stroke="#1c0a2d" stroke-miterlimit="10" stroke-width="2"/>
      <g id="Grupo" transform="translate(1107.459 358.791)">
        <text id="Escolas" transform="translate(5.242 21)" fill="#1c0a2d" font-size="21" font-family="Lato-Bold, Lato" font-weight="700"><tspan x="0" y="0">Escolas</tspan></text>
        <text id="Públicas" transform="translate(0 48.562)" fill="#1c0a2d" font-size="21" font-family="Lato-Bold, Lato" font-weight="700"><tspan x="0" y="0">Públicas</tspan></text>
      </g>
      <circle id="Elipse_368" data-name="Elipse 368" cx="55.942" cy="55.942" r="55.942" transform="translate(944.408 230.305)" fill="none" stroke="#1c0a2d" stroke-miterlimit="10" stroke-width="2"/>
      <path id="Caminho_803" data-name="Caminho 803" d="M1028.237,391.4,1009,424.767l22.464-1.193,10.21,20.055,17.795-30.871A55.885,55.885,0,0,1,1028.237,391.4Z" transform="translate(-73.211 -72.425)" fill="none" stroke="#1c0a2d" stroke-miterlimit="10" stroke-width="2"/>
      <path id="Caminho_804" data-name="Caminho 804" d="M1204.085,391.06a55.9,55.9,0,0,1-31.145,21.469l17.862,30.924,10.205-20.055,22.469,1.193Z" transform="translate(-158.306 -72.249)" fill="none" stroke="#1c0a2d" stroke-miterlimit="10" stroke-width="2"/>
      <circle id="Elipse_369" data-name="Elipse 369" cx="40.552" cy="40.552" r="40.552" transform="translate(959.797 245.695)" fill="none" stroke="#1c0a2d" stroke-miterlimit="10" stroke-width="2"/>
    </g>
    <g id="Grupo_284" data-name="Grupo 284" transform="translate(387.5 -23)">
      <text id="TELEVISÃO" transform="translate(536 574)" fill="#3f92cc" font-size="20" font-family="Lato-Bold, Lato" font-weight="700"><tspan x="0" y="20">TELEVISÃO</tspan></text>
      <text id="Desenhos_Filmes_e_Séries" data-name="Desenhos, Filmes e Séries" transform="translate(535 597)" fill="#1c0a2d" font-size="20" font-family="RobotoSlab-Regular, Roboto Slab"><tspan x="0" y="21">Desenhos, Filmes e Séries</tspan></text>
      <line id="Linha_15" data-name="Linha 15" y2="41" transform="translate(519.5 576.5)" fill="none" stroke="#707070" stroke-width="1"/>
    </g>
  </g>
</svg>
