<svg xmlns="http://www.w3.org/2000/svg" width="559" height="523.872" viewBox="0 0 559 523.872">
  <g id="Grupo_554" data-name="Grupo 554" transform="translate(-24 -117.592)">
    <g id="Grupo_510" data-name="Grupo 510">
      <g id="INFOGRÁFICO_2_-_2svg" data-name="INFOGRÁFICO 2 - 2svg" transform="translate(-32.99 75.81)">
        <path id="Caminho_865" data-name="Caminho 865" d="M667.835,364.794c0,108.185-295.587,157.812-407.065,157.812s-51.305-94.564-90.375-195.878C126.027,211.662,404.829,95.19,516.308,95.19S667.835,256.61,667.835,364.794Z" transform="translate(-51.845 0)" fill="#1c0a2d" opacity="0.2"/>
        <path id="Caminho_866" data-name="Caminho 866" d="M507.51,507.521H115.98a14.5,14.5,0,0,1-14.5-14.5V159.489A14.5,14.5,0,0,1,115.98,145H507.51a14.5,14.5,0,0,1,14.5,14.5V493.016a14.5,14.5,0,0,1-14.5,14.5Z" transform="translate(-21.227 -23.765)" fill="#e5eaf6"/>
        <path id="Caminho_867" data-name="Caminho 867" d="M522.02,217.493H101.48v-58A14.5,14.5,0,0,1,115.98,145H507.51a14.5,14.5,0,0,1,14.5,14.5Z" transform="translate(-21.227 -23.765)" fill="#3f92cc"/>
        <rect id="Retângulo_1536" data-name="Retângulo 1536" width="420.535" height="14.5" transform="translate(80.253 193.728)" fill="#e5eaf6"/>
        <circle id="Elipse_376" data-name="Elipse 376" cx="21.752" cy="21.752" r="21.752" transform="translate(120.134 132.095)" fill="#2f739a"/>
        <path id="Caminho_868" data-name="Caminho 868" d="M209.426,175.224h0a10.871,10.871,0,0,1-10.876-10.871V128.076A10.876,10.876,0,0,1,209.426,117.2h0A10.876,10.876,0,0,1,220.3,128.076v36.252a10.876,10.876,0,0,1-10.876,10.9Z" transform="translate(-67.541 -10.501)" fill="#c7cfe2"/>
        <path id="Caminho_869" data-name="Caminho 869" d="M209.426,176.646A10.876,10.876,0,0,1,198.55,165.77v21.757a10.876,10.876,0,1,0,21.752,0V165.77A10.876,10.876,0,0,1,209.426,176.646Z" transform="translate(-67.54 -33.675)" fill="#b0bad2"/>
        <circle id="Elipse_377" data-name="Elipse 377" cx="21.752" cy="21.752" r="21.752" transform="translate(417.409 132.095)" fill="#2f739a"/>
        <path id="Caminho_870" data-name="Caminho 870" d="M777.956,175.224h0a10.871,10.871,0,0,1-10.876-10.871V128.076A10.876,10.876,0,0,1,777.956,117.2h0a10.876,10.876,0,0,1,10.876,10.876v36.252a10.876,10.876,0,0,1-10.876,10.9Z" transform="translate(-338.795 -10.501)" fill="#c7cfe2"/>
        <path id="Caminho_871" data-name="Caminho 871" d="M777.956,176.646A10.876,10.876,0,0,1,767.08,165.77v21.757a10.876,10.876,0,0,0,21.752,0V165.77a10.876,10.876,0,0,1-10.876,10.876Z" transform="translate(-338.795 -33.675)" fill="#b0bad2"/>
        <path id="Caminho_872" data-name="Caminho 872" d="M277.926,444.692H248.932a7.252,7.252,0,0,1-7.252-7.247V415.692a7.252,7.252,0,0,1,7.252-7.252h28.994a7.252,7.252,0,0,1,7.252,7.252v21.752A7.247,7.247,0,0,1,277.926,444.692Z" transform="translate(-88.118 -149.456)" fill="#3f92cc"/>
        <path id="Caminho_873" data-name="Caminho 873" d="M388.893,444.692h-29.03a7.252,7.252,0,0,1-7.252-7.247V415.692a7.252,7.252,0,0,1,7.252-7.252h29.03a7.247,7.247,0,0,1,7.247,7.252v21.752a7.242,7.242,0,0,1-7.247,7.247Z" transform="translate(-141.045 -149.456)" fill="#3f92cc"/>
        <path id="Caminho_874" data-name="Caminho 874" d="M499.8,444.692h-29a7.252,7.252,0,0,1-7.247-7.247V415.692a7.252,7.252,0,0,1,7.247-7.252h29a7.252,7.252,0,0,1,7.252,7.252v21.752a7.247,7.247,0,0,1-7.252,7.247Z" transform="translate(-193.976 -149.456)" fill="#3f92cc"/>
        <path id="Caminho_875" data-name="Caminho 875" d="M610.732,444.692h-29a7.252,7.252,0,0,1-7.252-7.247V415.692a7.252,7.252,0,0,1,7.252-7.252h29a7.252,7.252,0,0,1,7.252,7.252v21.752A7.247,7.247,0,0,1,610.732,444.692Z" transform="translate(-246.903 -149.456)" fill="#3f92cc"/>
        <path id="Caminho_876" data-name="Caminho 876" d="M721.667,444.692h-29a7.252,7.252,0,0,1-7.252-7.247V415.692a7.252,7.252,0,0,1,7.252-7.252h29a7.252,7.252,0,0,1,7.247,7.252v21.752A7.247,7.247,0,0,1,721.667,444.692Z" transform="translate(-299.829 -149.456)" fill="#c7cfe2"/>
        <path id="Caminho_877" data-name="Caminho 877" d="M832.6,444.692h-29a7.252,7.252,0,0,1-7.247-7.247V415.692a7.252,7.252,0,0,1,7.247-7.252h29a7.252,7.252,0,0,1,7.252,7.252v21.752A7.247,7.247,0,0,1,832.6,444.692Z" transform="translate(-352.76 -149.456)" fill="#c7cfe2"/>
        <path id="Caminho_878" data-name="Caminho 878" d="M278.926,367.489H249.932a7.252,7.252,0,0,1-7.252-7.252h0A7.252,7.252,0,0,1,249.932,353h28.994a7.252,7.252,0,0,1,7.252,7.252h0A7.252,7.252,0,0,1,278.926,367.489Z" transform="translate(-88.596 -123.005)" fill="#317aa4"/>
        <path id="Caminho_879" data-name="Caminho 879" d="M389.893,367.489H360.862a7.252,7.252,0,0,1-7.252-7.252h0A7.252,7.252,0,0,1,360.862,353h29.03a7.247,7.247,0,0,1,7.247,7.252h0A7.247,7.247,0,0,1,389.893,367.489Z" transform="translate(-141.522 -123.005)" fill="#317aa4"/>
        <path id="Caminho_880" data-name="Caminho 880" d="M500.8,367.489h-29a7.252,7.252,0,0,1-7.247-7.252h0A7.252,7.252,0,0,1,471.8,353h29a7.252,7.252,0,0,1,7.252,7.252h0A7.252,7.252,0,0,1,500.8,367.489Z" transform="translate(-194.453 -123.005)" fill="#317aa4"/>
        <path id="Caminho_881" data-name="Caminho 881" d="M611.732,367.489h-29a7.252,7.252,0,0,1-7.252-7.252h0A7.252,7.252,0,0,1,582.732,353h29a7.252,7.252,0,0,1,7.252,7.252h0A7.252,7.252,0,0,1,611.732,367.489Z" transform="translate(-247.38 -123.005)" fill="#317aa4"/>
        <path id="Caminho_882" data-name="Caminho 882" d="M721.667,367.489h-29a7.252,7.252,0,0,1-7.252-7.252h0A7.252,7.252,0,0,1,692.662,353h29a7.252,7.252,0,0,1,7.247,7.252h0A7.252,7.252,0,0,1,721.667,367.489Z" transform="translate(-299.829 -123.005)" fill="#c7cfe2"/>
        <path id="Caminho_883" data-name="Caminho 883" d="M832.6,367.489h-29a7.252,7.252,0,0,1-7.247-7.252h0A7.252,7.252,0,0,1,803.6,353h29a7.252,7.252,0,0,1,7.252,7.252h0A7.252,7.252,0,0,1,832.6,367.489Z" transform="translate(-352.76 -123.005)" fill="#c7cfe2"/>
        <path id="Caminho_884" data-name="Caminho 884" d="M277.926,541.776H248.932a7.252,7.252,0,0,1-7.252-7.237V512.787a7.252,7.252,0,0,1,7.252-7.247h28.994a7.252,7.252,0,0,1,7.252,7.247v21.752A7.252,7.252,0,0,1,277.926,541.776Z" transform="translate(-88.118 -195.784)" fill="#3f92cc"/>
        <path id="Caminho_885" data-name="Caminho 885" d="M388.893,541.776H359.862a7.252,7.252,0,0,1-7.252-7.237V512.787a7.252,7.252,0,0,1,7.252-7.247h29.031a7.247,7.247,0,0,1,7.247,7.247v21.752A7.247,7.247,0,0,1,388.893,541.776Z" transform="translate(-141.045 -195.784)" fill="#3f92cc"/>
        <path id="Caminho_886" data-name="Caminho 886" d="M499.8,541.776h-29a7.252,7.252,0,0,1-7.247-7.237V512.787a7.252,7.252,0,0,1,7.247-7.247h29a7.252,7.252,0,0,1,7.252,7.247v21.752A7.252,7.252,0,0,1,499.8,541.776Z" transform="translate(-193.976 -195.784)" fill="#3f92cc"/>
        <path id="Caminho_887" data-name="Caminho 887" d="M610.731,541.776h-29a7.252,7.252,0,0,1-7.252-7.237V512.787a7.252,7.252,0,0,1,7.252-7.247h29a7.252,7.252,0,0,1,7.252,7.247v21.752a7.253,7.253,0,0,1-7.253,7.237Z" transform="translate(-246.902 -195.784)" fill="#3f92cc"/>
        <path id="Caminho_888" data-name="Caminho 888" d="M721.667,541.776h-29a7.252,7.252,0,0,1-7.252-7.237V512.787a7.252,7.252,0,0,1,7.252-7.247h29a7.252,7.252,0,0,1,7.247,7.247v21.752a7.252,7.252,0,0,1-7.247,7.237Z" transform="translate(-299.829 -195.784)" fill="#c7cfe2"/>
        <path id="Caminho_889" data-name="Caminho 889" d="M832.6,541.776h-29a7.252,7.252,0,0,1-7.247-7.237V512.787a7.252,7.252,0,0,1,7.247-7.247h29a7.252,7.252,0,0,1,7.252,7.247v21.752a7.252,7.252,0,0,1-7.252,7.237Z" transform="translate(-352.76 -195.784)" fill="#c7cfe2"/>
        <path id="Caminho_890" data-name="Caminho 890" d="M277.926,638.808H248.932a7.252,7.252,0,0,1-7.252-7.273V609.782a7.252,7.252,0,0,1,7.252-7.252h28.994a7.252,7.252,0,0,1,7.252,7.252v21.752a7.252,7.252,0,0,1-7.252,7.273Z" transform="translate(-88.118 -242.06)" fill="#3f92cc"/>
        <path id="Caminho_891" data-name="Caminho 891" d="M388.893,638.808h-29.03a7.252,7.252,0,0,1-7.252-7.273V609.782a7.252,7.252,0,0,1,7.252-7.252h29.031a7.247,7.247,0,0,1,7.247,7.252v21.752a7.247,7.247,0,0,1-7.247,7.273Z" transform="translate(-141.045 -242.06)" fill="#3f92cc"/>
        <path id="Caminho_892" data-name="Caminho 892" d="M499.8,638.808h-29a7.252,7.252,0,0,1-7.247-7.273V609.782a7.252,7.252,0,0,1,7.247-7.252h29a7.252,7.252,0,0,1,7.252,7.252v21.752a7.252,7.252,0,0,1-7.252,7.273Z" transform="translate(-193.976 -242.06)" fill="#3f92cc"/>
        <path id="Caminho_893" data-name="Caminho 893" d="M610.731,638.808h-29a7.252,7.252,0,0,1-7.252-7.273V609.782a7.252,7.252,0,0,1,7.252-7.252h29a7.252,7.252,0,0,1,7.252,7.252v21.752a7.252,7.252,0,0,1-7.253,7.273Z" transform="translate(-246.903 -242.06)" fill="#3f92cc"/>
        <path id="Caminho_894" data-name="Caminho 894" d="M721.667,638.808h-29a7.252,7.252,0,0,1-7.252-7.273V609.782a7.252,7.252,0,0,1,7.252-7.252h29a7.252,7.252,0,0,1,7.247,7.252v21.752a7.252,7.252,0,0,1-7.247,7.273Z" transform="translate(-299.829 -242.06)" fill="#c7cfe2"/>
        <path id="Caminho_895" data-name="Caminho 895" d="M832.6,638.808h-29a7.252,7.252,0,0,1-7.247-7.273V609.782a7.252,7.252,0,0,1,7.247-7.252h29a7.252,7.252,0,0,1,7.252,7.252v21.752a7.252,7.252,0,0,1-7.252,7.273Z" transform="translate(-352.76 -242.06)" fill="#c7cfe2"/>
        <path id="Caminho_896" data-name="Caminho 896" d="M277.926,735.922H248.932a7.252,7.252,0,0,1-7.252-7.247V706.922a7.252,7.252,0,0,1,7.252-7.252h28.994a7.252,7.252,0,0,1,7.252,7.252v21.752a7.252,7.252,0,0,1-7.252,7.247Z" transform="translate(-88.118 -288.407)" fill="#3f92cc"/>
        <path id="Caminho_897" data-name="Caminho 897" d="M388.893,735.922h-29.03a7.252,7.252,0,0,1-7.252-7.247V706.922a7.252,7.252,0,0,1,7.252-7.252h29.03a7.247,7.247,0,0,1,7.247,7.252v21.752A7.247,7.247,0,0,1,388.893,735.922Z" transform="translate(-141.045 -288.407)" fill="#3f92cc"/>
        <path id="Caminho_898" data-name="Caminho 898" d="M499.8,735.922h-29a7.252,7.252,0,0,1-7.247-7.247V706.922a7.252,7.252,0,0,1,7.247-7.252h29a7.252,7.252,0,0,1,7.252,7.252v21.752a7.252,7.252,0,0,1-7.252,7.247Z" transform="translate(-193.976 -288.407)" fill="#3f92cc"/>
        <path id="Caminho_899" data-name="Caminho 899" d="M610.732,735.922h-29a7.252,7.252,0,0,1-7.252-7.247V706.922a7.252,7.252,0,0,1,7.252-7.252h29a7.252,7.252,0,0,1,7.252,7.252v21.752a7.252,7.252,0,0,1-7.252,7.247Z" transform="translate(-246.903 -288.407)" fill="#3f92cc"/>
        <path id="Caminho_900" data-name="Caminho 900" d="M721.667,735.922h-29a7.252,7.252,0,0,1-7.252-7.247V706.922a7.252,7.252,0,0,1,7.252-7.252h29a7.252,7.252,0,0,1,7.247,7.252v21.752A7.252,7.252,0,0,1,721.667,735.922Z" transform="translate(-299.829 -288.407)" fill="#c7cfe2"/>
        <path id="Caminho_901" data-name="Caminho 901" d="M832.6,735.922h-29a7.252,7.252,0,0,1-7.247-7.247V706.922a7.252,7.252,0,0,1,7.247-7.252h29a7.252,7.252,0,0,1,7.252,7.252v21.752A7.252,7.252,0,0,1,832.6,735.922Z" transform="translate(-352.76 -288.407)" fill="#c7cfe2"/>
        <path id="Caminho_902" data-name="Caminho 902" d="M514.363,142.705H477.7v-3.441a10.961,10.961,0,0,0-10.4-11.054,10.818,10.818,0,0,0-11.143,10.866V142.7h-275.2v-3.441a10.961,10.961,0,0,0-10.4-11.054,10.819,10.819,0,0,0-11.143,10.871V142.7H122.765a14.5,14.5,0,0,0-14.5,14.5V490.653a14.5,14.5,0,0,0,14.5,14.5h391.6a14.5,14.5,0,0,0,14.5-14.5V157.2a14.5,14.5,0,0,0-14.5-14.5Z" transform="translate(-24.462 -15.75)" fill="none" stroke="#1c0a2d" stroke-miterlimit="10" stroke-width="3"/>
        <text id="DIAS_ÚTEIS" data-name="DIAS ÚTEIS" transform="translate(231.695 168.013)" fill="#1c0a2d" font-size="20" font-family="Lato-Bold, Lato" font-weight="700"><tspan x="0" y="0">DIAS ÚTEIS</tspan></text>
        <path id="Caminho_903" data-name="Caminho 903" d="M172.926,444.692H143.932a7.252,7.252,0,0,1-7.252-7.247V415.692a7.252,7.252,0,0,1,7.252-7.252h28.994a7.252,7.252,0,0,1,7.252,7.252v21.752A7.247,7.247,0,0,1,172.926,444.692Z" transform="translate(-38.021 -149.456)" fill="#3f92cc"/>
        <path id="Caminho_904" data-name="Caminho 904" d="M173.926,367.489H144.932a7.252,7.252,0,0,1-7.252-7.252h0A7.252,7.252,0,0,1,144.932,353h28.994a7.252,7.252,0,0,1,7.252,7.252h0A7.252,7.252,0,0,1,173.926,367.489Z" transform="translate(-38.498 -123.005)" fill="#317aa4"/>
        <path id="Caminho_905" data-name="Caminho 905" d="M172.926,541.776H143.932a7.252,7.252,0,0,1-7.252-7.237V512.787a7.252,7.252,0,0,1,7.252-7.247h28.994a7.252,7.252,0,0,1,7.252,7.247v21.752A7.252,7.252,0,0,1,172.926,541.776Z" transform="translate(-38.021 -195.784)" fill="#3f92cc"/>
        <path id="Caminho_906" data-name="Caminho 906" d="M172.926,638.808H143.932a7.252,7.252,0,0,1-7.252-7.273V609.782a7.252,7.252,0,0,1,7.252-7.252h28.994a7.252,7.252,0,0,1,7.252,7.252v21.752a7.252,7.252,0,0,1-7.252,7.273Z" transform="translate(-38.021 -242.06)" fill="#3f92cc"/>
        <path id="Caminho_907" data-name="Caminho 907" d="M172.926,735.922H143.932a7.252,7.252,0,0,1-7.252-7.247V706.922a7.252,7.252,0,0,1,7.252-7.252h28.994a7.252,7.252,0,0,1,7.252,7.252v21.752A7.252,7.252,0,0,1,172.926,735.922Z" transform="translate(-38.021 -288.407)" fill="#3f92cc"/>
        <path id="Caminho_908" data-name="Caminho 908" d="M478.589,434.271l8.335,8.34a1.333,1.333,0,0,0,1.851,0l14.991-14.991a1.31,1.31,0,0,0-1.851-1.851L486.924,440.76h1.851l-8.335-8.335A1.308,1.308,0,0,0,478.589,434.271Z" transform="translate(-200.968 -157.541)" fill="#dbe3e7"/>
        <path id="Caminho_909" data-name="Caminho 909" d="M592.349,433.156l8.34,8.335a1.328,1.328,0,0,0,1.846,0L617.526,426.5a1.31,1.31,0,0,0-1.851-1.851L600.689,439.64h1.846l-8.335-8.335a1.31,1.31,0,0,0-1.851,1.851Z" transform="translate(-255.245 -157.006)" fill="#dbe3e7"/>
        <path id="Caminho_910" data-name="Caminho 910" d="M592.349,530.221l8.34,8.335a1.318,1.318,0,0,0,1.846,0l14.991-14.986a1.31,1.31,0,0,0-1.851-1.851L600.689,536.71h1.846l-8.335-8.335A1.308,1.308,0,0,0,592.349,530.221Z" transform="translate(-255.245 -203.32)" fill="#dbe3e7"/>
        <path id="Caminho_911" data-name="Caminho 911" d="M478.589,530.221l8.335,8.335a1.328,1.328,0,0,0,1.851,0l14.991-14.986a1.31,1.31,0,0,0-1.851-1.851L486.924,536.71h1.851l-8.335-8.335A1.308,1.308,0,0,0,478.589,530.221Z" transform="translate(-200.968 -203.32)" fill="#dbe3e7"/>
        <path id="Caminho_912" data-name="Caminho 912" d="M478.589,627.29l8.335,8.335a1.333,1.333,0,0,0,1.851,0l14.991-14.991a1.308,1.308,0,0,0-1.851-1.846l-14.991,14.986h1.851l-8.335-8.335A1.31,1.31,0,0,0,478.589,627.29Z" transform="translate(-200.968 -249.633)" fill="#dbe3e7"/>
        <path id="Caminho_913" data-name="Caminho 913" d="M592.349,627.29l8.34,8.335a1.323,1.323,0,0,0,1.846,0l14.991-14.991a1.308,1.308,0,0,0-1.851-1.846l-14.986,14.986h1.846l-8.335-8.335A1.31,1.31,0,0,0,592.349,627.29Z" transform="translate(-255.245 -249.633)" fill="#dbe3e7"/>
        <path id="Caminho_914" data-name="Caminho 914" d="M592.349,724.358l8.34,8.335a1.328,1.328,0,0,0,1.846,0L617.526,717.7a1.31,1.31,0,0,0-1.851-1.851l-14.986,14.991h1.846l-8.335-8.335a1.31,1.31,0,0,0-1.851,1.851Z" transform="translate(-255.245 -295.944)" fill="#dbe3e7"/>
        <path id="Caminho_915" data-name="Caminho 915" d="M478.589,724.358l8.335,8.335a1.333,1.333,0,0,0,1.851,0L503.766,717.7a1.31,1.31,0,0,0-1.851-1.851l-14.991,14.991h1.851l-8.335-8.335A1.31,1.31,0,0,0,478.589,724.358Z" transform="translate(-200.968 -295.944)" fill="#dbe3e7"/>
        <path id="Caminho_916" data-name="Caminho 916" d="M256.589,436.271l8.335,8.34a1.333,1.333,0,0,0,1.851,0l14.991-14.991a1.31,1.31,0,0,0-1.851-1.851L264.924,442.76h1.851l-8.335-8.335A1.308,1.308,0,0,0,256.589,436.271Z" transform="translate(-95.048 -158.495)" fill="#dbe3e7"/>
        <path id="Caminho_917" data-name="Caminho 917" d="M370.349,435.156l8.34,8.335a1.328,1.328,0,0,0,1.846,0L395.526,428.5a1.31,1.31,0,0,0-1.851-1.851L378.689,441.64h1.846l-8.335-8.335A1.31,1.31,0,0,0,370.349,435.156Z" transform="translate(-149.325 -157.961)" fill="#dbe3e7"/>
        <path id="Caminho_918" data-name="Caminho 918" d="M370.349,532.221l8.34,8.335a1.318,1.318,0,0,0,1.846,0l14.991-14.986a1.31,1.31,0,0,0-1.851-1.851L378.689,538.71h1.846l-8.335-8.335a1.308,1.308,0,0,0-1.851,1.846Z" transform="translate(-149.325 -204.274)" fill="#dbe3e7"/>
        <path id="Caminho_919" data-name="Caminho 919" d="M256.589,532.221l8.335,8.335a1.328,1.328,0,0,0,1.851,0l14.991-14.986a1.31,1.31,0,0,0-1.851-1.851L264.924,538.71h1.851l-8.335-8.335A1.308,1.308,0,0,0,256.589,532.221Z" transform="translate(-95.048 -204.274)" fill="#dbe3e7"/>
        <path id="Caminho_920" data-name="Caminho 920" d="M256.589,629.29l8.335,8.335a1.333,1.333,0,0,0,1.851,0l14.991-14.991a1.308,1.308,0,0,0-1.851-1.846l-14.991,14.986h1.851l-8.335-8.335a1.31,1.31,0,0,0-1.851,1.851Z" transform="translate(-95.048 -250.587)" fill="#dbe3e7"/>
        <path id="Caminho_921" data-name="Caminho 921" d="M370.349,629.29l8.34,8.335a1.323,1.323,0,0,0,1.846,0l14.991-14.991a1.308,1.308,0,0,0-1.851-1.846l-14.986,14.986h1.846l-8.335-8.335a1.31,1.31,0,0,0-1.851,1.851Z" transform="translate(-149.325 -250.587)" fill="#dbe3e7"/>
        <path id="Caminho_922" data-name="Caminho 922" d="M370.349,726.358l8.34,8.335a1.328,1.328,0,0,0,1.846,0L395.526,719.7a1.31,1.31,0,0,0-1.851-1.851l-14.986,14.991h1.846l-8.335-8.335A1.31,1.31,0,0,0,370.349,726.358Z" transform="translate(-149.325 -296.899)" fill="#dbe3e7"/>
        <path id="Caminho_923" data-name="Caminho 923" d="M256.589,726.358l8.335,8.335a1.333,1.333,0,0,0,1.851,0L281.766,719.7a1.31,1.31,0,0,0-1.851-1.851l-14.991,14.991h1.851l-8.335-8.335A1.31,1.31,0,0,0,256.589,726.358Z" transform="translate(-95.048 -296.899)" fill="#dbe3e7"/>
        <path id="Caminho_924" data-name="Caminho 924" d="M156.373,434.156l8.366,8.335a1.328,1.328,0,0,0,1.846,0L181.576,427.5a1.31,1.31,0,0,0-1.851-1.851L164.739,440.64h1.846l-8.335-8.335a1.31,1.31,0,0,0-1.851,1.851Z" transform="translate(-47.246 -157.484)" fill="#dbe3e7"/>
        <path id="Caminho_925" data-name="Caminho 925" d="M156.349,531.221l8.366,8.335a1.318,1.318,0,0,0,1.846,0l14.991-14.986a1.31,1.31,0,0,0-1.851-1.851L164.715,537.71h1.846l-8.361-8.335A1.308,1.308,0,0,0,156.349,531.221Z" transform="translate(-47.222 -203.797)" fill="#dbe3e7"/>
        <path id="Caminho_926" data-name="Caminho 926" d="M156.349,628.29l8.366,8.335a1.323,1.323,0,0,0,1.846,0l14.991-14.991a1.308,1.308,0,0,0-1.851-1.846l-15.012,14.986h1.846l-8.335-8.335a1.31,1.31,0,0,0-1.851,1.851Z" transform="translate(-47.222 -250.11)" fill="#dbe3e7"/>
        <path id="Caminho_927" data-name="Caminho 927" d="M156.373,725.358l8.366,8.335a1.328,1.328,0,0,0,1.846,0L181.576,718.7a1.31,1.31,0,0,0-1.851-1.851l-14.986,14.991h1.846l-8.335-8.335a1.31,1.31,0,0,0-1.851,1.851Z" transform="translate(-47.246 -296.422)" fill="#dbe3e7"/>
        <g id="Grupo_295" data-name="Grupo 295" transform="translate(471.12 121.815)" opacity="0.99">
          <path id="Caminho_928" data-name="Caminho 928" d="M913.409,146.11A64.44,64.44,0,1,1,849,210.54a64.44,64.44,0,0,1,64.409-64.43Z" transform="translate(-849 -146.11)" fill="#2f739a"/>
          <path id="Caminho_929" data-name="Caminho 929" d="M917.409,148.11A64.44,64.44,0,1,1,853,212.54a64.44,64.44,0,0,1,64.409-64.43Z" transform="translate(-850.908 -147.064)" fill="none" stroke="#1c0a2d" stroke-miterlimit="10" stroke-width="3"/>
          <path id="Caminho_930" data-name="Caminho 930" d="M923.514,167.29a53.366,53.366,0,1,1-53.334,53.355,53.365,53.365,0,0,1,53.334-53.355Z" transform="translate(-859.105 -156.215)" fill="#e5eaf6"/>
          <path id="Caminho_931" data-name="Caminho 931" d="M963.508,252.332l-18.536-41.627a2.065,2.065,0,1,0-3.77,1.678l18.536,41.627a2.065,2.065,0,0,0,3.77-1.678Z" transform="translate(-892.887 -176.305)" fill="#e01227"/>
          <path id="Caminho_932" data-name="Caminho 932" d="M966.043,265.2l-2.714,32.1a2.015,2.015,0,1,1-4.016-.34l2.719-32.105a2.013,2.013,0,0,1,4.01.34Zm19.321,14.066-21.266-10a3.775,3.775,0,0,1,3.211-6.829l21.266,9.992a3.775,3.775,0,0,1-3.211,6.834Z" transform="translate(-901.629 -201.467)" fill="#727272"/>
          <path id="Caminho_933" data-name="Caminho 933" d="M964.832,253.94A8.058,8.058,0,1,1,956.78,262,8.058,8.058,0,0,1,964.832,253.94Z" transform="translate(-900.423 -197.557)" fill="#e5e7e6"/>
          <path id="Caminho_934" data-name="Caminho 934" d="M968.506,261.64a4.031,4.031,0,1,1-4.026,4.031,4.031,4.031,0,0,1,4.026-4.031Z" transform="translate(-904.097 -201.231)" fill="#1c0a2d"/>
        </g>
        <circle id="Elipse_378" data-name="Elipse 378" cx="21.449" cy="21.449" r="21.449" transform="translate(56.99 172.948)" fill="#4292cc"/>
        <circle id="Elipse_379" data-name="Elipse 379" cx="21.449" cy="21.449" r="21.449" transform="translate(60.619 176.598)" fill="none" stroke="#1c0a2d" stroke-miterlimit="10" stroke-width="2"/>
        <circle id="Elipse_380" data-name="Elipse 380" cx="14.965" cy="14.965" r="14.965" transform="translate(486.607 471.599)" fill="#4292cc"/>
        <circle id="Elipse_381" data-name="Elipse 381" cx="14.965" cy="14.965" r="14.965" transform="translate(489.138 474.145)" fill="none" stroke="#1c0a2d" stroke-miterlimit="10" stroke-width="2"/>
      </g>
      <path id="Caminho_864" data-name="Caminho 864" d="M138.648,636.473a4.88,4.88,0,0,1-3.01,2.672,5.017,5.017,0,0,1-6.8-3.867l-4.022-15.88-14.43,7.425a5.472,5.472,0,0,1-2.335.675,4.916,4.916,0,0,1-2.289-.438,5.254,5.254,0,0,1-2.545-2.672,4.077,4.077,0,0,1-.164-3.566,5.036,5.036,0,0,1,2.527-2.417l16.883-8.282-4.825-19.072a4.779,4.779,0,0,1,.274-3.265,4.843,4.843,0,0,1,2.955-2.654,5.181,5.181,0,0,1,6.859,3.849l4.123,16.3,14.256-7.689a4.87,4.87,0,0,1,4.707-.383,4.716,4.716,0,0,1,2.563,2.736,4.4,4.4,0,0,1-.055,3.5,5.109,5.109,0,0,1-2.481,2.545L134.1,614.172l4.825,19.072A4.779,4.779,0,0,1,138.648,636.473Z" transform="translate(266.993 -16.316) rotate(17)" fill="none" stroke="#e6b54a" stroke-miterlimit="10" stroke-width="2"/>
      <g id="Grupo_294" data-name="Grupo 294" transform="translate(259 117.592)">
        <circle id="Elipse_317" data-name="Elipse 317" cx="26.611" cy="26.611" r="26.611" transform="translate(0 0)" fill="#4292cc"/>
        <circle id="Elipse_318" data-name="Elipse 318" cx="26.611" cy="26.611" r="26.611" transform="translate(4.499 4.519)" fill="none" stroke="#1c0a2d" stroke-miterlimit="10" stroke-width="2"/>
      </g>
    </g>
  </g>
</svg>
