<svg xmlns="http://www.w3.org/2000/svg" xmlns:xlink="http://www.w3.org/1999/xlink" width="228.077" height="246.123" viewBox="0 0 228.077 246.123">
  <defs>
    <linearGradient id="linear-gradient" x1="-0.151" y1="0.514" x2="1.016" y2="0.514" gradientUnits="objectBoundingBox">
      <stop offset="0" stop-color="#fff"/>
      <stop offset="0" stop-color="#4292cc"/>
      <stop offset="1" stop-color="#256b99"/>
    </linearGradient>
  </defs>
  <g id="Grupo_562" data-name="Grupo 562" transform="translate(-664.923 -131.877)">
    <g id="INFOGRÁFICO_3_-_CELULAR_2svg" data-name="INFOGRÁFICO 3 - CELULAR 2svg" transform="translate(611.553 72.695)">
      <g id="BIA_4" data-name="BIA 4" transform="translate(77.899 79.911)">
        <path id="Caminho_1022" data-name="Caminho 1022" d="M344.152,257.3c0,54.139-22.025,71.933-76.164,71.933S128.352,303.143,148.1,257.3C169.518,207.582,136.274,136,190.413,136S344.152,203.164,344.152,257.3Z" transform="translate(-142.725 -133.529)" fill="#3f92cc" opacity="0.2"/>
        <path id="Caminho_1023" data-name="Caminho 1023" d="M388.22,348.085H292.374a12.944,12.944,0,0,1-12.944-12.944V140.354a12.944,12.944,0,0,1,12.944-12.944h95.843a12.944,12.944,0,0,1,12.944,12.944V335.126A12.944,12.944,0,0,1,388.22,348.085Z" transform="translate(-238.346 -127.41)" fill="#727272"/>
        <path id="Caminho_1024" data-name="Caminho 1024" d="M443.907,161.431H428.7a3.806,3.806,0,1,1,0-7.611h15.211a3.806,3.806,0,0,1,0,7.611Z" transform="translate(-341.964 -146.223)" fill="#444b61"/>
        <path id="Caminho_1025" data-name="Caminho 1025" d="M525.091,161.431h-3.806a3.806,3.806,0,0,1,0-7.611h3.806a3.806,3.806,0,1,1,0,7.611Z" transform="translate(-407.921 -146.223)" fill="#444b61"/>
        <rect id="Retângulo_1543" data-name="Retângulo 1543" width="121.757" height="159.808" transform="translate(41.073 22.529)" fill="#3f92cc"/>
        <rect id="Retângulo_1544" data-name="Retângulo 1544" width="105.393" height="24.419" transform="translate(57.282 182.97)" fill="#727272"/>
        <circle id="Elipse_392" data-name="Elipse 392" cx="11.414" cy="11.414" r="11.414" transform="translate(92.562 190.236)" fill="#444544"/>
        <path id="Caminho_1026" data-name="Caminho 1026" d="M396.071,356.762H299.487a13.057,13.057,0,0,1-13.057-13.057V147.427a13.057,13.057,0,0,1,13.057-13.057h96.582a13.056,13.056,0,0,1,13.065,13.057V343.7a13.057,13.057,0,0,1-13.065,13.059Z" transform="translate(-243.332 -132.368)" fill="none" stroke="#1c0a2d" stroke-miterlimit="10" stroke-width="2"/>
        <path id="Caminho_1027" data-name="Caminho 1027" d="M452.229,168.7H436.894a3.834,3.834,0,0,1,0-7.669h15.335a3.834,3.834,0,0,1,0,7.669Z" transform="translate(-347.784 -151.359)" fill="none" stroke="#1c0a2d" stroke-miterlimit="10" stroke-width="2"/>
        <path id="Caminho_1028" data-name="Caminho 1028" d="M534.023,168.7h-3.829a3.834,3.834,0,1,1,0-7.669h3.829a3.834,3.834,0,0,1,0,7.669Z" transform="translate(-414.246 -151.359)" fill="none" stroke="#1c0a2d" stroke-miterlimit="10" stroke-width="2"/>
        <rect id="Retângulo_1545" data-name="Retângulo 1545" width="122.698" height="161.042" transform="translate(43.098 25.008)" fill="none" stroke="#1c0a2d" stroke-miterlimit="10" stroke-width="2"/>
        <circle id="Elipse_393" data-name="Elipse 393" cx="11.503" cy="11.503" r="11.503" transform="translate(94.984 193.719)" fill="none" stroke="#1c0a2d" stroke-miterlimit="10" stroke-width="2"/>
        <path id="Caminho_1029" data-name="Caminho 1029" d="M401.147,205.73V365.538H279.39Z" transform="translate(-238.318 -183.201)" fill="#88b9d6" opacity="0.41"/>
        <text id="_93_" data-name="93%" transform="translate(57.037 118.191)" fill="#1c0a2d" font-size="42" font-family="Lato-Bold, Lato" font-weight="700"><tspan x="0" y="0">93%</tspan></text>
        <text id="_93_2" data-name="93%" stroke-miterlimit="10" fill="none" stroke="#f3a51c" transform="translate(58.475 118.77)" stroke-width="2" font-size="42" font-family="Lato-Bold, Lato" font-weight="700" opacity="0.69"><tspan x="0" y="0">93%</tspan></text>
        <g id="Grupo_323" data-name="Grupo 323" transform="translate(178.085 45.495)" opacity="0.7">
          <path id="Caminho_1030" data-name="Caminho 1030" d="M759.381,347.281a28.7,28.7,0,0,0,0-40.614c-1.95-1.982-5,1.07-3.052,3.052a24.646,24.646,0,0,1,0,34.518c-1.947,1.982,1.1,5.034,3.052,3.052Z" transform="translate(-755.703 -300.141)" fill="#f3a51c"/>
          <path id="Caminho_1031" data-name="Caminho 1031" d="M799.411,335.783a35.045,35.045,0,0,0,0-49.571c-1.953-1.979-5.005,1.073-3.049,3.052a30.718,30.718,0,0,1,0,43.467c-1.953,1.979,1.1,5.031,3.049,3.052Z" transform="translate(-784.218 -285.57)" fill="#f3a51c"/>
        </g>
        <g id="Grupo_324" data-name="Grupo 324" transform="translate(0 47.486)" opacity="0.7">
          <path id="Caminho_1032" data-name="Caminho 1032" d="M191.5,303.787a28.7,28.7,0,0,0,0,40.614c1.95,1.982,5-1.07,3.049-3.052a24.652,24.652,0,0,1,0-34.518c1.95-1.982-1.1-5.034-3.049-3.052Z" transform="translate(-169.711 -300.073)" fill="#f3a51c"/>
          <path id="Caminho_1033" data-name="Caminho 1033" d="M146.875,293.132a35.042,35.042,0,0,0,0,49.571c1.953,1.979,5.005-1.073,3.049-3.052a30.718,30.718,0,0,1,0-43.467C151.878,294.2,148.828,291.153,146.875,293.132Z" transform="translate(-136.605 -292.49)" fill="#f3a51c"/>
        </g>
      </g>
      <g id="BIA_4_SIDE" data-name="BIA 4 SIDE" transform="translate(54.194 60.73)">
        <path id="Caminho_1034" data-name="Caminho 1034" d="M65.7,135.75c7.954-2.175,15.858,1.389,17.656,7.962,1.294,4.732-.932,9.731-5.244,12.973a12.579,12.579,0,0,0,3.774,3.886s-5.465-.247-8.374-1.694a15.137,15.137,0,0,1-2.014.7c-7.954,2.175-15.136-1.421-16.934-7.994S57.742,137.925,65.7,135.75Z" transform="translate(-54.194 -113.716)" fill="#2e414f"/>
        <path id="Caminho_1035" data-name="Caminho 1035" d="M110.366,160.572a12.58,12.58,0,0,1-3.774-3.886c4.315-3.242,6.538-8.241,5.244-12.973-1.8-6.573-9.7-10.137-17.656-7.962,0,0,6.314-1.458,11.178,1.571s6.4,7.151,5.178,11.94A12.619,12.619,0,0,1,105,156.47a8.158,8.158,0,0,0,5.37,4.1Z" transform="translate(-82.678 -113.716)" fill="#263845"/>
        <path id="Caminho_1036" data-name="Caminho 1036" d="M118.784,135.71a14.225,14.225,0,0,0,2.131,8.02c2.419,3.509,7.64,6.185,8.371,6.173l.328-1.533-10.488-12.608Z" transform="translate(-100.197 -114.142)" fill="#1d303b"/>
        <path id="Caminho_1037" data-name="Caminho 1037" d="M134.94,67.853c-10.79,2.951-17.561,12.57-15.122,21.485,1.755,6.42,7.8,10.724,15.079,11.529a11.07,11.07,0,0,1-1.387,5.836s4.741-2.226,7.125-5.923a24.03,24.03,0,0,0,3.133-.641c10.79-2.948,17.561-12.568,15.122-21.485S145.73,64.9,134.94,67.853Z" transform="translate(-100.587 -65.186)" fill="#4292cc"/>
        <path id="Caminho_1038" data-name="Caminho 1038" d="M133.511,108.84A11.168,11.168,0,0,0,134.9,103c-7.275-.805-13.324-5.109-15.079-11.529-2.439-8.917,4.332-18.533,15.122-21.485,0,0-8.379,2.652-11.969,9.55s-2.537,12.766,2.18,17.524,11.446,4.6,11.446,4.6S137.4,105.207,133.511,108.84Z" transform="translate(-100.587 -67.326)" fill="url(#linear-gradient)"/>
        <circle id="Elipse_394" data-name="Elipse 394" cx="2.692" cy="2.692" r="2.692" transform="translate(28.577 17.961)" fill="#e3e5e7"/>
        <circle id="Elipse_395" data-name="Elipse 395" cx="2.692" cy="2.692" r="2.692" transform="translate(36.462 15.804)" fill="#e3e5e7"/>
        <circle id="Elipse_396" data-name="Elipse 396" cx="2.692" cy="2.692" r="2.692" transform="translate(44.349 13.649)" fill="#e3e5e7"/>
        <path id="Caminho_1039" data-name="Caminho 1039" d="M68.158,129.5c7.954-2.175,15.858,1.392,17.653,7.962,1.294,4.732-.929,9.731-5.244,12.973a12.6,12.6,0,0,0,3.777,3.886s-5.465-.244-8.374-1.694a14.878,14.878,0,0,1-2.014.7c-7.954,2.175-15.139-1.421-16.934-7.994S60.208,131.675,68.158,129.5Z" transform="translate(-55.949 -109.264)" fill="none" stroke="#f3a51c" stroke-miterlimit="10" stroke-width="3" opacity="0.7"/>
        <path id="Caminho_1040" data-name="Caminho 1040" d="M137.394,61.6c-10.79,2.951-17.57,12.57-15.122,21.485,1.755,6.42,7.8,10.724,15.079,11.529a11.053,11.053,0,0,1-1.389,5.836s4.741-2.226,7.128-5.92a25.026,25.026,0,0,0,3.133-.639c10.79-2.951,17.547-12.57,15.122-21.488S148.184,58.645,137.394,61.6Z" transform="translate(-102.333 -60.73)" fill="none" stroke="#f3a51c" stroke-miterlimit="10" stroke-width="3" opacity="0.7"/>
        <g id="Grupo_325" data-name="Grupo 325" transform="translate(177.113 4.604)" opacity="0.7">
          <path id="Caminho_1041" data-name="Caminho 1041" d="M694.308,111.8a3.337,3.337,0,0,1-2.048,1.812,3.41,3.41,0,0,1-4.617-2.626L684.9,100.2l-9.78,5.045a3.7,3.7,0,0,1-1.585.457,3.317,3.317,0,0,1-1.556-.288,3.559,3.559,0,0,1-1.726-1.815,2.765,2.765,0,0,1-.109-2.416,3.409,3.409,0,0,1,1.726-1.645l11.469-5.624-3.276-12.944a3.212,3.212,0,0,1,.184-2.218,3.271,3.271,0,0,1,2.013-1.8,3.481,3.481,0,0,1,2.67.1,3.532,3.532,0,0,1,1.987,2.508l2.77,11.054,9.685-5.224a3.308,3.308,0,0,1,3.193-.265,3.2,3.2,0,0,1,1.74,1.852,3.006,3.006,0,0,1-.035,2.385,3.483,3.483,0,0,1-1.686,1.726l-11.357,5.532,3.279,12.944a3.244,3.244,0,0,1-.2,2.229Z" transform="translate(-669.913 -76.735)" fill="none" stroke="#f3a51c" stroke-miterlimit="10" stroke-width="2"/>
        </g>
      </g>
    </g>
  </g>
</svg>
