<svg xmlns="http://www.w3.org/2000/svg" xmlns:xlink="http://www.w3.org/1999/xlink" width="432.455" height="528.474" viewBox="0 0 432.455 528.474">
  <defs>
    <linearGradient id="linear-gradient" x1="-0.261" y1="0.668" x2="0.185" y2="1.106" gradientUnits="objectBoundingBox">
      <stop offset="0" stop-color="#502e25"/>
      <stop offset="1" stop-color="#201310"/>
    </linearGradient>
    <linearGradient id="linear-gradient-2" x1="2.924" y1="2.944" x2="3.872" y2="2.944" xlink:href="#linear-gradient"/>
    <linearGradient id="linear-gradient-3" x1="5.737" y1="0.925" x2="6.198" y2="1.37" xlink:href="#linear-gradient"/>
    <linearGradient id="linear-gradient-4" x1="-0.001" y1="0.5" x2="0.996" y2="0.5" gradientUnits="objectBoundingBox">
      <stop offset="0" stop-color="#fff"/>
      <stop offset="0" stop-color="#6191c9"/>
      <stop offset="1" stop-color="#446a96"/>
    </linearGradient>
    <linearGradient id="linear-gradient-5" x1="0" y1="0.5" x2="0.999" y2="0.5" xlink:href="#linear-gradient-4"/>
  </defs>
  <g id="Grupo_287" data-name="Grupo 287" transform="translate(-27.984 -109)">
    <g id="Grupo_262" data-name="Grupo 262">
      <path id="Caminho_482" data-name="Caminho 482" d="M546.66,317.626c0,87.026-126.2,97.265-213.223,97.265s-202.777,44.517-202.777-42.5S187.968,128.53,274.995,128.53,546.66,230.595,546.66,317.626Z" transform="translate(-87.66 116.246)" fill="#b0e8dc"/>
      <path id="Caminho_531" data-name="Caminho 531" d="M132.361,627.435a4.026,4.026,0,0,1-2.483,2.2,4.139,4.139,0,0,1-5.614-3.191l-3.319-13.1-11.905,6.126a4.515,4.515,0,0,1-1.926.557,4.055,4.055,0,0,1-1.889-.361,4.335,4.335,0,0,1-2.1-2.2,3.364,3.364,0,0,1-.135-2.942,4.154,4.154,0,0,1,2.085-1.994L119,605.694l-3.981-15.736a3.943,3.943,0,0,1,.226-2.694,4,4,0,0,1,2.438-2.19,4.274,4.274,0,0,1,5.659,3.176l3.4,13.448,11.762-6.344a4.018,4.018,0,0,1,3.883-.316,3.891,3.891,0,0,1,2.115,2.258,3.627,3.627,0,0,1-.045,2.89,4.215,4.215,0,0,1-2.047,2.1l-13.809,6.75,3.981,15.736A3.943,3.943,0,0,1,132.361,627.435Z" transform="translate(805.378 -121.518) rotate(49)" fill="none" stroke="#1c0a2d" stroke-miterlimit="10" stroke-width="2"/>
      <path id="Caminho_698" data-name="Caminho 698" d="M148.05,649.989a6.157,6.157,0,0,1-3.8,3.372,6.329,6.329,0,0,1-8.585-4.879l-5.075-20.035-18.205,9.367a6.9,6.9,0,0,1-2.946.852,6.2,6.2,0,0,1-2.888-.552,6.629,6.629,0,0,1-3.211-3.372,5.144,5.144,0,0,1-.207-4.5,6.353,6.353,0,0,1,3.188-3.05l21.3-10.449-6.088-24.063a6.029,6.029,0,0,1,.345-4.12,6.111,6.111,0,0,1,3.728-3.349,6.536,6.536,0,0,1,8.654,4.856l5.2,20.564,17.987-9.7a6.145,6.145,0,0,1,5.938-.483,5.95,5.95,0,0,1,3.234,3.452,5.547,5.547,0,0,1-.069,4.419,6.445,6.445,0,0,1-3.13,3.211l-21.117,10.322,6.088,24.063A6.03,6.03,0,0,1,148.05,649.989Z" transform="translate(256.285 -110.9)" fill="none" stroke="#dfa330" stroke-miterlimit="10" stroke-width="2"/>
      <g id="Grupo_260" data-name="Grupo 260" transform="translate(-204.092 184.783)">
        <circle id="Elipse_317" data-name="Elipse 317" cx="26.663" cy="26.663" r="26.663" transform="translate(264.346 328.705)" fill="#4292cc"/>
        <circle id="Elipse_318" data-name="Elipse 318" cx="26.663" cy="26.663" r="26.663" transform="translate(268.854 333.233)" fill="none" stroke="#1c0a2d" stroke-miterlimit="10" stroke-width="2"/>
      </g>
      <path id="Caminho_699" data-name="Caminho 699" d="M347.151,314.117c-27,57.471-77.288,23.457-132.73,23.457S121.86,359.83,121.86,304.392,246.3,211.83,301.744,211.83,374.15,256.646,347.151,314.117Z" transform="matrix(-0.921, -0.391, 0.391, -0.921, 276.367, 636.189)" fill="#4292cc" opacity="0.29"/>
    </g>
    <g id="tela1-2" transform="translate(98.422 91.49)">
      <g id="ESQUERDA_9_" transform="translate(191.444 309.078)">
        <g id="Grupo_266" data-name="Grupo 266">
          <g id="Grupo_265" data-name="Grupo 265">
            <path id="Caminho_700" data-name="Caminho 700" d="M112.23,150.012A61.59,61.59,0,0,1,110,161.139a138.282,138.282,0,0,1-4.451,13.574c-1.78,4.9-4.673,9.346-5.341,14.464-.445,4.451,5.118,6.676,8.233,4.005,7.343-6.008,10.459-19.582,13.129-28.261,1.113-4.005,2.225-8.011,3.115-12.016C121.8,149.122,115.568,146.9,112.23,150.012Z" transform="translate(-79.936 -148.537)" fill="#d99156"/>
            <g id="Grupo_264" data-name="Grupo 264" transform="translate(0 30.626)">
              <path id="Caminho_701" data-name="Caminho 701" d="M93.563,202.132a5.53,5.53,0,0,0-.223,1.78,2.315,2.315,0,0,0,2.893,1.335,5.294,5.294,0,0,0,2.893-2c3.783-4.005,6.676-13.8,9.569-12.684,2,.89.223,6.9-.668,10.9a21.946,21.946,0,0,0-.668,5.341c0,3.115,4.673,3.56,5.341.668.89-4.005.89-10.459,2.448-14.242a1.2,1.2,0,0,1,2.225,0l3.56,10.681c.668,1.558,2,3.338,3.56,2.67,1.335-.445,1.335-2.448,1.113-3.783a36.214,36.214,0,0,0-2.893-8.233c-.668-1.335-1.558-3.115-.445-4.45s3.338-.89,4.451.223c1.335,1.113,2.225,2.67,3.56,3.56,1.558.89,4.005.223,4.005-1.558a4.126,4.126,0,0,0-.445-1.558c-2.225-3.56-7.566-5.786-7.566-10.014,0-3.115,1.113-5.341.223-8.233-.668-2.448-1.335-3.56-3.338-4.451a9.672,9.672,0,0,1-4.673-3.115c-1.335-1.78-2.225-2.67-4.45-2.67a8.389,8.389,0,0,0-5.563,2.448c-1.558,1.335-2.893,3.56-4.451,5.118-2,2-4.005.668-6.453-.445-1.335-.668-2.67-1.335-4.005-1.113-1.558,0-2.67,1.78-2.448,3.338a6.664,6.664,0,0,0,.89,2.225c2.225,4.9,6.453,3.338,12.239,3.56C103.132,186.11,96.011,193.9,93.563,202.132Z" transform="translate(-91.087 -162.3)" fill="#d99156"/>
            </g>
          </g>
        </g>
      </g>
      <g id="Grupo_267" data-name="Grupo 267" transform="translate(163.879 402.901)">
        <path id="Caminho_702" data-name="Caminho 702" d="M111.634,190.7c0,38.274.445,99.024-5.341,130.177H98.727C92.719,279.487,85.6,233.87,78.7,190.7Z" transform="translate(-78.7 -190.7)" fill="#d99156"/>
        <path id="Caminho_703" data-name="Caminho 703" d="M91.476,250.522,84.8,260.759l24.255-1.78L98.6,250.3Z" transform="translate(-71.226 -117.675)" fill="#e6b54a"/>
      </g>
      <g id="Grupo_268" data-name="Grupo 268" transform="translate(103.352 401.566)">
        <path id="Caminho_704" data-name="Caminho 704" d="M84.434,192.77c-3.115,38.052-8.011,98.8-16.244,129.287-2.448-.223-5.118-.445-7.566-.668-2.67-41.835-6.008-87.675-9.124-131.29Z" transform="translate(-51.5 -190.1)" fill="#d99156"/>
        <path id="Caminho_705" data-name="Caminho 705" d="M59.766,250.4,52.2,259.746l24.255.445-9.569-9.569Z" transform="translate(-50.642 -116.217)" fill="#e6b54a"/>
      </g>
      <path id="Caminho_706" data-name="Caminho 706" d="M88.592,32.831c4.673-.445,9.569.445,12.016,4.228s-.223,10.681-4.673,10.9c4.9-2,10.459-2.893,15.354-1.558,4.9,1.558,8.678,5.786,8.678,11.126s-4.9,10.9-10.014,10.681c5.341.668,10.459,2.225,14.242,5.786a14.753,14.753,0,0,1,4.228,14.687c-1.558,5.341-7.343,10.014-12.461,8.9,4.005,3.115,7.566,8.011,6.231,13.352-1.113,4.9-6.008,8.233-10.9,9.124s-9.569-.223-14.019-1.335c-2.225,9.569-13.129,16.689-22.03,14.464-4.9-1.113-8.9-6.453-6.453-11.126-4.451,2.893-8.9,6.008-13.8,7.121-4.9,1.335-10.459.668-13.574-3.115-3.115-3.56-2.448-10.681,1.78-13.574-6.231,4.9-15.577,4.451-20.25-1.113s-3.783-15.132,1.78-20.917C16.716,87.8,11.821,78.449,13.6,69.548a13.514,13.514,0,0,1,4.228-7.566c4.005-2.893,9.346-1.335,13.574.223-3.56-4.451-2.67-12.239,2.225-16.244,4.673-4.005,12.239-3.783,15.577.668,2.448-4.673,4.9-9.569,8.678-13.129s9.569-5.786,14.019-3.783,5.786,8.9,2,12.461C75.463,36.392,82.584,33.276,88.592,32.831Z" transform="translate(4.969 14.029)" fill="url(#linear-gradient)"/>
      <circle id="Elipse_344" data-name="Elipse 344" cx="12.461" cy="12.461" r="12.461" transform="translate(73.312 81.575)" fill="#dfa330" stroke="#000" stroke-miterlimit="10" stroke-width="0.75"/>
      <path id="Caminho_707" data-name="Caminho 707" d="M56.644,53.467c0,1.335-2.67-1.113-6.9-2C46.631,50.8,40.4,54.135,40.4,52.8s3.115-6.231,9.569-5.341C55.532,48.349,56.867,52.132,56.644,53.467Z" transform="translate(38.252 36.563)" fill="#ebc477"/>
      <circle id="Elipse_345" data-name="Elipse 345" cx="12.461" cy="12.461" r="12.461" transform="translate(86.441 72.006)" fill="#dfa330" stroke="#000" stroke-miterlimit="10" stroke-width="0.75"/>
      <path id="Caminho_708" data-name="Caminho 708" d="M62.544,49.167c0,1.335-2.67-1.113-6.9-2C52.531,46.5,46.3,49.835,46.3,48.5s3.115-6.231,9.569-5.341C61.209,44.272,62.767,48.055,62.544,49.167Z" transform="translate(45.481 31.295)" fill="#ebc477"/>
      <path id="Caminho_709" data-name="Caminho 709" d="M72.095,79.417c-.89,4.45,0,9.124,1.558,14.019,1.113,3.338,7.788,3.783,8.678.445,1.113-5.118,0-12.016-1.558-16.022C78.77,73.409,72.985,73.854,72.095,79.417Z" transform="translate(76.653 70.25)" fill="#201f20"/>
      <path id="Caminho_710" data-name="Caminho 710" d="M65.033,163.08c-6.453-10.9-17.8-23.81-21.807-35.827-12.906-39.164,0-64.31,32.044-76.326,23.81-8.9,55.409-16.467,77.439.223C177.63,69.842,189.647,111.9,185.2,142.162c-.445,3.56-7.788,15.8-9.791,18.692s-7.566.223-10.9-.668Z" transform="translate(35.649 29.09)" fill="url(#linear-gradient-2)"/>
      <path id="Caminho_711" data-name="Caminho 711" d="M95.695,30.171c-4.45,1.335-8.678,4.228-9.569,8.678-.668,4.451,4.228,9.791,8.678,8.233-5.341.223-10.681,1.335-14.687,4.673-3.783,3.115-5.786,8.678-3.783,13.574s8.678,8.233,13.352,5.786c-4.673,2.67-8.678,6.231-10.9,10.9a14.975,14.975,0,0,0,1.78,15.132c3.56,4.451,10.681,6.231,14.909,3.338-2.67,4.451-4.005,10.236-.668,14.687,2.893,4.005,8.9,5.341,13.574,4.228s8.456-4.005,12.239-6.676c5.786,8.011,18.692,10.236,26.035,4.9,4.005-2.893,5.786-9.346,1.78-12.906,5.118.89,10.459,2,15.577,1.335s10.014-3.56,11.349-8.233-1.78-10.681-6.9-11.794c7.566,2.225,16.022-2,18.247-8.9s-2.448-15.577-9.791-18.692c6.453-5.563,7.343-16.022,2-23.588a12.764,12.764,0,0,0-6.9-5.341c-4.9-1.113-9.124,2.225-12.461,5.563,1.558-5.341-2.225-12.239-8.233-14.242S138.642,22.16,137.084,27.5c-4.005-3.338-8.233-6.9-13.129-8.9-4.9-1.78-11.126-1.558-14.242,2-3.338,3.56-2,10.459,3.115,12.239C109.046,28.391,101.48,28.169,95.695,30.171Z" transform="translate(81.314 0)" fill="url(#linear-gradient-3)"/>
      <path id="Caminho_712" data-name="Caminho 712" d="M175.334,136.028c-3.783-2.448-9.346-1.78-11.126,2.448-.223.445-.89,3.115-1.335,3.115-2.67-.445-.668-.223-3.56-.223.223,0-.445-10.014-1.113-21.807a28.316,28.316,0,0,1-7.788-8.456c-4.451-7.121-8.011-28.483-8.011-36.717C121.928,47.463,50.053,45.905,42.487,96.864c0,.445,11.571,26.7,1.558,35.381-8.9,7.788,8.9,47.62,46.063,44.282,17.8-1.558,62.752-13.8,71.431-24.478.445-.445,1.113-.445,1.335.223a10.283,10.283,0,0,0,3.783,3.783,1.687,1.687,0,0,0,.89.445c5.118,2,13.352-3.115,14.464-8.678C182.455,142.926,178.895,138.253,175.334,136.028Z" transform="translate(39.948 47.018)" fill="#ba7b43"/>
      <path id="Caminho_713" data-name="Caminho 713" d="M54.795,82.917c-.89,4.45,0,9.124,1.558,14.019,1.113,3.338,7.788,3.783,8.678.445,1.113-5.118,0-12.016-1.558-16.022C61.47,76.909,55.685,77.354,54.795,82.917Z" transform="translate(55.456 74.539)" fill="#201f20"/>
      <path id="Caminho_714" data-name="Caminho 714" d="M70.995,81.077c-.89,4.451,0,9.124,1.558,14.019,1.113,3.338,7.788,3.783,8.678.445,1.113-5.118,0-12.016-1.558-16.022C77.893,75.068,72.107,75.736,70.995,81.077Z" transform="translate(75.305 72.374)" fill="#201f20"/>
      <path id="Caminho_715" data-name="Caminho 715" d="M108.17,93.691c-3.115-1.335-6.008,0-8.233,2.448a1.579,1.579,0,0,0,.89,2.448,2.551,2.551,0,0,1,2.225,2.893c-.445,1.78-2.448,1.558-3.783,1.558a1.07,1.07,0,0,0-.89,1.558c1.78,3.115,6.453,1.335,7.788-1.335a5.519,5.519,0,0,0-1.78-6.676,3.137,3.137,0,0,1,3.115.223c1.335.668,1.558,2.448,2,3.783a1.091,1.091,0,0,0,2-.223C112.4,97.7,110.618,94.8,108.17,93.691Z" transform="translate(109.115 92.693)" fill="#915b23"/>
      <path id="VENTA_4_" d="M78.826,92.95A5.921,5.921,0,0,0,71.037,86.5c-1.113.445-2,.668-2.893,1.113h0c.668-.445.223-.223,0,0a7.857,7.857,0,0,0-7.788,6.231c-.668,3.783,2,8.233,6.008,8.678C72.818,102.964,77.713,99.181,78.826,92.95Z" transform="translate(62.578 84.088)" fill="#774928" opacity="0.6"/>
      <g id="ROUPA_4_" transform="translate(92.004 225.238)">
        <path id="Caminho_716" data-name="Caminho 716" d="M153.854,159.9c6.676,12.239-8.456,173.57-7.121,180.468-10.9,2.448-7.343.445-18.47,3.115-3.338-10.014-23.588-98.8-27.593-109.26L97.11,234c-.668,0,0,1.113-.223,1.78-6.676,19.36-16.022,92.348-22.7,109.26-8.233-1.78-11.794.223-20.027-1.558,1.335-36.717-6.676-121.054-1.78-157.548Z" transform="translate(-41.033 -50.775)" fill="#dde3e8"/>
        <g id="FRENTE_4_">
          <path id="Caminho_717" data-name="Caminho 717" d="M66.3,115.37c.445-.89.668-1.78,1.113-2.67A7.427,7.427,0,0,1,66.3,115.37Z" transform="translate(-22.017 -108.607)" fill="#6191c9"/>
          <path id="Caminho_718" data-name="Caminho 718" d="M82.4,112.7" transform="translate(-2.291 -108.607)" fill="#6191c9"/>
          <path id="Caminho_719" data-name="Caminho 719" d="M66.9,113.948c.445-.89.668-1.558,1.113-2.448A11.927,11.927,0,0,1,66.9,113.948Z" transform="translate(-21.282 -110.077)" fill="#6191c9"/>
          <path id="Caminho_720" data-name="Caminho 720" d="M67.5,111.5Z" transform="translate(-20.547 -110.077)" fill="#6191c9"/>
          <path id="Caminho_721" data-name="Caminho 721" d="M66.8,113.045c0-.223.223-.223.223-.445C67.023,112.823,67.023,112.823,66.8,113.045Z" transform="translate(-21.405 -108.729)" fill="#6191c9"/>
          <path id="Caminho_722" data-name="Caminho 722" d="M81.8,111.6" transform="translate(-3.026 -109.955)" fill="#6191c9"/>
          <path id="Caminho_723" data-name="Caminho 723" d="M92.463,115.4c1.335-2.225.668-3.783,3.115-4.005,8.011-.668,24.923-.668,25.368-.223,0,.223,2.225.89,2.448,1.113.445.445,0,.445.445,1.113a6.5,6.5,0,0,0,.445,2c.445.668,2.448.445,3.338.445,14.687,3.783,39.164,125.5,53.629,172.234-32.266,16.467-105.7,10.9-134.85-.668,9.791-39.387,9.124-156.435,44.728-169.787Z" transform="translate(-46.4 -110.861)" fill="#6191c9"/>
        </g>
      </g>
      <g id="ESQUERDA_8_" transform="translate(9.18 205.521)">
        <g id="Grupo_271" data-name="Grupo 271">
          <g id="Grupo_270" data-name="Grupo 270">
            <path id="Caminho_724" data-name="Caminho 724" d="M57.354,139c-3.338-1.78-6.676-3.783-9.791-5.786a108.3,108.3,0,0,1-11.126-8.9c-4.005-3.338-7.121-7.566-11.794-9.791-4.005-1.78-8.011,2.67-6.453,6.453,3.338,8.9,14.687,16.467,22.253,21.807,3.338,2.448,6.9,4.673,10.459,6.9C54.906,148.346,59.134,143.228,57.354,139Z" transform="translate(1.437 -87.152)" fill="#d99156"/>
            <g id="Grupo_269" data-name="Grupo 269">
              <path id="Caminho_725" data-name="Caminho 725" d="M13.23,102.668A2.527,2.527,0,0,0,11.45,102a2.437,2.437,0,0,0-2.225,2.448c-.223,1.113.445,2.448.89,3.56,2.448,4.9,10.681,10.9,8.678,13.352-2.67-1.335-10.014-1.113-5.118,6.453,0,.223-4.451.445-3.783,4.228.445,2.448-.223,2.67,1.335,4.9.445.445.89,4.228,2.225,5.118,2.225,1.113,4.228,1.113,6.9,2,2.893,1.113,6.676.89,9.569,1.113,2.448,0,3.338-1.113,4.673-2.893a9.48,9.48,0,0,1,4.451-3.338c2-.668,3.115-1.113,4.005-3.338a8.147,8.147,0,0,0-.445-6.008c-.89-2-1.558-4.673-2.448-6.676-1.113-2.448-5.118-11.126-11.794-6.231C20.8,112.681,20.128,107.563,13.23,102.668Z" transform="translate(-9.18 -102)" fill="#d99156"/>
            </g>
          </g>
        </g>
      </g>
      <path id="DIREITO_8_" d="M95.643,151.857s-5.786,21.362-32.934,20.472c-24.033-.668-26.7-4.451-39.609-4.451,4.005-5.341,15.132-34.936,15.132-34.936s20.917,14.242,29.6,15.577c15.577,2.67,36.494-24.478,52.961-35.159,6.008-4.005-2.893,4.451-14.464,14.242C101.874,133.388,95.643,151.857,95.643,151.857Z" transform="translate(17.055 116.194)" fill="url(#linear-gradient-4)"/>
      <path id="DIREITO_9_" d="M81.3,112.9c4.228,0,20.25,6.231,25.59,10.236,13.8,10.9,34.491,26.035,44.95,43.17,12.461,20.472,10.681,44.06,8.456,54.519-2.448,3.338-38.052-8.456-38.052-8.456s15.354-32.711,11.126-40.277c-7.566-14.019-13.574-16.912-31.821-23.81-3.56-1.335-7.121-9.346-8.011-12.461Z" transform="translate(88.365 116.876)" fill="url(#linear-gradient-5)"/>
      <path id="GOLA_5_" d="M100.246,115.773c0,3.115-6.676,6.231-16.244,6.231s-17.8-3.115-17.8-6.231c0-1.113,3.338-4.673,5.118-4.673.89,0-.445,2.893,1.558,3.338a56.625,56.625,0,0,0,11.571,1.113c3.783,0,7.566,0,10.236-.89,2.225-.89.668-3.115,1.335-3.338C99.579,110.432,100.246,114.438,100.246,115.773Z" transform="translate(69.864 114.671)" fill="#db9600"/>
      <path id="PESCOÇO_4_" d="M87.644,106.9c-1.78.445-10.459,2.448-14.242,3.56-.668,4.9-.445,3.338-2,9.569,6.453,1.113,15.132.445,15.132.445S86.977,113.576,87.644,106.9Z" transform="translate(76.235 109.525)" fill="#915b23"/>
      <path id="BOCA_15_" d="M69.267,69.856c-1.558.89-.89,2.893,1.335,2.448,3.56-.445,6.676-.668,9.791.89,2.67,1.335,3.56,3.56,4.9,5.563,1.113,1.335,3.783.89,4.005-.668C90.185,70.524,76.388,66.073,69.267,69.856Z" transform="translate(72.582 62.454)" fill="#201f20"/>
      <path id="Caminho_726" data-name="Caminho 726" d="M31.016,130.552c-.445,0-2,.89-6.008-1.113-1.78-.89-2.67-3.56-1.558-8.011a8.035,8.035,0,0,1-4.005.668c-.668,0-5.341-1.335-5.563-2-1.113-2,.89-5.341,1.558-6.008C17,112.305,20.78,110.08,21,109.858L23.45,108.3a61.31,61.31,0,0,0-6.676,6.453,7.363,7.363,0,0,0-.668,4.228,20.293,20.293,0,0,0,3.56,1.335c4.673,1.558,6.676-4.673,7.566-4.228.668.445-3.56,8.456-2.225,10.459C25.9,128.55,26.343,129.885,31.016,130.552Z" transform="translate(5.356 111.24)" fill="#915b23"/>
      <path id="BOCA_9_" d="M66.736,68.718c1.78.223,1.78,2.225-.223,2.67-3.56.89-6.453,1.78-8.9,4.45-2,2.225-1.78,4.673-2.448,6.9-.445,1.78-3.115,2.225-3.783.89C47.822,77.619,58.725,68.051,66.736,68.718Z" transform="translate(50.858 62.702)" fill="#201f20"/>
      <path id="Caminho_727" data-name="Caminho 727" d="M15.8,128.954l1.335-.223a3.806,3.806,0,0,0,2-1.335c.89-.89.445-2.893,0-3.56-.89-1.113-8.233-2.448-8.233-2.448l8.9,1.113c.668-.445,1.335-1.113,1.335-1.335A5,5,0,0,0,19.8,118.05L12.235,113.6l6.9,3.115a5.212,5.212,0,0,0,2.893.445c.668-.445.223-2.448.223-2.67l2.67.223a4.531,4.531,0,0,1-1.78,3.56c-.445.445-.89.445-1.558.668a3.759,3.759,0,0,1,.668,2.225,3.1,3.1,0,0,1-1.558,2.448c.223,1.335.668,4.005-1.335,4.9C18.243,129.4,16.241,128.954,15.8,128.954Z" transform="translate(2.107 117.734)" fill="#915b23"/>
      <path id="Caminho_728" data-name="Caminho 728" d="M71.1,114.639a51.861,51.861,0,0,1-8.9-.668s29.818-1.558,36.717-20.027a3.6,3.6,0,0,1,3.783-2.225h0a3.227,3.227,0,0,1,2.448,4.228C99.807,110.633,83.785,114.639,71.1,114.639Z" transform="translate(64.963 90.882)" fill="#915b23"/>
    </g>
  </g>
</svg>
