<svg xmlns="http://www.w3.org/2000/svg" xmlns:xlink="http://www.w3.org/1999/xlink" width="634.637" height="470.346" viewBox="0 0 634.637 470.346">
  <defs>
    <linearGradient id="linear-gradient" x1="-3.488" y1="0.355" x2="-3.949" y2="0.789" gradientUnits="objectBoundingBox">
      <stop offset="0" stop-color="#502e25"/>
      <stop offset="1" stop-color="#201310"/>
    </linearGradient>
    <linearGradient id="linear-gradient-2" x1="0.655" y1="0.355" x2="0.194" y2="0.789" xlink:href="#linear-gradient"/>
    <linearGradient id="linear-gradient-3" x1="-1.391" y1="2.693" x2="-2.373" y2="2.693" xlink:href="#linear-gradient"/>
    <linearGradient id="linear-gradient-4" x1="-3.004" y1="-1.683" x2="-3.875" y2="-1.683" gradientUnits="objectBoundingBox">
      <stop offset="0" stop-color="#e2ac56"/>
      <stop offset="1" stop-color="#d99156"/>
    </linearGradient>
    <linearGradient id="linear-gradient-5" x1="-0.639" y1="0.421" x2="-1.51" y2="0.421" xlink:href="#linear-gradient-4"/>
    <linearGradient id="linear-gradient-6" x1="0.998" y1="0.498" x2="-0.001" y2="0.498" gradientUnits="objectBoundingBox">
      <stop offset="0" stop-color="#fff"/>
      <stop offset="0" stop-color="#6191c9"/>
      <stop offset="1" stop-color="#446a96"/>
    </linearGradient>
    <linearGradient id="linear-gradient-7" x1="1.002" y1="0.5" x2="-0.001" y2="0.5" xlink:href="#linear-gradient-6"/>
    <clipPath id="clip-path">
      <rect id="Retângulo_1505" data-name="Retângulo 1505" width="127.523" height="135.794" transform="translate(134.891 0) rotate(83.39)" fill="none"/>
    </clipPath>
  </defs>
  <g id="Grupo_557" data-name="Grupo 557" transform="translate(-41.214 -148.312)">
    <g id="Grupo_307" data-name="Grupo 307" transform="translate(-108.786 34.884)">
      <g id="Grupo_302" data-name="Grupo 302" transform="translate(243.352 114.457)">
        <g id="Grupo_287" data-name="Grupo 287">
          <g id="Grupo_262" data-name="Grupo 262">
            <path id="Caminho_482" data-name="Caminho 482" d="M153.485,366.621c76.155,65.444,285.117,34.452,396.788-39.2S676.324,137.445,600.169,72s-247.4,50.192-377.78,77.219S77.33,301.177,153.485,366.621Z" transform="translate(-107.289 -4.267)" fill="#b0e8dc"/>
            <path id="Caminho_531" data-name="Caminho 531" d="M34.012,2.865A4.619,4.619,0,0,0,31.163.335,4.748,4.748,0,0,0,24.722,4L20.915,19.026,7.257,12a5.18,5.18,0,0,0-2.21-.639,4.652,4.652,0,0,0-2.167.415A4.973,4.973,0,0,0,.471,14.3,3.859,3.859,0,0,0,.316,17.68a4.766,4.766,0,0,0,2.391,2.288l15.98,7.839L14.12,45.859a4.524,4.524,0,0,0,.259,3.091,4.584,4.584,0,0,0,2.8,2.512,4.9,4.9,0,0,0,6.492-3.643l3.9-15.428,13.494,7.278a4.61,4.61,0,0,0,4.455.363,4.464,4.464,0,0,0,2.426-2.59,4.162,4.162,0,0,0-.052-3.315,4.836,4.836,0,0,0-2.348-2.409L29.7,23.974,34.271,5.921A4.524,4.524,0,0,0,34.012,2.865Z" transform="translate(305.542 381.26) rotate(131)" fill="none" stroke="#1c0a2d" stroke-miterlimit="10" stroke-width="2"/>
            <path id="Caminho_698" data-name="Caminho 698" d="M119.642,642.885a5.485,5.485,0,0,0,3.384,3,5.639,5.639,0,0,0,7.649-4.347L135.2,623.69l16.221,8.346a6.151,6.151,0,0,0,2.625.759,5.526,5.526,0,0,0,2.574-.492,5.907,5.907,0,0,0,2.861-3,4.583,4.583,0,0,0,.185-4.009,5.66,5.66,0,0,0-2.84-2.717l-18.979-9.31,5.424-21.44a5.372,5.372,0,0,0-.308-3.671,5.445,5.445,0,0,0-3.322-2.984,5.824,5.824,0,0,0-7.711,4.327l-4.635,18.323-16.026-8.643a5.475,5.475,0,0,0-5.291-.431,5.3,5.3,0,0,0-2.881,3.076,4.942,4.942,0,0,0,.062,3.937,5.743,5.743,0,0,0,2.789,2.861l18.815,9.2-5.424,21.44A5.373,5.373,0,0,0,119.642,642.885Z" transform="translate(380.218 -584.815)" fill="none" stroke="#dfa330" stroke-miterlimit="10" stroke-width="2"/>
            <g id="Grupo_260" data-name="Grupo 260" transform="translate(193.581 237.214)">
              <circle id="Elipse_317" data-name="Elipse 317" cx="32.177" cy="32.177" r="32.177" transform="translate(5.44)" fill="#4292cc"/>
              <circle id="Elipse_318" data-name="Elipse 318" cx="32.177" cy="32.177" r="32.177" transform="translate(0 5.465)" fill="none" stroke="#1c0a2d" stroke-miterlimit="10" stroke-width="2"/>
            </g>
          </g>
        </g>
        <g id="tela2" transform="translate(299.737 71.091)">
          <path id="Caminho_935" data-name="Caminho 935" d="M159.784,77.253c3.861.368,7.722,2.023,9.009,5.332,1.287,3.493-1.839,8.642-5.7,7.906,4.413-.735,9.009-.735,12.687,1.287a9.745,9.745,0,0,1,5.148,10.48c-.919,4.229-5.7,8.09-9.929,6.987,4.229,1.471,8.09,3.493,10.48,6.987s3.31,8.458,1.1,12.5c-2.206,4.229-7.538,6.8-11.584,5.148,2.758,3.126,4.964,7.722,2.942,11.767-1.839,3.677-6.251,5.7-10.3,5.7s-7.538-1.839-11.032-3.493c-3.493,7.355-13.422,11.4-20.225,8.09-3.677-1.839-6.251-6.619-3.493-10.113-4.045,1.655-8.274,3.31-12.5,3.493s-8.642-1.287-10.48-4.781-.368-9.009,3.677-10.664c-5.884,2.942-13.422,1.1-16.18-4.229-2.758-5.148-.552-12.871,4.781-16.732-6.068-3.493-8.458-11.767-5.516-18.754a9.745,9.745,0,0,1,4.781-5.332c3.861-1.839,7.722.368,11.032,2.39-2.206-4.045-.184-10.3,4.413-12.871,4.413-2.574,10.48-1.1,12.5,3.126,2.758-3.493,5.516-6.987,9.193-9.377s8.642-3.126,11.951-.735,3.31,8.274-.552,10.48C148.752,77.8,155,76.517,159.784,77.253Z" transform="translate(-91.418 -69.902)" fill="url(#linear-gradient)"/>
          <path id="Caminho_936" data-name="Caminho 936" d="M52.971,77.253c-3.861.368-7.722,2.023-9.009,5.332-1.287,3.493,1.839,8.642,5.7,7.906-4.413-.735-9.009-.735-12.687,1.287a9.745,9.745,0,0,0-5.148,10.48c.919,4.229,5.7,8.09,9.929,6.987-4.229,1.471-8.09,3.493-10.48,6.987s-3.31,8.458-1.1,12.5c2.206,4.229,7.538,6.8,11.584,5.148-2.758,3.126-4.964,7.722-2.942,11.767,1.839,3.677,6.251,5.7,10.3,5.7s7.538-1.839,11.032-3.493c3.493,7.355,13.422,11.4,20.225,8.09,3.677-1.839,6.251-6.619,3.493-10.113,4.045,1.655,8.274,3.31,12.5,3.493s8.642-1.287,10.48-4.781.368-9.009-3.677-10.664c5.884,2.942,13.422,1.1,16.18-4.229,2.758-5.148.552-12.871-4.78-16.732,6.068-3.493,8.458-11.767,5.516-18.754a9.746,9.746,0,0,0-4.78-5.332c-3.861-1.839-7.722.368-11.032,2.39,2.206-4.045.184-10.3-4.413-12.871-4.413-2.574-10.48-1.1-12.5,3.126C84.6,77.988,81.837,74.495,78.16,72.1s-8.642-3.126-11.951-.735-3.31,8.274.552,10.48C64,77.8,57.751,76.517,52.971,77.253Z" transform="translate(85.999 -69.902)" fill="url(#linear-gradient-2)"/>
          <circle id="Elipse_382" data-name="Elipse 382" cx="10.296" cy="10.296" r="10.296" transform="translate(129.776 27.759)" fill="#dfa330" stroke="#000" stroke-miterlimit="10" stroke-width="0.75"/>
          <path id="Caminho_937" data-name="Caminho 937" d="M62.616,92c.184,1.1,2.023-1.287,5.516-2.39,2.574-.735,8.09,1.287,7.722.184-.184-1.1-3.126-4.964-8.458-3.31C63.167,87.589,62.432,90.9,62.616,92Z" transform="translate(69.551 -56.336)" fill="#ebc477"/>
          <circle id="Elipse_383" data-name="Elipse 383" cx="10.296" cy="10.296" r="10.296" transform="translate(141.544 34.195)" fill="#dfa330" stroke="#000" stroke-miterlimit="10" stroke-width="0.75"/>
          <path id="Caminho_938" data-name="Caminho 938" d="M56.216,95.5c.184,1.1,2.023-1.287,5.516-2.39,2.574-.735,8.09,1.287,7.722.184S66.328,88.331,61,89.985C56.767,91.089,56.032,94.4,56.216,95.5Z" transform="translate(87.718 -53.4)" fill="#ebc477"/>
          <circle id="Elipse_384" data-name="Elipse 384" cx="10.296" cy="10.296" r="10.296" transform="translate(49.427 39.895)" fill="#dfa330" stroke="#000" stroke-miterlimit="10" stroke-width="0.75"/>
          <path id="Caminho_939" data-name="Caminho 939" d="M112.953,106.484c1.1.368-.184-2.39.368-6.068.368-2.574,4.6-6.619,3.493-6.987s-5.7.735-6.619,6.068C109.276,104.094,111.85,106.3,112.953,106.484Z" transform="translate(-58.745 -50.225)" fill="#ebc477"/>
          <circle id="Elipse_385" data-name="Elipse 385" cx="10.296" cy="10.296" r="10.296" transform="translate(60.275 32.172)" fill="#dfa330" stroke="#000" stroke-miterlimit="10" stroke-width="0.75"/>
          <path id="Caminho_940" data-name="Caminho 940" d="M107.053,102.284c1.1.368-.184-2.39.368-6.068.368-2.574,4.6-6.619,3.493-6.987s-5.7.735-6.619,6.068C103.376,99.894,105.95,102.1,107.053,102.284Z" transform="translate(-41.997 -53.748)" fill="#ebc477"/>
          <path id="Caminho_941" data-name="Caminho 941" d="M155.078,179.873c3.493-9.745,10.48-22.248,11.767-32.544,4.229-33.831-10.48-52.034-38.428-56.447-20.777-3.31-47.621-4.229-62.7,12.871-17.1,19.122-20.041,55.343-11.4,78.878.919,2.758,8.826,11.583,11.032,13.606s6.251-1.1,8.826-2.39Z" transform="translate(1.727 -53.929)" fill="url(#linear-gradient-3)"/>
          <path id="Caminho_942" data-name="Caminho 942" d="M51.872,180.539c2.574-2.574,7.355-2.942,9.377.184.184.368,1.287,2.39,1.655,2.39a15.317,15.317,0,0,1,2.758-.735c-.184,0-1.287-8.274-2.574-17.835a28.215,28.215,0,0,0,4.964-8.09c2.39-6.435,1.839-24.27.552-31.073,12.135-25.19,70.053-38.06,84.578,2.022.184.368-5.148,23.535,4.6,29.051,8.642,4.781.552,40.083-29.97,43.392-14.709,1.655-52.953-.919-61.779-8.274-.368-.368-.919-.184-1.1.368a8.539,8.539,0,0,1-2.39,3.677l-.552.552c-3.677,2.39-11.4-.368-13.054-4.781C47.275,187.342,49.3,183.113,51.872,180.539Z" transform="translate(10.61 -43.196)" fill="#ba7b43"/>
          <path id="Caminho_943" data-name="Caminho 943" d="M86.914,126.717a24.122,24.122,0,0,1,.919,11.584c-.368,2.942-5.7,4.413-6.8,1.655-1.839-3.861-2.023-9.745-1.287-13.238C80.479,122.856,85.259,122.3,86.914,126.717Z" transform="translate(26.498 -24.86)" fill="#201f20"/>
          <path id="Caminho_944" data-name="Caminho 944" d="M70.614,125.354a24.121,24.121,0,0,1,.919,11.584c-.368,2.942-5.7,4.413-6.8,1.655-1.839-3.861-2.023-9.745-1.287-13.238C64.179,121.677,68.959,121.125,70.614,125.354Z" transform="translate(72.768 -25.887)" fill="#201f20"/>
          <path id="Caminho_945" data-name="Caminho 945" d="M105.2,146.689a5.818,5.818,0,0,1,6.987.735,1.314,1.314,0,0,1-.368,2.206c-1.1.552-1.839,1.471-1.287,2.758.552,1.471,2.206.919,3.31.552a.911.911,0,0,1,1.1,1.1c-.919,2.758-4.964,2.206-6.435.184a4.7,4.7,0,0,1,.368-5.7,3.191,3.191,0,0,0-2.574.552c-.919.735-.919,2.206-1.1,3.31a.9.9,0,0,1-1.655.184C102.255,150.55,103.358,147.976,105.2,146.689Z" transform="translate(-43.818 -6.22)" fill="#915b23"/>
          <path id="VENTA_6_" d="M67.71,138.36a4.836,4.836,0,0,1,5.148-6.435,10.608,10.608,0,0,1,2.574.552h0c-.552-.184-.368-.184,0,0a6.055,6.055,0,0,1,7.171,3.861c1.1,2.942-.368,7.171-3.493,7.906C74.329,145.531,69.733,143.325,67.71,138.36Z" transform="translate(53.608 -17.933)" fill="#774928" opacity="0.6"/>
          <g id="ROUPA_5_" transform="translate(59.172 164.826)">
            <g id="FRENTE_6_">
              <path id="Caminho_946" data-name="Caminho 946" d="M68.019,163.406c-.368-.735-.552-1.471-.919-2.206A11.247,11.247,0,0,0,68.019,163.406Z" transform="translate(9.94 -158.161)" fill="#6191c9"/>
              <path id="Caminho_947" data-name="Caminho 947" d="M68.619,161.923c-.368-.735-.552-1.287-.919-2.023A9.853,9.853,0,0,0,68.619,161.923Z" transform="translate(8.236 -159.251)" fill="#6191c9"/>
              <path id="Caminho_948" data-name="Caminho 948" d="M68.338,159.9Z" transform="translate(7.598 -159.251)" fill="#6191c9"/>
              <path id="Caminho_949" data-name="Caminho 949" d="M67.784,161.368c0-.184-.184-.184-.184-.368C67.6,161.184,67.6,161.184,67.784,161.368Z" transform="translate(9.256 -158.328)" fill="#6191c9"/>
              <path id="Caminho_950" data-name="Caminho 950" d="M115.788,162.954a5.887,5.887,0,0,0-4.964-3.126c-6.619-.552-18.754-.184-18.938.184,0,.184-.552,1.1-.552,1.287a3.227,3.227,0,0,0-.735.919c0,.184-.919.735-.919.919-.368.552-1.287.184-2.022.368C75.521,166.631,51.251,248.451,39.3,287.063c67.479,22.983,92.3,21.145,129.073,4.045-8.09-32.544-21.7-115.284-51.115-126.315A5.634,5.634,0,0,1,115.788,162.954Z" transform="translate(-39.3 -159.547)" fill="#6191c9"/>
            </g>
          </g>
          <g id="ESQUERDA_10_" transform="translate(90.797 250.856)">
            <g id="Grupo_298" data-name="Grupo 298" transform="translate(0 0)">
              <g id="Grupo_297" data-name="Grupo 297">
                <path id="Caminho_951" data-name="Caminho 951" d="M91.585,207.556a50.888,50.888,0,0,0,1.839,9.193A114.255,114.255,0,0,0,97.1,227.965c1.471,4.045,3.861,7.722,4.413,11.951.368,3.677-4.229,5.516-6.8,3.31-6.068-4.964-8.642-16.18-10.848-23.351-.919-3.31-1.839-6.619-2.574-9.929C83.679,206.821,88.827,204.982,91.585,207.556Z" transform="translate(-81.289 -206.337)" fill="#d99156"/>
                <g id="Grupo_296" data-name="Grupo 296" transform="translate(1.287 25.305)">
                  <path id="Caminho_952" data-name="Caminho 952" d="M105.835,253.012a4.569,4.569,0,0,1,.184,1.471,1.913,1.913,0,0,1-2.39,1.1,4.375,4.375,0,0,1-2.39-1.655c-3.126-3.31-5.516-11.4-7.906-10.48-1.655.736-.184,5.7.552,9.009a18.133,18.133,0,0,1,.552,4.413c0,2.574-3.861,2.942-4.413.552-.735-3.31-.735-8.642-2.023-11.767a.991.991,0,0,0-1.839,0l-2.942,8.826c-.552,1.287-1.655,2.758-2.942,2.206-1.1-.368-1.1-2.023-.919-3.126a29.921,29.921,0,0,1,2.39-6.8c.552-1.1,1.287-2.574.368-3.677s-2.758-.735-3.677.184c-1.1.919-1.839,2.206-2.942,2.942-1.287.735-3.31.184-3.31-1.287a3.409,3.409,0,0,1,.368-1.287c1.839-2.942,6.251-4.781,6.251-8.274,0-2.574-.919-4.413-.184-6.8.552-2.022,1.1-2.942,2.758-3.677a7.992,7.992,0,0,0,3.861-2.574c1.1-1.471,1.839-2.206,3.677-2.206a6.931,6.931,0,0,1,4.6,2.023c1.287,1.1,2.39,2.942,3.677,4.229,1.655,1.655,3.31.552,5.332-.368a5.673,5.673,0,0,1,3.31-.919,2.366,2.366,0,0,1,2.023,2.758,5.506,5.506,0,0,1-.735,1.839c-1.839,4.045-5.332,2.758-10.113,2.942C97.928,239.773,103.812,246.209,105.835,253.012Z" transform="translate(-72.187 -220.1)" fill="#d99156"/>
                </g>
              </g>
            </g>
          </g>
          <path id="Caminho_953" data-name="Caminho 953" d="M108.2,258.809l-39.9-8.642L53.409,238.4,44.4,249.983l15.629,12.5,20.777,13.238Z" transform="translate(70.667 71.409)" fill="url(#linear-gradient-4)"/>
          <path id="Caminho_954" data-name="Caminho 954" d="M172.169,285.63s-98.92-7.722-109.032-36.957,26.66-43.76,40.083-36.038S178.6,268.531,178.6,268.531Z" transform="translate(-30.993 48.081)" fill="#dde3e8"/>
          <path id="Caminho_955" data-name="Caminho 955" d="M64,246.561l40.818,3.126,17.467-6.987,5.516,13.606-18.57,7.355-23.719,6.8Z" transform="translate(15.03 75.015)" fill="url(#linear-gradient-5)"/>
          <path id="Caminho_956" data-name="Caminho 956" d="M10.773,270.486s71.891-68.4,100.39-56.447,14.709,49.092,0,53.873c-14.709,4.964-91.933,18.754-91.933,18.754Z" transform="translate(112.935 49.803)" fill="#dde3e8"/>
          <path id="Caminho_957" data-name="Caminho 957" d="M114.73,162.655s-17.651,22.8-14.341,31.625l12.5,67.846-29.6,8.826s-3.126-45.6,0-57.918c6.8-26.293,15.261-38.428,16.548-40.634,3.31-5.516,15.629-11.4,15.629-11.4" transform="translate(-5.547 6.497)" fill="url(#linear-gradient-6)"/>
          <g id="ESQUERDA_7_" transform="translate(123.869 258.762)">
            <g id="Grupo_301" data-name="Grupo 301" transform="translate(0)">
              <g id="Grupo_300" data-name="Grupo 300" transform="translate(0)">
                <path id="Caminho_958" data-name="Caminho 958" d="M64.15,211.856a50.89,50.89,0,0,1-1.839,9.193,114.261,114.261,0,0,1-3.677,11.216c-1.471,4.045-3.861,7.722-4.413,11.951-.368,3.677,4.229,5.516,6.8,3.31,6.068-4.964,8.642-16.18,10.848-23.351.919-3.31,1.839-6.619,2.574-9.929C72.056,211.121,66.907,209.282,64.15,211.856Z" transform="translate(-37.466 -210.637)" fill="#d99156"/>
                <g id="Grupo_299" data-name="Grupo 299" transform="translate(0 25.306)">
                  <path id="Caminho_959" data-name="Caminho 959" d="M56.946,257.312a4.57,4.57,0,0,0-.184,1.471,1.913,1.913,0,0,0,2.39,1.1,4.375,4.375,0,0,0,2.39-1.655c3.126-3.31,5.516-11.4,7.906-10.48,1.655.735.184,5.7-.552,9.009a18.134,18.134,0,0,0-.552,4.413c0,2.574,3.861,2.942,4.413.552.735-3.31.735-8.642,2.023-11.767a.991.991,0,0,1,1.839,0l2.942,8.826c.552,1.287,1.655,2.758,2.942,2.206,1.1-.368,1.1-2.022.919-3.126a29.922,29.922,0,0,0-2.39-6.8c-.552-1.1-1.287-2.574-.368-3.677s2.758-.735,3.677.184c1.1.919,1.839,2.206,2.942,2.942,1.287.735,3.31.184,3.31-1.287a3.409,3.409,0,0,0-.368-1.287c-1.839-2.942-6.251-4.781-6.251-8.274,0-2.574.919-4.413.184-6.8-.552-2.023-1.1-2.942-2.758-3.677a7.992,7.992,0,0,1-3.861-2.574c-1.1-1.471-1.839-2.206-3.677-2.206a6.931,6.931,0,0,0-4.6,2.023c-1.287,1.1-2.39,2.942-3.677,4.229-1.655,1.655-3.31.552-5.332-.368a5.673,5.673,0,0,0-3.31-.919,2.366,2.366,0,0,0-2.023,2.758,5.505,5.505,0,0,0,.735,1.839c1.839,4.045,5.332,2.758,10.113,2.942C64.852,244.074,58.968,250.509,56.946,257.312Z" transform="translate(-54.9 -224.4)" fill="#d99156"/>
                </g>
              </g>
            </g>
          </g>
          <path id="Caminho_960" data-name="Caminho 960" d="M49.378,162.435s18.387,22.248,15.077,30.889l-12.5,67.846L81.554,270s4.229-40.818,0-57.918c-6.435-26.293-14.709-38.8-16.548-40.634S50.113,161.7,50.113,161.7" transform="translate(86.282 7.084)" fill="url(#linear-gradient-7)"/>
          <path id="GOLA_6_" d="M67,163.361c0,2.574,5.516,5.148,13.422,5.148s14.709-2.574,14.709-5.148c0-.919-2.758-3.861-4.229-3.861-.735,0,.368,2.39-1.287,2.758a46.787,46.787,0,0,1-9.561.919c-3.126,0-6.251,0-8.458-.735-1.839-.735-.552-2.574-1.1-2.758C67.552,158.948,67,162.258,67,163.361Z" transform="translate(42.183 5.239)" fill="#001d7e"/>
          <path id="PESCOÇO_5_" d="M72.2,155.026c1.471.368,8.09-.552,11.216.368.735,6.8.552,4.413,1.287,11.216a81.013,81.013,0,0,1-12.5.368A114.039,114.039,0,0,0,72.2,155.026Z" transform="translate(43.051 1.44)" fill="#915b23"/>
          <path id="BOCA_17_" d="M76.587,120.64c.184,1.471-1.655,2.023-2.39.184-1.287-2.942-2.574-5.332-5.332-6.987-2.206-1.287-4.413-.919-6.619-1.1-1.655-.184-2.574-2.39-1.471-3.31C65.923,105.2,76.035,113.469,76.587,120.64Z" transform="translate(73.047 -37.721)" fill="#201f20"/>
          <path id="BOCA_16_" d="M79.651,127.209c-.184,1.471,1.655,2.023,2.39.184,1.287-2.942,2.574-5.332,5.332-6.987,2.206-1.287,4.413-.919,6.619-1.1,1.655-.184,2.574-2.39,1.471-3.31C90.315,111.948,80.2,120.038,79.651,127.209Z" transform="translate(18.133 -32.155)" fill="#201f20"/>
          <path id="Caminho_961" data-name="Caminho 961" d="M91.338,142.3S77.548,153.884,61,148.735" transform="translate(57.009 -9.186)" fill="#915b23"/>
        </g>
      </g>
      <path id="Caminho_482-2" data-name="Caminho 482" d="M120.714,6.778C68.907,6.778,0-19.724,0,32.08S34.116,177.249,85.923,177.249,172.521,6.778,120.714,6.778Z" transform="matrix(0.574, -0.819, 0.819, 0.574, 214.318, 482.108)" fill="#4292cc" opacity="0.35"/>
      <g id="Grupo_304" data-name="Grupo 304" transform="translate(363.678 144.391)">
        <g id="Grupo_236" data-name="Grupo 236" transform="translate(0 0)" clip-path="url(#clip-path)">
          <path id="Caminho_505" data-name="Caminho 505" d="M704.8,220.922c5.193-2.638,97.3,69.74,97.3,69.74s4.678,9.291-2.732,13.1L758.3,324.643c-6.765,3.434-11.508.477-13.3-3.069s-43.8-86.235-46.051-90.66S699.611,223.56,704.8,220.922Zm0,0" transform="translate(-677.143 -191.093)" fill="#c7cbcb"/>
          <path id="Caminho_506" data-name="Caminho 506" d="M757.621,228.989a7.737,7.737,0,0,0-10.385-3.387l-42.617,21.669a7.719,7.719,0,0,0-3.387,10.376L745.87,345.5a7.737,7.737,0,0,0,10.385,3.387l42.617-21.659a7.737,7.737,0,0,0,3.387-10.385Zm0,0" transform="translate(-677.286 -218.313)" fill="#e3e5e7"/>
        </g>
        <path id="Caminho_507" data-name="Caminho 507" d="M749.3,335.405l49.176-24.99L758.486,231.74l-49.175,25Zm0,0" transform="translate(-677.86 -210.519)" fill="#2e414f"/>
        <path id="Caminho_510" data-name="Caminho 510" d="M767.651,220.79a11.268,11.268,0,0,0-4.49-1.427c-2.6-.242-4.069-.47-5.895.46l-42.617,21.659a7.738,7.738,0,0,0-3.387,10.385l44.656,87.853A7.719,7.719,0,0,0,766.3,343.1l42.617-21.659a7.728,7.728,0,0,0,3.387-10.385Zm0,2.419" transform="translate(-681.964 -208.887)" fill="none" stroke="#f3a51f" stroke-miterlimit="10" stroke-width="3" opacity="0.7"/>
      </g>
      <g id="Grupo_305" data-name="Grupo 305" transform="translate(151 286.683)">
        <circle id="Elipse_317-2" data-name="Elipse 317" cx="23.757" cy="23.757" r="23.757" transform="translate(4.016)" fill="#4292cc"/>
        <circle id="Elipse_318-2" data-name="Elipse 318" cx="23.757" cy="23.757" r="23.757" transform="translate(0 4.035)" fill="none" stroke="#1c0a2d" stroke-miterlimit="10" stroke-width="2"/>
      </g>
      <g id="Grupo_306" data-name="Grupo 306" transform="translate(316.91 483.775) rotate(173)">
        <path id="Caminho_519" data-name="Caminho 519" d="M93.331.682c-2.9.7-10.983,7.4-18.907,11.972a67.782,67.782,0,0,1-32.46,8.5C32.725,21.076,23.556,18.91,19.62,20,4.511,24.161-2.949,42.2,1.082,57.6h0C5.5,74.454,23.822,85.875,41.062,82.18l64.92-17c16.844-5.234,26.41-23.96,21.992-40.813h0C123.883,8.967,108.551-3.039,93.331.682Z" transform="translate(0 0)" fill="#293339"/>
        <path id="Caminho_520" data-name="Caminho 520" d="M26.934,15.787l-6.566,1.719,1.719,6.566L11.155,26.934,9.436,20.368,2.87,22.087,0,11.155,6.566,9.436,4.847,2.87,15.787,0l1.719,6.566,6.566-1.719Z" transform="translate(15.185 38.049)" fill="#e3e5e7"/>
        <line id="Linha_11" data-name="Linha 11" x1="5.517" y1="3.231" transform="translate(54.469 29.558)" fill="none" stroke="#ccd4d8" stroke-linecap="round" stroke-linejoin="round" stroke-width="2"/>
        <line id="Linha_12" data-name="Linha 12" x1="5.517" y1="3.231" transform="translate(63.217 27.272)" fill="none" stroke="#ccd4d8" stroke-linecap="round" stroke-linejoin="round" stroke-width="2"/>
        <path id="Caminho_521" data-name="Caminho 521" d="M0,0,10.6,40.478A10.21,10.21,0,0,0,23.023,47.74h0a10.2,10.2,0,0,0,7.262-12.418l-1.427-5.474A9.067,9.067,0,0,1,35.313,18.8h0a9.075,9.075,0,0,1,11.043,6.454l4.589,17.5" transform="translate(70.875 74.359)" fill="none" stroke="#394650" stroke-miterlimit="10" stroke-width="2"/>
        <circle id="Elipse_308" data-name="Elipse 308" cx="5.655" cy="5.655" r="5.655" transform="translate(93.684 39.038)" fill="#f3a51c"/>
        <circle id="Elipse_309" data-name="Elipse 309" cx="5.655" cy="5.655" r="5.655" transform="translate(109.471 27.891)" fill="#1c0a2d"/>
        <circle id="Elipse_310" data-name="Elipse 310" cx="5.655" cy="5.655" r="5.655" transform="translate(77.69 31.535)" fill="#35ad8c"/>
        <circle id="Elipse_311" data-name="Elipse 311" cx="5.655" cy="5.655" r="5.655" transform="translate(93.477 20.388)" fill="#e01227"/>
        <line id="Linha_13" data-name="Linha 13" y1="6.875" x2="26.246" transform="translate(57.073 59.406)" fill="none" stroke="#b0b7bc" stroke-linecap="round" stroke-linejoin="round" stroke-width="2"/>
        <path id="Caminho_522" data-name="Caminho 522" d="M93.352.68c-2.9.7-10.983,7.4-18.907,11.972a67.807,67.807,0,0,1-32.486,8.457c-9.247-.077-18.409-2.243-22.345-1.152C4.506,24.116-2.953,42.163,1.086,57.555h0C5.495,74.408,23.817,85.83,41.066,82.134l64.92-17c16.836-5.234,26.4-23.96,21.992-40.813h0C123.9,8.973,108.581-3.033,93.352.68Z" transform="translate(3.855 2.022)" fill="none" stroke="#f3a51f" stroke-miterlimit="10" stroke-width="3" opacity="0.7"/>
      </g>
    </g>
  </g>
</svg>
