<svg xmlns="http://www.w3.org/2000/svg" width="431.536" height="390.011" viewBox="0 0 431.536 390.011">
  <g id="Grupo_285" data-name="Grupo 285" transform="translate(-458.964 -207.989)">
    <g id="Grupo_281" data-name="Grupo 281">
      <path id="Caminho_759" data-name="Caminho 759" d="M496.5,337.253c0,83.606-218.825,188.81-302.431,188.81s-82.548-109.557-82.548-193.158S110.48,160.63,194.081,160.63,496.5,253.652,496.5,337.253Z" transform="translate(392.64 47.359)" fill="#3f92cc" opacity="0.19"/>
      <path id="Caminho_761" data-name="Caminho 761" d="M54.48,776.14H391.341v7.9h0a7.921,7.921,0,0,1-7.9,7.907H62.372a7.921,7.921,0,0,1-7.892-7.9h0Z" transform="translate(422.247 -272.13)" fill="#b4b3b3"/>
      <path id="Caminho_762" data-name="Caminho 762" d="M338.708,677.65H107.114L54.48,725.017H391.341Z" transform="translate(422.247 -221.008)" fill="#dbe3e7"/>
      <path id="Caminho_763" data-name="Caminho 763" d="M111.52,725.852l29.241-26.322H364.275l29.241,26.322Z" transform="translate(392.64 -232.365)" fill="#f5f5f5"/>
      <path id="Caminho_764" data-name="Caminho 764" d="M397.342,776.14a5.29,5.29,0,0,1-5.29,5.29h-36.82a5.261,5.261,0,0,1-5.261-5.29Z" transform="translate(268.869 -272.13)" fill="#e6e6e5"/>
      <path id="Caminho_765" data-name="Caminho 765" d="M163.92,515.748V373.632a7.916,7.916,0,0,1,7.892-7.892H387.617a7.916,7.916,0,0,1,7.9,7.892V515.748Z" transform="translate(365.441 -59.106)" fill="#263841"/>
      <rect id="Retângulo_1529" data-name="Retângulo 1529" width="200.011" height="121.061" transform="translate(545.15 322.423)" fill="#3f92cc"/>
      <circle id="Elipse_354" data-name="Elipse 354" cx="2.631" cy="2.631" r="2.631" transform="translate(745.161 459.273)" fill="#35ad8c"/>
      <circle id="Elipse_355" data-name="Elipse 355" cx="2.631" cy="2.631" r="2.631" transform="translate(642.525 311.895)" fill="#e01227"/>
      <path id="Caminho_766" data-name="Caminho 766" d="M652.527,792.321H626.211a2.631,2.631,0,1,1,0-5.261h26.317a2.631,2.631,0,0,1,0,5.261Z" transform="translate(126.847 -277.799)" fill="#263841"/>
      <path id="Caminho_767" data-name="Caminho 767" d="M60,772.15H396.837v7.892h0a7.921,7.921,0,0,1-7.878,7.907H67.868A7.921,7.921,0,0,1,60,780.042h0Z" transform="translate(419.382 -270.06)" fill="none" stroke="#1c0a2d" stroke-miterlimit="10" stroke-width="2"/>
      <path id="Caminho_768" data-name="Caminho 768" d="M344.178,673.65H112.584L59.95,721.017H396.811Z" transform="translate(419.408 -218.932)" fill="none" stroke="#1c0a2d" stroke-miterlimit="10" stroke-width="2"/>
      <path id="Caminho_769" data-name="Caminho 769" d="M116.99,721.857l29.241-26.317H369.745l29.241,26.317Z" transform="translate(389.8 -230.294)" fill="none" stroke="#1c0a2d" stroke-miterlimit="10" stroke-width="2"/>
      <path id="Caminho_770" data-name="Caminho 770" d="M402.812,772.15a5.261,5.261,0,0,1-5.261,5.261H360.706a5.29,5.29,0,0,1-5.266-5.261Z" transform="translate(266.029 -270.06)" fill="none" stroke="#1c0a2d" stroke-miterlimit="10" stroke-width="2"/>
      <path id="Caminho_771" data-name="Caminho 771" d="M169.39,511.748V369.632a7.916,7.916,0,0,1,7.9-7.892h215.8a7.916,7.916,0,0,1,7.9,7.892V511.748Z" transform="translate(362.601 -57.03)" fill="none" stroke="#1c0a2d" stroke-miterlimit="10" stroke-width="2"/>
      <rect id="Retângulo_1530" data-name="Retângulo 1530" width="200.011" height="121.061" transform="translate(547.781 320.499)" fill="none" stroke="#1c0a2d" stroke-miterlimit="10" stroke-width="2"/>
      <circle id="Elipse_356" data-name="Elipse 356" cx="2.631" cy="2.631" r="2.631" transform="translate(747.797 457.349)" fill="none" stroke="#1c0a2d" stroke-miterlimit="10" stroke-width="2"/>
      <circle id="Elipse_357" data-name="Elipse 357" cx="2.631" cy="2.631" r="2.631" transform="translate(645.155 309.972)" fill="none" stroke="#1c0a2d" stroke-miterlimit="10" stroke-width="2"/>
      <path id="Caminho_772" data-name="Caminho 772" d="M658,788.321H631.681a2.631,2.631,0,1,1,0-5.261H658a2.631,2.631,0,0,1,0,5.261Z" transform="translate(124.008 -275.722)" fill="none" stroke="#1c0a2d" stroke-miterlimit="10" stroke-width="2"/>
      <path id="Caminho_773" data-name="Caminho 773" d="M763.264,522.368l-63.633-.481a8.6,8.6,0,0,1-8.541-8.657l.919-129.3a8.6,8.6,0,0,1,8.657-8.541l63.628.481a8.6,8.6,0,0,1,8.541,8.657l-.962,129.309A8.6,8.6,0,0,1,763.264,522.368Z" transform="translate(91.805 -64.115)" fill="#dbe3e7"/>
      <circle id="Elipse_358" data-name="Elipse 358" cx="7.58" cy="7.58" r="7.58" transform="translate(815.762 437.814)" fill="#fff"/>
      <path id="Caminho_774" data-name="Caminho 774" d="M763.567,391.347l-10.1-.072a2.53,2.53,0,0,1,.038-5.055l10.1.077a2.525,2.525,0,0,1-.039,5.05Z" transform="translate(60.674 -69.737)" fill="#444b61"/>
      <path id="Caminho_775" data-name="Caminho 775" d="M792.515,391.541H789.99a2.53,2.53,0,1,1,.034-5.055h2.53a2.525,2.525,0,1,1-.039,5.05Z" transform="translate(41.83 -69.873)" fill="#444b61"/>
      <rect id="Retângulo_1531" data-name="Retângulo 1531" width="106.099" height="80.84" transform="translate(783.043 432.484) rotate(-89.58)" fill="#3f92cc"/>
      <path id="Caminho_776" data-name="Caminho 776" d="M769.509,515.858l-63.633-.481a8.6,8.6,0,0,1-8.537-8.657l.938-129.314a8.594,8.594,0,0,1,8.657-8.537l63.632.481a8.594,8.594,0,0,1,8.537,8.657l-.962,129.314A8.6,8.6,0,0,1,769.509,515.858Z" transform="translate(88.561 -60.731)" fill="none" stroke="#1c0a2d" stroke-miterlimit="10" stroke-width="2"/>
      <circle id="Elipse_359" data-name="Elipse 359" cx="7.58" cy="7.58" r="7.58" transform="translate(818.768 434.683)" fill="none" stroke="#1c0a2d" stroke-miterlimit="10" stroke-width="2"/>
      <path id="Caminho_777" data-name="Caminho 777" d="M769.7,384.847l-10.1-.077a2.525,2.525,0,1,1,.034-5.05l10.1.072a2.53,2.53,0,0,1-.034,5.055Z" transform="translate(57.544 -66.363)" fill="none" stroke="#1c0a2d" stroke-miterlimit="10" stroke-width="2"/>
      <path id="Caminho_778" data-name="Caminho 778" d="M798.885,385.08h-2.53a2.525,2.525,0,0,1,.039-5.05h2.525a2.53,2.53,0,0,1-.034,5.055Z" transform="translate(38.466 -66.523)" fill="none" stroke="#1c0a2d" stroke-miterlimit="10" stroke-width="2"/>
      <rect id="Retângulo_1532" data-name="Retângulo 1532" width="106.099" height="80.84" transform="translate(786.042 429.359) rotate(-89.58)" fill="none" stroke="#1c0a2d" stroke-miterlimit="10" stroke-width="2"/>
      <circle id="Elipse_360" data-name="Elipse 360" cx="55.942" cy="55.942" r="55.942" transform="translate(467.618 230.305)" fill="#3f92cc"/>
      <path id="Caminho_779" data-name="Caminho 779" d="M36.857,391.4,17.62,424.767l22.464-1.193,10.2,20.055,17.795-30.871A55.885,55.885,0,0,1,36.857,391.4Z" transform="translate(441.38 -72.425)" fill="#1c0a2d"/>
      <path id="Caminho_780" data-name="Caminho 780" d="M212.705,391.06a55.894,55.894,0,0,1-31.145,21.469l17.862,30.924L209.627,423.4l22.469,1.193Z" transform="translate(356.284 -72.249)" fill="#1c0a2d"/>
      <circle id="Elipse_361" data-name="Elipse 361" cx="40.552" cy="40.552" r="40.552" transform="translate(483.008 245.695)" fill="#dbe3e7"/>
      <path id="Caminho_781" data-name="Caminho 781" d="M114.39,308.913l-1.977,10.47h-2.886a1.736,1.736,0,0,1-1.332-.616,2.14,2.14,0,0,1-.568-1.515,1.957,1.957,0,0,1,0-.24.568.568,0,0,1,.038-.245l1.515-7.854H103.92l-1.491,8.176a2.544,2.544,0,0,1-1.053,1.77,3.242,3.242,0,0,1-1.823.539H96.759l1.924-10.47H95.759a1.809,1.809,0,0,1-1.26-.4,1.712,1.712,0,0,1-.438-1.323,5.448,5.448,0,0,1,.077-.818l.337-2.03h4.877l1.332-7.084H95.191l.481-2.645a2.275,2.275,0,0,1,.8-1.443,3.3,3.3,0,0,1,2-.481h2.852l1.587-8.267a2.549,2.549,0,0,1,.962-1.587,2.784,2.784,0,0,1,1.746-.568H108.5l-1.972,10.407h5.242l1.972-10.422h2.823a2.1,2.1,0,0,1,1.443.515,1.693,1.693,0,0,1,.563,1.308,2.439,2.439,0,0,1-.024.385l-1.592,8.214h5.209l-.481,2.645a2.241,2.241,0,0,1-.808,1.443,3.313,3.313,0,0,1-1.991.481h-2.544l-1.308,7.084h3.641a1.741,1.741,0,0,1,1.246.4,1.78,1.78,0,0,1,.423,1.347,4.89,4.89,0,0,1-.077.822l-.308,2Zm-9.83-4.569h5.261l1.308-7.084H105.9Z" transform="translate(401.707 -15.779)" fill="#3f92cc"/>
      <path id="Caminho_782" data-name="Caminho 782" d="M165.369,314.611h7.522V292.969c0-.837.024-1.722.077-2.645l-5.314,4.473a1.871,1.871,0,0,1-.678.385,2.451,2.451,0,0,1-.683.1,2.039,2.039,0,0,1-.962-.216,1.736,1.736,0,0,1-.625-.481l-2.006-2.746,11.321-9.619h5.209v32.415h6.7v4.747H165.393Z" transform="translate(366.074 -15.754)" fill="#3f92cc"/>
      <path id="Caminho_783" data-name="Caminho 783" d="M117.076,311.468l-1.957,10.475h-2.886a1.76,1.76,0,0,1-1.332-.616,2.16,2.16,0,0,1-.567-1.515,1.979,1.979,0,0,1,0-.245.548.548,0,0,1,.038-.24l1.515-7.854h-5.261l-1.491,8.176a2.568,2.568,0,0,1-1.048,1.77,3.251,3.251,0,0,1-1.823.524h-2.8l1.948-10.47H98.464a1.818,1.818,0,0,1-1.26-.4,1.727,1.727,0,0,1-.433-1.323,4.891,4.891,0,0,1,.077-.822l.332-2.025h4.877l1.332-7.084H97.9l.481-2.645a2.28,2.28,0,0,1,.794-1.443,3.367,3.367,0,0,1,2-.481h2.852l1.592-8.267a2.544,2.544,0,0,1,.962-1.592,2.809,2.809,0,0,1,1.746-.563h2.886l-1.953,10.422h5.223l1.977-10.422h2.823a2.088,2.088,0,0,1,1.443.515,1.7,1.7,0,0,1,.567,1.308,1.922,1.922,0,0,1-.029.385l-1.592,8.214h5.213l-.481,2.64a2.241,2.241,0,0,1-.808,1.443,3.309,3.309,0,0,1-1.986.481h-2.559L117.74,306.9H121.4a1.746,1.746,0,0,1,1.241.394,1.8,1.8,0,0,1,.428,1.351,5.447,5.447,0,0,1-.077.818l-.313,2.006Zm-9.83-4.569h5.261l1.332-7.079H108.6Z" transform="translate(400.3 -17.107)" fill="none" stroke="#1c0a2d" stroke-miterlimit="10" stroke-width="2"/>
      <path id="Caminho_784" data-name="Caminho 784" d="M168.119,317.156h7.517V295.514c0-.842.029-1.722.077-2.645l-5.338,4.468a1.87,1.87,0,0,1-.678.385,2.4,2.4,0,0,1-.683.1,2.005,2.005,0,0,1-.933-.216,1.717,1.717,0,0,1-.63-.481l-2-2.746,11.316-9.619h5.213v32.42h6.671v4.728H168.119Z" transform="translate(364.647 -17.072)" fill="none" stroke="#1c0a2d" stroke-miterlimit="10" stroke-width="2"/>
      <circle id="Elipse_362" data-name="Elipse 362" cx="55.942" cy="55.942" r="55.942" transform="translate(469.364 229.372)" fill="none" stroke="#1c0a2d" stroke-miterlimit="10" stroke-width="2"/>
      <path id="Caminho_785" data-name="Caminho 785" d="M40.5,389.46,21.26,422.827l22.479-1.193,10.205,20.05,17.795-30.866A55.913,55.913,0,0,1,40.5,389.46Z" transform="translate(439.491 -71.418)" fill="none" stroke="#1c0a2d" stroke-miterlimit="10" stroke-width="2"/>
      <path id="Caminho_786" data-name="Caminho 786" d="M216.38,389.11a55.923,55.923,0,0,1-31.15,21.469L203.092,441.5l10.21-20.05,22.464,1.193Z" transform="translate(354.379 -71.237)" fill="none" stroke="#1c0a2d" stroke-miterlimit="10" stroke-width="2"/>
      <circle id="Elipse_363" data-name="Elipse 363" cx="40.552" cy="40.552" r="40.552" transform="translate(484.754 244.762)" fill="none" stroke="#1c0a2d" stroke-miterlimit="10" stroke-width="2"/>
      <g id="Grupo" transform="translate(584.731 358.426)">
        <text id="Escolas" transform="translate(24.383 21)" fill="#1c0a2d" font-size="21" font-family="Lato-Bold, Lato" font-weight="700"><tspan x="0" y="0">Escolas</tspan></text>
        <text id="P" transform="translate(0 48.562)" fill="#1c0a2d" font-size="21" font-family="Lato-Bold, Lato" font-weight="700" letter-spacing="-0.02em"><tspan x="0" y="0">P</tspan></text>
        <text id="articulares" transform="translate(13.779 48.562)" fill="#1c0a2d" font-size="21" font-family="Lato-Bold, Lato" font-weight="700"><tspan x="0" y="0">articulares</tspan></text>
      </g>
    </g>
    <g id="Grupo_283" data-name="Grupo 283" transform="translate(91.5 -25)">
      <text id="INTERNET" transform="translate(783 594)" fill="#3f92cc" font-size="20" font-family="Lato-Bold, Lato" font-weight="700"><tspan x="-96.32" y="0">INTERNET</tspan></text>
      <text id="Computadores_e_Celulares" data-name="Computadores e Celulares" transform="translate(783 618)" fill="#1c0a2d" font-size="20" font-family="RobotoSlab-Regular, Roboto Slab"><tspan x="-247.012" y="0">Computadores e Celulares</tspan></text>
      <line id="Linha_15" data-name="Linha 15" y2="41" transform="translate(798.5 578.5)" fill="none" stroke="#707070" stroke-width="1"/>
    </g>
  </g>
</svg>
