<svg xmlns="http://www.w3.org/2000/svg" width="628.977" height="410.73" viewBox="0 0 628.977 410.73">
  <g id="Grupo_556" data-name="Grupo 556" transform="translate(-693 -213.77)">
    <path id="Caminho_482" data-name="Caminho 482" d="M758.683,414c0,131.381-190.515,146.839-321.9,146.839S130.66,628.048,130.66,496.676,250.126,348.773,378.7,294.487,758.683,282.614,758.683,414Z" transform="translate(1451.683 793.03) rotate(-180)" fill="#f1f5f9"/>
    <g id="Grupo_369" data-name="Grupo 369">
      <g id="Grupo_364" data-name="Grupo 364" transform="translate(539 12)">
        <path id="Caminho_1154" data-name="Caminho 1154" d="M10,0H82A10,10,0,0,1,92,10V231.1H0V10A10,10,0,0,1,10,0Z" transform="translate(584 300.5)" fill="#f6c774"/>
        <path id="Retângulo_1460" data-name="Retângulo 1460" d="M10,0H82A10,10,0,0,1,92,10V194a0,0,0,0,1,0,0H0a0,0,0,0,1,0,0V10A10,10,0,0,1,10,0Z" transform="translate(476 337.5)" fill="#4cb9f6"/>
        <text id="_46_" data-name="46%" transform="translate(500 377.5)" fill="#fbfbfb" font-size="24" font-family="Lato-Bold, Lato" font-weight="700"><tspan x="0" y="0">46%</tspan></text>
        <text id="_54_" data-name="54%" transform="translate(606 340.5)" fill="#fbfbfb" font-size="24" font-family="Lato-Bold, Lato" font-weight="700"><tspan x="0" y="0">54%</tspan></text>
        <text id="Jogou_na_internet_conectado_com_outros_jogadores" data-name="Jogou na internet conectado
com outros jogadores" transform="translate(476 547.5)" fill="#727272" font-size="14" font-family="RobotoSlab-Regular, Roboto Slab"><tspan x="5.23" y="15">Jogou na internet conectado</tspan><tspan x="29.156" y="35">com outros jogadores</tspan></text>
      </g>
      <g id="Grupo_365" data-name="Grupo 365" transform="translate(108 13)">
        <path id="Retângulo_1464" data-name="Retângulo 1464" d="M10,0H82A10,10,0,0,1,92,10V154.1a0,0,0,0,1,0,0H0a0,0,0,0,1,0,0V10A10,10,0,0,1,10,0Z" transform="translate(800 376.5)" fill="#f6c774"/>
        <path id="Retângulo_1463" data-name="Retângulo 1463" d="M10,0H82A10,10,0,0,1,92,10V285a0,0,0,0,1,0,0H0a0,0,0,0,1,0,0V10A10,10,0,0,1,10,0Z" transform="translate(692 245.5)" fill="#4cb9f6"/>
        <text id="_64_" data-name="64%" transform="translate(716 286.5)" fill="#fbfbfb" font-size="24" font-family="Lato-Bold, Lato" font-weight="700"><tspan x="0" y="0">64%</tspan></text>
        <text id="_36_" data-name="36%" transform="translate(823 416.5)" fill="#fbfbfb" font-size="24" font-family="Lato-Bold, Lato" font-weight="700"><tspan x="0" y="0">36%</tspan></text>
        <text id="Jogou_na_internet_não_conectado_com_outros_jogadores" data-name="Jogou na internet, não conectado
com outros jogadores" transform="translate(694 546.5)" fill="#727272" font-size="14" font-family="RobotoSlab-Regular, Roboto Slab"><tspan x="24.816" y="15">Jogou na internet, não </tspan><tspan x="64.745" y="35">conectado</tspan><tspan x="28.156" y="55">com outros jogadores</tspan></text>
      </g>
    </g>
    <path id="Caminho_1156" data-name="Caminho 1156" d="M130.809,625.2a3.815,3.815,0,0,1-2.353,2.09,3.922,3.922,0,0,1-5.32-3.024l-3.145-12.416-11.282,5.8a4.279,4.279,0,0,1-1.826.528,3.844,3.844,0,0,1-1.79-.342,4.108,4.108,0,0,1-1.99-2.089,3.188,3.188,0,0,1-.128-2.788,3.937,3.937,0,0,1,1.975-1.89l13.2-6.475-3.772-14.912a3.737,3.737,0,0,1,.214-2.553,3.787,3.787,0,0,1,2.311-2.075,4.051,4.051,0,0,1,5.363,3.009l3.223,12.744,11.146-6.012a3.808,3.808,0,0,1,3.68-.3,3.687,3.687,0,0,1,2,2.139,3.438,3.438,0,0,1-.043,2.739,3.994,3.994,0,0,1-1.94,1.99l-13.086,6.4,3.772,14.912A3.737,3.737,0,0,1,130.809,625.2Z" transform="translate(1178.378 -370.023)" fill="none" stroke="#1c0a2d" stroke-miterlimit="10" stroke-width="2"/>
  </g>
</svg>
