<svg xmlns="http://www.w3.org/2000/svg" width="200.14" height="228.33" viewBox="0 0 200.14 228.33">
  <g id="Grupo_559" data-name="Grupo 559" transform="translate(-1014.86 -55.67)">
    <g id="INFOGRÁFICO_3_-_TABLET_1svg" data-name="INFOGRÁFICO 3 - TABLET 1svg" transform="translate(910.227 19.48)">
      <path id="Caminho_1019" data-name="Caminho 1019" d="M156.011,152.236c98.871-10.277,124.579,70.461,145.08,116.9s-50.368,59.873-70.874,51.283c-46.821-19.612-95.54-31.684-116.031-78.126S105.517,157.48,156.011,152.236Z" transform="translate(0 -86.289)" fill="#60acdd" opacity="0.21"/>
      <path id="Caminho_1020" data-name="Caminho 1020" d="M280.744,264.372l-128.609-22a10.565,10.565,0,0,1-8.495-12.282L175.29,45.1a10.566,10.566,0,0,1,12.094-8.761l128.607,22a10.564,10.564,0,0,1,8.5,12.282L292.841,255.611A10.568,10.568,0,0,1,280.744,264.372Z" transform="translate(-29.111 0)" fill="#d1d5d5"/>
      <rect id="Retângulo_1542" data-name="Retângulo 1542" width="151.366" height="129.744" transform="matrix(0.169, -0.986, 0.986, 0.169, 129.461, 206.906)" fill="#4292cc"/>
      <circle id="Elipse_391" data-name="Elipse 391" cx="10.811" cy="10.811" r="10.811" transform="translate(179.555 224.797)" fill="#2e414f"/>
      <path id="Caminho_1021" data-name="Caminho 1021" d="M357.095,209.32l-25.527,149.2L203.68,336.638Z" transform="translate(-74.22 -129.734)" fill="#60acdd" opacity="0.3"/>
    </g>
  </g>
</svg>
