<svg xmlns="http://www.w3.org/2000/svg" width="211.24" height="212.481" viewBox="0 0 211.24 212.481">
  <g id="Grupo_563" data-name="Grupo 563" transform="translate(-1004.77 -65.442)">
    <g id="INFOGRÁFICO_3_-_TABLET_2svg" data-name="INFOGRÁFICO 3 - TABLET 2svg" transform="translate(939.493 -12.138)">
      <path id="Caminho_1042" data-name="Caminho 1042" d="M156.066,152.237c98.977-10.288,124.712,70.536,145.236,117.029S250.879,329.2,230.351,320.6c-46.871-19.633-95.642-31.718-116.155-78.21S105.518,157.487,156.066,152.237Z" transform="translate(-29.481 -55.253)" fill="#60acdd" opacity="0.21"/>
      <path id="Caminho_1043" data-name="Caminho 1043" d="M343.923,286.836l-130.619.045A10.567,10.567,0,0,1,202.845,276.2L202.78,88.315a10.575,10.575,0,0,1,10.454-10.69l130.624-.045a10.572,10.572,0,0,1,10.464,10.682l.063,187.886A10.587,10.587,0,0,1,343.923,286.836Z" transform="translate(-103)" fill="#d1d5d5"/>
      <rect id="Retângulo_1546" data-name="Retângulo 1546" width="129.884" height="151.529" transform="translate(110.636 99.25)" fill="#4292cc"/>
      <circle id="Elipse_397" data-name="Elipse 397" cx="10.823" cy="10.823" r="10.823" transform="translate(164.786 257.996)" fill="#2e414f"/>
      <path id="Caminho_1044" data-name="Caminho 1044" d="M375.971,163.85l.053,151.529-129.884.045Z" transform="translate(-135.479 -64.622)" fill="#60acdd" opacity="0.3"/>
      <path id="Caminho_1045" data-name="Caminho 1045" d="M355.923,295.526l-130.619.045a10.567,10.567,0,0,1-10.459-10.682L214.78,97a10.576,10.576,0,0,1,10.454-10.69l130.624-.045a10.572,10.572,0,0,1,10.464,10.682l.063,187.889A10.585,10.585,0,0,1,355.923,295.526Z" transform="translate(-111.988 -6.509)" fill="none" stroke="#1c0a2d" stroke-miterlimit="10" stroke-width="2"/>
      <rect id="Retângulo_1547" data-name="Retângulo 1547" width="129.884" height="151.529" transform="translate(113.647 101.431)" fill="none" stroke="#1c0a2d" stroke-miterlimit="10" stroke-width="2"/>
      <circle id="Elipse_398" data-name="Elipse 398" cx="10.823" cy="10.823" r="10.823" transform="translate(167.798 260.177)" fill="none" stroke="#1c0a2d" stroke-miterlimit="10" stroke-width="2"/>
      <text id="_19_" data-name="19%" transform="translate(135.944 188.189)" fill="#1c0a2d" font-size="38" font-family="Lato-Bold, Lato" font-weight="700"><tspan x="0" y="0">19%</tspan></text>
      <text id="_19_2" data-name="19%" stroke-miterlimit="10" fill="none" stroke="#f3a51f" transform="translate(136.948 188.987)" stroke-width="1" font-size="38" font-family="Lato-Bold, Lato" font-weight="700" opacity="0.7"><tspan x="0" y="0">19%</tspan></text>
      <g id="Grupo_327" data-name="Grupo 327" transform="translate(248.073 86.702)" opacity="0.7">
        <path id="Caminho_1046" data-name="Caminho 1046" d="M813.084,141.726a2.629,2.629,0,0,1-1.621,1.435,2.7,2.7,0,0,1-3.656-2.08l-2.168-8.544-7.761,4a2.908,2.908,0,0,1-1.255.364,2.607,2.607,0,0,1-1.235-.238,2.811,2.811,0,0,1-1.368-1.438,2.183,2.183,0,0,1-.088-1.915,2.71,2.71,0,0,1,1.358-1.3l9.086-4.454-2.6-10.263a2.56,2.56,0,0,1,.148-1.757,2.587,2.587,0,0,1,1.588-1.425,2.76,2.76,0,0,1,2.118.083,2.793,2.793,0,0,1,1.571,1.987l2.216,8.767,7.673-4.135a2.616,2.616,0,0,1,2.529-.211,2.544,2.544,0,0,1,1.38,1.468,2.376,2.376,0,0,1-.03,1.887,2.73,2.73,0,0,1-1.335,1.365l-9.011,4.389,2.6,10.263A2.562,2.562,0,0,1,813.084,141.726Z" transform="translate(-793.754 -113.934)" fill="none" stroke="#f3a51f" stroke-miterlimit="10" stroke-width="2"/>
      </g>
      <path id="Caminho_1047" data-name="Caminho 1047" d="M113.76,704.461c-1.506-.369-5.7-3.842-9.831-6.216a35.233,35.233,0,0,0-16.852-4.414c-4.8.04-9.558,1.164-11.616.6-7.842-2.16-11.716-11.525-9.621-19.52h0a18.084,18.084,0,0,1,20.754-12.76l33.7,8.828c8.745,2.715,13.711,12.436,11.42,21.186h0C129.621,700.156,121.667,706.389,113.76,704.461Z" transform="translate(0 -437.613)" fill="#2e414f"/>
      <path id="Caminho_1048" data-name="Caminho 1048" d="M110.8,704.6l-3.408-.891.893-3.408-5.679-1.488-.893,3.408-3.408-.893L96.82,707l3.408.893-.893,3.408,5.681,1.488.891-3.408,3.408.891Z" transform="translate(-23.628 -465.345)" fill="#e3e5e7"/>
      <line id="Linha_16" data-name="Linha 16" x1="2.868" y2="1.676" transform="translate(93.582 250.177)" fill="none" stroke="#ccd4d8" stroke-linecap="round" stroke-linejoin="round" stroke-width="2"/>
      <line id="Linha_17" data-name="Linha 17" x1="2.866" y2="1.676" transform="translate(98.127 251.367)" fill="none" stroke="#ccd4d8" stroke-linecap="round" stroke-linejoin="round" stroke-width="2"/>
      <path id="Caminho_1049" data-name="Caminho 1049" d="M212,604.938l5.52-21.013a5.3,5.3,0,0,1,6.449-3.764h0a5.3,5.3,0,0,1,3.764,6.449l-.753,2.841a4.712,4.712,0,0,0,3.355,5.734h0a4.71,4.71,0,0,0,5.731-3.355l2.381-9.086" transform="translate(-109.906 -376.341)" fill="none" stroke="#2e414f" stroke-miterlimit="10" stroke-width="2"/>
      <circle id="Elipse_399" data-name="Elipse 399" cx="2.936" cy="2.936" r="2.936" transform="translate(113.945 241.063)" fill="#f3a51c"/>
      <circle id="Elipse_400" data-name="Elipse 400" cx="2.936" cy="2.936" r="2.936" transform="translate(122.138 246.85)" fill="#1c0a2d"/>
      <circle id="Elipse_401" data-name="Elipse 401" cx="2.936" cy="2.936" r="2.936" transform="translate(105.642 244.955)" fill="#35ad8c"/>
      <circle id="Elipse_402" data-name="Elipse 402" cx="2.936" cy="2.936" r="2.936" transform="translate(113.835 250.744)" fill="#e01227"/>
      <line id="Linha_18" data-name="Linha 18" x2="13.628" y2="3.571" transform="translate(94.935 232.79)" fill="none" stroke="#b0b7bc" stroke-linecap="round" stroke-linejoin="round" stroke-width="2"/>
      <path id="Caminho_1050" data-name="Caminho 1050" d="M121.786,700.281c-1.506-.369-5.7-3.842-9.831-6.216A35.262,35.262,0,0,0,95.1,689.652c-4.8.04-9.558,1.164-11.618.6-7.839-2.161-11.713-11.525-9.621-19.52h0A18.086,18.086,0,0,1,94.62,657.97l33.7,8.828c8.745,2.715,13.708,12.436,11.417,21.186h0C137.647,695.978,129.685,702.211,121.786,700.281Z" transform="translate(-6.011 -434.481)" fill="none" stroke="#f3a51f" stroke-miterlimit="10" stroke-width="1" opacity="0.7"/>
    </g>
  </g>
</svg>
