<svg xmlns="http://www.w3.org/2000/svg" width="308" height="272.867" viewBox="0 0 308 272.867">
  <g id="Grupo_561" data-name="Grupo 561" transform="translate(-923 -378.133)">
    <g id="INFOGRÁFICO_3_-_PC_1svg" data-name="INFOGRÁFICO 3 - PC 1svg" transform="translate(908.239 303.692)">
      <path id="Caminho_1010" data-name="Caminho 1010" d="M367.839,271.929c0,58.454-93.532,114.254-151.986,114.254s-26.072-54.317-59.7-114.254c-28.6-50.98,100.946-120.239,159.4-120.239S367.839,213.475,367.839,271.929Z" transform="translate(-93.722 -52.72)" fill="#3f92cc" opacity="0.2"/>
      <path id="Caminho_1011" data-name="Caminho 1011" d="M688,263.03l-95.662-6.5a12.333,12.333,0,0,0-13.1,11.431l-12.489,183.98a12.326,12.326,0,0,0,11.431,13.095l95.666,6.5a12.33,12.33,0,0,0,13.095-11.431l12.489-183.968A12.323,12.323,0,0,0,688,263.03Z" transform="translate(-376.7 -124.255)" fill="#d1d5d5"/>
      <rect id="Retângulo_1540" data-name="Retângulo 1540" width="15.365" height="92.811" transform="translate(214.312 169.765) rotate(-86.12)" fill="#2e414f"/>
      <rect id="Retângulo_1541" data-name="Retângulo 1541" width="15.365" height="92.811" transform="translate(212.189 201.036) rotate(-86.12)" fill="#2e414f"/>
      <circle id="Elipse_389" data-name="Elipse 389" cx="11.679" cy="11.679" r="11.679" transform="translate(241.678 272.862)" fill="#2e414f"/>
      <path id="Caminho_1012" data-name="Caminho 1012" d="M234.594,212.586a5.293,5.293,0,0,1-4.839,5.716L31.52,234.7a5.293,5.293,0,0,1-5.716-4.836L14.78,96.576a5.293,5.293,0,0,1,4.839-5.716l198.234-16.4a5.293,5.293,0,0,1,5.716,4.839Z" transform="translate(0)" fill="#e3e5e7"/>
      <path id="Caminho_1013" data-name="Caminho 1013" d="M349.7,547.14,326.021,549.1l-23.678,1.962s.349,15.9-1.292,19.42l26.558-2.2,26.558-2.2C351.969,562.886,349.7,547.14,349.7,547.14Z" transform="translate(-195.383 -322.602)" fill="#d1d5d5"/>
      <path id="Caminho_1014" data-name="Caminho 1014" d="M339.46,607.753a11.918,11.918,0,0,1-4.544-.953L308.358,609l-26.558,2.2a11.992,11.992,0,0,1-4.325,1.686c-2.848.6-4.747.994-4.626,2.435l35.786-2.963,35.789-2.95C344.305,607.956,342.365,607.876,339.46,607.753Z" transform="translate(-176.133 -363.319)" fill="#c7cbcb"/>
      <path id="Caminho_1015" data-name="Caminho 1015" d="M217.853,74.461,19.619,90.865A5.293,5.293,0,0,0,14.78,96.58l9.9,119.693L233.466,199l-9.9-119.709a5.293,5.293,0,0,0-5.709-4.83ZM224.2,192.217l-104.785,8.669L32.7,208.062,23.6,98.085,177.578,85.343l37.532-3.1Z" transform="translate(0 -0.001)" fill="#2e414f"/>
      <path id="Caminho_1016" data-name="Caminho 1016" d="M42.61,114.838l9.1,109.977,86.727-7.176,104.776-8.669-9.1-109.98L196.584,102.1Z" transform="translate(-19.006 -16.754)" fill="#4292cc"/>
      <path id="Caminho_1017" data-name="Caminho 1017" d="M352.48,547.14,328.8,549.1l-23.678,1.962s.051,2.366.022,5.471l48.2-3.991C352.816,549.483,352.48,547.14,352.48,547.14Z" transform="translate(-198.161 -322.602)" fill="#c7cbcb"/>
      <circle id="Elipse_390" data-name="Elipse 390" cx="3.442" cy="3.442" r="3.442" transform="translate(126.481 214.065)" fill="#2e414f"/>
      <path id="Caminho_1018" data-name="Caminho 1018" d="M434.3,74.46l-36.313,3.017L331.92,208.763l118-9.764-9.9-119.709A5.293,5.293,0,0,0,434.3,74.46Z" transform="translate(-216.451 0)" fill="#e3e5e7" opacity="0.16"/>
    </g>
  </g>
</svg>
