<svg xmlns="http://www.w3.org/2000/svg" width="200" height="424" viewBox="0 0 200 424">
  <g id="Grupo_329" data-name="Grupo 329" transform="translate(-512 -314)">
    <path id="Ret창ngulo_1459" data-name="Ret창ngulo 1459" d="M10,0H82A10,10,0,0,1,92,10V186.36a0,0,0,0,1,0,0H0a0,0,0,0,1,0,0V10A10,10,0,0,1,10,0Z" transform="translate(620 551.64)" fill="#35ad8c"/>
    <path id="Ret창ngulo_1460" data-name="Ret창ngulo 1460" d="M10,0H82A10,10,0,0,1,92,10V424a0,0,0,0,1,0,0H0a0,0,0,0,1,0,0V10A10,10,0,0,1,10,0Z" transform="translate(512 314)" fill="#4292cc"/>
    <text id="_73_" data-name="73%" transform="translate(532.721 355.008)" fill="#fbfbfb" font-size="25" font-family="Lato-Bold, Lato" font-weight="700"><tspan x="0" y="0">73%</tspan></text>
    <text id="_27_" data-name="27%" transform="translate(641.568 592.99)" fill="#fbfbfb" font-size="25" font-family="Lato-Bold, Lato" font-weight="700"><tspan x="0" y="0">27%</tspan></text>
  </g>
</svg>
