<svg xmlns="http://www.w3.org/2000/svg" xmlns:xlink="http://www.w3.org/1999/xlink" width="597.983" height="471.378" viewBox="0 0 597.983 471.378">
  <defs>
    <linearGradient id="linear-gradient" x1="2.325" y1="0.484" x2="3.376" y2="0.484" gradientUnits="objectBoundingBox">
      <stop offset="0" stop-color="#fff"/>
      <stop offset="0" stop-color="#f3a51c"/>
      <stop offset="1" stop-color="#fac819"/>
    </linearGradient>
    <linearGradient id="linear-gradient-2" x1="3.242" y1="0.317" x2="3.706" y2="0.755" gradientUnits="objectBoundingBox">
      <stop offset="0" stop-color="#592b21"/>
      <stop offset="1" stop-color="#200c09"/>
    </linearGradient>
    <linearGradient id="linear-gradient-3" x1="-7.101" y1="3.712" x2="-6.112" y2="3.712" xlink:href="#linear-gradient-2"/>
    <linearGradient id="linear-gradient-4" x1="-15.153" y1="0.258" x2="-14.697" y2="0.694" xlink:href="#linear-gradient-2"/>
    <linearGradient id="linear-gradient-5" x1="6.554" y1="0.448" x2="7.625" y2="0.448" gradientUnits="objectBoundingBox">
      <stop offset="0" stop-color="#fff"/>
      <stop offset="0" stop-color="#f3a51c"/>
      <stop offset="0.28" stop-color="#fac819"/>
    </linearGradient>
  </defs>
  <g id="Grupo_545" data-name="Grupo 545" transform="translate(-43 -103.497)">
    <g id="Bia_BOAS-VINDAS" transform="translate(-23.47 47.497)">
      <g id="BIA_4" data-name="BIA 4" transform="translate(88.916 80.402)">
        <path id="Caminho_449" data-name="Caminho 449" d="M329.481,189.757c58.205-21.834,221.734,56.535,167.719,131.03S277.6,522.742,185.688,518.361c-120.464-5.734-64.959-210.2-10.945-284.685S243.328,222.066,329.481,189.757Z" transform="translate(-113.761 -148.72)" fill="#dbe3e7" opacity="0.4"/>
        <path id="Caminho_450" data-name="Caminho 450" d="M509.639,601.662H369.795a18.9,18.9,0,0,1-18.9-18.9V298.57a18.9,18.9,0,0,1,18.9-18.9H509.634a18.9,18.9,0,0,1,18.9,18.9V582.753a18.9,18.9,0,0,1-18.9,18.91Z" transform="translate(-238.339 -197.908)" fill="#727272"/>
        <path id="Caminho_451" data-name="Caminho 451" d="M525.914,585.272H386.075a18.9,18.9,0,0,1-18.905-18.9V282.18a18.9,18.9,0,0,1,18.905-18.9H525.909a18.9,18.9,0,0,1,18.9,18.9V566.363A18.9,18.9,0,0,1,525.914,585.272Z" transform="translate(-246.892 -189.298)" fill="none" stroke="#1c0a2d" stroke-miterlimit="10" stroke-width="2"/>
        <path id="Caminho_452" data-name="Caminho 452" d="M507.472,314.162H485.283a5.553,5.553,0,0,1,0-11.1h22.189a5.553,5.553,0,0,1,0,11.1Z" transform="translate(-306.111 -210.197)" fill="#444b61"/>
        <path id="Caminho_453" data-name="Caminho 453" d="M572.352,314.159H566.8a5.553,5.553,0,1,1,0-11.1h5.549a5.553,5.553,0,1,1,0,11.1Z" transform="translate(-348.768 -210.194)" fill="#444b61"/>
        <rect id="Retângulo_1503" data-name="Retângulo 1503" width="177.654" height="233.168" transform="translate(112.551 115.072)" fill="#1c0a2d"/>
        <g id="DIREITA" transform="translate(283.436 36.11)">
          <path id="Caminho_454" data-name="Caminho 454" d="M733.69,294.082a87.979,87.979,0,0,0,3.066-10.537,128.457,128.457,0,0,0,2.136-13.57c.555-4.984,0-10.062,1.9-14.742,1.633-4,7.276-3.384,8.824.261,3.588,8.453.389,21.316-1.32,30.021-.774,3.944-1.709,7.841-2.729,11.709C741.631,299.042,735.261,298.145,733.69,294.082Z" transform="translate(-722.882 -219.738)" fill="#ef9351"/>
          <path id="Caminho_455" data-name="Caminho 455" d="M726.763,185.677a3.223,3.223,0,0,1,.7-1.637,2.4,2.4,0,0,1,3.18.119,6.315,6.315,0,0,1,1.647,3.052c1.557,5.126-.427,14.795,2.644,15.1,2.126.1,3.185-5.843,4.2-9.673a21.428,21.428,0,0,1,1.856-4.841,2.6,2.6,0,0,1,4.794,1.861c-.949,3.8-3.906,9.4-4.272,13.29a1.168,1.168,0,0,0,1.9,1.006l7.8-7.495c1.239-1.025,3.2-2.012,4.272-.8.907,1.039.128,2.644-.731,3.726a31.442,31.442,0,0,1-5.985,5.762c-1.215.892-2.663,2.065-2.373,3.55.294,1.6,2.4,2.126,3.978,1.732s3.023-1.348,4.647-1.4,3.436,1.538,2.715,3a2.72,2.72,0,0,1-1.082,1.039c-3.546,2.122-9.018,1.519-10.874,5.221-1.324,2.634.047,6.341-2.017,8.444-1.69,1.713-4.115,1.191-6.232.859a8.478,8.478,0,0,0-5.269.608c-1.818.949-3.052,1.253-5.055.3-1.808-.864-4.6-1.979-5.382-4-.759-1.941.85-4.851.176-6.821-.869-2.554-3.147-2.25-5.838-2.444a8.992,8.992,0,0,1-3.987-.778,2.71,2.71,0,0,1-.712-3.911,8.236,8.236,0,0,1,1.695-1.647c4.167-3.185,7.1-.038,12.061,2.335C727.9,203.543,725.159,193.651,726.763,185.677Z" transform="translate(-710.919 -183.488)" fill="#ef9351"/>
          <path id="Caminho_456" data-name="Caminho 456" d="M741.939,247.135a12.759,12.759,0,0,1,5.947,6.844,13.314,13.314,0,0,1,1.785-2.312,7.973,7.973,0,0,1,5.349-2.568c.351,0,.536.5.161.636a9.878,9.878,0,0,0-4.414,2.8,8.787,8.787,0,0,0-1.338,2.473c-.309.764-.237,1.543-.826,2.15a1.022,1.022,0,0,1-.09.062.688.688,0,0,1-.123.081c-.033,0-.062.048-.09.062a.475.475,0,0,1-.3.028h0a.424.424,0,0,1-.128-.052.764.764,0,0,1-.394-.346,2.021,2.021,0,0,1-.214-.892,19.4,19.4,0,0,0-1.842-3.707c-1.134-1.7-2.71-2.715-4.2-4.034a.721.721,0,0,1,.712-1.225Z" transform="translate(-726.712 -216.905)" fill="#a35b1a"/>
        </g>
        <path id="Caminho_457" data-name="Caminho 457" d="M566.41,427.44c23.181-9.455,40.648-23.784,52.567-29.736,5.283-21.833,11.743-52.315,9.735-71.059,5-6.645,34.07,5.7,34.07,5.7s-3.323,21.834-6.45,28.953c-10.2,23.452-21.136,46.757-22.906,49.5a11.389,11.389,0,0,1-1.951,2.15c-14.068,16.574-57.46,33.6-59.776,34.4a22.427,22.427,0,0,1-11.757.551C556.072,448.5,560.562,429.823,566.41,427.44Z" transform="translate(-347.406 -221.555)" fill="url(#linear-gradient)"/>
        <g id="ROUPA" transform="translate(140.546 192.234)">
          <g id="FRENTE">
            <path id="Caminho_458" data-name="Caminho 458" d="M409.87,690.232c8.881-46.325,20.234-166.163,33.961-171.241.7-.261.921-1.595.6-2.259-.085-.176.18-.351.271-.527.275-.551.584-1.1.9-1.623.085-.138.18-.28.266-.413.294-.475,16.612-1.21,24.359-1.514a6.955,6.955,0,0,1,5.881,3.161,5.066,5.066,0,0,0,1.989,1.78c24.24,6.094,46.477,118.926,60.84,157.7-11.3,5.957-30.259,11.714-50.853,15.511-2.919-15.307-5.7-30.629-7.153-46.007,1.462,15.378,4.234,30.7,7.153,46.007q-1.657.3-3.322.589c-7.927-25.83-27.463-52.514-15.331-79.944-12.132,27.43,7.4,54.109,15.331,79.944C457.491,696.027,427.968,697.043,409.87,690.232Z" transform="translate(-409.87 -512.54)" fill="#f3a51f"/>
            <path id="Caminho_459" data-name="Caminho 459" d="M484.137,516.73c-.323.532-.617,1.073-.9,1.623Q483.653,517.527,484.137,516.73Z" transform="translate(-448.416 -514.684)" fill="#f6b63e"/>
            <path id="Caminho_460" data-name="Caminho 460" d="M485.377,515.88c-.085.133-.166.271-.247.4C485.215,516.151,485.291,516.013,485.377,515.88Z" transform="translate(-449.408 -514.238)" fill="#f6b63e"/>
            <path id="Caminho_461" data-name="Caminho 461" d="M547.381,512.529l-.071-.109Z" transform="translate(-482.075 -512.42)" fill="#f6b63e"/>
            <path id="Caminho_462" data-name="Caminho 462" d="M482.946,520.15c-.09.176-.18.346-.266.522C482.765,520.5,482.856,520.326,482.946,520.15Z" transform="translate(-448.121 -516.481)" fill="#f6b63e"/>
          </g>
        </g>
        <path id="Caminho_463" data-name="Caminho 463" d="M507.53,116.049c-4.381.74-8.9,2.729-10.262,6.792s2.682,9.967,7,9.018c-5.126-.646-10.442-.266-14.6,2.236s-6.787,7.457-5.515,12.388,7.148,9.018,11.866,7.537c-4.746,1.851-9.222,4.595-11.913,8.767a14.192,14.192,0,0,0-.555,14.666c2.743,4.7,9.232,7.556,13.8,5.373-3.08,3.8-5.3,9.2-2.777,13.935,2.259,4.229,7.656,6.294,12.3,5.99s8.71-2.468,12.635-4.59c4.376,8.4,16.29,12.545,24.055,8.368,4.2-2.255,6.9-8.1,3.47-12.013,4.8,1.7,9.73,3.417,14.666,3.465s9.968-1.9,12.032-6.075-.109-10.528-4.917-12.208c6.963,3.156,15.573.508,18.6-5.724s0-15.1-6.526-19.161c6.906-4.428,9.284-14.239,5.378-22.171a11.89,11.89,0,0,0-5.8-5.976c-4.533-1.837-9.066.883-12.678,3.493,2.373-4.908-.422-11.961-5.791-14.69s-12.312-.622-14.462,4.39c-3.323-3.864-6.778-7.832-11.249-10.309s-10.276-3.114-13.9-.242-3.36,9.749,1.134,12.175C520.44,116.277,513.2,115.09,507.53,116.049Z" transform="translate(-307.094 -107.411)" fill="url(#linear-gradient-2)"/>
        <circle id="Elipse_296" data-name="Elipse 296" cx="10.993" cy="10.993" r="10.993" transform="translate(205.462 39.457)" fill="#1c0a2d"/>
        <circle id="Elipse_297" data-name="Elipse 297" cx="10.993" cy="10.993" r="10.993" transform="translate(192.291 34.729)" fill="#1c0a2d"/>
        <path id="Caminho_464" data-name="Caminho 464" d="M571.1,196.008c-.665.522,1.837,1.239,4.248,3.764,1.718,1.794,2.848,7,3.512,6.479s2.046-4.272-1.467-8.069C574.432,195,571.764,195.486,571.1,196.008Z" transform="translate(-353.971 -153.755)" fill="#f1e49d" opacity="0.36"/>
        <path id="Caminho_465" data-name="Caminho 465" d="M531.909,184.233c-.669.949,2.848.949,6.982,3.322,2.929,1.7,6.379,8.069,7.053,7.148s1.049-6.384-4.979-10C535.877,181.651,532.569,183.3,531.909,184.233Z" transform="translate(-333.395 -147.092)" fill="#f1e49d" opacity="0.36"/>
        <path id="Caminho_466" data-name="Caminho 466" d="M456.063,300.352c3.47-11.6,11-26.5,11.895-38.579,2.957-39.647-15.051-60.056-47.8-63.654-24.359-2.691-55.585-2.326-72.307,18.407-18.8,23.3-20.191,65.5-9.018,92.555,1.286,3.118,10.978,13.029,13.57,15.189s7.219-1.538,10.115-3.266Z" transform="translate(-228.288 -154.447)" fill="url(#linear-gradient-3)"/>
        <path id="Caminho_467" data-name="Caminho 467" d="M276.843,126.343c4.433.323,9.123,1.9,10.86,5.791s-1.728,10.157-6.113,9.621c5.041-1.13,10.39-1.258,14.747.84s7.461,6.783,6.645,11.814-6.26,9.649-11.088,8.624c4.9,1.391,9.616,3.7,12.692,7.594a14.181,14.181,0,0,1,1.937,14.548c-2.288,4.941-8.472,8.392-13.233,6.645,3.432,3.508,6.17,8.662,4.087,13.613-1.851,4.424-7.029,6.987-11.676,7.12s-8.909-1.633-13.015-3.37c-3.565,8.776-15.032,14.026-23.158,10.6-4.39-1.846-7.632-7.409-4.59-11.629-4.618,2.145-9.36,4.319-14.272,4.837s-10.115-.949-12.55-4.913-.888-10.49,3.74-12.616c-6.645,3.8-15.459,1.979-19.057-3.94s-1.424-15.032,4.68-19.693c-7.3-3.754-10.589-13.29-7.452-21.563a11.864,11.864,0,0,1,5.221-6.5c4.338-2.255,9.108.024,12.953,2.278-2.81-4.661-.707-11.947,4.376-15.189s12.2-1.785,14.809,3c2.952-4.163,6.009-8.439,10.229-11.325s9.934-4.072,13.812-1.557,4.272,9.384.024,12.227C264.019,127.8,271.1,125.925,276.843,126.343Z" transform="translate(-158.459 -113.817)" fill="url(#linear-gradient-4)"/>
        <path id="PESCOÇO" d="M495.637,490.161c-.19-3.878,9.331-4.4,12.644-1.02,1.22,7.917,1.5,6.678,2.739,14.586a83.947,83.947,0,0,1-14.923.641S495.941,496.569,495.637,490.161Z" transform="translate(-314.381 -306.779)" fill="#a35b1a"/>
        <path id="Caminho_468" data-name="Caminho 468" d="M359.582,347.814c2.924-3.109,8.358-3.864,10.917-.233.261.365,1.576,2.786,2.069,2.587a12.483,12.483,0,0,1,3.223-1.044c-.195.057-2.031-9.493-4.082-20.718a30.933,30.933,0,0,0,5.316-9.7c2.5-7.642.7-28.445-1.1-36.134,12.739-29.955,79.46-48.238,98.569-2.373.209.5-4.585,27.676,6.868,33.477,10.238,5.178,2.848,46.567-32.5,52.234-17.054,2.734-61.741,1.8-72.449-6.17a.75.75,0,0,0-1.2.475,11.078,11.078,0,0,1-2.539,4.438,4.638,4.638,0,0,1-.636.608c-4.224,3.061-13.2.2-15.459-4.8C354.608,356.12,356.644,350.956,359.582,347.814Z" transform="translate(-240.918 -183.602)" fill="#ce7c3e"/>
        <path id="Caminho_469" data-name="Caminho 469" d="M468.693,351.439c1.785,3.935,2.131,8.544,1.8,13.385-.237,3.432-6.351,5.349-7.931,2.326-2.311-4.419-2.881-11.2-2.278-15.312C460.938,347.4,466.453,346.5,468.693,351.439Z" transform="translate(-295.692 -233.861)" fill="#1c1b1c"/>
        <path id="Caminho_470" data-name="Caminho 470" d="M548.223,347.678c1.78,3.935,2.131,8.544,1.794,13.385-.237,3.432-6.346,5.349-7.931,2.326-2.312-4.419-2.876-11.2-2.274-15.312C540.462,343.634,545.982,342.761,548.223,347.678Z" transform="translate(-337.473 -231.889)" fill="#1c1b1c"/>
        <path id="BOCA" d="M460.764,319.325a1.687,1.687,0,0,1-1.638,2.9c-3.289-1.234-6.17-1.951-9.574-.536-2.743,1.139-3.992,3.849-5.743,6.018a2.027,2.027,0,0,1-3.607-1.424C440.677,316.985,454.632,313.5,460.764,319.325Z" transform="translate(-285.256 -217.244)" fill="#1c1b1c"/>
        <path id="Caminho_471" data-name="Caminho 471" d="M445.407,421.052c-.9-3.859,1.206-3.584,3.773-.057,4.466,6.156,9.782,11.681,17.533,13.451,12.815,2.933,14.614.949,20.353-.864,4.239-1.353,12.587-6.645,10.039-3.185C485.215,446.612,449.56,438.842,445.407,421.052Z" transform="translate(-287.883 -270.715)" fill="#1c1b1c"/>
        <path id="Caminho_472" data-name="Caminho 472" d="M546.7,320.778a1.689,1.689,0,0,1-2.948,1.557c-2.1-2.819-4.139-4.979-7.76-5.629-2.924-.522-5.444,1.082-8.069,1.96a2.027,2.027,0,0,1-2.259-3.156C531.064,307.953,544.686,312.562,546.7,320.778Z" transform="translate(-329.935 -214.724)" fill="#1c1b1c"/>
        <path id="Caminho_473" data-name="Caminho 473" d="M358.738,459.95c2.658-1.932,5.643-1.424,8.183.4a1.595,1.595,0,0,1-.2,2.516,2.392,2.392,0,0,0-1.339,3.289c.816,1.609,2.634.949,3.873.475a.978.978,0,0,1,1.248,1.139c-.926,3.237-5.7,2.848-7.49.574a5.311,5.311,0,0,1,.09-6.6,3.232,3.232,0,0,0-2.933.854c-1.054.992-.982,2.615-1.106,3.93-.095.949-1.481,1.054-1.941.347C355.687,464.668,356.669,461.454,358.738,459.95Z" transform="translate(-241.256 -291.974)" fill="#a35b1a"/>
        <path id="VENTA" d="M505.645,396.509a5.617,5.617,0,0,1,5.7-7.765c1.077.138,2.05.214,3.09.437l.076-.028c-.707-.195-.351-.1.047,0a7.285,7.285,0,0,1,8.634,3.992c1.424,3.294.033,8.264-3.7,9.445C513.614,404.43,508.18,402.195,505.645,396.509Z" transform="translate(-319.401 -255.189)" fill="#864822" opacity="0.6"/>
        <g id="ESQUERDA" transform="translate(74.324 312.402)">
          <path id="Caminho_474" data-name="Caminho 474" d="M342.857,766.129a88.918,88.918,0,0,1-4.851,9.844,128.5,128.5,0,0,1-7.594,11.448c-2.952,4.053-6.787,7.428-8.544,12.17-1.5,4.049,3.08,7.409,6.688,5.767,8.354-3.8,14.676-15.464,19.294-23.039,2.093-3.432,4.03-6.935,5.89-10.48C352.065,767.828,346.768,764.2,342.857,766.129Z" transform="translate(-297.263 -765.595)" fill="#ef9351"/>
          <path id="Caminho_475" data-name="Caminho 475" d="M270.943,850.19a3.227,3.227,0,0,0-.593,1.68,2.4,2.4,0,0,0,2.43,2.06,6.32,6.32,0,0,0,3.275-1.139c4.609-2.729,9.678-11.2,12.146-9.355,1.638,1.357-1.6,6.46-3.436,9.967a21.569,21.569,0,0,0-1.9,4.827,2.6,2.6,0,0,0,4.794,1.861c1.865-3.432,3.465-9.578,5.81-12.682a1.172,1.172,0,0,1,2.088.546l.7,10.793c.223,1.595,1,3.65,2.6,3.47,1.367-.157,1.9-1.865,1.97-3.242a31.326,31.326,0,0,0-.522-8.292c-.294-1.481-.57-3.322.636-4.234,1.3-.982,3.2.052,4.1,1.424s1.32,3.033,2.482,4.167,3.579,1.182,4.03-.38a2.729,2.729,0,0,0-.1-1.5c-1.182-3.959-5.625-7.215-4.5-11.187.8-2.848,4.315-4.647,4.21-7.594-.085-2.4-2.231-3.655-4.015-4.841a8.459,8.459,0,0,1-3.474-4c-.7-1.932-1.424-2.99-3.527-3.636-1.9-.584-4.746-1.642-6.673-.684s-2.648,4.148-4.476,5.15c-2.373,1.3-3.84-.475-5.957-2.136a8.958,8.958,0,0,0-3.465-2.117,2.71,2.71,0,0,0-3.166,2.4,8.037,8.037,0,0,0,.138,2.373c.921,5.164,5.221,4.818,10.475,6.422C283.839,837.788,275.139,843.232,270.943,850.19Z" transform="translate(-270.35 -793.04)" fill="#ef9351"/>
          <path id="Caminho_476" data-name="Caminho 476" d="M310.087,837.62a12.791,12.791,0,0,0,9.018-1.03,12.934,12.934,0,0,0-.242,2.91,7.944,7.944,0,0,0,2.207,5.506c.256.242.736,0,.551-.361a9.791,9.791,0,0,1-1.367-5.046,8.681,8.681,0,0,1,.688-2.729c.285-.774.859-1.3.835-2.145a.816.816,0,0,0,0-.1.474.474,0,0,0-.033-.142.141.141,0,0,0-.029-.1.508.508,0,0,0-.195-.228H321.5a.414.414,0,0,0-.128-.047.75.75,0,0,0-.522,0,1.9,1.9,0,0,0-.759.517,19.33,19.33,0,0,1-3.864,1.49c-1.984.475-3.835.176-5.819.142a.721.721,0,0,0-.318,1.372Z" transform="translate(-291.012 -801.559)" fill="#a35b1a"/>
        </g>
        <path id="DIREITO" d="M399.01,526.085c-.19-3.9-19.655,12.863-21.976,18.734-13.765,34.8-30.239,73.774-54.052,96.03-.56,8.3,29.513,17.956,29.513,17.956s20.448-28.369,22.783-35.812c7.594-24.411,8.634-36.073,13.186-61.229a25.2,25.2,0,0,0-.19-10.333Z" transform="translate(-223.673 -327.059)" fill="url(#linear-gradient-5)"/>
        <path id="GOLA" d="M482.106,518.652c.147,3.085,6.749,5.743,15.972,5.307s16.888-3.74,16.741-6.825c-.052-1.153-3.413-4.381-5.193-4.21-.774.071.475,2.705-1.424,3.18a59.5,59.5,0,0,1-11.107,1.6c-3.669.171-7.186.361-9.863-.418-2.269-.66-.693-3.061-1.519-3.228C482.5,513.378,482.054,517.228,482.106,518.652Z" transform="translate(-307.272 -320.446)" fill="#1c0a2d"/>
        <rect id="Retângulo_1504" data-name="Retângulo 1504" width="153.774" height="35.627" transform="translate(132.406 348.743)" fill="#727272"/>
        <circle id="Elipse_298" data-name="Elipse 298" cx="16.655" cy="16.655" r="16.655" transform="translate(183.88 359.342)" fill="#fff"/>
      </g>
      <g id="BIA_4_SIDE" data-name="BIA 4 SIDE" transform="translate(66.47 56)">
        <circle id="Elipse_299" data-name="Elipse 299" cx="22.076" cy="22.076" r="22.076" transform="translate(14.961 148.473)" fill="#35ad8c"/>
        <circle id="Elipse_300" data-name="Elipse 300" cx="22.076" cy="22.076" r="22.076" transform="translate(18.696 152.227)" fill="none" stroke="#1b0c2d" stroke-miterlimit="10" stroke-width="4"/>
        <circle id="Elipse_301" data-name="Elipse 301" cx="14.159" cy="14.159" r="14.159" transform="translate(363.993 90.718)" fill="#35ad8c"/>
        <circle id="Elipse_302" data-name="Elipse 302" cx="14.159" cy="14.159" r="14.159" transform="translate(366.39 93.129)" fill="none" stroke="#1b0c2d" stroke-miterlimit="10" stroke-width="4"/>
        <path id="Caminho_477" data-name="Caminho 477" d="M128.668,802.643a4.352,4.352,0,0,1-2.677,2.373,4.466,4.466,0,0,1-6.037-3.441l-3.579-14.106-12.815,6.6a4.818,4.818,0,0,1-2.074.6,4.3,4.3,0,0,1-2.041-.389,4.684,4.684,0,0,1-2.259-2.373,3.612,3.612,0,0,1-.138-3.166,4.428,4.428,0,0,1,2.24-2.15l15-7.352-4.272-16.945a4.391,4.391,0,0,1,2.872-5.278,4.6,4.6,0,0,1,6.09,3.422l3.659,14.481,12.673-6.816a4.318,4.318,0,0,1,4.177-.346,4.2,4.2,0,0,1,2.278,2.425,3.926,3.926,0,0,1-.047,3.118,4.547,4.547,0,0,1-2.2,2.254l-14.871,7.243,4.272,16.945A4.238,4.238,0,0,1,128.668,802.643Z" transform="translate(-82.376 -424.135)" fill="none" stroke="#1c0a2d" stroke-miterlimit="10" stroke-width="2"/>
        <path id="Caminho_478" data-name="Caminho 478" d="M66.47,67.866V93.649a11.866,11.866,0,0,0,11.866,11.866H94.949a.475.475,0,0,1,.351.152l13.347,14.192a1.661,1.661,0,0,0,2.848-1.139V105.985a.475.475,0,0,1,.475-.475h5.643a11.866,11.866,0,0,0,11.866-11.866V67.866A11.866,11.866,0,0,0,117.613,56h-39.3A11.866,11.866,0,0,0,66.47,67.866Z" transform="translate(-66.47 -56)" fill="#e4566a"/>
        <path id="Caminho_479" data-name="Caminho 479" d="M102.285,96.806,114.873,109.4a1.044,1.044,0,0,0,1.471,0l12.564-12.569a7.7,7.7,0,0,0,0-10.888h0a7.7,7.7,0,0,0-10.893,0l-1.671,1.666a1.039,1.039,0,0,1-1.467,0l-1.7-1.7a7.7,7.7,0,0,0-10.917,0h0a7.7,7.7,0,0,0,.024,10.9Z" transform="translate(-84.092 -70.52)" fill="#e4566a"/>
        <path id="Caminho_480" data-name="Caminho 480" d="M102.285,96.806,114.873,109.4a1.044,1.044,0,0,0,1.471,0l12.564-12.569a7.7,7.7,0,0,0,0-10.888h0a7.7,7.7,0,0,0-10.893,0l-1.671,1.666a1.039,1.039,0,0,1-1.467,0l-1.7-1.7a7.7,7.7,0,0,0-10.917,0h0a7.7,7.7,0,0,0,.024,10.9Z" transform="translate(-84.092 -70.52)" fill="#fdf5f5"/>
        <path id="Caminho_481" data-name="Caminho 481" d="M124.721,63.37H85.406A11.866,11.866,0,0,0,73.54,75.236v25.787a11.866,11.866,0,0,0,11.866,11.866h16.612a.475.475,0,0,1,.356.157l13.342,14.187a1.661,1.661,0,0,0,2.872-1.134v-12.72a.475.475,0,0,1,.475-.475h5.644a11.866,11.866,0,0,0,11.866-11.866V75.217A11.866,11.866,0,0,0,124.721,63.37Z" transform="translate(-70.184 -59.872)" fill="none" stroke="#1b0c2d" stroke-miterlimit="10" stroke-width="4"/>
      </g>
    </g>
    <path id="Caminho_648" data-name="Caminho 648" d="M136.867,814.435a5.47,5.47,0,0,1-3.365,2.983,5.613,5.613,0,0,1-7.588-4.325l-4.5-17.73-16.107,8.292a6.054,6.054,0,0,1-2.607.752,5.4,5.4,0,0,1-2.565-.489,5.888,5.888,0,0,1-2.84-2.983,4.54,4.54,0,0,1-.173-3.979,5.566,5.566,0,0,1,2.816-2.7l18.857-9.241-5.369-21.3a5.519,5.519,0,0,1,3.609-6.634,5.781,5.781,0,0,1,7.654,4.3l4.6,18.2,15.928-8.567a5.427,5.427,0,0,1,5.25-.435,5.274,5.274,0,0,1,2.863,3.048,4.934,4.934,0,0,1-.06,3.919,5.715,5.715,0,0,1-2.768,2.833l-18.69,9.1,5.369,21.3A5.327,5.327,0,0,1,136.867,814.435Z" transform="translate(486.253 -262.119)" fill="none" stroke="#1c0a2d" stroke-miterlimit="10" stroke-width="2"/>
    <g id="Grupo_239" data-name="Grupo 239" transform="translate(-267 -60.709)">
      <circle id="Elipse_336" data-name="Elipse 336" cx="19.585" cy="19.585" r="19.585" transform="translate(682.961 591.969)" fill="#35ad8c"/>
      <circle id="Elipse_337" data-name="Elipse 337" cx="19.585" cy="19.585" r="19.585" transform="translate(687.162 594.413)" fill="none" stroke="#1b0c2d" stroke-miterlimit="10" stroke-width="4"/>
    </g>
  </g>
</svg>
