<svg xmlns="http://www.w3.org/2000/svg" xmlns:xlink="http://www.w3.org/1999/xlink" width="728.746" height="543.025" viewBox="0 0 728.746 543.025">
  <defs>
    <linearGradient id="linear-gradient" x1="-3.488" y1="0.355" x2="-3.949" y2="0.789" gradientUnits="objectBoundingBox">
      <stop offset="0" stop-color="#502e25"/>
      <stop offset="1" stop-color="#201310"/>
    </linearGradient>
    <linearGradient id="linear-gradient-2" x1="0.655" y1="0.355" x2="0.194" y2="0.789" xlink:href="#linear-gradient"/>
    <linearGradient id="linear-gradient-3" x1="-1.391" y1="2.693" x2="-2.373" y2="2.693" xlink:href="#linear-gradient"/>
    <linearGradient id="linear-gradient-4" x1="-3.004" y1="-1.683" x2="-3.875" y2="-1.683" gradientUnits="objectBoundingBox">
      <stop offset="0" stop-color="#e2ac56"/>
      <stop offset="1" stop-color="#d99156"/>
    </linearGradient>
    <linearGradient id="linear-gradient-5" x1="-0.639" y1="0.421" x2="-1.51" y2="0.421" xlink:href="#linear-gradient-4"/>
    <clipPath id="clip-path">
      <rect id="Retângulo_1505" data-name="Retângulo 1505" width="127.523" height="135.794" transform="translate(134.891 0) rotate(83.39)" fill="none"/>
    </clipPath>
  </defs>
  <g id="Grupo_593" data-name="Grupo 593" transform="translate(-42.215 -82.633)">
    <g id="Grupo_503" data-name="Grupo 503" transform="translate(1 7)">
      <g id="Grupo_302" data-name="Grupo 302" transform="translate(134.567 76.667)">
        <g id="Grupo_287" data-name="Grupo 287">
          <g id="Grupo_262" data-name="Grupo 262">
            <path id="Caminho_482" data-name="Caminho 482" d="M161.532,421.385c89.42,76.844,334.78,40.453,465.9-46.032S775.442,152.29,686.021,75.446s-290.492,58.935-443.584,90.67S72.112,344.542,161.532,421.385Z" transform="translate(-107.289 4.086)" fill="#473a57" opacity="0.1"/>
            <path id="Caminho_531" data-name="Caminho 531" d="M39.936,3.364A5.423,5.423,0,0,0,36.591.394a5.575,5.575,0,0,0-7.562,4.3L24.558,22.341,8.521,14.089a6.083,6.083,0,0,0-2.6-.75,5.463,5.463,0,0,0-2.544.487A5.839,5.839,0,0,0,.553,16.8,4.531,4.531,0,0,0,.37,20.759a5.6,5.6,0,0,0,2.808,2.686l18.764,9.2-5.363,21.2a5.312,5.312,0,0,0,.3,3.629,5.383,5.383,0,0,0,3.284,2.95,5.758,5.758,0,0,0,7.623-4.278l4.582-18.115,15.844,8.546A5.413,5.413,0,0,0,53.449,47,5.241,5.241,0,0,0,56.3,43.963a4.887,4.887,0,0,0-.061-3.893,5.678,5.678,0,0,0-2.757-2.828l-18.6-9.093,5.363-21.2A5.312,5.312,0,0,0,39.936,3.364Z" transform="translate(567.768 372.522) rotate(131)" fill="none" stroke="#1c0a2d" stroke-miterlimit="10" stroke-width="2"/>
            <path id="Caminho_698" data-name="Caminho 698" d="M122.591,653a6.441,6.441,0,0,0,3.973,3.527,6.621,6.621,0,0,0,8.981-5.1l5.309-20.96,19.046,9.8a7.223,7.223,0,0,0,3.082.891,6.488,6.488,0,0,0,3.022-.578,6.936,6.936,0,0,0,3.359-3.528,5.382,5.382,0,0,0,.217-4.707,6.646,6.646,0,0,0-3.335-3.19l-22.285-10.932,6.369-25.174a6.308,6.308,0,0,0-.361-4.31,6.393,6.393,0,0,0-3.9-3.5,6.838,6.838,0,0,0-9.054,5.081l-5.442,21.514-18.817-10.149a6.428,6.428,0,0,0-6.212-.506,6.225,6.225,0,0,0-3.383,3.612,5.8,5.8,0,0,0,.072,4.623,6.743,6.743,0,0,0,3.275,3.359l22.092,10.8-6.369,25.174A6.308,6.308,0,0,0,122.591,653Z" transform="translate(464.338 -584.815)" fill="none" stroke="#dfa330" stroke-miterlimit="10" stroke-width="2"/>
            <g id="Grupo_260" data-name="Grupo 260" transform="translate(422.62 15.542)">
              <circle id="Elipse_317" data-name="Elipse 317" cx="37.782" cy="37.782" r="37.782" transform="translate(6.388)" fill="#473a57"/>
              <circle id="Elipse_318" data-name="Elipse 318" cx="37.782" cy="37.782" r="37.782" transform="translate(0 6.416)" fill="none" stroke="#e2ac56" stroke-miterlimit="10" stroke-width="2"/>
            </g>
          </g>
        </g>
        <g id="tela2" transform="translate(164.077 82.3)">
          <path id="Caminho_935" data-name="Caminho 935" d="M171.692,78.533c4.534.432,9.067,2.375,10.579,6.261,1.511,4.1-2.159,10.147-6.693,9.283,5.181-.864,10.579-.864,14.9,1.511a11.442,11.442,0,0,1,6.045,12.306c-1.079,4.966-6.693,9.5-11.658,8.2,4.966,1.727,9.5,4.1,12.306,8.2s3.886,9.931,1.3,14.681c-2.591,4.966-8.852,7.988-13.6,6.045,3.238,3.67,5.829,9.067,3.454,13.817-2.159,4.318-7.34,6.693-12.09,6.693s-8.852-2.159-12.954-4.1c-4.1,8.636-15.76,13.385-23.748,9.5-4.318-2.159-7.34-7.772-4.1-11.874-4.75,1.943-9.715,3.886-14.681,4.1s-10.147-1.511-12.306-5.613-.432-10.579,4.318-12.522c-6.909,3.454-15.76,1.3-19-4.966-3.238-6.045-.648-15.112,5.613-19.646-7.124-4.1-9.931-13.817-6.477-22.021,1.079-2.591,3.022-5.181,5.613-6.261,4.534-2.159,9.067.432,12.954,2.807-2.591-4.75-.216-12.09,5.181-15.112,5.181-3.023,12.306-1.3,14.681,3.67,3.238-4.1,6.477-8.2,10.795-11.01s10.147-3.67,14.033-.864,3.886,9.715-.648,12.306C158.738,79.181,166.079,77.669,171.692,78.533Z" transform="translate(-91.418 -69.902)" fill="url(#linear-gradient)"/>
          <path id="Caminho_936" data-name="Caminho 936" d="M57.16,78.533c-4.534.432-9.067,2.375-10.579,6.261-1.511,4.1,2.159,10.147,6.693,9.283-5.181-.864-10.579-.864-14.9,1.511a11.442,11.442,0,0,0-6.045,12.306c1.079,4.966,6.693,9.5,11.658,8.2-4.966,1.727-9.5,4.1-12.306,8.2s-3.886,9.931-1.3,14.681c2.591,4.966,8.852,7.988,13.6,6.045-3.238,3.67-5.829,9.067-3.454,13.817,2.159,4.318,7.34,6.693,12.09,6.693s8.852-2.159,12.954-4.1c4.1,8.636,15.76,13.385,23.748,9.5,4.318-2.159,7.34-7.772,4.1-11.874,4.75,1.943,9.715,3.886,14.681,4.1s10.147-1.511,12.306-5.613.432-10.579-4.318-12.522c6.909,3.454,15.76,1.3,19-4.966,3.238-6.045.648-15.112-5.613-19.646,7.124-4.1,9.931-13.817,6.477-22.021-1.079-2.591-3.022-5.181-5.613-6.261-4.534-2.159-9.067.432-12.954,2.807,2.591-4.75.216-12.09-5.181-15.112-5.181-3.023-12.306-1.3-14.681,3.67-3.238-4.1-6.477-8.2-10.795-11.01S76.59,68.818,72.7,71.624s-3.886,9.715.648,12.306C70.114,79.181,62.773,77.669,57.16,78.533Z" transform="translate(106.016 -69.902)" fill="url(#linear-gradient-2)"/>
          <circle id="Elipse_382" data-name="Elipse 382" cx="12.09" cy="12.09" r="12.09" transform="translate(152.382 32.595)" fill="#dfa330" stroke="#000" stroke-miterlimit="10" stroke-width="0.75"/>
          <path id="Caminho_937" data-name="Caminho 937" d="M62.62,93.033c.216,1.3,2.375-1.511,6.477-2.807,3.022-.864,9.5,1.511,9.067.216-.216-1.3-3.67-5.829-9.931-3.886C63.268,87.852,62.4,91.738,62.62,93.033Z" transform="translate(92.568 -51.155)" fill="#ebc477"/>
          <circle id="Elipse_383" data-name="Elipse 383" cx="12.09" cy="12.09" r="12.09" transform="translate(166.199 40.151)" fill="#dfa330" stroke="#000" stroke-miterlimit="10" stroke-width="0.75"/>
          <path id="Caminho_938" data-name="Caminho 938" d="M56.22,96.533c.216,1.3,2.375-1.511,6.477-2.807,3.022-.864,9.5,1.511,9.067.216s-3.67-5.829-9.931-3.886C56.868,91.352,56,95.238,56.22,96.533Z" transform="translate(112.785 -47.099)" fill="#ebc477"/>
          <circle id="Elipse_384" data-name="Elipse 384" cx="12.09" cy="12.09" r="12.09" transform="translate(58.037 46.844)" fill="#dfa330" stroke="#000" stroke-miterlimit="10" stroke-width="0.75"/>
          <path id="Caminho_939" data-name="Caminho 939" d="M113.467,108.769c1.3.432-.216-2.807.432-7.124.432-3.023,5.4-7.772,4.1-8.2s-6.693.864-7.772,7.124C109.15,105.962,112.172,108.553,113.467,108.769Z" transform="translate(-49.818 -42.711)" fill="#ebc477"/>
          <circle id="Elipse_385" data-name="Elipse 385" cx="12.09" cy="12.09" r="12.09" transform="translate(70.774 37.776)" fill="#dfa330" stroke="#000" stroke-miterlimit="10" stroke-width="0.75"/>
          <path id="Caminho_940" data-name="Caminho 940" d="M107.567,104.569c1.3.432-.216-2.807.432-7.124.432-3.022,5.4-7.772,4.1-8.2s-6.693.864-7.772,7.124C103.25,101.762,106.272,104.353,107.567,104.569Z" transform="translate(-31.18 -47.578)" fill="#ebc477"/>
          <path id="Caminho_941" data-name="Caminho 941" d="M173.449,195.711c4.1-11.442,12.306-26.123,13.817-38.213,4.965-39.724-12.306-61.1-45.121-66.279-24.4-3.886-55.916-4.965-73.619,15.112-20.078,22.453-23.532,64.983-13.385,92.618,1.079,3.238,10.363,13.6,12.954,15.976s7.34-1.3,10.363-2.807Z" transform="translate(10.669 -47.83)" fill="url(#linear-gradient-3)"/>
          <path id="Caminho_942" data-name="Caminho 942" d="M52.489,194.263c3.022-3.022,8.636-3.454,11.01.216.216.432,1.511,2.807,1.943,2.807a17.985,17.985,0,0,1,3.238-.864c-.216,0-1.511-9.715-3.022-20.941a33.13,33.13,0,0,0,5.829-9.5c2.807-7.556,2.159-28.5.648-36.486,14.249-29.577,82.255-44.69,99.31,2.375.216.432-6.045,27.634,5.4,34.111,10.147,5.613.648,47.064-35.19,50.951-17.271,1.943-62.177-1.079-72.54-9.715-.432-.432-1.079-.216-1.3.432a10.027,10.027,0,0,1-2.807,4.318l-.648.648c-4.318,2.807-13.385-.432-15.328-5.613C47.092,202.251,49.466,197.285,52.489,194.263Z" transform="translate(20.876 -32.997)" fill="#ba7b43"/>
          <path id="Caminho_943" data-name="Caminho 943" d="M88.233,127.258a28.323,28.323,0,0,1,1.079,13.6c-.432,3.454-6.693,5.181-7.988,1.943-2.159-4.534-2.375-11.442-1.511-15.544C80.677,122.724,86.29,122.076,88.233,127.258Z" transform="translate(44.934 -7.659)" fill="#201f20"/>
          <path id="Caminho_944" data-name="Caminho 944" d="M71.933,125.871a28.323,28.323,0,0,1,1.079,13.6c-.432,3.454-6.693,5.181-7.988,1.943-2.159-4.534-2.375-11.442-1.511-15.544C64.377,121.553,69.99,120.905,71.933,125.871Z" transform="translate(96.424 -9.078)" fill="#201f20"/>
          <path id="Caminho_945" data-name="Caminho 945" d="M105.582,146.838c2.807-1.727,5.829-1.079,8.2.864a1.543,1.543,0,0,1-.432,2.591c-1.3.648-2.159,1.727-1.511,3.238.648,1.727,2.591,1.079,3.886.648a1.07,1.07,0,0,1,1.3,1.3c-1.079,3.238-5.829,2.591-7.556.216A5.516,5.516,0,0,1,109.9,149a3.747,3.747,0,0,0-3.023.648c-1.079.864-1.079,2.591-1.3,3.886a1.058,1.058,0,0,1-1.943.216C102.128,151.371,103.423,148.349,105.582,146.838Z" transform="translate(-33.512 18.099)" fill="#915b23"/>
          <path id="VENTA_6_" d="M67.764,139.491a5.679,5.679,0,0,1,6.045-7.556,12.455,12.455,0,0,1,3.022.648h0c-.648-.216-.432-.216,0,0a7.11,7.11,0,0,1,8.42,4.534c1.3,3.454-.432,8.42-4.1,9.283C75.536,147.911,70.139,145.32,67.764,139.491Z" transform="translate(74.687 1.913)" fill="#774928" opacity="0.6"/>
          <g id="ROUPA_5_" transform="translate(69.479 193.536)">
            <g id="FRENTE_6_">
              <path id="Caminho_946" data-name="Caminho 946" d="M68.179,163.791c-.432-.864-.648-1.727-1.079-2.591A13.205,13.205,0,0,0,68.179,163.791Z" transform="translate(23.359 -157.631)" fill="#6191c9"/>
              <path id="Caminho_947" data-name="Caminho 947" d="M68.779,162.275c-.432-.864-.648-1.511-1.079-2.375A11.57,11.57,0,0,0,68.779,162.275Z" transform="translate(21.463 -159.138)" fill="#6191c9"/>
              <path id="Caminho_948" data-name="Caminho 948" d="M68.362,159.9Z" transform="translate(20.802 -159.138)" fill="#6191c9"/>
              <path id="Caminho_949" data-name="Caminho 949" d="M67.816,161.432c0-.216-.216-.216-.216-.432C67.6,161.216,67.6,161.216,67.816,161.432Z" transform="translate(22.643 -157.863)" fill="#6191c9"/>
              <path id="Caminho_950" data-name="Caminho 950" d="M129.111,163.547a6.912,6.912,0,0,0-5.829-3.67c-7.772-.648-22.021-.216-22.237.216,0,.216-.648,1.3-.648,1.511a3.79,3.79,0,0,0-.864,1.079c0,.216-1.079.864-1.079,1.079-.432.648-1.511.216-2.375.432-14.249,3.67-42.747,99.742-56.78,145.079,79.232,26.987,108.378,24.828,151.556,4.75-9.5-38.213-25.475-135.364-60.018-148.318A6.615,6.615,0,0,1,129.111,163.547Z" transform="translate(-39.3 -159.547)" fill="#473a57"/>
            </g>
          </g>
          <g id="ESQUERDA_10_" transform="translate(106.612 294.552)">
            <g id="Grupo_298" data-name="Grupo 298" transform="translate(0 0)">
              <g id="Grupo_297" data-name="Grupo 297">
                <path id="Caminho_951" data-name="Caminho 951" d="M93.379,207.768a59.752,59.752,0,0,0,2.159,10.795,134.156,134.156,0,0,0,4.318,13.169c1.727,4.75,4.534,9.067,5.181,14.033.432,4.318-4.966,6.477-7.988,3.886-7.124-5.829-10.147-19-12.738-27.418-1.079-3.886-2.159-7.772-3.022-11.658C84.1,206.9,90.14,204.746,93.379,207.768Z" transform="translate(-81.289 -206.337)" fill="#d99156"/>
                <g id="Grupo_296" data-name="Grupo 296" transform="translate(1.511 29.713)">
                  <path id="Caminho_952" data-name="Caminho 952" d="M111.7,258.745a5.365,5.365,0,0,1,.216,1.727,2.246,2.246,0,0,1-2.807,1.3,5.137,5.137,0,0,1-2.807-1.943c-3.67-3.886-6.477-13.385-9.283-12.306-1.943.864-.216,6.693.648,10.579a21.291,21.291,0,0,1,.648,5.181c0,3.022-4.534,3.454-5.181.648-.864-3.886-.864-10.147-2.375-13.817a1.164,1.164,0,0,0-2.159,0l-3.454,10.363c-.648,1.511-1.943,3.238-3.454,2.591-1.3-.432-1.3-2.375-1.079-3.67a35.133,35.133,0,0,1,2.807-7.988c.648-1.3,1.511-3.022.432-4.318s-3.238-.864-4.318.216c-1.3,1.079-2.159,2.591-3.454,3.454-1.511.864-3.886.216-3.886-1.511a4,4,0,0,1,.432-1.511c2.159-3.454,7.34-5.613,7.34-9.715,0-3.023-1.079-5.181-.216-7.988.648-2.375,1.3-3.454,3.238-4.318a9.384,9.384,0,0,0,4.534-3.022c1.3-1.727,2.159-2.591,4.318-2.591a8.139,8.139,0,0,1,5.4,2.375c1.511,1.3,2.807,3.454,4.318,4.966,1.943,1.943,3.886.648,6.261-.432a6.661,6.661,0,0,1,3.886-1.079c1.511,0,2.591,1.727,2.375,3.238a6.465,6.465,0,0,1-.864,2.159c-2.159,4.75-6.261,3.238-11.874,3.454C102.412,243.2,109.321,250.757,111.7,258.745Z" transform="translate(-72.187 -220.1)" fill="#d99156"/>
                </g>
              </g>
            </g>
          </g>
          <path id="Caminho_953" data-name="Caminho 953" d="M119.315,262.364,72.466,252.217,54.979,238.4,44.4,252l18.351,14.681,24.4,15.544Z" transform="translate(90.71 125.373)" fill="url(#linear-gradient-4)"/>
          <path id="Caminho_954" data-name="Caminho 954" d="M191.463,298.7s-116.15-9.067-128.024-43.394,31.3-51.382,47.064-42.315,88.516,65.631,88.516,65.631Z" transform="translate(-25.696 93.137)" fill="#dde3e8"/>
          <path id="Caminho_955" data-name="Caminho 955" d="M64,247.234l47.928,3.67,20.51-8.2,6.477,15.976-21.805,8.636L89.259,275.3Z" transform="translate(28.795 130.357)" fill="url(#linear-gradient-5)"/>
          <path id="Caminho_956" data-name="Caminho 956" d="M10.773,280.562s84.414-80.312,117.877-66.279,17.271,57.643,0,63.256C111.379,283.369,20.7,299.561,20.7,299.561Z" transform="translate(134.484 95.517)" fill="#dde3e8"/>
          <path id="Caminho_957" data-name="Caminho 957" d="M120.449,162.943s-20.726,26.771-16.84,37.133l14.681,79.664L83.531,290.1s-3.67-53.541,0-68.006c7.988-30.873,17.919-45.121,19.43-47.712C106.848,167.909,121.312,161,121.312,161" transform="translate(7.753 35.673)" fill="#b3aeba"/>
          <g id="ESQUERDA_7_" transform="translate(145.445 303.835)">
            <g id="Grupo_301" data-name="Grupo 301" transform="translate(0)">
              <g id="Grupo_300" data-name="Grupo 300" transform="translate(0)">
                <path id="Caminho_958" data-name="Caminho 958" d="M65.883,212.068a59.754,59.754,0,0,1-2.159,10.795,134.164,134.164,0,0,1-4.318,13.169c-1.727,4.75-4.534,9.067-5.181,14.033-.432,4.318,4.966,6.477,7.988,3.886,7.124-5.829,10.147-19,12.738-27.418,1.079-3.886,2.159-7.772,3.022-11.658C75.166,211.2,69.121,209.046,65.883,212.068Z" transform="translate(-34.551 -210.637)" fill="#d99156"/>
                <g id="Grupo_299" data-name="Grupo 299" transform="translate(0 29.713)">
                  <path id="Caminho_959" data-name="Caminho 959" d="M57.3,263.045a5.365,5.365,0,0,0-.216,1.727,2.246,2.246,0,0,0,2.807,1.3,5.137,5.137,0,0,0,2.807-1.943c3.67-3.886,6.477-13.385,9.283-12.306,1.943.864.216,6.693-.648,10.579a21.293,21.293,0,0,0-.648,5.181c0,3.022,4.534,3.454,5.181.648.864-3.886.864-10.147,2.375-13.817a1.164,1.164,0,0,1,2.159,0l3.454,10.363c.648,1.511,1.943,3.238,3.454,2.591,1.3-.432,1.3-2.375,1.079-3.67a35.134,35.134,0,0,0-2.807-7.988c-.648-1.3-1.511-3.022-.432-4.318s3.238-.864,4.318.216c1.3,1.079,2.159,2.591,3.454,3.454,1.511.864,3.886.216,3.886-1.511a4,4,0,0,0-.432-1.511c-2.159-3.454-7.34-5.613-7.34-9.715,0-3.022,1.079-5.181.216-7.988-.648-2.375-1.3-3.454-3.238-4.318a9.384,9.384,0,0,1-4.534-3.022c-1.3-1.727-2.159-2.591-4.318-2.591a8.139,8.139,0,0,0-5.4,2.375c-1.511,1.3-2.807,3.454-4.318,4.966-1.943,1.943-3.886.648-6.261-.432a6.661,6.661,0,0,0-3.886-1.079c-1.511,0-2.591,1.727-2.375,3.238a6.465,6.465,0,0,0,.864,2.159c2.159,4.75,6.261,3.238,11.874,3.454C66.586,247.5,59.677,255.057,57.3,263.045Z" transform="translate(-54.9 -224.4)" fill="#d99156"/>
                </g>
              </g>
            </g>
          </g>
          <path id="Caminho_960" data-name="Caminho 960" d="M49.378,162.564s21.589,26.123,17.7,36.27L52.4,278.5,87.159,288.86s4.966-47.928,0-68.006C79.6,189.982,69.888,175.3,67.729,173.142S50.241,161.7,50.241,161.7" transform="translate(109.912 36.484)" fill="#b3aeba"/>
          <path id="GOLA_6_" d="M67,164.034c0,3.022,6.477,6.045,15.76,6.045s17.271-3.022,17.271-6.045c0-1.079-3.238-4.534-4.966-4.534-.864,0,.432,2.807-1.511,3.238a54.937,54.937,0,0,1-11.226,1.079c-3.67,0-7.34,0-9.931-.864-2.159-.864-.648-3.022-1.3-3.238C67.648,158.852,67,162.738,67,164.034Z" transform="translate(61.202 33.934)" fill="#dfa330"/>
          <path id="PESCOÇO_5_" d="M72.2,155.035c1.727.432,9.5-.648,13.169.432.864,7.988.648,5.181,1.511,13.169a95.125,95.125,0,0,1-14.681.432A133.9,133.9,0,0,0,72.2,155.035Z" transform="translate(63.126 28.684)" fill="#915b23"/>
          <path id="BOCA_17_" d="M79.425,122.794c.216,1.727-1.943,2.375-2.807.216-1.511-3.454-3.022-6.261-6.261-8.2-2.591-1.511-5.181-1.079-7.772-1.3-1.943-.216-3.022-2.807-1.727-3.886C66.9,104.659,78.777,114.374,79.425,122.794Z" transform="translate(96.273 -25.432)" fill="#201f20"/>
          <path id="BOCA_16_" d="M79.653,129.351c-.216,1.727,1.943,2.375,2.807.216,1.511-3.454,3.022-6.261,6.261-8.2,2.591-1.511,5.181-1.079,7.772-1.3,1.943-.216,3.022-2.807,1.727-3.886C92.175,111.432,80.3,120.931,79.653,129.351Z" transform="translate(35.163 -17.74)" fill="#201f20"/>
          <path id="Caminho_961" data-name="Caminho 961" d="M96.622,142.3S80.43,155.9,61,149.856" transform="translate(77.564 14.001)" fill="#915b23"/>
        </g>
      </g>
      <path id="Caminho_482-2" data-name="Caminho 482" d="M120.714,6.778C68.907,6.778,0-19.724,0,32.08S34.116,177.249,85.923,177.249,172.521,6.778,120.714,6.778Z" transform="matrix(0.574, -0.819, 0.819, 0.574, 105.533, 516.992)" fill="#dfa330" opacity="0.35"/>
      <g id="Grupo_304" data-name="Grupo 304" transform="translate(118.893 223.274)">
        <g id="Grupo_236" data-name="Grupo 236" transform="translate(0 0)" clip-path="url(#clip-path)">
          <path id="Caminho_505" data-name="Caminho 505" d="M704.8,220.922c5.193-2.638,97.3,69.74,97.3,69.74s4.678,9.291-2.732,13.1L758.3,324.643c-6.765,3.434-11.508.477-13.3-3.069s-43.8-86.235-46.051-90.66S699.611,223.56,704.8,220.922Zm0,0" transform="translate(-677.143 -191.093)" fill="#c7cbcb"/>
          <path id="Caminho_506" data-name="Caminho 506" d="M757.621,228.989a7.737,7.737,0,0,0-10.385-3.387l-42.617,21.669a7.719,7.719,0,0,0-3.387,10.376L745.87,345.5a7.737,7.737,0,0,0,10.385,3.387l42.617-21.659a7.737,7.737,0,0,0,3.387-10.385Zm0,0" transform="translate(-677.286 -218.313)" fill="#e3e5e7"/>
        </g>
        <path id="Caminho_507" data-name="Caminho 507" d="M749.3,335.405l49.176-24.99L758.486,231.74l-49.175,25Zm0,0" transform="translate(-677.86 -210.519)" fill="#2e414f"/>
        <path id="Caminho_510" data-name="Caminho 510" d="M767.651,220.79a11.268,11.268,0,0,0-4.49-1.427c-2.6-.242-4.069-.47-5.895.46l-42.617,21.659a7.738,7.738,0,0,0-3.387,10.385l44.656,87.853A7.719,7.719,0,0,0,766.3,343.1l42.617-21.659a7.728,7.728,0,0,0,3.387-10.385Zm0,2.419" transform="translate(-681.964 -208.887)" fill="none" stroke="#f3a51f" stroke-miterlimit="10" stroke-width="3" opacity="0.7"/>
      </g>
      <g id="Grupo_305" data-name="Grupo 305" transform="translate(42.215 321.567)">
        <circle id="Elipse_317-2" data-name="Elipse 317" cx="23.757" cy="23.757" r="23.757" transform="translate(4.016)" fill="#00ba91"/>
        <circle id="Elipse_318-2" data-name="Elipse 318" cx="23.757" cy="23.757" r="23.757" transform="translate(0 4.035)" fill="none" stroke="#1c0a2d" stroke-miterlimit="10" stroke-width="2"/>
      </g>
    </g>
  </g>
</svg>
