<svg xmlns="http://www.w3.org/2000/svg" xmlns:xlink="http://www.w3.org/1999/xlink" width="580.962" height="497.376" viewBox="0 0 580.962 497.376">
  <defs>
    <linearGradient id="linear-gradient" y1="0.5" x2="1" y2="0.5" gradientUnits="objectBoundingBox">
      <stop offset="0" stop-color="#fff"/>
      <stop offset="0" stop-color="#4292cc"/>
      <stop offset="1" stop-color="#256b99"/>
    </linearGradient>
    <linearGradient id="linear-gradient-2" x1="-0.261" y1="0.668" x2="0.185" y2="1.106" gradientUnits="objectBoundingBox">
      <stop offset="0" stop-color="#502e25"/>
      <stop offset="1" stop-color="#201310"/>
    </linearGradient>
    <linearGradient id="linear-gradient-3" x1="2.924" y1="2.944" x2="3.872" y2="2.944" xlink:href="#linear-gradient-2"/>
    <linearGradient id="linear-gradient-4" x1="5.737" y1="0.925" x2="6.198" y2="1.37" xlink:href="#linear-gradient-2"/>
  </defs>
  <g id="Grupo_595" data-name="Grupo 595" transform="translate(-723.679 -112.136)">
    <path id="Caminho_591" data-name="Caminho 591" d="M654.822,389.836C565.488,484.5,448.288,593.459,329.488,579.169S219.925,437.285,219.925,297.953s209.43-171.74,328.23-157.45S744.156,295.169,654.822,389.836Z" transform="translate(566.845 -8.502)" fill="#1c0a2d" opacity="0.22"/>
    <g id="Grupo_507" data-name="Grupo 507" transform="translate(247.95 268.335)">
      <path id="Caminho_608" data-name="Caminho 608" d="M137.627,274.55a37.789,37.789,0,1,0,35.163,66.877h0Z" transform="translate(578.468 -49.636)" fill="#1b0c2d"/>
      <path id="Caminho_609" data-name="Caminho 609" d="M210.4,285.89a37.789,37.789,0,0,0-51.04-15.857l35.164,66.877A37.789,37.789,0,0,0,210.4,285.89Z" transform="translate(556.715 -45.119)" fill="#1b0c2d"/>
      <path id="Caminho_610" data-name="Caminho 610" d="M207.117,296.2A30.457,30.457,0,0,0,166,283.42l28.347,53.916A30.457,30.457,0,0,0,207.117,296.2Z" transform="translate(553.334 -52.371)" fill="#e9e8e8"/>
      <path id="Caminho_611" data-name="Caminho 611" d="M149.1,287.05a30.457,30.457,0,1,0,28.347,53.916h0Z" transform="translate(570.236 -56.001)" fill="#fff"/>
      <path id="Caminho_612" data-name="Caminho 612" d="M184.33,347.32l6.454-13.079-15.773-30Z" transform="translate(548.746 -64.755)" fill="#93c4d6"/>
      <path id="Caminho_613" data-name="Caminho 613" d="M175.01,304.24l15.773,30,14.433,2.1Z" transform="translate(548.746 -64.755)" fill="url(#linear-gradient)"/>
      <path id="Caminho_614" data-name="Caminho 614" d="M211.968,280.124a41.617,41.617,0,0,0-56.208-17.466l1.786,3.4a37.789,37.789,0,0,1,35.164,66.877l1.786,3.4a41.627,41.627,0,0,0,17.471-56.208Z" transform="translate(558.548 -41.14)" fill="#1b0c2d"/>
      <path id="Caminho_615" data-name="Caminho 615" d="M169.614,337.9a37.789,37.789,0,1,1-35.164-66.877h0l-1.786-3.4h0A41.618,41.618,0,0,0,171.4,341.3h0Z" transform="translate(581.645 -46.112)" fill="#1b0c2d"/>
      <path id="Caminho_616" data-name="Caminho 616" d="M162.25,277.086a2.429,2.429,0,1,0-1.016,3.283,2.429,2.429,0,0,0,1.016-3.283Z" transform="translate(557.575 -50.267)" fill="#e01227"/>
      <path id="Caminho_617" data-name="Caminho 617" d="M227.246,400.549a2.429,2.429,0,1,0-1.021,3.278,2.429,2.429,0,0,0,1.021-3.278Z" transform="translate(524.478 -113.136)" fill="#fff"/>
      <path id="Caminho_618" data-name="Caminho 618" d="M255.454,309.639a2.429,2.429,0,1,0-1.853.17A2.429,2.429,0,0,0,255.454,309.639Z" transform="translate(509.594 -65.172)" fill="#fff"/>
      <path id="Caminho_619" data-name="Caminho 619" d="M131.974,374.5a2.454,2.454,0,1,0-3.278-1.021,2.454,2.454,0,0,0,3.278,1.021Z" transform="translate(572.479 -98.17)" fill="#fff"/>
      <path id="Caminho_620" data-name="Caminho 620" d="M127.344,318.647a1.566,1.566,0,1,0,.923.768,1.566,1.566,0,0,0-.923-.768Z" transform="translate(574.052 -72.055)" fill="#fff"/>
      <path id="Caminho_621" data-name="Caminho 621" d="M260.554,360.047a1.566,1.566,0,1,0,.923.768A1.566,1.566,0,0,0,260.554,360.047Z" transform="translate(506.217 -93.138)" fill="#fff"/>
      <path id="Caminho_622" data-name="Caminho 622" d="M215.684,274.7a1.566,1.566,0,1,0-.768.923A1.566,1.566,0,0,0,215.684,274.7Z" transform="translate(529.593 -48.681)" fill="#fff"/>
      <ellipse id="Elipse_329" data-name="Elipse 329" cx="1.566" cy="1.566" rx="1.566" ry="1.566" transform="translate(721.339 290.286) rotate(-27.73)" fill="#fff"/>
      <circle id="Elipse_330" data-name="Elipse 330" cx="42.466" cy="42.466" r="42.466" transform="translate(694.437 216.802)" fill="none" stroke="#707070" stroke-miterlimit="10" stroke-width="2"/>
    </g>
    <g id="Grupo_509" data-name="Grupo 509" transform="translate(-293.325 154.127)">
      <path id="Caminho_630" data-name="Caminho 630" d="M603,223.717a11.092,11.092,0,0,1-16.255.817l-.414-.413a11.092,11.092,0,0,1,.535-16.255c12.675-10.941,35.01-30.462,43.51-39.447,7.542-7.966,30.553-31.188,30.553-31.188l11.5,11.294s-22.91,23.323-30.755,31C632.832,188.152,613.7,210.83,603,223.717Z" transform="translate(465.134 9.947)" fill="#1b0c2d"/>
      <rect id="Retângulo_1510" data-name="Retângulo 1510" width="58.132" height="98.506" transform="matrix(0.701, -0.713, 0.713, 0.701, 1095.628, 120.238)" fill="#1b0c2d"/>
      <rect id="Retângulo_1511" data-name="Retângulo 1511" width="29.061" height="98.506" transform="matrix(0.701, -0.713, 0.713, 0.701, 1095.623, 120.224)" fill="#3f2b60"/>
      <rect id="Retângulo_1512" data-name="Retângulo 1512" width="58.132" height="7.966" transform="translate(1160.233 183.75) rotate(-45.48)" fill="#3f2b60"/>
      <rect id="Retângulo_1513" data-name="Retângulo 1513" width="63.234" height="12.514" transform="matrix(0.701, -0.713, 0.713, 0.701, 1162.713, 189.757)" fill="#dbe3e7"/>
      <rect id="Retângulo_1514" data-name="Retângulo 1514" width="58.132" height="7.885" transform="translate(1095.635 120.228) rotate(-45.48)" fill="#3f2b60"/>
      <rect id="Retângulo_1515" data-name="Retângulo 1515" width="63.244" height="12.514" transform="matrix(0.701, -0.713, 0.713, 0.701, 1086.1, 114.474)" fill="#dbe3e7"/>
      <rect id="Retângulo_1516" data-name="Retângulo 1516" width="87.63" height="8.965" transform="matrix(1, -0.01, 0.01, 1, 1136.522, 241.737)" fill="#3f2b60"/>
      <rect id="Retângulo_1517" data-name="Retângulo 1517" width="104.067" height="8.965" transform="matrix(1, -0.01, 0.01, 1, 1128.384, 249.785)" fill="#dbe3e7"/>
      <rect id="Retângulo_1518" data-name="Retângulo 1518" width="43.924" height="8.964" transform="matrix(1, -0.009, 0.009, 1, 1179.856, 242.344)" fill="#1b0c2d"/>
      <rect id="Retângulo_1519" data-name="Retângulo 1519" width="52.145" height="8.955" transform="matrix(1, -0.01, 0.01, 1, 1180.312, 249.255)" fill="#dbe3e7"/>
      <path id="Caminho_631" data-name="Caminho 631" d="M703.745,179.175l-1.886,1.916,9.388,9.237,46.687-47.483-9.388-9.186-1.9,1.916-4.507-4.437h0l-62.326-61.3-4.507-4.427L677.2,63.5l-9.388-9.237-46.687,47.483,9.388,9.237,1.886-1.916,4.739,4.649h0l24.533,24.09c-5.516,5.576-23.868,24.15-30.583,31.259-8.954,9.458-32.479,30.019-45.82,41.544a11.636,11.636,0,0,0-.565,17.142l.434.434a11.647,11.647,0,0,0,17.142-.867c11.283-13.542,31.43-37.42,40.738-46.525,6.978-6.837,25.3-25.441,30.8-31.027Z" transform="translate(465.119 9.254)" fill="none" stroke="#3f92cc" stroke-miterlimit="10" stroke-width="1"/>
      <path id="Caminho_632" data-name="Caminho 632" d="M774.168,242.879l-8.652.081-.071-8.389-46.253.383v.01l-46.021.383.071,8.39-8.652.081.081,9.428,109.578-.928Z" transform="translate(465.815 10.76)" fill="none" stroke="#3f92cc" stroke-miterlimit="10" stroke-width="1"/>
    </g>
    <g id="Grupo_508" data-name="Grupo 508" transform="translate(112 29.677)">
      <rect id="Retângulo_1520" data-name="Retângulo 1520" width="7.07" height="24.331" transform="translate(807.308 115.985) rotate(-45)" fill="#1b0c2d"/>
      <rect id="Retângulo_1521" data-name="Retângulo 1521" width="64.739" height="7.07" transform="translate(819.763 128.236) rotate(-45)" fill="#1b0c2d"/>
      <path id="Caminho_633" data-name="Caminho 633" d="M328.27,90.783l-5.113-5.113-41.824,41.824-12.638-12.638-5.113,5.113,17.6,17.6.1-.1.151.151Z" transform="translate(543.73 -0.659)" fill="none" stroke="#5183bf" stroke-miterlimit="10" stroke-width="1"/>
    </g>
    <path id="Caminho_634" data-name="Caminho 634" d="M855.035,340.47a6.885,6.885,0,0,1-4.244,3.763,7.066,7.066,0,0,1-9.572-5.448l-5.674-22.372L815.228,326.88a7.744,7.744,0,0,1-3.288.948,6.773,6.773,0,0,1-3.228-.625,7.412,7.412,0,0,1-3.589-3.762,5.712,5.712,0,0,1-.218-5.012,7.1,7.1,0,0,1,3.552-3.416l23.786-11.656-6.772-26.864a6.7,6.7,0,0,1,.384-4.6,6.818,6.818,0,0,1,4.169-3.762,7.224,7.224,0,0,1,5.538.218,7.3,7.3,0,0,1,4.116,5.2l5.772,22.966,20.084-10.828a6.845,6.845,0,0,1,6.622-.549,6.653,6.653,0,0,1,3.612,3.845,6.2,6.2,0,0,1-.075,4.936,7.21,7.21,0,0,1-3.492,3.574l-23.576,11.513,6.773,26.864A6.7,6.7,0,0,1,855.035,340.47Z" transform="translate(426.87 -35.57)" fill="none" stroke="#f3a51f" stroke-miterlimit="10" stroke-width="3"/>
    <g id="tela1-2" transform="translate(984.098 139.093)">
      <g id="ESQUERDA_9_" transform="translate(162.241 259.537)">
        <g id="Grupo_266" data-name="Grupo 266">
          <g id="Grupo_265" data-name="Grupo 265">
            <path id="Caminho_700" data-name="Caminho 700" d="M110.907,149.85a54.825,54.825,0,0,1-1.981,9.9,123.093,123.093,0,0,1-3.962,12.083c-1.585,4.358-4.16,8.319-4.754,12.875-.4,3.962,4.556,5.942,7.329,3.565,6.537-5.348,9.31-17.431,11.687-25.156.99-3.565,1.981-7.131,2.773-10.7C119.425,149.058,113.879,147.077,110.907,149.85Z" transform="translate(-82.161 -148.537)" fill="#d99156"/>
            <g id="Grupo_264" data-name="Grupo 264" transform="translate(0 27.262)">
              <path id="Caminho_701" data-name="Caminho 701" d="M93.291,197.756a4.923,4.923,0,0,0-.2,1.585,2.061,2.061,0,0,0,2.575,1.188,4.713,4.713,0,0,0,2.575-1.783c3.367-3.565,5.942-12.281,8.517-11.291,1.783.792.2,6.141-.594,9.706a19.535,19.535,0,0,0-.594,4.754c0,2.773,4.16,3.169,4.754.594.792-3.565.792-9.31,2.179-12.677a1.068,1.068,0,0,1,1.981,0l3.169,9.508c.594,1.387,1.783,2.971,3.169,2.377,1.188-.4,1.188-2.179.99-3.367a32.236,32.236,0,0,0-2.575-7.329c-.594-1.188-1.387-2.773-.4-3.962s2.971-.792,3.962.2c1.188.99,1.981,2.377,3.169,3.169,1.387.792,3.565.2,3.565-1.387a3.672,3.672,0,0,0-.4-1.387c-1.981-3.169-6.735-5.15-6.735-8.914,0-2.773.99-4.754.2-7.329-.594-2.179-1.188-3.169-2.971-3.962a8.609,8.609,0,0,1-4.16-2.773c-1.188-1.585-1.981-2.377-3.962-2.377a7.467,7.467,0,0,0-4.952,2.179c-1.387,1.188-2.575,3.169-3.962,4.556-1.783,1.783-3.565.594-5.744-.4a6.111,6.111,0,0,0-3.565-.99c-1.387,0-2.377,1.585-2.179,2.971A5.932,5.932,0,0,0,91.9,172.6c1.981,4.358,5.744,2.971,10.894,3.169C101.809,183.494,95.47,190.427,93.291,197.756Z" transform="translate(-91.087 -162.3)" fill="#d99156"/>
            </g>
          </g>
        </g>
      </g>
      <g id="Grupo_267" data-name="Grupo 267" transform="translate(137.705 343.054)">
        <path id="Caminho_702" data-name="Caminho 702" d="M108.016,190.7c0,34.07.4,88.145-4.754,115.877H96.527C91.179,269.734,84.84,229.127,78.7,190.7Z" transform="translate(-78.7 -190.7)" fill="#d99156"/>
        <path id="Caminho_703" data-name="Caminho 703" d="M90.742,250.5,84.8,259.61l21.591-1.585-9.31-7.725Z" transform="translate(-72.717 -132.244)" fill="#e6b54a"/>
      </g>
      <g id="Grupo_268" data-name="Grupo 268" transform="translate(83.827 341.865)">
        <path id="Caminho_704" data-name="Caminho 704" d="M80.816,192.477c-2.773,33.872-7.131,87.947-14.46,115.084-2.179-.2-4.556-.4-6.735-.594C57.244,269.728,54.273,228.924,51.5,190.1Z" transform="translate(-51.5 -190.1)" fill="#d99156"/>
        <path id="Caminho_705" data-name="Caminho 705" d="M58.935,250.4,52.2,258.719l21.591.4L65.273,250.6Z" transform="translate(-50.813 -130.958)" fill="#e6b54a"/>
      </g>
      <path id="Caminho_706" data-name="Caminho 706" d="M80.314,32.406c4.16-.4,8.517.4,10.7,3.764s-.2,9.508-4.16,9.706c4.358-1.783,9.31-2.575,13.668-1.387a10.582,10.582,0,0,1,7.725,9.9c0,4.754-4.358,9.706-8.914,9.508,4.754.594,9.31,1.981,12.677,5.15a13.132,13.132,0,0,1,3.764,13.073c-1.387,4.754-6.537,8.914-11.092,7.923,3.565,2.773,6.735,7.131,5.546,11.885-.99,4.358-5.348,7.329-9.706,8.121s-8.517-.2-12.479-1.188c-1.981,8.517-11.687,14.856-19.61,12.875-4.358-.99-7.923-5.744-5.744-9.9-3.962,2.575-7.923,5.348-12.281,6.339-4.358,1.188-9.31.594-12.083-2.773-2.773-3.169-2.179-9.508,1.585-12.083-5.546,4.358-13.866,3.962-18.025-.99s-3.367-13.469,1.585-18.619c-7.131-2.377-11.489-10.7-9.9-18.619a12.029,12.029,0,0,1,3.764-6.735c3.565-2.575,8.319-1.188,12.083.2-3.169-3.962-2.377-10.894,1.981-14.46,4.16-3.565,10.894-3.367,13.866.594,2.179-4.16,4.358-8.517,7.725-11.687s8.517-5.15,12.479-3.367,5.15,7.923,1.783,11.092C68.627,35.575,74.966,32.8,80.314,32.406Z" transform="translate(-5.202 -6.28)" fill="url(#linear-gradient-2)"/>
      <circle id="Elipse_344" data-name="Elipse 344" cx="11.092" cy="11.092" r="11.092" transform="translate(57.086 57.027)" fill="#dfa330" stroke="#000" stroke-miterlimit="10" stroke-width="0.75"/>
      <path id="Caminho_707" data-name="Caminho 707" d="M54.86,52.8c0,1.188-2.377-.99-6.14-1.783C45.946,50.419,40.4,53.39,40.4,52.2s2.773-5.546,8.517-4.754C53.869,48.24,55.058,51.607,54.86,52.8Z" transform="translate(21.44 11.758)" fill="#ebc477"/>
      <circle id="Elipse_345" data-name="Elipse 345" cx="11.092" cy="11.092" r="11.092" transform="translate(68.773 48.509)" fill="#dfa330" stroke="#000" stroke-miterlimit="10" stroke-width="0.75"/>
      <path id="Caminho_708" data-name="Caminho 708" d="M60.76,48.5c0,1.188-2.377-.99-6.14-1.783C51.846,46.119,46.3,49.09,46.3,47.9s2.773-5.546,8.517-4.754C59.571,44.138,60.958,47.505,60.76,48.5Z" transform="translate(27.227 7.541)" fill="#ebc477"/>
      <path id="Caminho_709" data-name="Caminho 709" d="M72.056,78.915c-.792,3.962,0,8.121,1.387,12.479.99,2.971,6.933,3.367,7.725.4.99-4.556,0-10.7-1.387-14.262C78,73.567,72.848,73.963,72.056,78.915Z" transform="translate(52.179 38.724)" fill="#201f20"/>
      <path id="Caminho_710" data-name="Caminho 710" d="M62.093,149.7c-5.744-9.706-15.846-21.195-19.412-31.891-11.489-34.862,0-57.245,28.523-67.941,21.195-7.923,49.322-14.658,68.932.2,22.185,16.639,32.881,54.076,28.92,81.015-.4,3.169-6.933,14.064-8.715,16.639s-6.735.2-9.706-.594Z" transform="translate(19.357 5.776)" fill="url(#linear-gradient-3)"/>
      <path id="Caminho_711" data-name="Caminho 711" d="M93.481,28.781c-3.962,1.188-7.725,3.764-8.517,7.725-.594,3.962,3.764,8.716,7.725,7.329-4.754.2-9.508,1.188-13.073,4.16-3.367,2.773-5.15,7.725-3.367,12.083s7.725,7.329,11.885,5.15c-4.16,2.377-7.725,5.546-9.706,9.706A13.33,13.33,0,0,0,80.012,88.4c3.169,3.962,9.508,5.546,13.271,2.971-2.377,3.962-3.565,9.112-.594,13.073,2.575,3.565,7.923,4.754,12.083,3.764s7.527-3.565,10.894-5.942c5.15,7.131,16.639,9.112,23.175,4.358,3.565-2.575,5.15-8.319,1.585-11.489,4.556.792,9.31,1.783,13.866,1.188s8.914-3.169,10.1-7.329-1.585-9.508-6.14-10.5c6.735,1.981,14.262-1.783,16.243-7.923s-2.179-13.866-8.716-16.639c5.744-4.952,6.537-14.262,1.783-21a11.362,11.362,0,0,0-6.14-4.754c-4.358-.99-8.121,1.981-11.092,4.952,1.387-4.754-1.981-10.894-7.329-12.677S131.711,21.65,130.324,26.4c-3.565-2.971-7.329-6.14-11.687-7.923-4.358-1.585-9.9-1.387-12.677,1.783a6.921,6.921,0,0,0,2.773,10.894C105.366,27.2,98.631,27,93.481,28.781Z" transform="translate(55.91 -17.51)" fill="url(#linear-gradient-4)"/>
      <path id="Caminho_712" data-name="Caminho 712" d="M160.663,127.224c-3.367-2.179-8.319-1.585-9.9,2.179-.2.4-.792,2.773-1.188,2.773-2.377-.4-.594-.2-3.169-.2.2,0-.4-8.914-.99-19.412a25.2,25.2,0,0,1-6.933-7.527c-3.962-6.339-7.131-25.354-7.131-32.683C113.124,48.388,49.144,47,42.41,92.362c0,.4,10.3,23.77,1.387,31.495-7.923,6.933,7.923,42.389,41,39.418,15.846-1.387,55.858-12.281,63.584-21.789.4-.4.99-.4,1.188.2a9.153,9.153,0,0,0,3.367,3.367,1.5,1.5,0,0,0,.792.4c4.556,1.783,11.885-2.773,12.875-7.725C167,133.364,163.833,129.2,160.663,127.224Z" transform="translate(22.798 20.127)" fill="#ba7b43"/>
      <path id="Caminho_713" data-name="Caminho 713" d="M54.756,82.415c-.792,3.962,0,8.121,1.387,12.479.99,2.971,6.933,3.367,7.725.4.99-4.556,0-10.7-1.387-14.262C60.7,77.067,55.548,77.463,54.756,82.415Z" transform="translate(35.212 42.157)" fill="#201f20"/>
      <path id="Caminho_714" data-name="Caminho 714" d="M70.956,80.582c-.792,3.962,0,8.121,1.387,12.479.99,2.971,6.933,3.367,7.725.4.99-4.556,0-10.7-1.387-14.262C77.1,75.234,71.946,75.829,70.956,80.582Z" transform="translate(51.101 40.424)" fill="#201f20"/>
      <path id="Caminho_715" data-name="Caminho 715" d="M107.079,93.633c-2.773-1.188-5.348,0-7.329,2.179a1.406,1.406,0,0,0,.792,2.179,2.27,2.27,0,0,1,1.981,2.575c-.4,1.585-2.179,1.387-3.367,1.387a.953.953,0,0,0-.792,1.387c1.585,2.773,5.744,1.188,6.933-1.188a4.913,4.913,0,0,0-1.585-5.942,2.793,2.793,0,0,1,2.773.2c1.188.594,1.387,2.179,1.783,3.367a.971.971,0,0,0,1.783-.2C110.843,97.2,109.258,94.623,107.079,93.633Z" transform="translate(78.165 56.689)" fill="#915b23"/>
      <path id="VENTA_4_" d="M76.786,92.2a5.27,5.27,0,0,0-6.933-5.744c-.99.4-1.783.594-2.575.99h0c.594-.4.2-.2,0,0a6.994,6.994,0,0,0-6.933,5.546c-.594,3.367,1.783,7.329,5.348,7.725C71.438,101.116,75.8,97.748,76.786,92.2Z" transform="translate(40.913 49.801)" fill="#774928" opacity="0.6"/>
      <g id="ROUPA_4_" transform="translate(73.725 184.908)">
        <path id="Caminho_716" data-name="Caminho 716" d="M142.531,159.9c5.942,10.894-7.527,154.5-6.339,160.643-9.706,2.179-6.537.4-16.441,2.773-2.971-8.914-21-87.947-24.562-97.257l-3.169-.2c-.594,0,0,.99-.2,1.585-5.942,17.233-14.262,82.2-20.2,97.257-7.329-1.585-10.5.2-17.827-1.387,1.188-32.683-5.942-107.755-1.585-140.24Z" transform="translate(-42.104 -62.763)" fill="#dde3e8"/>
        <g id="FRENTE_4_">
          <path id="Caminho_717" data-name="Caminho 717" d="M66.3,115.077c.4-.792.594-1.585.99-2.377A6.611,6.611,0,0,1,66.3,115.077Z" transform="translate(-26.882 -109.057)" fill="#473a57"/>
          <path id="Caminho_718" data-name="Caminho 718" d="M82.4,112.7" transform="translate(-11.091 -109.057)" fill="#473a57"/>
          <path id="Caminho_719" data-name="Caminho 719" d="M66.9,113.679c.4-.792.594-1.387.99-2.179A10.616,10.616,0,0,1,66.9,113.679Z" transform="translate(-26.294 -110.233)" fill="#473a57"/>
          <path id="Caminho_720" data-name="Caminho 720" d="M67.5,111.5Z" transform="translate(-25.705 -110.234)" fill="#473a57"/>
          <path id="Caminho_721" data-name="Caminho 721" d="M66.8,113c0-.2.2-.2.2-.4C67,112.8,67,112.8,66.8,113Z" transform="translate(-26.392 -109.155)" fill="#473a57"/>
          <path id="Caminho_722" data-name="Caminho 722" d="M81.8,111.6" transform="translate(-11.68 -110.135)" fill="#473a57"/>
          <path id="Caminho_723" data-name="Caminho 723" d="M87.4,114.9c1.188-1.981.594-3.367,2.773-3.565,7.131-.594,22.185-.594,22.581-.2,0,.2,1.981.792,2.179.99.4.4,0,.4.4.99a5.784,5.784,0,0,0,.4,1.783c.4.594,2.179.4,2.971.4,13.073,3.367,34.862,111.717,47.737,153.314-28.722,14.658-94.088,9.706-120.036-.594,8.716-35.06,8.121-139.25,39.814-151.135Z" transform="translate(-46.4 -110.861)" fill="#473a57"/>
        </g>
      </g>
      <g id="ESQUERDA_8_" transform="translate(0 167.357)">
        <g id="Grupo_271" data-name="Grupo 271">
          <g id="Grupo_270" data-name="Grupo 270">
            <path id="Caminho_724" data-name="Caminho 724" d="M53.014,136.267c-2.971-1.585-5.942-3.367-8.716-5.15a96.4,96.4,0,0,1-9.9-7.923c-3.565-2.971-6.339-6.735-10.5-8.716-3.565-1.585-7.131,2.377-5.744,5.744,2.971,7.923,13.073,14.658,19.808,19.412,2.971,2.179,6.14,4.16,9.31,6.14C50.835,144.586,54.6,140.031,53.014,136.267Z" transform="translate(-0.681 -90.114)" fill="#d99156"/>
            <g id="Grupo_269" data-name="Grupo 269">
              <path id="Caminho_725" data-name="Caminho 725" d="M12.785,102.594A2.249,2.249,0,0,0,11.2,102a2.17,2.17,0,0,0-1.981,2.179c-.2.99.4,2.179.792,3.169,2.179,4.358,9.508,9.706,7.725,11.885-2.377-1.188-8.914-.99-4.556,5.744,0,.2-3.962.4-3.367,3.764.4,2.179-.2,2.377,1.188,4.358.4.4.792,3.764,1.981,4.556,1.981.99,3.764.99,6.14,1.783,2.575.99,5.942.792,8.517.99,2.179,0,2.971-.99,4.16-2.575a8.439,8.439,0,0,1,3.962-2.971c1.783-.594,2.773-.99,3.565-2.971a7.252,7.252,0,0,0-.4-5.348c-.792-1.783-1.387-4.16-2.179-5.942-.99-2.179-4.556-9.9-10.5-5.546C19.52,111.508,18.925,106.952,12.785,102.594Z" transform="translate(-9.18 -102)" fill="#d99156"/>
            </g>
          </g>
        </g>
      </g>
      <path id="DIREITO_8_" d="M87.674,147.516s-5.15,19.016-29.316,18.223c-21.393-.594-23.77-3.962-35.258-3.962,3.565-4.754,13.469-31.1,13.469-31.1s18.619,12.677,26.345,13.866c13.866,2.377,32.485-21.789,47.143-31.3,5.348-3.565-2.575,3.962-12.875,12.677C93.22,131.076,87.674,147.516,87.674,147.516Z" transform="translate(4.472 75.501)" fill="#b3aeba"/>
      <path id="DIREITO_9_" d="M81.3,112.9c3.764,0,18.025,5.546,22.779,9.112,12.281,9.706,30.7,23.175,40.012,38.427,11.092,18.223,9.508,39.22,7.527,48.53-2.179,2.971-33.872-7.527-33.872-7.527s13.668-29.118,9.9-35.852c-6.735-12.479-12.083-15.054-28.325-21.195-3.169-1.188-6.339-8.319-7.131-11.092Z" transform="translate(61.555 76.048)" fill="#b3aeba"/>
      <path id="GOLA_5_" d="M96.506,115.26c0,2.773-5.942,5.546-14.46,5.546S66.2,118.033,66.2,115.26c0-.99,2.971-4.16,4.556-4.16.792,0-.4,2.575,1.387,2.971a50.4,50.4,0,0,0,10.3.99c3.367,0,6.735,0,9.112-.792,1.981-.792.594-2.773,1.188-2.971C95.912,110.506,96.506,114.071,96.506,115.26Z" transform="translate(46.745 74.282)" fill="#db9600"/>
      <path id="PESCOÇO_4_" d="M85.86,106.9c-1.585.4-9.31,2.179-12.677,3.169-.594,4.358-.4,2.971-1.783,8.517a66.3,66.3,0,0,0,13.469.4S85.266,112.842,85.86,106.9Z" transform="translate(51.845 70.163)" fill="#915b23"/>
      <path id="BOCA_15_" d="M69.174,69.705c-1.387.792-.792,2.575,1.188,2.179,3.169-.4,5.942-.594,8.715.792,2.377,1.188,3.169,3.169,4.358,4.952.99,1.188,3.367.792,3.565-.594C87.794,70.3,75.513,66.338,69.174,69.705Z" transform="translate(48.921 32.484)" fill="#201f20"/>
      <path id="Caminho_726" data-name="Caminho 726" d="M29.1,128.108c-.4,0-1.783.792-5.348-.99-1.585-.792-2.377-3.169-1.387-7.131a7.152,7.152,0,0,1-3.565.594c-.594,0-4.754-1.188-4.952-1.783-.99-1.783.792-4.754,1.387-5.348,1.387-1.585,4.754-3.565,4.952-3.764l2.179-1.387a54.576,54.576,0,0,0-5.942,5.744,6.554,6.554,0,0,0-.594,3.764A18.064,18.064,0,0,0,19,119c4.16,1.387,5.942-4.16,6.735-3.764.594.4-3.169,7.527-1.981,9.31C24.542,126.325,24.938,127.514,29.1,128.108Z" transform="translate(-4.893 71.536)" fill="#915b23"/>
      <path id="BOCA_9_" d="M64.973,68.715c1.585.2,1.585,1.981-.2,2.377-3.169.792-5.744,1.585-7.923,3.962-1.783,1.981-1.585,4.16-2.179,6.14-.4,1.585-2.773,1.981-3.367.792C48.137,76.638,57.842,68.12,64.973,68.715Z" transform="translate(31.531 32.682)" fill="#201f20"/>
      <path id="Caminho_727" data-name="Caminho 727" d="M15.258,127.267l1.188-.2a3.388,3.388,0,0,0,1.783-1.188c.792-.792.4-2.575,0-3.169-.792-.99-7.329-2.179-7.329-2.179l7.923.99c.594-.4,1.188-.99,1.188-1.188a4.448,4.448,0,0,0-1.188-2.773L12.088,113.6l6.14,2.773a4.639,4.639,0,0,0,2.575.4c.594-.4.2-2.179.2-2.377l2.377.2a4.033,4.033,0,0,1-1.585,3.169c-.4.4-.792.4-1.387.594A3.346,3.346,0,0,1,21,120.335a2.761,2.761,0,0,1-1.387,2.179c.2,1.188.594,3.565-1.188,4.358C17.437,127.664,15.654,127.267,15.258,127.267Z" transform="translate(-7.493 76.734)" fill="#915b23"/>
      <path id="Caminho_728" data-name="Caminho 728" d="M70.123,112.117a46.164,46.164,0,0,1-7.923-.594S88.743,110.136,94.883,93.7a3.208,3.208,0,0,1,3.367-1.981h0a2.873,2.873,0,0,1,2.179,3.764C95.675,108.552,81.414,112.117,70.123,112.117Z" transform="translate(42.822 55.24)" fill="#915b23"/>
    </g>
    <path id="Caminho_531" data-name="Caminho 531" d="M26.39,37.938A3.584,3.584,0,0,1,24.179,39.9a3.684,3.684,0,0,1-5-2.84L16.228,25.4l-10.6,5.453a4.019,4.019,0,0,1-1.715.5,3.609,3.609,0,0,1-1.681-.322A3.859,3.859,0,0,1,.365,29.062a2.994,2.994,0,0,1-.121-2.619A3.7,3.7,0,0,1,2.1,24.668l12.4-6.082L10.956,4.579a3.51,3.51,0,0,1,.2-2.4A3.557,3.557,0,0,1,13.327.231a3.8,3.8,0,0,1,5.037,2.827l3.028,11.97,10.47-5.647A3.577,3.577,0,0,1,35.319,9.1,3.464,3.464,0,0,1,37.2,11.11a3.229,3.229,0,0,1-.04,2.572,3.752,3.752,0,0,1-1.822,1.869L23.047,21.56l3.544,14.007A3.51,3.51,0,0,1,26.39,37.938Z" transform="translate(755.432 439.427) rotate(49)" fill="none" stroke="#1c0a2d" stroke-miterlimit="10" stroke-width="2"/>
  </g>
</svg>
