<svg xmlns="http://www.w3.org/2000/svg" width="32" height="32" viewBox="0 0 32 32">
  <g id="Grupo_597" data-name="Grupo 597" transform="translate(-151 -272)">
    <rect id="Retângulo_247" data-name="Retângulo 247" width="32" height="32" rx="5" transform="translate(151 272)" fill="#4292cc"/>
    <path id="Caminho_3" data-name="Caminho 3" d="M10.354,1.841a31.747,31.747,0,0,1,4.142.115,5.336,5.336,0,0,1,1.956.345,4.04,4.04,0,0,1,1.956,1.956,5.336,5.336,0,0,1,.345,1.956c0,1.035.115,1.381.115,4.141a31.746,31.746,0,0,1-.115,4.142,5.336,5.336,0,0,1-.345,1.956,4.04,4.04,0,0,1-1.956,1.956,5.336,5.336,0,0,1-1.956.345c-1.035,0-1.38.115-4.141.115a31.746,31.746,0,0,1-4.141-.115,5.336,5.336,0,0,1-1.956-.345A4.04,4.04,0,0,1,2.3,16.451,5.336,5.336,0,0,1,1.956,14.5c0-1.035-.115-1.38-.115-4.141a31.747,31.747,0,0,1,.115-4.141A5.336,5.336,0,0,1,2.3,4.257a4.132,4.132,0,0,1,.805-1.15A1.945,1.945,0,0,1,4.257,2.3a5.336,5.336,0,0,1,1.956-.345,31.747,31.747,0,0,1,4.141-.115m0-1.841A33.992,33.992,0,0,0,6.1.115a7.1,7.1,0,0,0-2.531.46,4.5,4.5,0,0,0-1.841,1.15A4.5,4.5,0,0,0,.575,3.566,5.242,5.242,0,0,0,.115,6.1,33.992,33.992,0,0,0,0,10.354,33.992,33.992,0,0,0,.115,14.61a7.1,7.1,0,0,0,.46,2.531,4.5,4.5,0,0,0,1.15,1.841,4.5,4.5,0,0,0,1.841,1.15,7.1,7.1,0,0,0,2.531.46,33.992,33.992,0,0,0,4.257.115,33.992,33.992,0,0,0,4.257-.115,7.1,7.1,0,0,0,2.531-.46,4.827,4.827,0,0,0,2.991-2.991,7.1,7.1,0,0,0,.46-2.531c0-1.15.115-1.5.115-4.257A33.992,33.992,0,0,0,20.592,6.1a7.1,7.1,0,0,0-.46-2.531,4.5,4.5,0,0,0-1.15-1.841A4.5,4.5,0,0,0,17.141.575,7.1,7.1,0,0,0,14.61.115,33.992,33.992,0,0,0,10.354,0m0,5.062a5.207,5.207,0,0,0-5.292,5.292,5.292,5.292,0,1,0,5.292-5.292m0,8.743A3.39,3.39,0,0,1,6.9,10.354,3.39,3.39,0,0,1,10.354,6.9a3.39,3.39,0,0,1,3.451,3.451,3.39,3.39,0,0,1-3.451,3.451M15.876,3.566a1.265,1.265,0,1,0,1.265,1.265,1.277,1.277,0,0,0-1.265-1.265" transform="translate(156.02 277.824)" fill="#fff" fill-rule="evenodd"/>
  </g>
</svg>
