<svg xmlns="http://www.w3.org/2000/svg" width="83.496" height="15.147" viewBox="0 0 83.496 15.147">
  <g id="Prancheta_2svg" data-name="Prancheta 2svg" transform="translate(-5.188 -98.734)">
    <path id="Caminho_636" data-name="Caminho 636" d="M780.412,108.321c-1.1,1.035-2.24,2.079-3.343,3.159-.275.275-.4.262-.671,0-1.118-1.062-2.266-2.092-3.4-3.135l.092-.172c-.013.21-.037.419-.037.627,0,2.178-.018,4.357.01,6.535.006.507-.131.668-.641.629a13.923,13.923,0,0,0-1.885,0c-.435.026-.518-.143-.517-.54.012-4.514.006-9.029.014-13.543,0-.167-.14-.458.183-.475.361-.014.733-.123,1.052.242,1.174,1.327,2.382,2.624,3.581,3.932.529.58,1.072,1.15,1.58,1.747.23.269.343.279.594,0,1.683-1.867,3.389-3.714,5.089-5.563.131-.142.223-.326.452-.377.665-.147.864,0,.864.7,0,4.4-.009,8.8.012,13.206,0,.523-.121.715-.666.671a12.537,12.537,0,0,0-1.817,0c-.45.027-.564-.128-.56-.566.02-2.29.009-4.58.009-6.87Z" transform="translate(-694.751 -2.363)" fill="#473a57"/>
    <path id="Caminho_637" data-name="Caminho 637" d="M577.28,118.532c-1.031,0-1.951-.015-2.872.007a.644.644,0,0,1-.67-.416c-.8-1.527-1.621-3.039-2.437-4.557a1.294,1.294,0,0,0-1.478-.5c-.258.114-.164.342-.165.522-.009,1.436-.024,2.874,0,4.305.009.475-.079.694-.617.649a13.908,13.908,0,0,0-1.884,0c-.376.019-.443-.129-.443-.458q.012-6.734,0-13.466c0-.239-.01-.434.336-.428,2.015.042,4.043-.1,6.057.07a4,4,0,0,1,3.6,3.448,4.192,4.192,0,0,1-2.275,4.712c-.512.222-.415.4-.207.754.978,1.682,1.938,3.376,2.9,5.065A2.649,2.649,0,0,1,577.28,118.532Zm-6.082-11.44c-.359,0-.719.026-1.075-.006-.388-.035-.5.108-.48.486.03.715.028,1.435,0,2.151-.015.4.083.565.517.54.626-.036,1.254,0,1.882-.011a1.58,1.58,0,1,0-.038-3.159C571.736,107.087,571.467,107.092,571.2,107.092Z" transform="translate(-510.092 -4.94)" fill="#473a57"/>
    <path id="Caminho_638" data-name="Caminho 638" d="M421.319,113.256v2.629a.552.552,0,0,1-.307.595c-2.709,1.425-7.695,1.221-9.916-2.688a7.349,7.349,0,0,1,2.579-10.028,8.886,8.886,0,0,1,6.915-.6c.245.069.377.155.33.458-.107.686-.183,1.379-.242,2.071-.033.42-.158.5-.573.366a6.287,6.287,0,0,0-3.9-.144,4.262,4.262,0,0,0-2.906,4.977,4.2,4.2,0,0,0,4.291,3.513c.522-.014.747-.155.719-.733-.05-1.053.006-2.107-.024-3.167-.013-.43.133-.54.538-.52a16.748,16.748,0,0,0,1.954,0c.483-.034.556.174.55.584C421.3,111.459,421.319,112.357,421.319,113.256Z" transform="translate(-367.826 -3.638)" fill="#473a57"/>
    <path id="Caminho_639" data-name="Caminho 639" d="M702.5,111.412c0-2.2.018-4.4-.014-6.6-.007-.519.146-.661.641-.627a13.842,13.842,0,0,0,1.818,0c.435-.027.513.137.511.536q-.021,6.637,0,13.272c0,.441-.112.584-.557.558a15.979,15.979,0,0,0-1.885,0c-.424.024-.529-.124-.525-.533C702.511,115.814,702.5,113.614,702.5,111.412Z" transform="translate(-633.423 -4.946)" fill="#473a57"/>
    <path id="Caminho_640" data-name="Caminho 640" d="M274.272,108.6v-6.8c0-.319-.047-.655.443-.65,2.015.02,4.049-.085,6.056.077a4.492,4.492,0,0,1,3.4,6.885.755.755,0,0,0-.006.934,4.582,4.582,0,0,1-3.766,6.995c-.9.043-1.8.007-2.694.007-.232,0-.5,0-.476-.317.025-.286.3-.2.486-.213a20.743,20.743,0,0,0,3.357-.1,4.023,4.023,0,0,0,2.491-6.3.733.733,0,0,1,0-1.042,3.815,3.815,0,0,0,.353-4.129,3.875,3.875,0,0,0-3.554-2.267c-1.7-.054-3.413.009-5.119-.026-.534-.01-.431.3-.431.6V114.98a3.946,3.946,0,0,1,0,.4c-.026.243.124.633-.284.623-.339-.008-.24-.366-.241-.6Q274.269,112,274.272,108.6Z" transform="translate(-244.433 -2.18)" fill="#473a57"/>
    <path id="Caminho_641" data-name="Caminho 641" d="M122.806,99.653c-.4.951-.746,1.764-1.086,2.581q-2.238,5.386-4.475,10.775a3.2,3.2,0,0,1-.2.426c-.071.118-.183.2-.334.113a.238.238,0,0,1-.12-.286,5.025,5.025,0,0,1,.191-.5q2.8-6.752,5.607-13.5c.087-.209.087-.54.424-.524.284.013.293.305.375.5q2.834,6.81,5.662,13.623c.017.042.027.086.047.126.1.208.226.458-.069.569-.264.1-.314-.177-.388-.352-.315-.74-.624-1.484-.933-2.227Z" transform="translate(-101.192)" fill="#473a57"/>
    <path id="Caminho_642" data-name="Caminho 642" d="M5.2,109.348v-6.666a3.5,3.5,0,0,1,.016-.538.258.258,0,0,1,.275-.24c.171.006.227.116.229.267v.539c0,4.265.012,8.529-.013,12.794,0,.573.167.7.715.7,2.382-.029,4.763-.016,7.138-.007.222,0,.59-.124.6.231.014.415-.384.282-.62.283-2.559.009-5.118-.009-7.676.017-.558.005-.682-.205-.677-.71C5.212,113.793,5.2,111.57,5.2,109.348Z" transform="translate(0 -2.88)" fill="#473a57"/>
    <path id="Caminho_643" data-name="Caminho 643" d="M36.966,108.083V102.7c0-.2-.1-.518.228-.537.387-.022.3.318.3.55,0,3.389.019,6.779-.013,10.168-.005.584.169.7.711.682,1.413-.038,2.827-.016,4.241-.009.228,0,.587-.087.584.263,0,.366-.366.242-.589.243-1.616.01-3.233-.016-4.848.017-.529.011-.632-.183-.625-.665C36.981,111.63,36.966,109.857,36.966,108.083Z" transform="translate(-28.852 -3.112)" fill="#473a57"/>
    <path id="Caminho_644" data-name="Caminho 644" d="M308.265,132.641c.4,0,.81-.018,1.214,0a1.7,1.7,0,0,1,1.649,1.564,1.714,1.714,0,0,1-1.368,1.751,5.232,5.232,0,0,1-1.14.064c-.177.007-.311-.051-.325-.254-.018-.261.155-.281.352-.275.247,0,.495.014.741,0a1.2,1.2,0,0,0,1.191-1.138,1.16,1.16,0,0,0-1.191-1.191c-.721-.027-1.438,0-2.157-.014-.242-.006-.641.138-.66-.245-.023-.434.393-.236.62-.257.356-.033.718-.009,1.077-.009Z" transform="translate(-273.773 -30.786)" fill="#473a57"/>
    <path id="Caminho_645" data-name="Caminho 645" d="M307.927,195.394c.425,0,.854-.03,1.276.006a1.671,1.671,0,1,1-.126,3.339c-.268.007-.538,0-.806,0-.143,0-.267-.035-.284-.212-.02-.205.1-.287.275-.3.2-.013.4,0,.6-.007.875-.018,1.418-.482,1.4-1.191-.017-.686-.555-1.134-1.387-1.142-.739-.007-1.478,0-2.218,0-.2,0-.452.037-.432-.267.015-.241.242-.222.419-.224.425,0,.851,0,1.277,0Z" transform="translate(-273.464 -87.795)" fill="#473a57"/>
    <path id="Caminho_646" data-name="Caminho 646" d="M157.031,242.368a.293.293,0,0,1-.2.314c-.115.044-.212-.038-.283-.129a.275.275,0,0,1-.058-.119c-.172-1.178-1.021-1.109-1.893-1.061a19.125,19.125,0,0,1-2.088,0c-.458-.026-.766.079-.865.57a1.72,1.72,0,0,1-.183.43c-.086.17-.144.42-.421.281-.219-.11-.154-.29-.062-.458a.659.659,0,0,0,.018-.064c.453-1.243.453-1.243,1.794-1.243.921,0,1.845.051,2.761-.017a.98.98,0,0,1,1.21.817A4.64,4.64,0,0,0,157.031,242.368Z" transform="translate(-132.353 -129.111)" fill="#473a57"/>
    <path id="Caminho_647" data-name="Caminho 647" d="M171.94,184.225c-.293-.711-.563-1.366-.835-2.02-.077-.183-.2-.4.056-.522s.344.105.42.292c.308.743.6,1.491.922,2.228.175.4.029.537-.361.536h-1.815c-.191,0-.393-.036-.389-.264s.213-.249.4-.249Z" transform="translate(-149.659 -75.319)" fill="#473a57"/>
  </g>
</svg>
