<svg id="Layer_1" data-name="Layer 1" xmlns="http://www.w3.org/2000/svg" viewBox="0 0 30 30"><defs><style>.cls-1{fill:#00ba91;}.cls-2{fill:#028e6d;}.cls-3{fill:none;stroke:#dbe4e9;stroke-miterlimit:10;stroke-width:0.5px;}</style></defs><title>clicks</title><path class="cls-1" d="M24.26,15.72,3,.87A1.68,1.68,0,0,0,.37,2.4L2.6,28.22a1.94,1.94,0,0,0,3.69.67l4.45-9.37a2,2,0,0,1,1.91-1.1L23,19.25A1.94,1.94,0,0,0,24.26,15.72Z"/><path class="cls-2" d="M11.53,18.67a2,2,0,0,0-.79.85L6.29,28.89a1.94,1.94,0,0,1-3.69-.67L.37,2.4A1.66,1.66,0,0,1,1.2.79Z"/><path class="cls-3" d="M25.48,15.58,4.54.94A1.65,1.65,0,0,0,2.76.86h0L2.68.92a1.71,1.71,0,0,0-.75,1.53L2.58,10,4.14,27.91a1.91,1.91,0,0,0,3.63.65l4.39-9.23a1.88,1.88,0,0,1,.41-.55,2,2,0,0,1,.36-.29h0A1.94,1.94,0,0,1,14,18.24l10.2.82A1.91,1.91,0,0,0,25.48,15.58Z"/></svg>